<?xml version="1.0" encoding="UTF-8"?> <svg xmlns="http://www.w3.org/2000/svg" width="156" height="43" viewBox="0 0 156 43" fill="none"><path d="M89.8843 29.8126L84.8032 15.248H77.8604L86.9985 39.8441H92.7467L101.877 15.248H94.9498L89.8843 29.8126Z" fill="black"></path><path d="M122.686 30.3623V21.4274H128.581V15.2494H122.686V9.83594H116.123V15.2494H112.26V21.4274H116.123V31.8604C116.123 37.7758 119.598 40.2934 124.012 40.2934C125.82 40.2934 127.286 39.9922 128.573 39.4439V33.32C128.573 33.32 127.464 33.7602 126.122 33.7602C124.307 33.7602 122.686 32.9802 122.686 30.3623Z" fill="black"></path><path d="M142.274 14.8066C135.215 14.8066 129.474 20.5213 129.474 27.5487C129.474 34.5762 135.215 40.2908 142.274 40.2908C149.333 40.2908 155.073 34.5762 155.073 27.5487C155.073 20.5213 149.333 14.8066 142.274 14.8066ZM142.274 33.7576C138.837 33.7576 136.037 30.9698 136.037 27.5487C136.037 24.1277 138.837 21.3399 142.274 21.3399C145.71 21.3399 148.511 24.1277 148.511 27.5487C148.511 30.9698 145.71 33.7576 142.274 33.7576Z" fill="black"></path><path d="M109.957 15.2461H103.395V39.8422H109.957V15.2461Z" fill="black"></path><path d="M106.673 3.95703C104.028 3.95703 101.879 6.09616 101.879 8.72952C101.879 11.3629 104.028 13.502 106.673 13.502C109.318 13.502 111.467 11.3629 111.467 8.72952C111.467 6.09616 109.318 3.95703 106.673 3.95703Z" fill="black"></path><path d="M63.3792 8.73047L51.3242 39.8443H58.4532L60.6253 33.9443H72.5872L74.7515 39.8443H81.8805L69.8333 8.73047H63.3792ZM70.3143 27.7664H62.906L66.614 17.7117L70.3143 27.7664Z" fill="black"></path><path d="M30.077 27.1884C30.077 18.9018 23.3448 12.1855 15.0385 12.1855C6.73218 12.1855 0 18.9018 0 27.1884C0 35.4751 6.73218 42.1913 15.0385 42.1913C23.3372 42.1913 30.077 35.4751 30.077 27.1884Z" fill="black"></path><path d="M49.2716 11.1167C49.2716 4.97223 44.2817 -0.00585938 38.1226 -0.00585938C31.9635 -0.00585938 26.9736 4.97223 26.9736 11.1167C26.9736 17.2612 31.9712 22.2393 38.1226 22.2393C44.2817 22.2393 49.2716 17.2612 49.2716 11.1167Z" fill="black"></path><path d="M47.7294 32.0957C47.7294 27.6131 44.092 23.9844 39.5988 23.9844C35.1056 23.9844 31.4683 27.6131 31.4683 32.0957C31.4683 36.5783 35.1056 40.207 39.5988 40.207C44.0844 40.2146 47.7294 36.5783 47.7294 32.0957Z" fill="black"></path><path d="M20.8314 1.41211C18.0651 1.41211 15.8262 3.64577 15.8262 6.40545C15.8262 9.16512 18.0651 11.3988 20.8314 11.3988C23.5976 11.3988 25.8366 9.16512 25.8366 6.40545C25.8366 3.64577 23.5976 1.41211 20.8314 1.41211Z" fill="black"></path></svg> 