<?xml version="1.0" encoding="UTF-8"?> <svg xmlns="http://www.w3.org/2000/svg" width="590" height="156" viewBox="0 0 590 156" fill="none"><mask id="mask0_1570_2644" style="mask-type:alpha" maskUnits="userSpaceOnUse" x="0" y="0" width="590" height="156"><path d="M30 0.5H560C576.292 0.5 589.5 13.7076 589.5 30V126C589.5 142.292 576.292 155.5 560 155.5H30C13.7076 155.5 0.5 142.292 0.5 126V30C0.5 13.7076 13.7076 0.5 30 0.5Z" fill="white" stroke="black"></path></mask><g mask="url(#mask0_1570_2644)"><path d="M614.486 38.1616C629.78 18.9321 635.953 -6.52525 632.696 -30.7586C629.31 -55.9489 616.391 -78.0409 596.082 -93.3457C549.372 -128.549 485.477 -116.712 440.879 -84.2519C399.596 -54.2077 350.18 13.7548 397.459 60.0394C437.325 99.0651 509.953 89.2144 541.75 44.3636C556.043 24.2039 561.38 -4.54339 550.396 -27.4964C545.072 -38.6224 534.974 -49.2485 523.343 -53.7391C508.885 -59.3207 493.043 -56.7067 480.104 -48.5759C474.538 -45.0781 469.588 -40.599 466.981 -34.4539C465.807 -31.686 468.734 -31.3894 470.749 -31.7255C474.047 -32.277 477.428 -34.2899 479.572 -36.8348C486.136 -44.6246 495.938 -41.8374 503.972 -37.5507C513.801 -32.3064 520.843 -23.9136 525.526 -13.9136C534.338 4.9022 533.91 27.1901 523.324 45.2666C513.339 62.3181 494.954 69.5333 475.615 69.6476C454.028 69.7749 432.281 60.4326 418.616 43.499C403.228 24.4283 402.394 -0.2386 411.513 -22.3772C419.954 -42.8718 435.949 -63.1144 452.121 -75.6157C460.698 -82.2454 468.9 -87.165 477.621 -90.8621C487.564 -95.0775 498.143 -97.8595 509.26 -98.8454C531.31 -100.802 554.011 -95.8689 573.36 -85.1443C594.925 -73.1914 611.056 -53.8238 617.768 -29.9891C624.355 -6.59666 621.269 19.5538 606.375 39.1672C605.055 40.9058 605.837 41.8085 607.815 41.8043C610.053 41.8 613.124 39.8746 614.486 38.1616Z" fill="#B9FF75"></path><mask id="mask1_1570_2644" style="mask-type:luminance" maskUnits="userSpaceOnUse" x="243" y="-19" width="194" height="196"><path d="M243.651 -1.75902L419.209 -18.6714L436.418 159.963L260.859 176.875L243.651 -1.75902Z" fill="white"></path></mask><g mask="url(#mask1_1570_2644)"><path d="M415.534 -18.3166C429.087 21.8303 423.791 69.5205 405.025 107.51C400.55 116.555 395.211 125.228 391.835 134.745C388.448 144.254 387.163 154.985 390.952 164.343L350.443 168.246L350.431 168.117C346.69 148.333 350.109 128.912 362.027 110.804C379.596 84.069 390.799 68.601 397.81 48.0888C404.821 27.5765 406.746 4.24807 397.5 -15.3593L397.384 -16.5681L415.534 -18.3166Z" fill="#9D7AF8"></path><path d="M397.499 -15.3599C406.745 4.24747 404.82 27.5759 397.809 48.0882C390.798 68.6004 379.594 84.0684 362.026 110.804C350.108 128.911 346.689 148.332 350.429 168.116L350.442 168.245L263.362 176.634C254.038 155.05 259.73 118.432 272.307 98.5575C284.884 78.6918 302.872 62.98 319.002 45.864C326.842 37.5372 334.292 29.0245 340.324 19.8102C344.838 12.9213 348.551 5.63474 351.041 -2.26044C352.069 -5.50732 352.891 -8.86471 353.469 -12.3383L397.382 -16.5687L397.499 -15.3599Z" fill="#BEFD78"></path><path d="M340.025 19.6053C338.958 14.9119 338.561 9.33438 340.648 4.99827C342.736 0.662171 346.086 -2.65007 350.887 -2.31164L351.041 -2.26127C348.551 5.63392 344.839 12.9205 340.324 19.8093L340.025 19.6053Z" fill="#BEFD78"></path></g><path d="M350.429 168.115C346.688 148.331 350.107 128.91 362.025 110.803C379.594 84.0673 390.797 68.5993 397.808 48.0871C404.819 27.5748 406.744 4.2464 397.498 -15.361" stroke="#231F20" stroke-width="2.66667" stroke-miterlimit="10"></path><path d="M350.442 168.243L390.95 164.341C387.162 154.983 388.447 144.252 391.834 134.743C395.21 125.225 400.549 116.553 405.023 107.507C423.79 69.518 429.086 21.8277 415.533 -18.3191L397.382 -16.5706L353.469 -12.3403C352.891 -8.86667 352.069 -5.50928 351.041 -2.2624C348.551 5.63279 344.838 12.9194 340.324 19.8082C334.292 29.0225 326.842 37.5352 319.002 45.8621C302.872 62.9781 284.884 78.6899 272.307 98.5556C259.73 118.431 254.038 155.048 263.362 176.632L350.442 168.243Z" stroke="#231F20" stroke-width="2.66667" stroke-miterlimit="10"></path><path d="M340.025 19.6016C338.958 14.9082 338.561 9.33069 340.648 4.99459C342.736 0.658484 346.086 -2.65376 350.887 -2.31533" stroke="#231F20" stroke-width="2.66667" stroke-miterlimit="10"></path><path d="M390.495 20.3705C389.892 28.8057 383.402 36.2211 376 36.9342C368.597 37.6473 363.086 31.3881 363.689 22.9529C364.292 14.5177 370.782 7.10229 378.184 6.3892C385.587 5.67611 391.098 11.9353 390.495 20.3705Z" stroke="#231F20" stroke-width="2.66667" stroke-miterlimit="10"></path><path d="M379.927 20.5211C379.866 23.2697 377.817 25.6911 375.349 25.9288C372.882 26.1665 370.93 24.1305 370.991 21.3819C371.052 18.6333 373.103 16.2119 375.57 15.9742C378.038 15.7365 379.988 17.7725 379.927 20.5211Z" stroke="#231F20" stroke-width="2.66667" stroke-miterlimit="10"></path><mask id="mask2_1570_2644" style="mask-type:luminance" maskUnits="userSpaceOnUse" x="303" y="99" width="38" height="42"><path d="M303.604 102.535L336.519 99.364L340.157 137.132L307.242 140.303L303.604 102.535Z" fill="white"></path></mask><g mask="url(#mask2_1570_2644)"><path d="M323.893 117.381C324.199 114.073 322.357 111.587 319.774 111.836C317.199 112.084 314.86 114.973 314.555 118.281C314.251 121.597 316.091 124.074 318.675 123.825C321.249 123.577 323.589 120.698 323.893 117.381ZM323.72 100.597C332.578 99.7436 338.938 107.662 337.922 118.283C336.906 128.914 328.899 138.216 320.041 139.07C311.183 139.923 304.823 132.005 305.838 121.374C306.854 110.752 314.852 101.451 323.72 100.597Z" fill="#BEFD78"></path><path d="M319.775 111.835C322.359 111.586 324.2 114.073 323.895 117.38C323.59 120.697 321.251 123.577 318.676 123.825C316.093 124.073 314.252 121.597 314.557 118.28C314.862 114.972 317.201 112.083 319.775 111.835Z" fill="#BEFD78"></path></g><path d="M337.925 118.281C336.909 128.912 328.902 138.214 320.044 139.068C311.186 139.921 304.826 132.003 305.841 121.372C306.857 110.75 314.855 101.449 323.723 100.595C332.581 99.7416 338.941 107.66 337.925 118.281Z" stroke="#231F20" stroke-width="2.66667" stroke-miterlimit="10"></path><path d="M323.899 117.38C323.594 120.697 321.255 123.577 318.68 123.825C316.097 124.073 314.256 121.597 314.561 118.28C314.866 114.972 317.205 112.083 319.779 111.835C322.363 111.586 324.204 114.073 323.899 117.38Z" stroke="#231F20" stroke-width="2.66667" stroke-miterlimit="10"></path><path d="M325.109 141.447C331.396 139.324 336.631 134.312 339.025 128.13" stroke="#231F20" stroke-width="2.66667" stroke-miterlimit="10"></path><mask id="mask3_1570_2644" style="mask-type:luminance" maskUnits="userSpaceOnUse" x="281" y="53" width="36" height="36"><path d="M281.763 56.7216L313.887 53.627L316.911 85.0206L284.787 88.1152L281.763 56.7216Z" fill="white"></path></mask><g mask="url(#mask3_1570_2644)"><path d="M299.428 71.46C301.944 68.5727 302.227 64.6433 300.064 62.691C297.901 60.7294 294.109 61.4859 291.593 64.3732C289.068 67.2613 288.785 71.1907 290.948 73.143C293.12 75.1037 296.912 74.3472 299.428 71.46ZM296.711 86.9486C293.178 87.112 289.816 86.0482 287.304 83.6546C281.634 78.2591 282.44 68.1606 289.08 61.1042C295.729 54.0377 305.713 52.6848 311.373 58.0812C317.034 63.4776 316.238 73.5845 309.598 80.6409C305.898 84.5735 301.16 86.7342 296.711 86.9486Z" fill="#BEFD78"></path><path d="M300.066 62.6917C302.228 64.644 301.946 68.5734 299.43 71.4607C296.914 74.348 293.122 75.1044 290.949 73.1438C288.787 71.1915 289.07 67.2621 291.595 64.3739C294.11 61.4866 297.902 60.7302 300.066 62.6917Z" fill="#BEFD78"></path></g><path d="M311.376 58.0792C317.037 63.4757 316.241 73.5825 309.601 80.6389C305.9 84.5716 301.163 86.7322 296.714 86.9467C293.181 87.11 289.819 86.0463 287.307 83.6527C281.637 78.2572 282.443 68.1586 289.083 61.1022C295.732 54.0357 305.716 52.6828 311.376 58.0792Z" stroke="#231F20" stroke-width="2.66667" stroke-miterlimit="10"></path><path d="M300.069 62.6878C302.231 64.6401 301.948 68.5695 299.433 71.4568C296.917 74.3441 293.125 75.1005 290.952 73.1399C288.79 71.1876 289.073 67.2581 291.598 64.37C294.113 61.4827 297.905 60.7263 300.069 62.6878Z" stroke="#231F20" stroke-width="2.66667" stroke-miterlimit="10"></path><path d="M297.478 91.96C297.649 90.2578 297.389 88.5227 296.716 86.9485C296.665 86.8136 296.605 86.6704 296.536 86.5374" stroke="#231F20" stroke-width="2.66667" stroke-miterlimit="10"></path><path d="M318.925 58.6845C317.64 60.4287 315.013 60.9985 313.124 59.9511" stroke="#231F20" stroke-width="2.66667" stroke-miterlimit="10"></path><path d="M385.4 165.747C382.824 154.704 386.64 143.164 391.742 133.036C396.843 122.907 407.565 105.843 410.873 94.9958" stroke="#231F20" stroke-width="2.66667" stroke-miterlimit="10" stroke-linecap="round" stroke-linejoin="round"></path><mask id="mask4_1570_2644" style="mask-type:luminance" maskUnits="userSpaceOnUse" x="404" y="9" width="179" height="158"><path d="M404 9.0001H582.604V166.129H404V9.0001Z" fill="white"></path></mask><g mask="url(#mask4_1570_2644)"><path d="M560.373 41.9301C580.857 60.2108 588.583 86.8127 577.619 101.352C576.291 103.118 574.74 104.627 573.017 105.883L572.593 105.61C582.049 90.8044 574.18 65.323 554.356 47.6314C537.066 32.2014 516.215 27.6419 503.543 35.3317L503.435 35.1596C504.591 33.6296 505.905 32.294 507.355 31.1529C519.698 21.4234 542.042 25.5741 560.373 41.9301Z" fill="#9D7AF8"></path><path d="M554.356 47.6282C574.18 65.3197 582.049 90.802 572.594 105.607C572.292 106.103 571.954 106.584 571.602 107.05C560.638 121.598 535.149 118.567 514.664 100.287C494.172 82.0067 486.455 55.3974 497.418 40.8577C497.634 40.5698 497.856 40.2901 498.086 40.017C499.659 38.1287 501.489 36.5639 503.543 35.3285C516.216 27.6387 537.067 32.1981 554.356 47.6282ZM555.778 90.7805C556.553 83.4283 551.082 72.916 541.525 64.6594C534.144 58.2836 526.045 54.7296 519.719 54.5285C515.785 54.4061 512.532 55.5761 510.572 58.1761C505.453 64.9465 511.017 78.8325 523 89.1793C534.984 99.5328 548.842 102.441 553.954 95.6701C554.988 94.299 555.584 92.6399 555.778 90.7805Z" fill="#BEFD78"></path><path d="M541.524 64.6609C551.081 72.9183 556.552 83.4298 555.777 90.782C550.55 97.3588 538.43 94.8598 527.796 85.7343C517.112 76.5584 512.646 63.677 517.823 56.9636C518.369 56.2528 519.008 55.643 519.711 55.1258L519.719 54.53C526.044 54.7311 534.143 58.2851 541.524 64.6609Z" fill="#BEFD78"></path><path d="M510.572 58.1775C512.532 55.5784 515.785 54.4083 519.72 54.53L519.712 55.1258C519.009 55.6429 518.369 56.2536 517.824 56.9644C512.647 63.6778 517.113 76.5584 527.797 85.7343C538.431 94.8606 550.551 97.3588 555.777 90.7819C555.584 92.6421 554.988 94.3004 553.955 95.6715C548.842 102.443 534.985 99.535 523.001 89.1808C511.017 78.8348 505.453 64.948 510.572 58.1775Z" fill="#231F20"></path><path d="M491.696 88.0382C515.089 105.837 524.788 132.569 513.358 147.74C512.037 149.492 510.493 151.014 508.763 152.314L508.691 152.278C516.266 136.74 506.343 112.724 484.76 96.2956C464.232 80.6711 439.971 77.1245 426.616 86.7456L426.544 86.6521C427.14 85.4746 427.836 84.3476 428.64 83.2851C429.66 81.928 430.816 80.7141 432.086 79.645C445.068 68.6089 470.392 71.8253 491.696 88.0382Z" fill="#BEFD78"></path><path d="M484.759 96.2976C506.342 112.726 516.265 136.743 508.69 152.281C508.066 153.587 507.304 154.829 506.421 156.007C494.99 171.179 466.758 169.053 443.366 151.254C419.973 133.455 410.273 106.723 421.704 91.5445C421.782 91.4369 421.862 91.336 421.948 91.2284C423.29 89.5056 424.856 88.012 426.615 86.7484C439.97 77.1265 464.231 80.6739 484.759 96.2976Z" fill="#9D7AF8"></path><path d="M501.583 31.3684V31.663C501.015 32.0006 500.491 32.4019 500.025 32.8686C498.861 34.0321 498.093 35.5762 497.813 37.1914C495.939 36.3441 495.214 33.6299 496.435 31.9791C497.677 30.2985 500.24 29.7747 501.583 31.3684Z" fill="#231F20"></path><path d="M503.543 35.3291C501.489 36.5637 499.658 38.1293 498.086 40.0176L497.784 39.766C497.648 38.9121 497.663 38.0432 497.813 37.1884C498.093 35.5732 498.862 34.0291 500.024 32.8665C500.491 32.3998 501.016 31.9976 501.582 31.66C503.176 30.7192 505.093 30.3245 506.925 30.619L507.356 31.1503C505.905 32.2922 504.591 33.6278 503.435 35.157L503.543 35.3291Z" fill="#94DAF3"></path><path d="M431.834 79.3439L432.086 79.6451C430.815 80.7151 429.659 81.929 428.64 83.286C427.835 84.3485 427.138 85.4756 426.543 86.6531L426.615 86.7466C424.855 88.0101 423.29 89.5037 421.948 91.2266L421.84 91.1405C420.009 88.7574 419.865 85.2315 421.409 82.6679C421.524 82.4602 421.661 82.2666 421.804 82.0721C422.881 80.6439 424.906 79.6021 427.009 79.1503C428.718 78.7837 430.477 78.8127 431.834 79.3439Z" fill="#94DAF3"></path><path d="M423.923 61.4598C426.78 69.5377 425.387 74.9436 422.616 77.6577C422.595 77.6652 422.573 77.6792 422.552 77.6867C422.207 77.8663 421.847 78.1608 421.546 78.5415C418.566 80.5514 414.603 80.0276 412.306 76.9544C403.855 65.689 396.042 39.7971 419.988 22.5441L420.154 22.7163C414.79 28.0006 413.203 33.1922 413.554 38.0884C414.216 47.3793 421.847 55.6012 423.923 61.4598Z" fill="#94DAF3"></path><path d="M421.266 82.5913C420.253 81.1126 420.728 79.5396 421.546 78.5416C421.92 78.2834 422.278 77.9963 422.616 77.6587C423.873 77.048 426.048 77.7952 426.946 78.8577L427.011 79.1523C424.906 79.6041 422.881 80.6459 421.805 82.0741C421.661 82.2686 421.524 82.4622 421.409 82.6699L421.266 82.5913Z" fill="#231F20"></path><path d="M482.619 35.0006C463.118 25.2503 417.41 9.22451 413.562 38.0879H413.554C413.203 33.1909 414.789 28.0001 420.153 22.7158C421.761 21.1212 423.707 19.52 426.04 17.9189C448.693 2.38123 480.961 10.057 493.648 18.9822C503.255 25.7452 493.296 40.3353 482.619 35.0006Z" fill="#94DAF3"></path></g><path d="M426.617 86.7462C439.971 77.1251 464.233 80.6717 484.761 96.2953C506.344 112.723 516.267 136.741 508.692 152.279C508.067 153.585 507.306 154.827 506.423 156.005C494.992 171.177 466.76 169.052 443.367 151.252C419.975 133.453 410.275 106.721 421.706 91.5423C421.784 91.4347 421.864 91.3346 421.95 91.2262C423.293 89.5034 424.857 88.0098 426.617 86.7462Z" stroke="#231F20" stroke-width="2.31333" stroke-miterlimit="10" stroke-linecap="round" stroke-linejoin="round"></path><path d="M503.544 35.3308C516.217 27.641 537.068 32.2004 554.357 47.6305C574.181 65.322 582.051 90.8043 572.595 105.61C572.293 106.104 571.956 106.586 571.604 107.053C560.641 121.599 535.151 118.57 514.667 100.289C494.175 82.0082 486.456 55.3989 497.42 40.8592C497.635 40.5721 497.858 40.2924 498.088 40.0193C499.66 38.131 501.491 36.5654 503.544 35.3308Z" stroke="#231F20" stroke-width="2.31333" stroke-miterlimit="10" stroke-linecap="round" stroke-linejoin="round"></path><path d="M503.437 35.1568C504.593 33.6276 505.907 32.2921 507.357 31.1502C519.699 21.4215 542.044 25.5713 560.375 41.9273C580.859 60.208 588.585 86.8099 577.621 101.35C576.293 103.116 574.741 104.624 573.019 105.881" stroke="#231F20" stroke-width="2.31333" stroke-miterlimit="10" stroke-linecap="round" stroke-linejoin="round"></path><path d="M426.545 86.653C427.141 85.4755 427.837 84.3484 428.642 83.2851C429.661 81.9289 430.817 80.715 432.088 79.645C445.07 68.6097 470.393 71.8262 491.697 88.039C515.09 105.838 524.79 132.569 513.359 147.741C512.038 149.493 510.495 151.015 508.763 152.314" stroke="#231F20" stroke-width="2.31333" stroke-miterlimit="10" stroke-linecap="round" stroke-linejoin="round"></path><path d="M519.721 54.5302C526.046 54.7313 534.145 58.2853 541.526 64.661C551.083 72.9185 556.554 83.43 555.779 90.7822C555.585 92.6423 554.989 94.3006 553.955 95.6717C548.843 102.443 534.985 99.5344 523.002 89.181C511.018 78.835 505.454 64.9482 510.573 58.1777C512.533 55.5786 515.786 54.4085 519.721 54.5302Z" stroke="#231F20" stroke-width="2.31333" stroke-miterlimit="10" stroke-linecap="round" stroke-linejoin="round"></path><path d="M555.866 90.6722C555.837 90.7078 555.809 90.7442 555.78 90.7798C550.553 97.3566 538.433 94.8585 527.799 85.7322C517.115 76.5562 512.649 63.6748 517.826 56.9615C518.372 56.2507 519.011 55.6408 519.714 55.1236" stroke="#231F20" stroke-width="2.31333" stroke-miterlimit="10" stroke-linecap="round" stroke-linejoin="round"></path><path d="M421.843 91.1406C420.011 88.7567 419.868 85.2316 421.412 82.668C421.527 82.4603 421.663 82.2659 421.807 82.0723C422.884 80.6432 424.909 79.6022 427.012 79.1496C428.722 78.7838 430.48 78.8128 431.837 79.344" stroke="#231F20" stroke-width="2.31333" stroke-miterlimit="10" stroke-linecap="round" stroke-linejoin="round"></path><path d="M497.786 39.7676C497.65 38.9128 497.665 38.0448 497.815 37.19C498.095 35.5747 498.864 34.0306 500.026 32.8672C500.493 32.4005 501.018 31.9984 501.584 31.6616C503.178 30.7207 505.095 30.326 506.927 30.6198" stroke="#231F20" stroke-width="2.31333" stroke-miterlimit="10" stroke-linecap="round" stroke-linejoin="round"></path><path d="M497.879 37.2188C497.857 37.2113 497.836 37.1972 497.814 37.1898C495.94 36.3424 495.215 33.6283 496.436 31.9775C497.678 30.2969 500.241 29.7731 501.583 31.3668" stroke="#231F20" stroke-width="2.31333" stroke-miterlimit="10" stroke-linecap="round" stroke-linejoin="round"></path><path d="M421.267 82.5898C420.254 81.1111 420.729 79.5381 421.547 78.5401C421.849 78.1595 422.208 77.8658 422.552 77.6862C422.574 77.6787 422.595 77.6647 422.617 77.6572C423.874 77.0465 426.049 77.7938 426.947 78.8562" stroke="#231F20" stroke-width="2.31333" stroke-miterlimit="10" stroke-linecap="round" stroke-linejoin="round"></path><path d="M413.564 38.0888C417.412 9.22458 463.121 25.2512 482.621 35.0015C493.298 40.3362 503.257 25.7461 493.65 18.9822C480.963 10.0579 448.696 2.38214 426.043 17.9198C423.71 19.5209 421.763 21.1221 420.155 22.7167C414.792 28.001 413.205 33.1918 413.556 38.0888C414.217 47.3798 421.849 55.6008 423.925 61.4602C426.782 69.5372 425.389 74.944 422.618 77.6581C422.28 77.9958 421.921 78.2829 421.548 78.5411C418.568 80.5518 414.605 80.0272 412.308 76.9548C403.857 65.6886 396.044 39.7976 419.99 22.5437" stroke="#231F20" stroke-width="2.31333" stroke-miterlimit="10" stroke-linecap="round" stroke-linejoin="round"></path><path d="M423.35 72.3828C427.271 56.6996 401.416 40.941 417.197 25.5118C423.579 19.2709 454.414 -2.64909 492.322 20.1489" stroke="white" stroke-width="1.15733" stroke-miterlimit="10"></path><path d="M489.941 165.488C516.151 159.198 507.081 131.972 498.483 119.297C492.33 110.228 485.189 103.53 476.171 97.3021" stroke="#231F20" stroke-width="2.31333" stroke-miterlimit="10" stroke-linecap="round" stroke-linejoin="round"></path><path d="M425.328 95.441C428.806 90.726 434.95 89.1406 440.52 88.8137C446.705 88.4521 452.99 89.4103 458.919 91.1497C461.556 91.9234 464.173 92.8576 466.602 94.1568C467.417 94.592 468.143 93.3524 467.327 92.9164C462.263 90.2097 456.431 88.7285 450.781 87.9084C444.543 87.0032 437.747 86.8186 431.762 89.095C428.716 90.2535 426.034 92.0789 424.088 94.7161C423.539 95.4609 424.784 96.1775 425.328 95.441Z" fill="white"></path><path d="M504.453 37.1173C517.298 31.2033 532.115 34.8715 543.566 42.1948C549.409 45.9317 554.252 50.7848 558.766 56.012C563.353 61.322 567.497 67.1193 570.349 73.558C573.464 80.5899 574.703 88.302 573.485 95.9248C573.341 96.8284 574.725 97.2182 574.871 96.3063C575.978 89.3678 575.23 82.3491 572.785 75.7657C570.278 69.0134 566.294 62.9273 561.768 57.3633C557.206 51.7571 552.193 46.4124 546.245 42.261C540.469 38.2303 533.906 35.157 527.005 33.6692C519.179 31.9828 511.044 32.5091 503.728 35.8778C502.89 36.2634 503.618 37.5013 504.453 37.1173Z" fill="white"></path></g></svg> 