<?xml version="1.0" encoding="UTF-8"?> <svg xmlns="http://www.w3.org/2000/svg" width="590" height="156" viewBox="0 0 590 156" fill="none"><mask id="mask0_1549_18534" style="mask-type:alpha" maskUnits="userSpaceOnUse" x="0" y="0" width="590" height="156"><path d="M0.5 30C0.5 13.7076 13.7076 0.5 30 0.5H560C576.292 0.5 589.5 13.7076 589.5 30V126C589.5 142.292 576.292 155.5 560 155.5H30C13.7076 155.5 0.5 142.292 0.5 126V30Z" fill="white" stroke="black"></path></mask><g mask="url(#mask0_1549_18534)"><path d="M476.99 166.503C479.203 174.745 478.541 184.117 473.501 191.006C473.196 191.42 472.881 191.818 472.555 192.206C474.977 186.028 475.903 179.362 471.798 172.047C463.9 157.963 442.732 124.556 425.332 111.856C407.932 99.1574 394.689 88.9763 384.25 93.97C379.096 96.4343 374.839 100.415 372.6 105.4C371.059 96.8805 375.926 90.088 375.926 90.088C402.444 69.9965 453.983 129.613 464.885 144.138C470.007 150.956 474.775 158.267 476.99 166.503Z" fill="#BAFF75"></path><path d="M436.173 257.289C440.177 260.204 444.285 262.124 448.32 263.32C442.556 264.546 436.306 264.899 429.731 263.651C409.093 259.733 410.087 224.376 419.911 199.492C429.741 174.611 428.709 163.748 421.228 153.623C413.748 143.499 379.462 136.526 373.25 123.366C370.1 116.693 370.285 110.52 372.601 105.4C373.752 111.836 378.576 119.26 391.944 125.481C422.978 139.927 445.612 152.546 434.965 178.534C424.314 204.515 407.27 236.236 436.173 257.289Z" fill="#BAFF75"></path><path d="M500.262 243.464C500.262 243.464 500.309 243.42 500.329 243.397C504.655 238.905 500.911 232.403 496.816 229.619C492.711 226.818 487.488 226.287 482.511 226.273C477.54 226.266 472.487 226.683 467.664 225.48C462.841 224.278 458.145 221.006 456.935 216.185C455.658 211.077 458.581 205.819 462.237 202.035C465.537 198.617 469.523 195.842 472.555 192.206C472.881 191.818 473.196 191.42 473.501 191.006C478.541 184.117 479.203 174.745 476.99 166.503C474.776 158.267 470.007 150.956 464.885 144.138C453.983 129.613 402.444 69.9965 375.926 90.088C375.926 90.088 371.059 96.8805 372.6 105.4C373.751 111.836 378.575 119.26 391.943 125.481C422.977 139.927 445.611 152.545 434.964 178.534C424.313 204.515 407.269 236.236 436.172 257.288C440.176 260.204 444.284 262.124 448.319 263.319C465.662 268.47 481.628 260.277 481.628 260.277" stroke="#231F20" stroke-width="2" stroke-linecap="round" stroke-linejoin="round"></path><path d="M502.862 254.023C502.862 254.023 514.032 250.397 512.218 238.852C510.402 227.313 507.749 220.847 491.16 217.987C474.577 215.129 460.642 218.728 464.807 208.255C466.803 203.228 470.316 197.926 472.555 192.207C474.977 186.029 475.903 179.363 471.799 172.048C463.9 157.964 442.733 124.557 425.332 111.858C407.932 99.1587 394.689 88.9777 384.251 93.9713C379.097 96.4356 374.84 100.417 372.601 105.401C370.284 110.521 370.1 116.694 373.249 123.367C379.462 136.527 413.748 143.5 421.228 153.625C428.709 163.749 429.74 174.612 419.91 199.493C410.087 224.377 409.092 259.734 429.731 263.652C436.306 264.9 442.556 264.547 448.32 263.321C460.668 260.699 470.776 254.04 476.969 250.399" stroke="#231F20" stroke-width="2" stroke-linecap="round" stroke-linejoin="round"></path><path d="M601.692 55.7131C601.487 56.0974 601.201 56.449 600.817 56.7434L497.59 132.487C494.016 135.235 489.29 135.979 485.046 134.458L390.527 100.581L507.835 36.3008L599.386 51.1503C601.626 51.5019 602.632 53.9305 601.692 55.7131ZM561.379 79.124C562.818 78.1264 561.755 76.8753 559.032 76.3438L537.845 72.1572C535.351 71.6665 532.17 72.0182 530.715 72.9503L502.635 90.8336C500.991 91.8802 501.662 93.2376 504.172 93.8754L525.498 99.2886C528.245 99.9919 531.835 99.6321 533.47 98.4955L561.379 79.124ZM556.865 53.2764C557.437 52.9166 557.257 52.0416 556.587 51.9353L544.902 50.1364L535.744 48.7217L525.882 47.209L517.345 45.8925L508.375 44.5106C508.22 44.486 508.056 44.5106 507.917 44.5923L502.111 47.7977L496.33 50.9868L489.224 54.9036L482.83 58.4361L475.969 62.2221L469.583 65.7464L462.379 69.7204L409.948 98.6508C409.384 98.9616 409.465 99.7874 410.07 99.9919L457.579 115.553C457.784 115.618 458.013 115.594 458.201 115.479L556.865 53.2764Z" fill="#BDCCD4"></path><path d="M600.817 56.7452C601.201 56.4508 601.487 56.0992 601.692 55.7148C600.391 60.4167 596.941 64.4561 593.187 67.5307C589.769 70.3273 519.226 120.951 497.908 137.273C494.36 139.988 489.682 140.732 485.463 139.252C463.524 131.524 395.564 107.549 393.438 106.028C390.895 104.213 390.527 100.582 390.527 100.582L485.046 134.46C489.29 135.981 494.016 135.237 497.59 132.489L600.817 56.7452Z" fill="#69A2A1"></path><path d="M559.032 76.3474C561.755 76.8789 562.818 78.13 561.379 79.1276L533.471 98.499C531.836 99.6357 528.246 99.9954 525.498 99.2922L504.173 93.879C501.662 93.2412 500.992 91.8838 502.635 90.8371L530.715 72.9539C532.171 72.0217 535.352 71.6701 537.846 72.1608L559.032 76.3474Z" fill="#BDCCD4"></path><path d="M526.178 63.588L532.686 59.6057L539.016 55.7298L544.568 52.3363L544.903 50.1367L556.588 51.9357C557.258 52.042 557.438 52.9169 556.866 53.2767L458.202 115.48C458.014 115.594 457.785 115.619 457.58 115.553L410.072 99.9922C409.466 99.7878 409.385 98.9619 409.949 98.6512L462.38 69.7208L463.558 71.8631L462.895 72.2311L471.089 74.1118L463.656 78.3394L456.018 82.6814L447.457 87.5549L439.354 92.1586L431.029 96.9013L439.386 99.4444L449.109 102.404L458.202 105.168L466.64 100.017L474.826 95.0042L483.477 89.7137L489.822 85.8296L497.272 81.2667L504.517 76.8348L511.565 72.5255L519.808 67.4884L526.178 63.588Z" fill="#9D7AFF"></path><path d="M544.904 50.1373L544.568 52.3369L539.016 55.7304L529.85 54.2095L535.41 50.8896L535.745 48.7227L544.904 50.1373Z" fill="#9D7AFF"></path><path d="M539.015 55.7299L532.686 59.6058L523.503 57.995L529.848 54.209L539.015 55.7299Z" fill="#9D7AFF"></path><path d="M535.744 48.7237L535.408 50.8906L529.848 54.2105L519.986 52.5669L525.555 49.3288L525.882 47.2109L535.744 48.7237Z" fill="#9D7AFF"></path><path d="M532.685 59.607L526.176 63.5892L516.993 61.8802L523.502 57.9961L532.685 59.607Z" fill="#9D7AFF"></path><path d="M529.849 54.21L523.503 57.996L513.634 56.2624L519.987 52.5664L529.849 54.21Z" fill="#9D7AFF"></path><path d="M526.176 63.5899L519.806 67.4903L510.606 65.6914L516.993 61.8809L526.176 63.5899Z" fill="#9D7AFF"></path><path d="M525.883 47.211L525.556 49.3289L519.987 52.567L511.45 51.1524L517.027 47.9797L517.346 45.8945L525.883 47.211Z" fill="#9D7AFF"></path><path d="M523.503 57.9953L516.994 61.8794L507.116 60.0477L513.633 56.2617L523.503 57.9953Z" fill="#9D7AFF"></path><path d="M519.986 52.567L513.633 56.263L505.096 54.7666L511.449 51.1523L519.986 52.567Z" fill="#9D7AFF"></path><path d="M519.807 67.4904L511.564 72.5274L510.771 71.2354L503.747 69.7881L510.608 65.6914L519.807 67.4904Z" fill="#9D7AFF"></path><path d="M503.208 49.779L502.112 47.8001L507.918 44.5948C508.057 44.513 508.221 44.4884 508.376 44.513L517.346 45.8949L517.027 47.98L511.451 51.1527L503.208 49.779Z" fill="#9D7AFF"></path><path d="M516.993 61.8805L510.607 65.691L500.737 63.7612L507.115 60.0488L516.993 61.8805Z" fill="#9D7AFF"></path><path d="M513.634 56.262L507.117 60.048L498.588 58.4698L505.097 54.7656L513.634 56.262Z" fill="#9D7AFF"></path><path d="M510.771 71.2364L511.564 72.5284L504.516 76.8377L503.715 75.5293L496.69 74.0002L503.747 69.7891L510.771 71.2364Z" fill="#9D7AFF"></path><path d="M511.45 51.1534L505.097 54.7676L496.854 53.3203C497.051 53.214 497.239 53.0995 497.435 52.9932L496.331 50.9898L502.112 47.8008L503.208 49.7796L511.45 51.1534Z" fill="#9D7AFF"></path><path d="M510.608 65.6915L503.747 69.7882L493.869 67.7603L500.738 63.7617L510.608 65.6915Z" fill="#9D7AFF"></path><path d="M351.089 -4.6891C351.604 -7.01139 353.231 -9.04748 355.627 -9.97149C386.586 -21.9672 440.014 -41.306 471.676 -53.6533C474.366 -54.7 477.384 -53.2935 478.316 -50.5542L507.835 36.3025L390.527 100.582L351.416 -0.428864C350.868 -1.83532 350.786 -3.31536 351.089 -4.6891ZM498.137 34.5853C499.314 33.9802 499.854 32.5983 499.413 31.3554L473.009 -42.4916C472.51 -43.8736 470.989 -44.585 469.607 -44.078L360.394 -3.57702C359.013 -3.06187 358.326 -1.52459 358.849 -0.150848L392.048 85.9944C392.612 87.4499 394.321 88.1041 395.719 87.3845L498.137 34.5853Z" fill="#BDCCD4"></path><path d="M507.116 60.0489L500.738 63.7613L492.209 62.1013L498.587 58.4707L507.116 60.0489Z" fill="#9D7AFF"></path><path d="M490.345 56.9412L489.225 54.9051L496.33 50.9883L497.434 52.9917C497.238 53.098 497.05 53.2124 496.854 53.3187L505.096 54.7661L498.587 58.4703L490.345 56.9412Z" fill="#9D7AFF"></path><path d="M504.516 76.8374L497.271 81.2694L496.462 79.9447L489.438 78.3338L496.691 74L503.715 75.5291L504.516 76.8374Z" fill="#9D7AFF"></path><path d="M503.746 69.7877L496.69 73.9989L486.828 71.8565L493.869 67.7598L503.746 69.7877Z" fill="#9D7AFF"></path><path d="M500.738 63.7615L493.869 67.7601L485.349 66.002L492.209 62.1016L500.738 63.7615Z" fill="#9D7AFF"></path><path d="M499.412 31.3547C499.853 32.5976 499.314 33.9795 498.136 34.5846L395.719 87.3839C394.32 88.1035 392.611 87.4493 392.047 85.9938L358.848 -0.151512C358.325 -1.52526 359.012 -3.06253 360.394 -3.57769L469.606 -44.0787C470.988 -44.5856 472.509 -43.8742 473.008 -42.4923L499.412 31.3547Z" fill="#BAFF75"></path><path d="M483.967 60.4892L482.83 58.4368L489.225 54.9043L490.345 56.9404L498.587 58.4695L492.209 62.1001L483.967 60.4892Z" fill="#9D7AFF"></path><path d="M497.271 81.2676L489.821 85.8304L488.995 84.4812L481.979 82.7804L489.437 78.332L496.461 79.9429L497.271 81.2676Z" fill="#9D7AFF"></path><path d="M496.69 73.9979L489.437 78.3317L479.584 76.0666L486.829 71.8555L496.69 73.9979Z" fill="#9D7AFF"></path><path d="M485.348 66L493.869 67.7581L486.828 71.8548L478.308 69.9986L485.348 66Z" fill="#9D7AFF"></path><path d="M477.123 64.3086L475.97 62.2235L482.83 58.4375L483.967 60.4899L492.209 62.1008L485.349 66.0013L477.123 64.3086Z" fill="#9D7AFF"></path><path d="M488.995 84.4821L489.821 85.8313L483.475 89.7154L474.301 87.3686L481.979 82.7812L488.995 84.4821Z" fill="#9D7AFF"></path><path d="M489.437 78.3353L481.98 82.7837L472.143 80.4041L479.584 76.0703L489.437 78.3353Z" fill="#9D7AFF"></path><path d="M486.829 71.8562L479.584 76.0674L471.088 74.1131L478.308 70L486.829 71.8562Z" fill="#9D7AFF"></path><path d="M485.348 66.0005L478.308 69.999L470.098 68.2164C470.319 68.0938 470.532 67.9793 470.744 67.8566L469.583 65.747L475.969 62.2227L477.122 64.3078L485.348 66.0005Z" fill="#9D7AFF"></path><path d="M483.477 89.714L474.826 95.0046L465.676 92.5187L474.303 87.3672L483.477 89.714Z" fill="#9D7AFF"></path><path d="M481.979 82.7819L474.301 87.3692L464.48 84.8507L472.142 80.4023L481.979 82.7819Z" fill="#9D7AFF"></path><path d="M479.584 76.0676L472.143 80.4014L463.655 78.3408L471.088 74.1133L479.584 76.0676Z" fill="#9D7AFF"></path><path d="M478.307 70.0021L471.086 74.1151L462.893 72.2344L463.555 71.8664L462.378 69.724L469.582 65.75L470.743 67.8597C470.53 67.9823 470.318 68.0968 470.097 68.2195L478.307 70.0021Z" fill="#9D7AFF"></path><path d="M474.825 95.0054L466.639 100.018L457.514 97.3849L465.674 92.5195L474.825 95.0054Z" fill="#9D7AFF"></path><path d="M474.301 87.3682L465.675 92.5197L455.887 89.854L464.481 84.8496L474.301 87.3682Z" fill="#9D7AFF"></path><path d="M463.654 78.3398L472.142 80.4005L464.48 84.8488L456.017 82.6819L463.654 78.3398Z" fill="#9D7AFF"></path><path d="M457.514 97.3867L466.64 100.02L458.201 105.171L449.108 102.407L457.514 97.3867Z" fill="#9D7AFF"></path><path d="M455.887 89.8555L465.675 92.5212L457.514 97.3866L447.759 94.5818L455.887 89.8555Z" fill="#9D7AFF"></path><path d="M464.48 84.8505L455.886 89.8549L447.455 87.5571L456.016 82.6836L464.48 84.8505Z" fill="#9D7AFF"></path><path d="M457.513 97.3868L449.107 102.407L439.385 99.4474L447.758 94.582L457.513 97.3868Z" fill="#9D7AFF"></path><path d="M455.888 89.8524L447.76 94.5788L439.354 92.1584L447.457 87.5547L455.888 89.8524Z" fill="#9D7AFF"></path><path d="M447.758 94.5806L439.384 99.4459L431.027 96.9029L439.352 92.1602L447.758 94.5806Z" fill="#9D7AFF"></path><path d="M351.417 -0.427262L390.528 100.584C390.528 100.584 388.352 102.399 383.626 92.5949C378.908 82.7906 354.189 14.3732 351.67 8.69833C348.914 2.5083 350.198 -2.45516 351.09 -4.6875C350.787 -3.31376 350.869 -1.83372 351.417 -0.427262Z" fill="#69A2A1"></path><path d="M351.089 -4.68911C351.604 -7.0114 353.231 -9.04749 355.627 -9.97149C386.586 -21.9672 440.014 -41.306 471.676 -53.6533C474.366 -54.7 477.384 -53.2935 478.316 -50.5542L507.835 36.3024L599.385 51.152C601.626 51.5036 602.632 53.9322 601.691 55.7148C601.487 56.0991 601.201 56.4507 600.816 56.7451L497.589 132.489C494.016 135.237 489.289 135.981 485.045 134.46L390.527 100.582L351.416 -0.428875C350.868 -1.83533 350.786 -3.31537 351.089 -4.68911Z" stroke="#231F20" stroke-width="2" stroke-linecap="round" stroke-linejoin="round"></path><path d="M351.703 -5.97461C351.703 -5.97461 351.425 -5.52487 351.09 -4.69081C350.198 -2.45847 348.914 2.505 351.67 8.69503C354.189 14.3699 378.908 82.7873 383.626 92.5916C388.352 102.396 390.528 100.581 390.528 100.581C390.528 100.581 390.895 104.211 393.439 106.026C395.565 107.547 463.524 131.523 485.463 139.25C489.682 140.73 494.36 139.986 497.909 137.271C519.226 120.95 589.77 70.3255 593.188 67.5289C596.941 64.4544 600.392 60.4149 601.692 55.7131C601.765 55.4187 601.839 55.1243 601.904 54.8218" stroke="#231F20" stroke-width="2" stroke-linecap="round" stroke-linejoin="round"></path><path d="M507.835 36.3008L390.527 100.581" stroke="#231F20" stroke-width="2" stroke-linecap="round" stroke-linejoin="round"></path><path d="M544.903 50.1388L556.588 51.9377C557.259 52.044 557.438 52.919 556.866 53.2788L458.202 115.482C458.014 115.596 457.785 115.621 457.58 115.555L410.072 99.9943C409.466 99.7899 409.385 98.964 409.949 98.6533L462.38 69.7228L469.584 65.7488L475.97 62.2245L482.831 58.4385L489.225 54.906L496.331 50.9892L502.112 47.8001L507.918 44.5948C508.057 44.513 508.221 44.4884 508.376 44.513L517.346 45.8949L525.883 47.2114L535.745 48.7242L544.903 50.1388Z" stroke="#231F20" stroke-width="2" stroke-linecap="round" stroke-linejoin="round"></path><path d="M451.382 109.35L458.202 105.172L466.64 100.02L474.825 95.0077L483.477 89.7172L489.822 85.8331L497.271 81.2702L504.516 76.8383L511.565 72.529L519.807 67.4919L526.177 63.5915L532.686 59.6092L539.015 55.7333L544.568 52.3398" stroke="#231F20" stroke-linecap="round" stroke-linejoin="round"></path><path d="M442.313 106.462L449.109 102.406L457.515 97.3854L465.675 92.52L474.302 87.3685L481.98 82.7811L489.438 78.3328L496.691 73.999L503.748 69.7878L510.608 65.6911L516.995 61.8806L523.503 57.9965L529.849 54.2105L535.409 50.8906" stroke="#231F20" stroke-linecap="round" stroke-linejoin="round"></path><path d="M432.632 103.378L439.386 99.4453L447.759 94.5799L455.887 89.8536L464.481 84.8493L472.143 80.4009L479.585 76.0671L486.829 71.8559L493.87 67.7592L500.739 63.7606L507.117 60.0483L513.634 56.2623L519.987 52.5663L525.556 49.3281" stroke="#231F20" stroke-linecap="round" stroke-linejoin="round"></path><path d="M424.3 100.731L431.03 96.9038L439.354 92.1611L447.457 87.5574L456.019 82.6839L463.656 78.3419L471.089 74.1143L478.309 70.0013L485.35 66.0027L492.21 62.1023L498.588 58.4716L505.097 54.7674L511.451 51.1532L517.028 47.9805" stroke="#231F20" stroke-linecap="round" stroke-linejoin="round"></path><path d="M423.751 94.0352C423.497 94.1742 423.244 94.3213 422.99 94.4604L431.028 96.9053L439.385 99.4484L449.108 102.408L458.201 105.172L465.527 107.405" stroke="#231F20" stroke-linecap="round" stroke-linejoin="round"></path><path d="M432.019 89.4297C431.773 89.5687 431.528 89.7077 431.274 89.8385L439.353 92.1608L447.759 94.5812L457.515 97.386L466.64 100.019L473.983 102.129" stroke="#231F20" stroke-linecap="round" stroke-linejoin="round"></path><path d="M440.055 84.9473C439.817 85.0863 439.572 85.2171 439.335 85.348L447.455 87.5557L455.885 89.8535L465.673 92.5192L474.823 95.0051L482.183 97.0084" stroke="#231F20" stroke-linecap="round" stroke-linejoin="round"></path><path d="M490.942 56.6133C490.737 56.7196 490.541 56.8341 490.345 56.9404L498.587 58.4695L507.116 60.0477L516.994 61.8793L526.177 63.5883L533.552 64.9539" stroke="#231F20" stroke-linecap="round" stroke-linejoin="round"></path><path d="M497.433 52.9902C497.237 53.0965 497.049 53.211 496.853 53.3173L505.095 54.7647L513.632 56.2611L523.502 57.9946L532.684 59.6055L540.044 60.8975" stroke="#231F20" stroke-linecap="round" stroke-linejoin="round"></path><path d="M503.772 49.4668C503.584 49.5649 503.396 49.6712 503.208 49.7775L511.45 51.1513L519.987 52.5659L529.849 54.2095L539.015 55.7304L546.366 56.957" stroke="#231F20" stroke-linecap="round" stroke-linejoin="round"></path><path d="M470.745 67.8574C470.532 67.9801 470.319 68.0946 470.099 68.2172L478.308 69.9998L486.829 71.856L496.69 73.9984L503.714 75.5275" stroke="#231F20" stroke-linecap="round" stroke-linejoin="round"></path><path d="M477.752 63.9551C477.547 64.0696 477.335 64.184 477.122 64.3067L485.348 65.9993L493.869 67.7574L503.747 69.7853L510.771 71.2327" stroke="#231F20" stroke-linecap="round" stroke-linejoin="round"></path><path d="M484.58 60.1543C484.376 60.2688 484.171 60.3751 483.967 60.4896L492.209 62.1004L500.738 63.7604L510.608 65.6902L519.807 67.4891L527.183 68.9283" stroke="#231F20" stroke-linecap="round" stroke-linejoin="round"></path><path d="M448.576 80.2051C448.347 80.3359 448.11 80.4668 447.873 80.5976L456.017 82.6827L464.481 84.8496L474.301 87.3682L483.476 89.715L490.852 91.6039" stroke="#231F20" stroke-linecap="round" stroke-linejoin="round"></path><path d="M456.163 75.9766C455.934 76.1074 455.713 76.2301 455.484 76.3609L463.653 78.3397L472.141 80.4004L481.978 82.7799L488.994 84.4807" stroke="#231F20" stroke-linecap="round" stroke-linejoin="round"></path><path d="M463.556 71.8633L462.894 72.2313L471.087 74.112L479.583 76.0663L489.436 78.3313L496.46 79.9422" stroke="#231F20" stroke-linecap="round" stroke-linejoin="round"></path><path d="M561.379 79.1276L533.471 98.499C531.836 99.6356 528.246 99.9954 525.498 99.2922L504.173 93.879C501.662 93.2412 500.992 91.8838 502.635 90.8371L530.715 72.9539C532.171 72.0217 535.352 71.6701 537.846 72.1608L559.032 76.3474C561.755 76.8789 562.818 78.13 561.379 79.1276Z" stroke="#231F20" stroke-linecap="round" stroke-linejoin="round"></path><path d="M360.394 -3.57769L469.606 -44.0787C470.988 -44.5856 472.509 -43.8742 473.008 -42.4923L499.412 31.3547C499.853 32.5976 499.314 33.9795 498.136 34.5846L395.719 87.3839C394.32 88.1035 392.611 87.4493 392.047 85.9938L358.848 -0.151511C358.325 -1.52526 359.012 -3.06253 360.394 -3.57769Z" stroke="#231F20" stroke-linecap="round" stroke-linejoin="round"></path><path d="M385.909 12.5732C385.86 12.4761 385.827 12.3709 385.721 12.3223C385.319 11.0839 385.442 10.5173 386.261 9.71597C388.644 8.78514 391.034 7.87049 393.409 6.92348C394.49 6.49448 395.562 6.08977 396.725 6.0493C397.167 6.07358 397.609 6.09786 398.051 6.12215C398.068 6.13024 398.084 6.13833 398.1 6.12215C398.559 6.24356 399.009 6.37306 399.468 6.49447C399.656 6.57541 399.844 6.65636 400.033 6.7373C400.36 6.91537 400.688 7.08536 401.007 7.26343C401.146 7.36056 401.286 7.46578 401.425 7.56291C402.17 8.12141 402.735 8.89845 403.439 9.51361C404.053 10.2016 404.667 10.8815 405.338 11.5048C405.961 12.1928 406.608 12.8565 407.279 13.4878C407.926 14.1516 408.573 14.8072 409.219 15.4709C409.866 16.1508 410.521 16.8227 411.225 17.4297C411.864 18.1258 412.544 18.7653 413.256 19.3723C413.584 19.7366 413.944 20.0603 414.32 20.3598C414.64 20.716 415.016 21.0074 415.393 21.2987C415.622 21.5011 415.835 21.7439 416.122 21.8653C416.245 22.011 416.384 22.1324 416.556 22.2134C416.9 22.4643 417.268 22.6586 417.694 22.7152C418.103 22.7962 418.488 22.699 418.84 22.4562C419.348 22.1163 419.659 21.6468 419.692 20.9993C419.716 20.9021 419.757 20.805 419.716 20.6998C419.683 20.546 419.659 20.3922 419.61 20.2465C418.251 16.078 416.9 11.9176 415.532 7.74907C415.401 7.36055 415.319 6.94775 415.115 6.59161C414.943 6.03311 414.656 5.57984 414.149 5.31273C413.87 5.14275 413.567 5.02134 413.24 4.99706C412.314 4.68948 411.332 4.62472 410.415 4.30095C410.276 4.2362 410.136 4.17144 409.997 4.10669C409.629 3.85577 409.277 3.58057 409.007 3.20823C408.802 2.81971 408.687 2.40691 408.736 1.95363C408.818 1.52464 409.023 1.16851 409.301 0.852836C409.547 0.642386 409.825 0.50478 410.128 0.391461C413.813 -1.04121 417.497 -2.48198 421.182 -3.92274C421.419 -4.01987 421.673 -4.08463 421.919 -4.16557C422.385 -4.19795 422.828 -4.12509 423.27 -3.99559C423.368 -3.94702 423.474 -3.89845 423.573 -3.84179C423.957 -3.56659 424.31 -3.25901 424.604 -2.87858C425.423 -1.56733 425.661 -0.0132456 426.127 1.44371C426.569 2.82781 426.995 4.22001 427.437 5.61221C427.511 6.0412 427.642 6.44592 427.838 6.83444C427.969 7.23915 428.1 7.64386 428.231 8.04857C428.305 8.47756 428.436 8.88226 428.633 9.27078C428.764 9.67549 428.895 10.0802 429.026 10.4849C429.108 10.9139 429.32 11.2862 429.443 11.699C429.574 12.2252 429.82 12.7027 430.033 13.1884C430.172 13.5121 430.368 13.8359 430.737 13.9573C431.056 14.2406 431.433 14.3377 431.842 14.3701C432.284 14.4753 432.686 14.3216 433.07 14.1111C433.529 13.844 433.824 13.4312 434.053 12.9455C434.323 12.3628 434.446 11.7314 434.544 11.1001C434.618 10.9382 434.642 10.7763 434.642 10.5982C434.782 10.2745 434.823 9.92642 434.872 9.57837C435.093 8.63135 435.281 7.68433 435.42 6.72112C435.535 6.44592 435.527 6.15452 435.576 5.87123C435.625 5.6284 435.666 5.38558 435.715 5.15085C435.797 4.6571 435.879 4.16335 435.969 3.66961C435.993 3.45107 436.026 3.23252 436.051 3.01398C436.133 2.75497 436.198 2.49595 436.182 2.21265C436.288 1.70272 436.387 1.19278 436.419 0.66666C436.419 0.618095 436.419 0.561434 436.419 0.512869C436.509 0.124348 436.567 -0.272268 436.575 -0.676977C436.665 -1.15453 436.722 -1.64018 436.747 -2.12583C436.755 -2.20677 436.763 -2.28771 436.78 -2.37675C436.894 -2.76527 436.861 -3.16189 436.894 -3.55851L437.001 -4.9588C437.074 -5.88153 436.976 -6.79618 437.009 -7.71892C437.132 -8.67403 437.443 -9.54011 438.098 -10.2362C438.45 -10.4871 438.777 -10.7542 439.162 -10.9485C439.563 -11.1347 439.965 -11.3127 440.366 -11.4989C440.759 -11.5394 441.103 -11.7093 441.447 -11.9036C441.856 -12.0655 442.265 -12.2193 442.667 -12.3812C443.043 -12.4621 443.403 -12.5997 443.747 -12.8021L444.64 -13.142C445.287 -13.2958 445.901 -13.5872 446.523 -13.8219C446.76 -13.8786 447.006 -13.9433 447.243 -14C447.743 -14 448.226 -13.9029 448.652 -13.6196C449.028 -13.3606 449.233 -12.9478 449.503 -12.5916C449.683 -12.195 449.716 -11.7579 449.839 -11.3532C449.839 -10.8999 449.823 -10.4467 449.814 -10.0015C449.765 -9.52391 449.716 -9.04637 449.667 -8.56881C449.552 -8.09125 449.528 -7.5975 449.479 -7.11185C449.438 -7.07948 449.421 -7.0471 449.454 -6.99853C449.397 -6.52098 449.348 -6.04341 449.29 -5.57395C449.192 -5.13686 449.118 -4.69168 449.102 -4.2465C449.012 -3.76085 448.947 -3.26711 448.922 -2.77337C448.75 -1.81825 448.611 -0.855041 448.521 0.116261C448.373 1.039 448.201 1.95364 448.152 2.89256C447.939 3.89624 447.817 4.91611 447.694 5.93598C447.522 6.85872 447.358 7.78145 447.284 8.71228C447.088 9.73215 446.859 10.752 446.752 11.7881C446.638 12.5489 446.752 13.2369 447.219 13.8359C447.268 14.014 447.366 14.1516 447.514 14.2568C447.686 14.4915 447.923 14.6615 448.169 14.7991C449.331 15.479 450.502 16.1508 451.665 16.8307C451.82 16.9603 451.992 17.0655 452.189 17.1141C452.443 17.3569 452.77 17.4702 453.065 17.6564C453.302 17.794 453.524 17.972 453.786 18.0449C453.957 18.231 454.17 18.3282 454.4 18.4172C454.703 18.6034 454.997 18.7895 455.3 18.9676C455.464 19.0567 455.628 19.1457 455.792 19.2428C456.16 19.4614 456.528 19.6799 456.897 19.8985C456.995 19.9551 457.085 20.0118 457.183 20.0684C457.658 20.3355 458.1 20.6674 458.6 20.8778C459.132 21.2016 459.648 21.5416 460.188 21.8492C461.073 22.351 461.916 22.9176 462.833 23.3547C463.029 23.4842 463.226 23.6218 463.423 23.7513C463.603 23.9212 463.775 24.0912 463.955 24.2612C464.225 24.6012 464.372 25.0059 464.495 25.4268C464.544 26.3738 464.127 27.0294 463.332 27.4422L462.178 27.8955C461.785 28.0088 461.4 28.1545 461.032 28.3407C460.647 28.4864 460.262 28.6321 459.877 28.7778C459.468 28.9397 459.067 29.1096 458.657 29.2715C458.297 29.4091 457.937 29.5548 457.585 29.6924C457.192 29.8057 456.807 29.9514 456.438 30.1376C456.054 30.2833 455.669 30.429 455.284 30.5747C454.956 30.6961 454.637 30.8175 454.31 30.947C453.761 31.0684 453.221 31.1979 452.672 31.3193C452.647 31.3193 452.623 31.3193 452.598 31.3193C452.279 31.3193 451.968 31.2951 451.649 31.3679C451.231 31.3112 450.813 31.2627 450.396 31.206C450.257 31.1089 450.093 31.1251 449.937 31.117C449.577 30.9794 449.217 30.8499 448.848 30.7123C448.66 30.5747 448.455 30.4775 448.234 30.4047C447.948 30.2428 447.669 30.0809 447.383 29.9191C447.186 29.8138 446.99 29.7005 446.785 29.5953C446.425 29.3929 446.089 29.1501 445.704 29.0125C445.606 28.883 445.467 28.8263 445.319 28.794C444.951 28.5107 444.525 28.3488 444.124 28.1302C444.034 28.0817 443.944 28.0412 443.862 27.9926C443.477 27.7012 443.043 27.5232 442.634 27.2965C442.601 27.2156 442.552 27.2237 442.486 27.248C442.421 27.1994 442.364 27.1346 442.298 27.0942C441.094 26.4304 439.899 25.7505 438.695 25.103C438.016 24.7388 437.312 24.4474 436.509 24.6578C436.026 24.674 435.65 24.9249 435.322 25.2892C435.085 25.4753 434.954 25.7263 434.872 26.0177C434.667 26.5195 434.651 27.0213 434.913 27.4989C434.97 27.8955 435.101 28.2678 435.265 28.624C435.347 29.0449 435.469 29.4496 435.658 29.8381C435.748 30.2509 435.887 30.6556 436.051 31.0441C436.149 31.465 436.272 31.8859 436.46 32.2745C436.55 32.6873 436.689 33.0839 436.845 33.4805C436.943 33.9014 437.066 34.3142 437.246 34.7108C437.271 34.8241 437.287 34.9374 437.312 35.0427C437.516 35.7145 437.459 36.362 437.123 36.9853C436.788 37.6085 436.239 37.9323 435.666 38.248C435.306 38.3856 434.945 38.5313 434.593 38.6689C434.2 38.7822 433.816 38.9279 433.447 39.114C433.062 39.2597 432.677 39.4054 432.293 39.5511C431.908 39.7049 431.531 39.8587 431.146 40.0125C430.762 40.1663 430.377 40.312 429.992 40.4658C429.607 40.6034 429.222 40.7329 428.837 40.8705C427.986 40.9757 427.134 41 426.275 41C425.841 40.9757 425.398 40.9433 424.965 40.9191C424.915 40.9191 424.866 40.9191 424.817 40.9191C424.391 40.8138 423.957 40.7895 423.524 40.7491C423.122 40.6762 422.729 40.5953 422.328 40.5224C421.829 40.4091 421.329 40.3039 420.83 40.1906C420.6 40.0935 420.355 40.0368 420.109 40.0044C419.888 39.9154 419.667 39.8101 419.421 39.7939C418.439 39.4459 417.465 39.0979 416.482 38.7498C416.457 38.7417 416.433 38.7255 416.408 38.7174C415.958 38.5313 415.516 38.337 415.066 38.1508C414.926 38.0861 414.787 38.0213 414.648 37.9566C414.247 37.7623 413.837 37.5681 413.436 37.3819C413.362 37.301 413.264 37.2605 413.158 37.2443C412.724 37.0177 412.298 36.791 411.864 36.5644C411.799 36.532 411.733 36.4996 411.659 36.4673C411.201 36.1759 410.759 35.8683 410.268 35.6416C409.424 35.0508 408.581 34.4599 407.729 33.8771C407.459 33.6747 407.181 33.4724 406.911 33.2619C406.788 33.1729 406.665 33.0758 406.542 32.9867C405.781 32.3635 405.011 31.7483 404.249 31.1251C403.971 30.8823 403.709 30.607 403.39 30.429C403.341 30.3157 403.267 30.2266 403.136 30.1943C402.399 29.5386 401.662 28.883 400.925 28.2274C400.262 27.6041 399.599 26.9809 398.927 26.3495C398.256 25.702 397.585 25.0464 396.905 24.3988C396.594 24.0427 396.291 23.6784 395.906 23.4113C395.636 23.0714 395.341 22.7557 394.997 22.4886C394.686 22.1567 394.367 21.8249 394.056 21.493C394.023 21.4768 393.99 21.4525 393.966 21.4363C393.695 21.0559 393.36 20.7483 393.024 20.4408C392.729 20.1332 392.426 19.8175 392.132 19.5099C392.115 19.4856 392.107 19.4614 392.091 19.4371C391.796 19.1295 391.493 18.8138 391.198 18.5063C390.56 17.8102 389.929 17.1141 389.29 16.418C388.66 15.7138 388.038 15.0096 387.407 14.3135C387.153 13.9735 386.891 13.6416 386.572 13.3745C386.417 13.0508 386.138 12.8484 385.909 12.5894V12.5732Z" fill="#9D7AFF"></path></g></svg> 