<?xml version="1.0" encoding="UTF-8"?> <svg xmlns="http://www.w3.org/2000/svg" width="590" height="156" viewBox="0 0 590 156" fill="none"><mask id="mask0_1549_19651" style="mask-type:alpha" maskUnits="userSpaceOnUse" x="0" y="0" width="590" height="156"><path d="M0.5 30C0.5 13.7076 13.7076 0.5 30 0.5H560C576.292 0.5 589.5 13.7076 589.5 30V126C589.5 142.292 576.292 155.5 560 155.5H30C13.7076 155.5 0.5 142.292 0.5 126V30Z" fill="white" stroke="black"></path></mask><g mask="url(#mask0_1549_19651)"><path d="M452.793 9.87305C455.361 16.3151 457.426 22.1339 455.098 28.5534L442.687 62.7456L432.213 90.4357C429.803 97.073 423.534 100.069 416.236 99.881C416.236 99.881 389.83 98.1767 367.14 93.0636C343.669 87.7628 323.127 79.3387 323.127 79.3387C318.682 77.379 314.823 75.9224 313.156 64.3073H313.194C313.839 67.4832 316.107 69.9534 319.028 71.2373C319.028 71.2373 339.57 79.6615 363.041 84.9623C385.73 90.0828 412.136 91.7797 412.136 91.7797C419.434 91.9674 425.704 88.9716 428.114 82.3419L439.646 50.5673L452.057 16.3826C452.936 13.965 453.184 11.7726 452.793 9.87305Z" fill="#2E2C2C"></path><path d="M452.794 9.8747C453.184 11.7743 452.937 13.9667 452.058 16.3843L439.647 50.569L428.115 82.3436C425.705 88.9733 419.435 91.969 412.137 91.7813C412.137 91.7813 385.731 90.0845 363.041 84.9639C339.571 79.6632 319.028 71.239 319.028 71.239C316.108 69.9551 313.84 67.4849 313.195 64.3014C312.849 62.6421 312.947 60.7951 313.623 58.813L323.496 29.8464L333.166 1.47306C335.179 -4.43587 339.623 -7.99474 346.238 -8.18995C346.238 -8.18995 371.623 -10.2247 394.26 -7.84456C420.111 -5.13411 444.272 2.68189 444.272 2.68189C449.28 3.92073 452.088 6.42845 452.794 9.8747ZM399.441 42.2499C401.656 41.3715 402.542 38.5484 401.018 37.2345L377.299 16.8123C375.933 15.641 373.463 16.6996 372.742 18.7719L360.646 53.4371C359.903 55.577 361.57 57.2888 363.619 56.4779L399.441 42.2499Z" fill="#9D7AFF"></path><path d="M401.018 37.2346C402.543 38.5485 401.657 41.3716 399.442 42.2501L363.62 56.478C361.571 57.2889 359.904 55.5771 360.647 53.4372L372.743 18.772C373.463 16.6998 375.934 15.6411 377.3 16.8124L401.018 37.2346Z" fill="white"></path><path d="M452.794 9.8747C453.184 11.7743 452.937 13.9667 452.058 16.3843L439.647 50.569L428.115 82.3436C425.705 88.9733 419.435 91.969 412.137 91.7813C412.137 91.7813 385.731 90.0845 363.041 84.9639C339.571 79.6632 319.028 71.239 319.028 71.239C316.108 69.9551 313.84 67.4849 313.195 64.3014C312.849 62.6421 312.947 60.7951 313.623 58.813L323.496 29.8464L333.166 1.47306C335.179 -4.43587 339.623 -7.99474 346.238 -8.18995C346.238 -8.18995 371.623 -10.2247 394.26 -7.84456C420.111 -5.13411 444.272 2.68189 444.272 2.68189C449.28 3.92073 452.088 6.42845 452.794 9.8747Z" stroke="#231F20" stroke-width="2" stroke-linecap="round" stroke-linejoin="round"></path><path d="M452.32 8.69531C452.478 9.09325 452.636 9.48365 452.793 9.87408C455.361 16.3161 457.426 22.1349 455.098 28.5544L442.687 62.7466L432.213 90.4368C429.803 97.074 423.534 100.07 416.236 99.882C416.236 99.882 389.83 98.1777 367.14 93.0646C343.669 87.7639 323.127 79.3397 323.127 79.3397C318.682 77.3801 314.823 75.9235 313.156 64.3083" stroke="#231F20" stroke-width="2" stroke-linecap="round" stroke-linejoin="round"></path><path d="M360.647 53.4372L372.743 18.772C373.463 16.6998 375.934 15.6411 377.3 16.8124L401.018 37.2346C402.543 38.5485 401.657 41.3716 399.442 42.2501L363.62 56.478C361.571 57.2889 359.904 55.5771 360.647 53.4372Z" stroke="#231F20" stroke-width="2" stroke-linecap="round" stroke-linejoin="round"></path><path d="M512.217 62.8514C514.031 74.3971 502.862 78.0229 502.862 78.0229L500.329 67.3982C504.655 62.9061 500.911 56.404 496.816 53.6198C492.711 50.819 487.488 50.2886 482.511 50.2737C477.54 50.2672 472.487 50.6838 467.664 49.4813C462.841 48.2787 458.145 45.0073 456.935 40.1856C455.658 35.0785 458.581 29.8203 462.237 26.036C465.537 22.6177 469.523 19.8432 472.555 16.2072C470.316 21.9253 466.802 27.2279 464.806 32.2543C460.642 42.7278 474.576 39.1285 491.159 41.9867C507.749 44.8466 510.402 51.3124 512.217 62.8514Z" fill="#BAFF75"></path><path d="M500.329 67.3965L502.861 78.0213C503.054 78.8262 501.671 80.026 499.715 80.7388L486.553 85.5755C484.597 86.2882 482.767 86.2718 482.395 85.5332L481.732 84.2256L477.155 75.2004C477.052 74.9975 477.066 74.7542 477.196 74.4986C477.534 73.7681 478.701 72.9141 480.246 72.3417L495.964 66.574C498.054 65.8045 499.966 65.8846 500.172 66.7493L500.329 67.3965Z" fill="#6596A6"></path><path d="M481.733 84.2258L481.628 84.2762C481.628 84.2762 465.661 92.4694 448.319 87.319C460.667 84.6974 470.775 78.0381 476.969 74.3974L477.196 74.4988C477.066 74.7544 477.053 74.9977 477.155 75.2006L481.733 84.2258Z" fill="#BAFF75"></path><path d="M476.99 -9.49726C479.203 -1.25513 478.541 8.1171 473.501 15.0057C473.196 15.4203 472.881 15.8182 472.555 16.2061C474.977 10.0277 475.903 3.3621 471.798 -3.95307C463.9 -18.0374 442.732 -51.4444 425.332 -64.1435C407.932 -76.8426 394.689 -87.0237 384.25 -82.03C379.096 -79.5657 374.839 -75.5847 372.6 -70.6002C371.059 -79.1195 375.926 -85.912 375.926 -85.912C402.444 -106.004 453.983 -46.3869 464.885 -31.8615C470.007 -25.044 474.775 -17.7328 476.99 -9.49726Z" fill="#BAFF75"></path><path d="M436.173 81.2885C440.177 84.2044 444.285 86.1241 448.32 87.3196C442.556 88.5463 436.306 88.8992 429.731 87.6512C409.093 83.7331 410.087 48.3756 419.911 23.4923C429.741 -1.38929 428.709 -12.2523 421.228 -22.3766C413.748 -32.5009 379.462 -39.4743 373.25 -52.6344C370.1 -59.3067 370.285 -65.4804 372.601 -70.6C373.752 -64.1642 378.576 -56.7399 391.944 -50.519C422.978 -36.0729 445.612 -23.4544 434.965 2.5344C424.314 28.5148 407.27 60.2357 436.173 81.2885Z" fill="#BAFF75"></path><path d="M502.861 78.0213C503.054 78.8262 501.671 80.026 499.715 80.7388L486.553 85.5755C484.597 86.2882 482.767 86.2718 482.395 85.5332L481.732 84.2256L477.155 75.2004C477.052 74.9975 477.066 74.7542 477.196 74.4986C477.534 73.7681 478.701 72.9141 480.246 72.3417L495.964 66.574C498.054 65.8045 499.966 65.8846 500.172 66.7493L500.329 67.3965L502.861 78.0213Z" stroke="#231F20" stroke-width="2" stroke-linecap="round" stroke-linejoin="round"></path><path d="M500.262 67.4644C500.262 67.4644 500.309 67.4201 500.329 67.3971C504.655 62.905 500.911 56.4029 496.816 53.6187C492.711 50.8179 487.488 50.2875 482.511 50.2726C477.54 50.2661 472.487 50.6827 467.664 49.4802C462.841 48.2776 458.145 45.0062 456.935 40.1845C455.658 35.0774 458.581 29.8192 462.237 26.0349C465.537 22.6166 469.523 19.8421 472.555 16.2061C472.881 15.8182 473.196 15.4203 473.501 15.0057C478.541 8.1171 479.203 -1.25513 476.99 -9.49726C474.776 -17.7328 470.007 -25.044 464.885 -31.8615C453.983 -46.3869 402.444 -106.004 375.926 -85.912C375.926 -85.912 371.059 -79.1195 372.6 -70.6002C373.751 -64.1645 378.575 -56.7402 391.943 -50.5193C422.977 -36.0732 445.611 -23.4546 434.964 2.53417C424.313 28.5146 407.269 60.2355 436.172 81.2883C440.176 84.2041 444.284 86.1239 448.319 87.3194C465.662 92.4697 481.628 84.2765 481.628 84.2765" stroke="#231F20" stroke-width="2" stroke-linecap="round" stroke-linejoin="round"></path><path d="M502.862 78.0232C502.862 78.0232 514.032 74.3973 512.218 62.8517C510.402 51.3126 507.749 44.8468 491.16 41.9869C474.577 39.1287 460.642 42.728 464.807 32.2545C466.803 27.2281 470.316 21.9256 472.555 16.2075C474.977 10.029 475.903 3.36343 471.799 -3.95174C463.9 -18.0361 442.733 -51.4431 425.332 -64.1422C407.932 -76.8413 394.689 -87.0223 384.251 -82.0287C379.097 -79.5644 374.84 -75.5834 372.601 -70.5989C370.284 -65.4794 370.1 -59.3056 373.249 -52.6333C379.462 -39.4732 413.748 -32.4998 421.228 -22.3755C428.709 -12.2512 429.74 -1.38819 419.91 23.4934C410.087 48.3767 409.092 83.7343 429.731 87.6523C436.306 88.9004 442.556 88.5474 448.32 87.3207C460.668 84.6991 470.776 78.0398 476.969 74.3991" stroke="#231F20" stroke-width="2" stroke-linecap="round" stroke-linejoin="round"></path><path d="M582.356 138.337C584.978 143.92 582.706 149.898 577.275 151.691L484.652 182.36C479.227 184.155 472.7 181.092 470.079 175.509L442.326 116.437C439.705 110.855 441.976 104.877 447.402 103.076L540.024 72.4125C545.457 70.6131 551.976 73.6807 554.597 79.2636L582.356 138.337ZM564.428 134.439C566.475 133.756 567.335 131.504 566.342 129.405L563.083 122.471L548.866 92.2088C547.882 90.1051 545.425 88.9453 543.378 89.6274L512.572 99.8237C510.527 100.499 509.674 102.754 510.659 104.857L524.618 134.566L528.134 142.053C529.125 144.159 531.584 145.312 533.629 144.637L564.428 134.439Z" fill="#94DBF2"></path><path d="M566.341 129.405C567.334 131.504 566.474 133.757 564.428 134.439L533.628 144.637C531.584 145.312 529.125 144.159 528.133 142.054L524.617 134.567L525.221 134.279C528.164 128.673 534.544 122.901 540.866 121.128C547.19 119.348 556.134 119.73 562.68 122.663L563.083 122.472L566.341 129.405Z" fill="#9D7AFF"></path><path d="M548.867 92.209L563.084 122.472L562.681 122.663C556.135 119.73 547.191 119.348 540.867 121.128C534.545 122.901 528.165 128.673 525.222 134.279L524.618 134.567L510.659 104.858C509.675 102.754 510.528 100.499 512.572 99.8239L543.379 89.6276C545.425 88.9455 547.882 90.1053 548.867 92.209ZM542.076 116.278C544.227 113.154 543.793 108.386 541.148 104.962C538.504 101.532 533.871 99.6243 529.901 100.216C527.913 100.511 526.061 101.421 524.951 102.952C523.843 104.478 522.888 106.797 524.077 109.257L524.188 109.455C525.601 113.575 527.349 117.252 531.326 118.913C535.296 120.578 539.927 119.396 542.076 116.278Z" fill="#94DBF2"></path><path d="M541.146 104.964C543.792 108.388 544.226 113.156 542.075 116.28C539.925 119.397 535.294 120.58 531.325 118.914C527.347 117.254 525.6 113.577 524.186 109.457L524.075 109.259C522.887 106.799 523.841 104.479 524.95 102.954C526.06 101.422 527.911 100.513 529.899 100.218C533.869 99.6261 538.502 101.534 541.146 104.964Z" fill="#9D7AFF"></path><path d="M577.275 151.691L484.652 182.36C479.227 184.155 472.7 181.092 470.079 175.509L442.326 116.437C439.705 110.855 441.976 104.877 447.402 103.076L540.024 72.4125C545.457 70.6131 551.976 73.6807 554.597 79.2636L582.356 138.337C584.978 143.92 582.706 149.898 577.275 151.691Z" stroke="black" stroke-width="2" stroke-linecap="round" stroke-linejoin="round"></path><path d="M464.529 134.846L498.383 123.643" stroke="black" stroke-width="2" stroke-linecap="round" stroke-linejoin="round"></path><path d="M469.061 144.505L497.554 135.07" stroke="black" stroke-width="2" stroke-linecap="round" stroke-linejoin="round"></path><path d="M473.44 153.808L508.963 142.042" stroke="black" stroke-width="2" stroke-linecap="round" stroke-linejoin="round"></path><path d="M563.084 122.472L566.342 129.405C567.335 131.504 566.475 133.757 564.429 134.439L533.629 144.637C531.584 145.312 529.126 144.159 528.134 142.054L524.618 134.567L510.659 104.858C509.675 102.754 510.528 100.499 512.572 99.8239L543.379 89.6276C545.425 88.9455 547.882 90.1053 548.867 92.209L563.084 122.472Z" stroke="black" stroke-width="2" stroke-linecap="round" stroke-linejoin="round"></path><path d="M525.221 134.277C528.165 128.671 534.544 122.899 540.866 121.126C547.19 119.346 556.134 119.728 562.681 122.662" stroke="black" stroke-width="2" stroke-linecap="round" stroke-linejoin="round"></path><path d="M524.186 109.457C525.6 113.577 527.347 117.254 531.325 118.914C535.294 120.58 539.925 119.397 542.075 116.28C544.226 113.156 543.792 108.388 541.146 104.964C538.502 101.534 533.869 99.6261 529.899 100.218C527.911 100.513 526.06 101.422 524.95 102.954C523.841 104.479 522.887 106.799 524.075 109.259" stroke="black" stroke-width="2" stroke-linecap="round" stroke-linejoin="round"></path><path d="M476.91 150.347C477.71 149.003 478.517 147.66 479.318 146.316C479.629 145.797 479.942 145.159 479.65 144.547C479.199 143.619 477.632 143.734 477.311 144.617C476.99 145.5 477.616 146.594 478.445 147.26C479.882 148.409 481.977 148.6 483.311 147.698C484.646 146.796 485.118 144.894 484.391 143.266C483.805 144.709 485.285 146.779 486.964 146.862C488.642 146.945 489.761 144.999 488.905 143.486C490.248 144.998 492.725 145.373 494.113 144.266C495.501 143.159 495.534 140.776 494.197 139.266C493.292 140.851 495.462 143.17 497.438 143.196C499.413 143.222 500.887 141.813 501.971 140.352" stroke="#9D7AFF" stroke-linecap="round" stroke-linejoin="round"></path><path d="M320.852 229.954C313.991 213.095 308.742 194.225 309.049 175.895C309.115 172.01 309.348 168.088 310.034 164.262C310.356 162.447 310.764 160.632 311.37 158.89C311.852 157.52 312.918 156.245 313.334 154.903L312.983 155.122C305.151 155.96 302.844 156.74 306.049 157.462C306.487 157.877 307.115 158.183 307.574 158.606C308.64 159.575 309.429 160.785 310.18 162.003C312.458 165.72 313.801 169.83 315.567 173.788C319.465 182.498 322.976 191.47 327.4 199.932C330.619 206.077 334.94 214.32 342.233 216.23C348.985 218.001 357.533 214.801 362.817 210.814C366.292 208.19 368.898 205.005 369.789 200.668C371.548 192.075 368.482 182.753 365.613 174.765C361.927 164.517 358.671 153.905 356.591 143.22C355.584 138.067 354.861 132.885 355.043 127.615C355.116 125.56 355.277 123.468 355.737 121.456C355.876 120.844 356.036 120.29 356.219 119.692C356.795 117.834 357.182 118.825 355.627 119.831C353.985 120.735 352.343 121.638 350.708 122.535C343.722 125.705 341.678 122.061 344.532 124.372C345.306 124.998 346.043 125.676 346.693 126.427C348.627 128.672 350.014 131.354 351.832 133.686C356.095 139.138 359.766 145.027 364.102 150.421C367.358 154.466 371.095 159.626 375.672 162.294C381.402 165.632 389.454 163.234 393.965 158.803C397.892 154.947 397.753 149.233 397.271 144.124C396.68 137.819 395.001 131.689 394.279 125.414C393.928 122.404 393.979 118.628 395.249 115.793C395.585 115.159 395.965 114.554 396.381 113.978C399.147 111.551 396.14 112.433 387.351 116.617C387.169 116.361 388.483 117.506 388.716 117.732C390.439 119.372 392.045 121.332 393.468 123.235C395.695 126.216 398.863 128.103 401.819 130.326C403.994 131.959 408.257 130.618 410.425 129.736C412.411 128.927 416.973 126.777 416.987 124.153C417.002 121.667 417.104 118.84 416.345 116.442C415.717 114.474 414.374 113.038 412.951 111.507C410.323 108.687 407.17 106.894 403.323 106.252C395.03 104.875 382.526 109.16 381.555 118.665C380.658 127.44 382.315 136.514 382.614 145.304C382.753 149.415 382.037 153.242 381.782 157.272C381.782 157.345 381.592 158.307 381.614 158.132C384.694 156.995 387.775 155.866 390.848 154.728C390.592 154.634 390.351 154.495 390.14 154.313C388.731 153.067 387.337 151.952 386.191 150.421C380.825 143.213 378.125 133.912 374.161 125.917C370.978 119.488 364.883 111.842 357.036 111.566C347.569 111.23 337.276 117.229 335.722 126.944C334.393 135.224 336.269 144.043 338.386 152.032C341.182 162.6 344.846 173.256 345.941 184.174C346.452 189.276 346.481 194.349 346.065 199.459C345.89 201.58 345.671 203.693 345.16 205.763C345.204 205.596 344.284 208.358 344.78 207.235C342.729 211.871 340.999 207.352 351.306 203.584L357.927 201.762C357.693 201.805 360.584 201.929 360.817 201.798C361.109 201.638 362.036 202.964 360.686 201.696C360 201.047 359.109 200.566 358.401 199.925C356.591 198.292 355.138 196.354 353.766 194.357C350.197 189.152 347.255 183.54 344.415 177.921C339.306 167.797 333.619 155.195 323.071 149.532C312.743 143.978 299.406 150.866 296.319 161.726C293.472 171.74 295.844 183.657 297.727 193.65C300.348 207.585 304.976 221.142 311.071 233.934C312.494 236.922 322.071 232.993 320.838 229.961L320.852 229.954Z" fill="#BAFF75"></path></g></svg> 