<?xml version="1.0" encoding="UTF-8"?> <svg xmlns="http://www.w3.org/2000/svg" width="160" height="32" viewBox="0 0 160 32" fill="none"><path d="M2.64062 25.8845L11.4345 6.1543H15.9437L24.7646 25.8829H19.9738L12.7588 8.46538H14.5621L7.3185 25.8829H2.64062V25.8845ZM7.03678 21.657L8.24803 18.1904H18.3948L19.6347 21.657H7.03837H7.03678Z" fill="black"></path><path d="M29.8386 25.8844L23.4688 10.7207H28.0066L33.3052 23.7707H31.0498L36.5458 10.7207H40.7732L34.3748 25.8844H29.837H29.8386Z" fill="black"></path><path d="M44.7774 8.60666C43.9689 8.60666 43.3115 8.37268 42.8038 7.90155C42.296 7.43201 42.043 6.84947 42.043 6.15391C42.043 5.45836 42.296 4.87581 42.8038 4.40628C43.3115 3.93674 43.9689 3.70117 44.7774 3.70117C45.586 3.70117 46.2433 3.92241 46.7511 4.3633C47.2588 4.80419 47.5119 5.374 47.5119 6.06796C47.5119 6.80013 47.262 7.40655 46.7654 7.88564C46.2672 8.36472 45.6051 8.60347 44.779 8.60347L44.7774 8.60666ZM42.5794 25.8841V10.7204H46.9755V25.8841H42.5794Z" fill="black"></path><path d="M49.2578 14.4386V11.0563H59.7707V14.4386H49.2578ZM57.2623 26.107C55.4764 26.107 54.0869 25.6518 53.0905 24.7398C52.0941 23.8293 51.596 22.4716 51.596 20.6667V7.36523H55.9921V20.6126C55.9921 21.2508 56.1608 21.7443 56.4998 22.0928C56.8389 22.4414 57.2989 22.6149 57.8814 22.6149C58.577 22.6149 59.1675 22.4271 59.6577 22.0514L60.8419 25.152C60.3914 25.4719 59.8503 25.7107 59.2216 25.8698C58.5913 26.029 57.9387 26.1102 57.2623 26.1102V26.107Z" fill="black"></path><path d="M70.0567 26.1086C68.4412 26.1086 67.0087 25.7712 65.7592 25.0948C64.5098 24.4183 63.523 23.4936 62.8004 22.3189C62.0762 21.1443 61.7148 19.8057 61.7148 18.3032C61.7148 16.8006 62.0762 15.4334 62.8004 14.2588C63.523 13.0841 64.5098 12.1641 65.7592 11.4972C67.0087 10.8303 68.4412 10.4961 70.0567 10.4961C71.6722 10.4961 73.0825 10.8303 74.3415 11.4972C75.6005 12.1641 76.5873 13.0809 77.3003 14.2444C78.015 15.4095 78.3715 16.7624 78.3715 18.3032C78.3715 19.8439 78.015 21.1459 77.3003 22.3189C76.5857 23.4936 75.5989 24.4183 74.3415 25.0948C73.0825 25.7712 71.6547 26.1086 70.0567 26.1086ZM70.0567 22.5004C70.7889 22.5004 71.4462 22.3316 72.0288 21.9926C72.6113 21.6552 73.0713 21.1713 73.4103 20.541C73.7494 19.9123 73.9181 19.1643 73.9181 18.3C73.9181 17.4357 73.7494 16.6654 73.4103 16.0446C73.0729 15.4239 72.6113 14.9448 72.0288 14.6073C71.4462 14.2699 70.7889 14.0996 70.0567 14.0996C69.3246 14.0996 68.6656 14.2683 68.0831 14.6073C67.5005 14.9448 67.0357 15.4255 66.6888 16.0446C66.3402 16.6654 66.1667 17.4166 66.1667 18.3C66.1667 19.1834 66.3402 19.9107 66.6888 20.541C67.0357 21.1713 67.5005 21.6536 68.0831 21.9926C68.6656 22.3316 69.323 22.5004 70.0567 22.5004Z" fill="black"></path><path d="M81.611 25.8845V6.1543H90.1502C91.9154 6.1543 93.4386 6.4408 94.7167 7.01379C95.9948 7.58679 96.98 8.40808 97.6756 9.47927C98.3711 10.5505 98.7181 11.8285 98.7181 13.312C98.7181 14.7954 98.3695 16.0464 97.6756 17.1176C96.98 18.1888 95.9932 19.0101 94.7167 19.5831C93.4386 20.1561 91.9169 20.4426 90.1502 20.4426H84.1465L86.1758 18.3846V25.8813H81.6094L81.611 25.8845ZM86.1774 18.8955L84.1481 16.7245H89.8971C91.3057 16.7245 92.3578 16.4237 93.0534 15.822C93.7489 15.2204 94.0959 14.3847 94.0959 13.3136C94.0959 12.2424 93.7473 11.3781 93.0534 10.7765C92.3578 10.1748 91.3057 9.874 89.8971 9.874H84.1481L86.1774 7.70298V18.8939V18.8955Z" fill="black"></path><path d="M101.934 25.8831V4.96875H106.33V25.8831H101.934Z" fill="black"></path><path d="M115.094 26.1083C113.91 26.1083 112.896 25.9061 112.051 25.5019C111.206 25.0976 110.558 24.5485 110.106 23.8529C109.656 23.1574 109.43 22.3774 109.43 21.5132C109.43 20.6489 109.651 19.8228 110.092 19.1464C110.533 18.4699 111.233 17.9399 112.191 17.5547C113.149 17.1695 114.399 16.977 115.94 16.977H119.97V19.5411H116.419C115.386 19.5411 114.676 19.7098 114.291 20.0489C113.905 20.3863 113.713 20.8097 113.713 21.3174C113.713 21.8808 113.934 22.3281 114.375 22.656C114.816 22.9855 115.422 23.1494 116.193 23.1494C116.963 23.1494 117.582 22.9759 118.165 22.6273C118.747 22.2804 119.169 21.7678 119.433 21.0914L120.11 23.1207C119.79 24.098 119.207 24.8397 118.362 25.3475C117.517 25.8552 116.427 26.1083 115.093 26.1083H115.094ZM119.717 25.8823V22.9234L119.435 22.2756V16.977C119.435 16.0379 119.148 15.3041 118.575 14.7789C118.002 14.2536 117.124 13.9894 115.94 13.9894C115.131 13.9894 114.337 14.1167 113.558 14.3698C112.779 14.6229 112.116 14.9667 111.572 15.398L109.993 12.3261C110.819 11.7436 111.816 11.2932 112.981 10.9732C114.146 10.6533 115.33 10.4941 116.532 10.4941C118.843 10.4941 120.637 11.0401 121.915 12.1288C123.193 13.2191 123.831 14.9189 123.831 17.23V25.8823H119.717Z" fill="black"></path><path d="M126.002 14.4386V11.0563H136.515V14.4386H126.002ZM134.006 26.107C132.221 26.107 130.831 25.6518 129.835 24.7398C128.838 23.8293 128.34 22.4716 128.34 20.6667V7.36523H132.736V20.6126C132.736 21.2508 132.905 21.7443 133.244 22.0928C133.583 22.4414 134.043 22.6149 134.626 22.6149C135.321 22.6149 135.912 22.4271 136.402 22.0514L137.586 25.152C137.136 25.4719 136.594 25.7107 135.966 25.8698C135.335 26.029 134.683 26.1102 134.006 26.1102V26.107Z" fill="black"></path><path d="M146.803 26.1086C145.187 26.1086 143.755 25.7712 142.505 25.0948C141.256 24.4183 140.269 23.4936 139.546 22.3189C138.822 21.1443 138.461 19.8057 138.461 18.3032C138.461 16.8006 138.822 15.4334 139.546 14.2588C140.269 13.0841 141.256 12.1641 142.505 11.4972C143.755 10.8303 145.187 10.4961 146.803 10.4961C148.418 10.4961 149.829 10.8303 151.088 11.4972C152.347 12.1641 153.333 13.0809 154.046 14.2444C154.761 15.4095 155.118 16.7624 155.118 18.3032C155.118 19.8439 154.761 21.1459 154.046 22.3189C153.332 23.4936 152.345 24.4183 151.088 25.0948C149.829 25.7712 148.401 26.1086 146.803 26.1086ZM146.803 22.5004C147.535 22.5004 148.192 22.3316 148.775 21.9926C149.357 21.6552 149.817 21.1713 150.156 20.541C150.495 19.9123 150.664 19.1643 150.664 18.3C150.664 17.4357 150.495 16.6654 150.156 16.0446C149.819 15.4239 149.357 14.9448 148.775 14.6073C148.192 14.2699 147.535 14.0996 146.803 14.0996C146.071 14.0996 145.412 14.2683 144.829 14.6073C144.247 14.9448 143.782 15.4255 143.435 16.0446C143.086 16.6654 142.913 17.4166 142.913 18.3C142.913 19.1834 143.086 19.9107 143.435 20.541C143.782 21.1713 144.247 21.6536 144.829 21.9926C145.412 22.3316 146.069 22.5004 146.803 22.5004Z" fill="black"></path></svg> 