<?xml version="1.0" encoding="UTF-8"?> <svg xmlns="http://www.w3.org/2000/svg" width="967" height="212" viewBox="0 0 967 212" fill="none"><path d="M248.3 25.9902H371.38V68.9602H307.38V85.0702H364.67V121.32H307.38V139.67H371.38V182.64H248.3V25.9902Z" fill="black"></path><path d="M384.8 64.0299H430.45V77.2299C433.14 72.7499 437.01 68.8799 442.09 65.5899C447.16 62.3099 454.1 60.6699 462.9 60.6699C470.96 60.6699 477.14 61.9799 481.47 64.5899C485.79 67.1999 489.3 71.1199 491.99 76.3399C494.53 72.1699 498.55 68.5099 504.07 65.3699C509.59 62.2399 516.9 60.6699 526 60.6699C539.43 60.6699 549.08 64.2199 554.98 71.2999C560.87 78.3899 563.82 88.6399 563.82 102.07V182.63H514.59V112.14C514.59 107.81 513.99 104.79 512.8 103.08C511.6 101.37 509.67 100.51 506.98 100.51C503.99 100.51 501.91 101.41 500.71 103.2C499.51 104.99 498.92 107.98 498.92 112.15V182.64H449.69V112.14C449.69 107.81 449.09 104.79 447.9 103.08C446.7 101.37 444.77 100.51 442.08 100.51C439.09 100.51 437.01 101.41 435.81 103.2C434.61 104.99 434.02 107.98 434.02 112.15V182.64H384.79V64.0299H384.8Z" fill="black"></path><path d="M635.66 185.99C626.11 185.99 617.49 184.5 609.81 181.51C602.12 178.53 595.56 174.35 590.12 168.98C584.67 163.61 580.46 157.16 577.48 149.62C574.49 142.09 573 133.7 573 124.44V119.96C573 111.31 574.49 103.37 577.48 96.1301C580.46 88.9001 584.68 82.6302 590.12 77.3302C595.56 72.0402 602.13 67.9302 609.81 65.0202C617.49 62.1102 626.11 60.6602 635.66 60.6602C647 60.6602 656.54 62.0002 664.3 64.6902C672.06 67.3802 678.36 71.1101 683.21 75.8801C688.06 80.6602 691.64 86.2502 693.95 92.6602C696.26 99.0802 697.72 105.94 698.31 113.25H652.21C651.61 108.48 650.2 105.16 647.96 103.29C645.72 101.43 642.74 100.49 639.01 100.49C633.94 100.49 630.09 102.17 627.49 105.53C624.88 108.89 623.57 113.7 623.57 119.96V124.44C623.57 138.91 628.72 146.15 639.01 146.15C642.44 146.15 645.35 145.22 647.74 143.35C650.12 141.49 651.62 138.17 652.22 133.39H698.32C697.72 141.6 696.16 148.94 693.62 155.43C691.08 161.92 687.32 167.44 682.32 171.99C677.32 176.54 670.98 180.01 663.3 182.4C655.61 184.78 646.4 185.98 635.66 185.98V185.99Z" fill="black"></path><path d="M771.04 185.99C761.19 185.99 752.24 184.72 744.19 182.19C736.13 179.65 729.2 175.89 723.38 170.89C717.56 165.89 713.05 159.63 709.84 152.09C706.63 144.56 705.03 135.72 705.03 125.57V121.09C705.03 111.1 706.56 102.29 709.62 94.6799C712.68 87.0699 717 80.7699 722.6 75.7699C728.19 70.7699 734.91 67.0099 742.74 64.4699C750.57 61.9299 759.26 60.6699 768.81 60.6699C790.59 60.6699 806.66 65.8599 817.03 76.2199C827.4 86.5899 832.58 101.92 832.58 122.21V135.64H754.93C755.52 140.71 756.98 144.48 759.29 146.94C761.6 149.4 765.52 150.63 771.04 150.63C775.22 150.63 778.27 149.92 780.21 148.5C782.15 147.08 783.57 145.41 784.46 143.46H831.45C829.21 158.08 822.98 168.82 812.76 175.68C802.54 182.54 788.63 185.97 771.03 185.97L771.04 185.99ZM769.92 96.0299C764.85 96.0299 761.23 97.3399 759.07 99.9499C756.91 102.56 755.6 105.81 755.15 109.68H783.79C783.34 105.8 782.07 102.56 779.99 99.9499C777.9 97.3399 774.54 96.0299 769.92 96.0299Z" fill="black"></path><path d="M905.31 185.99C895.46 185.99 886.51 184.72 878.46 182.19C870.41 179.66 863.47 175.89 857.65 170.89C851.83 165.89 847.32 159.63 844.11 152.09C840.9 144.56 839.3 135.72 839.3 125.57V121.09C839.3 111.1 840.83 102.29 843.89 94.6799C846.95 87.0699 851.27 80.7699 856.87 75.7699C862.46 70.7699 869.18 67.0099 877.01 64.4699C884.84 61.9299 893.53 60.6699 903.08 60.6699C924.86 60.6699 940.93 65.8599 951.3 76.2199C961.67 86.5899 966.85 101.92 966.85 122.21V135.64H889.2C889.79 140.71 891.25 144.48 893.56 146.94C895.87 149.4 899.79 150.63 905.31 150.63C909.49 150.63 912.54 149.92 914.48 148.5C916.42 147.08 917.84 145.41 918.73 143.46H965.72C963.48 158.08 957.25 168.82 947.03 175.68C936.81 182.54 922.9 185.97 905.3 185.97L905.31 185.99ZM904.19 96.0299C899.12 96.0299 895.5 97.3399 893.34 99.9499C891.18 102.56 889.87 105.81 889.42 109.68H918.06C917.61 105.8 916.34 102.56 914.26 99.9499C912.17 97.3399 908.81 96.0299 904.19 96.0299Z" fill="black"></path><g style="mix-blend-mode:multiply"><path d="M183.89 9.44C180.15 3.56 173.66 0 166.69 0H37.13C30.16 0 23.68 3.56 19.93 9.44L1.91 37.76C0.660002 39.72 0 42 0 44.33V69.3C0 76.05 5.48 81.53 12.23 81.53H191.59C198.34 81.53 203.82 76.05 203.82 69.3V44.33C203.82 42 203.16 39.73 201.91 37.76L183.89 9.44Z" fill="#A2A2A2"></path></g><g style="mix-blend-mode:multiply"><path d="M183.89 74.6705C180.15 68.7905 173.66 65.2305 166.69 65.2305H37.13C30.16 65.2305 23.68 68.7905 19.93 74.6705L1.91 102.99C0.660002 104.95 0 107.23 0 109.56V134.53C0 141.28 5.48 146.76 12.23 146.76H191.59C198.34 146.76 203.82 141.28 203.82 134.53V109.56C203.82 107.23 203.16 104.96 201.91 102.99L183.89 74.6705Z" fill="#A2A2A2"></path></g><g style="mix-blend-mode:multiply"><path d="M183.89 139.889C180.15 134.009 173.66 130.449 166.69 130.449H37.13C30.16 130.449 23.68 134.009 19.93 139.889L1.91 168.209C0.660002 170.169 0 172.449 0 174.779V199.749C0 206.499 5.48 211.979 12.23 211.979H191.59C198.34 211.979 203.82 206.509 203.82 199.749V174.779C203.82 172.449 203.16 170.179 201.91 168.209L183.89 139.889Z" fill="#A2A2A2"></path></g><g style="mix-blend-mode:multiply"><path d="M183.89 9.44C180.15 3.56 173.66 0 166.69 0H37.13C30.16 0 23.68 3.56 19.93 9.44L1.91 37.76C0.660002 39.72 0 42 0 44.33V69.3C0 76.05 5.48 81.53 12.23 81.53H191.59C198.34 81.53 203.82 76.05 203.82 69.3V44.33C203.82 42 203.16 39.73 201.91 37.76L183.89 9.44Z" fill="white"></path></g><g style="mix-blend-mode:multiply"><path d="M183.89 74.6705C180.15 68.7905 173.66 65.2305 166.69 65.2305H37.13C30.16 65.2305 23.68 68.7905 19.93 74.6705L1.91 102.99C0.660002 104.95 0 107.23 0 109.56V134.53C0 141.28 5.48 146.76 12.23 146.76H191.59C198.34 146.76 203.82 141.28 203.82 134.53V109.56C203.82 107.23 203.16 104.96 201.91 102.99L183.89 74.6705Z" fill="white"></path></g><g style="mix-blend-mode:multiply"><path d="M183.89 139.889C180.15 134.009 173.66 130.449 166.69 130.449H37.13C30.16 130.449 23.68 134.009 19.93 139.889L1.91 168.209C0.660002 170.169 0 172.449 0 174.779V199.749C0 206.499 5.48 211.979 12.23 211.979H191.59C198.34 211.979 203.82 206.509 203.82 199.749V174.779C203.82 172.449 203.16 170.179 201.91 168.209L183.89 139.889Z" fill="white"></path></g></svg> 