<?xml version="1.0" encoding="UTF-8"?> <svg xmlns="http://www.w3.org/2000/svg" width="54" height="48" viewBox="0 0 54 48" fill="none"><path d="M52.7873 1.05027L52.8073 1.03027C52.8073 1.03027 52.8073 1.05027 52.7773 1.06027V1.05027H52.7873Z" fill="#94DBF2"></path><path d="M52.7383 1.0898L52.7783 1.0498V1.0598C52.7783 1.0598 52.7583 1.0798 52.7383 1.0898Z" fill="#94DBF2"></path><path d="M52.7379 1.09055C52.7379 1.09055 52.7679 1.07055 52.7779 1.06055C52.1679 2.43055 40.0479 40.2505 37.9779 46.8605C37.8079 47.3905 37.2379 47.5506 36.7479 47.2006L25.8679 39.5405L18.0879 34.0505L52.7379 1.08055V1.09055Z" fill="#94DBF2"></path><path d="M52.7374 1.08984L18.0874 34.0598L17.9274 34.0898L20.8774 44.8798L15.1074 31.6098L52.2874 1.33984C52.5074 1.22984 52.6674 1.14985 52.7474 1.09985L52.7374 1.08984Z" fill="#94DBF2"></path><path d="M52.2778 1.33984L15.0978 31.6098L1.56777 23.1898C0.857766 22.7498 0.797766 21.6498 1.47777 21.3898C9.98777 18.1498 47.3878 3.66984 52.2778 1.33984Z" fill="white"></path><path d="M18.0877 34.0605L25.8677 39.5506L25.8277 39.6405L21.3277 45.9506L20.8677 44.8806L17.9277 34.0906L18.0877 34.0605Z" fill="#94DBF2"></path><path d="M52.7378 1.09C52.6578 1.14 52.4978 1.23 52.2778 1.33M52.2778 1.33C47.3878 3.66 9.98777 18.14 1.47777 21.38C0.797766 21.64 0.857766 22.74 1.56777 23.18L15.0978 31.6L52.2778 1.33ZM52.2778 1.33L52.6778 1" stroke="#231F20" stroke-linecap="round" stroke-linejoin="round"></path><path d="M52.8077 1.03027L52.7877 1.05027L52.7477 1.09027L18.0977 34.0603L25.8777 39.5503L36.7577 47.2103C37.2477 47.5503 37.8177 47.3903 37.9877 46.8703C40.0577 40.2603 52.1777 2.43027 52.7877 1.07027V1.06027C52.7977 1.04027 52.8077 1.03027 52.8077 1.04027C52.8077 1.04027 52.8077 1.06027 52.7777 1.07027C52.7777 1.07027 52.7577 1.09027 52.7377 1.10027" stroke="#231F20" stroke-linecap="round" stroke-linejoin="round"></path><path d="M15.0977 31.6104L20.8677 44.8804L21.3277 45.9504L25.8277 39.6404" stroke="#231F20" stroke-linecap="round" stroke-linejoin="round"></path><path d="M17.9277 34.0898L20.8677 44.8798L21.1677 45.9798" stroke="#231F20" stroke-linecap="round" stroke-linejoin="round"></path></svg> 