<?xml version="1.0" encoding="UTF-8"?> <svg xmlns="http://www.w3.org/2000/svg" width="64" height="50" viewBox="0 0 64 50" fill="none"><path d="M62.0445 9.25488C63.1545 12.0649 64.0645 14.6049 63.0445 17.4049L57.6245 32.3349L53.0545 44.4249C52.0045 47.3249 49.2645 48.6249 46.0745 48.5449C46.0745 48.5449 34.5445 47.8049 24.6345 45.5649C14.3845 43.2549 5.41446 39.5749 5.41446 39.5749C3.47446 38.7149 1.78445 38.0849 1.06445 33.0049H1.07446C1.35446 34.3949 2.34445 35.4749 3.62445 36.0349C3.62445 36.0349 12.5945 39.7149 22.8445 42.0249C32.7545 44.2649 44.2745 45.0049 44.2745 45.0049C47.4645 45.0849 50.2045 43.7849 51.2545 40.8849L56.2845 27.0149L61.7045 12.0849C62.0845 11.0349 62.2045 10.0749 62.0345 9.25488H62.0445Z" fill="#2E2C2C"></path><path d="M62.0449 9.2546C62.2149 10.0846 62.1049 11.0346 61.7149 12.0846L56.2949 27.0146L51.2649 40.8846C50.2149 43.7846 47.4749 45.0846 44.2849 45.0046C44.2849 45.0046 32.7549 44.2646 22.8549 42.0246C12.6049 39.7146 3.63492 36.0346 3.63492 36.0346C2.35492 35.4746 1.36492 34.3946 1.08492 33.0046C0.934922 32.2846 0.97492 31.4746 1.27492 30.6046L5.58492 17.9646L9.80492 5.57459C10.6849 2.99459 12.6249 1.44459 15.5149 1.35459C15.5149 1.35459 26.5949 0.464597 36.4849 1.5046C47.7649 2.6846 58.3249 6.10459 58.3249 6.10459C60.5149 6.64459 61.7449 7.7446 62.0449 9.2546ZM38.7449 23.3846C39.7149 23.0046 40.0949 21.7746 39.4349 21.1946L29.0749 12.2746C28.4849 11.7646 27.4049 12.2246 27.0849 13.1246L21.8049 28.2646C21.4749 29.1946 22.2049 29.9446 23.0949 29.5846L38.7349 23.3746L38.7449 23.3846Z" fill="#9D7AFF"></path><path d="M39.4352 21.1947C40.1052 21.7647 39.7152 22.9947 38.7452 23.3847L23.1052 29.5947C22.2152 29.9547 21.4852 29.2047 21.8152 28.2747L27.0952 13.1347C27.4052 12.2347 28.4852 11.7647 29.0852 12.2847L39.4452 21.2047L39.4352 21.1947Z" fill="white"></path><path d="M62.0449 9.2546C62.2149 10.0846 62.1049 11.0346 61.7149 12.0846L56.2949 27.0146L51.2649 40.8846C50.2149 43.7846 47.4749 45.0846 44.2849 45.0046C44.2849 45.0046 32.7549 44.2646 22.8549 42.0246C12.6049 39.7146 3.63492 36.0346 3.63492 36.0346C2.35492 35.4746 1.36492 34.3946 1.08492 33.0046C0.934922 32.2846 0.97492 31.4746 1.27492 30.6046L5.58492 17.9646L9.80492 5.57459C10.6849 2.99459 12.6249 1.44459 15.5149 1.35459C15.5149 1.35459 26.5949 0.464597 36.4849 1.5046C47.7649 2.6846 58.3249 6.10459 58.3249 6.10459C60.5149 6.64459 61.7449 7.7446 62.0449 9.2546Z" stroke="#231F20" stroke-linecap="round" stroke-linejoin="round"></path><path d="M61.8345 8.73438C61.9045 8.90438 61.9745 9.08438 62.0445 9.25438C63.1545 12.0644 64.0645 14.6044 63.0445 17.4044L57.6245 32.3344L53.0545 44.4244C52.0045 47.3244 49.2645 48.6244 46.0745 48.5444C46.0745 48.5444 34.5445 47.8044 24.6345 45.5644C14.3845 43.2544 5.41446 39.5744 5.41446 39.5744C3.47446 38.7144 1.78445 38.0844 1.06445 33.0044" stroke="#231F20" stroke-linecap="round" stroke-linejoin="round"></path><path d="M21.8052 28.2747L27.0852 13.1347C27.3952 12.2347 28.4752 11.7647 29.0752 12.2847L39.4352 21.2047C40.1052 21.7747 39.7152 23.0047 38.7452 23.3947L23.1052 29.6047C22.2152 29.9647 21.4852 29.2147 21.8152 28.2847L21.8052 28.2747Z" stroke="#231F20" stroke-linecap="round" stroke-linejoin="round"></path></svg> 