<?xml version="1.0" encoding="UTF-8"?> <svg xmlns="http://www.w3.org/2000/svg" width="55" height="58" viewBox="0 0 55 58" fill="none"><path d="M15.4312 56.8503C15.3012 56.8503 15.1712 56.8003 15.0812 56.7003C14.9112 56.5303 14.8912 56.2703 15.0112 56.0803C16.3812 53.9403 16.6812 51.6203 16.9912 49.1603C17.0512 48.7203 17.1012 48.2803 17.1612 47.8403C17.1612 47.8403 17.1612 47.8403 17.1612 47.8303C16.9012 48.1103 16.6412 48.3903 16.3912 48.6703C16.0212 49.1003 15.6512 49.5303 15.2912 49.9603C14.6812 50.6803 14.0712 51.4103 13.4312 52.1003C13.0712 52.4903 12.6612 52.8003 12.2612 53.1103C12.0912 53.2403 11.9212 53.3803 11.7512 53.5103C11.6612 53.5903 11.5412 53.6203 11.4312 53.6203C11.3112 53.6203 11.1812 53.5703 11.0812 53.4803C10.8912 53.3003 10.7412 52.8803 10.9012 52.6803L11.0312 52.5103C11.1412 52.3703 11.2512 52.2203 11.3712 52.0903C12.4312 50.9903 13.4912 49.8903 14.5712 48.8003C16.0912 47.2603 17.0412 45.4603 17.4712 43.3203C17.0912 43.7603 16.7112 44.2103 16.3312 44.6503C15.2612 45.8903 14.1612 47.1803 13.0412 48.4103C12.0512 49.4903 10.9512 50.4703 9.89125 51.4103C9.47125 51.7803 8.93125 52.0103 8.46125 52.2103C8.27125 52.2903 8.10125 52.3303 7.94125 52.3303C7.64125 52.3303 7.37125 52.2003 7.19125 51.9803C7.00125 51.7303 6.95125 51.3903 7.05125 51.0303C7.25125 50.3403 7.55125 49.6903 7.79125 49.2103C8.04125 48.7203 8.35125 48.2903 8.66125 47.8603C8.82125 47.6303 9.03124 47.5503 9.17124 47.5003C9.25124 47.4603 9.36125 47.4403 9.46125 47.4403C9.64125 47.4403 9.81124 47.5003 9.90124 47.6403C9.99124 47.7803 10.1012 48.1003 10.0412 48.2603L9.48125 49.5503C10.7912 48.4303 12.0012 47.2003 13.2012 45.8703L13.1312 45.8303C13.0112 45.7603 12.9312 45.6503 12.9012 45.5203C12.8712 45.3903 12.8912 45.2503 12.9612 45.1403L13.2312 44.7003C13.1512 44.7703 13.0712 44.8303 12.9912 44.9003C12.7112 45.1303 12.3712 45.2303 12.0312 45.3203C11.9912 45.3303 11.9212 45.3403 11.8812 45.3403C11.6112 45.3403 11.3112 45.1503 11.2012 45.0103C11.1012 44.8903 11.0612 44.7203 11.0912 44.5803C11.1612 44.2503 11.2612 43.9503 11.4012 43.6703C11.4812 43.5003 11.6712 43.3903 11.8612 43.3903C11.9712 43.3903 12.0712 43.4203 12.2612 43.4803H12.3112L14.7712 41.1003C14.5812 40.9903 14.3912 40.8903 14.2112 40.8003C14.2112 40.8203 14.2112 40.8403 14.2212 40.8603C14.2512 41.0703 14.1412 41.2803 13.9612 41.3703C13.5712 41.5703 13.1712 41.6703 12.7512 41.6703C12.2012 41.6703 11.6812 41.5003 11.2612 41.3603C11.1212 41.3103 10.9712 41.2503 10.8212 41.1603C10.6512 41.0603 10.5112 41.0103 10.3812 41.0103C10.2812 41.0103 10.1212 41.0303 9.82125 41.2403C9.32125 41.5903 8.74124 41.7703 8.15124 41.7703C8.06124 41.7703 7.97125 41.7703 7.89125 41.7603C7.92125 41.7803 7.96124 41.8003 7.99124 41.8203C8.34124 42.0203 8.64125 42.1103 8.91125 42.1103C9.18125 42.1103 9.41125 42.0203 9.66125 41.8303C9.81125 41.7203 9.97124 41.6303 10.1712 41.5203L10.4512 41.3703C10.5312 41.3303 10.6112 41.3003 10.7012 41.3003C10.8512 41.3003 10.9912 41.3603 11.0912 41.4803C11.2412 41.6703 11.2412 41.9403 11.0812 42.1303C10.4212 42.8903 9.62124 43.2903 8.76124 43.2903C8.31124 43.2903 7.85124 43.1803 7.40124 42.9603C5.08124 41.8203 3.68125 38.2103 4.62125 35.8103C4.89125 35.1203 5.35125 34.5503 6.00125 34.0903C5.71125 33.5503 5.40125 32.9903 5.02125 32.5303C4.74125 32.1903 4.42124 31.8803 4.08124 31.5603C3.84124 31.3303 3.60125 31.1103 3.38125 30.8703C2.69125 30.1403 2.28124 29.2703 2.15124 28.3003C1.99124 27.0603 2.39125 26.1103 3.27125 25.6203C3.88125 25.2903 4.35125 24.8703 4.70125 24.3303C4.60125 24.3503 4.48125 24.3703 4.36125 24.3703C4.26125 24.3703 4.17124 24.3603 4.08124 24.3303C3.61124 24.1803 3.16125 24.0003 2.77125 23.8503L2.41125 23.7103C2.27125 23.6603 2.16125 23.5403 2.12125 23.4003C2.07125 23.4503 2.00125 23.4803 1.93125 23.5103C1.88125 23.5203 1.83125 23.5303 1.78125 23.5303C1.69125 23.5303 1.61125 23.5103 1.53125 23.4603C1.47125 23.4203 1.39125 23.3903 1.31125 23.3603C1.04125 23.2403 0.691246 23.1003 0.571246 22.7503C0.431246 22.3603 0.451245 21.9903 0.621245 21.6903C0.731245 21.4903 0.971245 21.2403 1.44124 21.1503C1.46124 21.1503 1.51125 21.1203 1.56125 21.1103C1.66125 21.0703 1.78124 21.0203 1.94124 21.0003V21.0103C1.94124 21.0103 1.95125 20.9803 1.96125 20.9203C2.16125 19.7903 2.81125 18.9103 3.89125 18.3203C4.10125 18.2103 4.31125 18.0903 4.52125 17.9803C4.97125 17.7403 5.42125 17.5003 5.84125 17.2303C5.97125 17.1503 6.11125 16.9603 6.20125 16.7703C6.38125 16.3503 6.55125 15.9103 6.72125 15.4803C6.87125 15.0803 7.03125 14.6803 7.20125 14.2803C7.25125 14.1503 7.33124 14.0403 7.40124 13.9403L7.22125 13.8203C6.46125 13.3303 5.68125 12.8303 4.91125 12.3203C4.72125 12.2003 4.61125 12.0303 4.52125 11.8903C4.49125 11.8503 4.47124 11.8103 4.44124 11.7703C4.30124 11.5803 4.30124 11.3203 4.44124 11.1403L4.58124 10.9703C4.68124 10.8503 4.82125 10.7903 4.96125 10.7903C5.02125 10.7903 5.08125 10.7903 5.13125 10.8203L5.82125 11.0703C6.39125 11.2803 6.97125 11.4903 7.54125 11.7203L7.68125 11.7703C8.18125 11.9703 8.70125 12.1803 9.18125 12.4803C9.28125 12.5403 9.36124 12.5703 9.42124 12.5703C9.50124 12.5703 9.61125 12.4903 9.78125 12.3303C10.1812 11.9403 10.6012 11.5603 11.0412 11.1603L11.2212 10.9903C11.2212 10.9903 11.1612 10.9403 11.1312 10.9203C10.3312 10.3903 9.52125 9.87028 8.71125 9.35028L7.38125 8.49026C7.19125 8.37026 6.98125 8.20028 6.82125 7.88028C6.74125 7.71028 6.75125 7.52026 6.86125 7.36026C6.95125 7.23026 7.11125 7.15027 7.27125 7.15027C7.29125 7.15027 7.50125 7.17026 7.50125 7.17026C7.66125 7.19026 7.82125 7.21027 7.98125 7.25027C9.15125 7.55027 10.2512 8.00027 11.2812 8.59027L9.23125 6.85028C9.04125 6.69028 9.00125 6.40028 9.14125 6.19028L9.38125 5.82028C9.48125 5.68028 9.63125 5.60028 9.80125 5.60028C9.88125 5.60028 9.97125 5.62028 10.0412 5.66028C10.4512 5.88028 10.8612 6.08027 11.2812 6.28027C12.5112 6.87027 13.7812 7.47027 14.7312 8.65027C14.7712 8.70027 14.8012 8.72029 14.8112 8.73029C14.8112 8.73029 14.8612 8.71027 14.9512 8.65027C15.3312 8.42027 15.7212 8.21027 16.1012 8.00027C16.4712 7.80027 16.8412 7.60028 17.2012 7.38028C19.2312 6.17028 21.5112 5.63028 24.6112 5.63028C24.9912 5.63028 25.3612 5.63027 25.7412 5.65027C26.3312 5.67027 26.9212 5.72026 27.5112 5.77026C27.9112 5.80026 28.3012 5.83026 28.7012 5.86026C28.7912 5.69026 28.8812 5.53026 28.9712 5.36026C29.3212 4.73026 29.6412 4.13027 29.8512 3.50027C30.0012 3.05027 29.9812 2.65028 29.7812 2.38028C29.6112 2.14028 29.3112 2.01028 28.9312 2.01028C28.8012 2.01028 28.6612 2.03027 28.5112 2.06027C27.2412 2.34027 26.1712 3.07027 25.0412 3.84027C24.8612 3.96027 24.7212 4.06026 24.5712 4.17026L24.3312 4.34027C24.2412 4.40027 24.1412 4.43027 24.0412 4.43027C23.9212 4.43027 23.8012 4.39027 23.7112 4.31027C23.5412 4.16027 23.4912 3.90026 23.6012 3.70026C24.3612 2.28026 26.7012 1.21027 28.5312 0.560272C28.5812 0.540272 28.6412 0.530273 28.7012 0.530273H29.7812C29.8712 0.530273 29.9512 0.550281 30.0312 0.600281C31.4312 1.40028 31.8112 2.52028 31.1912 4.01028C30.9712 4.53028 30.6912 5.02026 30.4212 5.49026C30.3012 5.69026 30.1912 5.89027 30.0812 6.09027L30.0012 6.24026L31.8112 7.10028L32.0612 6.87027C32.1612 6.78027 32.2912 6.73029 32.4212 6.73029C32.5212 6.73029 32.6213 6.76028 32.7113 6.82028C32.9313 6.98028 33.0312 7.32028 32.8812 7.54028C32.8512 7.59028 32.8112 7.64028 32.7712 7.69028C32.7512 7.72028 32.7212 7.75027 32.7012 7.78027C32.7012 7.78027 32.7013 7.83028 32.7113 7.85028C32.7813 7.92028 32.8912 8.01026 33.0012 8.11026C33.4012 7.20026 33.7612 6.33026 33.8412 5.36026C33.8612 5.10026 33.8612 5.07027 33.3612 4.90027C33.1612 4.83027 32.9912 4.64027 32.9812 4.43027C32.9812 4.22027 33.0612 4.02028 33.2512 3.94028C33.4312 3.86028 33.6212 3.82028 33.8112 3.82028C34.5112 3.82028 35.0612 4.32026 35.1212 5.02026C35.2412 6.26026 34.9312 7.37028 34.5012 8.35028C35.0212 7.96028 35.5612 7.63028 36.0812 7.29028C36.6712 6.92028 37.2812 6.53028 37.8312 6.10028C38.8812 5.27028 39.9912 4.50027 41.0712 3.75027C41.4712 3.47027 41.8712 3.19028 42.2712 2.91028C42.5612 2.70028 42.8512 2.55028 43.1312 2.44028C43.2212 2.40028 43.3212 2.39026 43.4212 2.39026C43.5112 2.39026 43.6212 2.41027 43.7212 2.43027L43.8212 2.45026C44.0712 2.47026 44.2712 2.68028 44.2712 2.94028V3.10028C44.2712 3.25028 44.2012 3.40026 44.0812 3.49026L41.6712 5.39026C39.3912 7.19026 37.1012 8.98028 34.8012 10.7603C34.3012 11.1503 34.1012 11.4403 34.1212 11.8503C34.3612 11.9203 34.5812 11.9903 34.7912 11.9903C35.0012 11.9903 35.1812 11.9303 35.3712 11.7903C36.1012 11.2903 36.8812 10.8503 37.6312 10.4303C37.9412 10.2603 38.2512 10.0803 38.5512 9.91028C38.7412 9.80028 38.9812 9.68027 39.3012 9.68027H39.3112C39.5112 9.68027 39.7012 9.80026 39.7712 9.99026C39.8512 10.1803 39.8013 10.4103 39.6413 10.5503C38.9213 11.2103 38.1112 11.7603 37.3312 12.2803C37.0612 12.4603 36.7812 12.6503 36.5112 12.8403C36.7612 12.9803 37.0512 13.0603 37.4012 13.1103C37.4212 13.1103 37.9012 12.8203 37.9012 12.8203C38.6812 12.3603 39.4812 11.8903 40.3512 11.5103C40.4212 11.4803 40.4812 11.4703 40.5512 11.4703C40.7212 11.4703 40.8812 11.5603 40.9812 11.7103C41.0512 11.8303 41.0712 11.9603 41.0412 12.0903L41.3913 11.9803C41.3913 11.9803 41.4912 11.9603 41.5412 11.9603C41.6712 11.9603 41.7913 12.0103 41.8913 12.1003L42.0112 12.2203C42.0612 12.2803 42.1112 12.3303 42.1712 12.3703C42.2312 12.4103 42.3012 12.4503 42.3612 12.4903C42.5212 12.5803 42.6912 12.6803 42.8512 12.8503C43.0712 13.0803 43.0812 13.4303 42.8712 13.8803C42.7912 14.0603 42.6112 14.1703 42.4112 14.1703C42.3812 14.1703 42.3512 14.1703 42.3212 14.1703C42.0912 14.1303 41.9312 13.9303 41.9112 13.7003C41.9012 13.5003 41.9012 13.4903 41.6812 13.4603C41.5112 13.4403 41.3412 13.4303 41.1812 13.4303C40.4412 13.4303 39.7312 13.6303 38.9912 14.0603C40.2712 14.7703 41.4012 15.7703 42.4212 17.1203C42.6412 17.4103 42.7512 17.4303 42.8612 17.4303C42.9312 17.4303 43.0112 17.4203 43.1012 17.3903C43.2812 17.3303 43.4912 17.3103 43.7212 17.3103C44.0412 17.3103 44.3612 17.3603 44.6512 17.4103C44.8112 17.4403 44.9612 17.4603 45.1012 17.4603C45.3212 17.4603 45.4712 17.4103 45.6112 17.2803C45.7112 17.1903 45.8312 17.1503 45.9512 17.1503C46.0812 17.1503 46.2112 17.2003 46.3112 17.3103C46.4912 17.5003 46.6012 17.9203 46.4212 18.1103L46.2812 18.2603C46.1812 18.3703 46.0712 18.4703 45.9812 18.5803H46.0012C45.9412 20.1203 45.8412 21.6203 45.2712 23.0703C44.3512 25.4003 42.6112 27.0403 40.1112 27.9303C39.9612 27.9803 39.9212 28.0103 39.9112 28.0203C39.9712 28.2103 39.9512 28.3703 39.9412 28.5003C39.9212 28.8003 39.8912 29.1903 39.9112 29.3303C39.9112 29.3303 39.9312 29.3303 39.9412 29.3303C39.9812 29.3303 40.0512 29.3303 40.1712 29.3303C40.2912 29.3303 40.4112 29.3303 40.5612 29.3203C42.5912 29.2003 44.6512 28.9603 46.4712 28.7503C46.9312 28.7003 47.3912 28.6003 47.8512 28.4903C47.8512 28.4003 47.8812 28.3203 47.9312 28.2403C47.9512 28.2003 47.9712 28.1603 47.9912 28.1303C48.0612 27.9903 48.1812 27.7703 48.4312 27.6803C48.5312 27.6403 48.6513 27.6203 48.7812 27.6203C49.3112 27.6203 50.1312 27.9803 50.4412 28.4603C50.5712 28.6603 50.5412 28.9203 50.3712 29.0803C49.7012 29.7603 48.8612 30.0003 47.9812 30.2203C45.7812 30.7503 43.5212 30.8503 41.3412 30.9403L40.2812 30.9803C39.3512 31.0003 39.1612 31.0003 38.8812 31.6103C39.2312 31.6503 39.5812 31.7003 39.9212 31.7403C41.5212 31.9503 43.1712 32.1603 44.7912 32.1603C45.1112 32.1603 45.4312 32.1603 45.7512 32.1303C47.5012 32.0303 49.2712 31.8703 50.9812 31.7203C51.7412 31.6503 52.5012 31.5803 53.2512 31.5203C53.2612 31.5203 53.2812 31.5203 53.2912 31.5203C53.5012 31.5203 53.7012 31.6603 53.7612 31.8603C53.8312 32.0803 53.7512 32.3203 53.5512 32.4403C52.2412 33.2803 50.6412 33.6403 49.4112 33.8603C48.4112 34.0403 47.3712 34.1703 46.3712 34.2903C46.0712 34.3303 45.7612 34.3603 45.4512 34.4003C45.4012 35.0003 45.0012 35.4003 44.4312 35.4003C44.4212 35.4003 43.7512 35.3603 43.7512 35.3603C43.0612 35.3103 42.3412 35.2703 41.6512 35.1003C40.4912 34.8203 39.3512 34.4203 38.2412 34.0303C37.9312 33.9203 37.6813 33.8703 37.4613 33.8703C37.2413 33.8703 37.0212 33.9203 36.8112 34.0303L37.8412 35.2503C38.7212 36.2903 39.5913 37.3303 40.4613 38.3703C40.6213 38.5603 40.6612 38.7903 40.6912 38.9603C40.6912 39.0003 40.7012 39.0503 40.7212 39.0903C40.7712 39.2603 40.7212 39.4503 40.5912 39.5803C40.5012 39.6803 40.3712 39.7303 40.2312 39.7303C40.1912 39.7303 40.1512 39.7303 40.1012 39.7103C40.0612 39.7003 40.0113 39.6903 39.9613 39.6903C39.7713 39.6603 39.5012 39.6203 39.3012 39.4203C37.9912 38.0803 36.7012 36.7103 35.4112 35.3503L34.0412 37.1103C34.8412 37.1903 35.5012 37.5803 36.0112 38.2503C36.5612 38.9803 36.6912 39.7303 36.4112 40.5603C36.3412 40.7703 36.1512 40.9003 35.9412 40.9003C35.9112 40.9003 35.8812 40.9003 35.8612 40.9003C35.6212 40.8603 35.4412 40.6503 35.4412 40.4003C35.4412 39.7103 35.1412 39.2503 34.8812 38.9803C34.4912 38.5803 33.9412 38.3503 33.4112 38.3503C33.1412 38.3503 32.9012 38.4103 32.7012 38.5303C32.2112 38.8303 31.7012 39.1103 31.2012 39.3803C30.0312 40.0103 28.8612 40.6103 27.5412 40.9003L27.5812 40.9703C27.9112 41.6103 28.2312 42.2503 28.5612 42.8703C28.5712 42.8903 28.5912 42.9203 28.6012 42.9303C29.4512 43.0703 30.3112 43.1803 31.1612 43.2903C31.2112 43.2903 31.2612 43.2903 31.3012 43.2903C31.6912 43.2903 32.0112 43.0603 32.3712 42.7203C32.4612 42.6303 32.5913 42.5803 32.7113 42.5803C32.8013 42.5803 32.8912 42.6003 32.9712 42.6503C33.1612 42.7703 33.2512 43.0003 33.1912 43.2103C32.9812 43.9603 32.4312 44.4603 31.7112 44.5503C30.9512 44.6503 30.1812 44.6803 29.4412 44.7103C29.4412 44.7103 28.7212 44.7403 28.7112 44.7403C28.9312 46.1003 28.8712 47.4303 28.5312 48.8003C28.1812 50.2003 27.6212 51.7703 26.0612 52.7703C25.9812 52.8203 25.8812 52.8503 25.7912 52.8503C25.6612 52.8503 25.5212 52.8003 25.4312 52.6903C25.2612 52.5203 25.2512 52.2503 25.3912 52.0503L25.8512 51.4103C26.9712 49.9003 27.4512 48.1203 27.3412 45.9903C27.3312 45.8003 27.3412 45.6103 27.3412 45.4103C27.3412 45.0303 27.3612 44.6003 27.2312 44.4203C27.1312 44.2703 26.7712 44.1703 26.4612 44.0703C26.2212 44.0003 25.9812 43.9203 25.7612 43.8203C25.5512 43.7203 25.3712 43.6803 25.1912 43.6803C25.0112 43.6803 24.8212 43.7303 24.6112 43.8303C24.3012 43.9703 23.9712 44.0503 23.6012 44.0503C22.6412 44.0503 21.6312 43.5303 21.0312 42.7303C20.7212 43.1903 20.4212 43.6203 20.0612 44.0303C18.9912 45.2403 18.7012 46.6903 18.5612 47.9503C18.3612 49.7903 17.9512 51.6203 17.5512 53.4003L17.3812 54.1803C17.1312 55.3203 16.5812 56.1503 15.7112 56.7103C15.6312 56.7603 15.5312 56.7903 15.4412 56.7903L15.4312 56.8503ZM19.7212 41.6603C19.2212 41.8003 19.2012 41.9003 19.1412 42.5803L19.7212 41.6603ZM26.8512 42.4203C26.6412 42.0603 26.4312 41.7603 26.1312 41.5503L26.0812 42.2003L26.8512 42.4203ZM16.2412 42.2703C16.3312 42.1603 16.4312 42.0403 16.5212 41.9303L16.3612 41.9003C16.3212 42.0203 16.2912 42.1503 16.2512 42.2703H16.2412ZM6.71125 38.0203C6.71125 38.7303 6.90125 39.3103 7.29125 39.7203C7.69125 40.1403 8.18125 40.3803 8.64125 40.3803C8.94125 40.3803 9.21125 40.2803 9.43125 40.0803L7.80125 38.8403C7.80125 38.8403 7.75125 38.8103 7.73125 38.7903L7.47125 38.5703C7.26125 38.3903 7.04125 38.2003 6.82125 38.0303C6.79125 38.0103 6.76124 37.9903 6.74124 37.9703C6.72124 38.0003 6.71125 38.0203 6.71125 38.0303V38.0203ZM13.1912 40.3203C13.1112 40.2403 13.0512 40.1503 13.0112 40.0303C13.0012 39.9803 12.9912 39.9403 12.9912 39.8903L12.7912 40.2403L13.1912 40.3203ZM17.9112 40.3003C17.9112 40.3003 17.9112 40.2603 17.9112 40.2503C17.8912 40.2603 17.8712 40.2803 17.8512 40.2903H17.9112V40.3003ZM26.7512 38.4703C26.5912 38.4703 26.4412 38.4703 26.2912 38.5003C25.9412 38.5503 25.5812 38.6603 25.2112 38.7803C24.9312 38.8703 24.6512 38.9603 24.3712 39.0303C24.3012 39.0703 24.3712 39.1303 24.4412 39.1803C24.7412 39.3603 25.0012 39.5203 25.2312 39.5603L25.4412 39.6003C25.7412 39.6503 26.0512 39.7103 26.3312 39.7103C26.4912 39.7103 26.6212 39.6903 26.7212 39.6603C27.5412 39.3903 28.3612 39.0303 29.1612 38.6703C28.8112 38.6403 28.4612 38.6003 28.1112 38.5803L27.7012 38.5503C27.3812 38.5203 27.0712 38.4903 26.7512 38.4903V38.4703ZM11.0112 39.5303C11.1812 39.5903 11.3412 39.6303 11.4612 39.6303C11.5712 39.6303 11.6712 39.6003 11.8712 39.2703L11.2612 39.0803L11.0112 39.5303ZM9.98125 38.9503L10.1512 38.6503C10.0712 38.5903 10.0012 38.5303 9.93125 38.4803C9.50125 38.1403 9.09125 37.8303 8.70125 37.4603C8.57125 37.3403 8.45124 37.2103 8.33124 37.0803C8.39124 37.2203 8.42125 37.3703 8.44125 37.5503C8.45125 37.7303 8.48124 37.9203 8.51124 38.1003L9.98125 38.9703V38.9503ZM13.8312 37.9603C13.8312 37.9603 13.9112 37.9903 13.9212 37.9903C13.9512 37.9903 14.0112 37.9803 14.1212 37.9103C14.0112 37.8403 13.9512 37.8203 13.9212 37.8103C13.9012 37.8303 13.8712 37.8703 13.8312 37.9603ZM20.6012 37.3403C20.6512 37.3403 20.6912 37.3403 20.7112 37.3403C20.8712 37.1603 21.0312 36.9703 21.1912 36.7603C21.0512 36.7303 20.9312 36.7003 20.8012 36.6803C20.6712 36.8903 20.5512 37.1103 20.4312 37.3303C20.4812 37.3303 20.5912 37.3403 20.6012 37.3403ZM22.3512 37.2503C22.3512 37.2503 22.3112 37.2803 22.2812 37.3303C22.3712 37.3303 22.4512 37.3103 22.5312 37.3003C22.4312 37.2703 22.3712 37.2603 22.3512 37.2503ZM7.54125 36.4903C7.68125 36.4903 7.81125 36.5203 7.93125 36.5903C7.84125 36.4903 7.59125 36.1803 7.55125 36.1303L7.42124 36.2303C7.33124 36.3003 7.22125 36.3303 7.11125 36.3303C7.01125 36.3303 6.91125 36.3003 6.82125 36.2403C6.64125 36.1103 6.57125 35.8803 6.64125 35.6703C6.72125 35.4503 6.78125 35.2403 6.82125 35.1003C6.56125 35.3303 6.38125 35.6503 6.21125 36.0403C6.23125 36.0603 6.25125 36.0803 6.27125 36.1003C6.57125 36.4103 6.75125 36.5803 7.00125 36.5803C7.08125 36.5803 7.16124 36.5703 7.26124 36.5403C7.36124 36.5103 7.46125 36.4903 7.55125 36.4903H7.54125ZM17.5612 35.6103C17.3112 36.0003 17.2412 36.2103 17.3312 36.4203L17.7712 35.7303L17.5612 35.6103ZM27.1112 36.0503C27.2212 36.1103 27.3112 36.1403 27.3912 36.1403C27.4612 36.1403 27.5412 36.1203 27.6312 36.0703C27.5012 36.0503 27.3812 36.0403 27.2612 36.0403C27.2112 36.0403 27.1512 36.0403 27.1112 36.0403V36.0503ZM15.3312 35.4003C15.6112 35.1903 15.6712 35.0503 15.6012 34.7003L15.1312 35.1903L15.3312 35.4003ZM34.2512 33.4903C34.2512 33.4903 34.2612 33.4803 34.2712 33.4703C34.2712 33.4703 34.2712 33.4603 34.2712 33.4503C34.2712 33.4603 34.2712 33.4703 34.2612 33.4903H34.2512ZM8.71125 29.8603C8.58125 30.1503 8.56125 30.5103 8.55125 30.9703C8.55125 31.2703 8.53125 31.5703 8.48125 31.8503C8.61125 32.0503 8.72124 32.2103 8.83124 32.3503C9.09124 32.1003 9.34124 31.8803 9.60124 31.6703C9.73124 31.5703 9.78125 31.5303 9.63125 31.2903C9.35125 30.8303 9.05124 30.3803 8.74124 29.9003L8.70125 29.8403L8.71125 29.8603ZM36.7912 29.0503C36.9512 29.0503 37.1213 29.0503 37.2812 29.0503C37.3813 29.0503 37.4812 29.0503 37.5812 29.0503C37.7012 28.7203 37.8212 28.3803 37.8412 28.0803C37.8412 28.0103 37.8612 27.9303 37.8712 27.8503C37.8712 27.8203 37.8813 27.7703 37.8913 27.7303C37.8613 27.7303 37.8312 27.7303 37.7912 27.7303C37.6612 27.7303 37.5412 27.6603 37.4512 27.5703C37.3812 27.6303 37.3112 27.7203 37.2412 27.8203C37.0912 28.0203 36.9112 28.2603 36.6012 28.4103C36.6212 28.6003 36.6412 28.8203 36.6612 29.0403H36.7912V29.0503ZM6.82125 27.3803C6.86125 27.7203 6.91125 28.0503 6.98125 28.3803C7.00125 28.4603 7.02125 28.5403 7.05125 28.6303L7.31125 28.3203C7.31125 28.3203 6.91125 27.5603 6.82125 27.3803ZM5.55125 28.5803L5.52125 28.5003V28.5803C5.52125 28.5803 5.54125 28.5803 5.55125 28.5803ZM35.9613 24.5503C35.9613 24.6703 35.9612 24.7903 35.9812 24.9103C35.9812 24.9103 36.0112 24.8603 36.0412 24.7703C36.0512 24.7203 36.0612 24.6603 36.0512 24.6103C36.0212 24.5903 35.9913 24.5603 35.9613 24.5403V24.5503ZM41.9012 20.3303C41.8312 20.4103 41.7612 20.4803 41.6812 20.5503C41.2812 20.9103 41.1412 21.3103 41.2212 21.8203C41.3512 22.5803 41.1912 23.3203 40.7212 24.1403C40.6512 24.2603 40.5912 24.3903 40.5212 24.5203C41.0912 24.3003 41.5512 24.0303 41.9412 23.6603C42.4712 23.1503 42.6612 22.5003 42.4812 21.8303C42.3612 21.3603 42.1412 20.8903 41.9012 20.3903C41.9012 20.3703 41.8812 20.3603 41.8812 20.3403L41.9012 20.3303ZM9.36125 20.9203C8.77125 21.9703 8.48125 22.9003 8.45125 23.8503C8.45125 23.9703 8.45125 24.0603 8.45125 24.1203L9.36125 20.9203ZM10.9712 21.0703C10.8012 21.5403 10.6312 21.9903 10.5112 22.4503C10.4112 22.8003 10.3412 23.1803 10.2812 23.6203C10.5012 23.1003 10.7212 22.6103 10.9812 22.1203C11.3312 21.4703 11.2612 21.2803 10.9712 21.0703ZM4.05125 22.6103C4.27125 22.9303 4.61125 23.0903 4.91125 23.1703C5.00125 23.1903 5.08124 23.2403 5.15124 23.3103C5.31124 22.8003 5.42125 22.2203 5.46125 21.5503C5.51125 20.8003 5.64125 18.8703 5.64125 18.8703C4.67125 19.2103 3.64125 20.2803 3.38125 21.1003L4.60124 21.5603C4.86124 21.6603 4.99125 21.9403 4.89125 22.2003C4.81125 22.4203 4.54125 22.6703 4.30125 22.6703C4.27125 22.6703 4.23125 22.6703 4.20125 22.6603L4.04125 22.6103H4.05125ZM35.4512 19.3203C35.4712 20.0603 35.4812 20.8303 35.4112 21.5903C35.3412 22.3003 35.4912 22.4803 35.9712 22.6303C36.1812 22.7003 36.3712 22.7903 36.5512 22.8903C36.7712 22.1303 36.7112 21.2203 36.3612 20.4003C36.1412 19.8803 35.8212 19.4503 35.4512 19.1703C35.4512 19.2203 35.4512 19.2703 35.4512 19.3203ZM44.5312 20.6703C44.4312 20.9003 44.3812 21.1503 44.3512 21.4203C44.4212 21.1803 44.4812 20.9303 44.5312 20.6703ZM7.37125 19.0603L8.03125 18.4803C7.82125 18.4203 7.62124 18.3603 7.42124 18.3103L7.37125 19.0603ZM36.8312 17.3303C37.2812 17.7803 37.7012 18.2703 38.1012 18.8103C38.1012 18.7903 38.1012 18.7803 38.1112 18.7603C38.1812 18.5303 38.2012 18.2603 37.7812 17.9603C37.4712 17.7403 37.1512 17.5303 36.8212 17.3303H36.8312ZM14.0612 18.3103C14.1512 18.2303 14.2212 18.1603 14.2712 18.0803L13.9612 18.2903C13.9612 18.2903 14.0312 18.3103 14.0612 18.3203V18.3103ZM8.77125 17.4303C8.62125 17.0503 8.52125 16.6803 8.46125 16.3103C8.29125 16.6103 8.14125 16.9203 8.03125 17.2303L8.78125 17.4303H8.77125ZM11.3712 13.8203C11.0312 14.1103 10.8912 14.5503 10.8312 14.9203C10.7512 15.4903 10.8112 15.8703 10.9412 16.1303L11.3712 13.8203ZM13.0012 14.3203C12.9212 14.6003 12.8412 14.8703 12.7712 15.1603C12.7312 15.3203 12.7012 15.4803 12.6712 15.6403C12.8812 15.5303 13.0912 15.4303 13.2812 15.3103C13.2212 14.8903 13.1612 14.4303 13.1012 13.9503C13.0612 14.0703 13.0312 14.2003 12.9912 14.3203H13.0012ZM26.0812 13.5403L25.9712 12.8903C24.8212 12.9003 23.7312 12.9303 22.6912 13.2503L22.7312 13.4003L26.0712 13.5403H26.0812ZM28.7012 13.2803L28.9912 13.0303L28.6012 12.9803L28.6912 13.2803H28.7012ZM14.9412 13.1903C14.9412 13.1103 14.9612 13.0403 14.9712 12.9603H14.9112L14.9312 13.1903H14.9412ZM19.7512 9.81027C19.9112 10.1003 20.1812 10.3203 20.5712 10.5603C21.1912 10.2503 21.8112 9.94027 22.4212 9.62027C22.5112 9.58027 22.5912 9.53029 22.6812 9.48029C22.4512 9.40029 22.2112 9.36026 21.9612 9.36026C21.4712 9.36026 20.9712 9.49026 20.4412 9.64026C20.2212 9.70026 19.9912 9.76027 19.7612 9.81027H19.7512ZM30.2612 8.88028C30.6112 9.23028 30.9412 9.64026 31.2512 10.1103C31.2512 10.1103 31.4612 10.4303 31.5112 10.5003C31.5612 10.4403 31.8512 10.0703 31.8512 10.0703C31.8712 10.0403 31.9012 9.99026 31.9212 9.95026C31.8812 9.93026 31.6712 9.84028 31.6312 9.82028C31.5712 9.79028 31.5212 9.74028 31.4812 9.69028C31.4112 9.60028 31.3612 9.52028 31.3112 9.44028C31.2812 9.39028 31.2612 9.35028 31.2312 9.32028C30.9512 9.20028 30.6312 9.05026 30.2712 8.89026L30.2612 8.88028ZM25.7412 8.91028C26.3712 9.17028 27.0312 9.33026 27.7212 9.49026C27.9012 9.53026 28.0812 9.57027 28.2612 9.62027C28.1112 9.49027 27.9412 9.36026 27.7812 9.24026C27.6312 9.13026 27.4812 9.01026 27.3412 8.89026L27.0512 9.10028C26.9612 9.16028 26.8612 9.19028 26.7612 9.19028C26.6112 9.19028 26.4612 9.12027 26.3712 9.00027L26.3012 8.91028C26.2112 8.80028 26.1812 8.67026 26.1912 8.55026C26.0412 8.50026 25.8712 8.45027 25.6812 8.40027C25.7412 8.49027 25.7612 8.59026 25.7612 8.70026V8.82028C25.7612 8.82028 25.7412 8.89026 25.7312 8.92026L25.7412 8.91028Z" fill="#9D7AFF"></path><path d="M29.7313 1.10001C30.9013 1.77001 31.2113 2.6 30.6813 3.88C30.3913 4.59 29.9613 5.23998 29.5913 5.91998C29.4713 6.13998 29.3513 6.35 29.2513 6.53C30.1213 6.95 30.9613 7.33999 31.8513 7.76999C31.9913 7.64999 32.1713 7.46999 32.3613 7.29999C32.3813 7.30999 32.3913 7.33 32.4113 7.34C32.3313 7.47 32.2013 7.58 32.1713 7.72C32.1413 7.87 32.1513 8.07999 32.2413 8.17999C32.4913 8.45999 32.7913 8.68999 33.1213 8.98999C33.1013 8.98999 33.0913 9 33.1013 9C33.1013 9 33.1413 9 33.1513 8.97C33.6313 7.84 34.1813 6.74 34.2913 5.47C34.3513 4.75 33.9013 4.64 33.4013 4.47C33.5313 4.42 33.6513 4.38998 33.7713 4.38998C34.1913 4.38998 34.5413 4.69 34.5913 5.13C34.7313 6.61 34.2113 7.92 33.5413 9.19C33.4413 9.38 33.4213 9.6 33.3613 9.81C33.4013 9.83 33.4513 9.83999 33.4913 9.85999C33.5813 9.79999 33.6813 9.76 33.7613 9.69C35.0313 8.4 36.7113 7.66999 38.1213 6.54999C39.5413 5.42999 41.0613 4.43 42.5413 3.38C42.7713 3.22 43.0313 3.06999 43.2913 2.95999C43.3213 2.94999 43.3613 2.94 43.4013 2.94C43.5113 2.94 43.6413 2.97999 43.7513 2.98999C43.7513 3.03999 43.7513 3.08998 43.7513 3.13998C40.6613 5.55998 37.5813 7.99999 34.4713 10.4C33.8413 10.88 33.4513 11.38 33.6513 12.27C34.0113 12.37 34.3813 12.52 34.7713 12.52C35.0413 12.52 35.3313 12.45 35.6413 12.24C36.6413 11.55 37.7413 10.99 38.7913 10.38C38.9413 10.29 39.0913 10.22 39.3013 10.21C38.2013 11.22 36.8913 11.95 35.6713 12.86C36.1413 13.34 36.7113 13.55 37.3313 13.63C37.3413 13.63 37.3613 13.63 37.3713 13.63C37.5313 13.63 37.7113 13.52 37.8613 13.44C38.7313 12.93 39.6013 12.41 40.5413 11.99C40.0613 12.37 39.5813 12.75 39.1013 13.13L39.1413 13.2C39.9613 12.95 40.7813 12.7 41.5213 12.48C41.6413 12.6 41.7413 12.72 41.8613 12.8C42.0613 12.94 42.3113 13.04 42.4713 13.21C42.5513 13.29 42.4813 13.51 42.4013 13.69C42.3813 13.23 42.1813 13.03 41.7313 12.98C41.5413 12.96 41.3513 12.95 41.1613 12.95C40.0313 12.95 39.0313 13.38 38.0913 14.06C38.1413 14.14 38.1613 14.23 38.2213 14.25C39.7713 14.98 40.9913 16.09 42.0113 17.44C42.2513 17.76 42.4913 17.95 42.8413 17.95C42.9513 17.95 43.0813 17.93 43.2213 17.89C43.3713 17.84 43.5313 17.83 43.6913 17.83C43.9713 17.83 44.2713 17.88 44.5413 17.93C44.7213 17.96 44.9013 17.98 45.0713 17.98C45.3713 17.98 45.6513 17.91 45.9113 17.67C45.9513 17.71 45.9813 17.75 46.0213 17.78C45.8413 17.96 45.6613 18.14 45.5013 18.34C45.4513 18.39 45.4613 18.5 45.4613 18.58C45.4013 20.05 45.3113 21.52 44.7613 22.9C43.8613 25.18 42.1813 26.66 39.9013 27.47C39.5513 27.59 39.3413 27.73 39.4113 28.14C39.4313 28.28 39.4113 28.43 39.3913 28.57C39.3113 29.61 39.3313 29.85 40.1313 29.85C40.2513 29.85 40.3913 29.85 40.5513 29.84C42.5313 29.73 44.5113 29.5 46.4913 29.27C47.3413 29.17 48.1713 28.94 49.0113 28.7C48.8113 28.65 48.6013 28.61 48.3113 28.54C48.4113 28.39 48.4613 28.21 48.5713 28.17C48.6213 28.15 48.6813 28.14 48.7513 28.14C49.1513 28.14 49.7913 28.44 49.9913 28.75C49.4013 29.34 48.6213 29.56 47.8413 29.75C45.4713 30.33 43.0413 30.38 40.6213 30.49C40.4913 30.49 40.3713 30.49 40.2413 30.49C38.7413 30.52 38.7313 30.53 38.1413 32.04C40.3513 32.29 42.5413 32.68 44.7613 32.68C45.0913 32.68 45.4213 32.68 45.7513 32.65C48.2813 32.51 50.8113 32.24 53.2613 32.04C52.1213 32.77 50.7213 33.14 49.3013 33.39C47.8713 33.65 46.4313 33.78 44.9413 33.98C44.9413 34.04 44.9413 34.17 44.9413 34.31C44.9413 34.68 44.7613 34.91 44.4113 34.91C44.3913 34.91 44.3713 34.91 44.3413 34.91C43.4713 34.84 42.5813 34.82 41.7413 34.62C40.5913 34.35 39.4713 33.95 38.3513 33.56C38.0313 33.45 37.7313 33.38 37.4313 33.38C36.9513 33.38 36.5013 33.55 36.0613 33.95C36.2513 34.18 36.4713 34.44 36.6813 34.7C37.8013 36.03 38.9313 37.36 40.0413 38.7C40.1513 38.83 40.1513 39.05 40.2013 39.23C40.0113 39.18 39.7513 39.19 39.6313 39.07C38.3113 37.72 37.0213 36.35 35.7213 34.98C35.5913 34.84 35.5013 34.66 35.4013 34.51C34.5213 35.64 33.7413 36.65 32.9513 37.67C33.2013 37.62 33.4413 37.59 33.6713 37.59C34.4113 37.59 35.0813 37.87 35.5913 38.55C35.9813 39.07 36.1713 39.65 35.9113 40.39C35.9313 38.8 34.5713 37.83 33.3713 37.83C33.0213 37.83 32.6913 37.91 32.4013 38.08C31.9113 38.37 31.4213 38.65 30.9213 38.92C29.6113 39.63 28.2813 40.3 26.7513 40.5C27.2013 41.38 27.6313 42.23 28.0813 43.08C28.1513 43.21 28.2813 43.37 28.4013 43.39C29.2813 43.53 30.1713 43.65 31.0613 43.76C31.1313 43.76 31.2013 43.77 31.2713 43.77C31.8413 43.77 32.2813 43.45 32.6913 43.06C32.5413 43.6 32.1513 43.97 31.6313 44.04C30.6613 44.17 29.6713 44.18 28.6913 44.23C28.6713 44.23 28.6613 44.23 28.6413 44.23C28.4813 44.23 28.3113 44.19 28.0813 44.17C28.4313 45.7 28.4013 47.19 28.0413 48.67C27.6813 50.13 27.1313 51.48 25.7913 52.34C25.9413 52.13 26.1013 51.91 26.2513 51.7C27.5113 49.99 27.9513 48.05 27.8313 45.96C27.8013 45.33 27.9413 44.56 27.6213 44.13C27.3113 43.7 26.5213 43.63 25.9613 43.37C25.6913 43.24 25.4413 43.18 25.1813 43.18C24.9213 43.18 24.6713 43.24 24.3913 43.38C24.1513 43.5 23.8713 43.55 23.6013 43.55C22.7613 43.55 21.8413 43.06 21.3413 42.31C21.2513 42.18 21.1713 42.05 21.0413 41.84C20.5713 42.5 20.1813 43.15 19.6813 43.71C18.6113 44.92 18.2313 46.32 18.0613 47.91C17.8313 49.99 17.3413 52.04 16.8913 54.09C16.7013 54.94 16.3213 55.75 15.4413 56.31C17.1313 53.68 17.2613 50.74 17.6713 47.87C17.7313 47.45 17.7513 47.03 17.7913 46.62C17.7413 46.59 17.7013 46.57 17.6513 46.54C17.1113 47.13 16.5513 47.7 16.0313 48.3C15.0413 49.44 14.0913 50.61 13.0713 51.72C12.5913 52.24 11.9913 52.64 11.4413 53.09C11.4013 53.05 11.3513 53.01 11.3113 52.96C11.4513 52.78 11.5813 52.58 11.7513 52.42C12.8113 51.32 13.8713 50.22 14.9413 49.13C16.9013 47.14 17.9413 44.75 18.1913 41.87C17.9313 42.11 17.7113 42.28 17.5313 42.49C15.9113 44.35 14.3413 46.24 12.6813 48.06C11.7113 49.12 10.6413 50.07 9.56127 51.03C9.20127 51.35 8.71127 51.56 8.25127 51.75C8.14127 51.8 8.04127 51.82 7.94127 51.82C7.62127 51.82 7.43127 51.56 7.54127 51.15C7.71127 50.55 7.97127 49.98 8.25127 49.42C8.48127 48.96 8.79127 48.53 9.10127 48.11C9.18127 48 9.36127 47.97 9.50127 47.9L9.59127 48.04C9.18127 48.98 8.76127 49.93 8.35127 50.87C8.40127 50.9 8.45127 50.94 8.50127 50.97C11.9513 48.33 14.6913 45 17.4613 41.55C16.9113 41.46 16.4813 41.38 16.0113 41.3C15.6013 42.94 14.8913 44.39 13.6213 45.51C13.5513 45.47 13.4713 45.42 13.4013 45.38C14.0113 44.38 14.6313 43.38 15.2413 42.38C15.1813 42.33 15.1213 42.28 15.0613 42.23C14.8513 42.47 14.6513 42.74 14.4213 42.96C13.8613 43.49 13.2913 44.01 12.6913 44.49C12.4813 44.66 12.1813 44.75 11.9113 44.82C11.9113 44.82 11.9013 44.82 11.8913 44.82C11.7913 44.82 11.5813 44.68 11.5813 44.65C11.6413 44.38 11.7313 44.11 11.8513 43.87C11.8513 43.87 11.8513 43.87 11.8613 43.87C11.9213 43.87 12.1513 43.95 12.2813 43.99C12.2913 44.04 12.3113 44.1 12.3213 44.15C13.3813 43.12 14.4413 42.09 15.5913 40.97C15.0113 40.66 14.4913 40.33 13.9313 40.11C13.4413 39.92 13.3813 39.88 13.7313 39.4C13.5213 39.15 13.3313 39.03 13.1713 39.03C12.9813 39.03 12.8213 39.18 12.6513 39.48C12.4613 39.81 12.2813 40.14 12.0413 40.56C12.6013 40.67 13.1113 40.78 13.7213 40.9C13.3813 41.08 13.0513 41.15 12.7413 41.15C12.2813 41.15 11.8413 41.01 11.4113 40.87C11.2913 40.83 11.1813 40.77 11.0713 40.71C10.8313 40.56 10.6013 40.49 10.3813 40.49C10.1113 40.49 9.84127 40.6 9.53127 40.81C9.09127 41.11 8.61127 41.25 8.15127 41.25C6.94127 41.25 5.83127 40.31 5.74127 38.92C5.71127 38.43 5.95127 37.91 6.07127 37.41C6.13127 37.41 6.20127 37.41 6.26127 37.4C5.99127 37.18 5.71127 36.97 5.41127 36.73C4.98127 37.44 4.93127 38.17 5.12127 38.9C5.50127 40.38 6.41127 41.49 7.73127 42.24C8.12127 42.46 8.50127 42.6 8.89127 42.6C9.24127 42.6 9.59127 42.49 9.94127 42.22C10.1313 42.07 10.3613 41.98 10.6713 41.8C10.0913 42.46 9.42127 42.79 8.73127 42.79C8.36127 42.79 7.97127 42.7 7.59127 42.51C5.52127 41.49 4.21127 38.13 5.06127 35.99C5.31127 35.35 5.73127 34.86 6.30127 34.47C6.42127 34.39 6.54127 34.08 6.48127 33.98C6.15127 33.37 5.82127 32.75 5.38127 32.22C4.88127 31.61 4.26127 31.11 3.72127 30.53C3.12127 29.89 2.74127 29.12 2.62127 28.24C2.50127 27.35 2.70127 26.5 3.49127 26.07C5.30127 25.08 5.84127 23.47 5.97127 21.59C6.05127 20.48 6.12127 19.38 6.20127 18.27C4.75127 18.3 2.86127 20.14 2.83127 21.43C3.38127 21.64 3.91127 21.84 4.43127 22.04C4.41127 22.09 4.39127 22.14 4.37127 22.2C4.03127 22.09 3.69127 21.97 3.33127 21.85C3.34127 22.78 3.89127 23.43 4.79127 23.66C4.79127 23.71 4.80127 23.75 4.81127 23.8C4.65127 23.82 4.48127 23.88 4.33127 23.88C4.29127 23.88 4.24127 23.88 4.20127 23.86C3.59127 23.66 2.99127 23.41 2.55127 23.24C2.48127 22.95 2.48127 22.78 2.41127 22.67C2.31127 22.51 2.16127 22.43 1.95127 22.43C1.79127 22.43 1.58127 22.48 1.32127 22.56C1.42127 22.63 1.51127 22.69 1.59127 22.75C1.66127 22.8 1.74127 22.84 1.82127 22.88C1.80127 22.93 1.77127 22.98 1.75127 23.03C1.49127 22.88 1.09127 22.79 1.01127 22.58C0.871267 22.2 0.931268 21.75 1.50127 21.65C1.66127 21.62 1.80127 21.52 1.96127 21.5C2.26127 21.47 2.37127 21.3 2.42127 21.01C2.60127 19.99 3.20127 19.25 4.10127 18.76C4.76127 18.4 5.44127 18.06 6.08127 17.66C6.32127 17.51 6.52127 17.24 6.63127 16.98C6.99127 16.16 7.28127 15.31 7.63127 14.48C7.73127 14.25 7.94127 14.06 8.11127 13.83C7.15127 13.21 6.14127 12.57 5.15127 11.91C5.00127 11.81 4.91127 11.62 4.80127 11.47C4.85127 11.41 4.89127 11.36 4.94127 11.3C5.74127 11.6 6.54127 11.88 7.33127 12.2C7.86127 12.41 8.41127 12.62 8.89127 12.92C9.08127 13.04 9.24127 13.09 9.39127 13.09C9.65127 13.09 9.86127 12.94 10.1013 12.71C10.6713 12.15 11.2813 11.62 11.9313 11.03C11.7913 10.9 11.6013 10.69 11.3713 10.54C10.1213 9.72001 8.87127 8.91999 7.62127 8.10999C7.47127 8.01999 7.34127 7.90998 7.23127 7.69998C7.42127 7.72998 7.62127 7.74 7.81127 7.78C9.59127 8.24 11.2013 9.05 12.6413 10.19C12.8313 10.34 13.0013 10.43 13.1713 10.43C13.3513 10.43 13.5313 10.33 13.7313 10.09C12.3313 8.9 10.9313 7.71001 9.51127 6.51001C9.59127 6.39001 9.66127 6.28998 9.75127 6.13998C11.3313 7.00998 13.1113 7.54001 14.3013 9.01001C14.4513 9.19001 14.5913 9.28 14.7513 9.28C14.8813 9.28 15.0113 9.23 15.1713 9.13C15.9113 8.69 16.6913 8.31 17.4313 7.87C19.6613 6.54 22.0913 6.19 24.5813 6.19C24.9513 6.19 25.3213 6.18999 25.7013 6.20999C26.6913 6.23999 27.6713 6.35998 28.6613 6.41998H28.6813C28.8113 6.41998 29.0113 6.35999 29.0513 6.26999C29.4913 5.42999 30.0013 4.61 30.3013 3.72C30.7113 2.49 30.0413 1.57001 28.9113 1.57001C28.7413 1.57001 28.5713 1.59 28.3813 1.63C27.0013 1.94 25.8513 2.72 24.7113 3.5C24.4913 3.65 24.2813 3.80999 24.0213 3.98999C24.5613 2.97999 26.2113 1.95999 28.6713 1.07999H29.7513M28.1913 7.73999C28.1013 7.79999 28.0013 7.86999 27.8113 7.98999C29.2113 8.39999 30.1213 9.29 30.8413 10.38C31.1913 10.91 31.3313 11.16 31.4913 11.16C31.6513 11.16 31.8313 10.89 32.2413 10.37C32.3813 10.2 32.5213 9.85 32.4413 9.72C32.3113 9.52 32.0013 9.43 31.8813 9.37C31.7113 9.15 31.6313 8.94998 31.5013 8.88998C30.6613 8.48998 29.8113 8.10999 28.9513 7.76999C28.8613 7.72999 28.7513 7.72 28.6413 7.72C28.5113 7.72 28.3813 7.73001 28.2613 7.73001C28.2413 7.73001 28.2213 7.73001 28.1913 7.73001C28.2613 7.58001 28.3413 7.42001 28.4313 7.23001C27.8913 7.16001 27.4013 7.1 26.9013 7.03C27.1013 7.24 27.3313 7.34998 27.5713 7.44998C27.7813 7.53998 27.9913 7.63 28.2013 7.72M29.6113 10.53C29.1213 9.37 28.1113 8.93001 27.3913 8.23001C27.1513 8.40001 26.9613 8.53 26.7713 8.66C26.7513 8.63 26.7213 8.60001 26.7013 8.57001C26.7913 8.49001 26.8913 8.40999 26.9913 8.32999C26.2313 7.85999 24.6413 7.60001 23.2613 7.60001C22.2713 7.60001 21.3813 7.74 21.0113 8.03C22.4413 8.24 23.8613 8.43999 25.2813 8.64999C25.2813 8.67999 25.2813 8.72 25.2813 8.75H24.4413C26.0613 9.86 27.8913 9.85001 29.6213 10.54M18.6713 8.26999C19.1613 8.11999 19.6613 7.97999 20.1513 7.82999C20.1313 7.76999 20.1113 7.70999 20.0913 7.64999C19.6013 7.79999 19.1013 7.95 18.6113 8.09L18.6613 8.26999M17.8813 8.73001C17.0713 9.08001 16.3513 9.37999 15.5313 9.73999C16.0513 9.89999 16.4413 9.98999 16.7413 9.98999C17.3413 9.98999 17.5913 9.63001 17.8813 8.73001ZM20.5213 11.08C20.5913 11.08 20.6813 11.05 20.7413 11.02C21.3813 10.71 22.0213 10.39 22.6613 10.06C23.0113 9.88 23.3413 9.67999 23.6913 9.48999C23.1113 9.00999 22.5413 8.85001 21.9713 8.85001C21.0213 8.85001 20.0813 9.29 19.1213 9.41C19.2513 10.25 19.8313 10.68 20.4713 11.06C20.4913 11.07 20.5113 11.07 20.5413 11.07M28.2713 11.13C28.2913 11.07 28.3113 11.01 28.3413 10.95C27.8513 10.8 27.3613 10.66 26.7413 10.48C27.1513 11.26 27.7613 11.07 28.2713 11.14M19.0413 12.73C19.0813 12.01 19.2113 11.28 18.5613 10.58C18.5513 11.44 18.6413 12.12 19.0413 12.73ZM15.7113 11.86C16.0813 11.67 16.3913 11.52 16.7113 11.36C16.3913 11.26 16.1713 11.2 16.0113 11.2C15.7313 11.2 15.6913 11.39 15.7113 11.86ZM21.5913 12.28C22.8613 12.05 24.1313 11.81 25.5213 11.55C25.2913 11.41 25.1013 11.2 24.9213 11.2C23.7113 11.21 22.5713 11.54 21.4913 12.12C21.5513 12.2 21.5813 12.28 21.6013 12.28M14.6413 14.74C15.6813 14.19 15.3113 13.27 15.6513 12.53C15.1913 12.46 14.8613 12.41 14.3913 12.34C14.4813 13.16 14.5513 13.9 14.6413 14.73M28.4913 14.13C29.0913 13.61 29.6013 13.17 30.2013 12.65C29.3613 12.54 28.6713 12.45 27.9313 12.35C28.1313 12.97 28.3013 13.52 28.4913 14.12M26.7113 14.03C26.6213 13.47 26.5313 12.92 26.4413 12.35C24.9513 12.37 23.5113 12.35 22.1313 12.9C22.2313 13.26 22.3213 13.58 22.4013 13.85C23.8813 13.91 25.2813 13.97 26.7213 14.03M12.0813 16.49C12.6713 16.19 13.1413 15.97 13.5913 15.71C13.7113 15.64 13.8313 15.44 13.8113 15.31C13.7413 14.53 13.6413 13.75 13.5413 12.95C13.4613 12.93 13.3813 12.92 13.3113 12.92C13.0313 12.92 12.8513 13.11 12.7613 13.46C12.6313 13.98 12.4513 14.49 12.3313 15.01C12.2313 15.46 12.1713 15.92 12.0813 16.49ZM12.0813 12.98C11.1313 13.12 10.5413 13.79 10.3913 14.83C10.2313 15.92 10.5213 16.7 11.3213 17.07C11.5813 15.69 11.8213 14.35 12.0813 12.98ZM21.4313 13.59C21.2513 13.19 21.0713 13 20.8413 13C20.6913 13 20.5313 13.08 20.3313 13.24C20.7013 13.36 21.0013 13.45 21.4213 13.59M16.3213 14.05C17.0013 13.92 17.6213 13.8 18.3913 13.66C17.8013 13.43 17.3613 13.24 16.9113 13.07C16.8213 13.04 16.7413 13.02 16.6613 13.02C16.3813 13.02 16.1813 13.24 16.2113 13.59C16.2213 13.75 16.2813 13.9 16.3213 14.05ZM27.8113 14.13C27.6813 13.68 27.5813 13.36 27.4913 13.04C27.4313 13.06 27.3713 13.08 27.3113 13.09C27.3313 13.44 27.2013 13.83 27.8113 14.13ZM35.3813 14.56C35.6713 14.56 35.9113 14.48 36.0913 14.3C35.4713 13.87 34.9013 13.66 34.4613 13.66C34.1713 13.66 33.9413 13.76 33.7913 13.95C34.3613 14.35 34.9313 14.56 35.3813 14.56ZM17.3213 15.82C17.9713 15.36 18.5213 14.98 19.1113 14.57C19.0413 14.45 18.9613 14.3 18.8413 14.11C18.1913 14.56 17.6613 15.03 17.3213 15.83M16.3113 15.24C16.6013 14.79 16.9713 14.66 17.4613 14.63C17.7513 14.62 18.0213 14.4 18.3113 14.27C18.3013 14.23 18.2813 14.19 18.2713 14.15C17.5913 14.24 16.9213 14.33 16.2213 14.42C16.2613 14.74 16.2913 14.99 16.3213 15.24M37.6713 15.82C37.7313 15.8 37.7813 15.78 37.8413 15.76C37.7013 15.43 37.6213 15.07 37.4113 14.8C37.3913 14.78 37.3613 14.77 37.3113 14.77C37.1613 14.77 36.9013 14.86 36.7213 14.89L36.6813 15.08C37.0113 15.33 37.3413 15.57 37.6713 15.82ZM8.93127 14.86C8.23127 15.69 7.71127 16.59 7.45127 17.58C8.24127 17.79 8.97127 17.99 9.87127 18.23C9.07127 17.2 8.91127 16.07 8.94127 14.87M38.2013 15.86C38.2813 15.86 38.3713 15.81 38.5113 15.66C39.0613 16.43 39.8413 16.78 40.6513 17.08C40.7013 17.01 40.7613 16.93 40.8113 16.86C40.2913 16.38 39.7813 15.9 39.2613 15.44C39.1913 15.38 39.0613 15.35 38.9413 15.35C38.9113 15.35 38.8913 15.35 38.8613 15.35C38.5513 15.39 38.2513 15.46 37.9413 15.52C38.0013 15.68 38.0613 15.85 38.2013 15.85M12.7913 17.54C13.9313 17.18 14.4913 16.63 14.3513 15.96C13.5813 16.13 12.9013 16.83 12.7913 17.54ZM15.4313 17.02C15.6513 16.62 15.6213 16.51 15.2013 15.98C14.9313 16.55 14.9713 16.71 15.4313 17.02ZM38.8013 20.69C39.1213 20.38 39.3613 20.15 39.6813 19.85C39.4213 19.71 39.1813 19.63 39.0113 19.47C38.8513 19.32 38.6213 19.05 38.6613 18.91C38.8613 18.29 38.5713 17.86 38.1513 17.55C37.4213 17.02 36.6213 16.58 35.8413 16.09C35.7113 16.01 35.5913 15.97 35.4813 15.97C35.2913 15.97 35.1213 16.09 34.9613 16.36C36.5713 17.46 37.8013 18.93 38.7913 20.68M28.6613 17.03C28.7713 17.03 28.9213 16.88 29.0513 16.81C28.9513 16.71 28.8613 16.54 28.7513 16.53C28.7013 16.53 28.6413 16.53 28.5913 16.53C28.3913 16.53 28.1913 16.56 27.9813 16.58C27.9713 16.63 27.9613 16.69 27.9413 16.74C28.1713 16.85 28.3913 16.99 28.6413 17.04H28.6613M31.2613 17.65C31.5013 17.65 31.7013 17.45 31.9113 17.34C31.7013 17.3 31.4813 17.14 31.2713 17.14C31.1213 17.14 30.9913 17.22 30.8813 17.48C31.0213 17.6 31.1413 17.64 31.2613 17.64M14.1613 18.82C14.2413 18.82 14.3313 18.79 14.3813 18.75C14.9313 18.32 15.0513 17.83 14.7813 17.18C14.1313 17.61 13.5113 18.02 12.8613 18.45C13.2813 18.57 13.6913 18.7 14.1013 18.81C14.1213 18.81 14.1413 18.81 14.1613 18.81M6.87127 20.21C7.60127 19.57 8.36127 18.92 9.14127 18.24C8.57127 18.08 8.02127 17.92 7.47127 17.77C7.35127 17.74 7.23127 17.73 7.04127 17.7C6.98127 18.6 6.92127 19.46 6.87127 20.21ZM40.4813 19.45C40.7713 19.2 40.9913 19.01 41.2113 18.82C41.0113 18.72 40.8513 18.65 40.5713 18.51C40.9013 18.39 41.0813 18.32 41.2613 18.25C41.0613 17.91 40.5913 17.7 40.1513 17.7C39.9613 17.7 39.7813 17.74 39.6213 17.82C39.7613 18.09 39.9013 18.36 40.0413 18.63C40.1813 18.89 40.3213 19.15 40.4813 19.45ZM43.7013 20.62C43.9913 20.36 44.2313 20.14 44.4713 19.93C44.4713 19.93 44.4713 19.91 44.4813 19.91C43.9913 20.46 43.9213 21.11 43.8713 21.83C43.7613 23.7 42.7713 25.01 41.0513 25.75C40.7413 25.88 40.4113 25.99 40.0913 26.11C39.5813 26.29 39.4913 26.69 39.7813 27.05C43.6713 25.76 44.9813 22.69 45.3513 18.94C45.0413 19.29 44.7513 19.61 44.4613 19.93C44.5713 19.69 44.6913 19.46 44.7913 19.21C45.0013 18.66 44.7913 18.31 44.2113 18.31H44.1913C43.6613 18.31 43.1213 18.41 42.5113 18.47C42.9513 19.26 43.3113 19.93 43.7013 20.62ZM36.8713 23.59C37.8313 21.72 36.8513 18.87 35.0013 18.33C35.0013 19.42 35.0813 20.48 34.9713 21.52C34.8913 22.34 35.0713 22.84 35.8813 23.09C36.2213 23.19 36.5213 23.41 36.8613 23.59M34.1413 21.72C34.5313 20.69 34.3013 19.63 33.4713 18.88C33.3813 19.23 33.2013 19.52 33.2713 19.73C33.5013 20.4 33.8313 21.03 34.1413 21.72ZM41.0713 20.07C41.3613 19.7 41.6113 19.37 41.8613 19.05C41.8313 19.02 41.8013 19 41.7613 18.97C41.4413 19.15 41.1213 19.33 40.7813 19.52C40.8813 19.71 40.9613 19.86 41.0713 20.08M39.6413 25.33C40.6713 25.04 41.6213 24.7 42.3613 23.99C43.0113 23.36 43.2613 22.53 43.0413 21.67C42.8413 20.92 42.4513 20.23 42.0913 19.39C41.8113 19.71 41.6313 19.95 41.4013 20.15C40.8813 20.62 40.6713 21.18 40.7913 21.87C40.9113 22.59 40.7113 23.24 40.3513 23.86C40.0813 24.33 39.8813 24.83 39.6413 25.32M10.1513 24.8C10.2213 24.8 10.2913 24.79 10.3713 24.76C10.7513 23.92 11.0713 23.1 11.4813 22.33C11.8413 21.66 11.9713 21.09 11.2613 20.59C11.2513 20.59 11.2613 20.53 11.2713 20.49C11.5013 20.63 11.7213 20.77 11.9613 20.91C11.8746 20.3967 11.5013 20.12 10.8413 20.08C10.5713 20.83 10.2813 21.55 10.0813 22.29C9.91127 22.91 9.82127 23.55 9.76127 24.18C9.72127 24.54 9.85127 24.8 10.1513 24.8ZM8.84127 24.74C9.28127 23.19 9.71127 21.65 10.1513 20.12C10.0813 20.1 10.0013 20.1 9.92127 20.1C9.56127 20.1 9.19127 20.27 9.00127 20.61C8.44127 21.6 8.04127 22.65 8.01127 23.81C7.99127 24.58 8.14127 24.72 8.85127 24.75M38.5913 22.98C39.0513 22.67 38.9713 21.66 38.4913 20.79C38.5213 21.54 38.5613 22.21 38.5913 22.98ZM10.9513 24.58C11.5113 23.71 12.0413 22.82 12.5313 21.92C12.6113 21.77 12.5413 21.53 12.5413 21.33C12.4713 21.33 12.3913 21.31 12.3213 21.3C11.8313 22.38 11.0313 23.33 10.9413 24.59M40.0913 23.56V21.36C39.5413 21.64 39.5113 22.81 40.0913 23.56ZM39.0613 23.03C38.3713 23.25 38.2513 24.23 38.7913 24.87C38.8913 24.22 38.9613 23.68 39.0613 23.03ZM34.8213 25.35V23.56C34.3213 23.9 34.2613 24.26 34.3413 24.64C34.4013 24.92 34.3813 25.3 34.8213 25.35ZM36.0713 25.42C36.3413 25.42 36.4913 25.17 36.5613 24.91C36.6113 24.72 36.6113 24.41 36.5013 24.31C36.2513 24.07 35.9113 23.93 35.5113 23.68C35.5113 24.16 35.4813 24.57 35.5313 24.96C35.5513 25.11 35.7213 25.32 35.8713 25.38C35.9413 25.41 36.0113 25.42 36.0713 25.42ZM6.96127 29.55C7.34127 29.11 7.64127 28.76 7.95127 28.39C7.90127 28.29 7.86127 28.18 7.80127 28.07C7.48127 27.45 7.16127 26.83 6.81127 26.23C6.75127 26.12 6.57127 26.09 6.44127 26.02C6.38127 26.15 6.25127 26.28 6.26127 26.4C6.33127 27.09 6.40127 27.79 6.53127 28.47C6.60127 28.83 6.80127 29.17 6.96127 29.55ZM8.89127 27.69C8.89127 27.69 8.92127 27.69 8.94127 27.69C9.02127 27.67 9.11127 27.52 9.11127 27.42C9.14127 26.71 8.77127 26.24 8.02127 26.04C8.02127 26.66 8.24127 27.16 8.63127 27.58C8.69127 27.64 8.81127 27.7 8.90127 27.7M4.46127 26.12C3.84127 26.56 3.71127 27.42 4.13127 28.21C4.24127 27.49 4.35127 26.83 4.46127 26.12ZM5.68127 30.58C5.65127 30.08 5.61127 29.58 5.58127 29.07C5.82127 30.85 6.40127 32.03 7.23127 32.34C6.63127 30.31 6.02127 28.23 5.43127 26.19C5.18127 27.62 4.68127 29.13 5.68127 30.57M36.1613 27.28C36.5713 27.07 36.8713 26.92 37.1713 26.77L37.1013 26.62C36.9813 26.62 36.8513 26.59 36.7313 26.59C36.4713 26.59 36.2313 26.69 36.1613 27.27M37.3313 29.53C37.4613 29.53 37.5913 29.53 37.7213 29.52C37.8413 29.52 38.0313 29.39 38.0613 29.28C38.2013 28.89 38.3513 28.5 38.3813 28.09C38.4113 27.76 38.6713 27.23 37.8613 27.19C38.1013 27.16 38.2213 27.15 38.3913 27.13C38.3913 26.8 38.3313 26.6 38.1313 26.6C38.0513 26.6 37.9513 26.64 37.8213 26.71C37.5913 26.84 37.3713 26.99 37.1713 27.15C36.8413 27.42 36.7113 27.92 36.2013 28C36.1613 28 36.1213 28.15 36.1313 28.23C36.1613 28.64 36.2113 29.04 36.2513 29.49C36.2913 29.49 36.4113 29.51 36.5313 29.51C36.7913 29.51 37.0613 29.53 37.3213 29.53M14.8113 30.09C14.8613 30.08 14.9113 30.07 14.9613 30.06C14.8613 29.72 14.7513 29.38 14.6013 28.9C14.3513 29.48 14.5113 29.8 14.8013 30.09M8.82127 33.06C9.23127 32.69 9.57127 32.34 9.95127 32.04C10.3613 31.73 10.3213 31.37 10.1013 31.01C9.69127 30.35 9.26127 29.7 8.80127 29C7.85127 29.72 8.19127 30.8 8.02127 31.74C8.00127 31.88 8.05127 32.07 8.14127 32.19C8.36127 32.51 8.61127 32.81 8.82127 33.07M34.2113 30.17C34.2113 30.17 34.1713 30.17 34.1513 30.17C34.1013 30.17 34.0513 30.17 34.0113 30.2C33.9213 30.26 33.8013 30.34 33.7813 30.43C33.7613 30.5 33.8513 30.64 33.9313 30.69C34.0213 30.75 34.1113 30.77 34.2113 30.77C34.4913 30.77 34.7713 30.55 34.8513 30.17C34.7113 30.17 34.5913 30.17 34.4813 30.17C34.3913 30.17 34.3113 30.17 34.2313 30.17H34.2113ZM36.8013 31.87C37.2713 31.87 37.5113 31.58 37.7213 30.83C37.4013 30.8 37.0813 30.78 36.7013 30.75C36.6913 31 36.6813 31.18 36.6713 31.35C36.6713 31.52 36.6713 31.7 36.6713 31.87C36.7113 31.87 36.7613 31.87 36.8013 31.87ZM9.83127 33.66H11.4713C11.2713 33.27 11.1013 32.92 10.8913 32.5C10.5313 32.9 10.2213 33.23 9.83127 33.66ZM33.8513 34.21C34.9613 33.78 35.0013 33.66 34.4413 32.55C33.8313 32.95 33.6413 33.5 33.8513 34.21ZM29.2813 33.71C29.7713 33.58 30.2513 33.45 30.8613 33.29C30.7013 33.21 30.5613 33.18 30.4313 33.18C29.9613 33.18 29.6613 33.59 29.2813 33.71ZM44.8613 34.29C44.8413 34.06 44.8313 33.9 44.8113 33.7C44.4713 33.75 44.1913 33.79 43.9113 33.82C43.9113 33.85 43.9113 33.88 43.9113 33.92C44.2013 34.03 44.5013 34.15 44.8613 34.29ZM14.2913 34.82C14.4013 34.82 14.5413 34.75 14.7513 34.61C14.9413 34.48 15.1413 34.38 15.3413 34.26C15.0513 34.57 14.7613 34.87 14.5013 35.15C14.7913 35.45 15.0513 35.74 15.3113 36.02C16.2913 35.38 16.3513 35.16 15.9213 33.81C15.8013 33.89 15.6913 33.97 15.5713 34.05C15.3613 33.82 15.1513 33.75 14.9413 33.75C14.5813 33.75 14.2113 33.97 13.8213 33.99C13.8613 34.16 13.8813 34.26 13.9213 34.36C14.0313 34.69 14.1313 34.84 14.2913 34.84M20.8413 34.89C21.0813 34.89 21.2813 34.72 21.3813 34.31C20.6413 34.12 19.9213 33.94 19.2013 33.76C19.1713 33.83 19.1313 33.9 19.1013 33.96C19.5413 34.23 19.9713 34.53 20.4313 34.77C20.5813 34.85 20.7113 34.89 20.8413 34.89ZM7.05127 37.07C7.17127 37.07 7.31127 37.05 7.46127 37C7.51127 36.98 7.55127 36.98 7.60127 36.98C7.86127 36.98 7.99127 37.25 8.01127 37.56C8.03127 37.84 8.08127 38.12 8.12127 38.39C8.12127 38.39 8.11127 38.39 8.10127 38.38C8.10127 38.38 8.11127 38.39 8.12127 38.4C7.81127 38.14 7.51127 37.87 7.19127 37.62C7.05127 37.51 6.79127 37.34 6.70127 37.34C6.69127 37.34 6.68127 37.34 6.68127 37.34C6.49127 37.5 6.28127 37.75 6.28127 37.97C6.27127 38.74 6.46127 39.48 7.00127 40.05C7.50127 40.58 8.12127 40.86 8.71127 40.86C9.30127 40.86 9.84127 40.58 10.2113 39.97C9.51127 39.43 8.81127 38.91 8.12127 38.38C8.82127 38.79 9.51127 39.19 10.2313 39.61C10.4613 39.2 10.6713 38.82 10.8613 38.49C10.2413 37.99 9.64127 37.57 9.11127 37.06C8.59127 36.56 8.15127 35.97 7.67127 35.41C7.52127 35.53 7.36127 35.65 7.16127 35.81C7.38127 35.15 7.36127 34.67 7.10127 34.37C6.29127 34.69 5.97127 35.4 5.66127 36.14C6.10127 36.53 6.42127 37.06 7.04127 37.06M12.3413 35.46C12.4013 35.46 12.4613 35.46 12.5313 35.44C12.5813 35.38 12.6213 35.33 12.6713 35.27C12.3313 34.98 11.9813 34.68 11.6413 34.39C11.7713 34.85 11.7413 35.46 12.3413 35.46ZM32.8613 36.03C33.1513 35.68 33.4313 35.34 33.7013 35L33.6513 34.91C33.2913 35.02 32.9413 35.12 32.5713 35.23C32.6513 35.48 32.7013 35.67 32.7613 35.85C32.7813 35.9 32.8113 35.93 32.8713 36.02M17.4213 37.25C17.8013 36.66 18.1513 36.11 18.5213 35.54C18.1313 35.31 17.8013 35.11 17.4713 34.92C16.6513 36.04 16.6413 36.43 17.4313 37.25M11.5313 37.87C10.8713 36.25 9.43127 35.81 8.22127 35.1C9.06127 36.27 10.1313 37.16 11.5313 37.87ZM27.4513 36.63C27.8813 36.63 28.3013 36.29 29.0013 35.72C28.9613 35.72 28.9113 35.72 28.8713 35.72C28.3613 35.72 27.8413 35.52 27.3313 35.52C26.9713 35.52 26.6113 35.62 26.2713 35.95C26.7713 36.42 27.1213 36.62 27.4513 36.62M31.2713 35.52C30.9213 35.57 30.6313 35.61 30.3013 35.65C30.4913 35.92 30.6213 36.06 30.7413 36.06C30.8813 36.06 31.0213 35.89 31.2713 35.52ZM20.7013 37.81C20.8513 37.81 21.0113 37.79 21.0913 37.71C21.4413 37.34 21.7413 36.92 22.1513 36.41C21.6013 36.29 21.2113 36.2 20.8113 36.12C20.8013 36.12 20.7913 36.12 20.7713 36.12C20.6913 36.12 20.5713 36.16 20.5413 36.22C20.2613 36.68 20.0013 37.16 19.7113 37.66C20.0813 37.72 20.3413 37.79 20.6013 37.8C20.6313 37.8 20.6613 37.8 20.7013 37.8M18.8313 37.29C18.9513 36.86 19.0513 36.53 19.1513 36.19C19.0913 36.17 19.0313 36.14 18.9613 36.12C18.4713 36.41 18.4113 36.72 18.8313 37.29ZM31.8713 37.22C32.3913 36.9533 32.5779 36.59 32.4313 36.13C32.1313 36.36 31.8413 36.58 31.5213 36.83C31.6513 36.97 31.7613 37.1 31.8713 37.22ZM25.8513 36.62C25.6013 36.45 25.3513 36.15 25.0413 36.15C24.9013 36.15 24.7413 36.21 24.5513 36.39C25.0213 36.48 25.4313 36.55 25.8513 36.63M28.7513 36.71C29.2913 36.61 29.7313 36.53 30.2313 36.44C30.0513 36.27 29.8713 36.18 29.6813 36.18C29.4113 36.18 29.1113 36.35 28.7613 36.7M21.4613 37.85C22.0013 37.81 22.4313 37.8 22.8413 37.72C22.9713 37.69 23.1413 37.49 23.1713 37.35C23.2013 37.22 23.0913 37 22.9813 36.93C22.7513 36.78 22.5713 36.71 22.4213 36.71C22.2013 36.71 22.0313 36.87 21.8213 37.19C21.7113 37.37 21.6213 37.56 21.4713 37.85M13.0513 37.95C13.1513 37.54 13.2113 37.3 13.2913 37C12.8713 36.89 12.5313 36.8 12.1913 36.71C12.1513 36.76 12.1213 36.82 12.0813 36.87C12.3713 37.2 12.6713 37.53 13.0513 37.95ZM30.8313 37.84C30.6913 37.6 30.6013 37.44 30.5013 37.26C30.2713 37.39 30.0713 37.49 29.8713 37.6C29.8713 37.64 29.8713 37.68 29.8713 37.72C30.1613 37.76 30.4513 37.79 30.8313 37.84ZM14.0213 38.45C14.3013 38.45 14.6013 38.26 15.0113 37.86C14.5713 37.46 14.2513 37.26 14.0013 37.26C13.7113 37.26 13.5113 37.53 13.3413 38.06C13.5913 38.31 13.8013 38.44 14.0313 38.44M26.4413 40.14C26.6313 40.14 26.8213 40.12 26.9913 40.06C28.1613 39.68 29.2813 39.13 30.4213 38.64C30.5713 38.58 30.7013 38.48 30.8413 38.4C30.8313 38.35 30.8213 38.3 30.8013 38.25C29.9513 38.17 29.1113 38.07 28.2613 38.01C27.8013 37.97 27.3313 37.91 26.8713 37.91C26.6913 37.91 26.5213 37.91 26.3413 37.94C25.6713 38.03 25.0313 38.32 24.3713 38.47C24.0113 38.55 23.8813 38.79 23.9213 39.08C23.9413 39.25 24.1313 39.43 24.3013 39.53C24.6013 39.72 24.9313 39.92 25.2713 39.98C25.6513 40.04 26.0613 40.13 26.4513 40.13M11.5813 40.07C12.0613 40.07 12.3313 39.72 12.7013 38.91C12.1913 38.75 11.6913 38.59 11.1413 38.42C10.8713 38.89 10.6413 39.3 10.4013 39.71C10.9113 39.94 11.2813 40.07 11.5713 40.07M14.1313 39.04C14.6113 38.89 15.0813 38.74 15.5613 38.6C15.5413 38.55 15.5313 38.49 15.5113 38.44L14.0813 38.87L14.1313 39.04ZM22.5613 39.01C21.7913 39.07 21.0813 38.95 20.4613 39.37C20.8313 39.42 21.2113 39.56 21.5813 39.56C21.9213 39.56 22.2513 39.44 22.5613 39.01ZM16.1613 40.17C16.5413 40.17 16.8613 39.85 17.3013 39.23C17.0613 39.1 16.8513 39.04 16.6413 39.04C16.1213 39.04 15.6913 39.39 15.2413 39.71C15.6213 40.01 15.9013 40.16 16.1613 40.16M18.4413 40.79C18.4813 40.54 18.5413 40.34 18.5213 40.16C18.5013 39.99 18.4313 39.72 18.3213 39.68C18.2713 39.66 18.2213 39.66 18.1613 39.66C18.0113 39.66 17.8513 39.71 17.7413 39.78C17.4413 39.99 17.1913 40.27 16.8413 40.59C17.4213 40.67 17.8913 40.73 18.4413 40.8M19.1613 40.86C19.5813 40.72 19.9413 40.61 20.3513 40.47C20.0913 40.31 19.9013 40.23 19.7413 40.23C19.5013 40.23 19.3413 40.43 19.1613 40.86ZM27.9613 43.18C27.3613 42.14 27.0313 41.07 25.7913 40.75C25.7413 41.39 25.7013 41.93 25.6613 42.52C26.3713 42.73 27.1013 42.93 27.9613 43.18ZM24.9613 42.02C24.9613 41.61 24.9913 41.35 24.9513 41.09C24.9313 40.99 24.7513 40.85 24.6413 40.84C24.4413 40.83 24.2413 40.82 24.0313 40.82C23.7813 40.82 23.5213 40.82 23.2313 40.82C23.6413 41.52 24.3713 41.57 24.9613 42.01M20.9013 40.81C20.5213 40.9 20.2413 40.97 19.9713 41.04C19.2179 41.2333 18.8079 41.73 18.7413 42.53C18.6913 43.1 18.6513 43.66 18.6013 44.23C18.7613 44.19 18.8113 44.15 18.8513 44.09C19.5113 43.03 20.1813 41.97 20.9013 40.81ZM24.3013 42.55C23.9713 42.19 23.7113 42.02 23.4513 42.02C23.2413 42.02 23.0313 42.14 22.7913 42.36C23.3313 42.43 23.8113 42.49 24.3013 42.55ZM29.7913 0.0299988H28.7113C28.6013 0.0299988 28.4813 0.0499963 28.3713 0.0899963C25.5913 1.08 23.8413 2.22 23.1713 3.47C22.9513 3.88 23.0413 4.39 23.3913 4.69C23.5813 4.86 23.8113 4.94 24.0513 4.94C24.2513 4.94 24.4513 4.88001 24.6313 4.76001L24.8813 4.57999C25.0313 4.46999 25.1713 4.37 25.3113 4.28C26.4213 3.52 27.4613 2.82 28.6413 2.56C28.7513 2.54 28.8513 2.51999 28.9513 2.51999C29.0713 2.51999 29.2913 2.53999 29.3913 2.67999C29.4913 2.80999 29.4913 3.06001 29.3913 3.35001C29.1913 3.94001 28.8713 4.52 28.5413 5.13C28.5013 5.2 28.4613 5.27 28.4213 5.34C28.1413 5.32 27.8513 5.29999 27.5613 5.26999C26.9813 5.21999 26.3713 5.16999 25.7713 5.14999C25.3813 5.13999 25.0013 5.13 24.6213 5.13C21.4313 5.13 19.0613 5.68998 16.9513 6.94998C16.6013 7.15998 16.2313 7.35999 15.8713 7.54999C15.5513 7.71999 15.2313 7.89999 14.9113 8.07999C13.9113 6.96999 12.6813 6.38 11.4913 5.81C11.0613 5.61 10.6613 5.40998 10.2713 5.19998C10.1213 5.11998 9.95127 5.07999 9.79127 5.07999C9.47127 5.07999 9.15127 5.24 8.96127 5.53L8.78127 5.79999L8.71127 5.89999C8.50127 6.20999 8.49127 6.6 8.65127 6.91C8.47127 6.86 8.28127 6.80001 8.10127 6.76001C7.90127 6.71001 7.71127 6.68998 7.56127 6.66998L7.40127 6.64999C7.40127 6.64999 7.31127 6.64999 7.26127 6.64999C6.94127 6.64999 6.64127 6.80001 6.45127 7.07001C6.23127 7.37001 6.20127 7.77001 6.37127 8.10001C6.59127 8.53001 6.88127 8.74999 7.11127 8.89999L8.32127 9.67999C9.02127 10.13 9.71127 10.58 10.4113 11.03C10.0713 11.33 9.75127 11.63 9.43127 11.95C9.41127 11.96 9.40127 11.98 9.39127 11.99C8.89127 11.69 8.37127 11.48 7.86127 11.28L7.73127 11.23C7.17127 11 6.60127 10.8 6.03127 10.59L5.32127 10.33C5.21127 10.29 5.09127 10.27 4.97127 10.27C4.68127 10.27 4.39127 10.4 4.20127 10.63L4.13127 10.71L4.06127 10.8C3.76127 11.16 3.76127 11.68 4.04127 12.05C4.06127 12.08 4.08127 12.11 4.10127 12.14C4.20127 12.29 4.36127 12.53 4.63127 12.71C5.33127 13.17 6.04127 13.63 6.73127 14.08C6.56127 14.47 6.41127 14.87 6.26127 15.27C6.09127 15.7 5.93127 16.13 5.75127 16.55C5.70127 16.67 5.62127 16.76 5.59127 16.78C5.18127 17.04 4.75127 17.27 4.29127 17.51C4.08127 17.62 3.87127 17.73 3.67127 17.84C2.55127 18.46 1.82127 19.39 1.54127 20.55C1.48127 20.57 1.43127 20.59 1.39127 20.61L1.33127 20.63C0.861266 20.71 0.441267 20.99 0.211267 21.4C-0.0387326 21.83 -0.0687306 22.35 0.131269 22.88C0.331269 23.43 0.841266 23.65 1.15127 23.78C1.21127 23.8 1.27127 23.83 1.32127 23.86C1.47127 23.95 1.64127 23.99 1.81127 23.99C1.87127 23.99 1.93127 23.99 1.99127 23.97C2.07127 24.04 2.16127 24.09 2.27127 24.13L2.63127 24.27C2.95127 24.4 3.34127 24.55 3.74127 24.69C3.54127 24.86 3.32127 25.01 3.08127 25.14C2.02127 25.72 1.52127 26.88 1.70127 28.32C1.84127 29.4 2.30127 30.36 3.06127 31.17C3.29127 31.42 3.53127 31.65 3.78127 31.88C4.11127 32.19 4.42127 32.49 4.68127 32.81C4.95127 33.14 5.17127 33.51 5.40127 33.92C4.86127 34.38 4.46127 34.94 4.20127 35.59C3.17127 38.2 4.69127 42.13 7.22127 43.37C7.74127 43.62 8.27127 43.75 8.80127 43.75C9.79127 43.75 10.7113 43.3 11.4613 42.46C11.5913 42.33 11.6813 42.16 11.7213 41.97C12.0513 42.06 12.4113 42.13 12.8013 42.13C12.8713 42.13 12.9413 42.13 13.0113 42.13L12.2313 42.89C12.1313 42.86 12.0313 42.85 11.9213 42.85C11.5413 42.85 11.1713 43.07 11.0013 43.42C10.8513 43.73 10.7313 44.07 10.6513 44.43C10.5913 44.73 10.6713 45.05 10.8613 45.29C11.0313 45.5 11.4613 45.81 11.9413 45.81C12.0313 45.81 12.1413 45.8 12.2213 45.77C12.3213 45.74 12.4113 45.72 12.5113 45.69C12.5313 45.75 12.5513 45.8 12.5813 45.85C11.9413 46.55 11.3013 47.22 10.6313 47.85C10.6113 47.72 10.5613 47.59 10.4813 47.48L10.3913 47.34C10.2013 47.05 9.88127 46.89 9.56127 46.89C9.41127 46.89 9.26127 46.92 9.11127 47L9.07127 47.02C8.90127 47.08 8.58127 47.21 8.35127 47.52C8.02127 47.98 7.69127 48.44 7.42127 48.96C7.17127 49.46 6.85127 50.14 6.64127 50.87C6.50127 51.38 6.58127 51.88 6.86127 52.25C7.13127 52.6 7.54127 52.8 8.00127 52.8C8.23127 52.8 8.46127 52.75 8.70127 52.65C9.23127 52.42 9.80127 52.18 10.2913 51.76C11.3613 50.81 12.4713 49.83 13.4813 48.72C14.4513 47.66 15.4013 46.55 16.3313 45.48C15.8413 46.56 15.1613 47.54 14.2913 48.42C13.2213 49.51 12.1513 50.61 11.0913 51.71C10.9413 51.87 10.8213 52.03 10.7113 52.17C10.6713 52.22 10.6313 52.27 10.5913 52.32C10.2713 52.72 10.3113 53.31 10.6813 53.66L10.7513 53.72L10.8213 53.78C11.0113 53.96 11.2613 54.06 11.5113 54.06C11.7413 54.06 11.9613 53.98 12.1513 53.83C12.3113 53.7 12.4813 53.57 12.6513 53.44C13.0713 53.12 13.5013 52.79 13.8813 52.37C14.5313 51.66 15.1513 50.92 15.7613 50.21C16.0213 49.9 16.2813 49.6 16.5413 49.29C16.2513 51.59 15.9313 53.77 14.6713 55.74C14.4213 56.14 14.4713 56.66 14.8113 56.99C15.0013 57.18 15.2613 57.28 15.5213 57.28C15.7113 57.28 15.9013 57.23 16.0613 57.12C17.0513 56.48 17.6613 55.55 17.9513 54.27L18.1213 53.48C18.5213 51.7 18.9313 49.85 19.1413 47.98C19.3313 46.28 19.7313 45.23 20.5213 44.33C20.7613 44.06 20.9713 43.78 21.1713 43.49C21.8613 44.12 22.7813 44.5 23.6913 44.5C24.1313 44.5 24.5413 44.41 24.9113 44.23C25.0513 44.16 25.1713 44.13 25.2713 44.13C25.3313 44.13 25.4413 44.14 25.6213 44.23C25.8813 44.35 26.1413 44.43 26.3813 44.51C26.5513 44.56 26.7913 44.64 26.9013 44.7C26.9213 44.82 26.9213 45.16 26.9113 45.37C26.9113 45.58 26.9113 45.79 26.9113 45.99C27.0213 48 26.5713 49.67 25.5213 51.09C25.4113 51.24 25.2913 51.4 25.1813 51.56L25.0513 51.74C24.7713 52.13 24.8113 52.66 25.1413 53.01C25.3313 53.22 25.6013 53.32 25.8713 53.32C26.0613 53.32 26.2413 53.27 26.4113 53.16C28.1113 52.07 28.7213 50.39 29.0913 48.89C29.3913 47.67 29.4813 46.43 29.3513 45.19H29.5413C30.2913 45.15 31.0713 45.12 31.8413 45.02C32.7213 44.91 33.4413 44.29 33.7113 43.4C33.7513 43.29 33.7713 43.17 33.7713 43.05C33.7713 42.5 33.3313 42.05 32.7713 42.05C32.7713 42.05 32.7513 42.05 32.7413 42.05C32.4913 42.05 32.2713 42.16 32.1013 42.31C31.7213 42.67 31.5413 42.74 31.3713 42.74C31.3413 42.74 31.3213 42.74 31.2913 42.74C30.5713 42.65 29.7713 42.54 28.9813 42.42C28.7613 42.01 28.5513 41.59 28.3313 41.17C29.4513 40.84 30.4713 40.32 31.4913 39.76C31.9113 39.53 32.4613 39.23 33.0113 38.9C33.1313 38.83 33.2913 38.79 33.4613 38.79C33.8613 38.79 34.2813 38.98 34.5813 39.27C34.8613 39.56 35.0013 39.91 35.0013 40.33C35.0013 40.82 35.3513 41.24 35.8313 41.33C35.8913 41.34 35.9513 41.34 36.0013 41.34C36.4213 41.34 36.8013 41.07 36.9413 40.67C37.2813 39.69 37.1213 38.76 36.4713 37.9C36.0613 37.36 35.5613 36.98 34.9713 36.76L35.0213 36.7L35.5113 36.08C36.6813 37.32 37.8313 38.53 39.0013 39.73C39.3213 40.06 39.7213 40.12 39.9413 40.15C39.9713 40.15 40.0013 40.15 40.0313 40.16C40.1013 40.18 40.1813 40.18 40.2613 40.18C40.5313 40.18 40.8013 40.07 40.9913 39.87C41.2313 39.62 41.3413 39.26 41.2513 38.92C41.2513 38.89 41.2413 38.86 41.2313 38.84C41.2013 38.64 41.1413 38.31 40.9013 38.02C40.0513 36.99 39.1913 35.97 38.3313 34.95L37.8513 34.38C37.9313 34.4 38.0213 34.42 38.1113 34.46C39.2613 34.87 40.4113 35.27 41.6013 35.55C42.3413 35.72 43.0713 35.77 43.7813 35.82C43.9713 35.83 44.1613 35.85 44.3513 35.86C44.4013 35.86 44.4513 35.86 44.5013 35.86C45.2013 35.86 45.7413 35.45 45.9413 34.82C46.1313 34.8 46.3213 34.77 46.5113 34.75C47.5113 34.63 48.5513 34.5 49.5713 34.32C50.8413 34.09 52.4813 33.72 53.8613 32.85C54.1513 32.68 54.3513 32.36 54.3513 31.99C54.3513 31.44 53.9113 30.99 53.3613 30.99C53.3613 30.99 53.3413 30.99 53.3313 30.99C53.3113 30.99 53.2913 30.99 53.2713 30.99C52.5313 31.05 51.7913 31.12 51.0413 31.19C49.3313 31.34 47.5613 31.5 45.8013 31.6C45.4913 31.62 45.1813 31.63 44.8613 31.63C43.7513 31.63 42.6613 31.53 41.5313 31.4C43.7113 31.31 45.9613 31.21 48.1713 30.67C49.0813 30.45 50.0313 30.17 50.7913 29.4C51.1213 29.07 51.1813 28.55 50.9213 28.15C50.5113 27.51 49.5113 27.08 48.8413 27.08C48.6513 27.08 48.4713 27.11 48.3113 27.17C47.8813 27.33 47.7013 27.69 47.6113 27.86C47.6013 27.88 47.5913 27.91 47.5713 27.93C47.5513 27.96 47.5313 28 47.5113 28.03C47.1613 28.11 46.8113 28.18 46.4713 28.22C44.6613 28.43 42.6013 28.67 40.5913 28.79C40.5513 28.79 40.5113 28.79 40.4713 28.79C40.4713 28.71 40.4813 28.64 40.4813 28.59V28.51C40.4913 28.45 40.5013 28.38 40.5113 28.3C43.0613 27.34 44.8313 25.63 45.7913 23.22C46.3713 21.75 46.4913 20.25 46.5513 18.73C46.6013 18.68 46.6513 18.63 46.6913 18.58L46.8413 18.42C47.2113 18.03 47.2113 17.42 46.8413 17.03L46.7913 16.98L46.7313 16.92C46.5313 16.72 46.2713 16.62 46.0113 16.62C45.7713 16.62 45.5313 16.71 45.3413 16.88C45.3113 16.91 45.2813 16.93 45.1713 16.93C45.0613 16.93 44.9213 16.91 44.8113 16.89C44.5013 16.84 44.1513 16.78 43.7913 16.78C43.5113 16.78 43.2613 16.81 43.0313 16.89C43.0213 16.89 43.0013 16.89 42.9913 16.9C42.9713 16.88 42.9413 16.84 42.9013 16.79C42.0613 15.68 41.1413 14.79 40.1213 14.1C40.5013 13.97 40.8713 13.91 41.2513 13.91C41.3413 13.91 41.4413 13.91 41.5313 13.92C41.6413 14.27 41.9313 14.54 42.3013 14.61C42.3713 14.62 42.4313 14.63 42.5013 14.63C42.8813 14.63 43.2313 14.42 43.4013 14.07C43.7913 13.22 43.5013 12.72 43.2913 12.49C43.0913 12.27 42.8613 12.14 42.6913 12.04C42.6413 12.01 42.5913 11.98 42.5413 11.95C42.5113 11.93 42.4813 11.89 42.4513 11.86C42.4113 11.82 42.3613 11.77 42.3113 11.72C42.1213 11.54 41.8713 11.44 41.6113 11.44C41.5713 11.44 41.5313 11.44 41.4913 11.44C41.3213 11.15 41.0113 10.95 40.6513 10.94C40.6513 10.94 40.6313 10.94 40.6213 10.94C40.5713 10.94 40.5113 10.94 40.4613 10.95C40.3713 10.97 40.2813 10.99 40.2013 11.03C39.9713 11.13 39.7413 11.24 39.5213 11.36C39.6913 11.22 39.8713 11.07 40.0313 10.92C40.2513 10.74 40.3913 10.46 40.3913 10.16C40.3913 9.61 39.9413 9.16 39.3913 9.16C39.3913 9.16 39.3713 9.16 39.3613 9.16C38.9313 9.17 38.6113 9.32999 38.3813 9.45999C38.0713 9.63999 37.7713 9.81001 37.4613 9.98001C36.7013 10.41 35.9113 10.85 35.1713 11.36C35.0313 11.45 34.9413 11.47 34.8713 11.47C34.8513 11.47 34.8413 11.47 34.8213 11.47C34.9013 11.38 35.0113 11.27 35.1813 11.14C37.4913 9.35998 39.8113 7.53001 42.0613 5.76001L44.4613 3.87C44.7013 3.68 44.8413 3.38999 44.8413 3.07999V3V2.92999C44.8413 2.40999 44.4513 1.97999 43.9313 1.92999H43.8813C43.7813 1.89999 43.6513 1.88 43.4913 1.88C43.3213 1.88 43.1613 1.91 43.0213 1.97C42.7013 2.09 42.3813 2.27 42.0513 2.5C41.6513 2.79 41.2413 3.07001 40.8313 3.35001C39.7513 4.10001 38.6413 4.86998 37.5813 5.69998C37.0513 6.11998 36.4813 6.47999 35.8713 6.85999C35.7513 6.93999 35.6313 7.01 35.5113 7.09C35.6713 6.43 35.7413 5.71999 35.6713 4.95999C35.5813 4.01999 34.8013 3.31 33.8613 3.31C33.6013 3.31 33.3513 3.35999 33.1013 3.45999C32.7213 3.61999 32.4713 3.99998 32.4913 4.41998C32.5113 4.83998 32.7713 5.19999 33.1713 5.32999L33.2513 5.35999C33.2513 5.35999 33.3313 5.38999 33.3813 5.39999C33.3413 5.75999 33.2613 6.12 33.1413 6.47L33.1213 6.44998L33.0813 6.41998C32.9013 6.26998 32.6813 6.19998 32.4613 6.19998C32.2213 6.19998 31.9713 6.28999 31.7813 6.45999H31.7713L30.8213 6.01999L30.7413 5.98001C30.7913 5.89001 30.8513 5.78998 30.9013 5.69998C31.1813 5.21998 31.4713 4.72 31.7013 4.16C32.4113 2.44 31.9413 1.05 30.3213 0.130005C30.1713 0.0400049 30.0013 0 29.8213 0L29.7913 0.0299988ZM4.12127 20.77C4.35127 20.39 4.74127 19.99 5.15127 19.68C5.12127 20.17 5.08127 20.66 5.05127 21.15C4.99127 21.11 4.92127 21.07 4.85127 21.05L4.12127 20.78V20.77ZM35.9713 22.01C35.9713 22.01 35.9413 21.91 35.9713 21.59C36.0013 21.29 36.0213 20.99 36.0213 20.69C36.1913 21.16 36.2713 21.65 36.2313 22.12C36.2113 22.12 36.1913 22.11 36.1813 22.1C36.0213 22.05 35.9713 22.01 35.9713 22V22.01ZM41.7013 23.2C41.8413 22.69 41.8613 22.18 41.7813 21.68C41.7513 21.48 41.7613 21.33 41.8313 21.19C41.9313 21.43 42.0213 21.66 42.0813 21.89C42.2413 22.49 41.9713 22.93 41.7013 23.2ZM9.09127 31.45C9.09127 31.38 9.09127 31.3 9.10127 31.23C9.13127 31.28 9.16127 31.32 9.19127 31.37C9.16127 31.4 9.12127 31.42 9.09127 31.45ZM25.8213 39.07C26.0313 39.01 26.2413 38.95 26.4413 38.93C26.5613 38.91 26.6913 38.91 26.8413 38.91C26.9513 38.91 27.0713 38.91 27.1913 38.92C27.0113 38.99 26.8313 39.05 26.6513 39.11C26.6113 39.12 26.5413 39.14 26.4113 39.14C26.2413 39.14 26.0313 39.11 25.8213 39.08V39.07ZM8.30127 39.73C8.10127 39.64 7.91127 39.5 7.73127 39.32C7.71127 39.3 7.68127 39.27 7.66127 39.24L8.11127 39.58L8.30127 39.72V39.73Z" fill="#231F20"></path><path d="M25.8614 5.65982C25.6514 5.65982 25.4314 5.60982 25.1914 5.49982C25.1914 5.49982 25.1214 5.49982 25.0814 5.49982C24.9814 5.49982 24.8614 5.49981 24.7314 5.45981C24.5814 5.41981 24.4414 5.34982 24.3014 5.27982L24.1714 5.21982C23.9914 5.13982 23.8714 4.94983 23.8814 4.75983C23.8814 4.56983 23.9914 4.30982 24.1614 4.18982C24.1614 4.15982 24.1614 4.12982 24.1614 4.09982C24.2914 3.32982 24.9814 3.18981 25.3114 3.11981L25.4114 3.09982C25.5614 3.06982 25.7214 3.0498 25.9214 3.0498C26.0314 3.0498 26.1514 3.04981 26.2614 3.05981C26.3614 3.05981 26.4614 3.05981 26.5514 3.05981C26.6914 3.05981 26.8314 3.11983 26.9214 3.22983C27.0114 3.33983 27.0614 3.47981 27.0414 3.61981C27.0314 3.72981 27.0214 3.8398 27.0214 3.9498C27.0114 4.2298 26.9914 4.5498 26.8814 4.8598C26.7114 5.3698 26.3314 5.65982 25.8314 5.65982H25.8614Z" fill="#9D7AFF"></path><path d="M25.9311 3.5498C26.1411 3.5498 26.3611 3.56982 26.5711 3.56982C26.5311 3.94982 26.5511 4.3498 26.4311 4.6998C26.3211 5.0098 26.1211 5.15982 25.8511 5.15982C25.7111 5.15982 25.5511 5.1198 25.3811 5.0498C25.2311 4.9798 25.0311 5.01983 24.8611 4.97983C24.6911 4.92983 24.5411 4.83981 24.3811 4.76981C24.3811 4.71981 24.3811 4.66981 24.3811 4.61981L26.0611 4.33981C26.0511 4.24981 26.0311 4.1598 26.0211 4.0798C25.5811 4.1198 25.1411 4.14982 24.6611 4.18982C24.7411 3.70982 25.1811 3.66982 25.5211 3.59982C25.6511 3.56982 25.7811 3.55981 25.9211 3.55981M25.9111 2.55981C25.6811 2.55981 25.4811 2.57981 25.2911 2.61981L25.2011 2.6398C24.8511 2.7098 23.9311 2.8998 23.6911 3.8898C23.5011 4.0698 23.3811 4.3298 23.3711 4.6098V4.67981V4.75983C23.3711 5.15983 23.6011 5.51981 23.9611 5.67981L24.0711 5.72983C24.2111 5.79983 24.3811 5.87982 24.5911 5.93982C24.7711 5.98982 24.9411 5.99982 25.0511 5.99982H25.0711C25.3411 6.10982 25.6011 6.15982 25.8511 6.15982C26.5611 6.15982 27.1311 5.73981 27.3711 5.01981C27.5011 4.64981 27.5211 4.28982 27.5311 3.96982C27.5311 3.88982 27.5311 3.80983 27.5511 3.72983C27.5511 3.67983 27.5611 3.61981 27.5611 3.55981C27.5611 3.00981 27.1111 2.55981 26.5611 2.55981C26.4711 2.55981 26.3811 2.55981 26.2911 2.55981C26.1711 2.55981 26.0411 2.5498 25.9211 2.5498L25.9111 2.55981Z" fill="#231F20"></path><path d="M35.3304 8.77008C35.2204 8.77008 35.1104 8.7301 35.0204 8.6601C34.8104 8.5001 34.7704 8.21008 34.9104 7.99008L36.5504 5.52008C36.4304 5.41008 36.3804 5.24009 36.4204 5.06009C36.4404 4.83009 36.5804 4.70008 36.6904 4.64008C36.9504 4.50008 37.2104 4.38008 37.5404 4.33008C37.5704 4.33008 37.5904 4.33008 37.6104 4.33008C37.7404 4.33008 37.8704 4.3801 37.9604 4.4801C38.0704 4.5901 38.1304 4.7501 38.1004 4.9101C37.8904 6.3101 37.0104 7.23009 36.1604 8.12009C36.0104 8.28009 35.8504 8.44008 35.7004 8.61008C35.6004 8.72008 35.4704 8.77008 35.3304 8.77008Z" fill="#9D7AFF"></path><path d="M37.6105 4.83008C37.3905 6.31008 36.3405 7.17008 35.3305 8.27008C36.0605 7.17008 36.7006 6.20008 37.3506 5.24008C37.3106 5.20008 37.2705 5.16009 37.2205 5.12009C37.1305 5.14009 37.0506 5.16008 36.9606 5.18008C36.9506 5.18008 36.9306 5.1701 36.9106 5.1601C36.9106 5.1401 36.9105 5.09009 36.9305 5.09009C37.1405 4.98009 37.3505 4.87008 37.6105 4.83008ZM37.6105 3.83008C37.6105 3.83008 37.5905 3.83008 37.5805 3.83008C37.5305 3.83008 37.4805 3.83009 37.4305 3.84009C37.0305 3.90009 36.7306 4.05007 36.4506 4.20007C36.1606 4.36007 35.9406 4.69008 35.9106 5.02008C35.8906 5.18008 35.9106 5.35009 35.9606 5.50009L34.7806 7.27008L34.4805 7.72009C34.1905 8.15009 34.2906 8.74009 34.7006 9.06009C34.8806 9.20009 35.1005 9.27008 35.3205 9.27008C35.5905 9.27008 35.8606 9.16007 36.0606 8.95007C36.2106 8.78007 36.3706 8.62009 36.5206 8.47009C37.4106 7.54009 38.3305 6.5801 38.5805 5.0701C38.6005 5.0001 38.6105 4.92009 38.6105 4.84009C38.6105 4.29009 38.1605 3.84009 37.6105 3.84009V3.83008Z" fill="#231F20"></path><path d="M32.9608 43.02C32.7208 43.02 32.5208 42.84 32.4808 42.6L31.9908 39.53C31.9508 39.29 32.1008 39.05 32.3308 38.98C32.3808 38.96 32.4308 38.96 32.4808 38.96C32.6708 38.96 32.8408 39.07 32.9308 39.24C33.3408 40.08 33.7708 41.23 33.4508 42.64C33.4008 42.87 33.2008 43.03 32.9608 43.03H32.9408L32.9608 43.02Z" fill="#9D7AFF"></path><path d="M32.4906 39.4502C32.9606 40.4202 33.2306 41.3802 32.9806 42.5202C32.8106 41.4502 32.6606 40.4702 32.4906 39.4502ZM32.4906 38.4502C32.3906 38.4502 32.2906 38.4702 32.1906 38.5002C31.7206 38.6502 31.4306 39.1202 31.5006 39.6102L31.7206 41.0202L31.9806 42.6702C32.0606 43.1402 32.4606 43.5002 32.9406 43.5102C32.9506 43.5102 32.9606 43.5102 32.9706 43.5102C33.4406 43.5102 33.8406 43.1902 33.9506 42.7302C34.3006 41.1702 33.8306 39.9202 33.3906 39.0102C33.2206 38.6602 32.8706 38.4502 32.4906 38.4502Z" fill="#231F20"></path><path d="M39.3815 36.8196C39.1615 36.8196 38.9815 36.6696 38.9215 36.4596L38.2715 34.2396C38.2115 34.0296 38.2915 33.7996 38.4815 33.6796C38.5615 33.6296 38.6515 33.5996 38.7515 33.5996C38.8715 33.5996 38.9915 33.6396 39.0815 33.7296C40.0015 34.5496 40.2515 35.4196 39.8715 36.4896C39.8015 36.6896 39.6115 36.8196 39.4015 36.8196H39.3915H39.3815Z" fill="#9D7AFF"></path><path d="M38.7519 34.0996C39.5219 34.7796 39.7119 35.4496 39.4019 36.3196C39.1919 35.5996 38.9719 34.8496 38.7519 34.0996ZM38.7519 33.0996C38.5719 33.0996 38.3819 33.1496 38.2219 33.2496C37.8419 33.4896 37.6719 33.9496 37.7919 34.3796L38.0819 35.3596L38.4419 36.5996C38.5619 37.0196 38.9419 37.3096 39.3719 37.3196C39.3719 37.3196 39.3919 37.3196 39.4019 37.3196C39.8219 37.3196 40.2019 37.0496 40.3419 36.6496C40.7919 35.3896 40.4919 34.3096 39.4119 33.3496C39.2219 33.1796 38.9819 33.0996 38.7419 33.0996H38.7519Z" fill="#231F20"></path><path d="M42.44 12.4797C42.36 12.4797 42.27 12.4597 42.19 12.4097C42.19 12.4097 42.15 12.3897 42.15 12.3797C41.92 12.2497 41.77 11.9197 41.89 11.6797L42.17 11.1197L42.14 11.0997C41.97 10.9797 41.88 10.7697 41.93 10.5697C41.98 10.3697 42.15 10.2197 42.36 10.1897C42.45 10.1897 42.53 10.1797 42.61 10.1797C42.97 10.1797 43.23 10.2997 43.38 10.5297C43.53 10.7697 43.53 11.0597 43.38 11.3997C43.28 11.6197 43.15 11.8197 43.02 12.0197L42.87 12.2397C42.78 12.3897 42.61 12.4797 42.45 12.4797H42.44Z" fill="#9D7AFF"></path><path d="M42.6205 10.6797C42.9905 10.6797 43.0805 10.8397 42.9305 11.1897C42.8005 11.4697 42.6105 11.7097 42.4505 11.9697C42.4205 11.9497 42.3805 11.9297 42.3505 11.9097C42.5105 11.5997 42.6605 11.2897 42.8305 10.9597C42.7005 10.8697 42.5805 10.7897 42.4305 10.6897C42.5005 10.6897 42.5605 10.6797 42.6205 10.6797ZM42.6205 9.67969C42.5305 9.67969 42.4305 9.67968 42.3205 9.69968C41.9005 9.73968 41.5606 10.0397 41.4606 10.4497C41.3906 10.7197 41.4405 10.9897 41.5805 11.2197L41.4705 11.4397C41.2305 11.9097 41.3905 12.5097 41.8405 12.7797L41.9005 12.8097L41.9505 12.8397C42.1105 12.9297 42.2805 12.9797 42.4505 12.9797C42.7805 12.9797 43.1105 12.8097 43.3005 12.5097C43.3405 12.4397 43.3905 12.3697 43.4405 12.2997C43.5705 12.0997 43.7205 11.8797 43.8405 11.6197C44.1305 10.9897 43.9905 10.5397 43.8205 10.2697C43.6505 10.0097 43.3105 9.6897 42.6305 9.6897L42.6205 9.67969Z" fill="#231F20"></path></svg> 