<?xml version="1.0" encoding="UTF-8"?> <svg xmlns="http://www.w3.org/2000/svg" width="182" height="161" viewBox="0 0 182 161" fill="none"><mask id="mask0_1571_2645" style="mask-type:luminance" maskUnits="userSpaceOnUse" x="2" y="2" width="179" height="158"><path d="M2 2.0001H180.604V159.129H2V2.0001Z" fill="white"></path></mask><g mask="url(#mask0_1571_2645)"><path d="M158.373 34.9301C178.857 53.2108 186.583 79.8127 175.619 94.3523C174.291 96.1182 172.74 97.6267 171.017 98.8828L170.593 98.6097C180.049 83.8044 172.18 58.323 152.356 40.6314C135.066 25.2014 114.215 20.6419 101.543 28.3317L101.435 28.1596C102.591 26.6296 103.905 25.294 105.355 24.1529C117.698 14.4234 140.042 18.5741 158.373 34.9301Z" fill="#9D7AF8"></path><path d="M152.356 40.6282C172.18 58.3197 180.049 83.802 170.594 98.6073C170.292 99.103 169.954 99.5837 169.602 100.05C158.638 114.598 133.149 111.567 112.664 93.2866C92.1724 75.0067 84.4545 48.3974 95.4178 33.8577C95.6338 33.5698 95.8564 33.2901 96.0856 33.017C97.6586 31.1287 99.489 29.5639 101.543 28.3285C114.216 20.6387 135.067 25.1981 152.356 40.6282ZM153.778 83.7805C154.553 76.4283 149.082 65.916 139.525 57.6594C132.144 51.2836 124.045 47.7296 117.719 47.5285C113.785 47.4061 110.532 48.5761 108.572 51.1761C103.453 57.9465 109.017 71.8325 121 82.1793C132.984 92.5328 146.842 95.4405 151.954 88.6701C152.988 87.299 153.584 85.6399 153.778 83.7805Z" fill="#BEFD78"></path><path d="M139.524 57.6609C149.081 65.9183 154.552 76.4298 153.777 83.782C148.55 90.3588 136.43 87.8598 125.796 78.7343C115.112 69.5584 110.646 56.677 115.823 49.9636C116.369 49.2528 117.008 48.643 117.711 48.1258L117.719 47.53C124.044 47.7311 132.143 51.2851 139.524 57.6609Z" fill="#BEFD78"></path><path d="M108.572 51.1775C110.532 48.5784 113.785 47.4083 117.72 47.53L117.712 48.1258C117.009 48.6429 116.369 49.2536 115.824 49.9644C110.647 56.6778 115.113 69.5584 125.797 78.7343C136.431 87.8606 148.551 90.3588 153.777 83.7819C153.584 85.6421 152.988 87.3004 151.955 88.6715C146.842 95.4428 132.985 92.535 121.001 82.1808C109.017 71.8348 103.453 57.948 108.572 51.1775Z" fill="#231F20"></path><path d="M89.6957 81.0382C113.089 98.8373 122.788 125.569 111.358 140.74C110.037 142.492 108.493 144.014 106.763 145.314L106.691 145.278C114.266 129.74 104.343 105.724 82.7598 89.2956C62.2316 73.6711 37.9707 70.1245 24.6159 79.7456L24.5439 79.6521C25.1397 78.4746 25.8365 77.3476 26.64 76.2851C27.6602 74.928 28.8162 73.7141 30.0864 72.645C43.0679 61.6089 68.3922 64.8253 89.6957 81.0382Z" fill="#BEFD78"></path><path d="M82.7587 89.2976C104.342 105.726 114.265 129.743 106.69 145.281C106.066 146.587 105.304 147.829 104.421 149.007C92.9905 164.179 64.7585 162.053 41.3656 144.254C17.9727 126.455 8.27294 99.723 19.7038 84.5445C19.7824 84.4369 19.8618 84.336 19.9479 84.2284C21.29 82.5056 22.8556 81.012 24.6149 79.7484C37.9696 70.1265 62.2314 73.6739 82.7587 89.2976Z" fill="#9D7AF8"></path><path d="M99.5828 24.3684V24.663C99.0151 25.0006 98.4913 25.4019 98.0246 25.8686C96.8612 27.0321 96.0933 28.5762 95.8128 30.1914C93.9394 29.3441 93.2137 26.6299 94.435 24.9791C95.6771 23.2985 98.2398 22.7747 99.5828 24.3684Z" fill="#231F20"></path><path d="M101.543 28.3291C99.4889 29.5637 97.6585 31.1293 96.0863 33.0176L95.7843 32.766C95.6477 31.9121 95.6626 31.0432 95.8132 30.1884C96.0929 28.5732 96.8616 27.0291 98.0242 25.8665C98.4909 25.3998 99.0156 24.9976 99.5824 24.66C101.176 23.7192 103.093 23.3245 104.925 23.619L105.356 24.1503C103.905 25.2922 102.591 26.6278 101.435 28.157L101.543 28.3291Z" fill="#94DAF3"></path><path d="M29.8344 72.3439L30.086 72.6451C28.815 73.7151 27.659 74.929 26.6395 76.286C25.8352 77.3485 25.1385 78.4756 24.5427 79.6531L24.6147 79.7466C22.8554 81.0101 21.2898 82.5037 19.9477 84.2266L19.8401 84.1405C18.0089 81.7574 17.8649 78.2315 19.409 75.6679C19.524 75.4602 19.6605 75.2666 19.8037 75.0721C20.8811 73.6439 22.9059 72.6021 25.0094 72.1503C26.7181 71.7837 28.4773 71.8127 29.8344 72.3439Z" fill="#94DAF3"></path><path d="M21.9227 54.4598C24.78 62.5377 23.3874 67.9436 20.6161 70.6577C20.5946 70.6652 20.5731 70.6792 20.5516 70.6867C20.2065 70.8663 19.8474 71.1608 19.5462 71.5415C16.5664 73.5514 12.6028 73.0276 10.3057 69.9544C1.85463 58.689 -5.95762 32.7971 17.988 15.5441L18.1535 15.7163C12.7898 21.0006 11.2027 26.1922 11.5544 31.0884C12.2155 40.3793 19.8474 48.6012 21.9227 54.4598Z" fill="#94DAF3"></path><path d="M19.2662 75.5913C18.2534 74.1126 18.7275 72.5396 19.5459 71.5416C19.9199 71.2834 20.2782 70.9963 20.6158 70.6587C21.8728 70.048 24.0482 70.7952 24.9461 71.8577L25.0106 72.1523C22.9063 72.6041 20.8815 73.6459 19.8049 75.0741C19.6609 75.2686 19.5244 75.4622 19.4094 75.6699L19.2662 75.5913Z" fill="#231F20"></path><path d="M80.6193 28.0006C61.118 18.2503 15.4096 2.22451 11.5618 31.0879H11.5544C11.2027 26.1909 12.789 21.0001 18.1527 15.7158C19.7613 14.1212 21.7068 12.52 24.0403 10.9189C46.6934 -4.61877 78.961 3.05695 91.648 11.9822C101.255 18.7452 91.2963 33.3353 80.6193 28.0006Z" fill="#94DAF3"></path></g><path d="M24.6167 79.7462C37.9714 70.1251 62.2332 73.6717 82.7605 89.2953C104.344 105.723 114.267 129.741 106.692 145.279C106.067 146.585 105.306 147.827 104.423 149.005C92.9923 164.177 64.7603 162.052 41.3674 144.252C17.9753 126.453 8.27475 99.7208 19.7056 84.5423C19.7842 84.4347 19.8636 84.3346 19.9497 84.2262C21.2927 82.5034 22.8575 81.0098 24.6167 79.7462Z" stroke="#231F20" stroke-width="2.31333" stroke-miterlimit="10" stroke-linecap="round" stroke-linejoin="round"></path><path d="M101.544 28.3308C114.217 20.641 135.068 25.2004 152.357 40.6305C172.181 58.322 180.051 83.8043 170.595 98.6096C170.293 99.1045 169.956 99.586 169.604 100.053C158.641 114.599 133.151 111.57 112.667 93.2889C92.1748 75.0082 84.456 48.3989 95.4201 33.8592C95.6353 33.5721 95.8579 33.2924 96.0879 33.0193C97.6601 31.131 99.4905 29.5654 101.544 28.3308Z" stroke="#231F20" stroke-width="2.31333" stroke-miterlimit="10" stroke-linecap="round" stroke-linejoin="round"></path><path d="M101.437 28.1568C102.593 26.6276 103.907 25.2921 105.357 24.1502C117.699 14.4215 140.044 18.5713 158.375 34.9273C178.859 53.208 186.585 79.8099 175.621 94.3496C174.293 96.1162 172.741 97.6239 171.019 98.8809" stroke="#231F20" stroke-width="2.31333" stroke-miterlimit="10" stroke-linecap="round" stroke-linejoin="round"></path><path d="M24.5449 79.653C25.1407 78.4755 25.8374 77.3484 26.6418 76.2851C27.6612 74.9289 28.8172 73.715 30.0882 72.645C43.0698 61.6097 68.3932 64.8262 89.6967 81.039C113.09 98.8381 122.79 125.569 111.359 140.741C110.038 142.493 108.495 144.015 106.763 145.314" stroke="#231F20" stroke-width="2.31333" stroke-miterlimit="10" stroke-linecap="round" stroke-linejoin="round"></path><path d="M117.721 47.5302C124.046 47.7313 132.145 51.2853 139.526 57.661C149.083 65.9185 154.554 76.43 153.779 83.7822C153.585 85.6423 152.989 87.3006 151.955 88.6717C146.843 95.443 132.985 92.5344 121.002 82.181C109.018 71.835 103.454 57.9482 108.573 51.1777C110.533 48.5786 113.786 47.4085 117.721 47.5302Z" stroke="#231F20" stroke-width="2.31333" stroke-miterlimit="10" stroke-linecap="round" stroke-linejoin="round"></path><path d="M153.866 83.6722C153.837 83.7078 153.809 83.7442 153.78 83.7798C148.553 90.3566 136.433 87.8585 125.799 78.7322C115.115 69.5562 110.649 56.6748 115.826 49.9615C116.372 49.2507 117.011 48.6408 117.714 48.1236" stroke="#231F20" stroke-width="2.31333" stroke-miterlimit="10" stroke-linecap="round" stroke-linejoin="round"></path><path d="M19.8427 84.1406C18.0115 81.7567 17.8683 78.2316 19.4116 75.668C19.5266 75.4603 19.6631 75.2659 19.8071 75.0723C20.8837 73.6432 22.9085 72.6022 25.012 72.1496C26.7215 71.7838 28.4799 71.8128 29.837 72.344" stroke="#231F20" stroke-width="2.31333" stroke-miterlimit="10" stroke-linecap="round" stroke-linejoin="round"></path><path d="M95.7862 32.7676C95.6497 31.9128 95.6646 31.0448 95.8152 30.19C96.0949 28.5747 96.8636 27.0306 98.0262 25.8672C98.4929 25.4005 99.0175 24.9984 99.5843 24.6616C101.178 23.7207 103.095 23.326 104.927 23.6198" stroke="#231F20" stroke-width="2.31333" stroke-miterlimit="10" stroke-linecap="round" stroke-linejoin="round"></path><path d="M95.8787 30.2188C95.8572 30.2113 95.8357 30.1972 95.8142 30.1898C93.9399 29.3424 93.2151 26.6283 94.4356 24.9775C95.6776 23.2969 98.2412 22.7731 99.5834 24.3668" stroke="#231F20" stroke-width="2.31333" stroke-miterlimit="10" stroke-linecap="round" stroke-linejoin="round"></path><path d="M19.2672 75.5898C18.2544 74.1111 18.7285 72.5381 19.5469 71.5401C19.8489 71.1595 20.208 70.8658 20.5523 70.6862C20.5738 70.6787 20.5953 70.6647 20.6168 70.6572C21.8738 70.0465 24.0492 70.7938 24.947 71.8562" stroke="#231F20" stroke-width="2.31333" stroke-miterlimit="10" stroke-linecap="round" stroke-linejoin="round"></path><path d="M11.5638 31.0888C15.4124 2.22458 61.1208 18.2512 80.6213 28.0015C91.2983 33.3362 101.257 18.7461 91.6499 11.9822C78.963 3.05786 46.6962 -4.61786 24.043 10.9198C21.7095 12.5209 19.7633 14.1221 18.1547 15.7167C12.7918 21.001 11.2046 26.1918 11.5563 31.0888C12.2175 40.3798 19.8493 48.6008 21.9247 54.4602C24.782 62.5372 23.3893 67.944 20.6181 70.6581C20.2805 70.9958 19.9213 71.2829 19.5481 71.5411C16.5684 73.5518 12.6047 73.0272 10.3077 69.9548C1.85658 58.6886 -5.95567 32.7976 17.99 15.5437" stroke="#231F20" stroke-width="2.31333" stroke-miterlimit="10" stroke-linecap="round" stroke-linejoin="round"></path><path d="M21.3502 65.3828C25.2708 49.6996 -0.583851 33.941 15.1971 18.5118C21.5794 12.2709 52.4139 -9.64909 90.3225 13.1489" stroke="white" stroke-width="1.15733" stroke-miterlimit="10"></path><path d="M87.941 158.488C114.151 152.198 105.081 124.972 96.4831 112.297C90.33 103.228 83.1888 96.5298 74.1709 90.3021" stroke="#231F20" stroke-width="2.31333" stroke-miterlimit="10" stroke-linecap="round" stroke-linejoin="round"></path><path d="M23.3277 88.441C26.8064 83.726 32.9496 82.1406 38.5202 81.8137C44.7048 81.4521 50.9904 82.4103 56.9193 84.1497C59.5565 84.9234 62.173 85.8576 64.6025 87.1568C65.4167 87.592 66.1432 86.3524 65.3273 85.9164C60.2632 83.2097 54.4311 81.7285 48.781 80.9084C42.5426 80.0032 35.7465 79.8186 29.7622 82.095C26.7162 83.2535 24.0335 85.0789 22.0881 87.7161C21.5387 88.4609 22.784 89.1775 23.3277 88.441Z" fill="white"></path><path d="M102.453 30.1173C115.298 24.2033 130.115 27.8715 141.566 35.1948C147.409 38.9317 152.252 43.7848 156.766 49.012C161.353 54.322 165.497 60.1193 168.349 66.558C171.464 73.5899 172.703 81.302 171.485 88.9248C171.341 89.8284 172.725 90.2182 172.871 89.3063C173.978 82.3678 173.23 75.3491 170.785 68.7657C168.278 62.0134 164.294 55.9273 159.768 50.3633C155.206 44.7571 150.193 39.4124 144.245 35.261C138.469 31.2303 131.906 28.157 125.005 26.6692C117.179 24.9828 109.044 25.5091 101.728 28.8778C100.89 29.2634 101.618 30.5013 102.453 30.1173Z" fill="white"></path></svg> 