<?xml version="1.0" encoding="UTF-8"?> <svg xmlns="http://www.w3.org/2000/svg" width="60" height="55" viewBox="0 0 60 55" fill="none"><path d="M27.47 53.94C42.089 53.94 53.94 42.089 53.94 27.47C53.94 12.851 42.089 1 27.47 1C12.851 1 1 12.851 1 27.47C1 42.089 12.851 53.94 27.47 53.94Z" fill="#9D7AFF" stroke="#231F20" stroke-miterlimit="10"></path><path d="M6.13055 10.4797C6.12055 10.3997 6.13055 10.3097 6.06055 10.2497C6.09055 9.24972 6.32055 8.86972 7.11055 8.49972C10.2005 8.63972 13.5705 7.60972 16.4905 8.87972C16.4905 8.88972 16.5105 8.89972 16.5305 8.89972C18.7305 10.0697 19.3105 12.5597 20.3405 14.6297C21.9505 18.0797 23.4205 21.6497 25.4305 24.8597C25.9205 26.2297 27.8805 26.4397 28.3005 24.9197C28.4805 21.4497 28.5005 17.9597 28.6205 14.4797C29.0805 12.2597 27.3105 11.7197 25.8305 10.6897C24.6305 9.81972 24.9605 7.70972 26.6205 7.78972C36.6305 8.13972 38.7805 3.97972 37.6905 15.9497C37.6005 17.5797 37.5905 19.2297 37.5705 20.8597C37.6005 21.5097 37.4405 22.3197 37.9205 22.8197C38.9905 24.4097 40.8605 23.0897 41.3805 21.7097C43.2305 18.7497 44.9405 15.6697 46.4405 12.5197C47.5405 10.8197 47.4805 8.23972 49.3905 7.15972C51.1405 6.60972 53.0105 6.87972 54.8205 6.70972C59.4305 6.14972 58.3405 9.53972 56.7505 12.3097C56.7105 12.3197 56.6905 12.3397 56.7005 12.3797C54.5205 16.7197 52.2905 21.0397 49.9505 25.3097C48.8605 27.4397 51.3905 29.0097 52.4905 30.5397C52.7505 30.9297 53.0605 31.2897 53.4005 31.6197C61.3205 40.9297 62.2105 41.2897 49.2105 40.9497C48.6605 40.7697 48.1105 40.5897 47.6105 40.2897C46.4705 39.6197 45.7405 38.4397 44.8105 37.5197C44.2705 36.8197 43.6205 36.1797 43.0405 35.4997C43.0405 35.4397 43.0005 35.4297 42.9505 35.4297C41.7005 34.1297 39.8205 30.5997 37.8005 32.6197C37.0105 34.0497 37.5005 35.9497 37.3305 37.5497C37.1505 38.7497 37.6105 40.2097 36.6105 41.1297C26.8905 44.7597 18.4105 35.6897 14.1005 27.8497C14.1005 27.7497 14.0605 27.6697 13.9805 27.6197C10.9305 22.1197 8.41055 16.3297 6.13055 10.4997V10.4797Z" fill="white" stroke="#231F20" stroke-width="1.01" stroke-linecap="round" stroke-linejoin="round"></path></svg> 