<?xml version="1.0" encoding="UTF-8"?> <svg xmlns="http://www.w3.org/2000/svg" width="99" height="78" viewBox="0 0 99 78" fill="none"><path d="M97.9816 20.7393C98.444 21.7597 97.8487 22.9131 97.2694 23.8697C92.082 32.4373 87.2774 40.7444 82.2495 49.2057H82.2442C80.9793 51.3316 79.7037 53.4629 78.4015 55.6207L78.444 55.6952C77.413 56.2532 76.3234 56.7634 75.202 57.2365L75 56.7634C81.8509 45.7564 88.7709 34.2178 95.6111 23.216C96.504 21.781 97.3491 19.7401 95.1381 19.1076L95.1647 19.0332C95.3401 19.0864 95.5048 19.1395 95.6696 19.1926C96.5784 19.485 97.5989 19.8676 97.9922 20.7446L97.9816 20.7393Z" fill="#3A4A4A"></path><path d="M95.1291 19.1075C97.3401 19.7399 96.4951 21.7809 95.6022 23.2159C88.7566 34.2123 81.8419 45.7562 74.991 56.7633L75.193 57.2363C74.1991 57.6562 73.168 58.0442 72.1104 58.4109L71.9987 57.6562C76.7662 50.0613 81.4008 42.174 86.1417 34.1539C88.629 29.9551 91.1323 25.7245 93.7047 21.4726L66.1949 13.7235L56.0381 29.1738L55.1133 28.5679C55.0815 28.5892 55.0496 28.6105 55.0177 28.6264L54.9805 28.5679L55.1931 28.079C55.4375 27.3349 55.5704 26.543 55.5864 25.7564C57.3934 22.3336 61.1192 17.1622 62.7136 14.6696C64.3187 12.1503 65.6421 11.2362 68.5653 11.8261C72.4292 12.5968 87.7999 16.7105 95.1557 19.0224L95.1291 19.0968V19.1075Z" fill="#546B6B"></path><path d="M66.1948 13.7275L93.7047 21.4766C91.1323 25.7285 88.6237 29.9591 86.1416 34.1579L85.7536 33.9293C84.7863 34.4289 83.7924 34.9339 82.7135 35.0402C81.6346 35.1518 80.4281 34.7691 79.8753 33.8337C79.3545 32.9674 79.498 31.8247 78.9718 30.9637C78.435 30.0761 77.3029 29.6987 76.2719 29.7891C75.2461 29.8847 74.2947 30.3631 73.4018 30.8786C70.941 32.2871 68.6662 33.9984 66.62 35.9596C65.2275 37.299 63.5268 38.8881 61.6559 38.3938C59.9551 37.9368 59.1207 35.9596 57.5528 35.1677C56.3463 34.5618 54.8582 34.7478 53.6517 35.3378C52.4399 35.9331 51.4407 36.8738 50.4574 37.8039L50.4043 37.7667L56.0381 29.1832L66.1948 13.7329V13.7275Z" fill="#92E053"></path><path d="M76.8621 64.6983L76.9046 64.7781C75.9161 66.516 74.3375 67.882 72.5039 68.6632C66.3333 74.2438 53.2481 77.2468 48.6347 77.0607C41.5553 76.7844 37.1812 77.0607 30.5216 74.6584C23.8567 72.2561 15.05 66.2131 11.1488 58.4109L11.2817 58.2567C11.0372 58.0548 10.7874 57.8528 10.5483 57.6349C9.80949 57.4489 9.63941 57.2256 9.08135 54.2706C8.73588 52.4316 8.991 51.2783 10.5164 50.3323C15.2732 53.1279 20.9336 56.4497 25.1589 58.9423L25.1323 59.0168C27.4549 59.7396 29.9954 60.3402 32.6901 60.8132C33.7637 61.0045 34.8745 61.1746 35.9906 61.3128C44.6752 62.4661 54.529 62.3332 63.4261 60.659C64.7814 60.4039 66.1154 60.1169 67.4176 59.7874C68.6506 59.4791 69.8571 59.1337 71.0264 58.7616H71.0317C71.3984 58.65 71.7545 58.5278 72.1053 58.4055C73.163 58.0388 74.194 57.6455 75.1879 57.231C76.3147 56.7579 77.3989 56.2424 78.43 55.6896L78.3875 55.6152C79.6896 53.4574 80.9705 51.3261 82.2302 49.2002H82.2355L82.4481 49.3331C84.7069 49.9336 86.6734 52.7877 86.3864 55.0997C86.0994 57.4223 84.4783 57.5552 82.5916 58.937C82.565 58.9583 82.5384 58.9742 82.5172 58.9902C81.7093 61.3553 79.6205 63.258 76.8515 64.693L76.8621 64.6983Z" fill="#A67D52"></path><path d="M85.7562 33.9301L86.1442 34.1587C81.4086 42.1788 76.7687 50.0661 72.0012 57.661L72.1128 58.4157C71.7567 58.538 71.406 58.6549 71.0392 58.7718H71.0339C62.0411 54.9983 53.0483 51.2141 44.0449 47.4405L50.4015 37.7728L50.4547 37.81C51.4326 36.8799 52.4318 35.9391 53.6489 35.3439C54.8554 34.7539 56.3436 34.5679 57.5501 35.1738C59.1179 35.9657 59.9524 37.9428 61.6531 38.3999C63.524 38.8942 65.2248 37.3051 66.6173 35.9657C68.6582 34.0045 70.9383 32.2985 73.3991 30.8847C74.292 30.3745 75.2433 29.8908 76.2691 29.7951C77.3002 29.7048 78.4322 30.0875 78.9691 30.9697C79.4952 31.8307 79.357 32.9734 79.8726 33.8398C80.4306 34.7752 81.6318 35.1632 82.7107 35.0462C83.7897 34.9399 84.7835 34.435 85.7508 33.9354L85.7562 33.9301Z" fill="#7B4CFF"></path><path d="M44.0484 47.4307C53.0465 51.2042 62.0392 54.9884 71.0374 58.762C69.8681 59.134 68.6616 59.4742 67.4285 59.7877L67.4073 59.7133C59.3871 56.147 51.367 52.5648 43.3574 48.9986L44.0537 47.4307H44.0484Z" fill="#546B6B"></path><path d="M67.4003 59.7143L67.4216 59.7887C66.1194 60.1182 64.7854 60.4106 63.4301 60.6604L63.3504 60.2139C57.7644 57.9604 50.5947 54.5589 45.0087 52.3107C43.0209 51.5082 42.7233 50.9023 42.1652 48.8348C42.1546 48.7923 42.144 48.7444 42.1387 48.7019L42.516 48.6328C42.7924 48.7604 43.0741 48.8773 43.3505 49.0049C51.3653 52.5711 59.3855 56.1534 67.4003 59.7196V59.7143Z" fill="#3A4A4A"></path><path d="M63.3503 60.2131L63.4301 60.6595C54.5329 62.3284 44.6791 62.4613 35.9946 61.3186C35.006 58.3263 33.4381 53.6333 32.6622 51.3213C32.3645 50.4231 31.7693 49.6578 30.972 49.1369C30.9083 49.0944 30.8445 49.0572 30.7754 49.0094L30.9295 48.7808C31.5301 48.7277 32.1254 48.6852 32.726 48.6373C35.7661 48.3981 38.8115 48.1483 41.8463 47.9092H42.0748C42.0642 48.1856 42.0748 48.446 42.1386 48.6958C42.1439 48.7383 42.1493 48.7861 42.1652 48.8287C42.7286 50.8961 43.0262 51.502 45.0087 52.3046C50.5946 54.5581 57.7644 57.9596 63.3503 60.2078V60.2131Z" fill="#5E472E"></path><path d="M55.4009 9.01938C56.0653 9.23197 56.5914 10.0505 56.23 10.6564C55.9909 11.0815 55.4328 11.225 54.9545 11.1294C54.4814 11.039 53.8915 10.6564 53.4929 10.3747L53.4025 10.4278C53.1793 10.0079 52.9401 9.60933 52.6797 9.22134C53.3494 9.01938 54.7312 8.80147 55.4009 9.01938Z" fill="#FE4052"></path><path d="M52.4013 30.1372L51.8911 29.813C53.0019 29.6536 54.0808 29.255 55.0215 28.6278C55.0534 28.6172 55.0853 28.5906 55.1172 28.5693L56.042 29.1752L50.4082 37.7587L44.0516 47.4265L43.3553 48.9944C43.079 48.8668 42.7973 48.7499 42.5209 48.6223L42.1435 48.6914C42.0798 48.4469 42.0691 48.1865 42.0798 47.9155C42.1435 46.6452 42.9036 45.1836 43.8018 43.7114C44.0144 43.3553 44.2429 43.0045 44.4662 42.6484C47.1077 38.4762 49.7598 34.2988 52.4119 30.1319L52.4013 30.1372Z" fill="#546B6B"></path><path d="M55.5863 25.7689C55.5756 26.5555 55.4428 27.3421 55.193 28.0915L54.9804 28.5805C51.8446 29.2023 48.9745 27.5547 47.1303 24.9451L47.0293 24.9079C47.2259 24.3126 47.5023 23.7493 47.8531 23.2231C48.1082 22.8457 48.3952 22.4896 48.7247 22.1654C49.793 21.0759 51.2174 20.3212 52.7269 20.0661L52.7481 20.0342C53.1574 20.2733 53.5241 20.571 53.843 20.9005C53.9759 21.0334 54.0981 21.1716 54.2044 21.3204C55.177 22.5428 55.6341 24.1479 55.5916 25.7742L55.5863 25.7689Z" fill="#FF8C00"></path><path d="M46.7359 26.087C46.7997 25.6831 46.9007 25.2845 47.0336 24.8965L47.1346 24.9337C48.9735 27.5433 51.8489 29.1909 54.9847 28.5691L55.0219 28.6275C54.0811 29.2547 53.0022 29.6533 51.8914 29.8127C50.2172 30.0519 48.458 29.7702 46.9751 28.9411C46.9485 28.9305 46.9326 28.9145 46.906 28.9039L46.805 28.9252C46.5924 28.0004 46.5712 27.0277 46.7359 26.0923V26.087Z" fill="#FF8C00"></path><path d="M47.0004 18.2094C47.2608 17.4866 47.3565 16.7053 47.2289 15.9453C46.9685 14.3668 45.6982 12.9584 44.1197 12.6926C42.6847 12.4588 41.2178 13.1497 40.1654 14.1595C39.0068 15.2703 38.2255 16.886 38.4434 18.4805C38.6719 20.075 40.0751 21.5153 41.7014 21.4728H41.7439C42.7059 21.4675 43.4979 21.4303 44.2207 21.1592C44.699 20.9838 45.1561 20.7021 45.6238 20.2716C46.235 19.7082 46.7134 18.996 46.9951 18.2094H47.0004ZM13.6601 27.4626C14.165 27.2181 14.4998 26.7239 14.8187 26.2561C14.3882 26.6229 13.9524 26.9949 13.6601 27.4626ZM27.6648 27.2235C25.5601 32.4373 21.6112 36.9125 16.6524 39.5646L16.5142 39.7772C12.6715 37.2898 8.86074 34.8397 5.48047 32.6446C6.90486 28.7276 9.11585 25.1135 11.9381 22.0468C13.3306 20.5267 14.8719 19.1449 16.5408 17.9278C21.574 14.2605 27.5 12.278 33.7238 12.0548L33.745 12.0655C34.6539 10.4019 36.0198 8.98283 37.6674 8.0421C40.0326 6.68681 42.9398 6.31477 45.5654 7.0429C45.2358 6.5061 44.699 6.09686 44.0931 5.91084C46.0862 5.36872 48.3822 6.20847 49.5409 7.90923C49.5196 7.16515 49.3974 6.41575 49.1688 5.69824C50.5667 6.63897 51.7572 7.85076 52.6926 9.22731C52.953 9.62062 53.1922 10.0192 53.4154 10.4338C55.1853 13.7237 55.6211 17.7205 54.2924 21.2549L54.218 21.3186C54.1117 21.1751 53.9895 21.0316 53.8566 20.8988L53.8991 20.8616C54.0532 19.687 54.3456 18.5709 53.4101 17.8374C52.5119 17.1305 50.7899 18.1297 50.0192 18.9748C49.2486 19.8198 48.9509 20.9838 48.6746 22.0999L48.7383 22.1637C48.4088 22.4879 48.1165 22.8387 47.8667 23.2214C47.5212 23.7475 47.2395 24.3109 47.0429 24.9062C46.91 25.2942 46.809 25.6928 46.7453 26.0967C43.1046 25.0337 39.0865 25.326 35.6318 26.8992L35.4299 27.1331C34.6326 26.4741 33.9311 25.6981 33.3571 24.8371L33.3464 24.8477C31.5819 25.9107 29.6632 26.7132 27.6754 27.2235H27.6648ZM44.4173 10.285C45.0711 10.1734 45.6132 9.38145 45.2358 8.84464C45.0339 8.55233 44.6671 8.44603 44.327 8.36631C43.7317 8.21217 43.1046 8.06867 42.5093 8.20686C41.914 8.34505 41.356 8.87122 41.4038 9.47711C41.4569 10.0883 42.3392 10.5029 42.7325 10.0352L43.1311 10.0564C43.5404 10.2425 43.9762 10.3647 44.4227 10.2903L44.4173 10.285Z" fill="#FE4052"></path><path d="M52.7473 20.0264L52.726 20.0583C51.2166 20.3134 49.7922 21.0681 48.7239 22.1577L48.6602 22.0939C48.9365 20.9831 49.2342 19.8191 50.0048 18.9688C50.7755 18.1184 52.4975 17.1245 53.3957 17.8314C54.3311 18.5648 54.0335 19.6756 53.8847 20.8555L53.8422 20.8927C53.5286 20.5632 53.1566 20.2656 52.7473 20.0264Z" fill="#FF8C00"></path><path d="M47.2244 15.9463C47.3519 16.7063 47.2563 17.4876 46.9958 18.2104C46.9374 17.1155 45.9594 16.313 44.8592 16.3555C43.7591 16.4086 42.7917 17.36 42.6642 18.4549C42.5366 19.5497 43.2169 20.6659 44.2161 21.1282V21.1548C43.4933 21.4259 42.7067 21.4631 41.7447 21.4684H41.7022C40.0758 21.5109 38.6727 20.0706 38.4442 18.4761C38.2209 16.8817 39.0075 15.2713 40.1662 14.1551C41.2185 13.1453 42.6854 12.4544 44.1205 12.6882C45.699 12.954 46.9746 14.3571 47.2297 15.9409L47.2244 15.9463Z" fill="white"></path><path d="M46.8058 28.9177L46.9068 28.8965C46.9068 28.8965 46.9493 28.9231 46.9759 28.9337L46.9068 29.0612C46.0405 29.3695 44.7702 29.6034 43.383 29.6565C42.6815 29.6884 41.9533 29.6618 41.2305 29.5821C40.5024 29.5077 39.7849 29.3695 39.1045 29.1516C37.7599 28.7264 36.5003 28.0302 35.416 27.1213L35.618 26.8875C39.0727 25.3143 43.0854 25.0219 46.7314 26.0849C46.5666 27.0203 46.5879 27.993 46.8005 28.9177H46.8058Z" fill="white"></path><path d="M47.0032 18.2086C46.7162 18.9952 46.2432 19.7074 45.632 20.2708C45.1643 20.7013 44.7072 20.9777 44.2289 21.1584V21.1318C43.2244 20.6694 42.544 19.5533 42.6716 18.4584C42.7992 17.3635 43.7665 16.4069 44.8667 16.359C45.9668 16.3165 46.9448 17.1191 47.0032 18.2139V18.2086Z" fill="black"></path><path d="M43.1203 10.046L42.7217 10.0247C42.3283 10.4924 41.4461 10.0832 41.3929 9.46666C41.3504 8.86077 41.9032 8.3346 42.4984 8.19641C43.0937 8.05822 43.7208 8.20172 44.3161 8.35586C44.6563 8.43558 45.023 8.54719 45.225 8.83419C45.6023 9.371 45.0602 10.1629 44.4065 10.2745C43.9653 10.3489 43.5295 10.2214 43.1149 10.0407L43.1203 10.046Z" fill="#FE4052"></path><path d="M43.4209 43.5723L43.7929 43.7104C42.8947 45.1827 42.1346 46.6443 42.0709 47.9145H41.8423C38.8075 48.1484 35.7621 48.3928 32.722 48.6373L32.6582 47.8454C33.3545 47.8454 33.8115 47.112 34.056 46.4529C34.1942 46.0649 34.3164 45.677 34.4174 45.2783C34.2952 46.1393 34.2155 47.0535 35.0499 47.3299C35.4964 47.4734 36.0119 47.2555 36.3361 46.8994C36.6603 46.5539 36.8357 46.0915 37.0058 45.6451C37.2184 45.0764 37.4363 44.5024 37.5957 43.9124L37.8881 43.9815C39.7323 43.8433 41.5766 43.7105 43.4209 43.5723Z" fill="#A67D52"></path><path d="M43.382 29.6633V29.7961C42.3562 33.5006 40.1612 37.6143 37.3018 40.1867L37.1955 40.2558C36.9988 39.9688 36.7597 39.7243 36.4727 39.5436C39.0397 36.8011 40.7937 33.4368 41.2135 29.7005L41.2242 29.5889C41.947 29.6686 42.6698 29.6952 43.3767 29.6633H43.382Z" fill="#FE4052"></path><path d="M41.2304 29.583L41.2198 29.6946C40.7946 33.4256 39.046 36.7899 36.4789 39.5377C36.245 39.3783 35.9846 39.2667 35.7029 39.2082C34.9323 39.0541 34.135 39.3304 33.4281 39.6812C33.29 39.7503 33.1571 39.8194 33.0189 39.8938C31.9453 40.4838 30.9674 41.2651 30.1489 42.1845C29.426 42.9871 28.8308 43.8906 28.3843 44.8739V44.9111C27.6987 44.9748 27.0131 45.0439 26.3221 45.113L26.2956 44.8845C26.0351 43.7843 25.2326 42.8223 24.1962 42.3652C23.1545 41.9188 21.9055 41.9879 20.9222 42.5566L20.8956 42.5938C19.4394 41.6584 17.9778 40.707 16.5215 39.7663L16.6597 39.5537C21.6185 36.9015 25.5621 32.4264 27.6721 27.2125C29.6652 26.7023 31.5786 25.8945 33.3431 24.8368L33.3537 24.8262C33.9277 25.6872 34.6293 26.4632 35.4265 27.1222C36.5055 28.031 37.7651 28.7273 39.1151 29.1525C39.7901 29.3651 40.5129 29.5086 41.241 29.583H41.2304Z" fill="white"></path><path d="M36.4751 39.5383C36.7621 39.7243 37.0012 39.9688 37.1979 40.2505C37.554 40.7554 37.7666 41.3879 37.8091 42.0044C37.8623 42.6475 37.756 43.2906 37.5965 43.9125C37.4371 44.5024 37.2245 45.0764 37.0066 45.6451C36.8365 46.0862 36.6611 46.5486 36.3369 46.8994C36.0127 47.2555 35.5025 47.4734 35.0507 47.3299C34.2162 47.0589 34.296 46.1394 34.4182 45.2784C34.7956 43.753 34.8487 42.1479 34.5723 40.6066L33.0098 39.8997C33.148 39.8253 33.2808 39.7562 33.419 39.6871C34.1259 39.331 34.9231 39.06 35.6938 39.2141C35.9808 39.2726 36.2359 39.3842 36.4698 39.5436L36.4751 39.5383Z" fill="#FF8C00"></path><path d="M34.5707 40.6053C34.8471 42.1466 34.7993 43.757 34.4166 45.2771C34.3156 45.6757 34.1934 46.069 34.0552 46.4517C33.8107 47.1107 33.3536 47.8442 32.6574 47.8442H32.6361C32.2003 47.8388 31.8123 47.5146 31.6104 47.132C31.4084 46.7387 31.3552 46.2975 31.334 45.8617C31.3021 45.4578 31.2915 45.0592 31.2915 44.6552C31.2861 43.8793 31.334 43.1033 31.4296 42.3326L30.1328 42.1891C30.9566 41.2697 31.9292 40.4884 33.0028 39.8984L34.5654 40.6053H34.5707Z" fill="#FF8C00"></path><path d="M5.47195 32.6406C8.85754 34.8356 12.663 37.2911 16.5057 39.7731C17.9673 40.7139 19.4288 41.6652 20.8798 42.6006C22.2883 43.5095 23.6861 44.4077 25.0467 45.29C27.0451 46.5921 28.9744 47.8464 30.7708 49.0157C30.8399 49.0582 30.9037 49.0954 30.9675 49.1432C31.7647 49.6641 32.36 50.4294 32.6576 51.3276C33.4336 53.6449 35.0015 58.3326 35.99 61.3196C34.8686 61.1814 33.7631 61.0113 32.6895 60.82L32.7108 60.7137C25.5569 56.4778 16.2293 51.0513 8.79376 46.151C6.76879 44.8169 4.24421 43.1906 4.05288 40.7776C4.04225 40.6448 4.03162 40.5066 4.02099 40.3684H4.1326C4.49401 40.5597 6.08848 40.0654 5.93435 37.9129C5.7749 35.6807 5.43475 34.4211 3.78182 32.9116H3.55859C3.56391 32.125 3.62769 31.668 3.78182 31.7105L3.80839 31.6201C3.91469 31.652 4.01567 31.6945 4.10071 31.753C4.1698 31.7955 4.24421 31.8487 4.31331 31.8912C4.69066 32.1357 5.07865 32.3908 5.47195 32.6512V32.6406Z" fill="#955EEA"></path><path d="M32.6637 47.8505L32.7274 48.6424C32.1269 48.6955 31.5316 48.7381 30.931 48.7859L30.7769 49.0144C28.9804 47.8452 27.0511 46.5909 25.0527 45.2887L25.0846 45.2356C25.4939 45.1984 25.9031 45.1558 26.3124 45.1133C27.0033 45.0442 27.6889 44.9751 28.3799 44.9114C29.2356 44.821 30.0859 44.7413 30.9416 44.6562H31.2977C31.2977 45.0549 31.3084 45.4535 31.3402 45.8574C31.3668 46.2932 31.4147 46.7344 31.6166 47.1277C31.8186 47.5156 32.2066 47.8345 32.6424 47.8399H32.6637V47.8505Z" fill="#A67D52"></path><path d="M10.5203 50.3376C9.44136 49.6999 8.41027 49.094 7.44828 48.52C5.23729 47.2178 2.86153 45.7137 2.05898 43.2689C1.09167 40.3298 1.11293 34.207 1.19265 33.2344C1.32021 31.7037 2.89342 31.2945 3.81289 31.6081L3.78632 31.6984C3.63219 31.6559 3.57372 32.1183 3.56309 32.8942C3.55246 34.5684 3.80226 37.6936 4.02017 40.3563C4.0308 40.4945 4.04144 40.6327 4.05207 40.7656C4.24872 43.1838 6.77329 44.8049 8.79295 46.1389C16.2285 51.0392 25.5614 56.4657 32.7099 60.7016L32.6887 60.8079C29.994 60.3349 27.4535 59.7343 25.1309 59.0115L25.1575 58.9371C20.9322 56.4444 15.2718 53.1226 10.515 50.327L10.5203 50.3376Z" fill="#546B6B"></path><path d="M30.1401 42.1895L31.4369 42.333C31.3413 43.1036 31.2934 43.8743 31.2987 44.6556H30.9426C30.0869 44.7459 29.2366 44.8256 28.3809 44.916V44.8788C28.822 43.9008 29.4173 42.992 30.1401 42.1895Z" fill="#FF8C00"></path><path d="M26.2847 44.8902L26.3113 45.1187C25.902 45.1559 25.4928 45.1984 25.0835 45.2409L25.0516 45.2941C23.691 44.4171 22.2932 43.5189 20.8848 42.6048L20.9113 42.5676C21.8999 41.9989 23.1436 41.9298 24.1853 42.3762C25.2217 42.8333 26.0243 43.7953 26.2847 44.8955V44.8902Z" fill="#FF8C00"></path><path d="M6.74107 16.9444L6.86331 16.8913C6.76233 11.3957 8.60659 5.88417 12.0028 1.5685C9.85027 7.79221 9.49949 17.8426 11.7636 21.8872L11.9284 22.0414C9.10619 25.108 6.8952 28.7275 5.47081 32.6392C5.07751 32.3788 4.69483 32.129 4.31216 31.8792L4.45035 31.6719C1.08602 21.5205 1.59094 10.9758 5.63557 1.07422C4.46098 6.26684 4.81176 11.9591 6.74107 16.9444Z" fill="#FE4052"></path><path d="M5.93522 37.9011C6.08935 40.0537 4.49488 40.5426 4.13347 40.3513H4.02186C3.80926 37.6939 3.55414 34.5687 3.56477 32.8945H3.788C5.44093 34.4146 5.78108 35.6689 5.94053 37.9011H5.93522Z" fill="#546B6B"></path><path d="M46.9043 28.9032C46.9043 28.9032 46.9468 28.9298 46.9734 28.9404C48.4509 29.7695 50.2102 30.0512 51.8897 29.812C53.0005 29.6526 54.0794 29.254 55.0201 28.6268C55.052 28.6162 55.0839 28.5896 55.1158 28.5684" stroke="black" stroke-width="1.55" stroke-linecap="round" stroke-linejoin="round"></path><path d="M55.1977 28.0855C55.4422 27.3415 55.575 26.5496 55.591 25.7629C55.6335 24.1366 55.1817 22.5315 54.2038 21.3091C54.0975 21.1656 53.9752 21.0221 53.8424 20.8892C53.5288 20.5597 53.1568 20.2621 52.7475 20.0229C52.7475 20.0176 52.7422 20.0176 52.7422 20.0176" stroke="black" stroke-width="1.55" stroke-linecap="round" stroke-linejoin="round"></path><path d="M46.805 28.9311C46.5924 28.001 46.5712 27.0283 46.7359 26.0929C46.7997 25.689 46.9007 25.2904 47.0336 24.9024C47.2302 24.3071 47.5066 23.7437 47.8574 23.2176C48.1125 22.8402 48.3995 22.4841 48.729 22.1599C49.7973 21.0704 51.2217 20.3157 52.7311 20.0605" stroke="black" stroke-width="1.55" stroke-linecap="round" stroke-linejoin="round"></path><path d="M54.2782 21.25C55.607 17.7156 55.1711 13.7188 53.4013 10.4289C53.1781 10.009 52.9389 9.61042 52.6785 9.22243C51.743 7.84588 50.5525 6.63409 49.1547 5.69336C49.3832 6.41618 49.5108 7.16026 49.5267 7.90435C48.3681 6.20359 46.0721 5.36384 44.079 5.90595C44.6849 6.09198 45.2217 6.50122 45.5512 7.03802C42.9256 6.30988 40.0184 6.68193 37.6533 8.03722C36.011 8.97795 34.645 10.397 33.7309 12.0606C33.327 12.7834 33.0081 13.5594 32.8008 14.3566" stroke="black" stroke-width="1.55" stroke-linecap="round" stroke-linejoin="round"></path><path d="M32.7695 23.8818C32.9449 24.2114 33.1363 24.5249 33.3435 24.8279C33.9175 25.6889 34.6191 26.4649 35.4163 27.1239C36.4953 28.0327 37.7549 28.729 39.1049 29.1542C39.7799 29.3668 40.5027 29.5103 41.2308 29.5847C41.9537 29.6644 42.6765 29.691 43.3834 29.6591C44.7705 29.6059 46.0408 29.3721 46.9071 29.0638" stroke="black" stroke-width="1.55" stroke-linecap="round" stroke-linejoin="round"></path><path d="M37.3027 40.1874C40.1621 37.615 42.3572 33.5013 43.383 29.7969" stroke="black" stroke-width="1.55" stroke-linecap="round" stroke-linejoin="round"></path><path d="M35.623 26.8894C39.0777 25.3162 43.0905 25.0239 46.7365 26.0869H46.7418" stroke="black" stroke-width="1.55" stroke-linecap="round" stroke-linejoin="round"></path><path d="M47.1328 24.9385C48.9718 27.5481 51.8471 29.1957 54.9829 28.5738" stroke="black" stroke-width="1.55" stroke-linecap="round" stroke-linejoin="round"></path><path d="M48.6602 22.0949C48.9365 20.9841 49.2342 19.8201 50.0048 18.9697C50.7755 18.1194 52.4975 17.1255 53.3957 17.8324C54.3311 18.5658 54.0335 19.6766 53.8847 20.8565" stroke="black" stroke-width="1.55" stroke-linecap="round" stroke-linejoin="round"></path><path d="M41.7447 21.4733C42.7067 21.468 43.4986 21.4308 44.2214 21.1597C44.6998 20.9843 45.1568 20.7026 45.6246 20.2721C46.2358 19.7087 46.7141 18.9966 46.9958 18.21C47.2562 17.4871 47.3519 16.7058 47.2243 15.9458C46.9639 14.3673 45.6937 12.9589 44.1151 12.6931C42.6801 12.4593 41.2132 13.1502 40.1609 14.16C39.0022 15.2708 38.2209 16.8866 38.4388 18.481C38.6674 20.0755 40.0705 21.5158 41.6969 21.4733" stroke="black" stroke-width="1.55" stroke-linecap="round" stroke-linejoin="round"></path><path d="M42.5474 9.7528C42.7334 9.85378 42.9247 9.96008 43.1214 10.0504C43.5306 10.2365 43.9664 10.3587 44.4129 10.2843C45.0666 10.1727 45.6087 9.38076 45.2314 8.84396C45.0294 8.55164 44.6627 8.44534 44.3225 8.36562C43.7273 8.21149 43.1001 8.06799 42.5049 8.20618C41.9096 8.34436 41.3515 8.87053 41.3994 9.47643C41.4525 10.0876 42.3348 10.5022 42.7281 10.0345" stroke="black" stroke-width="1.55" stroke-linecap="round" stroke-linejoin="round"></path><path d="M53.4851 10.3753C53.8837 10.6516 54.4736 11.0396 54.9466 11.13C55.425 11.2256 55.983 11.0768 56.2222 10.6569C56.5836 10.0511 56.0575 9.23256 55.3931 9.01997C54.7234 8.80737 53.3416 9.01997 52.6719 9.22193" stroke="black" stroke-width="1.55" stroke-linecap="round" stroke-linejoin="round"></path><path d="M44.2166 21.1269C43.2174 20.6645 42.5424 19.5484 42.6647 18.4535C42.7869 17.3587 43.7595 16.402 44.8597 16.3542C45.9599 16.3116 46.9378 17.1142 46.9963 18.209V18.2303" stroke="black" stroke-width="1.55" stroke-linecap="round" stroke-linejoin="round"></path><path d="M33.7199 12.0508C27.4961 12.2793 21.57 14.2565 16.5368 17.9237C14.868 19.1355 13.3266 20.5227 11.9341 22.0427C9.11194 25.1094 6.90095 28.7288 5.47656 32.6406" stroke="black" stroke-width="1.55" stroke-linecap="round" stroke-linejoin="round"></path><path d="M16.6484 39.5602C21.6072 36.9081 25.5509 32.433 27.6609 27.2191C28.1499 26.0179 28.5325 24.7796 28.8142 23.5146" stroke="black" stroke-width="1.55" stroke-linecap="round" stroke-linejoin="round"></path><path d="M27.5918 27.2398C27.5918 27.2398 27.6343 27.2291 27.6609 27.2185C29.654 26.7083 31.5673 25.9004 33.3319 24.8428" stroke="black" stroke-width="1.55" stroke-linecap="round" stroke-linejoin="round"></path><path d="M36.4609 39.5549L36.4716 39.5443C39.0387 36.8018 40.7926 33.4375 41.2124 29.7012" stroke="black" stroke-width="1.55" stroke-linecap="round" stroke-linejoin="round"></path><path d="M28.3711 44.8788C28.8175 43.9008 29.4128 42.992 30.1356 42.1895C30.9594 41.27 31.9321 40.4887 33.0057 39.8988C33.1439 39.8243 33.2767 39.7553 33.4149 39.6862C34.1218 39.3301 34.919 39.059 35.6897 39.2131C35.9767 39.2716 36.2318 39.3832 36.4657 39.5427C36.7527 39.7287 36.9918 39.9732 37.1885 40.2548C37.5446 40.7598 37.7572 41.3922 37.7997 42.0088C37.8529 42.6519 37.7466 43.295 37.5871 43.9168C37.4277 44.5067 37.2151 45.0807 36.9972 45.6494C36.8271 46.0906 36.6517 46.553 36.3275 46.9037C36.0033 47.2598 35.493 47.4778 35.0413 47.3343C34.2068 47.0632 34.2866 46.1437 34.4088 45.2827" stroke="black" stroke-width="1.55" stroke-linecap="round" stroke-linejoin="round"></path><path d="M34.5687 40.6064C34.8451 42.1478 34.7973 43.7582 34.4146 45.2782C34.3136 45.6768 34.1914 46.0701 34.0532 46.4528C33.8087 47.1118 33.3516 47.8453 32.6554 47.8453H32.6341C32.1983 47.84 31.8103 47.5158 31.6084 47.1331C31.4064 46.7398 31.3532 46.2987 31.332 45.8628C31.3001 45.4589 31.2895 45.0603 31.2895 44.6564C31.2841 43.8804 31.332 43.1044 31.4276 42.3338" stroke="black" stroke-width="1.55" stroke-linecap="round" stroke-linejoin="round"></path><path d="M25.084 45.2365C25.4932 45.1993 25.9025 45.1568 26.3117 45.1143C27.0027 45.0452 27.6883 44.9761 28.3792 44.9123C29.2349 44.822 30.0853 44.7423 30.941 44.6572" stroke="black" stroke-width="1.55" stroke-linecap="round" stroke-linejoin="round"></path><path d="M26.2855 44.8906C26.025 43.7904 25.2225 42.8284 24.1861 42.3713C23.1444 41.9249 21.8954 41.994 20.9121 42.5627" stroke="black" stroke-width="1.55" stroke-linecap="round" stroke-linejoin="round"></path><path d="M12.4414 37.1353C13.9827 35.78 15.5294 34.4354 17.0707 33.0801" stroke="black" stroke-width="1.55" stroke-linecap="round" stroke-linejoin="round"></path><path d="M7.32422 33.7927C7.9248 32.3842 8.81239 31.0927 9.91257 30.0244" stroke="black" stroke-width="1.55" stroke-linecap="round" stroke-linejoin="round"></path><path d="M13.6552 27.457C13.5649 27.5846 13.4958 27.7175 13.4426 27.8556C13.1822 28.5147 13.331 29.397 13.9529 29.7265C14.4153 29.971 15.0105 29.854 15.4463 29.5617C15.8768 29.2694 16.1904 28.8336 16.4987 28.4084" stroke="black" stroke-width="1.55" stroke-linecap="round" stroke-linejoin="round"></path><path d="M13.6582 27.4575C14.1631 27.213 14.498 26.7187 14.8168 26.251C14.3863 26.6177 13.9505 26.9897 13.6582 27.4575Z" stroke="black" stroke-width="1.55" stroke-linecap="round" stroke-linejoin="round"></path><path d="M13.6874 24.1885C13.2569 24.7146 12.8583 25.2621 12.4915 25.8308C12.2683 26.1656 12.0557 26.5536 12.1567 26.9416C12.2949 27.505 13.0602 27.7122 13.597 27.4784C13.6183 27.4731 13.6342 27.4571 13.6555 27.4518" stroke="black" stroke-width="1.55" stroke-linecap="round" stroke-linejoin="round"></path><path d="M11.7617 21.8871C9.49754 17.8372 9.85364 7.79207 12.0009 1.56836C8.60464 5.88935 6.76038 11.3955 6.86136 16.8911" stroke="black" stroke-width="1.55" stroke-linecap="round" stroke-linejoin="round"></path><path d="M7.88452 19.4588C7.45402 18.6403 7.07666 17.8005 6.74714 16.9395C4.81783 11.9542 4.46173 6.26196 5.64164 1.06934C1.60232 10.9709 1.09209 21.5156 4.45642 31.667" stroke="black" stroke-width="1.55" stroke-linecap="round" stroke-linejoin="round"></path><path d="M52.5157 29.9502C52.4785 30.014 52.4413 30.0724 52.4041 30.1362C49.752 34.3031 47.1052 38.4806 44.4583 42.6527C44.2351 43.0088 44.0119 43.3596 43.794 43.7157C42.8958 45.1879 42.1357 46.6495 42.0719 47.9198C42.0613 48.1908 42.072 48.4512 42.1357 48.6957C42.141 48.7383 42.1464 48.7861 42.1623 48.8286C42.7257 50.8961 43.0233 51.502 45.0058 52.3045C50.5917 54.558 57.7615 57.9595 63.3474 60.2077" stroke="black" stroke-width="1.55" stroke-linecap="round" stroke-linejoin="round"></path><path d="M78.3906 55.6158C79.6927 53.458 80.9736 51.3267 82.2333 49.2008H82.2386C87.2664 40.7395 92.0711 32.4323 97.2584 23.8648C97.8378 22.9081 98.433 21.7548 97.9706 20.7343C97.5773 19.8627 96.5622 19.4747 95.648 19.1824C95.4833 19.1292 95.3185 19.0761 95.1431 19.0229C87.7873 16.7057 72.4167 12.5973 68.5527 11.8266C65.6295 11.2367 64.3114 12.1561 62.701 14.6701C61.1066 17.1627 57.3808 22.3341 55.5738 25.7569C55.5525 25.7888 55.5419 25.8153 55.5312 25.8366" stroke="black" stroke-width="1.55" stroke-linecap="round" stroke-linejoin="round"></path><path d="M74.9902 56.7633C81.8411 45.7562 88.7611 34.2176 95.6014 23.2158C96.4943 21.7808 97.3393 19.7399 95.1283 19.1074" stroke="black" stroke-width="1.55" stroke-linecap="round" stroke-linejoin="round"></path><path d="M42.5156 48.6279C42.792 48.7555 43.0737 48.8724 43.3501 49C51.3649 52.5662 59.3851 56.1485 67.3999 59.7147" stroke="black" stroke-width="1.55" stroke-linecap="round" stroke-linejoin="round"></path><path d="M71.9959 57.6573C76.7634 50.0624 81.398 42.1751 86.1388 34.155C88.6262 29.9562 91.1295 25.7256 93.7019 21.4737L66.1921 13.7246L56.0353 29.1749L50.4015 37.7584L44.0449 47.4262C53.043 51.1997 62.0358 54.9839 71.0339 58.7575" stroke="black" stroke-width="1.55" stroke-linecap="round" stroke-linejoin="round"></path><path d="M50.4492 37.7992C51.4272 36.8691 52.4264 35.9284 53.6435 35.3331C54.8499 34.7432 56.3381 34.5572 57.5446 35.1631C59.1125 35.955 59.9469 37.9321 61.6477 38.3892C63.5185 38.8835 65.2193 37.2943 66.6118 35.955C68.6527 33.9938 70.9328 32.2877 73.3936 30.874C74.2865 30.3637 75.2379 29.8801 76.2636 29.7844C77.2947 29.6941 78.4268 30.0767 78.9636 30.959C79.4898 31.82 79.3516 32.9627 79.8671 33.829C80.4252 34.7644 81.6264 35.1524 82.7053 35.0355C83.7842 34.9292 84.7781 34.4243 85.7454 33.9247" stroke="black" stroke-width="1.55" stroke-linecap="round" stroke-linejoin="round"></path><path d="M35.9945 61.3133C35.006 58.3263 33.4381 53.6333 32.6621 51.3213C32.3645 50.4231 31.7692 49.6578 30.972 49.1369C30.9082 49.0944 30.8444 49.0572 30.7753 49.0094C28.9789 47.8401 27.0496 46.5858 25.0512 45.2836C23.6906 44.4067 22.2928 43.5085 20.8843 42.5943C19.428 41.6589 17.9664 40.7075 16.5102 39.7668C12.6675 37.2794 8.85672 34.8293 5.47646 32.6343C5.08315 32.3738 4.70048 32.124 4.31781 31.8742C4.24872 31.8317 4.17431 31.7786 4.10521 31.736C4.02549 31.6776 3.91919 31.6351 3.81289 31.6032C2.89342 31.2896 1.32021 31.6988 1.19265 33.2295C1.11293 34.2021 1.09167 40.3249 2.05898 43.264C2.86153 45.7035 5.23197 47.2129 7.44828 48.5151C8.41027 49.0838 9.44136 49.6897 10.5203 50.3328C15.2771 53.1284 20.9375 56.4502 25.1628 58.9428" stroke="black" stroke-width="1.55" stroke-linecap="round" stroke-linejoin="round"></path><path d="M3.78801 31.7C3.63388 31.6574 3.57541 32.1198 3.56478 32.8958C3.55415 34.57 3.80395 37.6951 4.02186 40.3579C4.03249 40.4961 4.04312 40.6343 4.05375 40.7671C4.2504 43.1854 6.77498 44.8064 8.79463 46.1405C16.2302 51.0408 25.5631 56.4672 32.7116 60.7032" stroke="black" stroke-width="1.55" stroke-linecap="round" stroke-linejoin="round"></path><path d="M4.13203 40.3518C4.49344 40.5485 6.08791 40.0542 5.93378 37.9017C5.77433 35.6694 5.43418 34.4098 3.78125 32.9004" stroke="black" stroke-width="1.55" stroke-linecap="round" stroke-linejoin="round"></path><path d="M18.627 56.3487C20.4978 57.3692 22.6928 58.2568 25.1324 59.0168C27.455 59.7396 29.9955 60.3402 32.6901 60.8132C33.7638 61.0045 34.8746 61.1746 35.9907 61.3128C44.6752 62.4661 54.529 62.3333 63.4261 60.6591C64.7814 60.404 66.1155 60.117 67.4176 59.7874C68.6507 59.4792 69.8572 59.1337 71.0264 58.7617H71.0318C71.3985 58.6501 71.7546 58.5278 72.1054 58.4056C73.163 58.0389 74.1941 57.6456 75.188 57.231C76.3148 56.758 77.399 56.2424 78.4301 55.6897C78.9509 55.4186 79.4505 55.1316 79.9395 54.834" stroke="black" stroke-width="1.55" stroke-linecap="round" stroke-linejoin="round"></path><path d="M82.464 49.334C84.7228 49.9346 86.6893 52.7886 86.4023 55.1006C86.1153 57.4232 84.4943 57.5561 82.6075 58.9379C82.5809 58.9592 82.5543 58.9752 82.5331 58.9911C80.5666 60.357 74.4651 61.7495 72.1797 62.0525" stroke="black" stroke-width="1.55" stroke-linecap="round" stroke-linejoin="round"></path><path d="M59.5625 67.9094C65.4195 68.2176 72.1428 67.1387 76.8678 64.6992C79.6368 63.2642 81.7256 61.3615 82.5334 58.9963C82.5653 58.9272 82.5919 58.8582 82.6079 58.7891" stroke="black" stroke-width="0.89" stroke-linecap="round" stroke-linejoin="round"></path><path d="M69.3555 69.3926C70.445 69.3501 71.5133 69.095 72.5072 68.6645C74.3408 67.8885 75.9247 66.5226 76.9079 64.7793" stroke="black" stroke-width="1.55" stroke-linecap="round" stroke-linejoin="round"></path><path d="M34.25 71.4532C45.1296 74.5624 57.0615 73.8396 67.4787 69.4336" stroke="black" stroke-width="0.89" stroke-linecap="round" stroke-linejoin="round"></path><path d="M11.6098 57.9491C11.1527 57.7737 10.8179 57.7099 10.5522 57.6408C9.8134 57.4548 9.64332 57.2316 9.08526 54.2765C8.73979 52.4375 8.99491 51.2842 10.5203 50.3382L10.7116 50.2266" stroke="black" stroke-width="1.55" stroke-linecap="round" stroke-linejoin="round"></path><path d="M38.3584 68.6585C28.5312 68.2334 18.8741 64.5183 11.2844 58.2627C11.0399 58.0607 10.7901 57.8587 10.551 57.6408C10.3065 57.4389 10.0726 57.2316 9.82812 57.0137" stroke="black" stroke-width="0.89" stroke-linecap="round" stroke-linejoin="round"></path><path d="M23.4099 62.0776C20.205 60.7861 17.2233 58.9099 14.6775 56.5607C14.146 56.0718 13.6198 55.5509 13.285 54.9025C12.9502 54.2541 12.8545 52.7659 13.1468 52.1016" stroke="black" stroke-width="1.55" stroke-linecap="round" stroke-linejoin="round"></path><path d="M17.4844 64.333C20.7265 67.1286 24.803 68.941 29.0443 69.4884" stroke="black" stroke-width="0.89" stroke-linecap="round" stroke-linejoin="round"></path><path d="M26.8789 62.8984C39.3211 66.8261 55.6006 66.0661 66.8256 63.2226" stroke="black" stroke-width="1.55" stroke-linecap="round" stroke-linejoin="round"></path><path d="M45.3223 69.8591C47.5864 69.8326 49.8559 69.8166 52.12 69.79" stroke="black" stroke-width="0.89" stroke-linecap="round" stroke-linejoin="round"></path><path d="M30.9316 48.7857C31.5322 48.7326 32.1275 48.69 32.7281 48.6422C35.7682 48.403 38.8136 48.1532 41.8484 47.9141" stroke="black" stroke-width="1.55" stroke-linecap="round" stroke-linejoin="round"></path><path d="M37.8867 43.9864C39.731 43.8482 41.5753 43.7153 43.4195 43.5771" stroke="black" stroke-width="1.55" stroke-linecap="round" stroke-linejoin="round"></path><path d="M36.7383 56.4996C41.139 55.7555 45.6567 55.7236 50.068 56.3933" stroke="black" stroke-width="0.89" stroke-linecap="round" stroke-linejoin="round"></path><path d="M39.4707 58.2892C41.8411 58.2308 44.2116 58.1776 46.5873 58.1191" stroke="black" stroke-width="0.89" stroke-linecap="round" stroke-linejoin="round"></path><path d="M11.1504 58.4111C15.0515 66.2134 23.8583 72.2564 30.5232 74.6587C37.1827 77.061 41.5569 76.7846 48.6363 77.061C53.2443 77.247 66.3296 74.2388 72.5055 68.6635C72.8084 68.3978 73.0954 68.1214 73.3611 67.8344" stroke="black" stroke-width="1.55" stroke-linecap="round" stroke-linejoin="round"></path><g style="mix-blend-mode:darken"><path d="M13.0687 25.0966C12.7391 25.4421 12.5159 25.8832 12.4256 26.3509C12.3565 26.7282 12.383 27.1534 12.6381 27.4404C12.8933 27.7221 13.4301 27.7593 13.632 27.4351C13.1165 27.8869 13.2759 28.8117 13.834 29.205C14.3921 29.5983 15.1787 29.5292 15.7846 29.205C16.3851 28.8808 16.8475 28.344 17.278 27.8125C16.8422 28.5991 17.6341 29.6142 18.527 29.7365C19.4199 29.8587 20.2756 29.3963 21.041 28.918C23.6665 27.2863 26.0954 25.3411 28.2586 23.1354C28.5509 23.6616 28.4021 24.3153 28.2214 24.8893C26.5632 30.1723 23.0819 34.7324 18.9788 38.4582C18.2772 39.0959 17.4534 39.7497 16.5021 39.7072C15.7846 39.6753 15.1521 39.2448 14.5621 38.8355C12.7179 37.5387 10.8736 36.2472 9.03465 34.9503C8.45002 34.5411 7.86007 34.1265 7.41362 33.5685C6.53134 32.4736 6.04237 32.9998 5.08569 31.974C4.41602 31.2512 3.66662 28.732 3.33709 27.8072C3.20422 27.4404 3.19891 27.0365 3.19891 26.6485C3.17234 23.8795 2.40699 20.2813 2.38573 17.507C2.35916 14.621 2.88533 11.3204 3.34241 8.47168C2.52923 14.7857 3.29458 24.3631 8.05672 24.2887C11.1553 24.2409 10.964 19.8561 10.964 19.8561C10.964 19.8561 11.8834 21.998 12.1386 22.4764C12.6009 23.3427 12.3405 24.31 13.0687 25.0966Z" fill="#B82E3B"></path></g><g style="mix-blend-mode:darken"><path d="M26.328 30.076C26.2111 30.6341 26.3865 31.2081 26.5566 31.7502C26.6735 32.1222 26.7957 32.5102 27.0562 32.8025C27.2953 33.0789 27.6355 33.2543 27.9756 33.3925C29.6977 34.0834 31.7386 33.9293 33.333 32.9886C34.9328 32.0478 36.0543 30.3364 36.2775 28.4922C37.0854 28.7154 38.3503 28.8961 39.1582 29.1247C39.6046 29.2522 40.0989 29.4063 40.3328 29.805C40.5081 30.1026 40.5028 30.464 40.4762 30.8095C40.2796 33.5732 39.1794 36.2625 37.383 38.3672C37.1226 38.6702 36.8409 38.9731 36.4795 39.1538C35.9905 39.3983 35.4165 39.3983 34.8744 39.4833C32.7962 39.8129 31.1965 41.4551 29.8199 43.0443C28.9376 44.0594 27.7418 45.2074 26.4556 44.8195C26.2324 43.0709 24.3934 41.7049 22.6554 42.0026C22.2196 42.077 21.7944 42.2417 21.3533 42.2311C20.7633 42.2205 20.2265 41.9069 19.7216 41.6093C18.7862 41.0512 17.8295 40.4719 17.1758 39.6003C21.2204 36.9641 24.404 34.5086 26.328 30.0813V30.076Z" fill="#BFDCE6"></path></g><g style="mix-blend-mode:darken"><path d="M38.2227 28.6432C39.3016 29.0949 40.5559 29.1215 41.6508 28.7123C42.7456 28.303 43.681 27.4686 44.2072 26.4269C44.3029 26.2356 44.4039 26.023 44.6058 25.9539C44.6962 25.922 44.7972 25.9273 44.8928 25.9379C45.419 25.9751 45.9399 26.007 46.466 26.0442C46.5033 26.9956 46.5405 27.9469 46.5777 28.9036C44.5421 30.0304 42.0281 29.7806 39.764 29.2331" fill="#BFDCE6"></path></g><g style="mix-blend-mode:darken"><path d="M23.5402 37.4489C24.2099 37.9273 25.0284 38.1505 25.8416 38.294C30.9492 39.2028 36.4767 37.1726 39.7878 33.1758C39.3573 35.1795 38.3847 37.0663 37.0028 38.5757C36.7849 38.8095 36.5564 39.0434 36.2694 39.1816C35.9186 39.3463 35.5147 39.357 35.132 39.3942C33.2611 39.5802 31.4807 40.5528 30.3061 42.025C29.7161 42.7691 29.2697 43.6354 28.6106 44.3157C27.9463 44.996 26.9577 45.4903 26.0542 45.2033C26.2402 44.1191 25.7831 42.9498 24.9061 42.2855C24.0345 41.6211 22.7855 41.4882 21.7916 41.9506C21.5206 42.0782 21.2601 42.2483 20.9625 42.2642C20.734 42.2801 20.5054 42.2004 20.2928 42.1154C18.9694 41.5998 17.7257 40.8717 16.6309 39.9682C18.0234 39.0381 19.3096 37.9804 20.5214 36.8324C22.2168 35.222 22.0786 36.3966 23.5508 37.4489H23.5402Z" fill="#9BB2BA"></path></g><g style="mix-blend-mode:darken"><path d="M32.3055 18.0332C32.938 19.532 34.2295 20.68 35.6911 21.3975C37.1474 22.115 38.7737 22.4339 40.3895 22.6146C42.2975 22.8272 44.3118 22.8432 46.0392 22.0034C47.1553 21.456 48.0801 20.5897 48.9836 19.734C48.9252 22.1629 46.1295 24.0231 46.4697 26.4307C44.8805 25.6654 43.0575 25.5644 41.2983 25.6972C39.4859 25.8301 37.6948 26.2022 35.9728 26.7868C35.808 26.8453 35.6433 26.9037 35.4679 26.8931C34.7929 26.8506 34.6281 25.9258 34.1551 25.4421C33.4801 24.7565 32.3108 25.1073 31.4976 25.6228C30.7429 26.1012 29.8766 26.8027 28.9199 26.622C30.0892 25.6175 30.4081 24.6662 30.9077 23.1621C31.2 22.2851 31.4658 21.3975 31.7049 20.5046C31.8325 20.0263 32.4915 18.4743 32.3055 18.0332Z" fill="#B82E3B"></path></g><path d="M43.6918 18.9328C44.3846 18.9328 44.9461 18.2546 44.9461 17.4181C44.9461 16.5815 44.3846 15.9033 43.6918 15.9033C42.9991 15.9033 42.4375 16.5815 42.4375 17.4181C42.4375 18.2546 42.9991 18.9328 43.6918 18.9328Z" fill="white"></path><g style="mix-blend-mode:darken"><path d="M83.9724 57.6554C82.0644 57.7936 66.0772 64.6764 64.1585 64.687C59.5983 64.703 49.5373 66.0476 44.9824 66.2868C32.131 66.9565 17.7383 61.8754 8.87305 52.5479C9.23446 54.1848 11.674 59.1967 12.7582 60.4776C15.506 63.7356 16.771 67.3816 20.3319 69.7202C23.978 72.1119 28.2458 73.3662 32.5137 74.2485C37.026 75.1786 42.3196 76.7996 46.9117 76.4435C49.314 76.2575 51.5463 76.3106 53.9539 76.2734C55.6813 76.2468 56.9037 74.865 58.6098 74.6045C59.9279 74.4026 61.1928 73.9508 62.4259 73.4353C66.2047 71.8674 70.9828 69.5979 73.6934 66.4728C72.2159 66.2443 70.4407 67.4029 69.0535 67.8706C67.0232 68.5562 86.1143 57.5066 83.9671 57.6608L83.9724 57.6554Z" fill="#7D5E3D"></path></g><g style="mix-blend-mode:darken"><path d="M32.471 70.5599C48.0862 74.9394 50.8127 73.2865 48.4688 72.6115C47.6663 72.3776 49.8401 73.5788 50.616 73.8924C51.5461 74.275 52.6038 74.105 53.5924 73.9189C59.7842 72.7603 65.907 71.219 71.9075 69.3109C69.3882 72.3245 65.4021 73.6266 61.5807 74.5355C57.4776 75.5081 53.3001 76.1884 49.0854 76.4116C44.2382 76.6667 39.3804 76.3213 34.5385 75.9705C33.433 75.8908 33.1726 75.7366 32.1256 75.3805C31.121 75.0351 28.8835 74.2431 27.9959 73.6585C25.4873 72.0109 17.887 65.6065 15.6016 63.6719C23.5367 67.3019 23.6961 68.0992 32.4763 70.5599H32.471Z" fill="#5E472E"></path></g><path d="M7.12443 32.1776C10.6695 24.5348 16.9889 18.1782 24.9931 15.3188C27.2785 14.5003 29.6542 13.9795 32.0672 13.7563C32.6678 13.6978 32.6784 12.7518 32.0672 12.8102C23.3136 13.6234 15.4582 18.2952 10.1646 25.2576C8.64449 27.256 7.35829 29.4245 6.30062 31.7046C6.04551 32.2573 6.864 32.7357 7.11912 32.1829L7.12443 32.1776Z" fill="#FE7784"></path><path d="M34.4502 14.3702C35.4601 11.8988 37.3522 9.87381 39.8183 8.81616C40.0521 8.71517 40.1053 8.36971 39.9884 8.16774C39.8449 7.92326 39.5738 7.89668 39.3399 7.99767C36.64 9.15631 34.6416 11.4258 33.5361 14.1204C33.4404 14.3596 33.6424 14.6412 33.8656 14.705C34.1367 14.7794 34.3493 14.6094 34.4502 14.3755V14.3702Z" fill="#FE7784"></path><path d="M3.68288 10.7263C2.52424 17.0882 2.83782 23.4661 4.84153 29.626C5.02755 30.2053 5.94703 29.9555 5.75569 29.3762C3.81044 23.381 3.47029 17.1733 4.59704 10.9814C4.70334 10.3862 3.78918 10.1311 3.68288 10.7316V10.7263Z" fill="#FE7784"></path></svg> 