<?xml version="1.0" encoding="UTF-8"?> <svg xmlns="http://www.w3.org/2000/svg" width="170" height="122" viewBox="0 0 170 122" fill="none"><path d="M113.196 112.481C111.51 110.631 107.466 106.767 105.78 104.917C103.627 102.559 101.433 100.128 100.287 97.1484C100.59 97.9343 91.5852 104.303 90.6111 105.04C88.6955 106.489 84.7089 108.38 83.9395 110.745C93.1978 108.183 103.897 108.535 113.196 112.481Z" fill="#BDCCD4"></path><path d="M38.0743 115.133L14.6132 112.17C11.1505 111.826 12.7959 109.992 18.477 106.751L27.6781 102.003L38.0743 115.125V115.133Z" fill="#BDCCD4"></path><path d="M127.327 107.355C126.279 105.415 125.215 103.246 124.118 100.848C124.102 100.815 124.094 100.782 124.069 100.749C122.8 97.9497 121.744 95.0846 120.877 92.2195C120.123 89.731 119.526 87.2425 119.035 84.7539C118.445 81.7251 118.028 78.7372 117.774 75.8148C117.651 74.5542 117.561 73.3181 117.504 72.082L120.23 71.9428C120.361 74.6278 121.793 77.2637 124.225 78.4016C124.708 78.6226 125.354 78.7618 125.723 78.3688L126.042 78.3115C125.665 76.2896 125.395 74.2431 125.215 72.1966H125.379C125.78 73.6291 127.278 74.6196 128.76 74.6033C130.241 74.5951 131.649 73.6701 132.411 72.3849C132.705 71.8855 132.918 71.3289 133.295 70.8786C133.671 70.4284 134.285 70.101 134.842 70.2974C135.456 70.5021 135.726 71.2061 136.053 71.7709C137.306 73.932 140.678 74.4232 142.504 72.7287C143.609 71.6972 144.542 69.9209 146.024 70.2483C146.425 70.3302 146.777 70.584 147.154 70.7722C148.406 71.3862 150.019 71.2143 151.099 70.3302C152.172 69.4788 152.679 67.989 152.384 66.6465C156.854 68.5047 161.111 71.2798 164.164 75.5365C172.669 87.3571 169.174 100.496 161.135 109.746C160.783 110.147 160.431 110.54 160.047 110.925L159.907 110.794C160.431 109.762 160.202 108.395 159.375 107.593C158.549 106.774 157.19 106.586 156.166 107.118C155.266 107.585 154.701 108.501 153.923 109.148C153.129 109.779 151.795 110.016 151.222 109.181C151.067 108.96 150.993 108.706 150.944 108.444C150.526 106.152 151.959 103.426 150.42 101.633C149.618 100.7 148.283 100.446 147.096 100.815C145.32 101.363 144.207 102.902 143.396 104.482C143.036 105.178 142.602 105.98 141.833 106.103C141.071 106.234 140.376 105.604 139.999 104.924C139.385 103.835 139.18 102.485 137.478 102.174C136.381 101.961 135.243 102.354 134.449 103.131C132.959 104.58 132.681 106.725 132.468 108.739C132.468 108.772 132.46 108.804 132.46 108.837C132.304 109.975 131.191 110.646 130.061 110.409C129.832 110.368 129.636 110.368 129.48 110.433L129.194 110.613C128.563 109.615 127.949 108.534 127.327 107.364V107.355Z" fill="#A48733"></path><path d="M131.098 113.44C130.468 112.588 129.83 111.647 129.199 110.607L129.486 110.427C129.641 110.362 129.838 110.362 130.067 110.403C131.197 110.64 132.31 109.969 132.465 108.831C132.465 108.798 132.474 108.765 132.474 108.733C132.686 106.719 132.957 104.574 134.455 103.125C135.249 102.348 136.387 101.963 137.483 102.167C139.186 102.487 139.391 103.829 140.005 104.918C140.381 105.597 141.077 106.228 141.838 106.097C142.608 105.966 143.042 105.172 143.402 104.476C144.221 102.896 145.326 101.357 147.102 100.809C148.289 100.44 149.623 100.694 150.426 101.627C151.965 103.42 150.54 106.138 150.949 108.438C150.999 108.7 151.072 108.962 151.228 109.175C151.809 110.01 153.135 109.772 153.929 109.142C154.715 108.503 155.272 107.587 156.172 107.112C157.195 106.572 158.554 106.768 159.381 107.587C160.208 108.397 160.437 109.756 159.913 110.787L160.052 110.918C155.697 115.404 149.951 118.368 143.803 119.726C138.785 120.578 134.905 118.523 131.098 113.431V113.44Z" fill="#604020"></path><path d="M152.384 66.6468C152.679 67.9893 152.172 69.4791 151.099 70.3305C150.019 71.2146 148.406 71.3865 147.154 70.7725C146.769 70.5842 146.425 70.3305 146.024 70.2486C144.542 69.9294 143.609 71.7057 142.504 72.729C140.687 74.4235 137.306 73.9323 136.053 71.7712C135.726 71.2064 135.456 70.5024 134.842 70.2977C134.285 70.1013 133.671 70.4287 133.295 70.8789C132.918 71.3292 132.705 71.8858 132.411 72.3852C131.649 73.6622 130.241 74.5872 128.76 74.6036C127.278 74.6281 125.78 73.6294 125.379 72.1887H125.215C125.01 69.782 124.945 67.3671 125.002 64.9604H125.362C131.928 63.6343 139.663 63.0122 146.155 64.6248C148.21 65.1324 150.33 65.7954 152.393 66.6468H152.384Z" fill="#604020"></path><path d="M131.1 113.438C134.899 118.529 138.787 120.584 143.805 119.733C138.492 120.895 132.893 120.854 127.613 119.536C125.19 118.938 122.841 118.087 120.598 117.031L120.72 116.769C125.01 118.93 129.872 116.867 131.1 113.438Z" fill="#C5B98E"></path><path d="M96.9474 53.6985L97.0129 53.7722C98.4537 52.2496 100.697 51.7502 102.792 51.6192C104.896 51.4801 107.065 51.6847 109.071 51.0135C113.377 49.5727 111.535 46.2983 110.708 46.0691C111.347 45.0131 112.55 44.4565 113.581 43.7934C114.621 43.1304 115.636 42.1071 115.554 40.8792C115.489 39.9051 114.703 39.0865 113.794 38.7509C112.886 38.407 111.871 38.4643 110.913 38.6444C108.719 39.0455 106.64 40.0934 104.986 41.616C104.487 39.2829 102.244 37.4411 99.8617 37.4002C97.4795 37.351 95.1793 39.1029 94.5817 41.4113C92.1586 40.8874 89.4572 42.1562 88.3112 44.3583C87.1733 46.5439 87.6891 49.4745 89.4982 51.1526C89.6291 50.5714 89.8174 50.0066 90.0384 49.4581C90.7997 47.5508 92.1177 45.7581 94.0168 44.9886C95.9242 44.2273 98.4291 44.8085 99.3869 46.6176C100.05 47.8864 99.8453 49.4663 99.2068 50.7433C98.6501 51.8566 97.8151 52.7898 96.9556 53.6821L96.9474 53.6985ZM107.966 29.5252C110.127 29.6971 112.28 29.8772 114.441 30.0573C117.83 30.3356 121.219 30.6222 124.608 30.9005C125.68 30.9823 126.777 31.0888 127.727 31.5881C127.792 31.6208 127.858 31.6618 127.923 31.7027L128.022 31.5308C128.112 31.2197 128.21 30.9005 128.292 30.5894L130.993 31.3589C131.075 31.0888 131.157 30.8104 131.23 30.5239L131.943 30.6713C134.448 30.8432 137.01 31.0315 139.269 32.1202C141.52 33.2089 143.403 35.4437 143.313 37.9404C143.19 41.264 139.793 43.5478 136.543 44.1864C133.989 44.6775 131.337 44.522 128.758 44.8249C128.046 44.9067 127.35 45.0213 126.663 45.1932C124.125 45.8236 121.841 47.1742 119.59 48.5086L118.665 49.057C113.68 52.0204 108.694 55.0001 103.701 57.9634L103.021 57.857C103.144 56.9974 103.21 56.1215 103.242 55.2456L103.054 54.8691C100.034 56.4899 96.8001 57.4559 93.6321 57.8242C89.0316 58.3727 84.5702 57.7096 81.0829 56.1052C79.0201 55.1556 76.245 53.6494 73.5764 52.1268C71.3089 50.8334 69.1068 49.5318 67.4451 48.5495C66.872 48.2057 66.2663 47.8046 65.7014 47.3707C64.2771 46.2329 63.1802 44.7839 63.5895 43.114L63.6468 43.0158C62.4598 42.5573 61.4938 41.5013 61.191 40.2653C60.7817 38.5298 61.6494 36.6061 63.172 35.6811C64.6946 34.7561 66.7492 34.8543 68.2391 35.8203C69.7371 36.8026 70.6458 38.5871 70.6458 40.3635L70.6622 40.4454C75.3446 39.3812 79.9369 37.8586 84.3246 35.9103C85.839 35.2391 87.3289 34.5187 88.7942 33.741L91.2909 32.3085C90.8243 31.5963 90.9798 30.5239 91.5201 29.7626C91.692 29.517 91.8967 29.3042 92.1504 29.1405C92.4451 28.944 92.7726 28.8049 93.1082 28.6984C94.1233 28.3956 95.2775 28.4692 96.3498 28.5593C97.2421 28.633 98.1344 28.7066 99.0267 28.7803C101.998 29.0259 104.978 29.2715 107.949 29.517L107.966 29.5252ZM96.2271 51.39C96.4563 50.9971 96.6446 50.465 96.3335 50.1294C95.9979 49.7528 95.3757 49.982 94.9746 50.2931C93.7467 51.2427 92.9854 52.7735 92.9854 54.3206L93.0509 54.3616C94.3606 53.6985 95.4739 52.6507 96.2271 51.39Z" fill="#A48733"></path><path d="M130.576 12.6194C132.287 15.4108 132.885 18.7916 132.762 22.0742C132.647 24.9311 132.009 27.7553 131.223 30.5222C131.149 30.8087 131.067 31.0788 130.985 31.3571L128.284 30.5876C129.291 26.8876 129.807 22.9501 128.792 19.2664C127.703 15.2635 124.445 11.6371 120.319 11.1377C118.428 10.9085 116.553 11.3751 114.875 12.3001L114.654 11.8826C115.923 8.85382 119.402 7.06928 122.677 7.37216C125.951 7.67504 128.882 9.81977 130.584 12.6194H130.576Z" fill="#A48733"></path><path d="M120.711 116.769L120.588 117.031C117.314 115.484 114.244 113.495 111.461 111.146C117.56 113.372 124.215 112.202 127.325 107.355C127.948 108.526 128.562 109.598 129.192 110.605C129.83 111.645 130.461 112.586 131.091 113.438C129.855 116.859 125.001 118.922 120.711 116.769Z" fill="#C5B98E"></path><path d="M128.784 19.2665C129.799 22.942 129.291 26.8795 128.276 30.5877C128.194 30.8988 128.104 31.2181 128.006 31.5291L127.908 31.701C127.842 31.6601 127.785 31.6192 127.711 31.5864C126.762 31.0871 125.665 30.9807 124.592 30.8988C121.203 30.6205 117.814 30.334 114.425 30.0557C114.72 28.1892 114.458 26.1346 113.206 24.7348C111.945 23.335 109.522 22.9093 108.147 24.2109H108.057C108.302 21.7551 108.892 19.3729 110.054 17.2118C110.521 16.3441 111.094 15.5255 111.765 14.7888C112.649 13.7901 113.705 12.9387 114.859 12.3002C116.529 11.3752 118.404 10.9086 120.303 11.1378C124.429 11.629 127.687 15.2636 128.775 19.2665H128.784Z" fill="#FEBD02"></path><path d="M127.169 2.59295C127.963 2.98588 128.79 3.71443 128.626 4.59034C128.512 5.2534 127.824 5.70363 127.145 5.81005C126.473 5.90828 125.786 5.7773 125.115 5.73637C124.345 5.69544 123.567 5.7773 122.806 5.67089C122.045 5.56447 121.259 5.22066 120.874 4.54941C120.498 3.87815 120.719 2.8549 121.447 2.60114L121.472 2.41286C122.913 1.68431 125.36 1.71705 127.169 2.60114V2.59295Z" fill="#A48733"></path><path d="M126.657 45.1922C127.344 45.0203 128.048 44.9057 128.752 44.832C127.59 48.0655 126.698 51.389 126.059 54.7698L125.797 54.7207C124.234 54.5079 122.58 55.1709 121.598 56.4152C120.607 57.6513 120.354 59.4277 120.927 60.9011C121.279 61.818 121.933 62.6202 122.154 63.5943C122.212 63.8399 122.228 64.0937 122.22 64.3393C122.204 65.8209 121.27 67.2453 120.722 68.6942C120.337 69.7257 120.173 70.8308 120.231 71.9441L117.505 72.0832C117.398 70.2332 117.357 68.4241 117.357 66.6723C117.357 63.6762 117.48 60.852 117.677 58.2653C117.947 54.7617 118.356 51.7001 118.774 49.2443L118.667 49.056L119.592 48.5075C121.843 47.1814 124.127 45.8225 126.665 45.1922H126.657Z" fill="#A48733"></path><path d="M126.03 78.3124L125.711 78.3697C125.343 78.7544 124.696 78.6234 124.213 78.4024C121.782 77.2646 120.349 74.6287 120.218 71.9437C120.161 70.8304 120.325 69.7253 120.709 68.6938C121.258 67.2449 122.191 65.8205 122.207 64.3389L124.991 64.4698V64.961C124.925 67.3677 124.991 69.7907 125.195 72.1974C125.375 74.2439 125.645 76.2904 126.022 78.3124H126.03Z" fill="#604020"></path><path d="M125.796 54.7116L126.058 54.7607C125.468 57.9615 125.108 61.2113 124.994 64.4611L122.21 64.3302C122.21 64.0846 122.194 63.8308 122.145 63.5852C121.932 62.6193 121.269 61.8171 120.917 60.892C120.344 59.4186 120.606 57.6422 121.588 56.4061C122.57 55.1618 124.224 54.4906 125.788 54.7116H125.796Z" fill="#604020"></path><path d="M124.118 100.848C125.215 103.247 126.279 105.416 127.327 107.356C124.216 112.202 117.561 113.381 111.462 111.146C109.276 109.313 107.254 107.258 105.445 105.048C111.724 107.585 120.229 105.588 124.068 100.75C124.085 100.783 124.093 100.815 124.118 100.848Z" fill="#C5B98E"></path><path d="M120.876 92.2123C121.743 95.0856 122.799 97.9507 124.068 100.742C120.229 105.58 111.724 107.577 105.445 105.04C103.489 102.666 101.761 100.095 100.312 97.394C100.214 97.2385 100.132 97.0666 100.042 96.9029C100.001 96.8374 99.9687 96.7555 99.9277 96.6818C106.256 98.5892 116.758 96.4772 120.54 92.3105L120.876 92.2041V92.2123Z" fill="#C5B98E"></path><path d="M120.876 92.2123L120.54 92.3188C116.766 96.4854 106.256 98.5974 99.9279 96.6901C99.7641 96.3708 99.6086 96.0598 99.4612 95.7405C98.7327 94.267 98.0696 92.7526 97.4966 91.2136C96.8663 89.5601 96.3178 87.8901 95.8594 86.1793C95.7939 85.9746 95.7366 85.7536 95.6875 85.5489L95.7939 85.5244C101.508 87.9229 114.09 86.2939 119.034 84.7549C119.525 87.2352 120.123 89.732 120.876 92.2205V92.2123Z" fill="#C5B98E"></path><path d="M118.658 49.0557L118.765 49.2439C118.347 51.6997 117.938 54.7613 117.668 58.2649L117.218 58.2322C112.363 59.5992 107.771 60.3278 102.81 59.4273H102.729C102.843 58.9034 102.925 58.3877 103.015 57.8556L103.694 57.962C108.688 54.9987 113.681 52.019 118.658 49.0557Z" fill="#C5B98E"></path><path d="M117.765 75.806C118.027 78.7284 118.436 81.7245 119.026 84.7451C114.081 86.2841 101.499 87.9213 95.7856 85.5146L95.6792 85.5392C94.836 82.3303 94.2548 79.0559 93.9355 75.7323L94.2794 75.6914C99.9686 78.3355 112.878 77.1649 117.74 75.7978H117.757L117.765 75.806Z" fill="#C5B98E"></path><path d="M117.766 75.8073H117.749C112.887 77.1743 99.9774 78.3449 94.2881 75.7008L93.9443 75.7418C93.666 72.934 93.5759 70.118 93.6496 67.2938C93.6496 66.9336 93.666 66.5653 93.6823 66.2051L94.2308 66.2296C95.3605 66.7617 96.7685 67.1547 98.3074 67.4248C104.496 68.5217 113.059 67.7604 116.947 66.6635H117.356C117.356 68.4153 117.397 70.2244 117.504 72.0744C117.561 73.3023 117.651 74.5466 117.774 75.8073H117.766Z" fill="#C5B98E"></path><path d="M117.215 58.2244L117.665 58.2571C117.469 60.8521 117.346 63.6681 117.346 66.6641H116.936C113.048 67.7529 104.485 68.5224 98.2969 67.4173L98.7226 64.7977C99.2792 64.8632 99.844 64.7814 100.335 64.503C101.219 63.9955 101.67 62.9886 102.005 62.0145C102.3 61.1632 102.537 60.2791 102.726 59.395H102.807C107.768 60.3036 112.36 59.5751 117.215 58.208V58.2244Z" fill="#C5B98E"></path><path d="M115.545 40.8768C115.627 42.1047 114.612 43.1279 113.573 43.791C112.541 44.4541 111.346 45.0107 110.699 46.0667C111.534 46.2959 113.368 49.5703 109.062 51.011C107.057 51.6823 104.887 51.4776 102.783 51.6168C100.688 51.7478 98.453 52.2389 97.0041 53.7697L96.9386 53.696C97.7982 52.8038 98.6331 51.8706 99.1898 50.7573C99.8283 49.4803 100.033 47.9004 99.3699 46.6315C98.4203 44.8224 95.9072 44.2412 93.9999 45.0025C92.1007 45.772 90.7828 47.5647 90.0215 49.4721C89.8004 50.0205 89.6121 50.5854 89.4812 51.1666C87.6721 49.4803 87.1563 46.5579 88.2942 44.3722C89.4402 42.162 92.1416 40.9013 94.5647 41.4252C95.1623 39.1168 97.4625 37.365 99.8447 37.4141C102.235 37.455 104.47 39.2887 104.969 41.6299C106.623 40.1073 108.694 39.0595 110.896 38.6584C111.854 38.4701 112.869 38.421 113.777 38.7648C114.686 39.1004 115.472 39.919 115.537 40.8931L115.545 40.8768Z" fill="#604020"></path><path d="M114.654 11.8832L114.875 12.3007C113.721 12.931 112.665 13.7906 111.781 14.7892L111.445 14.4209C109.726 11.212 105.797 9.55021 102.187 10.0823L102.113 9.50928C103.939 8.07673 106.411 7.49552 108.687 7.9785C110.962 8.46147 112.992 10.0004 114.081 12.0469L114.654 11.8832Z" fill="#A48733"></path><path d="M113.214 24.735C114.466 26.1348 114.736 28.1976 114.434 30.0559C112.272 29.8676 110.119 29.6957 107.958 29.5238C107.885 27.7638 107.885 25.9629 108.065 24.1947H108.155C109.53 22.9095 111.953 23.327 113.214 24.7268V24.735Z" fill="#1A1A1A"></path><path d="M111.437 14.4187L111.773 14.787C111.102 15.5238 110.529 16.3424 110.062 17.2101C108.908 19.3712 108.319 21.7533 108.065 24.1927C107.885 25.9609 107.885 27.7618 107.958 29.5218C104.987 29.2681 102.007 29.0225 99.0357 28.7851L99.0602 28.4576C99.0602 27.107 98.9292 26.1656 98.4872 24.8885C98.0533 23.6279 97.071 22.4491 95.7613 22.1708C94.4515 21.8925 92.5769 22.9894 92.4787 24.3237H92.3231C92.2085 21.9907 92.5769 19.6659 93.4282 17.382C94.8117 13.731 97.5949 11.0951 101.393 10.2111C101.647 10.1538 101.917 10.0964 102.179 10.0719C105.781 9.54799 109.718 11.2097 111.437 14.4105V14.4187Z" fill="#FEBD02"></path><path d="M109.743 1.70743C110.537 2.10036 111.348 2.82892 111.2 3.68845C111.078 4.36788 110.39 4.80174 109.719 4.90816C109.047 5.01458 108.36 4.8836 107.689 4.84267C106.919 4.79356 106.141 4.8836 105.38 4.77718C104.619 4.67077 103.825 4.32695 103.448 3.6557C103.063 2.98445 103.293 1.9612 104.021 1.70743L104.046 1.51916C105.487 0.790602 107.934 0.806974 109.743 1.70743Z" fill="#A48733"></path><path d="M94.1489 60.6884C93.9033 60.0172 93.7396 59.2968 93.7232 58.5682L93.625 57.8233C96.793 57.4468 100.035 56.489 103.047 54.8682L103.235 55.2447C103.203 56.1206 103.137 56.9965 103.014 57.8561C102.932 58.3881 102.842 58.9039 102.728 59.4196C102.54 60.3037 102.302 61.1878 102.007 62.0391C101.672 63.005 101.213 64.0119 100.338 64.5276C99.8464 64.806 99.2815 64.8878 98.7249 64.8223C97.9718 64.7405 97.2105 64.3967 96.5801 63.9382C95.5733 63.2097 94.7956 62.2028 94.3044 61.0813C94.2471 60.9667 94.198 60.8358 94.1407 60.7048L94.1489 60.6884Z" fill="white"></path><path d="M99.9289 96.6902C99.9698 96.7557 100.003 96.8375 100.043 96.9112C100.134 97.0831 100.215 97.2468 100.314 97.4024L99.9207 97.6152C99.9207 97.6152 81.0274 112.047 76.4432 115.387C73.1279 117.81 70.3528 117.278 70.3528 117.278C62.7317 116.705 39.0414 114.618 28.3013 113.774C26.8278 113.66 25.6245 112.555 25.3789 111.098C25.4198 111.098 25.4608 111.098 25.4935 111.106C30.0122 111.425 39.0332 112.268 47.9723 113.087C56.9851 113.914 65.9242 114.757 70.0663 115.06C70.0663 115.06 72.8414 115.608 76.1567 113.177C79.0218 111.081 87.2324 104.884 92.9872 100.529C96.4416 97.9099 99.012 95.9616 99.012 95.9616L99.4705 95.7324C99.626 96.0517 99.7733 96.3627 99.9371 96.682L99.9289 96.6902Z" fill="#AAC6D7"></path><path d="M79.4951 95.8056L84.1938 92.6212L77.2276 92.1792L72.4551 91.8845L66.6676 91.5161L66.1191 91.3524C66.291 90.763 66.4548 90.19 66.6267 89.6006L67.1669 89.7561C73.4538 89.8871 82.4666 90.4356 90.0632 90.9676C92.519 91.1396 94.8193 91.3115 96.8412 91.467L97.4961 91.2214C98.0773 92.7604 98.7322 94.2748 99.4607 95.7483L99.0023 95.9775C99.0023 95.9775 96.4319 97.9176 92.9774 100.545L91.3402 98.3842L79.9535 97.1972L69.3444 104.335L68.5749 103.198L79.4869 95.8138L79.4951 95.8056Z" fill="#AAC6D7"></path><path d="M98.7265 64.8045L98.3009 67.424C96.7619 67.162 95.3621 66.7691 94.2242 66.2288L93.6758 66.2043C93.7331 64.5262 93.8641 62.848 94.0441 61.1781L94.3143 61.0635C94.8054 62.1931 95.5831 63.1918 96.59 63.9204C97.2121 64.3788 97.9734 64.7226 98.7347 64.8045H98.7265Z" fill="#C5B98E"></path><path d="M99.0613 28.4589L99.0368 28.7863C98.1445 28.7126 97.2522 28.639 96.3599 28.5653C95.2794 28.4752 94.1333 28.4016 93.1183 28.7045L93.0691 28.5571C92.6435 27.1573 92.3979 25.7411 92.3242 24.3413H92.4798C92.578 22.9988 94.4444 21.9019 95.7624 22.1802C97.0803 22.4585 98.0544 23.6373 98.4883 24.898C98.9303 26.175 99.0695 27.1164 99.0613 28.4671V28.4589Z" fill="#1A1A1A"></path><path d="M97.4883 91.2127L96.8334 91.4583C94.8115 91.3028 92.5112 91.1309 90.0554 90.959L90.0881 90.5169C88.672 89.6083 87.5587 88.3231 86.6582 86.8087L86.7155 86.7678C88.762 86.8742 90.8331 86.3175 92.5439 85.2124L92.6667 84.7949C93.5836 85.5235 94.5986 86.0392 95.6956 86.2193L95.8429 86.1784C96.3013 87.881 96.8498 89.5592 97.4801 91.2127H97.4883Z" fill="#C5B98E"></path><path d="M96.3344 50.1283C96.6455 50.4558 96.4572 50.9961 96.228 51.389C95.4749 52.6496 94.3616 53.6974 93.0518 54.3605L92.9863 54.3196C92.9863 52.7724 93.7394 51.2416 94.9755 50.2921C95.3766 49.981 95.9988 49.7518 96.3344 50.1283Z" fill="#1A1A1A"></path><path d="M85.138 65.622C84.4668 63.9848 83.6318 62.6177 82.5349 61.8564C82.3712 61.75 82.1992 61.6436 82.0273 61.5617L82.8541 58.8604C85.2608 59.5807 87.733 60.0883 90.2297 60.3911L90.156 61.0378C91.6377 63.3054 91.8424 64.3777 93.2913 67.3001H93.6433C93.5696 70.1243 93.6597 72.9485 93.938 75.7563C94.2572 79.0716 94.8384 82.3542 95.6816 85.5631C95.7307 85.7677 95.788 85.9888 95.8535 86.1934L95.7062 86.2343C94.6092 86.0542 93.5942 85.5385 92.6773 84.81C90.8928 83.3856 89.5175 81.1426 88.6335 79.0388C88.527 78.7851 88.4206 78.5231 88.3306 78.2694C87.8967 77.0906 87.5365 75.0523 87.0699 72.8011C86.5951 70.4272 86.0221 67.8076 85.1462 65.6465C85.1462 65.6465 85.1462 65.6438 85.1462 65.6384L85.138 65.622Z" fill="#A48733"></path><path d="M93.7212 58.5674C93.7376 59.2959 93.9013 60.0163 94.1469 60.6876C92.8371 60.6548 91.5274 60.5484 90.2258 60.3847C87.7291 60.09 85.2651 59.5743 82.8502 58.8539C79.3793 57.8306 76.0395 56.3735 72.9288 54.5399L72.8633 54.5071C73.2644 53.7868 73.4117 52.9518 73.5509 52.125H73.5591C76.2359 53.6312 79.0028 55.1456 81.0657 56.0952C84.5529 57.6997 89.0225 58.3709 93.6148 57.8143L93.713 58.5592L93.7212 58.5674Z" fill="#A48733"></path><path d="M67.1427 104.164L68.5834 103.19L69.3529 104.328L80.7315 105.81L91.3487 98.3769L92.9859 100.538C87.2312 104.893 79.0206 111.09 76.1555 113.185C72.8402 115.608 70.0651 115.068 70.0651 115.068C65.923 114.757 56.9839 113.922 47.9711 113.095C39.0319 112.277 30.011 111.434 25.4923 111.114C25.1812 110.648 25.0584 110.263 25.1321 109.919C25.2058 109.51 25.5578 109.158 26.1717 108.798C36.2733 103.067 52.3424 94.5868 62.403 89.1104L62.7632 89.1349C62.6977 90.1336 62.6076 91.1159 62.493 92.1064H62.4439L45.1633 101.962L39.2612 105.327L33.842 108.413L40.047 108.888L46.6286 109.395L53.1528 109.886L58.1217 110.263L62.2475 107.472L67.1345 104.164H67.1427Z" fill="#AAC6D7"></path><path d="M92.6755 84.7946L92.5527 85.2121C90.8418 86.3172 88.7707 86.8738 86.7242 86.7674L86.6669 86.8083C85.5209 84.8928 84.7269 82.6253 84.1211 80.2513C85.9466 80.325 87.1008 79.973 88.6316 79.0234C89.5157 81.1272 90.8991 83.3702 92.6755 84.7946Z" fill="#C5B98E"></path><path d="M91.3493 98.3754L80.7239 105.808L69.3535 104.327L79.9544 97.1885L91.3493 98.3754Z" fill="#AAC6D7"></path><path d="M91.4063 29.6706L91.5209 29.7606C90.9806 30.5219 90.8333 31.5943 91.2917 32.3065L88.795 33.739C87.3297 34.5167 85.8398 35.2371 84.3254 35.9083L84.2763 35.7937C82.7537 35.1961 82.2134 33.1005 82.942 31.6352C83.6705 30.1699 85.3077 29.335 86.9367 29.1385C88.5658 28.942 89.8018 29.335 91.4063 29.6788V29.6706Z" fill="#A48733"></path><path d="M88.3214 78.2534C88.4196 78.5072 88.5179 78.7691 88.6243 79.0229C87.1017 79.9806 85.9475 80.3245 84.1138 80.2508C83.5735 78.1224 83.197 75.9122 82.8613 73.8166H82.9104C83.4507 73.8166 85.3171 73.8985 87.0362 72.7852H87.0689C87.5355 75.0363 87.8875 77.0746 88.3296 78.2452L88.3214 78.2534Z" fill="#C5B98E"></path><path d="M87.0674 72.7776H87.0346C85.3238 73.8991 83.4573 73.8254 82.9089 73.809H82.8598C82.6142 72.2455 82.385 70.7393 82.1476 69.364C82.0493 68.7747 81.9266 68.1607 81.7383 67.5795C82.3932 67.4076 83.9158 66.941 85.1355 65.623C86.0114 67.776 86.5926 70.3955 87.0592 72.7776H87.0674Z" fill="#C5B98E"></path><path d="M85.1366 65.6242C85.1366 65.6242 85.1448 65.6324 85.1366 65.6324C83.9169 66.9421 82.3943 67.4169 81.7394 67.5888C81.5429 66.983 81.2564 66.4346 80.8144 65.9843C80.3887 65.5587 79.8484 65.2722 79.2754 65.1494C79.5783 64.6991 80.5852 63.2011 80.577 61.2119C81.0845 61.2447 81.5757 61.3511 82.0259 61.5639C82.1978 61.6458 82.3697 61.744 82.5334 61.8586C83.6385 62.6199 84.4735 63.987 85.1366 65.6242Z" fill="#C5B98E"></path><path d="M84.1918 92.6208L79.493 95.8051L73.7383 95.2403L77.1764 92.8745L77.2255 92.1787L84.1918 92.6208Z" fill="#5D8F8E"></path><path d="M80.5767 61.212C79.5289 61.1301 78.3992 61.4085 77.4496 61.8833C75.8697 62.6609 74.6336 64.0034 73.6022 65.436C66.8651 74.8417 68.5924 88.6842 63.2142 98.9085C63.206 98.9167 63.206 98.9249 63.1978 98.9413C62.6657 99.7763 62.019 100.538 61.225 101.127C59.9971 102.036 58.2862 102.388 56.8618 101.995C56.8127 101.986 56.7718 101.97 56.7227 101.962C57.6559 102.101 58.72 101.831 59.465 101.217C60.8239 100.112 61.3887 98.3191 61.7652 96.6164C61.9044 96.0025 62.019 95.3804 62.1254 94.75C62.281 93.8741 62.4037 92.9901 62.502 92.1142C62.6248 91.1236 62.7148 90.1413 62.7721 89.1426C63.0914 84.6649 63.0259 80.1298 63.2878 75.6357C63.4761 72.4514 63.8363 69.2097 64.6058 66.1154L65.3671 66.3119C66.5868 66.934 68.134 65.9844 68.6415 64.7074C69.1572 63.4468 68.928 62.006 68.6824 60.6717C69.9512 61.0892 71.4738 60.5489 72.2106 59.4193C72.931 58.2896 72.7836 56.677 71.8668 55.7028L71.8177 55.621C72.2515 55.3836 72.6199 54.9825 72.8737 54.5322L72.9391 54.565C76.0498 56.3904 79.3979 57.8476 82.8606 58.879L82.0338 61.5804C81.5836 61.3675 81.0924 61.2611 80.5849 61.2284L80.5767 61.212Z" fill="#A48733"></path><path d="M80.5758 61.211C80.5922 63.2002 79.5771 64.6982 79.2742 65.1484C78.0954 64.8701 76.7365 65.1648 75.7051 65.8606C74.1743 66.9002 73.2493 68.6029 72.4962 70.2892C69.7293 76.4287 68.4114 83.0839 66.6186 89.6C66.4549 90.1894 66.2912 90.7624 66.1111 91.3518C65.7182 92.6943 65.2925 94.0286 64.8259 95.3384C64.4248 96.4599 63.9746 97.6059 63.3688 98.6292C63.3197 98.7192 63.2624 98.8011 63.2051 98.8911C68.5833 88.6668 66.856 74.8243 73.5931 65.4186C74.6246 63.986 75.8606 62.6435 77.4405 61.8658C78.3901 61.3992 79.5116 61.1127 80.5676 61.1946L80.5758 61.211Z" fill="#C5B98E"></path><path d="M73.7403 95.2422L79.4951 95.807L68.5831 103.191L67.1424 104.165C65.8163 104.099 63.8434 103.928 61.4531 103.707L73.7403 95.2422Z" fill="#5D8F8E"></path><path d="M77.2281 92.1785L77.179 92.8743L73.7408 95.24L68.8047 94.7653C70.1963 93.7502 71.5143 92.8006 72.4311 92.1949L72.4556 91.8838L77.2281 92.1785Z" fill="#5D8F8E"></path><path d="M63.1963 98.9251C63.1963 98.9251 63.2044 98.9087 63.2126 98.8923C63.2617 98.8023 63.319 98.7204 63.3763 98.6304L63.5974 98.7614C64.7925 97.7709 66.8554 96.2073 68.7955 94.7666L73.7316 95.2414L61.4444 103.706C59.6435 103.542 57.6134 103.354 55.4277 103.141L56.803 102.159L56.8439 101.978C58.2765 102.371 59.9792 102.019 61.2071 101.111C62.0011 100.521 62.6478 99.7601 63.1799 98.9251H63.1963Z" fill="#5D8F8E"></path><path d="M73.5624 52.1256H73.5542C73.415 52.9606 73.2677 53.7955 72.8665 54.5159C72.6128 54.9661 72.2444 55.3672 71.8105 55.6046C71.5322 55.7602 71.2293 55.8502 70.9101 55.8666C70.4107 55.883 69.9605 55.6947 69.5512 55.4082C69.0601 55.0562 68.6507 54.5405 68.3069 54.0329C67.0217 52.1256 66.1131 49.989 65.6465 47.7461L65.6874 47.3613C66.2523 47.8034 66.858 48.2045 67.431 48.5401C69.0928 49.5224 71.2948 50.8158 73.5624 52.1174V52.1256Z" fill="white"></path><path d="M68.8078 94.7671C66.8595 96.2078 64.7967 97.7713 63.6097 98.7618L63.3887 98.6309C63.9944 97.6076 64.4447 96.4616 64.8458 95.3401C65.3124 94.0303 65.7462 92.696 66.131 91.3535L66.6794 91.5172L72.467 91.8856L72.4424 92.1967C71.5174 92.8024 70.1994 93.752 68.816 94.7671H68.8078Z" fill="#5D8F8E"></path><path d="M71.8594 55.6865C72.7844 56.6607 72.9318 58.2733 72.2032 59.403C71.4747 60.5326 69.9521 61.0729 68.675 60.6554L66.6367 60.2379C67.3816 58.6744 68.2903 57.1846 69.379 55.8093L69.5509 55.4082C69.9602 55.6947 70.4105 55.883 70.9098 55.8666C71.2209 55.8503 71.532 55.7602 71.8103 55.6047L71.8594 55.6865Z" fill="#604020"></path><path d="M68.6743 60.6548C68.9199 61.9973 69.1491 63.4298 68.6334 64.6905C68.1258 65.9593 66.5787 66.9171 65.359 66.2949L64.5977 66.0985C65.0888 64.0684 65.7519 62.0955 66.636 60.2373L68.6743 60.6548Z" fill="#604020"></path><path d="M67.143 104.162L62.256 107.469L62.0268 107.125C60.8807 107.06 59.0962 106.978 56.9023 106.847L61.4619 103.712C63.8441 103.925 65.8251 104.097 67.1512 104.17L67.143 104.162Z" fill="#5D8F8E"></path><path d="M62.4428 92.1055H62.4919C62.3937 92.9896 62.2709 93.8736 62.1153 94.7495L61.7879 94.7004C59.8232 96.1084 54.6988 99.4647 49.8281 102.6C48.3383 102.453 46.8075 102.305 45.2685 102.158L45.1621 101.97L62.4428 92.1055Z" fill="#5D8F8E"></path><path d="M62.0197 107.128L62.2489 107.472L58.1232 110.263L53.1543 109.887L53.187 109.395L56.8871 106.85C59.0892 106.989 60.8655 107.062 62.0116 107.128H62.0197Z" fill="#5D8F8E"></path><path d="M56.7223 101.954C56.7714 101.962 56.8124 101.979 56.8615 101.987L56.8206 102.167L55.4453 103.149C53.6608 102.969 51.7698 102.789 49.8379 102.601C54.7168 99.4654 59.8412 96.1092 61.7976 94.7012L62.1251 94.7503C62.0187 95.3806 61.9041 95.9946 61.7649 96.6167C61.3883 98.3194 60.8235 100.112 59.4646 101.217C58.7197 101.831 57.6555 102.101 56.7223 101.962V101.954Z" fill="#5D8F8E"></path><path d="M61.453 103.713L56.8934 106.848C55.0843 106.75 53.0051 106.611 50.7539 106.463L55.4363 103.14C57.622 103.352 59.6603 103.549 61.453 103.704V103.713Z" fill="#5D8F8E"></path><path d="M42.813 55.7767L58.8248 86.3596L23.5513 105.605C16.5604 93.858 11.6816 84.4114 5.30469 71.7149L42.813 55.7686V55.7767Z" fill="#7B4CFF"></path><path d="M56.8918 106.848L53.1918 109.393L53.159 109.885L46.6348 109.393L50.7523 106.463C53.0035 106.61 55.0827 106.741 56.8918 106.848Z" fill="#5D8F8E"></path><path d="M55.4376 103.147L50.7552 106.471C48.7742 106.332 46.6459 106.176 44.4766 105.996C46.0892 104.981 47.9311 103.811 49.8302 102.591C51.7621 102.779 53.6531 102.959 55.4376 103.139V103.147Z" fill="#5D8F8E"></path><path d="M44.435 53.837C46.4324 57.7336 62.4033 89.1023 62.4033 89.1023C52.3345 94.5788 36.2654 103.059 26.172 108.79C25.5581 109.142 25.2061 109.494 25.1324 109.911L24.9278 109.846C22.2591 110.214 20.1799 107.676 18.7637 105.376C15.0145 99.3103 11.7892 92.9334 8.58031 86.5728C6.57473 82.619 3.69326 76.2912 1.68769 72.3292C0.787228 70.5283 0.279695 68.6537 3.39038 66.4189C5.01939 65.2401 32.6144 54.4182 38.5247 52.1262C38.5247 52.1262 42.4376 49.9323 44.435 53.8289V53.837ZM58.8342 86.36L42.8224 55.7771L5.31409 71.7234C11.691 84.4117 16.5698 93.8666 23.5607 105.613L58.8342 86.3682V86.36Z" fill="#AAC6D7"></path><path d="M50.7538 106.463L46.6362 109.393L40.0547 108.886V108.722C41.0043 108.165 42.5842 107.191 44.4751 105.996C46.6444 106.168 48.7646 106.324 50.7538 106.471V106.463Z" fill="#5D8F8E"></path><path d="M45.2718 102.148C46.8026 102.296 48.3334 102.443 49.8314 102.59C47.9405 103.802 46.0986 104.981 44.4778 105.996C42.7997 105.857 41.0888 105.709 39.3943 105.545L39.2715 105.324L45.1736 101.96L45.28 102.148H45.2718Z" fill="#5D8F8E"></path><path d="M39.3939 105.546C41.0966 105.702 42.7992 105.857 44.4774 105.996C42.5864 107.192 41.0065 108.166 40.0651 108.722V108.886L33.8438 108.411L39.2629 105.325L39.3857 105.546H39.3939Z" fill="#5D8F8E"></path><path d="M128.751 44.832C127.588 48.0655 126.696 51.389 126.057 54.7698C125.468 57.9706 125.108 61.2204 124.993 64.4702V64.9614C124.928 67.3681 124.993 69.7911 125.198 72.1978C125.378 74.2443 125.648 76.2908 126.025 78.3128C126.041 78.3946 126.049 78.4765 126.074 78.5583C126.901 82.9051 128.3 87.3828 131.509 90.4444C134.718 93.506 140.154 94.5702 143.584 91.7624" stroke="black" stroke-width="1.56" stroke-linecap="round" stroke-linejoin="round"></path><path d="M94.0409 61.1777C93.8609 62.8477 93.7299 64.5258 93.6726 66.2039C93.6562 66.5641 93.6398 66.9325 93.6398 67.2927C93.5662 70.1168 93.6562 72.9328 93.9345 75.7406C94.2538 79.056 94.835 82.3385 95.6781 85.5474C95.7273 85.7521 95.7846 85.9731 95.8501 86.1778C96.3085 87.8805 96.8569 89.5586 97.4873 91.2122C98.0685 92.7511 98.7233 94.2655 99.4519 95.739C99.6074 96.0583 99.7548 96.3693 99.9185 96.6886C99.9594 96.7541 99.9922 96.8359 100.033 96.9096C100.123 97.0815 100.205 97.2452 100.303 97.4008C101.752 100.102 103.479 102.673 105.436 105.046C107.245 107.265 109.267 109.311 111.453 111.145C114.236 113.486 117.306 115.484 120.58 117.031C122.831 118.095 125.172 118.938 127.595 119.536C132.867 120.854 138.466 120.895 143.787 119.732C149.935 118.373 155.69 115.41 160.037 110.924C160.413 110.547 160.773 110.146 161.125 109.745C169.164 100.495 172.659 87.3566 164.154 75.536C161.101 71.2793 156.836 68.5042 152.374 66.646C150.312 65.7946 148.2 65.1316 146.137 64.624C139.637 63.0114 131.901 63.6335 125.344 64.9678" stroke="black" stroke-width="1.56" stroke-linecap="round" stroke-linejoin="round"></path><path d="M144.944 119.488C144.56 119.578 144.175 119.668 143.798 119.725C138.78 120.576 134.9 118.522 131.094 113.43C130.463 112.579 129.825 111.637 129.194 110.598C128.564 109.599 127.95 108.518 127.328 107.348C126.28 105.408 125.216 103.238 124.119 100.84C124.103 100.807 124.095 100.774 124.07 100.742C122.801 97.942 121.745 95.0769 120.877 92.2118C120.124 89.7233 119.527 87.2348 119.036 84.7462C118.446 81.7174 118.029 78.7295 117.775 75.8071C117.652 74.5465 117.562 73.3104 117.505 72.0743C117.398 70.2243 117.357 68.4151 117.357 66.6633C117.357 63.6673 117.48 60.8431 117.677 58.2563C117.947 54.7527 118.356 51.6912 118.774 49.2354" stroke="black" stroke-width="1.56" stroke-linecap="round" stroke-linejoin="round"></path><path d="M103.691 57.9611C108.685 54.9977 113.678 52.018 118.655 49.0547L119.58 48.5062C121.832 47.1801 124.115 45.8212 126.653 45.1909C127.341 45.019 128.045 44.9044 128.749 44.8307C131.327 44.5197 133.98 44.667 136.534 44.184C139.784 43.5455 143.189 41.2616 143.304 37.9381C143.394 35.4414 141.503 33.2066 139.26 32.1179C137 31.0291 134.438 30.8409 131.933 30.6689" stroke="black" stroke-width="1.56" stroke-linecap="round" stroke-linejoin="round"></path><path d="M130.881 31.7091C130.914 31.5945 130.955 31.4717 130.988 31.3571C131.07 31.087 131.151 30.8087 131.225 30.5222C132.019 27.7635 132.649 24.9393 132.764 22.0742C132.895 18.7916 132.297 15.4108 130.578 12.6194C128.876 9.81977 125.945 7.67504 122.671 7.37216C119.396 7.06928 115.917 8.85382 114.648 11.8826" stroke="black" stroke-width="1.56" stroke-linecap="round" stroke-linejoin="round"></path><path d="M114.081 12.0469C112.992 10.0004 110.962 8.46147 108.687 7.9785C106.411 7.49552 103.939 8.07673 102.113 9.50928" stroke="black" stroke-width="1.56" stroke-linecap="round" stroke-linejoin="round"></path><path d="M107.966 29.5318C107.893 27.7636 107.893 25.9627 108.073 24.1945C108.318 21.7469 108.908 19.3647 110.07 17.2118C110.537 16.3441 111.11 15.5255 111.781 14.7888C112.665 13.7901 113.721 12.9387 114.875 12.3002C116.545 11.3752 118.42 10.9086 120.319 11.1378C124.445 11.629 127.703 15.2636 128.791 19.2665C129.806 22.942 129.299 26.8795 128.284 30.5877C128.202 30.8988 128.112 31.2181 128.014 31.5291" stroke="black" stroke-width="1.56" stroke-linecap="round" stroke-linejoin="round"></path><path d="M111.44 14.4209C109.721 11.212 105.791 9.55026 102.181 10.0823C101.919 10.1069 101.649 10.1642 101.396 10.2215C97.5972 11.1056 94.814 13.7497 93.4305 17.3924C92.5792 19.6682 92.2026 22.0012 92.3254 24.3424C92.3991 25.7422 92.6447 27.1583 93.0704 28.5581" stroke="black" stroke-width="1.56" stroke-linecap="round" stroke-linejoin="round"></path><path d="M91.7506 32.7669C91.5541 32.6441 91.3986 32.4886 91.2922 32.3085C90.8256 31.5963 90.9811 30.5239 91.5214 29.7626C91.6933 29.517 91.898 29.3042 92.1517 29.1405C92.4464 28.944 92.7739 28.8049 93.1095 28.6984C94.1245 28.3956 95.2788 28.4692 96.3511 28.5593C97.2434 28.633 98.1357 28.7066 99.028 28.7803C101.999 29.0259 104.979 29.2715 107.951 29.517C110.112 29.689 112.265 29.869 114.426 30.0491C117.815 30.3275 121.204 30.614 124.593 30.8923C125.665 30.9742 126.762 31.0806 127.712 31.5799C127.777 31.6127 127.843 31.6536 127.908 31.6945C128.76 32.2266 129.39 33.1844 129.251 34.1667C129.103 35.2227 127.753 36.0249 126.877 35.4028" stroke="black" stroke-width="1.56" stroke-linecap="round" stroke-linejoin="round"></path><path d="M88.8042 33.7402C87.3389 34.5179 85.8491 35.2383 84.3346 35.9095C79.9469 37.8578 75.3546 39.3886 70.6722 40.4446C70.6067 40.4609 70.5248 40.4855 70.4512 40.5019" stroke="black" stroke-width="1.56" stroke-linecap="round" stroke-linejoin="round"></path><path d="M70.6447 40.3618C70.6447 38.5854 69.7361 36.8009 68.2381 35.8185C66.7482 34.8444 64.6935 34.7544 63.1709 35.6794C61.6483 36.6044 60.7724 38.5281 61.1899 40.2635C61.4928 41.5078 62.4587 42.5638 63.6457 43.014C64.1123 43.1859 64.6117 43.2842 65.1192 43.2514" stroke="black" stroke-width="1.56" stroke-linecap="round" stroke-linejoin="round"></path><path d="M63.5736 43.1128C63.1561 44.7828 64.2612 46.2317 65.6856 47.3695C66.2504 47.8116 66.8562 48.2127 67.4292 48.5483C69.091 49.5307 71.293 50.824 73.5605 52.1256C76.2374 53.64 79.0042 55.1544 81.0671 56.104C84.5544 57.7085 89.0239 58.3797 93.6163 57.8231C96.7842 57.4465 100.026 56.4888 103.038 54.8679L103.096 54.8352C114.22 48.7939 129.135 39.2818 134.538 39.5028" stroke="black" stroke-width="1.56" stroke-linecap="round" stroke-linejoin="round"></path><path d="M89.1123 54.5317C89.0877 53.3939 89.2187 52.2642 89.4889 51.1673C89.6198 50.5861 89.8081 50.0212 90.0291 49.4728C90.7904 47.5654 92.1084 45.7727 94.0075 45.0032C95.9149 44.2419 98.4198 44.8231 99.3776 46.6322C100.041 47.901 99.836 49.4809 99.1975 50.758C98.6408 51.8713 97.8058 52.8045 96.9463 53.6967C96.8071 53.8359 96.6762 53.9669 96.5452 54.106" stroke="black" stroke-width="1.56" stroke-linecap="round" stroke-linejoin="round"></path><path d="M92.9863 54.3196C92.9863 52.7724 93.7394 51.2416 94.9755 50.2921C95.3766 49.981 95.9988 49.7518 96.3344 50.1283C96.6455 50.4558 96.4572 50.9961 96.228 51.389C95.4749 52.6496 94.3616 53.6974 93.0518 54.3605" stroke="black" stroke-width="1.56" stroke-linecap="round" stroke-linejoin="round"></path><path d="M89.5093 51.1829L89.4929 51.1666C87.6838 49.4803 87.1681 46.5579 88.3059 44.3722C89.452 42.162 92.1533 40.9013 94.5764 41.4252C95.174 39.1168 97.4743 37.365 99.8564 37.4141C102.247 37.455 104.481 39.2887 104.981 41.6299C106.634 40.1073 108.705 39.0595 110.907 38.6584C111.865 38.4701 112.88 38.421 113.789 38.7648C114.698 39.1004 115.483 39.919 115.549 40.8931C115.631 42.121 114.616 43.1443 113.576 43.8074C112.545 44.4704 111.35 45.0271 110.703 46.0831C111.538 46.3123 113.371 49.5867 109.066 51.0274C107.06 51.6987 104.891 51.494 102.787 51.6332C100.691 51.7641 98.4566 52.2553 97.0076 53.7861" stroke="black" stroke-width="0.9" stroke-linecap="round" stroke-linejoin="round"></path><path d="M108.154 24.2096C109.53 22.908 111.953 23.3337 113.213 24.7335C114.466 26.1333 114.736 28.1962 114.433 30.0544" stroke="black" stroke-width="1.56" stroke-linecap="round" stroke-linejoin="round"></path><path d="M92.4766 24.3244C92.5748 22.99 94.4412 21.8931 95.7592 22.1714C97.0771 22.4498 98.0512 23.6285 98.4851 24.8892C98.9271 26.1662 99.0663 27.1076 99.0581 28.4583" stroke="black" stroke-width="1.56" stroke-linecap="round" stroke-linejoin="round"></path><path d="M84.2841 35.7859C82.7615 35.1883 82.2212 33.0927 82.9498 31.6274C83.6783 30.1621 85.3155 29.3272 86.9446 29.1307C88.5736 28.9342 89.8097 29.3272 91.4141 29.671" stroke="black" stroke-width="1.56" stroke-linecap="round" stroke-linejoin="round"></path><path d="M93.7227 58.5674C93.739 59.296 93.9028 60.0164 94.1483 60.6876C94.2056 60.8186 94.2547 60.9414 94.312 61.0642C94.8032 62.1938 95.5809 63.1925 96.5878 63.9211C97.2099 64.3795 97.9712 64.7233 98.7325 64.8052C99.2891 64.8706 99.854 64.7888 100.345 64.5105C101.229 64.0029 101.679 62.9961 102.015 62.0219C102.31 61.1706 102.547 60.2865 102.735 59.4024C102.85 58.8949 102.932 58.371 103.022 57.8389C103.145 56.9793 103.21 56.1034 103.243 55.2275" stroke="black" stroke-width="1.56" stroke-linecap="round" stroke-linejoin="round"></path><path d="M94.2133 60.6887H94.1478C92.8381 60.6478 91.5283 60.5495 90.2267 60.3858C87.73 60.0911 85.266 59.5754 82.8511 58.855C79.3803 57.8318 76.0404 56.3747 72.9297 54.541" stroke="black" stroke-width="1.56" stroke-linecap="round" stroke-linejoin="round"></path><path d="M65.6465 47.7539C66.1213 49.9887 67.0299 52.1334 68.3069 54.0408C68.6426 54.5483 69.0601 55.064 69.5512 55.416C69.9605 55.7025 70.4107 55.8908 70.9101 55.8744C71.2212 55.858 71.5322 55.768 71.8105 55.6125C72.2444 55.3751 72.6128 54.974 72.8665 54.5237C73.2677 53.8034 73.415 52.9684 73.5542 52.1416" stroke="black" stroke-width="1.56" stroke-linecap="round" stroke-linejoin="round"></path><path d="M56.7227 101.953C57.6559 102.092 58.72 101.822 59.465 101.208C60.8239 100.103 61.3887 98.3099 61.7652 96.6072C61.9044 95.9933 62.019 95.3712 62.1254 94.7408C62.281 93.8649 62.4037 92.9808 62.502 92.1049C62.6248 91.1144 62.7148 90.1321 62.7721 89.1334C63.0914 84.6557 63.0259 80.1206 63.2878 75.6265C63.4761 72.4422 63.8363 69.2005 64.6058 66.1062C65.0969 64.0761 65.76 62.1033 66.6441 60.245C67.389 58.6815 68.2977 57.1917 69.3864 55.8164" stroke="black" stroke-width="1.56" stroke-linecap="round" stroke-linejoin="round"></path><path d="M54.8887 100.783C55.2734 101.454 55.9447 101.839 56.706 101.946" stroke="black" stroke-width="1.56" stroke-linecap="round" stroke-linejoin="round"></path><path d="M63.2129 98.9004C63.262 98.8103 63.3193 98.7285 63.3766 98.6384C63.9824 97.6152 64.4326 96.4692 64.8337 95.3477C65.3003 94.0379 65.7342 92.7036 66.1189 91.3611C66.2908 90.7717 66.4546 90.1987 66.6265 89.6093C68.4192 83.0932 69.729 76.438 72.504 70.2985C73.2653 68.604 74.1903 66.9095 75.7129 65.8699C76.7444 65.1741 78.1032 64.8794 79.282 65.1577C79.8632 65.2805 80.3953 65.567 80.821 65.9927C81.2549 66.4429 81.5495 66.9914 81.746 67.5971C81.9343 68.1783 82.0571 68.7923 82.1553 69.3817C82.3927 70.7487 82.6219 72.255 82.8675 73.8349C83.2031 75.9305 83.5797 78.1407 84.12 80.2691C84.7175 82.643 85.5198 84.9187 86.6658 86.826C87.5745 88.3405 88.6877 89.6257 90.0957 90.5343" stroke="black" stroke-width="1.56" stroke-linecap="round" stroke-linejoin="round"></path><path d="M54.9941 100.767C55.4362 101.34 56.0338 101.724 56.6968 101.937C56.705 101.937 56.7132 101.945 56.7132 101.945C56.7623 101.954 56.8032 101.97 56.8524 101.978C58.2849 102.371 59.9876 102.019 61.2155 101.11C62.0095 100.521 62.6562 99.7598 63.1883 98.9248" stroke="black" stroke-width="1.56" stroke-linecap="round" stroke-linejoin="round"></path><path d="M85.1367 65.6328C86.0126 67.7857 86.5938 70.4052 87.0604 72.7874C87.527 75.0467 87.879 77.085 88.3211 78.2556C88.4193 78.5094 88.5175 78.7713 88.624 79.0251C89.508 81.1289 90.8915 83.3719 92.6678 84.7962C93.5847 85.5248 94.5997 86.0405 95.6967 86.2206" stroke="black" stroke-width="1.56" stroke-linecap="round" stroke-linejoin="round"></path><path d="M62.9258 99.4396C63.0158 99.2759 63.1141 99.0958 63.1959 98.9239C63.2041 98.9157 63.2041 98.9075 63.2123 98.8911C68.5905 88.6668 66.8633 74.8243 73.6003 65.4186C74.6318 63.986 75.8679 62.6435 77.4478 61.8658C78.3973 61.3992 79.5188 61.1127 80.5748 61.1946C81.0823 61.2273 81.5735 61.3337 82.0237 61.5466C82.1956 61.6284 82.3676 61.7267 82.5313 61.8413C83.6364 62.6026 84.4714 63.9696 85.1344 65.6068" stroke="black" stroke-width="1.56" stroke-linecap="round" stroke-linejoin="round"></path><path d="M90.1562 61.0312C91.6379 63.2988 91.8426 64.3711 93.2915 67.2935" stroke="black" stroke-width="1.56" stroke-linecap="round" stroke-linejoin="round"></path><path d="M65.3594 66.2956C66.5791 66.9177 68.1262 65.9681 68.6338 64.6911C69.1495 63.4305 68.9203 61.9897 68.6747 60.6554C69.9435 61.0729 71.4661 60.5326 72.2029 59.403C72.9232 58.2733 72.7759 56.6607 71.8591 55.6865" stroke="black" stroke-width="0.9" stroke-linecap="round" stroke-linejoin="round"></path><path d="M67.1562 89.7559C73.4431 89.8868 82.4559 90.4353 90.0525 90.9674C92.5083 91.1393 94.8086 91.3112 96.8305 91.4667" stroke="black" stroke-width="1.56" stroke-linecap="round" stroke-linejoin="round"></path><path d="M99.9207 97.6145C99.9207 97.6145 81.0274 112.046 76.4432 115.386C73.1279 117.809 70.3528 117.277 70.3528 117.277C62.7317 116.704 39.0414 114.617 28.3013 113.774C26.8278 113.659 25.6245 112.554 25.3789 111.097C25.4198 111.097 25.4608 111.097 25.4935 111.105C30.0122 111.424 39.0332 112.267 47.9723 113.086C56.9851 113.913 65.9242 114.756 70.0663 115.059C70.0663 115.059 72.8414 115.607 76.1567 113.176C79.0218 111.08 87.2324 104.884 92.9871 100.529C96.4416 97.9092 99.012 95.9609 99.012 95.9609" stroke="black" stroke-width="1.56" stroke-linecap="round" stroke-linejoin="round"></path><path d="M24.9278 109.854C22.2591 110.223 20.1799 107.685 18.7637 105.385C15.0145 99.3191 11.7892 92.9422 8.58031 86.5816C6.57473 82.6278 3.69326 76.3 1.68769 72.338C0.787228 70.5371 0.279695 68.6625 3.39038 66.4277C5.01939 65.2489 32.6144 54.427 38.5247 52.135C38.5247 52.135 42.4376 49.9411 44.435 53.8376C46.4324 57.7342 62.4033 89.1029 62.4033 89.1029C52.3345 94.5794 36.2654 103.06 26.172 108.79C25.5581 109.142 25.2061 109.494 25.1324 109.912C25.0587 110.256 25.1815 110.64 25.4926 111.107C25.5335 111.172 25.5826 111.246 25.6399 111.328" stroke="black" stroke-width="1.56" stroke-linecap="round" stroke-linejoin="round"></path><path d="M23.5513 105.605C16.5604 93.858 11.6816 84.4114 5.30469 71.7149L42.813 55.7686L58.8248 86.3514L23.5513 105.597V105.605Z" stroke="black" stroke-width="1.56" stroke-linecap="round" stroke-linejoin="round"></path><path d="M66.6673 91.5156L72.4548 91.884L77.2273 92.1787L84.1936 92.6207L79.4948 95.8051L68.5747 103.189L67.1421 104.163L62.2551 107.478L58.1293 110.262L53.1604 109.885L46.6361 109.394L40.0546 108.886L33.8496 108.42L39.2687 105.334L45.1709 101.961L62.4433 92.105" stroke="black" stroke-width="0.9" stroke-linecap="round" stroke-linejoin="round"></path><path d="M40.0723 108.723C41.0137 108.167 42.5854 107.192 44.4845 105.997C46.0972 104.982 47.939 103.812 49.8382 102.592C54.717 99.4566 59.8415 96.1004 61.7979 94.6924" stroke="black" stroke-width="0.9" stroke-linecap="round" stroke-linejoin="round"></path><path d="M46.6348 109.395L50.7523 106.464L55.4347 103.149L56.81 102.158" stroke="black" stroke-width="0.9" stroke-linecap="round" stroke-linejoin="round"></path><path d="M53.1953 109.395L56.8954 106.849L61.455 103.714L73.7422 95.2417L77.1803 92.876" stroke="black" stroke-width="0.9" stroke-linecap="round" stroke-linejoin="round"></path><path d="M63.6016 98.7605C64.7967 97.77 66.8596 96.2065 68.7997 94.7657C70.1913 93.7507 71.5092 92.8011 72.4261 92.1953" stroke="black" stroke-width="0.9" stroke-linecap="round" stroke-linejoin="round"></path><path d="M39.3926 105.548C41.0953 105.703 42.798 105.859 44.4761 105.998C46.6454 106.17 48.7656 106.326 50.7548 106.473C53.0059 106.62 55.0852 106.751 56.8943 106.858C59.0963 106.997 60.8727 107.07 62.0187 107.136" stroke="black" stroke-width="0.9" stroke-linecap="round" stroke-linejoin="round"></path><path d="M45.2715 102.149C46.8023 102.297 48.3331 102.444 49.8311 102.591C51.763 102.78 53.654 102.96 55.4385 103.14C57.6242 103.353 59.6625 103.549 61.4552 103.705C63.8374 103.918 65.8184 104.089 67.1445 104.163C67.2509 104.171 67.3573 104.188 67.4556 104.188" stroke="black" stroke-width="0.9" stroke-linecap="round" stroke-linejoin="round"></path><path d="M65.7266 94.4707L68.8045 94.7654L73.7407 95.2402L79.4954 95.805L79.6673 95.8214" stroke="black" stroke-width="0.9" stroke-linecap="round" stroke-linejoin="round"></path><path d="M102.811 59.4198C107.771 60.3202 112.364 59.5917 117.218 58.2246" stroke="black" stroke-width="0.9" stroke-linecap="round" stroke-linejoin="round"></path><path d="M94.2227 66.2373C95.3523 66.7694 96.7603 67.1623 98.2993 67.4325C104.488 68.5294 113.05 67.7681 116.939 66.6712" stroke="black" stroke-width="0.9" stroke-linecap="round" stroke-linejoin="round"></path><path d="M94.2793 75.7002C99.9686 78.3443 112.878 77.1737 117.74 75.8066" stroke="black" stroke-width="0.9" stroke-linecap="round" stroke-linejoin="round"></path><path d="M95.793 85.5234C101.507 87.9219 114.089 86.2929 119.033 84.754C119.099 84.7376 119.172 84.7048 119.238 84.6885" stroke="black" stroke-width="0.9" stroke-linecap="round" stroke-linejoin="round"></path><path d="M99.4121 96.5188C99.5758 96.5761 99.7559 96.6334 99.9278 96.6907C106.256 98.598 116.758 96.486 120.54 92.3193" stroke="black" stroke-width="0.9" stroke-linecap="round" stroke-linejoin="round"></path><path d="M105.445 105.048C111.724 107.586 120.229 105.589 124.068 100.751C124.085 100.734 124.101 100.71 124.118 100.693" stroke="black" stroke-width="0.9" stroke-linecap="round" stroke-linejoin="round"></path><path d="M110.852 110.924C111.056 111.006 111.253 111.088 111.457 111.145C117.556 113.372 124.211 112.201 127.322 107.355C127.355 107.314 127.379 107.265 127.412 107.216" stroke="black" stroke-width="0.9" stroke-linecap="round" stroke-linejoin="round"></path><path d="M120.223 116.501C120.386 116.599 120.558 116.689 120.722 116.771C125.011 118.932 129.874 116.869 131.102 113.439C131.102 113.439 131.105 113.434 131.11 113.423" stroke="black" stroke-width="0.9" stroke-linecap="round" stroke-linejoin="round"></path><path d="M86.7246 86.776C88.7711 86.8825 90.8422 86.3258 92.553 85.2207" stroke="black" stroke-width="0.9" stroke-linecap="round" stroke-linejoin="round"></path><path d="M83.9336 80.252C83.9909 80.252 84.0646 80.2602 84.1219 80.252C85.9473 80.3256 87.1016 79.9736 88.6324 79.0241C88.7224 78.975 88.8125 78.9177 88.9025 78.8604" stroke="black" stroke-width="0.9" stroke-linecap="round" stroke-linejoin="round"></path><path d="M82.918 73.8084C83.4582 73.8248 85.3247 73.8985 87.0437 72.7852" stroke="black" stroke-width="0.9" stroke-linecap="round" stroke-linejoin="round"></path><path d="M85.1367 65.6244C85.1858 65.5834 85.2186 65.5507 85.2595 65.5098" stroke="black" stroke-width="0.9" stroke-linecap="round" stroke-linejoin="round"></path><path d="M85.1367 65.6302C85.1367 65.6302 85.1439 65.6302 85.1367 65.623" stroke="black" stroke-width="1.56" stroke-linecap="round" stroke-linejoin="round"></path><path d="M81.5762 67.6286C81.6253 67.6204 81.6744 67.6041 81.7399 67.5795C82.3948 67.4076 83.9174 66.941 85.1371 65.623" stroke="black" stroke-width="0.9" stroke-linecap="round" stroke-linejoin="round"></path><path d="M79.2754 65.1572C79.5783 64.6988 80.5852 63.2007 80.577 61.2115V61.1133" stroke="black" stroke-width="0.9" stroke-linecap="round" stroke-linejoin="round"></path><path d="M129.488 110.418C129.644 110.353 129.84 110.353 130.069 110.394C131.199 110.631 132.312 109.96 132.468 108.822C132.468 108.789 132.476 108.757 132.476 108.724C132.689 106.71 132.959 104.565 134.457 103.116C135.251 102.339 136.389 101.954 137.486 102.159C139.189 102.478 139.393 103.82 140.007 104.909C140.384 105.589 141.08 106.219 141.841 106.088C142.61 105.957 143.044 105.163 143.404 104.467C144.223 102.887 145.328 101.348 147.105 100.8C148.292 100.431 149.626 100.685 150.428 101.618C151.967 103.411 150.543 106.129 150.952 108.429C151.001 108.691 151.075 108.953 151.23 109.166C151.812 110.001 153.138 109.763 153.932 109.133C154.718 108.495 155.274 107.578 156.175 107.103C157.198 106.563 158.557 106.759 159.384 107.578C160.21 108.388 160.44 109.747 159.916 110.779" stroke="black" stroke-width="0.9" stroke-linecap="round" stroke-linejoin="round"></path><path d="M125.371 72.1876C125.772 73.6284 127.27 74.6189 128.752 74.6025C130.234 74.5943 131.642 73.6693 132.403 72.3841C132.698 71.8848 132.91 71.3281 133.287 70.8779C133.664 70.4276 134.277 70.1002 134.834 70.2967C135.448 70.5013 135.718 71.2053 136.046 71.7701C137.298 73.9313 140.671 74.4224 142.496 72.7279C143.601 71.6965 144.535 69.9201 146.016 70.2476C146.417 70.3294 146.769 70.5832 147.146 70.7715C148.398 71.3854 150.011 71.2135 151.092 70.3294C152.164 69.4781 152.671 67.9882 152.377 66.6457C152.377 66.613 152.369 66.5884 152.36 66.5557" stroke="black" stroke-width="0.9" stroke-linecap="round" stroke-linejoin="round"></path><path d="M125.711 78.3688C125.343 78.7535 124.696 78.6225 124.213 78.4015C121.782 77.2637 120.349 74.6278 120.218 71.9428C120.161 70.8295 120.325 69.7244 120.709 68.6929C121.258 67.244 122.191 65.8196 122.207 64.338C122.207 64.0924 122.191 63.8386 122.142 63.593C121.929 62.6271 121.266 61.8249 120.914 60.8998C120.341 59.4264 120.603 57.65 121.585 56.4139C122.568 55.1697 124.221 54.4984 125.785 54.7194" stroke="black" stroke-width="0.9" stroke-linecap="round" stroke-linejoin="round"></path><path d="M121.457 2.58979C120.728 2.84356 120.507 3.86681 120.884 4.53806C121.269 5.20931 122.055 5.55312 122.816 5.65954C123.577 5.76596 124.355 5.69228 125.124 5.72503C125.804 5.76596 126.491 5.89693 127.154 5.7987C127.834 5.69229 128.522 5.24206 128.636 4.57899C128.792 3.70309 127.965 2.97453 127.179 2.58161C125.37 1.69752 122.922 1.66477 121.482 2.39333L121.457 2.58161V2.58979Z" stroke="black" stroke-width="1.56" stroke-linecap="round" stroke-linejoin="round"></path><path d="M104.029 1.70743C103.3 1.9612 103.071 2.98445 103.456 3.6557C103.833 4.32695 104.627 4.67077 105.388 4.77718C106.149 4.8836 106.935 4.79356 107.696 4.84267C108.376 4.8836 109.063 5.01458 109.726 4.90816C110.39 4.80174 111.077 4.36788 111.208 3.68845C111.356 2.82892 110.537 2.10036 109.751 1.70743C107.942 0.806974 105.494 0.790602 104.054 1.51916L104.029 1.70743Z" stroke="black" stroke-width="1.56" stroke-linecap="round" stroke-linejoin="round"></path><path d="M91.3493 98.3754L79.9544 97.1885L69.3535 104.327L80.7239 105.808L91.3493 98.3754Z" stroke="black" stroke-width="0.9" stroke-linecap="round" stroke-linejoin="round"></path><path d="M14.2363 78.7558L31.2141 71.6504" stroke="white" stroke-width="1.2" stroke-linecap="round" stroke-linejoin="round"></path><path d="M16.1445 81.5204L28.0961 76.1504" stroke="white" stroke-width="1.2" stroke-linecap="round" stroke-linejoin="round"></path><path d="M19.2617 87.9315L31.2133 82.5615" stroke="white" stroke-width="1.2" stroke-linecap="round" stroke-linejoin="round"></path><path d="M19.957 71.3056L31.9086 65.9355" stroke="white" stroke-width="1.2" stroke-linecap="round" stroke-linejoin="round"></path><path d="M17.5254 85.3361L39.0055 75.8076" stroke="white" stroke-width="1.2" stroke-linecap="round" stroke-linejoin="round"></path><path d="M134.208 37.799C134.249 37.8973 134.241 37.8809 134.183 37.7417C134.2 37.7827 134.216 37.8236 134.233 37.8645C134.257 37.9218 134.273 37.9873 134.298 38.0446C134.347 38.1838 134.38 38.3311 134.413 38.4785C134.429 38.5603 134.445 38.6504 134.462 38.7323V38.7977C134.486 38.9042 134.486 38.8796 134.462 38.7241C134.445 38.7486 134.478 38.9123 134.486 38.9451C134.486 39.0188 134.495 39.0924 134.495 39.1743C134.495 39.3216 134.495 39.4772 134.486 39.6245C134.486 39.69 134.478 39.7555 134.47 39.821C134.454 39.9274 134.462 39.9029 134.478 39.7473C134.478 39.7882 134.462 39.8292 134.462 39.8783C134.413 40.173 134.331 40.4677 134.224 40.746C134.044 41.229 134.421 41.8429 134.912 41.9575C135.469 42.0803 135.927 41.7856 136.124 41.2699C136.377 40.5905 136.492 39.8374 136.459 39.1088C136.426 38.2984 136.23 37.5453 135.903 36.8004C135.812 36.5875 135.526 36.4074 135.313 36.3501C135.076 36.2846 134.765 36.3174 134.552 36.4484C134.339 36.5793 134.159 36.784 134.102 37.0378C134.036 37.3079 134.085 37.5371 134.2 37.799H134.208Z" fill="black"></path><g style="mix-blend-mode:darken"><path d="M144.665 83.48C156.773 69.5228 168.978 99.0988 159.687 110.166C155.749 114.857 149.634 118.582 143.519 118.582C138.018 118.582 132.959 115.315 129.349 111.165C121.671 102.349 119.567 90.1024 118.225 78.4947C117.177 69.4164 116.415 60.1089 118.544 51.2189C118.642 50.8096 118.749 50.4003 118.961 50.0402C119.305 49.459 119.895 49.0742 120.476 48.7304C123.144 47.1587 126.1 46.0618 129.145 45.5215C126.353 54.9026 125.207 64.775 125.772 74.549C125.993 78.3473 125.346 78.1018 128.072 81.3107C134.056 88.367 140.892 87.8513 144.674 83.4881L144.665 83.48Z" fill="#806828"></path></g><g style="mix-blend-mode:darken"><path d="M70.9246 60.5977C71.3094 58.8623 71.9724 56.8321 73.6833 56.341C74.5101 56.1036 75.3942 56.3082 76.2374 56.5129C78.6031 57.0941 80.9689 57.6753 83.3428 58.2483C85.332 58.7313 87.4113 59.2716 88.9257 60.6386C89.8834 61.5063 92.1264 64.7152 92.6667 65.8858C94.5576 69.9625 93.5426 72.4756 93.4525 76.9779C93.3952 79.8184 94.8605 84.5172 96.0639 87.0876C90.3091 83.9442 87.3785 76.1102 86.1752 70.5109C85.7822 68.6855 85.553 66.8109 84.8408 65.0836C84.1287 63.3564 82.8107 61.7519 81.0098 61.2689C79.2907 60.8023 77.408 61.449 76.0245 62.5623C74.6329 63.6756 73.6506 65.2146 72.7665 66.7617C69.9096 71.7552 67.3474 77.5591 66.4551 83.2565C68.166 80.5306 67.9777 75.9955 68.5179 72.8685C69.2301 68.7509 70.0324 64.6579 70.9246 60.5813V60.5977Z" fill="#806828"></path></g><g style="mix-blend-mode:darken"><path d="M87.189 54.2698C87.983 54.3353 88.8344 54.3598 89.4893 53.9096C90.1196 53.4757 90.4061 52.6981 90.6599 51.9777C91.3393 50.0458 92.1988 47.9829 93.9834 46.9842C95.7679 45.9856 98.6412 46.9106 98.6985 48.9571C98.7395 50.2914 97.6343 51.7239 98.3711 52.8372C108.137 47.5082 117.518 41.4914 126.416 34.828C125.942 33.8212 124.591 33.3382 123.592 33.8212C122.847 32.9698 124.231 31.7665 125.369 31.832C126.498 31.8975 127.742 32.4214 128.7 31.8156C130.043 27.2314 130.313 22.3444 129.494 17.6456C129.412 17.179 129.322 16.6797 129.502 16.2376C129.904 15.2635 131.41 15.2553 132.163 15.9921C132.916 16.7288 133.088 17.8585 133.162 18.9063C133.415 22.4836 133.006 26.1018 131.958 29.5235C131.844 29.8919 131.737 30.3176 131.942 30.6368C132.179 30.9888 132.67 31.0215 133.096 31.0543C135.928 31.2917 138.483 33.5347 139.072 36.3097C139.661 39.0929 138.245 42.1791 135.748 43.5461C133.759 44.6349 131.377 44.6431 129.134 44.9869C120.719 46.2803 115.332 50.5697 108.35 55.4404C107.237 56.2181 104.208 57.9126 102.857 57.798C103.135 56.8074 103.627 56.701 103.381 55.7105C100.95 56.0216 98.543 56.5128 96.1854 57.1676C95.2768 57.4214 94.3436 57.7243 93.6969 58.4037C93.0502 59.0832 92.8373 60.2701 93.484 60.9496C92.6654 60.09 88.0813 60.09 86.7715 59.7462C84.7086 59.2059 82.0154 58.5101 80.3782 57.0694C75.3357 52.608 85.0361 54.1061 87.1808 54.2862L87.189 54.2698Z" fill="#806828"></path></g><path d="M113.973 24.1425C115.1 22.2776 115.236 20.2956 114.276 19.7156C113.317 19.1356 111.625 20.1773 110.498 22.0422C109.371 23.9071 109.235 25.8891 110.194 26.4691C111.154 27.0491 112.846 26.0074 113.973 24.1425Z" fill="#FEBD02"></path><path d="M99.2854 22.2597C100.413 20.3948 100.549 18.4128 99.589 17.8328C98.6294 17.2528 96.9378 18.2945 95.8105 20.1594C94.6833 22.0243 94.5474 24.0063 95.507 24.5863C96.4665 25.1663 98.1582 24.1246 99.2854 22.2597Z" fill="#FEBD02"></path><g style="mix-blend-mode:darken"><path d="M104.84 19.1602C105.11 18.2433 105.323 17.2938 105.356 16.336C105.437 14.3222 104.742 12.2757 103.448 10.7286C105.069 10.4012 106.706 11.056 108.212 11.7273C109.293 12.2103 110.513 12.8815 110.709 14.0521C110.857 14.9116 110.398 15.7384 109.997 16.5161C107.942 20.56 107.394 25.3488 108.466 29.7529C105.413 29.7856 101.746 29.8511 98.8477 28.8688C100.19 25.4798 103.661 23.0813 104.832 19.152L104.84 19.1602Z" fill="#E89402"></path></g><g style="mix-blend-mode:darken"><path d="M120.662 28.2624C121.71 27.321 122.406 26.044 122.971 24.7506C123.83 22.7942 124.452 20.7068 124.477 18.5702C124.501 16.4337 123.863 14.2398 122.455 12.6436C124.837 12.8318 126.425 15.1812 127.293 17.416C128.979 21.7382 129.323 26.5761 128.275 31.0948C126.13 32.0362 123.666 31.5614 121.374 31.0784C117.732 30.3008 118.387 30.3171 120.662 28.2706V28.2624Z" fill="#E89402"></path></g><g style="mix-blend-mode:darken"><path d="M68.2331 42.6468C66.8579 42.8924 65.3517 42.3194 64.5985 41.2634C63.8454 40.2074 63.9027 38.7421 64.7377 37.7434C65.5399 36.7774 67.128 36.3027 68.3314 36.8511C68.6915 37.0148 68.9944 37.2522 69.2482 37.5387C69.592 37.9235 69.813 38.3819 69.9686 38.8567C70.2633 39.7653 70.2796 40.7886 69.7639 41.6154C69.2482 42.4422 68.1185 42.9988 67.0953 42.7368" fill="#806828"></path></g><path d="M120.328 49.457C115.154 68.1375 120.901 110.958 140.735 119.005" stroke="#A48733" stroke-width="1.2" stroke-miterlimit="10"></path><path d="M126.656 66.0911C135.636 63.1605 160.849 62.391 167.75 86.5315" stroke="#A48733" stroke-width="1.2" stroke-miterlimit="10"></path><path d="M64.9961 45.4937C69.1137 48.0723 73.1903 50.7327 77.488 52.9921C81.0816 54.883 84.9536 56.6594 89.0548 57.0114C89.6851 57.0687 89.6851 56.0782 89.0548 56.0291C84.9127 55.6771 80.9834 53.7616 77.3816 51.8215C73.3049 49.6276 69.4248 47.0981 65.5037 44.6423C64.9634 44.3067 64.4722 45.1581 65.0043 45.4937H64.9961Z" fill="#CCA83F"></path><path d="M62.6973 39.6091C62.4926 39.6828 62.3699 39.3799 62.3862 39.1589C62.509 37.3334 64.4327 35.8435 66.2336 36.1874" stroke="#CCA83F" stroke-width="0.6" stroke-miterlimit="10"></path><path d="M72.2109 41.3788C78.5633 39.6925 84.0315 37.7033 89.508 34.0605" stroke="#CCA83F" stroke-width="0.6" stroke-miterlimit="10"></path><path d="M84.4314 33.8946C84.1203 33.7718 84.0384 33.3707 84.0712 33.035C84.1612 32.1919 84.7179 31.4388 85.4382 30.9804C86.1586 30.5219 87.0181 30.3255 87.8613 30.2764" stroke="#CCA83F" stroke-width="0.6" stroke-miterlimit="10"></path><path d="M91.6913 54.639C91.2902 53.0018 91.5849 51.3155 92.4608 49.883C93.2303 48.6305 94.2863 47.4763 95.7434 47.067C96.3492 46.8951 96.0954 45.9455 95.4814 46.1174C93.7787 46.6004 92.5181 47.9101 91.6095 49.3918C90.5944 51.0454 90.2833 53.0264 90.7417 54.9092C90.8891 55.5231 91.8387 55.2612 91.6913 54.6472V54.639Z" fill="#CCA83F"></path><path d="M1.85938 68.1357C2.07221 69.6502 2.78439 71.0008 3.49658 72.3597C9.02213 82.936 22.2916 110.785 24.6001 109.131" stroke="black" stroke-width="0.9" stroke-linecap="round" stroke-linejoin="round"></path></svg> 