<?xml version="1.0" encoding="UTF-8"?> <svg xmlns="http://www.w3.org/2000/svg" width="93" height="65" viewBox="0 0 93 65" fill="none"><path d="M84.1031 18.9141C91.3044 21.0759 92.9907 28.1811 91.9338 33.1197C91.2996 36.0791 89.8728 38.3081 86.337 39.538H86.2649C86.289 39.365 86.2986 39.2017 86.313 39.0432L86.6493 39.072C89.623 36.2616 89.7911 33.3215 89.9689 31.3566C90.3292 27.4557 88.422 23.3098 84.9774 21.1912L84.6315 21.3161C84.3577 20.5571 84.0454 19.8172 83.7188 19.0918L84.1079 18.9189L84.1031 18.9141Z" fill="#ABC6D9"></path><path d="M84.9728 21.1865C88.4174 23.3051 90.3246 27.451 89.9643 31.352C89.7866 33.3168 89.6184 36.2617 86.6447 39.0673L86.3084 39.0385C86.3564 38.5389 86.3853 38.0296 86.3997 37.5252C86.587 36.0023 86.6111 33.999 86.6111 32.5001C86.6111 28.556 85.9145 24.7896 84.627 21.3114L84.9728 21.1865Z" fill="#596A76"></path><path d="M86.6113 32.4997C86.6113 33.9986 86.5872 36.0019 86.3999 37.5248C86.4047 37.2846 86.4095 37.0492 86.4095 36.809C86.4095 26.6291 80.3467 18.0106 72.002 15.1282L72.0308 15.0513C74.3896 15.1618 76.5755 13.2017 76.2248 10.7757C76.071 9.68034 75.605 8.66668 74.9805 7.75391C78.6797 10.7661 81.6774 14.643 83.7048 19.0819C84.0315 19.8074 84.3437 20.5472 84.6176 21.3062C85.9003 24.7844 86.6017 28.5508 86.6017 32.4949L86.6113 32.4997Z" fill="#ABC6D9"></path><path d="M86.3988 37.5301C86.3892 38.0345 86.3556 38.5438 86.3075 39.0434C86.2979 39.2019 86.2835 39.3653 86.2595 39.5334C85.4476 47.1239 81.2488 53.5565 75.3782 56.953C75.2533 57.0251 75.1236 57.1019 74.989 57.1692C72.2459 58.6777 69.152 59.5232 65.8804 59.5232C60.7689 59.5232 56.0945 57.4574 52.5058 54.0465C48.3022 50.0543 45.5782 44.2078 45.3573 37.6646C45.3525 37.3812 45.3477 37.0929 45.3477 36.8095C45.3477 26.9035 51.0886 18.4723 59.097 15.3737C61.2156 14.5474 63.5072 14.1006 65.8804 14.1006C68.0135 14.1006 70.0696 14.4609 72.0009 15.1239C80.3456 18.0063 86.4084 26.6248 86.4084 36.8047C86.4084 37.0449 86.4036 37.2803 86.3988 37.5205V37.5301ZM84.3378 38.4861C84.3378 27.9123 76.6705 19.3418 67.2064 19.3418C57.7423 19.3418 50.0797 27.9123 50.0797 38.4861C50.0797 49.0599 57.7423 57.6352 67.2064 57.6352C76.6705 57.6352 84.3378 49.0599 84.3378 38.4861Z" fill="#A6BFD1"></path><path d="M67.2126 19.3379C76.6719 19.3379 84.3441 27.9084 84.3441 38.4822C84.3441 49.0559 76.6767 57.6312 67.2126 57.6312C57.7485 57.6312 50.0859 49.0559 50.0859 38.4822C50.0859 27.9084 57.7485 19.3379 67.2126 19.3379ZM81.3847 38.4822C81.3847 29.3592 75.0433 21.9657 67.2126 21.9657C59.3819 21.9657 53.0405 29.3592 53.0405 38.4822C53.0405 47.6051 59.3915 54.9986 67.2126 54.9986C75.0337 54.9986 81.3847 47.6051 81.3847 38.4822Z" fill="#596A76"></path><path d="M67.2132 54.9987C75.0402 54.9987 81.3853 47.604 81.3853 38.4823C81.3853 29.3605 75.0402 21.9658 67.2132 21.9658C59.3861 21.9658 53.041 29.3605 53.041 38.4823C53.041 47.604 59.3861 54.9987 67.2132 54.9987Z" fill="#5F5FE2"></path><path d="M41.4335 4.79042C45.738 2.35956 50.7199 1 56.0957 1C58.6226 1 61.0775 1.31707 63.4267 1.91278C64.8295 2.27308 66.1987 2.72947 67.5198 3.28674C68.865 3.83921 70.1621 4.49737 71.3968 5.24201C72.3288 5.79928 73.2319 6.4094 74.0967 7.06275C74.3993 7.29335 74.702 7.52875 74.9902 7.76415C75.61 8.67692 76.076 9.69059 76.2345 10.7859C76.5852 13.212 74.3993 15.172 72.0405 15.0615L72.0117 15.1384C70.0756 14.4755 68.0195 14.1151 65.8912 14.1151C63.5132 14.1151 61.2265 14.5619 59.1078 15.3882V15.3642C50.8015 15.3642 50.643 11.2423 47.602 7.19246C44.9357 3.63744 40.3141 5.50143 40.3141 5.50143L40.2949 5.47741C40.6696 5.242 41.054 5.01141 41.4335 4.80003V4.79042Z" fill="#8FD8F2"></path><path d="M75.3844 56.9482L75.5237 57.1788C75.5141 58.9035 74.4764 60.7819 72.4971 62.0982C69.1871 64.2889 65.9587 63.0638 65.2573 62.8525L65.166 62.5882C68.7835 61.4305 72.1176 59.5857 75.0193 57.2125L74.9952 57.1644C75.1249 57.0924 75.2595 57.0155 75.3844 56.9482Z" fill="#8A959B"></path><path d="M74.9934 57.1641L75.0174 57.2122C72.1157 59.5854 68.7816 61.4254 65.1641 62.5879C62.2961 63.5055 59.2551 64.0003 56.0988 64.0003C51.4772 64.0003 47.0911 62.9386 43.1613 61.0314C42.5175 60.724 41.8834 60.3877 41.2637 60.0322L41.3069 59.9601C43.4592 58.8888 45.4577 57.5148 47.2304 55.9103C47.9654 55.2377 48.6812 54.5219 49.5796 54.0799C50.4828 53.6427 51.6261 53.5515 52.4428 54.1279L52.5197 54.0463C56.1084 57.4524 60.778 59.5229 65.8944 59.5229C69.166 59.5229 72.2598 58.6774 75.003 57.1689L74.9934 57.1641Z" fill="#6DA4B3"></path><path d="M74.1256 7.00987L74.092 7.05791C73.2272 6.40455 72.3241 5.79924 71.3921 5.23716L71.5698 4.95372C71.8196 4.16105 71.7187 3.27229 71.3008 2.54688C73.0639 3.7479 74.0295 5.41972 74.1256 7.00987Z" fill="#8A959B"></path><path d="M71.3013 2.54646C71.7192 3.27187 71.8201 4.16063 71.5703 4.9533L71.3925 5.23674C70.1579 4.49691 68.8608 3.83395 67.5156 3.28148L67.6213 3.04128C67.9096 2.44557 68.3083 1.90751 68.7983 1.45113L68.8175 1.38867C69.4757 1.57123 70.1531 1.84986 70.8401 2.25341C71.0034 2.34949 71.1523 2.44077 71.3013 2.54646Z" fill="#8A959B"></path><path d="M68.8169 1.38853L68.7977 1.45098C68.3077 1.90257 67.9089 2.44543 67.6207 3.04113L67.515 3.28134C66.1939 2.72887 64.8295 2.26768 63.4219 1.90737L63.4891 1.65275C64.032 1.46059 66.2179 0.667916 68.8169 1.38372V1.38853Z" fill="#8A959B"></path><path d="M59.0933 15.3552V15.3793C51.0896 18.4779 45.3487 26.9043 45.3487 36.8151C45.3487 37.0985 45.3535 37.3868 45.3583 37.6702H45.2094C42.6296 37.8239 39.1994 37.3627 36.6869 36.7862L35.9566 36.8151C35.8798 34.5139 35.2264 32.2608 34.28 30.81C32.3968 27.9563 29.1156 25.9338 26.752 24.7664L26.9057 24.4686C27.7224 21.0289 29.0579 17.8389 30.8306 14.9949C31.2966 14.2455 31.7915 13.5153 32.3199 12.8187C33.1366 11.7233 34.0302 10.6953 34.9862 9.73446C36.1152 8.58148 37.345 7.52458 38.6517 6.57818C39.185 6.19385 39.7327 5.82394 40.2899 5.47804L40.3092 5.50206C40.3092 5.50206 44.9307 3.63808 47.597 7.1931C50.638 11.2429 50.7917 15.3648 59.0933 15.3648V15.3552Z" fill="#ABC6D9"></path><path d="M52.5108 54.0471L52.4339 54.1288C51.622 53.5523 50.4738 53.6484 49.5707 54.0808C48.6771 54.5227 47.9565 55.2385 47.2215 55.9111C45.4487 57.5205 43.4454 58.8896 41.298 59.961L41.2547 60.033C40.8848 59.8216 40.5197 59.5958 40.1594 59.37C38.7902 58.5101 37.5027 57.5397 36.2873 56.4684C35.264 55.5748 34.2984 54.6044 33.4 53.5763C32.7899 52.8749 32.2182 52.1591 31.6753 51.4049C30.5416 49.8532 29.5423 48.1765 28.7016 46.4182L28.668 46.1876C29.9603 45.9955 31.1517 45.4718 32.2807 44.6984C32.7467 44.3813 33.1982 44.021 33.6498 43.6223C35.3937 42.0609 36.0375 39.4139 35.9558 36.8101L36.686 36.7812C39.1986 37.3577 42.6287 37.8189 45.2085 37.67H45.3575C45.5784 44.2084 48.3024 50.0549 52.506 54.0471H52.5108Z" fill="#859CA8"></path><path d="M43.1568 61.0313L43.0799 61.185C41.9029 62.6406 41.0958 63.3228 39.5681 63.6495C38.7562 63.8272 37.7858 63.7023 36.8105 63.4045L36.8202 63.3613C38.05 62.2035 39.1453 60.9064 40.0773 59.5036L40.1686 59.3643C40.5289 59.5949 40.8892 59.8158 41.264 60.0272C41.8837 60.3875 42.5178 60.7238 43.1616 61.0265L43.1568 61.0313Z" fill="#8A959B"></path><path d="M41.4331 4.79003C41.0488 5.00141 40.6693 5.23201 40.2945 5.46741C39.7373 5.8133 39.1896 6.18321 38.6563 6.56754L38.6083 6.50509C37.6042 5.15514 36.4464 3.91569 35.1637 2.82036L35.1445 2.77712C36.1054 2.42162 37.0614 2.25347 37.8877 2.38799C39.3529 2.633 40.2897 3.51695 41.4379 4.79003H41.4331Z" fill="#8A959B"></path><path d="M40.1667 59.3695L40.0754 59.5088C39.1434 60.9116 38.0529 62.2039 36.8182 63.3665L36.8086 63.4098C36.0688 63.184 35.3097 62.8525 34.6035 62.4682L34.6804 62.3336C34.9062 60.191 35.0455 58.2934 36.2609 56.5063L36.2898 56.4727C37.5004 57.544 38.7927 58.5144 40.1619 59.3743L40.1667 59.3695Z" fill="#8A959B"></path><path d="M38.6081 6.50523L38.6561 6.56769C37.3494 7.51409 36.1195 8.57099 34.9906 9.72397L34.9665 9.69995C33.6598 7.98009 33.4148 6.09689 33.0785 3.96387L32.8047 3.94466C33.5445 3.47866 34.3468 3.06071 35.1443 2.77246L35.1635 2.8157C36.4462 3.91103 37.6088 5.15048 38.6081 6.50043V6.50523Z" fill="#8A959B"></path><path d="M36.2936 56.4682L36.2648 56.5018C35.0445 58.2937 34.91 60.1865 34.6842 62.3291L34.6073 62.4636C33.7714 62.0169 33.0028 61.4932 32.3926 60.984L32.4503 60.9119C32.162 58.4666 32.4599 55.9541 33.3294 53.6482L33.4111 53.5713C34.3047 54.5946 35.2751 55.565 36.2984 56.4633L36.2936 56.4682Z" fill="#8A959B"></path><path d="M35.9609 36.8093C36.0426 39.4132 35.3989 42.0602 33.655 43.6215C33.2082 44.0203 32.7518 44.3806 32.2858 44.6977L32.084 44.3902C37.4118 36.6748 30.369 28.0371 22.9994 24.7799C16.1584 21.7534 9.53831 19.433 2.2793 17.617C3.11041 17.0646 4.19133 16.882 5.14255 17.0598C7.64549 17.5258 17.6717 21.076 23.9411 23.5453C23.9411 23.5453 25.1277 23.944 26.7611 24.7559C29.1199 25.9281 32.4059 27.9458 34.2891 30.7994C35.2403 32.2455 35.8889 34.5034 35.9657 36.8045L35.9609 36.8093Z" fill="#ABC6D9"></path><path d="M34.9619 9.70068L34.986 9.7247C34.0299 10.6855 33.1412 11.7136 32.3197 12.8089L32.1755 12.7032C31.1907 10.4405 30.7535 7.94719 30.9169 5.49231L30.8496 5.42985C31.3877 4.93023 32.0602 4.41619 32.7953 3.9502L33.0691 3.96941C33.4054 6.10242 33.6504 7.98562 34.9571 9.70549L34.9619 9.70068Z" fill="#8A959B"></path><path d="M33.4116 53.5758L33.33 53.6527C32.4652 55.9586 32.1674 58.476 32.4508 60.9165L32.3932 60.9885C31.8551 60.5513 31.442 60.1238 31.2065 59.7587C30.534 58.7114 30.6685 57.2798 30.7357 56.0403C30.8174 54.6471 30.9567 52.8456 31.4948 51.5485L31.6918 51.4092C32.2346 52.1634 32.8063 52.8792 33.4164 53.5806L33.4116 53.5758Z" fill="#8A959B"></path><path d="M32.1816 12.7031L32.3258 12.8088C31.8021 13.5102 31.3025 14.2404 30.8365 14.985L30.4522 14.8985C29.8468 13.6351 29.6162 11.8431 29.4625 10.4548C29.3232 9.22011 29.1118 7.7933 29.7363 6.71718C29.9525 6.34246 30.3465 5.89088 30.8509 5.42969L30.9182 5.49214C30.7548 7.94703 31.192 10.4451 32.1768 12.7031H32.1816Z" fill="#8A959B"></path><path d="M23.0001 24.7841C30.3696 28.0412 37.4124 36.6742 32.0846 44.3943L32.2864 44.7018C31.1574 45.4752 29.9612 45.9989 28.6737 46.1911C28.3759 46.2391 28.0684 46.2679 27.7609 46.2727C25.5606 46.3448 23.0769 45.48 20.18 43.3134C14.3815 38.9945 4.82129 28.1854 2.00608 23.4005C0.25738 20.4268 0.925151 18.5243 2.27991 17.626C9.53893 19.4467 16.159 21.7623 23.0001 24.7889V24.7841Z" fill="#ABC6D9"></path><path d="M72.0067 15.1296C80.3515 18.012 86.4143 26.6305 86.4143 36.8104C86.4143 37.0506 86.4095 37.286 86.4047 37.5262C86.3951 38.0306 86.3614 38.5399 86.3134 39.0395C86.3038 39.198 86.2894 39.3614 86.2654 39.5295C85.4535 47.1199 81.2547 53.5526 75.384 56.9491C75.2591 57.0212 75.1294 57.098 74.9949 57.1653C72.2517 58.6738 69.1579 59.5193 65.8863 59.5193C60.7747 59.5193 56.1003 57.4535 52.5116 54.0426C48.308 50.0504 45.5841 44.2039 45.3631 37.6607C45.3583 37.3773 45.3535 37.089 45.3535 36.8056C45.3535 26.8996 51.0944 18.4684 59.1029 15.3698C61.2215 14.5435 63.5131 14.0967 65.8863 14.0967C68.0193 14.0967 70.0755 14.457 72.0067 15.1199V15.1296Z" stroke="#231F20" stroke-width="1.57" stroke-linecap="round" stroke-linejoin="round"></path><path d="M84.3402 38.4822C84.3402 49.0559 76.6728 57.6312 67.2087 57.6312C57.7446 57.6312 50.082 49.0559 50.082 38.4822C50.082 27.9084 57.7446 19.3379 67.2087 19.3379C76.6728 19.3379 84.3402 27.9084 84.3402 38.4822Z" stroke="#231F20" stroke-width="1.31" stroke-linecap="round" stroke-linejoin="round"></path><path d="M67.2132 54.9987C75.0402 54.9987 81.3853 47.604 81.3853 38.4823C81.3853 29.3605 75.0402 21.9658 67.2132 21.9658C59.3861 21.9658 53.041 29.3605 53.041 38.4823C53.041 47.604 59.3861 54.9987 67.2132 54.9987Z" stroke="#231F20" stroke-width="1.11" stroke-linecap="round" stroke-linejoin="round"></path><path d="M26.9102 24.4583C27.7269 21.0186 29.0624 17.8287 30.8351 14.9847C31.3011 14.2352 31.7959 13.505 32.3244 12.8084C33.1411 11.7131 34.0347 10.685 34.9907 9.72421C36.1196 8.57123 37.3495 7.51434 38.6562 6.56793C39.1895 6.18361 39.7371 5.81369 40.2944 5.4678C40.6691 5.2324 41.0535 5.0018 41.433 4.79042C45.7375 2.35956 50.7193 1 56.0952 1C58.6221 1 61.077 1.31707 63.4262 1.91278C64.829 2.27308 66.1982 2.72947 67.5193 3.28674C68.8645 3.83921 70.1616 4.49737 71.3963 5.24201C72.3283 5.79928 73.2314 6.4094 74.0962 7.06275C74.3988 7.29335 74.7015 7.52875 74.9897 7.76415C78.6889 10.7763 81.6867 14.6532 83.714 19.0922C84.0407 19.8176 84.353 20.5574 84.6268 21.3165C85.9095 24.7946 86.6109 28.561 86.6109 32.5052C86.6109 34.004 86.5869 36.0074 86.3995 37.5302C86.3899 37.66 86.3707 37.7849 86.3515 37.9002" stroke="#231F20" stroke-width="1.57" stroke-linecap="round" stroke-linejoin="round"></path><path d="M75.0198 57.2127C72.1181 59.586 68.784 61.4259 65.1665 62.5885C62.2985 63.5061 59.2574 64.0009 56.1011 64.0009C51.4796 64.0009 47.0934 62.9392 43.1637 61.032C42.5199 60.7245 41.8858 60.3882 41.266 60.0327C40.8961 59.8214 40.531 59.5956 40.1707 59.3698C38.8015 58.5098 37.514 57.5394 36.2986 56.4681C35.2753 55.5745 34.3097 54.6041 33.4113 53.576C32.8012 52.8747 32.2295 52.1588 31.6866 51.4046C30.5529 49.8529 29.5536 48.1763 28.7129 46.418" stroke="#231F20" stroke-width="1.57" stroke-linecap="round" stroke-linejoin="round"></path><path d="M40.3086 5.4923C40.3086 5.4923 44.9302 3.62831 47.5964 7.18333C50.6374 11.2332 50.7912 15.3551 59.0927 15.3551" stroke="#231F20" stroke-linecap="round" stroke-linejoin="round"></path><path d="M72.0352 15.0523C74.394 15.1628 76.5799 13.2027 76.2292 10.7767C76.0754 9.68135 75.6094 8.66769 74.9849 7.75491C74.9657 7.7357 74.9561 7.71168 74.9416 7.69727" stroke="#231F20" stroke-linecap="round" stroke-linejoin="round"></path><path d="M27.7618 46.2687C28.0741 46.2639 28.3768 46.235 28.6746 46.187C29.9669 45.9948 31.1583 45.4712 32.2873 44.6977C32.7533 44.3807 33.2049 44.0204 33.6565 43.6216C35.4004 42.0603 36.0441 39.4132 35.9625 36.8094C35.8856 34.5083 35.2322 32.2552 34.2858 30.8043C32.4026 27.9507 29.1214 25.9282 26.7578 24.7608C25.1292 23.9489 23.9378 23.5502 23.9378 23.5502C17.6732 21.0761 7.6422 17.5258 5.13926 17.0646C4.18804 16.8869 3.10712 17.0695 2.27601 17.6219C0.921245 18.5203 0.253473 20.4227 2.00217 23.3964C4.82219 28.1813 14.3776 38.9905 20.1761 43.3094C23.073 45.476 25.5567 46.3407 27.757 46.2687" stroke="#231F20" stroke-width="1.57" stroke-linecap="round" stroke-linejoin="round"></path><path d="M2.18555 17.5928C2.21437 17.5976 2.2528 17.612 2.28163 17.6168C9.54065 19.4375 16.1607 21.7531 23.0018 24.7797C30.3713 28.0369 37.4141 36.6698 32.0864 44.3899" stroke="#231F20" stroke-linecap="round" stroke-linejoin="round"></path><path d="M36.6895 36.7812C39.202 37.3577 42.6321 37.8189 45.212 37.67" stroke="#231F20" stroke-linecap="round" stroke-linejoin="round"></path><path d="M41.3008 59.9601C43.453 58.8888 45.4515 57.5148 47.2243 55.9103C47.9593 55.2377 48.6751 54.5219 49.5735 54.0799C50.4766 53.6427 51.62 53.5515 52.4367 54.1279" stroke="#231F20" stroke-linecap="round" stroke-linejoin="round"></path><path d="M86.6445 39.0712C89.6182 36.2608 89.7864 33.3207 89.9641 31.3559C90.3244 27.455 88.4172 23.309 84.9727 21.1904" stroke="#231F20" stroke-width="1.57" stroke-linecap="round" stroke-linejoin="round"></path><path d="M84.1035 18.9141C91.3049 21.0759 92.9911 28.1811 91.9342 33.1197C91.3001 36.0791 89.8733 38.3081 86.3374 39.538" stroke="#231F20" stroke-width="1.57" stroke-linecap="round" stroke-linejoin="round"></path><path d="M30.4522 14.8978C29.8468 13.6343 29.6162 11.8424 29.4625 10.454C29.3232 9.21939 29.1118 7.79258 29.7363 6.71647C29.9525 6.34175 30.3465 5.89016 30.8509 5.42897C31.389 4.92935 32.0615 4.41531 32.7966 3.94932C33.5364 3.48332 34.3387 3.06536 35.1362 2.77712C36.097 2.42162 37.053 2.25347 37.8793 2.38799C39.3446 2.633 40.2814 3.51695 41.4296 4.79003C41.5016 4.86209 41.5689 4.93896 41.6409 5.01582" stroke="#231F20" stroke-width="1.57" stroke-linecap="round" stroke-linejoin="round"></path><path d="M32.1808 12.7031C31.196 10.4404 30.7588 7.94707 30.9221 5.49219" stroke="#231F20" stroke-width="0.93" stroke-linecap="round" stroke-linejoin="round"></path><path d="M33.0742 3.96777C33.4105 6.10079 33.6555 7.98399 34.9622 9.70385" stroke="#231F20" stroke-width="0.93" stroke-linecap="round" stroke-linejoin="round"></path><path d="M35.1602 2.82031C36.4429 3.91564 37.6054 5.1551 38.6047 6.50504" stroke="#231F20" stroke-width="0.93" stroke-linecap="round" stroke-linejoin="round"></path><path d="M63.4902 1.65861C64.0331 1.46645 66.219 0.673775 68.818 1.38958C69.4762 1.57214 70.1535 1.85078 70.8405 2.25432C71.0039 2.3504 71.1528 2.44168 71.3017 2.54737C73.0648 3.74839 74.0305 5.42021 74.1265 7.01036" stroke="#231F20" stroke-width="1.57" stroke-linecap="round" stroke-linejoin="round"></path><path d="M67.627 3.04132C67.9152 2.44562 68.3139 1.90756 68.804 1.45117" stroke="#231F20" stroke-width="0.93" stroke-linecap="round" stroke-linejoin="round"></path><path d="M71.5707 4.95845C71.8205 4.16577 71.7196 3.27702 71.3017 2.5516C71.3017 2.5468 71.2969 2.5468 71.2969 2.54199" stroke="#231F20" stroke-width="0.93" stroke-linecap="round" stroke-linejoin="round"></path><path d="M31.4909 51.5449C30.9528 52.842 30.8183 54.6436 30.7318 56.0367C30.6646 57.281 30.5301 58.7078 31.2026 59.7551C31.4428 60.1202 31.856 60.5478 32.3893 60.9849C32.9994 61.4894 33.768 62.013 34.604 62.4646C35.3102 62.8489 36.0692 63.1804 36.809 63.4062C37.7891 63.7041 38.7547 63.829 39.5666 63.6512C41.0943 63.3197 41.9014 62.6375 43.0784 61.1867" stroke="#231F20" stroke-width="1.57" stroke-linecap="round" stroke-linejoin="round"></path><path d="M33.3287 53.6533C32.464 55.9593 32.1661 58.4766 32.4496 60.9171" stroke="black" stroke-width="0.62" stroke-linecap="round" stroke-linejoin="round"></path><path d="M34.6836 62.3283C34.9094 60.1857 35.0487 58.2881 36.2641 56.501" stroke="black" stroke-width="0.62" stroke-linecap="round" stroke-linejoin="round"></path><path d="M36.8223 63.3665C38.0521 62.2087 39.1475 60.9116 40.0795 59.5088" stroke="black" stroke-width="0.62" stroke-linecap="round" stroke-linejoin="round"></path><path d="M65.252 62.8523C65.9485 63.0637 69.1817 64.2888 72.4918 62.0981C74.4759 60.7818 75.5087 58.9034 75.5183 57.1787" stroke="#231F20" stroke-width="1.57" stroke-linecap="round" stroke-linejoin="round"></path><path d="M61.4615 44.2369C63.5815 44.2369 65.3 41.8172 65.3 38.8323C65.3 35.8475 63.5815 33.4277 61.4615 33.4277C59.3416 33.4277 57.623 35.8475 57.623 38.8323C57.623 41.8172 59.3416 44.2369 61.4615 44.2369Z" fill="#95DBE3"></path><path d="M74.1549 43.1559C76.2748 43.1559 77.9934 40.7361 77.9934 37.7513C77.9934 34.7664 76.2748 32.3467 74.1549 32.3467C72.035 32.3467 70.3164 34.7664 70.3164 37.7513C70.3164 40.7361 72.035 43.1559 74.1549 43.1559Z" fill="#95DBE3"></path><g style="mix-blend-mode:darken"><path d="M18.9177 35.378C20.0611 36.0506 21.3005 36.7327 22.6265 36.6511C24.7547 36.5166 26.3064 34.3739 26.5274 32.2505C26.7484 30.1271 25.9797 28.047 25.2207 26.0533C30.4043 28.9549 33.8489 34.7294 33.9401 40.6673C33.9594 42.0124 33.7624 43.4921 32.7824 44.4145C32.3884 44.7892 31.8936 45.039 31.3988 45.2648C28.8718 46.4178 26.6715 46.6628 24.0773 45.6587C22.4967 45.0486 19.4846 42.8724 18.2163 41.753C12.0142 36.2619 9.51122 32.4811 3.2995 24.8811C2.3627 23.7329 0.777344 22.0995 0.777344 20.6006C2.2474 20.2355 3.2947 22.5223 4.06336 23.4879C5.3989 25.1693 6.917 26.7066 8.53119 28.119C11.7115 30.9102 15.281 33.2306 18.9177 35.3732V35.378Z" fill="#859CA8"></path></g><g style="mix-blend-mode:darken"><path d="M36.9952 28.3788C38.2731 28.8881 39.6567 29.234 41.0211 29.0418C44.4896 28.5566 46.5314 24.9727 49.4235 22.9983C47.2232 27.4757 45.8204 32.347 45.3111 37.3144C42.5632 37.6747 39.7336 37.4105 37.1009 36.5506C36.8127 36.4545 36.5148 36.3488 36.2986 36.1374C35.9095 35.7627 35.8614 35.167 35.799 34.629C35.2657 30.1563 31.5906 26.241 27.1612 25.4291C26.6616 25.3379 27.4206 21.8069 27.7905 21.5138C29.0588 20.5001 29.5825 22.3833 30.3271 23.3442C32.0518 25.5733 34.3818 27.3364 37 28.3788H36.9952Z" fill="#859CA8"></path></g><path d="M27.7578 24.5598C28.2574 23.4837 29.0549 20.1113 29.6218 19.0688C33.3738 12.1653 37.6207 7.56779 44.8028 4.39229C51.985 1.2168 69.4335 -2.01635 81.9146 17.7188" stroke="#BBD8ED" stroke-width="1.5" stroke-miterlimit="10"></path><path d="M44.8795 22.9688C46.0901 22.0561 46.9405 20.7349 47.517 19.3321C48.055 18.0206 48.3193 16.3776 47.4065 15.2919C46.6714 14.4224 45.4032 14.2158 44.2646 14.3023C41.5022 14.5088 37.1497 17.2424 37.4764 20.4755C37.8463 24.1554 42.3766 24.8472 44.8795 22.9688Z" fill="#BBD8ED"></path><path d="M48.3823 46.5717C43.6503 31.3908 49.6939 22.9452 54.2049 19.371C58.716 15.792 64.8508 14.3507 70.4813 15.5421" stroke="#BBD8ED" stroke-width="2" stroke-miterlimit="10"></path><path d="M30.9462 44.3519C35.2651 38.7648 31.8974 33.5091 31.2008 32.4186C26.0028 24.2949 9.87057 20.7399 2.50586 18.4531" stroke="#BBD8ED" stroke-miterlimit="10"></path><g style="mix-blend-mode:darken"><path d="M37.8566 63.4914C37.8758 63.6307 37.9094 63.7941 38.0391 63.8613C38.1304 63.9094 38.2409 63.8853 38.3418 63.8613C40.1817 63.4193 42.2427 62.814 43.1026 61.1278C41.8824 61.1999 40.1962 59.456 39.2257 58.7161C37.3281 57.2701 36.1655 56.6216 34.6666 54.7672C33.9844 53.9217 30.8666 48.8438 30.9146 52.8456C30.9386 54.7143 33.7202 56.0114 34.8396 57.2365C36.4249 58.9708 37.5107 61.1662 37.8566 63.4962V63.4914Z" fill="#475E69"></path></g><g style="mix-blend-mode:darken"><path d="M33.035 8.9458C34.3321 8.84491 35.5908 8.3597 36.6237 7.57183C34.3801 9.35895 33.0158 11.9868 31.4016 14.3504C31.2911 14.5137 31.1518 14.6915 30.95 14.7107C30.6666 14.7347 30.4888 14.4176 30.3927 14.1534C29.725 12.2798 29.0139 8.54225 30.3639 6.88965C31.5553 7.43731 31.464 9.0707 33.0302 8.9506L33.035 8.9458Z" fill="#475E69"></path></g></svg> 