<?xml version="1.0" encoding="UTF-8"?> <svg xmlns="http://www.w3.org/2000/svg" width="80" height="78" viewBox="0 0 80 78" fill="none"><path d="M44.7153 72.1756C54.9377 70.2566 68.0411 68.6515 78.8088 66.8457L78.8809 66.7119L79.1484 66.8508L79.1587 66.9589C78.922 67.5865 78.8912 68.3377 78.6545 68.9602C71.1073 74.0946 61.3633 76.7081 52.067 76.1988C49.3866 76.0548 46.7474 75.6483 44.2059 74.9692L44.1699 74.9023C44.1699 74.8715 44.1699 74.8406 44.1802 74.8046C44.2111 74.038 44.386 72.6695 44.4117 71.9544L44.4735 71.8772C44.5506 71.939 44.6175 71.9956 44.6947 72.0522L44.7204 72.1705L44.7153 72.1756Z" fill="#92E053"></path><path d="M60.2419 55.7237C61.5384 56.5829 62.876 57.4318 64.2342 58.2858C66.6007 59.7675 69.0444 61.2337 71.4933 62.6434C73.9678 64.0685 76.4579 65.4421 78.881 66.7129L78.809 66.8466C68.0412 68.6524 54.9378 70.2576 44.7154 72.1766L44.6896 72.0583C44.6125 71.9965 44.5456 71.9399 44.4684 71.8833C40.2498 68.5701 35.5733 65.0254 31.3804 61.7122H31.293C31.3033 61.1257 31.3187 60.5495 31.329 59.963C41.3199 58.5842 50.6832 57.1128 59.5525 55.4922H59.8972C60.0104 55.5694 60.1236 55.6517 60.2419 55.7237ZM65.3711 66.0749L71.3286 65.0614C69.4766 63.8524 67.4496 62.6691 65.4174 61.4807C64.1518 60.745 62.876 60.0041 61.6567 59.2581C60.921 58.8157 60.2008 58.363 59.5062 57.9102L55.6272 58.5482L51.352 59.2581L45.7443 60.1842L41.181 60.9405L35.0691 61.954C38.5366 64.6858 41.2736 66.8621 44.7411 69.5991L50.0864 68.6885L65.3763 66.0801L65.3711 66.0749Z" fill="#66BC57"></path><path d="M65.7366 29.7527C70.3719 39.9136 72.5481 51.0623 71.6993 62.2881L71.4935 62.6379C69.0446 61.2334 66.6009 59.762 64.2344 58.2803L64.3784 58.0437C64.6562 48.778 65.1604 39.111 65.5051 29.7373L65.7366 29.7476V29.7527Z" fill="#92E053"></path><path d="M71.33 65.0546L65.3724 66.0682V66.027C64.1635 65.2141 62.8104 64.3035 61.4316 63.3826C62.6303 63.1665 63.8393 62.9504 65.0535 62.7241L65.4136 61.4688C67.4457 62.652 69.4727 63.8405 71.3248 65.0495L71.33 65.0546Z" fill="#AAC6D7"></path><path d="M65.367 66.0321V66.0733L50.0874 68.6816L50.0462 68.4347C49.0173 67.699 47.8546 66.7987 46.625 65.8623C48.261 65.6154 49.8456 65.3581 51.4095 65.1112C53.2256 64.8076 55.0005 64.5092 56.76 64.2057C58.3291 63.9382 59.8725 63.6604 61.4365 63.3877C62.8152 64.3137 64.1683 65.2244 65.3721 66.0321H65.367Z" fill="#AAC6D7"></path><path d="M65.4191 61.4745L65.059 62.7298C63.8397 62.951 62.6359 63.1722 61.4372 63.3883C60.2231 62.5806 58.9883 61.7626 57.8359 60.9857C58.9317 60.7851 60.0276 60.5844 61.1337 60.3889L61.6687 59.252C62.888 59.9979 64.1639 60.7439 65.4294 61.4745H65.4191Z" fill="#AAC6D7"></path><path d="M65.9943 4.90301C66.3545 5.31459 66.3956 5.92681 66.2361 6.45157C66.0715 6.97119 65.7371 7.41364 65.4027 7.8458C64.2657 9.28118 63.6226 10.0117 62.2953 11.2722L62.2284 11.3082C61.6368 10.2844 60.9371 9.28118 60.1191 8.3294H60.1243C61.0709 7.09981 62.0329 6.24064 63.2882 4.93902C63.9622 4.23933 65.341 4.18274 65.9892 4.90815L65.9943 4.90301Z" fill="#92E053"></path><path d="M31.3305 59.9612C31.3202 60.5477 31.3048 61.1239 31.2945 61.7104C31.2688 62.7599 31.2533 63.8094 31.2276 64.859C34.9523 68.023 40.7195 72.1028 44.0532 74.7986L44.1818 74.8089C44.1767 74.8398 44.1767 74.8706 44.1715 74.9066L44.2076 74.9735C46.749 75.6526 49.3882 76.0591 52.0686 76.2031L52.0583 76.3523C42.0931 78.3382 18.721 75.5497 16.91 68.6095C16.8843 65.2551 16.8637 61.9059 16.8483 58.5464L16.802 58.5258C18.7415 53.9418 20.146 48.8691 21.0515 45.062C21.4939 43.1945 21.8386 41.2395 21.4631 39.3462C21.0978 37.4581 19.8836 35.6265 18.0624 35.0143C17.692 34.8908 17.3165 34.8034 16.9306 34.7622L16.9461 34.6388C16.6322 32.1899 16.658 29.6947 17.0232 27.2612C17.085 27.3795 17.1724 27.503 17.2805 27.6368C27.8218 34.0934 52.8197 33.0645 62.7232 27.822C64.2151 27.0297 65.5887 26.1911 65.599 25.5068H65.6505C65.6093 26.9165 65.5579 28.3262 65.5064 29.7461C65.1669 39.1198 64.6575 48.7868 64.3797 58.0525L64.2357 58.2891C62.8724 57.4351 61.5399 56.5862 60.2434 55.7271C60.2692 48.3289 60.9637 38.6465 60.9894 31.2535H60.8608C56.9251 33.5275 41.4243 35.4928 31.8707 34.4844V34.5359C31.8295 36.0638 31.7987 37.5867 31.7626 39.1198C31.6186 46.0652 31.4797 53.0209 31.3305 59.9663V59.9612Z" fill="#92E053"></path><path d="M65.4297 22.9045L65.404 22.9353C65.4246 23.5167 65.1674 24.0672 64.6529 24.5868C59.1687 30.2512 24.9465 32.1547 17.9858 26.0016C17.5691 25.6363 17.2552 25.235 17.0443 24.808H16.9466C16.7819 20.5945 17.816 16.1237 20.3369 12.7488L20.4861 12.6098C20.9079 13.0883 21.1292 13.2941 21.3195 13.3918C21.3195 13.3918 22.4616 13.8292 23.3722 12.759C24.4989 11.4266 23.7118 10.3667 23.7118 10.3667C23.3774 9.98088 23.043 9.60532 22.7034 9.21946C26.4127 4.85158 31.9123 1.5538 39.0994 1.09591C49.7488 0.411663 56.2414 3.7969 60.1102 8.33971C60.9282 9.29149 61.6278 10.2947 62.2195 11.3185C64.5757 15.3726 65.3474 19.7868 65.4194 22.9148L65.4297 22.9045ZM60.532 18.6652C61.1957 18.6035 61.6639 17.8318 61.5867 16.9263C61.5095 16.0208 60.9076 15.3468 60.2439 15.4034C59.5803 15.46 59.107 16.2369 59.1841 17.1424C59.2613 18.0478 59.8684 18.7218 60.532 18.6652ZM33.1471 19.3186C33.1625 18.3205 32.4114 17.4974 31.4648 17.4819C30.5181 17.4665 29.7259 18.2639 29.7104 19.2569C29.695 20.2498 30.4513 21.0832 31.403 21.0987C32.3548 21.1141 33.1316 20.3167 33.1522 19.3134L33.1471 19.3186Z" fill="#92E053"></path><path d="M17.0229 27.2514C16.637 26.5054 17.1721 26.1299 17.9489 26.0373L17.9901 25.991C24.9508 32.1492 59.1679 30.2457 64.6572 24.5762L64.8012 24.7254C65.362 24.9414 65.6038 25.2038 65.5987 25.4919C65.5884 26.1813 64.2148 27.0199 62.7228 27.8071C52.8245 33.0496 27.8215 34.0785 17.2801 27.6219C17.1721 27.483 17.0846 27.3595 17.0229 27.2463V27.2514Z" fill="#3DB252"></path><path d="M61.6577 59.2529L61.1227 60.3899C60.0217 60.5906 58.9259 60.7912 57.825 60.9867C57.1201 60.5134 56.441 60.0504 55.8031 59.6234L55.623 58.5481L59.5021 57.9102C60.1966 58.368 60.9117 58.8156 61.6526 59.2581L61.6577 59.2529Z" fill="#AAC6D7"></path><path d="M57.8317 60.9854C58.9892 61.7622 60.2188 62.5802 61.4329 63.3879C59.8741 63.6606 58.3255 63.9384 56.7564 64.206L56.7204 64.0208C55.6606 63.2645 54.6008 62.4979 53.541 61.7416C54.9712 61.4895 56.3963 61.2374 57.8317 60.9854Z" fill="#AAC6D7"></path><path d="M61.5846 16.9271C61.6669 17.8275 61.1936 18.6043 60.53 18.6661C59.8663 18.7278 59.2592 18.0487 59.1821 17.1432C59.1049 16.2377 59.5782 15.466 60.2419 15.4043C60.9055 15.3426 61.5023 16.0217 61.5846 16.9271Z" fill="white"></path><path d="M57.8705 36.6461C58.956 34.3876 59.7638 33.5593 60.8544 31.2441H60.983C60.9573 38.6371 60.2628 48.3195 60.2371 55.7228C60.1239 55.6508 60.0107 55.5685 59.8924 55.4965H59.5477L59.4705 54.9871C58.7297 49.1941 58.5548 42.5317 57.8242 36.713C57.8397 36.6873 57.8499 36.6667 57.8654 36.641L57.8705 36.6461Z" fill="#318F42"></path><path d="M57.8302 36.7131C58.5607 42.5318 58.7356 49.1942 59.4765 54.9872L59.5536 55.4914C50.6843 57.112 41.321 58.5834 31.3301 59.9622C31.4741 53.0168 31.613 46.0611 31.7622 39.1157H31.788C40.9712 38.5652 48.7447 38.0456 57.8302 36.6514C57.8353 36.6719 57.8353 36.6925 57.8353 36.7182L57.8302 36.7131Z" fill="#5D59EB"></path><path d="M57.8258 36.6513C48.7454 38.0455 40.9667 38.5651 31.7835 39.1156H31.7578C31.7887 37.5876 31.8247 36.0648 31.8556 34.5316V34.4802C41.4195 35.4886 56.9203 33.5233 60.856 31.2441C59.7601 33.5593 58.9576 34.3876 57.8721 36.6461C57.8618 36.6461 57.8412 36.6461 57.8258 36.6513Z" fill="#1F5929"></path><path d="M57.8712 36.6465C57.8712 36.6465 57.8451 36.6934 57.8294 36.7195C57.8294 36.6934 57.8294 36.6726 57.8242 36.6517C57.8399 36.6465 57.8555 36.6465 57.8712 36.6465Z" fill="#92E053"></path><path d="M56.7251 64.0147L56.7612 64.1999C55.0017 64.5035 53.2268 64.8019 51.4107 65.1054L51.3798 64.9305C50.1348 64.061 49.0853 63.3922 47.9844 62.672C49.8725 62.3633 51.7194 62.0546 53.5406 61.7305C54.6004 62.4867 55.6602 63.2533 56.72 64.0096L56.7251 64.0147Z" fill="#AAC6D7"></path><path d="M55.8068 59.6172C56.4448 60.0443 57.1239 60.5073 57.8287 60.9806C56.3985 61.2327 54.9734 61.4848 53.538 61.7369C52.8641 61.2584 52.2004 60.7748 51.5265 60.2964L51.3516 59.252L55.6268 58.542L55.8068 59.6172Z" fill="#AAC6D7"></path><path d="M51.5267 60.2966C52.2007 60.7751 52.8643 61.2587 53.5383 61.7371C51.7119 62.0612 49.8701 62.3699 47.9821 62.6786C47.3338 62.2516 46.6599 61.8092 45.9242 61.2844L45.7441 60.1731L51.3518 59.2471L51.5267 60.2915V60.2966Z" fill="#AAC6D7"></path><path d="M51.3781 64.9373L51.4089 65.1122C49.8501 65.3591 48.2604 65.6164 46.6244 65.8633C45.5595 65.0453 44.4431 64.2067 43.3164 63.4298C44.9061 63.188 46.4598 62.9359 47.9826 62.6787C49.0836 63.399 50.1331 64.0678 51.3781 64.9373Z" fill="#AAC6D7"></path><path d="M46.6252 65.8632C47.8548 66.7996 49.0175 67.6999 50.0464 68.4356L50.0875 68.6826L44.7423 69.5932C41.2748 66.8613 38.5378 64.6851 35.0703 61.9481L41.1822 60.9346L41.3879 62.1539C42.031 62.55 42.6792 62.9822 43.3223 63.4298C44.449 64.2066 45.5654 65.0504 46.6303 65.8632H46.6252Z" fill="#AAC6D7"></path><path d="M45.9243 61.2839C46.66 61.8035 47.3339 62.2459 47.9822 62.6781C46.4593 62.9353 44.9057 63.1823 43.316 63.4292C42.6729 62.9816 42.0247 62.5495 41.3816 62.1533L41.1758 60.934L45.7391 60.1777L45.9191 61.289L45.9243 61.2839Z" fill="#AAC6D7"></path><path d="M44.4682 71.8831L44.4064 71.9602C44.3807 72.6754 44.2109 74.0439 44.1749 74.8104L44.0463 74.8001C40.7126 72.0991 34.9454 68.0194 31.2207 64.8605C31.2464 63.811 31.2619 62.7614 31.2876 61.7119H31.375C35.5679 65.0251 40.2444 68.5699 44.463 71.8831H44.4682Z" fill="#349645"></path><path d="M31.4628 17.4824C32.4146 17.4979 33.1657 18.321 33.1451 19.3191C33.1245 20.3172 32.3477 21.1198 31.3959 21.1043C30.4442 21.0889 29.6879 20.2657 29.7034 19.2625C29.7188 18.2593 30.5059 17.4721 31.4577 17.4876L31.4628 17.4824Z" fill="white"></path><path d="M22.7065 9.20859C23.0461 9.59444 23.3805 9.97001 23.7149 10.3559C23.7149 10.3559 24.5072 11.4157 23.3753 12.7482C22.4647 13.8183 21.3226 13.381 21.3226 13.381C21.1323 13.2884 20.9111 13.0774 20.4892 12.599C19.913 11.961 18.9509 10.8292 17.1657 8.81244C16.713 8.30311 16.4712 7.75777 16.533 7.07866C16.5895 6.4047 17.1709 5.49923 17.8397 5.37061C18.5085 5.24713 19.1464 5.68958 19.666 6.13717C20.7619 7.06837 21.7445 8.12305 22.7065 9.1983V9.20859Z" fill="#92E053"></path><path d="M21.4673 39.342C21.8377 41.2301 21.4982 43.1851 21.0558 45.0578C20.1503 48.8649 18.7407 53.9428 16.8063 58.5216C14.7227 63.476 12.0269 67.8439 8.69316 69.4439C5.29255 71.0696 -0.623798 69.058 1.41863 61.3923C3.81604 52.3479 5.51377 48.0315 10.1182 39.2031C11.8417 35.8899 14.45 34.4699 16.9349 34.758C17.3207 34.7992 17.6963 34.8866 18.0667 35.0101C19.8879 35.6275 21.1021 37.4539 21.4673 39.342Z" fill="#92E053"></path><path d="M16.8065 58.5245C18.7461 53.9405 20.1506 48.8678 21.056 45.0607C21.4985 43.1932 21.8432 41.2382 21.4676 39.3449C21.1023 37.4568 19.8882 35.6253 18.067 35.013C17.6966 34.8896 17.321 34.8021 16.9352 34.7609C14.4503 34.4728 11.842 35.8928 10.1185 39.206C5.50889 48.0344 3.8163 52.356 1.41889 61.3953C-0.623533 69.0609 5.28767 71.0725 8.69343 69.4468C12.0323 67.8468 14.723 63.4737 16.8065 58.5245Z" stroke="black" stroke-width="1.62" stroke-linecap="round" stroke-linejoin="round"></path><path d="M16.948 34.6369C16.6342 32.188 16.6599 29.6928 17.0252 27.2594C17.0303 27.2491 17.0303 27.2388 17.0303 27.2285" stroke="black" stroke-width="1.62" stroke-linecap="round" stroke-linejoin="round"></path><path d="M16.8457 58.5459C16.8663 61.9003 16.8817 65.2495 16.9074 68.609C16.9074 68.6965 16.9074 68.7891 16.9074 68.8765" stroke="black" stroke-width="1.62" stroke-linecap="round" stroke-linejoin="round"></path><path d="M52.0634 76.3507C42.0982 78.3366 18.726 75.5481 16.9151 68.6079C16.91 68.5873 16.9048 68.5616 16.8945 68.541" stroke="black" stroke-width="1.62" stroke-linecap="round" stroke-linejoin="round"></path><path d="M64.8012 24.7393C65.362 24.9553 65.6038 25.2177 65.5987 25.5058C65.5884 26.1952 64.2148 27.0338 62.7228 27.821C52.8245 33.0635 27.8215 34.0924 17.2801 27.6357C17.1721 27.4968 17.0846 27.3734 17.0229 27.2602C16.637 26.5142 17.1721 26.1386 17.9489 26.046" stroke="black" stroke-width="1.62" stroke-linecap="round" stroke-linejoin="round"></path><path d="M65.4007 22.9385C65.4213 23.5198 65.1641 24.0703 64.6496 24.5899C59.1654 30.2543 24.9432 32.1579 17.9825 26.0047C17.5658 25.6395 17.2519 25.2382 17.041 24.8112" stroke="black" stroke-width="1.62" stroke-linecap="round" stroke-linejoin="round"></path><path d="M22.7129 9.2065C26.4222 4.84891 31.9218 1.54598 39.1089 1.0881C49.7583 0.403851 56.2509 3.78909 60.1196 8.3319C60.9376 9.28368 61.6373 10.2869 62.2289 11.3107C64.5852 15.3648 65.3569 19.779 65.4289 22.907" stroke="black" stroke-width="1.62" stroke-linecap="round" stroke-linejoin="round"></path><path d="M22.6914 9.2318L22.7123 9.21094" stroke="black" stroke-width="1.62" stroke-linecap="round" stroke-linejoin="round"></path><path d="M16.9505 24.8267V24.8164C16.7858 20.5977 17.8199 16.1269 20.3408 12.752" stroke="black" stroke-width="1.62" stroke-linecap="round" stroke-linejoin="round"></path><path d="M65.6496 25.3496V25.504C65.6033 26.9136 65.5519 28.3233 65.5056 29.7432C65.166 39.1169 64.6567 48.7839 64.3789 58.0496" stroke="black" stroke-width="1.62" stroke-linecap="round" stroke-linejoin="round"></path><path d="M65.7383 29.7549C70.3736 39.9157 72.5498 51.0644 71.7009 62.2902" stroke="black" stroke-width="1.62" stroke-linecap="round" stroke-linejoin="round"></path><path d="M60.2422 55.7358V55.7255C60.2679 48.3274 60.9624 38.6449 60.9882 31.252" stroke="black" stroke-width="1.62" stroke-linecap="round" stroke-linejoin="round"></path><path d="M31.791 34.4721C31.791 34.4721 31.8373 34.4773 31.863 34.4773C41.4167 35.4856 56.9175 33.5203 60.8531 31.2412" stroke="black" stroke-width="1.62" stroke-linecap="round" stroke-linejoin="round"></path><path d="M31.8594 34.5342C31.8285 36.0622 31.7925 37.585 31.7616 39.1181C31.6176 46.0635 31.4786 53.0192 31.3295 59.9646C31.3192 60.5511 31.3037 61.1273 31.2934 61.7139C31.2677 62.7634 31.2523 63.8129 31.2266 64.8624V64.991" stroke="black" stroke-width="1.62" stroke-linecap="round" stroke-linejoin="round"></path><path d="M57.8047 36.4688C57.8098 36.5356 57.8201 36.5922 57.8253 36.654C57.8304 36.6745 57.8304 36.6951 57.8304 36.7208C58.5609 42.5395 58.7359 49.202 59.4767 54.995" stroke="black" stroke-width="1.62" stroke-linecap="round" stroke-linejoin="round"></path><path d="M57.8008 36.7924C57.8008 36.7924 57.8265 36.7409 57.8368 36.7152C57.8522 36.6895 57.8625 36.6689 57.878 36.6432C58.9635 34.3846 59.7712 33.5563 60.8618 31.2412" stroke="black" stroke-width="1.62" stroke-linecap="round" stroke-linejoin="round"></path><path d="M31.7871 39.1177C40.9703 38.5672 48.7439 38.0476 57.8293 36.6534C57.8448 36.6482 57.8602 36.6482 57.8756 36.6482L57.9734 36.6328" stroke="black" stroke-width="1.62" stroke-linecap="round" stroke-linejoin="round"></path><path d="M31.2715 59.9691C31.2715 59.9691 31.3126 59.9639 31.3281 59.9639C41.319 58.5852 50.6822 57.1138 59.5516 55.4932" stroke="black" stroke-width="1.62" stroke-linecap="round" stroke-linejoin="round"></path><path d="M31.2168 64.8516H31.2219C34.9467 68.0207 40.7138 72.1005 44.0476 74.8015" stroke="black" stroke-width="1.62" stroke-linecap="round" stroke-linejoin="round"></path><path d="M31.3809 61.7148C35.5737 65.0281 40.2502 68.5728 44.4689 71.886C44.546 71.9477 44.6129 72.0043 44.6901 72.0609" stroke="black" stroke-width="1.62" stroke-linecap="round" stroke-linejoin="round"></path><path d="M44.5938 72.2043C44.6349 72.1992 44.6761 72.1889 44.7172 72.1786C54.9396 70.2596 68.0431 68.6544 78.8108 66.8486" stroke="black" stroke-width="1.62" stroke-linecap="round" stroke-linejoin="round"></path><path d="M59.8965 55.5C60.0097 55.572 60.1228 55.6543 60.2412 55.7264C61.5376 56.5855 62.8752 57.4344 64.2334 58.2884C66.6 59.7701 69.0437 61.2364 71.4925 62.646C73.9671 64.0711 76.4571 65.4448 78.8802 66.7155L79.1478 66.8544" stroke="black" stroke-width="1.62" stroke-linecap="round" stroke-linejoin="round"></path><path d="M44.2148 74.972C46.7563 75.6511 49.3955 76.0575 52.0759 76.2015C61.3671 76.716 71.1162 74.1025 78.6634 68.9629" stroke="black" stroke-width="1.62" stroke-linecap="round" stroke-linejoin="round"></path><path d="M78.6543 68.9632C78.891 68.3356 78.9218 67.5844 79.1585 66.9619" stroke="black" stroke-width="1.62" stroke-linecap="round" stroke-linejoin="round"></path><path d="M44.1699 74.904C44.1699 74.8731 44.1699 74.8423 44.1802 74.8062C44.2111 74.0397 44.386 72.6712 44.4117 71.9561" stroke="black" stroke-width="1.62" stroke-linecap="round" stroke-linejoin="round"></path><path d="M55.6276 58.5442L59.5067 57.9062C60.2012 58.3641 60.9163 58.8117 61.6571 59.2542C62.8764 60.0002 64.1523 60.7461 65.4179 61.4767C67.45 62.66 69.477 63.8484 71.3291 65.0574L65.3716 66.071L50.0817 68.6793L44.7364 69.59C41.2689 66.8581 38.5319 64.6819 35.0645 61.9449L41.1763 60.9314L45.7396 60.1751L51.3473 59.249L55.6225 58.5391L55.6276 58.5442Z" stroke="black" stroke-width="1.62" stroke-linecap="round" stroke-linejoin="round"></path><path d="M60.1309 8.32035C61.0775 7.0959 62.0395 6.23673 63.2948 4.93511C63.9688 4.23543 65.3475 4.17884 65.9958 4.90424C66.3559 5.31582 66.397 5.92805 66.2376 6.45281C66.0729 6.97243 65.7385 7.41488 65.4041 7.84704C64.2672 9.28242 63.6241 10.013 62.2968 11.2734" stroke="black" stroke-width="1.62" stroke-linecap="round" stroke-linejoin="round"></path><path d="M20.4892 12.6075C20.9111 13.086 21.1323 13.2918 21.3226 13.3895C21.3226 13.3895 22.4647 13.8268 23.3753 12.7567C24.502 11.4242 23.7149 10.3644 23.7149 10.3644C23.3805 9.97854 23.0461 9.60297 22.7065 9.21711C21.7496 8.13157 20.7619 7.08205 19.666 6.15085C19.1464 5.70325 18.5136 5.26081 17.8397 5.38428C17.1709 5.5129 16.5895 6.41837 16.533 7.09233C16.4712 7.77144 16.713 8.31678 17.1657 8.82611C18.9509 10.8429 19.913 11.9747 20.4892 12.6126V12.6075Z" stroke="black" stroke-width="1.62" stroke-linecap="round" stroke-linejoin="round"></path><path d="M33.1529 19.321C33.1375 20.3242 32.3555 21.1217 31.4038 21.1062C30.452 21.0908 29.6957 20.2676 29.7112 19.2644C29.7266 18.2612 30.5137 17.474 31.4655 17.4895C32.4173 17.5049 33.1684 18.3281 33.1478 19.3262L33.1529 19.321Z" stroke="black" stroke-width="1.62" stroke-linecap="round" stroke-linejoin="round"></path><path d="M61.5846 16.9281C61.6669 17.8284 61.1936 18.6053 60.53 18.667C59.8663 18.7288 59.2592 18.0497 59.1821 17.1442C59.1049 16.2387 59.5782 15.467 60.2419 15.4053C60.9055 15.3435 61.5023 16.0226 61.5846 16.9281Z" stroke="black" stroke-width="1.62" stroke-linecap="round" stroke-linejoin="round"></path><path d="M40.2871 63.8896C41.3109 63.7352 42.3244 63.586 43.3173 63.4265C44.907 63.1847 46.4607 62.9327 47.9835 62.6754C49.8716 62.3667 51.7185 62.058 53.5397 61.7339C54.9699 61.4818 56.395 61.2297 57.8304 60.9777C58.9262 60.777 60.022 60.5764 61.1281 60.3809" stroke="black" stroke-width="0.94" stroke-linecap="round" stroke-linejoin="round"></path><path d="M44.2227 66.2308C45.0355 66.1074 45.8381 65.989 46.6252 65.8656C48.2612 65.6186 49.8458 65.3614 51.4097 65.1144C53.2258 64.8109 55.0007 64.5125 56.7602 64.209C58.3293 63.9414 59.8727 63.6636 61.4367 63.3909C62.6354 63.1749 63.8444 62.9588 65.0585 62.7324" stroke="black" stroke-width="0.94" stroke-linecap="round" stroke-linejoin="round"></path><path d="M41.3809 62.1562C42.0239 62.5524 42.6722 62.9846 43.3152 63.4321C44.4419 64.209 45.5583 65.0527 46.6233 65.8656C47.8528 66.8019 49.0155 67.7023 50.0444 68.438" stroke="black" stroke-width="0.94" stroke-linecap="round" stroke-linejoin="round"></path><path d="M45.9258 61.2871C46.6615 61.8067 47.3354 62.2492 47.9836 62.6813C49.0846 63.4016 50.1341 64.0704 51.3791 64.9399" stroke="black" stroke-width="0.94" stroke-linecap="round" stroke-linejoin="round"></path><path d="M51.5312 60.2988C52.2052 60.7773 52.8689 61.2609 53.5428 61.7394C54.6026 62.4956 55.6624 63.2622 56.7222 64.0185" stroke="black" stroke-width="0.94" stroke-linecap="round" stroke-linejoin="round"></path><path d="M55.8086 59.6201C56.4465 60.0471 57.1256 60.5102 57.8304 60.9835C58.988 61.7603 60.2176 62.5783 61.4317 63.3861C62.8105 64.3121 64.1635 65.2227 65.3674 66.0305" stroke="black" stroke-width="0.94" stroke-linecap="round" stroke-linejoin="round"></path><path d="M33.9082 50.9155C35.6574 50.9515 37.4066 50.8177 39.13 50.5039" stroke="white" stroke-width="1.62" stroke-linecap="round" stroke-linejoin="round"></path><path d="M42.7617 50.0348L46.507 49.793" stroke="white" stroke-width="1.62" stroke-linecap="round" stroke-linejoin="round"></path><path d="M33.4277 46.6814C38.4283 46.3264 43.4238 45.9663 48.4192 45.6113" stroke="white" stroke-width="1.62" stroke-linecap="round" stroke-linejoin="round"></path><path d="M33.6348 42.4516C37.3441 42.1532 41.0585 41.8599 44.7729 41.5615" stroke="white" stroke-width="1.62" stroke-linecap="round" stroke-linejoin="round"></path><g style="mix-blend-mode:darken"><path d="M27.6027 75.1966C25.3751 75.423 18.7642 72.151 17.5912 70.2423C16.4131 68.3336 16.0787 66.0236 16.0427 63.7856C15.9604 58.7026 17.298 53.6968 18.9906 48.907C19.8291 46.5301 20.7706 44.1327 20.8323 41.6118C20.8941 39.0908 19.8651 36.3693 17.6478 35.1757C17.3288 35.0059 16.9738 34.8516 16.7938 34.5429C16.6343 34.2754 16.6394 33.9461 16.6446 33.6323C16.6857 31.8933 16.7012 29.2438 16.7423 27.5049C19.9114 29.4445 24.0375 30.8335 27.6078 31.4612C28.5287 31.6207 25.3391 31.986 24.9018 37.3159C24.7063 39.7236 22.6896 65.54 22.4529 67.9426C21.995 72.65 27.5564 75.2018 27.6078 75.1966H27.6027Z" fill="#61D12C"></path></g><g style="mix-blend-mode:darken"><path d="M22.7576 45.059C22.876 42.3889 22.6496 38.8133 20.2728 37.5889C19.4959 43.2275 17.968 49.2623 16.1931 54.6746C15.0098 58.2965 13.2761 62.2013 9.77255 63.7036C8.89281 64.0791 7.90504 64.2746 6.979 64.0328C5.56937 63.6573 4.59188 62.2991 4.24205 60.8791C3.89221 59.4592 3.44977 56.6656 3.61955 55.2148C3.06907 56.7633 2.31281 58.7749 1.76233 60.3286C1.24786 61.7743 1.40735 63.4463 1.36105 64.9846C1.31474 66.5178 1.70574 67.7473 2.90444 68.7094C4.55587 70.0316 7.91019 70.0213 9.65422 68.8277C11.3983 67.6342 11.959 66.4766 13.0548 64.6708C14.341 62.5409 15.6323 60.4058 16.9185 58.2759C16.4194 59.1042 16.4966 65.391 17.2529 66.0084C19.1873 67.5827 20.1596 62.8547 20.422 61.8875C21.9036 56.4649 22.5056 50.6668 22.7576 45.0745V45.059Z" fill="#3DB252"></path></g><g style="mix-blend-mode:darken"><path d="M34.4619 76.1534C39.8433 77.311 47.5757 77.6197 52.8798 76.1431C51.4393 76.8634 45.5744 75.3457 44.103 74.6872C42.6317 74.0287 42.1532 73.5914 40.8002 72.7219C39.9873 72.2023 38.8092 70.6897 37.986 70.1804C35.3057 68.5135 33.3044 66.5739 30.9121 64.6807C29.9141 67.1707 34.1996 76.0968 34.4619 76.1534Z" fill="#3DB252"></path></g><g style="mix-blend-mode:darken"><path d="M64.9197 47.1055C64.6471 47.8875 64.8425 48.7466 65.038 49.5492C65.2747 50.5319 65.5114 51.5145 65.7532 52.4972C65.9126 53.1505 66.0773 53.8194 66.4477 54.3853C66.8181 54.9512 67.4355 55.3936 68.1094 55.3679C68.6444 55.3473 69.1229 55.0387 69.5293 54.6888C70.3936 53.9377 71.0316 52.9293 71.3505 51.8283C71.8341 55.4039 71.9113 59.031 71.5718 62.622C69.6013 60.9603 67.42 59.5557 65.0895 58.4496C64.858 58.3416 64.6007 58.2078 64.5184 57.966C64.4824 57.8631 64.4824 57.7551 64.4824 57.647C64.4927 54.9358 64.503 52.2296 64.5133 49.5184" fill="#3DB252"></path></g><g style="mix-blend-mode:darken"><path d="M24.4518 14.2421C24.6576 12.9147 24.9406 11.3765 24.03 10.3887C24.3078 11.2993 23.9837 12.3591 23.2531 12.9662C22.5175 13.5733 21.4165 13.6865 20.5779 13.2389C18.8133 15.0447 18.3297 17.7045 17.9336 20.1997C17.6506 21.9746 17.3882 23.8936 18.232 25.4782C19.1426 27.1914 21.1233 28.0557 23.0371 28.385C24.3232 28.6062 26.3759 29.0744 27.6055 28.74C25.1258 24.1611 23.6287 19.5309 24.457 14.2472L24.4518 14.2421Z" fill="#61D12C"></path></g><g style="mix-blend-mode:darken"><path d="M64.7175 6.61684C65.1496 6.06636 65.5663 5.3358 65.2628 4.703C65.8184 4.67728 66.2608 5.23805 66.302 5.78854C66.3432 6.33903 66.0859 6.87408 65.8081 7.35254C64.8872 8.94227 63.6577 10.3519 62.2017 11.4735C61.9959 10.0124 60.8796 9.81687 61.4609 9.37957C62.4898 8.60786 64.0178 7.50174 64.7226 6.6117L64.7175 6.61684Z" fill="#3DB252"></path></g><g style="mix-blend-mode:darken"><path d="M22.1977 11.6385C22.4343 11.8289 22.6864 12.0141 22.9797 12.0656C23.2729 12.117 23.6279 11.9935 23.7308 11.7106C23.5867 12.5234 23.1186 13.4083 22.3006 13.5472C21.426 13.6913 20.6955 12.9299 20.1398 12.2405C19.3733 11.2836 18.6016 10.3215 17.835 9.36456C17.408 8.82951 16.9656 8.26873 16.8318 7.59477C16.7392 7.1266 16.8267 6.18511 17.4698 6.26228C17.8196 6.30344 18.581 7.82114 18.8022 8.11439C19.79 9.41601 20.9115 10.6147 22.1925 11.6385H22.1977Z" fill="#3DB252"></path></g><path d="M49.2316 8.96888C51.0168 9.03576 53.2547 8.94316 53.9492 7.55922C54.3197 6.81323 54.0521 5.92319 53.4708 5.27495C52.8895 4.62672 52.0457 4.18941 51.1917 3.82414C45.5943 1.43183 36.4935 1.10257 31.3951 4.58041C30.0935 5.46531 27.8556 7.59009 28.4472 9.20039C29.3321 11.603 34.2195 9.90008 36.1642 9.63255C40.4754 9.03062 44.8638 8.80939 49.2316 8.97402V8.96888Z" fill="#A1F75C"></path><path d="M5.06594 55.343C4.9116 56.2742 4.86529 57.4009 5.60612 57.9874C6.25435 58.5019 7.25241 58.3218 7.89549 57.8022C8.53858 57.2826 8.91413 56.5109 9.26912 55.7598C11.5533 50.9083 13.745 46.0105 15.8543 41.0818C16.1578 40.3718 16.4613 39.6413 16.5025 38.8747C16.5436 38.103 16.343 37.1204 15.6228 36.8477C11.4504 35.2683 5.51866 52.5855 5.07108 55.3482L5.06594 55.343Z" fill="#A1F75C"></path><path d="M66.7862 48.059C66.8325 49.3554 66.9045 50.7291 67.6145 51.8146C67.8614 52.1902 68.2885 52.5555 68.7155 52.4114C68.8801 52.3548 69.0138 52.2313 69.1322 52.0976C70.1097 50.9812 70.0325 49.3143 69.765 47.8532C69.5695 46.8036 69.3071 45.7695 69.0396 44.7354C68.8647 44.0461 68.6794 43.3412 68.3039 42.7341C67.918 42.1116 67.4344 39.8479 66.7193 39.7656C66.3489 41.7412 66.709 46.0216 66.7811 48.0538L66.7862 48.059Z" fill="#A1F75C"></path><path d="M64.3386 28.0304C63.8241 37.5173 63.6646 47.0196 63.145 56.5065C63.1244 56.9181 63.7675 56.9181 63.7881 56.5065C64.3077 47.0196 64.4672 37.5173 64.9817 28.0304C65.0022 27.6188 64.3592 27.6188 64.3386 28.0304Z" fill="#A1F75C"></path><path d="M45.2737 71.1741C54.0248 69.7336 62.8324 68.6121 71.6349 67.542C73.4253 67.3259 75.2207 67.1098 77.0111 66.9091C77.4175 66.8628 77.4227 66.2198 77.0111 66.2661C68.7488 67.1921 60.4968 68.2622 52.2653 69.4558C49.8731 69.8005 47.4859 70.1606 45.104 70.5516C44.6975 70.6185 44.8673 71.2359 45.2737 71.169V71.1741Z" fill="#A1F75C"></path><path d="M18.3689 24.5719C18.0911 22.8176 18.3535 20.9809 18.7599 19.2728C19.1663 17.5648 19.758 15.8567 20.6428 14.3287C20.8486 13.9686 20.293 13.6445 20.0872 14.0046C19.1458 15.6252 18.5181 17.4413 18.1014 19.2626C17.6847 21.0838 17.4634 22.9256 17.7516 24.7468C17.8184 25.1533 18.4358 24.9835 18.3689 24.5771V24.5719Z" fill="#A1F75C"></path><path d="M17.4902 33.36L17.552 29.6455" stroke="#A1F75C" stroke-width="0.62" stroke-miterlimit="10"></path><path d="M17.4996 59.0791C17.4791 62.4695 17.6591 65.8599 18.0398 69.2297" stroke="#A1F75C" stroke-width="0.62" stroke-miterlimit="10"></path><path d="M66.4235 34.5948C69.4126 43.1454 70.817 52.1744 70.4775 61.2292C70.4621 61.6459 71.1103 61.6459 71.1257 61.2292C71.4653 52.123 70.0505 43.0219 67.046 34.4251C66.9071 34.0341 66.2795 34.1987 66.4184 34.6L66.4235 34.5948Z" fill="#A1F75C"></path><path d="M23.7946 9.47378C26.4595 6.91684 29.5926 4.8075 33.0549 3.49559C36.3269 2.25571 39.7481 1.92644 43.2208 2.14252C46.6934 2.3586 49.9911 3.15089 53.011 4.73547C56.283 6.44867 59.0508 9.02104 61.0264 12.1388C63.1666 15.5188 64.4064 19.4546 64.4682 23.4623C64.4733 23.8791 65.1267 23.8842 65.1164 23.4623C65.0083 16.0848 61.0367 8.94901 54.7911 5.01329C51.7506 3.09944 48.2779 2.02419 44.723 1.62805C41.168 1.2319 37.5822 1.36052 34.1867 2.42034C30.107 3.69623 26.408 6.06796 23.3315 9.02104C23.028 9.30915 23.491 9.77217 23.7894 9.47892L23.7946 9.47378Z" fill="#A1F75C"></path><path d="M20.4075 40.4646C19.9754 46.1289 18.5452 51.7213 16.2918 56.9277C15.1909 59.4641 13.8944 61.9181 12.3922 64.2436C11.6719 65.3548 10.9517 66.5741 9.93302 67.4333C8.97612 68.241 7.77741 68.8018 6.5427 69.0025C5.30798 69.2031 4.0424 69.0025 3.11636 68.1176C2.27778 67.3253 1.77361 66.1317 1.76846 64.9793C1.75303 62.6744 2.77681 60.3541 3.38388 58.1625C4.86554 52.7914 6.92855 47.6209 9.48029 42.6665C10.6636 40.3771 12.1504 37.5269 14.5838 36.3694C16.0191 35.6851 17.5934 36.2819 18.7767 37.2182C19.6924 37.9436 20.1554 38.952 20.2378 40.1044C20.2686 40.5212 20.9169 40.5212 20.886 40.1044C20.7214 37.7893 19.1162 36.2099 16.94 35.5462C14.3214 34.7436 12.1195 37.2131 10.8076 39.1372C9.16132 41.5553 7.92146 44.246 6.72791 46.9109C5.53435 49.5759 4.44368 52.4107 3.5588 55.2557C3.11122 56.6911 2.7408 58.1419 2.30865 59.5824C1.93309 60.8275 1.52666 62.0725 1.29001 63.3587C1.06879 64.5625 1.03792 65.7201 1.50608 66.8674C1.92795 67.9015 2.67392 68.8172 3.68742 69.3111C5.91505 70.3967 8.8012 69.3266 10.5298 67.778C11.5433 66.8725 12.279 65.6224 13.0095 64.4854C13.8738 63.1477 14.6661 61.7587 15.3966 60.3439C18.5606 54.1804 20.531 47.3791 21.0609 40.4697C21.0918 40.053 20.4435 40.053 20.4127 40.4697L20.4075 40.4646Z" fill="#A1F75C"></path></svg> 