<?xml version="1.0" encoding="UTF-8"?> <svg xmlns="http://www.w3.org/2000/svg" width="121" height="103" viewBox="0 0 121 103" fill="none"><path d="M94.2516 57.6786L94.3123 57.2941C94.029 56.2891 93.8671 55.257 93.8199 54.2182C93.7726 53.0648 93.9076 51.8236 94.6091 50.8995C94.9935 50.3936 95.5939 50.0293 96.2077 49.9147L96.1537 49.6313C96.6192 48.9636 97.1858 48.3497 97.9143 47.9922C98.6428 47.6482 99.5601 47.6077 100.235 48.0529C100.687 48.3497 100.99 48.8151 101.246 49.3076L101.617 49.2603C102.184 48.741 103.088 48.6802 103.789 48.9905C104.491 49.3008 105.017 49.9281 105.361 50.6094C105.698 51.3042 105.887 52.0597 106.063 52.8084C106.285 53.746 106.508 54.6769 106.73 55.601L106.656 56.1407C108.336 58.0698 108.842 60.9434 107.938 63.338C107.02 65.7259 104.727 67.5269 102.191 67.8507C101.435 67.9519 100.666 67.9046 99.9244 67.7495C98.1638 67.3852 96.545 66.3734 95.4994 64.9029L95.0812 64.6331C94.4202 64.6331 93.7524 64.3498 93.2465 63.9114C92.6394 63.392 92.2212 62.6904 91.9312 61.9552C91.6883 61.3683 91.5332 60.7545 91.5332 60.1204C91.5332 60.0665 91.5399 60.0125 91.5399 59.9586C91.5737 59.284 91.8435 58.596 92.3561 58.1508C92.8553 57.7123 93.5568 57.5639 94.2246 57.6584L94.2516 57.6786Z" fill="#F8C8A5"></path><path d="M42.3813 75.4812L40.1756 75.1777C39.1099 74.0849 38.5837 72.493 38.7996 70.9753L38.8333 70.6718C39.3527 70.719 39.8721 70.719 40.3915 70.6245C41.4775 70.4492 42.5365 69.8893 43.1031 68.9449C43.6697 68.0006 43.6292 66.665 42.8333 65.9028C42.0036 65.0933 40.6883 65.1135 39.5348 65.181H39.3932C39.4674 64.1422 39.69 63.1102 39.8181 62.0781C39.9058 61.3766 39.9395 60.6346 39.8518 59.9263C39.7979 59.4609 39.6832 59.0022 39.4943 58.5638C39.0154 57.4777 37.9699 56.5604 36.7827 56.5536C36.007 56.5536 35.2718 56.9179 34.7254 57.4643C34.3139 57.8757 34.0037 58.3749 33.7811 58.9078L33.1133 58.4828C33.8485 55.272 35.7574 52.3378 38.3814 50.3411C41.012 48.3377 44.351 47.3057 47.6427 47.4608L47.7236 47.3799C48.1621 47.8318 48.6208 48.277 49.1132 48.6952C53.8012 52.7425 60.904 54.5705 66.3272 51.589L66.2935 51.4204C68.1822 51.0629 70.0034 50.4086 71.6762 49.4507L71.71 49.5114C74.172 49.5114 76.0404 50.0443 77.5986 51.3529C79.1568 52.6615 80.2428 54.4288 81.3085 56.1691C82.5969 58.2805 83.892 60.385 85.1803 62.4963L85.2815 62.638C87.1432 61.444 89.268 60.5132 91.1162 60.122L91.5547 60.1422C91.5547 60.7763 91.7165 61.3901 91.9526 61.9769C92.2494 62.7122 92.6676 63.4204 93.268 63.9331C93.7739 64.3715 94.4416 64.6549 95.1027 64.6549L95.5209 64.9247C96.5597 66.3952 98.1786 67.407 99.9458 67.7712L99.8581 68.1894C97.9627 71.5082 95.1701 74.321 91.8582 76.23C90.0774 77.2553 88.0943 78.0377 86.037 78.0108C84.0876 77.9838 82.1922 77.2013 80.58 76.0951C78.9612 74.9888 76.9511 73.0799 75.6357 71.6161H75.4468C75.8381 80.0276 74.3271 88.5133 70.9882 96.2301L70.887 96.392C67.5144 102.267 55.049 101.916 49.1199 100.723C43.211 99.5286 32.1015 95.0429 33.7608 91.4341L33.7946 91.4543C35.2178 89.7208 36.5197 87.8793 37.6731 85.9433C39.6495 82.6718 41.2346 79.144 42.3611 75.488L42.3813 75.4812Z" fill="#955EEA"></path><path d="M84.1695 21.2803C85.7007 23.8233 86.0717 27.4995 83.4545 30.5687C82.3888 31.8233 81.3095 32.4709 80.183 32.8621C78.5169 33.4287 76.7497 33.422 74.7193 33.9144L74.6721 33.9346C74.3686 33.2331 73.7143 32.6733 72.9453 32.5788C71.7514 32.4304 70.7666 33.3545 69.9976 34.3326L69.802 34.2719C67.3265 34.7913 64.2439 34.7711 61.2894 35.0544C58.335 35.3309 54.76 35.304 52.2912 33.6581C52.217 33.6109 52.1563 33.5704 52.0888 33.5164V33.4962C49.4109 31.4321 49.8291 26.8924 51.5829 24.7204C53.9775 21.7592 56.6621 21.3005 59.8459 20.8958C64.6958 20.2819 82.1527 17.5973 84.1088 21.314L84.1628 21.2803H84.1695ZM79.3399 27.9177C80.2235 27.8301 80.8711 27.0341 80.7834 26.1572L80.6754 25.1454C80.5877 24.255 79.8053 23.6142 78.9149 23.7019L56.6284 25.9413C55.7448 26.029 55.104 26.825 55.1984 27.7019L55.3063 28.7272C55.394 29.6108 56.1765 30.2517 57.0601 30.1572L79.3466 27.9177H79.3399Z" fill="#666666"></path><path d="M84.1674 21.2803L84.1135 21.3141C82.1573 17.5974 64.7005 20.282 59.8506 20.8959C56.6668 21.3073 53.9754 21.7593 51.5876 24.7205C49.8338 26.8925 49.4156 31.4322 52.107 33.4963V33.5165C51.4122 33.0376 50.7916 32.4372 50.2655 31.7694C48.9839 30.1573 48.2824 28.1067 48.5859 26.0831C48.8153 24.5451 49.5977 23.1556 50.677 22.0156C51.3178 21.3411 52.053 20.7542 52.8557 20.2685C54.9805 18.9869 57.456 18.7643 59.918 18.4743C66.4812 17.6918 70.063 17.449 75.2501 17.0712C75.3041 17.0712 75.3648 17.0645 75.4188 17.0645C77.5166 16.9228 78.9938 17.0375 80.2484 17.5704C81.4423 18.0763 82.4339 18.9734 83.5671 20.3967C83.7897 20.6733 83.9921 20.9633 84.1742 21.2803H84.1674Z" fill="#666666"></path><path d="M80.7755 26.1587C80.8632 27.0423 80.2157 27.8315 79.332 27.9192L57.0455 30.1587C56.1619 30.2464 55.3794 29.6056 55.2917 28.7287L55.1838 27.7034C55.0961 26.8197 55.7369 26.0305 56.6138 25.9428L78.9003 23.7033C79.7907 23.6156 80.5732 24.2565 80.6609 25.1469L80.7688 26.1587H80.7755Z" fill="#955EEA"></path><path d="M39.502 32.5856C38.6184 32.5788 37.7482 32.2753 37.0534 31.7492C35.8595 30.852 35.1917 29.3276 35.2322 27.8436C35.2592 26.5552 35.8123 25.2601 36.7971 24.4439C37.4379 23.9178 38.2474 23.6075 39.0635 23.5872C39.529 23.567 39.9877 23.6412 40.4194 23.8166C41.357 24.1876 42.072 25.0712 42.2811 26.0493L42.6386 25.9751C45.3906 27.9785 47.4142 29.847 50.1663 31.8503L50.2675 31.7694C50.7936 32.4372 51.4142 33.0308 52.1022 33.5165C52.1764 33.5704 52.2371 33.6176 52.3046 33.6581C54.7666 35.304 58.3484 35.331 61.3028 35.0544C64.2573 34.7711 67.3466 34.7846 69.8154 34.2719L70.011 34.3327C70.7733 33.3546 71.7648 32.4305 72.9587 32.5788C73.721 32.6665 74.382 33.2264 74.6855 33.9347L74.7328 33.9144C76.7631 33.422 78.5304 33.4355 80.1965 32.8622L80.2841 33.1185C80.7631 39.1691 77.7749 45.3884 72.7496 48.788C72.4056 49.0174 72.0549 49.24 71.6974 49.4356C70.0245 50.3867 68.2033 51.0478 66.3146 51.4053L66.3483 51.5739C60.9184 54.5554 53.8223 52.7274 49.1343 48.6801C48.6419 48.2619 48.1832 47.8167 47.7448 47.3648C43.8864 43.4255 41.4716 38.2113 39.4885 33.024L39.5155 32.5788L39.502 32.5856ZM66.9149 42.2787C64.8171 42.5755 62.5575 42.0224 60.716 40.9701L60.6688 41.0511C60.5878 41.0578 60.5001 41.0713 60.4192 41.0781C60.1224 41.8133 60.1022 42.643 60.3045 43.412C60.5001 44.2214 60.9521 44.9634 61.6064 45.4761C62.8003 46.4204 64.5608 46.5351 65.8762 45.7931C65.6738 45.4491 65.6333 44.896 65.7278 44.3361C65.8627 43.4255 66.3146 42.4878 66.9217 42.2922L66.9149 42.2787Z" fill="#F8C8A5"></path><path d="M80.2552 17.5228L80.235 17.5767C78.9803 17.0438 77.5031 16.9292 75.4053 17.0708L75.2637 14.7369C75.2637 14.7369 75.2704 14.6829 75.2839 14.6492C75.4323 13.9342 75.6819 13.0236 76.0191 12.1602L76.8353 12.403C78.6835 13.6846 79.9584 15.3035 80.2552 17.5295V17.5228Z" fill="#F8C8A5"></path><path d="M76.9836 10.2053V10.3941L76.5721 10.5088C71.5536 10.7044 66.3867 10.3739 61.4289 11.1833C59.5537 8.755 57.2266 7.25752 54.6027 5.65211C53.2671 4.83592 51.7966 4.12091 50.2317 4.14114C49.5639 4.14789 48.8759 4.33676 48.2891 4.66054C55.8775 -0.6346 65.1051 0.876369 68.9027 2.68414C72.1944 4.24907 75.3175 6.97421 76.9701 10.212L76.9836 10.2053Z" fill="#8DC540"></path><path d="M61.4845 11.2579C61.4845 11.2579 61.4508 11.204 61.4305 11.1837C66.3884 10.3743 71.5553 10.7048 76.5738 10.5092L76.9852 10.3945C76.621 10.833 76.2972 11.4738 76.0274 12.1551C75.6901 13.0185 75.4406 13.9359 75.2922 14.6441L75.1235 14.6104C70.1118 15.0623 65.0933 15.3929 60.068 15.6222L60.041 15.1838C60.4053 14.0775 60.9516 12.3035 61.4913 11.2512L61.4845 11.2579Z" fill="#66BC57"></path><path d="M46.7327 6.69804L46.672 6.6171C46.7597 6.2461 46.9418 5.89534 47.1711 5.5918L48.0345 5.76043C53.1137 7.04206 57.5387 10.725 59.6972 15.5008L59.9467 15.6222C59.9805 15.6222 60.0277 15.6222 60.0614 15.6155C65.0867 15.3861 70.1052 15.0556 75.1169 14.6037L75.2856 14.6374C75.2788 14.6711 75.2788 14.6981 75.2653 14.7251L75.407 17.059C75.353 17.059 75.2923 17.0657 75.2384 17.0657C70.0512 17.4502 66.4762 17.6863 59.9063 18.4688C57.4442 18.7656 54.9687 18.9882 52.8439 20.263C52.0412 20.742 51.306 21.3288 50.6652 22.0101L50.4156 21.7605C48.6281 20.3575 44.8642 18.5632 42.8878 16.7892C41.7142 15.7301 41.0464 14.7048 40.9452 13.1264L40.5 12.8498C40.5 12.8498 40.527 12.8026 40.5337 12.7891C40.817 12.3709 42.0177 12.6138 42.5371 12.3777L42.9283 12.3979C43.785 10.2191 45.0194 8.05387 46.7259 6.6913L46.7327 6.69804Z" fill="#F8C8A5"></path><path d="M61.4295 11.1832C61.4295 11.1832 61.4632 11.2305 61.4835 11.2574C60.9438 12.3097 60.3975 14.0838 60.0332 15.19L60.0602 15.6285C60.0265 15.6352 59.9793 15.6352 59.9455 15.6352L59.696 15.5138C57.5307 10.738 53.1125 7.05506 48.0333 5.77343L47.1699 5.6048C47.4667 5.22031 47.8579 4.90328 48.3031 4.66044C48.89 4.34341 49.578 4.15454 50.2458 4.14104C51.8107 4.12081 53.2812 4.83582 54.6168 5.65201C57.2407 7.26417 59.5611 8.7549 61.443 11.1832H61.4295Z" fill="#66BC57"></path><path d="M50.4148 21.774L50.6644 22.0235C49.5852 23.1635 48.8027 24.5531 48.5734 26.091C48.2698 28.1079 48.9713 30.1652 50.2529 31.7774L50.1518 31.8583C47.3997 29.8549 45.3761 27.9865 42.624 25.9831L42.2665 26.0573C42.0641 25.0792 41.3424 24.1956 40.4048 23.8246C39.9798 23.6492 39.5144 23.575 39.049 23.5952V23.5682C38.3475 23.2849 38.705 15.548 40.4925 12.8633L40.9377 13.1398C41.0389 14.725 41.6999 15.7436 42.8803 16.8026C44.8567 18.5834 48.6206 20.3709 50.4081 21.774H50.4148Z" fill="#B3D1D9"></path><path d="M39.3927 65.1796H39.5344C40.6878 65.1189 42.0099 65.0986 42.8328 65.9081C43.622 66.6703 43.6692 68.0059 43.1026 68.9502C42.536 69.8946 41.477 70.4545 40.391 70.6298C39.8716 70.7175 39.3522 70.7175 38.8328 70.6771C38.2528 70.6298 37.6861 70.5152 37.1263 70.3803L37.0251 70.4882C34.617 72.5051 30.8936 72.7749 28.2225 71.1492C28.1618 71.1155 28.1011 71.0683 28.0336 71.0346C27.1365 70.4477 26.327 69.5843 26.2461 68.5185L26.3338 68.1206C26.9206 68.3634 27.6154 68.2352 28.155 67.9182C28.6946 67.5877 29.1061 67.0818 29.4569 66.5489L29.6457 66.2521C29.7671 66.4005 29.9021 66.5354 30.0639 66.6501C30.9273 67.2909 32.209 67.1829 33.0521 66.5152C33.8953 65.8541 34.3135 64.7344 34.273 63.6686L34.3742 63.419C34.7992 63.7361 35.3185 63.9182 35.8447 63.844C36.6339 63.736 37.2949 63.1155 37.6524 62.3937C37.9964 61.672 38.1044 60.8558 38.2123 60.0531L39.8581 59.9316C39.9458 60.6467 39.9121 61.3819 39.8244 62.0834C39.6895 63.1155 39.4669 64.1475 39.3995 65.1796H39.3927Z" fill="#F8AA92"></path><path d="M40.1732 75.1759L42.3789 75.4794C41.2457 79.1354 39.6673 82.6633 37.6909 85.9348C36.0788 86.7172 33.6302 85.7931 32.3014 84.5924C30.9389 83.3648 30.1766 81.6177 29.5088 79.9111C28.4566 77.1995 27.5662 74.272 28.0788 71.3984L28.2272 71.1489C30.8984 72.7745 34.615 72.5114 37.0299 70.4878L37.131 70.3799C37.6909 70.5148 38.2643 70.6295 38.8376 70.6767L38.8039 70.9802C38.588 72.4912 39.1142 74.0831 40.1799 75.1826L40.1732 75.1759Z" fill="#955EEA"></path><path d="M39.8517 59.9253L38.2058 60.0468C38.0979 60.8495 37.99 61.6657 37.6459 62.3874C37.2884 63.1092 36.6341 63.7297 35.8382 63.8377C35.3121 63.9119 34.7994 63.7298 34.3677 63.4127C34.0035 63.1362 33.7067 62.7517 33.5313 62.3335C33.1738 61.47 33.2615 60.492 33.5313 59.6016C33.538 59.5476 33.5583 59.4936 33.5785 59.4397C33.6392 59.2508 33.6999 59.0754 33.7809 58.9C34.0035 58.3672 34.3138 57.868 34.7252 57.4565C35.2648 56.9169 36.0068 56.5459 36.7825 56.5459C37.9765 56.5526 39.0152 57.47 39.4942 58.556C39.683 58.9945 39.7977 59.4532 39.8517 59.9186V59.9253Z" fill="#F8C8A5"></path><path d="M34.3741 63.4139L34.2729 63.6635C34.3201 64.7293 33.9019 65.849 33.052 66.5101C32.2088 67.1779 30.9272 67.2858 30.0638 66.645C29.9019 66.5303 29.767 66.3954 29.6456 66.247C29.2746 65.8018 29.052 65.2217 28.9104 64.6551C28.6541 63.5893 28.6406 62.4156 29.0318 61.4105C29.1667 61.08 29.3353 60.763 29.5579 60.4729C30.4416 59.306 32.2156 58.7798 33.4365 59.5825L33.5377 59.6095C33.2679 60.4999 33.1802 61.478 33.5377 62.3414C33.713 62.7596 34.0098 63.1441 34.3741 63.4207V63.4139Z" fill="#F8C8A5"></path><path d="M29.6458 66.2463L29.4569 66.5431C29.1129 67.076 28.7014 67.5819 28.1551 67.9125C27.6154 68.2295 26.9207 68.3577 26.3338 68.1148C25.4704 67.7708 25.0792 66.759 24.8634 65.8484C24.661 64.985 24.5328 64.0878 24.688 63.2177C24.8499 62.3475 25.3288 61.4976 26.1045 61.0726C26.8802 60.6477 27.9662 60.7354 28.5395 61.4099H29.032C28.6407 62.415 28.6475 63.5887 28.9105 64.6544C29.0522 65.221 29.2748 65.8011 29.6458 66.2463Z" fill="#F8C8A5"></path><path d="M55.3789 49.9712C58.7246 51.6373 62.6234 52.096 66.2996 51.4147C68.1883 51.0572 70.0095 50.4029 71.6823 49.4451C72.0398 49.2494 72.3838 49.0268 72.7346 48.7975C77.7599 45.3978 80.7548 39.1786 80.2691 33.1279" stroke="#231F20" stroke-width="1.71" stroke-linecap="round" stroke-linejoin="round"></path><path d="M39.4746 33.0332C41.4577 38.2204 43.8726 43.4346 47.7309 47.3739C48.1693 47.8259 48.628 48.2711 49.1204 48.6893C53.8084 52.7365 60.9112 54.5645 66.3344 51.5831" stroke="#231F20" stroke-width="1.71" stroke-linecap="round" stroke-linejoin="round"></path><path d="M69.8544 38.7523C71.507 39.1098 73.3417 38.3679 74.2793 36.9648C74.7987 36.2093 75.0415 35.2447 74.8189 34.3611C74.7852 34.2194 74.738 34.0778 74.6705 33.9429C74.367 33.2413 73.7127 32.6815 72.9437 32.587C71.7498 32.4386 70.765 33.3628 69.996 34.3408C69.8881 34.4758 69.8004 34.5972 69.6992 34.7321" stroke="#231F20" stroke-width="1.71" stroke-linecap="round" stroke-linejoin="round"></path><path d="M74.7181 33.9233C76.7485 33.4309 78.5158 33.4443 80.1818 32.871C81.3151 32.4798 82.3876 31.8322 83.4533 30.5775C86.0705 27.5084 85.6928 23.8321 84.1683 21.2891C83.993 20.9788 83.7838 20.682 83.5612 20.4055C82.428 18.9822 81.4365 18.0851 80.2426 17.5792C78.9879 17.0463 77.5107 16.9316 75.4129 17.0733C75.359 17.0733 75.2982 17.08 75.2443 17.08C70.0571 17.4645 66.4821 17.7006 59.9122 18.483C57.4501 18.7798 54.9746 19.0024 52.8498 20.2773C52.0471 20.7562 51.3119 21.3431 50.6711 22.0244C49.5919 23.1644 48.8094 24.5539 48.5801 26.0919C48.2765 28.1087 48.978 30.1661 50.2596 31.7782C50.7858 32.446 51.4063 33.0396 52.0944 33.5253C52.1686 33.5793 52.2293 33.6265 52.2967 33.6669C54.7588 35.3128 58.3405 35.3398 61.295 35.0632C64.2494 34.7799 67.3388 34.7934 69.8076 34.2808" stroke="#231F20" stroke-width="1.71" stroke-linecap="round" stroke-linejoin="round"></path><path d="M79.332 27.926L57.0455 30.1655C56.1619 30.2532 55.3794 29.6124 55.2917 28.7355L55.1838 27.7102C55.0961 26.8265 55.7369 26.0373 56.6138 25.9496L78.9003 23.7102C79.7907 23.6225 80.5732 24.2633 80.6609 25.1537L80.7688 26.1655C80.8565 27.0491 80.2089 27.8384 79.3253 27.926H79.332Z" stroke="#231F20" stroke-width="1.71" stroke-linecap="round" stroke-linejoin="round"></path><path d="M52.1015 33.504C49.4168 31.4399 49.8351 26.9003 51.5821 24.7282C53.9767 21.767 56.6613 21.3083 59.8451 20.9036C64.695 20.2898 82.1518 17.6051 84.108 21.3218" stroke="#231F20" stroke-width="1.71" stroke-linecap="round" stroke-linejoin="round"></path><path d="M80.2558 17.5259C79.959 15.2999 78.6909 13.681 76.8359 12.3994" stroke="#231F20" stroke-width="1.71" stroke-linecap="round" stroke-linejoin="round"></path><path d="M41.2749 32.2031C40.7218 32.4796 40.108 32.601 39.4942 32.5875C38.6105 32.5808 37.7404 32.2773 37.0456 31.7511C35.8517 30.854 35.1839 29.3295 35.2244 27.8455C35.2514 26.5572 35.8045 25.262 36.7893 24.4458C37.4301 23.9197 38.2395 23.6094 39.0557 23.5892C39.5212 23.5689 39.9798 23.6431 40.4115 23.8185C41.3491 24.1895 42.0641 25.0732 42.2732 26.0513C42.3272 26.3211 42.334 26.5909 42.307 26.8674" stroke="#231F20" stroke-width="1.71" stroke-linecap="round" stroke-linejoin="round"></path><path d="M37.8001 29.2208C37.4291 28.8228 37.5775 28.1078 38.0227 27.8043C38.4746 27.5007 39.1087 27.5817 39.5471 27.9122C39.9856 28.2292 40.2352 28.7554 40.3363 29.2815" stroke="#231F20" stroke-width="0.99" stroke-linecap="round" stroke-linejoin="round"></path><path d="M42.6309 25.9824C45.3829 27.9858 47.4065 29.8543 50.1586 31.8577" stroke="#231F20" stroke-width="1.71" stroke-linecap="round" stroke-linejoin="round"></path><path d="M50.4138 21.7747C48.6263 20.3717 44.8624 18.5774 42.886 16.8034C41.7123 15.7443 41.0445 14.719 40.9434 13.1406" stroke="#231F20" stroke-width="1.71" stroke-linecap="round" stroke-linejoin="round"></path><path d="M39.0627 23.5621C38.3611 23.2788 38.7186 15.5419 40.5062 12.8572C40.5129 12.8302 40.5331 12.81 40.5399 12.7965C40.8232 12.3783 42.0239 12.6211 42.5432 12.385C42.577 12.3648 42.6039 12.3513 42.6309 12.3311" stroke="#231F20" stroke-width="1.71" stroke-linecap="round" stroke-linejoin="round"></path><path d="M42.125 14.8864C42.3476 14.0837 42.6174 13.2405 42.9344 12.4041C43.7911 10.2253 45.0255 8.06004 46.732 6.69747C46.9884 6.48162 47.2649 6.29949 47.5482 6.13086" stroke="#231F20" stroke-width="1.71" stroke-linecap="round" stroke-linejoin="round"></path><path d="M48.0332 5.76758C53.1124 7.0492 57.5374 10.7322 59.6959 15.5079" stroke="#231F20" stroke-width="1.71" stroke-linecap="round" stroke-linejoin="round"></path><path d="M59.9473 15.6357C59.981 15.6357 60.0282 15.6357 60.0619 15.629C65.0872 15.3997 70.1057 15.0691 75.1175 14.6172" stroke="#231F20" stroke-width="1.71" stroke-linecap="round" stroke-linejoin="round"></path><path d="M75.2637 14.7377C75.2637 14.7377 75.2704 14.6837 75.2839 14.65C75.4323 13.935 75.6819 13.0244 76.0191 12.1609C76.2957 11.4729 76.6127 10.8321 76.977 10.4004" stroke="#231F20" stroke-width="1.71" stroke-linecap="round" stroke-linejoin="round"></path><path d="M60.0332 15.1926C60.3974 14.0863 60.9438 12.3123 61.4834 11.26L61.5104 11.2061" stroke="#231F20" stroke-width="1.71" stroke-linecap="round" stroke-linejoin="round"></path><path d="M46.6719 6.62424C46.7596 6.25324 46.9417 5.90248 47.171 5.59894C47.4678 5.21445 47.8591 4.89742 48.3042 4.65458C48.8911 4.33755 49.5791 4.14868 50.2469 4.13519C51.8118 4.11495 53.2823 4.82996 54.6179 5.64615C57.2418 7.25831 59.5622 8.74904 61.4441 11.1774C61.4643 11.1976 61.4778 11.2246 61.4981 11.2516C61.5048 11.2583 61.5183 11.2786 61.525 11.2853" stroke="#231F20" stroke-width="0.99" stroke-linecap="round" stroke-linejoin="round"></path><path d="M76.9857 10.2061C75.3331 6.96835 72.2101 4.24321 68.9184 2.67828C65.1207 0.87051 55.8932 -0.64046 48.3047 4.65468" stroke="#231F20" stroke-width="1.71" stroke-linecap="round" stroke-linejoin="round"></path><path d="M61.3223 11.2036C61.356 11.1968 61.3965 11.1968 61.4302 11.1833C66.388 10.3739 71.5549 10.7044 76.5734 10.5088" stroke="#231F20" stroke-width="0.99" stroke-linecap="round" stroke-linejoin="round"></path><path d="M68.0549 42.0243C67.6839 42.139 67.3062 42.2199 66.915 42.2739C64.8172 42.5707 62.5575 42.0175 60.716 40.9653C60.6418 40.9315 60.5811 40.8843 60.5137 40.8506" stroke="#231F20" stroke-width="1.71" stroke-linecap="round" stroke-linejoin="round"></path><path d="M60.6675 41.0449C60.5865 41.0517 60.4988 41.0652 60.4179 41.0719C60.1211 41.8072 60.1008 42.6368 60.3032 43.4058C60.4988 44.2153 60.9508 44.9573 61.6051 45.4699C62.799 46.4143 64.5595 46.5289 65.8748 45.7869C65.976 45.7262 66.0705 45.6655 66.1581 45.5981" stroke="#231F20" stroke-width="1.71" stroke-linecap="round" stroke-linejoin="round"></path><path d="M65.889 45.8295C65.889 45.8295 65.8688 45.8093 65.8688 45.7958C65.6664 45.4518 65.6259 44.8986 65.7204 44.3388C65.8553 43.4281 66.3072 42.4905 66.9143 42.2949" stroke="#231F20" stroke-width="1.71" stroke-linecap="round" stroke-linejoin="round"></path><path d="M60.457 43.3604C61.7656 44.0484 63.9781 44.4464 65.5025 44.3047" stroke="#231F20" stroke-width="0.99" stroke-linecap="round" stroke-linejoin="round"></path><path d="M71.7188 49.5117C74.1808 49.5117 76.0492 50.0446 77.6074 51.3532C79.1656 52.6618 80.2516 54.4291 81.3173 56.1694C82.6057 58.2807 83.9008 60.3853 85.1891 62.4966" stroke="#231F20" stroke-width="1.71" stroke-linecap="round" stroke-linejoin="round"></path><path d="M73.6672 59.9189C74.679 63.7368 75.2794 67.6694 75.4547 71.6222C75.846 80.0202 74.335 88.5127 70.9961 96.2227" stroke="#231F20" stroke-width="1.71" stroke-linecap="round" stroke-linejoin="round"></path><path d="M75.6406 71.6093C76.956 73.0663 78.9661 74.982 80.5849 76.0882C82.1971 77.1945 84.0925 77.9769 86.0419 78.0039C88.0992 78.0309 90.0823 77.2484 91.8631 76.2231C95.175 74.3074 97.9676 71.5014 99.863 68.1826" stroke="#231F20" stroke-width="1.71" stroke-linecap="round" stroke-linejoin="round"></path><path d="M82.0586 65.3362C82.895 64.3648 84.035 63.4407 85.2896 62.6313C87.1513 61.4373 89.2761 60.5065 91.1243 60.1152" stroke="#231F20" stroke-width="1.71" stroke-linecap="round" stroke-linejoin="round"></path><path d="M95.4796 64.6215C95.3582 64.6417 95.23 64.6484 95.1086 64.6484C94.4475 64.6484 93.7798 64.3651 93.2739 63.9267C92.6668 63.4073 92.2486 62.7058 91.9585 61.9705C91.7157 61.3837 91.5605 60.7698 91.5605 60.1358C91.5605 60.0818 91.5673 60.0278 91.5673 59.9739C91.601 59.2993 91.8708 58.6113 92.3835 58.1661C92.8826 57.7277 93.5841 57.5793 94.2519 57.6737C94.5285 57.7074 94.805 57.7951 95.0546 57.9233C95.8978 58.3482 96.4981 59.1779 96.7882 60.0885" stroke="#231F20" stroke-width="1.71" stroke-linecap="round" stroke-linejoin="round"></path><path d="M94.3193 57.2962C94.036 56.2911 93.8741 55.2591 93.8268 54.2203C93.7796 53.0668 93.9145 51.8257 94.616 50.9016C95.0005 50.3957 95.6009 50.0314 96.2147 49.9167C96.7206 49.8156 97.2467 49.8898 97.6717 50.1865C98.2315 50.5778 98.5148 51.2523 98.7644 51.8864L100.235 55.5424" stroke="#231F20" stroke-width="1.71" stroke-linecap="round" stroke-linejoin="round"></path><path d="M96.168 49.6255C96.6334 48.9577 97.2 48.3439 97.9285 47.9864C98.657 47.6423 99.5744 47.6019 100.249 48.0471C100.701 48.3439 101.004 48.8093 101.261 49.3017C101.294 49.3624 101.335 49.4366 101.369 49.5041C102.198 51.1027 102.92 52.7621 103.541 54.4619" stroke="#231F20" stroke-width="1.71" stroke-linecap="round" stroke-linejoin="round"></path><path d="M101.639 49.2632C102.205 48.7438 103.109 48.6831 103.811 48.9933C104.512 49.3036 105.038 49.931 105.382 50.6122C105.72 51.307 105.908 52.0625 106.084 52.8112C106.306 53.7489 106.529 54.6797 106.752 55.6038" stroke="#231F20" stroke-width="1.71" stroke-linecap="round" stroke-linejoin="round"></path><path d="M106.684 56.1494C108.364 58.0786 108.87 60.9521 107.966 63.3468C107.048 65.7346 104.755 67.5357 102.219 67.8594C101.463 67.9606 100.694 67.9134 99.9523 67.7583C98.1917 67.394 96.5729 66.3822 95.5273 64.9117" stroke="#231F20" stroke-width="1.71" stroke-linecap="round" stroke-linejoin="round"></path><path d="M103.191 58.3008C101.694 58.7662 100.433 59.9197 99.8457 61.3767C100.965 60.0951 102.78 59.461 104.453 59.7578" stroke="#231F20" stroke-width="0.99" stroke-linecap="round" stroke-linejoin="round"></path><path d="M47.6505 47.4545C44.3588 47.3061 41.0199 48.3381 38.3892 50.3348C35.7653 52.3247 33.8631 55.2657 33.1211 58.4765" stroke="#231F20" stroke-width="1.71" stroke-linecap="round" stroke-linejoin="round"></path><path d="M39.3727 65.6254C39.3727 65.477 39.3795 65.3286 39.393 65.1802C39.4672 64.1482 39.6898 63.1161 39.8179 62.0841C39.9056 61.3825 39.9393 60.6405 39.8517 59.9323C39.7977 59.4668 39.683 59.0082 39.4942 58.5697C39.0152 57.4837 37.9697 56.5663 36.7825 56.5596C36.0068 56.5596 35.2716 56.9238 34.7252 57.4702C34.3138 57.8817 34.0035 58.3808 33.7809 58.9137C33.6999 59.0891 33.6392 59.2712 33.5785 59.4533C33.5583 59.5073 33.5448 59.5613 33.5313 59.6152C33.2615 60.5056 33.1738 61.4837 33.5313 62.3471C33.7067 62.7653 34.0035 63.1498 34.3677 63.4264C34.7927 63.7434 35.3121 63.9256 35.8382 63.8514C36.6274 63.7434 37.2884 63.1228 37.6459 62.4011C37.99 61.6793 38.0979 60.8631 38.2058 60.0604" stroke="#231F20" stroke-width="1.71" stroke-linecap="round" stroke-linejoin="round"></path><path d="M33.4373 59.5825C32.2164 58.7798 30.4356 59.306 29.5587 60.4729C29.3361 60.7562 29.1675 61.08 29.0326 61.4105C28.6413 62.4156 28.6481 63.5893 28.9112 64.6551C29.0528 65.2217 29.2754 65.8018 29.6464 66.247C29.7678 66.3954 29.9027 66.5303 30.0646 66.645C30.928 67.2858 32.2096 67.1779 33.0528 66.5101C33.8959 65.849 34.3142 64.7293 34.2737 63.6635" stroke="#231F20" stroke-width="1.71" stroke-linecap="round" stroke-linejoin="round"></path><path d="M28.5463 61.404C27.9662 60.7295 26.8802 60.6418 26.1113 61.0668C25.3423 61.4917 24.8566 62.3416 24.6948 63.2118C24.5464 64.082 24.6678 64.9858 24.8701 65.8425C25.086 66.7599 25.4772 67.7649 26.3406 68.109C26.9275 68.3518 27.6222 68.2236 28.1619 67.9066C28.7015 67.5761 29.1129 67.0702 29.4637 66.5373" stroke="#231F20" stroke-width="1.71" stroke-linecap="round" stroke-linejoin="round"></path><path d="M26.2539 68.5137C26.3348 69.5794 27.1443 70.4429 28.0414 71.0297C28.1021 71.0634 28.1628 71.1107 28.2303 71.1444C30.9014 72.77 34.6181 72.5069 37.0329 70.4833" stroke="#231F20" stroke-width="1.71" stroke-linecap="round" stroke-linejoin="round"></path><path d="M37.1211 70.3808C37.681 70.5157 38.2543 70.6304 38.8277 70.6776C39.347 70.7248 39.8664 70.7248 40.3858 70.6304C41.4718 70.455 42.5308 69.8951 43.0974 68.9508C43.664 68.0064 43.6236 66.6708 42.8276 65.9086C41.998 65.0991 40.6826 65.1194 39.5292 65.1868" stroke="#231F20" stroke-width="1.71" stroke-linecap="round" stroke-linejoin="round"></path><path d="M38.7919 70.9824C38.576 72.4934 39.1022 74.0853 40.1679 75.1848" stroke="#231F20" stroke-width="1.71" stroke-linecap="round" stroke-linejoin="round"></path><path d="M28.0737 71.3994C27.5678 74.273 28.4581 77.2005 29.5037 79.9121C30.1714 81.6187 30.9337 83.3658 32.2962 84.5934C33.6318 85.7941 36.0803 86.7182 37.6857 85.9358C37.7195 85.929 37.7464 85.9088 37.7869 85.8885" stroke="#231F20" stroke-width="1.71" stroke-linecap="round" stroke-linejoin="round"></path><path d="M33.8125 91.4489C35.2358 89.7153 36.5376 87.8738 37.6911 85.9379C39.6674 82.6664 41.2526 79.1385 42.379 75.4825C42.7973 74.1469 43.1548 72.7844 43.4448 71.415" stroke="#231F20" stroke-width="1.71" stroke-linecap="round" stroke-linejoin="round"></path><path d="M33.7939 91.3936C33.7939 91.3936 33.7872 91.4205 33.7737 91.4273C32.1076 95.0428 43.2239 99.5218 49.1328 100.716C55.0619 101.91 67.5272 102.254 70.8999 96.3852" stroke="#231F20" stroke-width="1.71" stroke-linecap="round" stroke-linejoin="round"></path><g style="mix-blend-mode:darken"><path d="M52.2591 45.5253C54.6267 49.2285 58.62 52.4258 63.4901 52.898C61.6216 53.9975 58.3097 53.1273 56.2591 52.4326C54.2085 51.7378 50.1613 49.7884 48.6301 48.2571C43.5442 43.1711 40.1311 32.4594 39.3621 32.4527C39.0316 32.4527 35.9962 28.9788 36.4481 27.5825C36.8191 26.429 37.9321 25.5589 39.1395 25.4712C40.3469 25.3835 41.5746 26.0918 42.1007 27.1845C41.9793 26.6516 42.8966 26.6719 43.3486 26.9822C45.9388 28.7427 50.6335 30.9147 50.5121 34.2335C50.3637 38.3684 49.9387 41.9097 52.2524 45.5388L52.2591 45.5253Z" fill="#F8AA92"></path></g><g style="mix-blend-mode:darken"><path d="M59.6614 15.9669C58.5754 14.0242 52.8419 7.79822 50.7981 6.90108C49.6716 6.40867 48.3495 6.02418 47.2433 6.56381C46.4676 6.94156 45.9617 7.69704 45.4895 8.41205C44.1742 10.4289 42.8251 12.52 42.3732 14.8876C42.3125 15.1979 42.272 15.5352 42.4204 15.8185C42.5216 16.0141 42.7037 16.1625 42.8791 16.2974C44.7813 17.7477 49.4423 21.7612 50.7104 18.719C51.3579 17.1743 52.5653 15.6094 53.8739 14.429C57.0307 11.5554 59.4523 15.6094 59.6547 15.9736L59.6614 15.9669Z" fill="#F8AA92"></path></g><g style="mix-blend-mode:darken"><path d="M70.8535 38.1395C71.5685 37.6673 72.4656 37.5594 73.2076 37.1344C73.9496 36.7095 74.523 35.7111 74.0238 35.0164C73.6056 34.4363 72.668 34.4835 72.1149 34.9287C71.5618 35.3739 71.2987 36.0889 71.1031 36.7769C70.9817 37.1951 70.9749 37.809 71.4066 37.9034" fill="#F8AA92"></path></g><path d="M60.0156 28.3034C66.4776 27.6896 72.9329 27.0757 79.3949 26.4619" stroke="#C225EE" stroke-width="1.32" stroke-miterlimit="10"></path><g style="mix-blend-mode:darken"><path d="M81.3152 68.0815C82.0504 68.6616 82.8868 69.1675 83.8177 69.3227C85.585 69.6195 87.2915 68.6346 88.8092 67.6835C90.2595 66.7797 91.7164 65.8758 93.1667 64.9651C93.6321 64.6751 94.1717 64.3715 94.6979 64.5199C94.9879 64.6009 95.2308 64.81 95.4533 65.0191C96.6135 66.0646 97.7737 67.1169 98.9339 68.1625C99.1228 69.9028 97.7333 71.3733 96.4516 72.5605C94.7383 74.1456 92.9913 75.7443 90.9272 76.8371C88.8632 77.9298 86.4011 78.4694 84.1617 77.8151C83.332 77.5723 82.5563 77.1811 81.8211 76.7359C79.9526 75.6094 78.3 74.1591 76.6542 72.7224C76.4046 72.5065 76.155 72.2839 75.9729 72.0073C75.6896 71.5824 75.5951 71.063 75.5007 70.5571C75.1027 68.3311 74.7048 66.1119 74.3068 63.8859C74.0842 62.638 72.2562 59.616 74.0572 59.7307C75.5344 59.8184 77.1803 62.8876 77.8076 63.9331C78.752 65.4913 79.8852 66.9483 81.3219 68.0883L81.3152 68.0815Z" fill="#7823BD"></path></g><g style="mix-blend-mode:darken"><path d="M42.8684 71.8728C41.8836 76.001 40.2714 79.9875 38.1129 83.6435C37.6745 84.3855 37.1821 85.141 36.4334 85.5659C35.3676 86.1663 33.9713 85.9369 32.9528 85.2556C31.9342 84.5744 31.226 83.5153 30.6459 82.4361C28.8854 79.1241 28.1231 75.2859 28.4806 71.549C31.1181 71.9132 34.1197 72.1696 36.1231 70.4225C36.3119 70.2539 36.5076 70.065 36.7571 70.0178C37.0135 69.9706 37.263 70.0852 37.4991 70.1864C38.5851 70.6653 39.779 70.5979 40.602 71.178C40.7504 71.2859 42.4907 73.4647 42.8684 71.8728Z" fill="#7823BD"></path></g><g style="mix-blend-mode:darken"><path d="M30.1183 64.5269C30.84 64.2773 31.3324 63.6163 31.7304 62.962C32.1284 62.3077 32.4926 61.5994 33.1065 61.1474C32.9108 61.8017 33.7203 62.3953 34.3948 62.2739C35.0693 62.1525 35.5685 61.5994 36.0137 61.08C36.3982 60.6281 36.7894 60.1761 37.1739 59.7309C37.2616 59.6297 37.3493 59.5286 37.4774 59.4881C37.8012 59.4004 38.0373 59.7916 38.1047 60.1221C38.3003 61.1542 37.9563 62.2807 37.2076 63.0227C36.4589 63.7647 35.3391 64.1087 34.3071 63.9063C34.4825 64.9788 33.5921 65.9299 32.668 66.4898C32.1149 66.8203 31.5011 67.0901 30.8535 67.1104C30.206 67.1306 29.5247 66.8473 29.1942 66.2942C29.6933 67.1239 25.5787 69.1003 25.0998 67.0092C24.7895 65.6669 27.6293 64.7427 28.324 63.704C28.5938 64.419 29.3898 64.79 30.1318 64.5404L30.1183 64.5269Z" fill="#F8AA92"></path></g><g style="mix-blend-mode:darken"><path d="M48.3508 51.5961C50.0438 51.3397 51.9393 52.0008 53.6323 51.7445C51.2243 50.4089 49.2681 48.102 46.5565 47.6365C44.1552 47.2251 41.7673 48.392 39.7505 49.7613C37.1873 51.4949 34.7117 53.9232 34.4757 57.0059C34.4419 57.4039 34.5229 57.6939 34.9141 57.8086C36.9107 55.731 37.4976 55.3802 39.2648 57.4039C42.7994 53.1138 45.2412 52.0682 48.3575 51.5961H48.3508Z" fill="#7823BD"></path></g><path d="M69.9375 96.0081C75.5429 80.9928 74.4838 71.4144 72.7368 59.5762" stroke="#C966FF" stroke-width="1.32" stroke-miterlimit="10"></path><path d="M72.0605 50.543L73.0926 50.7251C74.0099 50.887 74.9475 51.0556 75.7772 51.4806C76.6676 51.9325 77.3893 52.6543 78.0436 53.4098C80.0268 55.683 81.7401 59.1771 83.1431 61.7808" stroke="#C966FF" stroke-width="1.32" stroke-miterlimit="10"></path><g opacity="0.5"><path d="M32.0565 20.8887C31.672 28.0523 31.2943 35.2024 30.9098 42.366V42.474C20.7648 41.4689 11.9824 39.398 7.07185 37.2058L6.84925 37.3947C6.45128 43.479 6.2017 49.5769 6.11401 55.668H5.61486C4.1174 56.302 2.62669 56.9428 1.12248 57.5702H1.00781C1.22366 47.2632 1.44626 36.9562 1.65536 26.6492L1.91168 26.1973C11.3888 22.3119 21.6889 20.4637 31.9216 20.8347L32.0565 20.8887Z" fill="#A7EBE9"></path><path d="M52.6758 43.0216C52.8916 55.1565 53.1007 67.2848 53.3166 79.4197L53.1142 79.8717C37.3976 82.4889 20.9593 80.5935 6.2613 74.4551L6.3355 74.1246C6.09266 67.9795 6.02521 61.821 6.1129 55.6692C6.20059 49.5713 6.45016 43.4803 6.84814 37.3959L7.07073 37.207C11.9813 39.3925 20.7637 41.4701 30.9019 42.4752C37.5326 43.1362 44.7366 43.3386 51.8326 42.8125L52.6893 43.0148L52.6758 43.0216Z" fill="#A7EBE9"></path><path d="M113.68 25.3751L113.734 25.4021C111.893 28.7209 108.048 30.8457 104.257 30.5893L103.832 30.5017C103.879 28.6939 103.933 26.8794 103.974 25.0649C104.055 22.1171 104.122 19.1761 104.203 16.2284L104.588 15.9518C106.874 15.2031 108.905 13.881 110.975 12.6533C112.378 11.8169 112.925 11.1424 112.952 10.6162H113.093C113.289 15.5471 113.485 20.4578 113.68 25.3751Z" fill="#A7EBE9"></path><path d="M109.702 8.85573C110.639 8.96366 113.014 9.44933 112.946 10.6163C112.919 11.1424 112.379 11.817 110.97 12.6534C108.899 13.8811 106.869 15.2099 104.582 15.9519L104.197 16.2285C104.116 19.1762 104.049 22.1172 103.968 25.0649H103.766C103.604 22.9671 95.0036 22.3668 85.5399 21.9958L82.3021 17.3482C82.2145 14.0227 82.1133 12.4578 82.1133 8.21492C93.0205 7.41222 102.322 8.05303 109.695 8.85573H109.702Z" fill="#A7EBE9"></path><path d="M119.9 37.1385C119.562 38.0761 118.429 38.7776 117.424 39.1958C114.996 40.2009 112.513 41.0441 109.984 41.7389L109.809 41.0913C109.734 38.4404 110.085 35.7759 110.847 33.2464V33.071C113.296 33.0373 115.744 33.5095 117.991 34.4471C118.847 34.8046 119.765 35.3442 119.96 36.2549C120.034 36.5719 119.994 36.8687 119.9 37.1452V37.1385Z" fill="#A7EBE9"></path><path d="M119.737 46.6103C119.649 51.8717 119.562 57.1196 119.481 62.3743H119.123C117.43 63.4805 115.508 64.236 113.518 64.5868L113.484 64.3642C113.154 59.4535 113.12 54.5159 113.376 49.6052L113.801 49.6255C115.676 48.6204 117.565 47.6153 119.44 46.6035H119.737V46.6103Z" fill="#A7EBE9"></path><path d="M113.521 64.5933C115.511 64.2358 117.434 63.4803 119.127 62.3674H119.484C119.376 68.5934 119.282 74.8126 119.174 81.0319L119.262 81.1061C112.793 89.5513 94.1085 92.236 81.3194 87.9189H81.1035C81.3598 73.6457 81.6094 59.3724 81.859 45.0991L82.2772 44.7686C91.5925 44.8765 101.043 44.2087 109.987 41.7332C112.516 41.0384 114.999 40.1952 117.427 39.1902C118.432 38.7719 119.565 38.0704 119.903 37.1328C119.849 40.2897 119.795 43.4398 119.741 46.6034H119.444C117.569 47.6084 115.68 48.6135 113.805 49.6186L113.38 49.5983C113.124 54.509 113.157 59.4466 113.488 64.3573L113.521 64.5798V64.5933Z" fill="#A7EBE9"></path></g><path d="M81.8984 44.6689C91.2137 44.7769 101.048 44.217 109.986 41.7414C112.515 41.0467 114.998 40.2035 117.426 39.1984C118.431 38.7802 119.564 38.0787 119.902 37.1411C120.003 36.8645 120.036 36.5745 119.962 36.2507C119.767 35.3401 118.849 34.8004 117.993 34.4429C115.74 33.4986 113.298 33.0264 110.849 33.0669H110.66" stroke="#2BFFF5" stroke-width="1.32" stroke-linecap="round" stroke-linejoin="round"></path><path d="M110.511 33.1211C110.308 36.1903 110.194 39.2527 109.998 41.4989" stroke="#2BFFF5" stroke-width="1.32" stroke-linecap="round" stroke-linejoin="round"></path><path d="M119.905 36.4404C119.905 36.6698 119.898 36.9126 119.898 37.142C119.844 40.2988 119.79 43.4489 119.737 46.6125C119.649 51.8739 119.561 57.1218 119.48 62.3765C119.372 68.5958 119.278 74.815 119.17 81.0343" stroke="#2BFFF5" stroke-width="1.32" stroke-linecap="round" stroke-linejoin="round"></path><path d="M81.8629 45.1074C81.6133 59.3807 81.3637 73.654 81.1074 87.9272" stroke="#2BFFF5" stroke-width="1.32" stroke-linecap="round" stroke-linejoin="round"></path><path d="M81.3164 87.9202C94.1055 92.2372 112.79 89.5458 119.259 81.1073C119.286 81.0803 119.313 81.0533 119.333 81.0264" stroke="#2BFFF5" stroke-width="1.32" stroke-linecap="round" stroke-linejoin="round"></path><path d="M116.061 74.7803C111.691 76.8241 99.0565 79.8461 96.7159 79.8596C96.6485 81.438 96.4394 83.0232 96.5203 83.8731C100.5 83.5965 107.927 82.0788 115.643 78.7398" stroke="#2BFFF5" stroke-width="1.32" stroke-linecap="round" stroke-linejoin="round"></path><path d="M119.123 62.3682C117.43 63.4812 115.507 64.2366 113.517 64.5941C113.376 64.6279 113.221 64.6549 113.072 64.6751" stroke="#2BFFF5" stroke-width="1.32" stroke-linecap="round" stroke-linejoin="round"></path><path d="M113.486 64.3719C113.156 59.4613 113.122 54.5237 113.378 49.613V49.5928" stroke="#2BFFF5" stroke-width="1.32" stroke-linecap="round" stroke-linejoin="round"></path><path d="M113.803 49.6255C115.678 48.6204 117.567 47.6153 119.442 46.6035" stroke="#2BFFF5" stroke-width="1.32" stroke-linecap="round" stroke-linejoin="round"></path><path d="M52.6738 43.0234C52.8897 55.1584 53.0988 67.2866 53.3146 79.4216" stroke="#2BFFF5" stroke-width="1.32" stroke-linecap="round" stroke-linejoin="round"></path><path d="M52.5551 42.8673C45.4657 43.3934 36.9397 43.0291 30.309 42.3681C20.1776 41.363 11.4829 39.1708 6.57227 36.9785" stroke="#2BFFF5" stroke-width="1.32" stroke-linecap="round" stroke-linejoin="round"></path><path d="M53.1146 79.8794C37.3981 82.4967 20.9598 80.6012 6.26172 74.4629" stroke="#2BFFF5" stroke-width="1.32" stroke-linecap="round" stroke-linejoin="round"></path><path d="M6.32768 74.1327C6.08485 67.9876 6.0174 61.829 6.10509 55.6772C6.19278 49.5794 6.1658 43.1713 6.56377 37.0869" stroke="#2BFFF5" stroke-width="1.32" stroke-linecap="round" stroke-linejoin="round"></path><path d="M1.64755 26.6582C1.4317 36.9652 1.2091 47.2721 1 57.5791V57.6061" stroke="#2BFFF5" stroke-width="1.32" stroke-linecap="round" stroke-linejoin="round"></path><path d="M1.11328 57.5807C2.61749 56.9467 4.11494 56.3059 5.60566 55.665" stroke="#2BFFF5" stroke-width="1.32" stroke-linecap="round" stroke-linejoin="round"></path><path d="M1.9043 26.2071C11.3815 22.3217 21.6816 20.4735 31.9142 20.8445" stroke="#2BFFF5" stroke-width="1.32" stroke-linecap="round" stroke-linejoin="round"></path><path d="M32.0549 20.8916C31.6704 28.0552 31.2927 35.2053 30.9082 42.369" stroke="#2BFFF5" stroke-width="1.32" stroke-linecap="round" stroke-linejoin="round"></path><path d="M27.2129 32.4933C27.2466 30.4292 27.3343 27.3533 27.368 25.2892C24.3191 25.0127 17.3377 25.613 13.5469 27.5759C13.7425 30.0987 13.5469 33.5928 13.5469 35.2859C13.5469 35.2859 17.6345 33.7884 21.2298 33.3904C24.8183 32.9925 27.2129 32.5945 27.2129 32.5945" stroke="#2BFFF5" stroke-width="1.32" stroke-linecap="round" stroke-linejoin="round"></path><path d="M27.2114 57.2353C22.8607 57.3163 14.4291 55.6569 10.564 54.4765C10.4291 53.5389 10.6584 45.4646 10.6584 43.2656C16.0479 44.6619 20.9315 45.6602 27.3193 46.1594L27.2182 57.2286L27.2114 57.2353Z" stroke="#2BFFF5" stroke-width="1.32" stroke-linecap="round" stroke-linejoin="round"></path><path d="M10.7617 57.0322C14.1546 58.1317 20.5289 59.238 23.9286 59.0289" stroke="#2BFFF5" stroke-width="1.32" stroke-linecap="round" stroke-linejoin="round"></path><path d="M10.8555 60.4258C12.9128 61.269 20.2315 63.016 23.6243 62.5236" stroke="#2BFFF5" stroke-width="1.32" stroke-linecap="round" stroke-linejoin="round"></path><path d="M104.203 16.2305C104.122 19.1782 104.055 22.1192 103.974 25.0669C103.926 26.8815 103.873 28.696 103.832 30.5037" stroke="#2BFFF5" stroke-width="1.32" stroke-linecap="round" stroke-linejoin="round"></path><path d="M104.258 30.5919C108.049 30.8483 112.764 28.4132 113.58 25.6543" stroke="#2BFFF5" stroke-width="1.32" stroke-linecap="round" stroke-linejoin="round"></path><path d="M113.681 25.3762C113.485 20.4588 113.289 15.5414 113.094 10.624" stroke="#2BFFF5" stroke-width="1.32" stroke-linecap="round" stroke-linejoin="round"></path><path d="M104.588 15.9534C106.875 15.2047 108.905 13.8826 110.976 12.6549C112.379 11.8185 112.925 11.144 112.952 10.6178C113.013 9.45086 110.639 8.96519 109.708 8.85726C102.328 8.05456 93.4515 7.46771 82.207 7.87918" stroke="#2BFFF5" stroke-width="1.32" stroke-linecap="round" stroke-linejoin="round"></path><path d="M85.8828 22.0771C95.3397 22.4481 103.609 22.9608 103.765 25.0519" stroke="#2BFFF5" stroke-width="1.32" stroke-linecap="round" stroke-linejoin="round"></path><path d="M82.1175 8.05469V8.21658C82.1175 12.4594 81.9084 13.7478 81.9961 17.0733" stroke="#2BFFF5" stroke-width="1.32" stroke-linecap="round" stroke-linejoin="round"></path><path d="M85.4863 11.9598C90.7072 11.4404 96.0023 11.5416 101.203 12.2634" stroke="#2BFFF5" stroke-width="1.32" stroke-linecap="round" stroke-linejoin="round"></path><path d="M86.2812 15.0361C89.0468 14.719 91.8394 14.6381 94.6252 14.8135" stroke="#2BFFF5" stroke-width="1.32" stroke-linecap="round" stroke-linejoin="round"></path><path d="M17.5273 37.6384C20.0366 36.9706 22.6268 36.6198 25.217 36.5996" stroke="#2BFFF5" stroke-width="1.32" stroke-linecap="round" stroke-linejoin="round"></path><path d="M49.161 76.3852C49.1003 67.805 48.7225 55.2384 48.6618 46.6582C44.3448 46.8808 38.6855 47.1574 34.8002 46.955C34.5776 54.8539 34.5304 74.9956 34.699 76.1019C34.699 76.1019 37.5928 76.8776 41.5792 76.8776C45.5657 76.8776 49.161 76.3784 49.161 76.3784V76.3852Z" stroke="#2BFFF5" stroke-width="1.32" stroke-linecap="round" stroke-linejoin="round"></path></svg> 