<?xml version="1.0" encoding="UTF-8"?> <svg xmlns="http://www.w3.org/2000/svg" width="137" height="101" viewBox="0 0 137 101" fill="none"><path d="M115.554 100.88C118.667 101.185 121.8 100.819 124.927 100.758C129.138 100.67 130.664 100.086 134.062 99.286C136.26 98.4857 135.968 96.7156 134.686 96.0713C133.404 95.427 131.987 95.1286 130.651 94.6131C128.84 93.9078 127.219 92.8023 125.463 91.9749C122.017 90.3472 118.158 89.825 114.36 89.6011C112.678 89.4994 110.962 89.4587 109.348 89.9538C106.534 90.8219 104.153 94.1994 106.256 96.9258C108.155 99.381 112.665 100.602 115.547 100.887L115.554 100.88Z" fill="#BDCCD4"></path><path d="M85.1165 33.3908C85.0758 33.696 84.9944 33.9944 84.8655 34.2725C84.5807 34.9032 84.0856 35.4187 83.5091 35.7849C83.3531 35.8866 83.1904 35.9748 83.0276 36.0494C82.1188 36.4699 81.0404 36.5581 80.118 36.1783C79.8874 36.0833 79.6704 35.9545 79.4737 35.8052C78.8769 35.3576 78.4428 34.6726 78.3682 33.9334L77.8867 33.6553L78.3411 33.54C79.3788 33.0653 80.4571 32.5566 81.1421 31.6478C81.5152 31.1391 81.7119 30.4677 81.6712 29.8438H81.8068C82.7902 29.9726 84.2958 30.5152 84.7706 31.3901C85.0012 31.8106 85.1301 32.2989 85.1504 32.7804C85.1707 32.9907 85.1572 33.1873 85.1233 33.384L85.1165 33.3908Z" fill="white"></path><path d="M77.8046 33.9208L77.8792 33.6631L78.3608 33.9412C78.4354 34.6804 78.8694 35.3654 79.4663 35.813L79.3035 36.0301C78.9033 36.8236 78.1641 37.4407 77.3027 37.6645C76.4482 37.8951 75.4919 37.7391 74.7527 37.2508L74.7188 37.1355C74.7188 37.1355 74.7798 37.1152 74.8069 37.1084C76.2244 36.5997 77.3434 35.3654 77.8046 33.9208Z" fill="white"></path><path d="M72.7046 29.4917L73.4981 29.3086C73.2404 29.8851 73.4303 30.5836 73.8169 31.0991C74.1967 31.6077 74.7392 31.9604 75.2818 32.3063C76.116 32.8421 76.9638 33.3847 77.8048 33.9204C77.3504 35.365 76.2245 36.5994 74.8071 37.108C74.7799 37.1148 74.746 37.1284 74.7189 37.1352C73.7423 37.4607 72.6436 37.4268 71.6873 37.0674C71.1786 36.8842 70.7106 36.613 70.3173 36.2467C70.0731 36.0229 69.8629 35.7652 69.6865 35.4803C69.5984 35.3583 69.5305 35.2362 69.4763 35.1073H69.4695C68.9608 34.1036 68.8455 32.8963 69.2593 31.8519C69.7747 30.5158 71.1447 29.5528 72.5689 29.4917H72.6978H72.7046Z" fill="white"></path><path d="M95.8529 26.5351L96.1174 26.7521C95.4595 27.5999 94.7677 28.3256 94.0556 28.9428L93.8657 28.7325C94.1777 27.627 94.1506 26.7928 93.3842 25.9315C92.6178 25.0702 91.3495 24.6904 90.2508 25.0363C89.4302 25.2872 88.7655 25.8976 88.2365 26.5826C87.1514 28.0136 86.5681 29.8312 86.6292 31.6285L86.8123 32.4627C86.3307 32.578 85.8357 32.6797 85.3338 32.7747H85.1439C85.1235 32.2999 84.9947 31.8184 84.7641 31.3911C84.2893 30.5162 82.7837 29.9736 81.8003 29.838H81.6646C81.6307 29.3429 81.4408 28.8817 81.0542 28.5494C80.5863 28.1628 79.9691 28.0475 79.3587 27.9865C78.7212 27.9187 78.0701 27.8983 77.4258 27.9254V27.8576C78.1243 24.8531 79.6368 20.7092 82.2682 18.3491C84.8183 16.077 88.8062 15.0869 91.6886 16.9045C93.2146 17.8743 94.2523 19.4952 94.8491 21.2043C95.446 22.9134 95.6494 24.7243 95.8529 26.5215V26.5351Z" fill="white"></path><path d="M75.9264 27.8839L75.9603 28.0671C75.7975 28.0942 75.6347 28.1213 75.4652 28.1552C74.6852 28.2909 73.8171 28.5893 73.4984 29.315L72.7049 29.4981H72.576V29.2065C71.5044 27.8839 69.6597 27.3007 67.9913 27.6194C66.3228 27.9382 64.8715 29.1047 64.0644 30.59C63.2641 32.0685 63.0539 33.8115 63.3251 35.4596C58.5776 35.3239 53.5588 34.5101 49.2793 33.269L49.4353 32.706C49.0894 27.9585 50.7646 23.0076 54.2303 19.7454C57.6959 16.4696 62.9589 15.0996 67.4622 16.6459C71.9724 18.1923 76.1637 23.1364 75.9399 27.8975L75.9264 27.8839Z" fill="white"></path><path d="M118.701 78.6759C122.39 79.171 125.625 81.4158 128.304 84.0066C129.532 85.1867 130.685 86.4753 131.404 88.0216C132.123 89.5612 132.353 91.3924 131.709 92.959C131.139 94.329 130.068 95.1361 128.386 95.6787L128.325 95.3396C128.094 88.3133 124.913 82.2026 116.388 78.9539C116.293 78.9132 116.198 78.8793 116.103 78.8386L116.076 78.6759C116.91 78.5606 117.758 78.5538 118.586 78.6555C118.619 78.6623 118.66 78.6623 118.701 78.6759Z" fill="#C586FF"></path><path d="M128.318 95.3388L128.379 95.6779C128.135 95.7525 127.884 95.8339 127.619 95.9017C126.724 96.1323 125.795 96.3086 124.866 96.4103L124.838 96.1865C125.713 92.7683 124.9 89.9266 123.448 86.7051C121.997 83.4904 119.433 80.7911 116.293 79.1837L116.388 78.9531C124.913 82.2086 128.087 88.3125 128.325 95.3388H128.318Z" fill="#322354"></path><path d="M123.449 86.7058C124.9 89.9273 125.714 92.7691 124.839 96.1873L124.866 96.4111C123.794 96.5331 122.716 96.5603 121.651 96.4721C115.751 94.139 111.085 87.7503 110.8 81.4225L110.678 81.3005C112.048 79.8491 114.021 78.9538 116.076 78.6758L116.103 78.8386C116.198 78.8725 116.293 78.9064 116.388 78.9539L116.293 79.1844C119.433 80.7918 122.004 83.4911 123.449 86.7058Z" fill="#C586FF"></path><path d="M121.834 37.1417C123.055 38.315 124.614 47.2335 110.738 62.2627C106.337 67.0373 98.0285 73.0124 92.8265 73.5889C92.3925 73.6295 91.4294 73.5889 90.6359 72.9039C89.2049 71.7034 88.3503 68.4819 92.2501 60.1738C97.2146 49.5937 115.554 34.2525 121.128 36.6669L121.834 37.1349V37.1417ZM110.548 61.7405C123.041 48.3051 121.637 40.3293 120.538 39.278C120.321 39.0678 120.064 38.9186 119.758 38.8101C114.55 37.0399 97.9539 51.4927 93.8981 59.8822C91.1446 65.552 90.9682 68.5769 91.6329 70.1774C92.3179 71.7984 93.871 71.9272 94.4136 71.873C99.1 71.3575 106.581 66.02 110.542 61.7472L110.548 61.7405Z" fill="#69A2A1"></path><path d="M121.834 37.1418L121.129 36.6738C121.393 36.7891 121.631 36.9383 121.834 37.1418Z" fill="#7349B5"></path><path d="M115.506 32.9428L121.128 36.673C115.56 34.2585 97.2213 49.5997 92.25 60.1799C88.3502 68.488 89.2048 71.7095 90.6358 72.9099L90.6155 72.9303C90.6155 72.9303 90.5816 72.8964 90.5748 72.8964C88.0654 70.7736 85.9629 69.546 84.9592 67.7012C84.7286 67.2808 84.5522 66.8264 84.4505 66.3313C83.969 64.1135 84.7625 60.9191 87.5093 55.2289C92.2839 45.327 109.951 30.508 115.506 32.9564V32.9428Z" fill="#85D0CF"></path><path d="M120.539 39.2785C121.638 40.3229 123.042 48.2987 110.549 61.7409C106.588 66.0136 99.1078 71.3512 94.4213 71.8666C93.8787 71.9277 92.3256 71.7988 91.6406 70.1711H91.8237C97.0053 69.4657 104.879 63.5246 109.172 58.6415C118.457 48.0817 119.787 42.8459 119.759 38.8241V38.8037C120.071 38.9054 120.329 39.0614 120.546 39.2717L120.539 39.2785Z" fill="#69A2A1"></path><path d="M119.76 38.8176V38.8379C119.78 42.8597 118.444 48.0955 109.166 58.6553C104.873 63.5317 96.9988 69.4728 91.8173 70.1714H91.6341C90.9695 68.5844 91.139 65.5595 93.8994 59.8897C97.9551 51.507 114.551 37.0474 119.76 38.8176Z" fill="#94DBF2"></path><path d="M110.676 81.3008L110.798 81.4229C111.083 87.7506 115.756 94.1394 121.65 96.4725C119.432 96.3029 117.269 95.6518 115.397 94.4175C112.053 92.2065 109.774 88.4763 109.299 84.502L109.116 84.5223C108.458 84.0476 108.004 83.3423 107.787 82.5623C107.523 81.6467 107.59 80.6294 108.052 79.7816L108.364 79.7274C108.974 80.1275 109.876 80.0665 110.398 79.5443C110.92 79.022 111.002 78.1336 110.622 77.5164L110.676 77.4893C111.612 77.1637 112.575 76.8314 113.552 76.6686C114.081 76.5805 114.603 76.5398 115.132 76.5669C115.722 76.6008 116.326 76.7365 116.868 76.9874C117.655 77.3401 118.327 77.903 118.693 78.6694C118.659 78.6626 118.618 78.6626 118.577 78.649C117.75 78.5473 116.902 78.5541 116.068 78.6694C114.013 78.9474 112.046 79.8427 110.669 81.2941L110.676 81.3008Z" fill="#322354"></path><path d="M115.438 75.0873C116.293 75.2026 116.984 76.0571 116.916 76.9185L116.883 76.9863C116.34 76.7353 115.736 76.5997 115.146 76.5658C114.617 76.5387 114.095 76.5861 113.566 76.6675L113.525 76.4505C113.688 75.6027 114.59 74.9652 115.445 75.0873H115.438Z" fill="#C586FF"></path><path d="M110.636 77.5156C111.016 78.1395 110.942 79.028 110.413 79.5434C109.884 80.0589 108.988 80.1199 108.378 79.7265C108.283 79.6655 108.208 79.5977 108.127 79.5163C107.91 79.2925 107.774 79.0076 107.713 78.6957C107.618 78.1802 107.768 77.597 108.154 77.2307C108.758 76.6339 109.85 76.6542 110.44 77.2579C110.514 77.3325 110.589 77.4206 110.636 77.5156Z" fill="#C586FF"></path><path d="M108.372 79.7272L108.06 79.7815C107.592 80.6292 107.525 81.6466 107.796 82.5622L107.314 82.6978C106.555 82.3926 106.012 81.6127 105.999 80.792C105.978 79.9782 106.501 79.1779 107.26 78.8523L107.708 78.7031C107.769 79.0151 107.904 79.3 108.121 79.5238C108.196 79.5984 108.277 79.673 108.372 79.734V79.7272Z" fill="#955EEA"></path><path d="M84.6872 10.1492L84.7144 10.1695C86.5523 10.5086 87.7867 10.6646 89.4619 11.431C89.9298 9.31495 90.3435 7.61264 90.8929 5.44914C88.4988 6.33759 86.1522 8.0806 84.6872 10.1559V10.1492ZM77.627 9.29461V9.06401C81.8319 4.38434 86.3828 1.73931 93.4362 1.00684C93.5244 5.6526 92.8326 8.71134 92.2425 12.4483L92.6902 12.957C94.4807 14.761 96.556 16.2802 98.828 17.4196L96.1491 23.0149L99.1603 27.5318L92.9411 34.1308L95.5861 37.1421C95.5522 37.237 90.0655 43.5173 84.8771 44.4532C84.7144 44.5481 84.5516 44.6228 84.3752 44.7041C69.9021 51.744 52.0447 51.3778 37.8836 43.7343C36.8527 42.6898 34.5061 41.1028 32.641 41.2792C34.479 38.2815 35.8422 36.1926 39.5927 34.3953C37.3546 33.751 34.0381 32.7201 31.332 32.7947C33.4074 29.2205 37.2393 27.0706 40.1827 25.4497C38.1074 23.944 36.2287 23.5642 31.9424 23.8423C33.7736 20.553 36.4186 17.7316 39.9793 15.0662L40.1963 15.0391C40.7999 8.03313 45.6559 1.52228 46.4291 1.50193C47.0938 1.4748 47.6295 2.00381 48.0772 2.49212C50.3492 4.96082 52.004 7.68724 53.5978 9.92535L53.6385 10.1695C61.8788 9.5998 69.4681 8.99619 77.6067 9.28104L77.627 9.29461ZM71.6926 37.0675C72.6489 37.4269 73.7476 37.4676 74.7242 37.1353L74.7582 37.2506C75.4906 37.7457 76.4537 37.8949 77.3082 37.6643C78.1696 37.4405 78.9156 36.8301 79.309 36.0298L79.4718 35.8128C79.6684 35.962 79.8855 36.0908 80.1161 36.1858C81.0384 36.5656 82.1168 36.4774 83.0256 36.0569C83.1884 35.9823 83.3511 35.8941 83.5071 35.7924C84.0836 35.433 84.5787 34.9107 84.8636 34.28C84.9924 34.0019 85.0738 33.7035 85.1145 33.3983C85.1484 33.2016 85.1552 32.9982 85.1416 32.7947H85.3315C85.8334 32.693 86.3217 32.5845 86.81 32.4759C89.5365 31.8384 91.9306 30.8279 94.0534 28.956C94.7723 28.3321 95.4641 27.6064 96.1152 26.7654L95.8506 26.5484C95.654 24.7511 95.4437 22.9403 94.8469 21.2312C94.2501 19.5221 93.2124 17.9011 91.6864 16.9313C88.804 15.1069 84.8161 16.1039 82.266 18.3759C79.6345 20.7361 78.1221 24.88 77.4235 27.8844V27.9523C76.9284 27.959 76.4469 28.0133 75.9586 28.0811L75.9247 27.898C76.1485 23.1369 71.9503 18.1928 67.447 16.6464C62.9504 15.1001 57.6807 16.4769 54.215 19.7459C50.7493 23.0081 49.0741 27.959 49.42 32.7065L49.264 33.2695C53.5436 34.5106 58.5624 35.3244 63.3099 35.4601C65.3649 35.5143 67.3656 35.4397 69.2443 35.2295L69.4681 35.1142H69.4749C69.5291 35.2431 69.5969 35.3651 69.6851 35.4872C69.8547 35.7721 70.0717 36.0298 70.3158 36.2536C70.716 36.6131 71.1772 36.8911 71.6858 37.0742L71.6926 37.0675ZM51.041 11.1461C51.2105 10.8816 51.0613 10.5222 50.9053 10.2509C50.3356 9.2607 49.6778 8.31798 48.9453 7.4363C48.7147 7.15823 48.4027 6.85982 48.0365 6.90729C47.6024 6.96833 47.4125 7.47699 47.3108 7.91105C46.9513 9.41669 46.5919 10.9155 46.2324 12.4212L46.3816 12.4483C47.7448 12.1228 49.1013 11.7904 50.4645 11.4581C50.6815 11.4039 50.9121 11.336 51.041 11.1529V11.1461Z" fill="#E1DFD2"></path><path d="M93.864 28.7385L94.0539 28.9488C91.9311 30.8206 89.537 31.8312 86.8106 32.4687L86.6274 31.6345C86.5664 29.8372 87.1429 28.0264 88.2348 26.5886C88.7638 25.9036 89.4285 25.2932 90.2491 25.0422C91.3478 24.6964 92.6161 25.0829 93.3825 25.9375C94.1488 26.792 94.176 27.633 93.864 28.7385Z" fill="black"></path><path d="M90.5745 72.8904L90.2829 73.2431C88.8722 74.9454 87.1835 77.075 85.5422 78.9604H85.5354C84.8911 79.6997 84.2468 80.4118 83.6296 81.0358L83.3447 81.3477L83.3176 81.3206C81.4118 79.5573 79.3975 77.6244 77.4375 75.6101L77.763 75.2913C80.2317 72.7819 82.7683 70.008 84.9657 67.6953C85.9695 69.5401 88.0651 70.7676 90.5813 72.8904H90.5745Z" fill="#69A2A1"></path><path d="M90.8932 5.44135C90.3438 7.61164 89.9233 9.30717 89.4621 11.4232C87.7869 10.6568 86.5526 10.5008 84.7146 10.1617L84.6875 10.1414C86.1524 8.06604 88.5058 6.32303 90.8932 5.43457V5.44135Z" fill="#EC8589"></path><path d="M83.3386 81.3404L83.6234 81.0285C84.2474 80.4045 84.8849 79.6992 85.5292 78.9531H85.536L85.692 79.0888C86.126 80.2689 85.9361 82.8528 85.5767 84.0601C85.2308 85.2673 84.478 86.2439 83.23 86.1761L83.1758 86.149C83.8201 84.7179 84.2067 82.8528 83.3046 81.3065L83.3318 81.3337L83.3386 81.3404Z" fill="#BDB9A3"></path><path d="M84.0371 66.4002L84.4508 66.3121C84.5526 66.814 84.7289 67.2616 84.9595 67.6821C82.7689 69.9948 80.2256 72.7687 77.7569 75.2781L77.4313 75.5968C75.8104 73.942 74.2098 72.2193 72.7109 70.4967L72.989 70.2457C75.7019 64.1689 77.8586 57.3393 79.1472 50.8081L79.0726 50.6793C79.4795 50.4215 79.8729 50.1638 80.2459 49.8857L80.4087 50.1095C81.2971 54.4298 83.0266 61.646 84.0439 66.3935L84.0371 66.4002Z" fill="#BDB9A3"></path><path d="M72.7115 70.5039C74.2172 72.2334 75.811 73.9493 77.4319 75.6041C79.392 77.6184 81.4063 79.5513 83.3121 81.3147C84.2073 82.861 83.8275 84.7261 83.1832 86.1571C82.7491 87.127 82.193 87.8933 81.8132 88.2324C81.1825 88.8021 80.3822 89.1548 79.5344 89.2498V89.2769C78.8155 90.6876 77.0928 91.2912 75.4922 91.1352C75.2956 91.1284 75.0853 91.0945 74.8886 91.047C73.1524 90.6604 71.6874 89.5346 70.2768 88.4427C69.5239 87.8526 68.7643 87.2694 68.0115 86.6929C66.9332 85.8587 65.8616 85.0177 64.79 84.1903L64.5458 84.5023C63.3725 85.8316 62.0907 87.0659 60.7411 88.1985C57.3025 91.0945 53.3146 93.3394 49.069 94.7772C47.7057 95.252 46.3154 95.6318 44.8979 95.9234C44.864 96.0387 44.8301 96.1472 44.7826 96.2489H44.7759L44.742 96.2286C33.5175 97.0899 22.0082 96.8525 10.7634 96.2489H10.5328C9.82743 94.9942 9.24416 93.6853 8.79654 92.3356C6.19219 84.6176 7.57575 75.6177 11.3941 68.1234C12.208 66.5364 13.1236 65.024 14.1341 63.5997C20.7603 54.2811 26.5251 49.8252 37.1188 45.5389L37.1392 45.5186C43.2499 51.8463 51.9853 55.5629 60.775 55.5697C66.6008 55.5765 74.0544 53.7928 79.0732 50.6933L79.1478 50.8222C77.8592 57.3534 75.7025 64.183 72.9896 70.2598L72.7115 70.5107V70.5039Z" fill="#E1DFD2"></path><path d="M81.6628 29.8519C81.7035 30.4758 81.5068 31.1473 81.1338 31.6559C80.4488 32.5647 79.3704 33.0734 78.3327 33.5481L77.8783 33.6634L77.8037 33.9212C76.9695 33.3854 76.1217 32.8428 75.2808 32.307C74.7382 31.9611 74.1956 31.6084 73.8158 31.0998C73.4292 30.5911 73.2393 29.8926 73.4971 29.3093C73.8158 28.5836 74.6907 28.292 75.4639 28.1496C75.6266 28.1156 75.7894 28.0885 75.959 28.0614C76.4541 27.9936 76.9356 27.9393 77.4239 27.9325C78.0682 27.9054 78.7193 27.9257 79.3568 27.9936C79.9604 28.0546 80.5844 28.1631 81.0524 28.5565C81.439 28.882 81.6288 29.35 81.6628 29.8519Z" fill="#EC8589"></path><path d="M84.382 44.7043C83.8055 46.6644 82.2999 48.4142 80.2381 49.8927C79.8651 50.1707 79.4717 50.4285 79.0648 50.6862C74.046 53.7856 66.5992 55.5761 60.7666 55.5625C51.9769 55.5558 43.2483 51.8392 37.1308 45.5114C37.0426 45.4165 36.9612 45.3283 36.873 45.2334L37.4699 43.5039C37.6055 43.5785 37.7479 43.6599 37.8904 43.7277C52.0515 51.3712 69.9089 51.7306 84.382 44.6976V44.7043Z" fill="#5D60AA"></path><path d="M74.8886 91.0465C75.0852 91.0871 75.2955 91.1211 75.4922 91.1346C74.034 91.8332 71.606 91.8942 70.3784 90.9854C69.0559 90.0088 68.2624 88.476 67.8555 86.8822L68.0115 86.6855C68.7643 87.262 69.5239 87.8521 70.2767 88.4353C71.6874 89.534 73.1523 90.6531 74.8886 91.0397V91.0465Z" fill="#69A2A1"></path><path d="M72.5605 29.1929V29.4846C71.143 29.5456 69.7798 30.5019 69.2644 31.8447C68.8506 32.8892 68.9592 34.0964 69.4746 35.1002L69.2508 35.2155C67.3789 35.4325 65.3714 35.5003 63.3164 35.4461C63.0519 33.798 63.2554 32.055 64.0557 30.5765C64.8695 29.0912 66.3209 27.9247 67.9825 27.6059C69.6442 27.2872 71.4957 27.8704 72.5605 29.1929Z" fill="black"></path><path d="M66.9868 91.162C67.4616 92.2675 67.4683 93.5629 67.0207 94.6819V94.8786C61.0185 95.0007 55.1316 94.8447 49.1362 94.9668L49.0684 94.7701C53.314 93.3255 57.3087 91.0806 60.7404 88.1914L60.8151 88.2864C62.0494 88.2592 63.3177 88.2321 64.4706 88.7001C65.5829 89.1409 66.5188 90.0497 66.98 91.162H66.9868Z" fill="#E1DFD2"></path><path d="M50.8995 10.2434C51.0555 10.5215 51.2114 10.8742 51.0351 11.1387C50.9063 11.3218 50.6757 11.3896 50.4586 11.4439C49.0954 11.783 47.739 12.1085 46.3758 12.434L46.2266 12.4069C46.586 10.9013 46.9455 9.40243 47.3049 7.89679C47.4067 7.46274 47.5966 6.95408 48.0306 6.89304C48.3901 6.83878 48.702 7.14398 48.9394 7.42204C49.6719 8.30372 50.3298 9.24644 50.8995 10.2366V10.2434Z" fill="#EC8589"></path><path d="M30.6008 36.4899C31.0077 38.2533 30.282 40.1048 29.1901 41.5426C26.2263 45.4627 20.9972 46.8123 17.0907 49.7897C11.7192 53.8929 9.1895 61.3871 10.9868 67.9048L11.3937 68.1218C7.57535 75.6161 6.18501 84.616 8.79614 92.334L8.75544 92.3544C5.91372 88.2105 4.33348 83.3341 3.13304 78.4442C1.67488 72.4624 0.725375 66.2974 1.07126 60.146C1.41037 53.9878 3.09913 47.8229 6.56481 42.7295C10.0305 37.6361 15.3613 33.6889 21.4177 32.5427C23.2286 32.1968 25.1479 32.1019 26.8909 32.7055C28.6339 33.3091 30.187 34.6994 30.6008 36.4967V36.4899Z" fill="#E1DFD2"></path><path d="M119.752 38.8301C119.779 42.8519 118.45 48.0877 109.165 58.6475C104.872 63.5238 96.998 69.465 91.8164 70.1635" stroke="#80AEED" stroke-width="1.66" stroke-linecap="round" stroke-linejoin="round"></path><path d="M10.5328 96.2481C9.82743 94.9934 9.24416 93.6845 8.79654 92.3348C6.19219 84.6168 7.57575 75.6169 11.3941 68.1226C12.208 66.5356 13.1236 65.0232 14.1341 63.5989C20.7603 54.2803 26.5251 49.8244 37.1188 45.5381" stroke="black" stroke-width="1.66" stroke-linecap="round" stroke-linejoin="round"></path><path d="M37.4707 43.5098C37.6063 43.5844 37.7488 43.6658 37.8912 43.7336C52.0523 51.377 69.9097 51.7365 84.3829 44.7034C84.5524 44.6288 84.722 44.5474 84.8847 44.4593" stroke="black" stroke-width="1.66" stroke-linecap="round" stroke-linejoin="round"></path><path d="M37.8914 43.7345C36.8605 42.69 34.5139 41.103 32.6488 41.2794C34.4868 38.2817 35.85 36.1928 39.6005 34.3955C37.3624 33.7512 34.0459 32.7203 31.3398 32.7949C33.4152 29.2207 37.2471 27.0708 40.1906 25.4499C38.1152 23.9442 36.2366 23.5644 31.9502 23.8425C33.7814 20.5532 36.4265 17.7318 39.9871 15.0664" stroke="black" stroke-width="1.66" stroke-linecap="round" stroke-linejoin="round"></path><path d="M40.2109 15.0518C40.8145 8.04587 45.6706 1.53502 46.4437 1.51467C47.1084 1.48754 47.6442 2.01655 48.0918 2.50487C50.3638 4.97356 52.0187 7.69998 53.6125 9.93809" stroke="black" stroke-width="1.66" stroke-linecap="round" stroke-linejoin="round"></path><path d="M53.6523 10.183C61.8927 9.61331 69.4819 9.0097 77.6205 9.29455C78.2309 9.31489 78.8548 9.33524 79.4788 9.36915" stroke="black" stroke-width="1.66" stroke-linecap="round" stroke-linejoin="round"></path><path d="M77.6348 9.05718C81.8329 4.3775 86.3837 1.73247 93.4372 1C93.5253 5.64576 92.8336 8.7045 92.2435 12.4415" stroke="black" stroke-width="1.66" stroke-linecap="round" stroke-linejoin="round"></path><path d="M92.6907 12.9492C94.4812 14.7533 96.5565 16.2725 98.8285 17.4119L96.1496 23.0071L99.1609 27.524L92.9416 34.123L95.5867 37.1343C95.5528 37.2293 90.066 43.5095 84.8777 44.4455C84.8709 44.4522 84.8505 44.4522 84.8438 44.4522" stroke="black" stroke-width="1.66" stroke-linecap="round" stroke-linejoin="round"></path><path d="M37.4699 43.5098L36.873 45.2392C36.9612 45.3342 37.0426 45.4223 37.1308 45.5173C43.2415 51.845 51.9769 55.5616 60.7666 55.5684C66.5924 55.5752 74.046 53.7915 79.0648 50.692C79.4717 50.4343 79.8651 50.1766 80.2381 49.8985C82.2999 48.42 83.8055 46.6702 84.382 44.7102" stroke="black" stroke-width="1.66" stroke-linecap="round" stroke-linejoin="round"></path><path d="M46.3758 12.4347C47.739 12.1092 49.0954 11.7769 50.4586 11.4446C50.6757 11.3903 50.9063 11.3225 51.0351 11.1394C51.2047 10.8749 51.0555 10.5154 50.8995 10.2441C50.3298 9.25392 49.6719 8.3112 48.9394 7.42953C48.7088 7.15146 48.3969 6.85305 48.0306 6.90052C47.5966 6.96156 47.4067 7.47022 47.3049 7.90428C46.9455 9.40991 46.586 10.9088 46.2266 12.4144" stroke="black" stroke-width="1.66" stroke-linecap="round" stroke-linejoin="round"></path><path d="M84.5918 10.2848C84.6257 10.2441 84.6528 10.1899 84.6867 10.1492C86.1517 8.07385 88.5051 6.33084 90.8924 5.44238C90.3431 7.61267 89.9226 9.3082 89.4614 11.4242C87.7862 10.6578 86.5518 10.5019 84.7139 10.1628" stroke="black" stroke-width="1.66" stroke-linecap="round" stroke-linejoin="round"></path><path d="M77.4258 27.8645C78.1243 24.86 79.6368 20.7161 82.2682 18.3559C84.8183 16.0839 88.8062 15.0937 91.6886 16.9113C93.2146 17.8812 94.2523 19.5021 94.8491 21.2112C95.446 22.9203 95.6494 24.7311 95.8529 26.5284" stroke="black" stroke-width="1.66" stroke-linecap="round" stroke-linejoin="round"></path><path d="M85.334 32.7806C85.8359 32.6857 86.3242 32.584 86.8125 32.4687C89.5389 31.8311 91.933 30.8206 94.0558 28.9487C94.7747 28.3248 95.4665 27.5991 96.1176 26.7581C96.1854 26.6903 96.2397 26.6225 96.2872 26.5479" stroke="black" stroke-width="1.66" stroke-linecap="round" stroke-linejoin="round"></path><path d="M78.3405 33.5481C79.3782 33.0734 80.4566 32.5647 81.1416 31.6559C81.5146 31.1473 81.7113 30.4758 81.6706 29.8519C81.6367 29.35 81.4468 28.882 81.0602 28.5565C80.5922 28.1699 79.975 28.0546 79.3646 27.9936C78.7271 27.9257 78.076 27.9054 77.4317 27.9325C76.9366 27.9393 76.4551 27.9936 75.9668 28.0614C75.804 28.0885 75.6412 28.1156 75.4717 28.1496C74.6917 28.2852 73.8236 28.5836 73.5049 29.3093C73.2471 29.8858 73.437 30.5843 73.8236 31.0998C74.2034 31.6084 74.746 31.9611 75.2886 32.307C76.1228 32.8428 76.9705 33.3854 77.8115 33.9212C77.8658 33.9551 77.9065 33.9822 77.9607 34.0161" stroke="black" stroke-width="1.66" stroke-linecap="round" stroke-linejoin="round"></path><path d="M81.8068 29.8438C82.7902 29.9794 84.2958 30.5287 84.7706 31.3969C85.0012 31.8174 85.13 32.3057 85.1504 32.7872C85.1707 32.9974 85.1571 33.1941 85.1232 33.3908C85.0825 33.696 85.0012 33.9944 84.8723 34.2725C84.5874 34.9032 84.0923 35.4187 83.5159 35.7849C83.3599 35.8866 83.1971 35.9748 83.0343 36.0494C82.1255 36.4699 81.0472 36.5581 80.1248 36.1783C79.8942 36.0833 79.6772 35.9545 79.4805 35.8052C78.8837 35.3576 78.4496 34.6726 78.375 33.9334" stroke="black" stroke-width="1.66" stroke-linecap="round" stroke-linejoin="round"></path><path d="M73.0632 29.5057C72.9411 29.4854 72.8191 29.4854 72.7038 29.4854H72.5749C71.1507 29.5464 69.7874 30.5027 69.2652 31.8455C68.8515 32.89 68.96 34.0972 69.4755 35.101H69.4822C69.5365 35.2298 69.6043 35.3519 69.6925 35.474C69.862 35.7588 70.0791 36.0165 70.3232 36.2404C70.7234 36.5998 71.1846 36.8779 71.6932 37.061C72.6495 37.4204 73.7482 37.4611 74.7248 37.1288C74.752 37.122 74.7859 37.1085 74.813 37.1017C76.2305 36.593 77.3495 35.3587 77.8107 33.9141L77.8853 33.6564" stroke="black" stroke-width="1.66" stroke-linecap="round" stroke-linejoin="round"></path><path d="M75.9262 27.8846C76.15 23.1236 71.9518 18.1794 67.4485 16.6331C62.9519 15.0868 57.6822 16.4635 54.2165 19.7325C50.7508 22.9947 49.0756 27.9457 49.4215 32.6932" stroke="black" stroke-width="1.66" stroke-linecap="round" stroke-linejoin="round"></path><path d="M48.0918 32.9102C48.4784 33.0322 48.8717 33.1543 49.2651 33.256C53.5446 34.4972 58.5634 35.311 63.3109 35.4467C65.3659 35.5009 67.3667 35.4263 69.2453 35.2161" stroke="black" stroke-width="1.66" stroke-linecap="round" stroke-linejoin="round"></path><path d="M63.3232 35.5139C63.3232 35.5139 63.3164 35.4732 63.3164 35.4461C63.0519 33.798 63.2554 32.055 64.0557 30.5765C64.8695 29.0912 66.3209 27.9247 67.9825 27.6059C69.6442 27.2872 71.4957 27.8704 72.5605 29.1929" stroke="black" stroke-width="1.66" stroke-linecap="round" stroke-linejoin="round"></path><path d="M86.6274 31.6286C86.5664 29.8314 87.1429 28.0205 88.2348 26.5827C88.7638 25.8977 89.4285 25.2873 90.2491 25.0364C91.3478 24.6905 92.6161 25.0771 93.3825 25.9316C94.1488 26.7862 94.176 27.6272 93.864 28.7326" stroke="black" stroke-width="1.66" stroke-linecap="round" stroke-linejoin="round"></path><path d="M74.7578 37.2442C75.4903 37.7393 76.4533 37.8885 77.3079 37.6579C78.1692 37.4341 78.9153 36.8237 79.3086 36.0234" stroke="black" stroke-width="1.66" stroke-linecap="round" stroke-linejoin="round"></path><path d="M72.1345 33.9277C71.2393 34.3008 70.4051 34.823 69.6929 35.4741C68.974 36.1116 68.3704 36.8712 67.916 37.7189" stroke="black" stroke-width="0.95" stroke-linecap="round" stroke-linejoin="round"></path><path d="M73.9796 34.8496C73.1454 35.5075 72.3722 36.2467 71.694 37.0606C70.9683 37.9151 70.3376 38.8375 69.8086 39.8209" stroke="black" stroke-width="0.95" stroke-linecap="round" stroke-linejoin="round"></path><path d="M83.7051 33.0654C84.1866 33.1265 84.6614 33.2282 85.1225 33.391C86.2009 33.7436 87.2047 34.3744 87.9914 35.195" stroke="black" stroke-width="0.95" stroke-linecap="round" stroke-linejoin="round"></path><path d="M81.8887 34.876C82.4584 35.1337 83.0009 35.4389 83.5096 35.7848C84.2963 36.3138 85.022 36.931 85.6528 37.6431" stroke="black" stroke-width="0.95" stroke-linecap="round" stroke-linejoin="round"></path><path d="M72.9883 70.2521C75.7011 64.1753 77.8579 57.3456 79.1465 50.8145" stroke="black" stroke-width="1.66" stroke-linecap="round" stroke-linejoin="round"></path><path d="M80.4023 50.1162C81.2908 54.4364 83.0203 61.6526 84.0376 66.4001C84.1122 66.7799 84.1936 67.1394 84.2614 67.4853" stroke="black" stroke-width="1.66" stroke-linecap="round" stroke-linejoin="round"></path><path d="M66.0371 59.2656C66.166 61.931 67.7666 64.2912 69.3875 66.4208C70.4184 67.7704 71.5307 69.1404 72.7107 70.5036C74.2164 72.2331 75.8102 73.949 77.4311 75.6038C79.3912 77.6181 81.4055 79.551 83.3113 81.3144L83.3384 81.3415C83.413 81.4161 83.5011 81.4907 83.5825 81.5653" stroke="black" stroke-width="1.66" stroke-linecap="round" stroke-linejoin="round"></path><path d="M48.0918 71.2148C53.6532 75.5418 59.2213 79.8553 64.7895 84.1823C65.861 85.0097 66.9326 85.8507 68.011 86.6849C68.7638 87.2614 69.5234 87.8514 70.2762 88.4347C71.6869 89.5334 73.1519 90.6524 74.8881 91.039C75.0848 91.0797 75.295 91.1136 75.4917 91.1272C77.0923 91.2832 78.8149 90.6796 79.5339 89.2689" stroke="black" stroke-width="1.66" stroke-linecap="round" stroke-linejoin="round"></path><path d="M78.2656 89.1885C78.6793 89.2767 79.1134 89.2902 79.5339 89.2495C80.3817 89.1546 81.1819 88.8019 81.8127 88.2322C82.1925 87.8931 82.7554 87.1267 83.1827 86.1569C83.827 84.7259 84.2136 82.8608 83.3115 81.3145" stroke="black" stroke-width="1.66" stroke-linecap="round" stroke-linejoin="round"></path><path d="M83.2363 86.184C84.491 86.2518 85.2371 85.2752 85.5829 84.068C85.9356 82.8608 86.1255 80.2768 85.6982 79.0967" stroke="black" stroke-width="1.66" stroke-linecap="round" stroke-linejoin="round"></path><path d="M83.623 81.029C84.247 80.405 84.8845 79.6997 85.5288 78.9537H85.5356C87.1769 77.0682 88.8656 74.9386 90.2763 73.2363" stroke="black" stroke-width="1.66" stroke-linecap="round" stroke-linejoin="round"></path><path d="M77.7637 75.2913C80.2324 72.7819 82.7689 70.008 84.9663 67.6953" stroke="black" stroke-width="1.66" stroke-linecap="round" stroke-linejoin="round"></path><path d="M67.8555 86.8828C68.2624 88.4698 69.0559 90.0094 70.3784 90.986C71.606 91.8948 74.034 91.8338 75.4922 91.1352C75.5939 91.081 75.6889 91.0335 75.7838 90.9792" stroke="black" stroke-width="1.66" stroke-linecap="round" stroke-linejoin="round"></path><path d="M44.6191 95.9763C44.7141 95.956 44.8023 95.9424 44.8972 95.9153C46.3147 95.6236 47.705 95.2438 49.0682 94.7691C53.3139 93.3245 57.3086 91.0796 60.7403 88.1904C62.0967 87.0578 63.3718 85.8234 64.5451 84.4941" stroke="black" stroke-width="1.66" stroke-linecap="round" stroke-linejoin="round"></path><path d="M27.5703 89.1405C30.0661 88.2656 32.5959 87.3975 35.2274 87.1804C37.8588 86.9702 40.6599 87.4992 42.6945 89.1812C44.6342 90.7818 45.6922 93.5624 44.8987 95.9158C44.8648 96.0311 44.8309 96.1396 44.7834 96.2414H44.7766C44.7766 96.2414 44.7766 96.2685 44.7699 96.2753" stroke="black" stroke-width="1.66" stroke-linecap="round" stroke-linejoin="round"></path><path d="M10.7617 96.2489C22.0065 96.8525 33.5158 97.0966 44.7403 96.2285" stroke="black" stroke-width="1.66" stroke-linecap="round" stroke-linejoin="round"></path><path d="M34.6224 87.1666C36.2569 84.5826 37.3081 81.5442 37.1182 78.4855C36.9283 75.4267 35.3481 72.3883 32.6895 70.8691" stroke="black" stroke-width="1.66" stroke-linecap="round" stroke-linejoin="round"></path><path d="M34.5605 72.1846C34.92 71.6895 35.1302 71.0791 35.1574 70.4688" stroke="black" stroke-width="1.66" stroke-linecap="round" stroke-linejoin="round"></path><path d="M38.6113 90.1309C40.7274 91.1211 41.8939 93.7932 41.175 96.0177" stroke="black" stroke-width="0.95" stroke-linecap="round" stroke-linejoin="round"></path><path d="M60.8223 88.2861C62.0566 88.259 63.3249 88.2319 64.4778 88.6998C65.5901 89.1407 66.5261 90.0495 66.9872 91.1618C67.462 92.2672 67.4688 93.5626 67.0212 94.6817" stroke="black" stroke-width="1.66" stroke-linecap="round" stroke-linejoin="round"></path><path d="M49.1367 94.9661C55.1321 94.844 61.0191 95 67.0213 94.8779H67.1705" stroke="black" stroke-width="1.66" stroke-linecap="round" stroke-linejoin="round"></path><path d="M90.6359 72.9039C89.2049 71.7034 88.3503 68.4819 92.2501 60.1738C97.2146 49.5937 115.554 34.2525 121.128 36.6669C121.393 36.7822 121.63 36.9314 121.834 37.1349C123.055 38.3082 124.614 47.2267 110.738 62.2559C106.337 67.0305 98.0285 73.0056 92.8265 73.5821C92.3925 73.6228 91.4294 73.5821 90.6359 72.8971V72.9039Z" stroke="black" stroke-width="1.66" stroke-linecap="round" stroke-linejoin="round"></path><path d="M90.8596 73.1211C90.785 73.0533 90.6969 72.9855 90.6155 72.9244C90.5951 72.9041 90.5816 72.8905 90.5748 72.8905C88.0654 70.7677 85.9629 69.5401 84.9592 67.6954C84.7286 67.2749 84.5522 66.8205 84.4505 66.3254C83.969 64.1076 84.7625 60.9132 87.5093 55.223C92.2839 45.3211 109.951 30.5022 115.506 32.9505L121.128 36.6807L121.834 37.1486" stroke="black" stroke-width="1.66" stroke-linecap="round" stroke-linejoin="round"></path><path d="M8.75544 92.3485C5.91372 88.2046 4.33348 83.3283 3.13304 78.4384C1.67488 72.4565 0.725375 66.2915 1.07126 60.1401C1.41037 53.982 3.09913 47.817 6.56481 42.7236C10.0305 37.6302 15.3613 33.683 21.4177 32.5369C23.2286 32.191 25.1479 32.096 26.8909 32.6996C28.6339 33.3032 30.187 34.6936 30.6008 36.4908C31.0077 38.2542 30.282 40.1057 29.1901 41.5435C26.2263 45.4636 20.9972 46.8133 17.0907 49.7906C11.7192 53.8938 9.1895 61.3881 10.9868 67.9057" stroke="black" stroke-width="1.66" stroke-linecap="round" stroke-linejoin="round"></path><path d="M109.281 83.4776C109.6 82.6502 110.081 81.9245 110.678 81.3005C112.048 79.8492 114.022 78.9539 116.077 78.6759C116.911 78.5606 117.759 78.5538 118.586 78.6555C118.62 78.6623 118.661 78.6623 118.701 78.6759C122.391 79.171 125.626 81.4158 128.305 84.0066C129.532 85.1867 130.685 86.4753 131.404 88.0216C132.123 89.5612 132.354 91.3924 131.71 92.959C131.14 94.329 130.068 95.1361 128.386 95.6787C128.142 95.7533 127.891 95.8347 127.627 95.9025C126.731 96.1331 125.802 96.3094 124.873 96.4111C123.802 96.5332 122.723 96.5603 121.658 96.4722C119.441 96.3026 117.277 95.6515 115.405 94.4172C112.062 92.2062 109.783 88.476 109.308 84.5017C109.274 84.2508 109.254 83.9998 109.24 83.7489" stroke="black" stroke-width="1.66" stroke-linecap="round" stroke-linejoin="round"></path><path d="M128.317 95.3388C128.087 88.3125 124.906 82.2018 116.381 78.9532C116.286 78.9125 116.191 78.8786 116.096 78.8379" stroke="black" stroke-width="1.66" stroke-linecap="round" stroke-linejoin="round"></path><path d="M116.293 79.1836C119.433 80.791 122.004 83.4903 123.448 86.705C124.9 89.9265 125.713 92.7682 124.838 96.1864" stroke="black" stroke-width="1.66" stroke-linecap="round" stroke-linejoin="round"></path><path d="M121.855 96.547C121.787 96.5199 121.726 96.4928 121.658 96.4724C115.758 94.1394 111.091 87.7506 110.807 81.4229" stroke="black" stroke-width="1.66" stroke-linecap="round" stroke-linejoin="round"></path><path d="M109.124 84.522C108.466 84.0472 108.012 83.3419 107.795 82.5619C107.53 81.6463 107.598 80.629 108.059 79.7812" stroke="black" stroke-width="1.66" stroke-linecap="round" stroke-linejoin="round"></path><path d="M108.121 79.5163C108.196 79.5909 108.277 79.6655 108.372 79.7265C108.982 80.1267 109.884 80.0657 110.407 79.5434C110.929 79.0212 111.01 78.1327 110.631 77.5156C110.576 77.4206 110.508 77.3325 110.434 77.2579C109.837 76.6542 108.752 76.6339 108.148 77.2307C107.762 77.6037 107.612 78.1802 107.707 78.6957C107.768 79.0076 107.904 79.2925 108.121 79.5163Z" stroke="black" stroke-width="1.66" stroke-linecap="round" stroke-linejoin="round"></path><path d="M110.684 77.4893C111.62 77.1637 112.583 76.8314 113.559 76.6686C114.088 76.5805 114.61 76.5398 115.139 76.5669C115.73 76.6008 116.333 76.7365 116.876 76.9874C117.662 77.3401 118.334 77.903 118.7 78.6694C118.734 78.7372 118.768 78.8186 118.795 78.8932" stroke="black" stroke-width="1.66" stroke-linecap="round" stroke-linejoin="round"></path><path d="M113.52 76.4515C113.682 75.6037 114.584 74.9662 115.439 75.0883C116.293 75.2036 116.985 76.0581 116.917 76.9194" stroke="black" stroke-width="1.66" stroke-linecap="round" stroke-linejoin="round"></path><path d="M107.314 82.697C106.555 82.3918 106.012 81.6119 105.999 80.7913C105.978 79.9774 106.501 79.1771 107.26 78.8516" stroke="black" stroke-width="1.66" stroke-linecap="round" stroke-linejoin="round"></path><path d="M108.244 76.4506C107.708 73.3783 108.664 70.0686 110.774 67.7627" stroke="black" stroke-width="1.66" stroke-linecap="round" stroke-linejoin="round"></path><path d="M111.52 76.7966C111.547 73.453 112.727 70.1229 114.829 67.5254" stroke="black" stroke-width="1.66" stroke-linecap="round" stroke-linejoin="round"></path><path d="M109.728 87.5332C107.904 89.2287 106.921 91.7924 107.158 94.2679" stroke="black" stroke-width="1.66" stroke-linecap="round" stroke-linejoin="round"></path><path d="M109.477 98.466C109.328 96.5467 110.399 92.5452 112.074 91.5957" stroke="black" stroke-width="1.66" stroke-linecap="round" stroke-linejoin="round"></path><path d="M114.353 99.6807C113.818 97.9852 114.726 95.9709 116.347 95.252" stroke="black" stroke-width="1.66" stroke-linecap="round" stroke-linejoin="round"></path><path d="M131.906 93.2783C132.971 93.4072 133.968 93.9769 134.612 94.8314C135.257 95.686 135.528 96.8118 135.352 97.863" stroke="black" stroke-width="1.66" stroke-linecap="round" stroke-linejoin="round"></path><path d="M91.64 70.1781C90.9753 68.5775 91.1449 65.5595 93.9052 59.8828C97.961 51.5001 114.557 37.0406 119.766 38.8107C120.071 38.9125 120.328 39.0685 120.546 39.2787C121.644 40.3232 123.048 48.299 110.555 61.7411C106.595 66.0139 99.1139 71.3514 94.4275 71.8669C93.8849 71.9279 92.3318 71.7991 91.6468 70.1713L91.64 70.1781Z" stroke="black" stroke-width="0.95" stroke-linecap="round" stroke-linejoin="round"></path><g style="mix-blend-mode:darken"><path d="M42.9435 50.9034C42.5908 50.2795 41.6345 50.5304 41.0173 50.8966C36.9684 53.2772 33.8757 57.0006 31.3663 60.9681C28.762 65.0849 26.6527 70.0494 27.9956 74.7291C28.0634 74.9529 28.138 75.1835 28.2669 75.3734C28.4636 75.6514 28.7688 75.8346 29.0536 76.0312C30.8712 77.2724 31.9767 79.3613 32.3837 81.5248C32.7906 83.6815 32.5668 85.9128 32.1598 88.0695C34.3844 89.2564 35.7205 91.9082 35.3542 94.3973C35.2932 94.8042 35.1779 95.2315 34.8795 95.5163C34.6692 95.713 34.3912 95.8215 34.1131 95.9029C30.878 96.8931 27.392 95.4892 24.0213 95.7808C22.4614 95.9164 20.9557 96.4116 19.4026 96.6354C16.7508 97.0219 14.0515 96.6082 11.3997 96.1945C7.49993 90.4433 4.13599 83.8917 2.50827 77.1367C0.575358 69.1067 0.473625 60.2628 4.38014 52.9923C4.8142 54.6065 5.40425 56.1731 6.1435 57.672C6.30627 58.0043 6.50296 58.357 6.83528 58.5265C7.44568 58.8385 8.16459 58.3977 8.67325 57.9297C11.8473 55.027 13.3733 50.6796 16.4524 47.6819C18.2903 45.8914 20.5963 44.6774 22.7191 43.2396C24.8487 41.8086 26.8969 40.0384 27.826 37.6443C28.077 37 28.4364 36.1726 29.1282 36.2337C29.6097 36.2744 29.9285 36.7762 30.0302 37.251C30.4507 39.1703 28.7688 40.8455 27.2021 42.0392C23.0378 45.2132 18.5277 48.0346 15.0959 51.9886C11.6642 55.9425 9.41928 61.4022 10.8503 66.4413C11.0538 67.1602 11.8134 68.008 12.3763 67.5197C12.5052 67.4044 12.5798 67.2416 12.6544 67.0788C13.3597 65.5664 14.4313 64.2574 15.4825 62.9621C17.1509 60.9206 18.8261 58.8792 20.4945 56.8378C21.7153 55.3457 22.9361 53.8537 24.3468 52.5447C27.4598 49.6487 31.4613 47.7226 35.6662 47.0851C36.4258 46.9698 37.2193 46.902 37.9518 47.1258C38.5622 47.3157 39.0912 47.6955 39.6134 48.0685C40.6647 48.8213 41.8719 50.1506 42.9231 50.9034H42.9435Z" fill="#BDB9A3"></path></g><g style="mix-blend-mode:darken"><path d="M48.5874 70.3477C50.5678 75.3732 55.7697 78.1946 60.4358 80.9074C61.4531 81.4975 62.5586 82.23 62.7824 83.3829C63.325 86.1839 58.3944 87.6692 58.7403 90.5042C60.2391 90.0769 61.894 89.6564 63.3182 90.2939C64.7425 90.9314 65.441 93.1628 64.166 94.0648C63.637 94.4378 62.952 94.4717 62.3077 94.4921C56.3869 94.682 50.4661 94.8786 44.5452 95.0685C44.7487 92.6473 43.7721 90.1515 41.9816 88.5034C40.1911 86.8554 37.6274 86.089 35.2266 86.4891C37.2205 86.1568 36.9289 79.0288 38.7329 77.4825C40.0758 76.3295 42.1104 75.7937 43.6025 74.8035C45.4608 73.5624 47.1496 72.0635 48.5874 70.3544V70.3477Z" fill="#BDB9A3"></path></g><g style="mix-blend-mode:darken"><path d="M47.9968 67.3691C50.7164 68.6035 53.2122 70.2651 55.7013 71.92C60.2521 74.9516 64.8029 77.9832 69.3538 81.0148C71.0154 82.1203 72.7177 83.2461 74.6574 83.748C76.5903 84.2431 78.8352 84.0057 80.2866 82.6357C80.7274 82.222 81.2564 81.6659 81.8193 81.8829C82.0703 81.9779 82.2331 82.2085 82.3687 82.439C83.4742 84.4127 82.3144 87.2679 80.1509 87.919C79.7372 88.0411 79.2693 88.1157 79.0048 88.4548C78.7674 88.7532 78.7674 89.1737 78.6182 89.5196C78.3333 90.191 77.5534 90.5098 76.8277 90.6387C74.2437 91.0931 71.6054 89.9672 69.5097 88.3938C67.4073 86.8203 65.6914 84.7924 63.711 83.063C59.5875 79.4549 54.6975 76.525 50.3434 73.1882C49.0683 72.2116 47.2236 71.764 46.247 70.4686C44.8838 68.6578 45.4602 66.2162 47.9968 67.3691Z" fill="#BDB9A3"></path></g><g style="mix-blend-mode:darken"><path d="M47.8694 46.3036C46.6893 45.7814 45.6923 44.9336 44.7089 44.0994C43.3186 42.9193 41.9282 41.7325 40.5311 40.5524C40.3751 40.4235 40.2191 40.2811 40.1649 40.0844C40.1038 39.8606 40.2056 39.6232 40.3412 39.4333C41.1212 38.2871 43.0269 37.7378 42.9184 36.3542C42.8642 35.6285 42.1792 35.0792 41.467 34.9232C40.7549 34.774 40.0157 34.9232 39.3103 35.086C40.5582 33.8991 41.3382 32.2375 41.467 30.5216C40.4362 30.8946 39.2086 31.2473 38.3133 30.6165C37.5266 30.0604 37.3435 28.921 37.6351 27.9986C37.9268 27.0763 38.5846 26.3302 39.2222 25.6113C36.6992 27.7138 34.1694 29.8095 31.6465 31.9119C33.6065 32.4952 35.5598 33.0717 37.5198 33.6549C37.8928 33.7635 38.293 33.8923 38.5168 34.2111C38.8695 34.7062 38.605 35.4319 38.1438 35.832C37.6826 36.2322 37.0858 36.4221 36.55 36.7069C35.1189 37.4665 34.1355 38.9993 34.0474 40.6134C37.1807 42.9872 40.6396 44.9269 44.2952 46.3647C47.0013 47.4295 50.6026 48.752 53.5257 48.1958C51.9658 46.9954 49.6599 47.1039 47.8626 46.3036H47.8694Z" fill="#BDB9A3"></path></g><g style="mix-blend-mode:darken"><path d="M78.9298 38.4582C78.9772 37.6173 79.0654 36.566 79.8521 36.2608C80.1845 36.132 80.5575 36.1862 80.9169 36.1998C83.0126 36.288 85.0812 34.8095 85.6644 32.7952C87.672 32.49 89.6252 31.8728 91.4428 30.964C92.8671 30.2519 94.2371 29.3227 95.1188 28.0002C96.0004 26.6777 96.2989 24.8736 95.546 23.4697C96.7329 24.8465 97.5264 26.5556 97.8316 28.3461C97.0381 29.2006 96.2446 30.0552 95.4511 30.9097C94.7118 31.71 93.9522 32.5307 93.5453 33.5412C93.1384 34.5517 93.1519 35.8064 93.8641 36.6339C94.2506 37.0815 94.8543 37.4748 94.8136 38.0649C94.7932 38.3769 94.583 38.6414 94.3795 38.872C90.751 42.9751 85.2236 44.7385 79.981 46.3255C78.0006 46.9224 75.9185 47.7837 73.8906 48.0617C75.8507 44.847 78.9365 42.8598 78.9365 38.465L78.9298 38.4582Z" fill="#BDB9A3"></path></g><g style="mix-blend-mode:darken"><path d="M84.1789 10.6374C84.4841 10.4204 84.8842 10.3797 85.2572 10.3933C86.0779 10.4204 86.8849 10.6239 87.6106 10.9969C87.8955 11.1461 88.2142 11.3224 88.5262 11.2478C88.8789 11.1664 89.0824 10.7934 89.2248 10.4611C89.9098 8.90798 90.4049 7.27349 90.7101 5.60508C91.8563 5.00147 92.6498 3.7739 92.7176 2.47852C92.9075 4.87939 92.7786 7.3074 92.331 9.67436C92.1615 10.5832 91.9512 11.5394 92.2768 12.4008C92.5141 13.0315 93.0092 13.5266 93.4975 13.9946C95.0642 15.5206 96.6241 17.0465 98.1908 18.5725C97.2888 19.8476 96.3867 21.1158 95.4847 22.3909C95.0574 20.3155 93.9113 18.3623 92.1886 17.1279C90.9881 16.2666 89.5029 15.7647 88.0243 15.7715C86.729 15.7783 85.2776 16.8363 84.0703 16.7142C82.5308 16.5582 82.9852 16.2463 83.2633 14.6999C83.4396 13.6894 83.2361 11.3156 84.1789 10.6306V10.6374Z" fill="#BDB9A3"></path></g><path d="M63.5625 14.0488C63.6642 14.0488 63.7728 14.0488 63.8745 14.0488" stroke="black" stroke-width="1.27" stroke-linecap="round" stroke-linejoin="round"></path><path d="M63.0876 14.0689C63.1283 14.0689 63.1825 14.0689 63.2232 14.0689C63.2775 14.0689 63.3249 14.0553 63.3792 14.0553C63.4402 14.0553 63.5013 14.0553 63.5623 14.0485C64.3965 14.0146 65.2172 13.9536 66.0446 13.8722C66.6346 13.8179 67.3264 13.6755 67.5706 13.1329C67.8012 12.6175 67.4824 12.0071 67.0483 11.6273C66.3226 10.983 65.3121 10.7321 64.349 10.7456C63.386 10.7592 62.4297 11.0101 61.4938 11.2611C60.7206 11.4781 59.8118 11.8443 59.6965 12.6379C59.5744 13.4788 60.4968 14.1299 61.3378 14.2113C61.9685 14.2656 62.5925 14.1299 63.23 14.0757" stroke="black" stroke-width="1.27" stroke-linecap="round" stroke-linejoin="round"></path><path d="M82.2754 14.9639C82.3771 14.9639 82.4856 14.9639 82.5874 14.9639" stroke="black" stroke-width="1.27" stroke-linecap="round" stroke-linejoin="round"></path><path d="M81.7936 14.9848C81.8343 14.9848 81.8817 14.9848 81.9224 14.9848C81.9767 14.9848 82.0174 14.9713 82.0716 14.9713C82.1395 14.9713 82.2005 14.9713 82.2683 14.9645C83.1025 14.9374 83.9232 14.8695 84.7506 14.7949C85.3406 14.7339 86.0188 14.5915 86.2698 14.0557C86.5072 13.5402 86.1816 12.9163 85.7543 12.5365C85.0286 11.899 84.0181 11.6412 83.055 11.6548C82.092 11.6684 81.1357 11.9193 80.1997 12.1702C79.4266 12.3873 78.5178 12.7535 78.3957 13.547C78.2736 14.388 79.196 15.0527 80.037 15.1205C80.6745 15.1747 81.2917 15.0391 81.9292 14.9848" stroke="black" stroke-width="1.27" stroke-linecap="round" stroke-linejoin="round"></path><path d="M66.0784 31.5327C67.3482 31.5327 68.3776 30.2786 68.3776 28.7317C68.3776 27.1847 67.3482 25.9307 66.0784 25.9307C64.8087 25.9307 63.7793 27.1847 63.7793 28.7317C63.7793 30.2786 64.8087 31.5327 66.0784 31.5327Z" fill="white"></path><path d="M88.0648 29.1323C89.3346 29.1323 90.3639 27.8783 90.3639 26.3313C90.3639 24.7843 89.3346 23.5303 88.0648 23.5303C86.795 23.5303 85.7656 24.7843 85.7656 26.3313C85.7656 27.8783 86.795 29.1323 88.0648 29.1323Z" fill="white"></path><g style="mix-blend-mode:darken"><path d="M69.9374 30.2378C72.6367 26.901 73.2674 22.0178 71.5041 18.1113C73.9117 20.4105 75.5463 23.5031 76.0956 26.7857C76.1227 26.962 76.1499 27.1451 76.082 27.3079C76.021 27.4435 75.8989 27.5453 75.7701 27.6267C75.1054 28.0539 74.2644 28.1082 73.5659 28.4744C72.8673 28.8407 72.3519 29.8309 72.8944 30.4006C71.599 30.075 70.1612 30.4006 69.1439 31.2619C68.1266 32.1232 67.5569 33.4864 67.6654 34.8157C67.6247 34.3071 61.0799 35.3108 60.3203 34.8564C63.5757 33.1202 67.1228 33.7102 69.9374 30.2378Z" fill="#CDEFF7"></path></g><g style="mix-blend-mode:darken"><path d="M89.1911 28.8212C90.812 27.397 91.2732 24.969 90.812 22.853C90.3508 20.7437 89.1165 18.8854 87.7804 17.1831C88.5874 16.5117 89.8218 16.5795 90.7577 17.061C91.6937 17.5425 92.399 18.3632 93.084 19.1635C93.5045 19.6586 93.925 20.1537 94.2234 20.7302C94.5083 21.2727 94.6643 21.8696 94.8202 22.4664C95.3696 24.596 95.7833 27.024 94.5896 28.8687C94.0946 29.6351 93.3621 30.2184 92.5889 30.6999C90.4458 32.0495 87.8821 32.721 85.3524 32.5989C85.549 32.6057 85.0675 30.9983 85.0743 30.978C85.2981 30.2726 85.1421 30.666 85.8271 30.2251C86.8444 29.5673 88.1602 29.7368 89.1911 28.828V28.8212Z" fill="#CDEFF7"></path></g><g style="mix-blend-mode:darken"><path d="M117.976 89.6766C118.851 90.0225 119.787 90.2802 120.723 90.1717C121.658 90.0632 122.581 89.5206 122.933 88.6457C123.028 88.4151 123.151 88.1099 123.401 88.1167C124.975 90.5583 125.375 93.7188 124.473 96.4791C122.581 96.9538 120.363 96.9267 118.925 95.6042C118.545 95.2583 118.24 94.831 117.84 94.4987C117.236 93.9968 116.463 93.7391 115.887 93.2101C115.399 92.7625 115.093 92.1589 114.802 91.5688C114.402 90.7753 112.055 86.8824 113.344 86.7806C114.205 86.7128 116.945 89.2493 117.983 89.663L117.976 89.6766Z" fill="#9263BD"></path></g><g style="mix-blend-mode:darken"><path d="M129.125 85.2949C129.939 86.2105 130.583 87.2617 131.024 88.4011C131.472 89.5473 131.716 90.7952 131.546 92.016C131.377 93.2367 130.767 94.4168 129.763 95.129C129.634 95.2171 129.485 95.3053 129.329 95.2782C129.03 95.2307 128.956 94.8441 128.935 94.5389C128.813 92.5043 128.155 90.7409 127.335 88.903C126.704 87.4855 126.69 88.0755 127.457 87.1735C128.06 86.4682 128.868 86.3868 129.118 85.2881L129.125 85.2949Z" fill="#9263BD"></path></g><path d="M91.6338 50.8892C91.349 51.2758 91.0641 51.6827 90.9556 52.1506C90.6097 53.6563 92.1493 54.8635 93.4786 55.6367C99.1891 47.4438 106.961 40.6956 115.88 36.1923C115.093 35.5276 114.083 33.4591 112.977 33.649C112.129 33.7914 109.898 34.8223 109.152 35.2496C106.873 36.5585 104.683 38.0235 102.607 39.6376C98.4567 42.8591 94.7468 46.6571 91.6338 50.8892Z" fill="#CCEDED"></path><g style="mix-blend-mode:darken"><path d="M70.0733 59.6045C71.328 59.1026 72.3047 58.0921 73.2338 57.1087C74.2783 56.0032 75.377 54.7892 75.5601 53.2835C75.6076 52.9105 75.6008 52.4968 75.8382 52.1984C75.9941 52.0017 76.2383 51.8932 76.4689 51.7915C77.4523 51.3574 78.4357 50.9302 79.4191 50.4961C78.1712 57.285 75.8382 63.8772 72.542 69.9405C72.8404 69.3979 67.3469 65.5185 67.3672 59.7605C68.2354 59.93 69.2323 59.9368 70.0665 59.6045H70.0733Z" fill="#BDB9A3"></path></g><g style="mix-blend-mode:darken"><path d="M84.2887 73.6237C85.3942 72.8031 86.5607 71.7586 86.6218 70.3818C87.6933 70.8295 88.7039 71.4263 89.6195 72.1384C89.8569 72.3215 90.1078 72.5657 90.0874 72.8641C90.0739 73.0269 89.9857 73.1625 89.8975 73.2982C88.1071 75.9703 85.9842 78.4187 83.5901 80.5686C83.4884 80.6568 83.3799 80.7517 83.2443 80.7585C83.095 80.7585 82.9662 80.65 82.8509 80.5483C81.9082 79.6666 77.8728 76.7638 78.8155 75.7329C79.2157 75.2989 81.1689 75.3938 81.82 75.1361C82.7152 74.7767 83.5291 74.1934 84.2887 73.6237Z" fill="#548281"></path></g><path d="M97.8184 62.7377C100.077 60.2554 102.328 58.0784 104.492 55.6029C106.689 53.1545 108.582 50.6655 110.786 48.1357C109.911 54.8907 104.411 61.0625 97.8184 62.7377Z" fill="#CDEFF7"></path><path d="M11.8003 94.424C10.159 90.8295 9.31801 86.9094 9.37905 82.9554C9.44009 79.0014 10.4235 74.9593 11.9834 71.2562C14.9201 64.2774 19.7151 58.343 25.7783 53.8329C29.0269 51.4117 32.5604 49.3838 36.1957 47.6001C36.6976 47.356 36.2567 46.6099 35.7616 46.8541C29.1694 50.0824 22.9027 54.1856 18.0738 59.7808C15.4898 62.7785 13.3602 66.1561 11.7121 69.7574C9.97588 73.5554 8.80257 77.6314 8.56519 81.8092C8.30747 86.3058 9.19593 90.7616 11.061 94.8581C11.2916 95.3599 12.0377 94.9259 11.8071 94.424H11.8003Z" fill="#E1DFD2"></path><path d="M6.05545 82.8607C4.49556 78.1743 3.36972 73.3183 2.93566 68.3944C2.5016 63.4367 2.75933 58.4111 3.9462 53.5687C4.64477 50.7202 5.64852 47.9599 6.9507 45.3352C7.19485 44.8401 6.4556 44.3992 6.20466 44.9011C3.89195 49.5605 2.51517 54.6131 2.05398 59.7879C1.5928 64.9627 2.01329 69.9069 3.01027 74.851C3.57318 77.6453 4.326 80.392 5.22125 83.0913C5.39758 83.6136 6.23179 83.3897 6.05545 82.8607Z" fill="#E1DFD2"></path><path d="M64.3213 60.9541C66.2813 64.8878 68.6212 68.618 71.3069 72.0972C72.6362 73.8199 74.0537 75.4815 75.5457 77.0685C76.285 77.8552 77.0446 78.6284 77.8245 79.3744C78.4282 79.9577 79.1199 80.4392 79.7846 80.9479C80.4492 81.4565 81.3038 82.0262 81.7378 82.7723C82.3143 83.776 81.7175 85.1392 81.4259 86.143C81.2699 86.6788 82.1041 86.9094 82.2601 86.3736C82.5449 85.397 82.9247 84.3661 82.8026 83.3352C82.7009 82.4535 82.1651 81.8228 81.5208 81.2531C80.8358 80.6427 80.0898 80.1137 79.3709 79.5508C78.652 78.9878 77.9534 78.2961 77.2888 77.6178C74.1351 74.4302 71.3137 70.9239 68.8721 67.1598C67.4818 65.0166 66.2135 62.7989 65.0741 60.5065C64.8232 60.0114 64.0839 60.4455 64.3281 60.9406L64.3213 60.9541Z" fill="#FCFAEC"></path><path d="M79.4531 54.3692C80.3551 58.8454 81.2639 63.3216 82.1659 67.7978C82.2744 68.3404 83.1087 68.1098 83.0001 67.5672C82.0981 63.091 81.1893 58.6148 80.2873 54.1386C80.1788 53.596 79.3446 53.8266 79.4531 54.3692Z" fill="#FCFAEC"></path><path d="M34.6766 22.7305C36.4875 20.3635 38.8951 18.4917 41.6148 17.2777C42.1234 17.0539 41.6826 16.3078 41.1807 16.5316C38.3187 17.8067 35.8364 19.8006 33.9374 22.2897C33.5983 22.7305 34.3511 23.1646 34.6834 22.7237L34.6766 22.7305Z" fill="#FCFAEC"></path><path d="M42.1452 14.7675C42.3351 10.7457 44.0035 6.85955 46.7909 3.9568C47.1775 3.55665 46.5671 2.94626 46.1805 3.3464C43.2303 6.41871 41.4805 10.5151 41.2838 14.7675C41.2567 15.3237 42.1248 15.3237 42.1452 14.7675Z" fill="#FCFAEC"></path><path d="M81.1824 8.48025C83.7121 5.99799 86.9269 4.31602 90.4061 3.63103C90.9487 3.52251 90.7181 2.68831 90.1755 2.79682C86.5606 3.50895 83.2035 5.29265 80.572 7.86986C80.1718 8.25644 80.7822 8.86683 81.1824 8.48025Z" fill="#FCFAEC"></path><path d="M80.4153 13.9873C81.731 13.2413 83.2977 12.9768 84.783 13.282C85.3256 13.3905 85.5561 12.5631 85.0136 12.4478C83.2977 12.0951 81.5072 12.3732 79.9812 13.2345C79.4997 13.5126 79.9337 14.2586 80.4153 13.9805V13.9873Z" fill="#FCFAEC"></path><path d="M62.0766 12.8209C63.1754 12.7395 64.2741 12.6649 65.366 12.5835C65.5966 12.57 65.8 12.4004 65.8 12.1495C65.8 11.9257 65.6034 11.7019 65.366 11.7154C64.2673 11.7968 63.1686 11.8714 62.0766 11.9528C61.8461 11.9664 61.6426 12.1359 61.6426 12.3869C61.6426 12.6107 61.8393 12.8345 62.0766 12.8209Z" fill="#FCFAEC"></path><path d="M86.1065 65.1246C87.022 60.2415 89.1856 55.6635 92.0408 51.6146C95.0589 47.3283 98.8976 43.5845 103.238 40.6479C105.653 39.0134 108.237 37.6163 110.949 36.5515C111.458 36.348 111.241 35.5138 110.719 35.7173C105.748 37.6705 101.21 40.6411 97.3106 44.2831C93.4719 47.8708 90.2029 52.1436 87.9376 56.8911C86.7236 59.4344 85.7945 62.1201 85.2723 64.894C85.1705 65.4366 86.0047 65.6672 86.1065 65.1246Z" fill="#CCEDED"></path></svg> 