<?xml version="1.0" encoding="UTF-8"?> <svg xmlns="http://www.w3.org/2000/svg" width="159" height="122" viewBox="0 0 159 122" fill="none"><path d="M105.218 12.5987L155.226 1.00879C154.359 35.0833 155.471 79.4882 154.62 113.571L102.715 103.756C102.788 86.5141 102.928 66.2543 103.582 49.7895L103.606 49.446C105.144 49.5196 106.42 49.6259 106.42 49.6259C106.42 49.6259 109.226 43.2543 109.855 41.1359L109.724 40.7924C110.91 40.3589 111.925 39.6064 112.743 38.4204C114.288 36.1875 115.36 30.5439 114.403 28.0001L114.051 27.7629C114.517 27.0841 114.853 26.2825 115.074 25.5137C115.458 24.1805 115.671 22.6837 115.033 21.4568C114.084 19.6328 111.745 19.1502 109.716 18.864C108.563 18.7004 107.393 18.545 106.273 18.8313C105.97 18.9049 105.676 19.0194 105.398 19.1748L105.218 18.8885V12.5905V12.5987ZM131.285 93.2865L141.452 94.5052C141.337 86.8413 141.231 25.53 141.108 17.8825L130.95 19.9109C131.056 27.5748 131.17 85.6308 131.277 93.2947L131.285 93.2865ZM117.266 90.8409L126.001 92.0596C125.887 84.4121 125.78 54.8034 125.658 47.1395L116.922 49.585C117.037 57.2326 117.143 83.1852 117.266 90.8409ZM106.894 89.017L112.391 90.0312C112.276 82.3673 112.17 72.4786 112.047 64.8229L106.567 66.0498C106.674 73.6973 106.788 81.3612 106.894 89.017Z" fill="white"></path><path d="M141.451 94.5049L131.284 93.2862C131.178 85.6223 131.063 27.5664 130.957 19.9025L141.116 17.874C141.23 25.5216 141.336 86.841 141.459 94.4967L141.451 94.5049Z" fill="#7B4CFF"></path><path d="M125.999 92.0598L117.263 90.8411C117.149 83.1772 117.043 57.2328 116.92 49.5852L125.655 47.1396C125.77 54.8036 125.876 84.4041 125.999 92.0598Z" fill="#955EEA"></path><path d="M103.908 21.1138C103.933 20.9993 103.949 20.8929 103.99 20.7866C104.203 20.1077 104.751 19.5515 105.397 19.1835C105.675 19.0362 105.97 18.9136 106.272 18.8399C107.393 18.5537 108.562 18.7091 109.716 18.8727C111.744 19.1589 114.083 19.6415 115.032 21.4655C115.67 22.6923 115.457 24.1891 115.073 25.5223C114.852 26.2912 114.517 27.0928 114.051 27.7716C113.462 28.6795 112.644 29.3829 111.589 29.5629C111.319 29.6038 111.057 29.6201 110.787 29.5956C109.487 29.4893 108.252 28.6223 107.155 27.7798C105.986 26.8719 104.775 25.9231 104.072 24.6226C103.508 23.543 103.369 22.1607 103.908 21.1138Z" fill="#333333"></path><path d="M114.404 27.9999C115.353 30.5518 114.289 36.1954 112.744 38.4202C111.926 39.6062 110.911 40.3505 109.725 40.7922C108.687 41.1766 107.517 41.3156 106.233 41.3156L106.135 41.2829C106.282 40.8658 106.437 40.4405 106.56 39.9988L106.372 39.8352C108.548 37.1115 110.077 33.3491 110.748 30.1183L110.789 29.5867C111.059 29.6112 111.32 29.5948 111.59 29.5539C112.645 29.374 113.472 28.6706 114.052 27.7627L114.404 27.9999Z" fill="#D3AE8A"></path><path d="M112.388 90.0306L106.892 89.0163C106.785 81.3524 106.671 73.6967 106.564 66.0491L112.045 64.8223C112.159 72.4862 112.265 82.3748 112.388 90.0306Z" fill="#A47BD4"></path><path d="M82.191 35.7862C81.0704 34.7065 80.8659 32.8417 81.4303 31.3612C82.0519 29.7417 83.3688 28.4985 84.7511 27.4352C85.4299 26.9036 86.1252 26.4128 86.8449 25.9384C87.6792 25.4068 88.538 24.8997 89.4132 24.4416C92.6277 22.7567 96.1038 21.6607 99.7109 21.1372C100.316 21.0391 100.938 20.9655 101.559 20.9164C102.361 20.8428 103.163 20.8019 103.972 20.7773H103.997C103.956 20.8837 103.931 20.99 103.915 21.0963H103.923C103.375 22.1515 103.514 23.5419 104.087 24.6134C104.79 25.9139 105.993 26.8627 107.17 27.7706C108.258 28.613 109.493 29.48 110.802 29.5863L110.761 30.118C110.09 33.3488 108.561 37.1194 106.385 39.8349C105.976 40.3502 105.551 40.8164 105.101 41.2417C103.67 42.5994 101.952 43.6627 100.095 44.3334C99.8826 44.3989 99.67 44.4725 99.441 44.5379L99.5473 44.9142C97.4698 46.7954 95.106 48.3494 92.5786 49.5272C91.9897 49.8135 91.409 50.0752 90.7955 50.2961L91 50.795C91.1063 60.1111 90.2639 69.6808 87.5893 78.5225C86.7141 81.3934 85.659 84.1907 84.3666 86.8653C83.7614 88.1494 83.0989 89.3926 82.3791 90.6113C80.7351 93.425 78.8129 96.0832 76.5637 98.5615C72.2123 103.338 66.675 106.872 60.6959 109.104C53.8254 111.665 46.3741 112.532 39.5199 111.64V111.575C34.9313 106.209 32.2649 99.2077 32.1504 92.1327C32.0359 85.0577 34.4406 77.9745 38.8737 72.4617L39.3399 72.2163C39.7244 72.6335 40.1415 73.0097 40.6077 73.3287C42.8979 74.9073 45.9242 75.1281 48.6397 74.531C51.3471 73.9421 53.8581 72.6335 56.3119 71.333L56.5818 71.4802C55.7148 73.0179 54.9786 74.6128 54.676 76.3468C54.2425 78.8006 54.856 81.606 56.8517 83.111C58.324 84.207 60.3442 84.436 62.1109 83.9289C63.8695 83.4136 65.399 82.2358 66.5523 80.8127C70.1675 76.355 70.0121 69.2718 66.1924 64.9777C63.4932 61.9514 59.2073 60.5691 55.1995 61.0926L55.1668 60.8881C63.4605 52.2264 72.2368 44.0308 81.463 36.3669L82.1992 35.7698L82.191 35.7862Z" fill="#D3AE8A"></path><path d="M109.721 40.792L109.852 41.1355C109.222 43.2621 106.417 49.6255 106.417 49.6255C106.417 49.6255 105.133 49.5192 103.603 49.4456C103.35 49.4374 103.088 49.421 102.826 49.4129C103.701 46.5092 105.133 44.0555 106.147 41.2827L106.245 41.3155C107.529 41.3155 108.699 41.1764 109.738 40.792H109.721Z" fill="white"></path><path d="M106.37 39.8438L106.558 40.0073C106.427 40.4408 106.28 40.8743 106.133 41.2915C105.118 44.0642 103.687 46.518 102.812 49.4216C101.135 49.3643 99.352 49.3643 98.6895 49.6015C99.1884 47.7776 99.5974 46.2317 100.088 44.3914V44.3505C101.937 43.6798 103.654 42.6083 105.077 41.2588C105.527 40.8334 105.953 40.359 106.362 39.8519L106.37 39.8438Z" fill="white"></path><path d="M101.562 20.8841V20.9169C100.941 20.9741 100.327 21.0477 99.7136 21.1377L99.6155 20.5652C99.1656 19.7227 98.6094 18.9457 97.9551 18.2504L98.0614 18.1523C98.8793 17.8251 99.8608 17.9315 100.597 18.4304C101.325 18.9457 101.587 19.9844 101.554 20.8841H101.562Z" fill="white"></path><path d="M99.4171 14.0133C100.129 14.4632 100.423 15.4938 100.014 16.2463C99.6216 16.9906 97.6259 17.3259 96.8489 16.9742L96.7343 17.1133C96.2681 16.7206 95.7774 16.3771 95.2539 16.0663L95.3521 15.8864C95.8673 15.232 96.3908 14.5777 97.0779 14.1606C97.7813 13.7352 98.7219 13.5962 99.4253 14.0215L99.4171 14.0133Z" fill="#A67D52"></path><path d="M99.6146 20.5657L99.7127 21.1382C96.1057 21.6617 92.6295 22.7577 89.4151 24.4426L89.2679 24.1645C89.137 23.3139 88.9162 22.5859 88.5726 21.9561C87.9183 20.7374 86.8795 19.9113 85.4482 19.2325C85.2437 19.1343 85.031 19.0525 84.8184 18.9871L85.2028 17.6621C85.2764 17.6866 85.3664 17.703 85.44 17.7275C86.4542 17.9974 87.722 18.1201 88.3518 17.3022C88.9898 16.4679 88.499 15.2819 87.7138 14.5294L87.7383 14.5049C90.323 14.1287 92.9976 14.7421 95.2469 16.0508C95.7704 16.3616 96.2611 16.7051 96.7273 17.0977C97.1608 17.4412 97.578 17.8257 97.9542 18.2428C98.6167 18.938 99.1729 19.715 99.6146 20.5575V20.5657Z" fill="#A67D52"></path><path d="M90.3158 86.5878L89.9559 86.5306C88.2465 87.8311 86.6515 87.9292 84.7049 87.0295L84.3613 86.8659C85.6536 84.1913 86.7088 81.394 87.5839 78.5231L90.5694 78.9076C91.191 78.4904 91.8944 78.286 92.6305 78.2532C93.9392 78.1796 95.3297 78.6786 96.3112 79.5946C97.8244 81.0096 98.4541 83.2098 98.3315 85.2792C98.2006 87.3567 97.3908 89.336 96.4093 91.1682C95.9186 92.0843 95.3542 93.0003 94.5036 93.5974C93.6366 94.1945 92.426 94.3908 91.559 93.8019C90.7575 93.2539 90.4712 92.2233 90.324 91.2663C90.0868 89.7123 90.0868 88.1173 90.324 86.5715L90.3158 86.5878Z" fill="#A67D52"></path><path d="M92.8736 50.1823C94.8285 59.2612 94.7303 68.7818 92.6201 77.8362V78.2615C91.8921 78.2942 91.1887 78.4987 90.5753 78.9158L87.5898 78.5314C90.2645 69.6897 91.1069 60.12 91.0006 50.8039L90.7961 50.3132C91.4014 50.076 91.9903 49.8224 92.5792 49.5361L92.8818 50.1905L92.8736 50.1823Z" fill="#A67D52"></path><path d="M89.2654 24.1717L89.4126 24.4498C88.5375 24.9078 87.6705 25.4067 86.8444 25.9466L86.738 25.7993C86.1082 25.9793 85.5112 26.1265 84.9468 26.2492C83.8508 25.3331 83.6463 23.4928 84.5542 22.3641C85.4784 21.219 87.3924 21.039 88.5129 22.0042L88.5784 21.9715C88.9219 22.6013 89.1427 23.3292 89.2736 24.1798L89.2654 24.1717Z" fill="#333333"></path><path d="M74.5366 110.773C77.931 109.554 81.7997 109.661 85.0878 111.19C87.2962 112.213 89.4391 114.56 88.5312 116.826C87.6561 119.026 84.7115 119.312 82.3559 119.247C73.9886 119.034 65.613 118.821 57.2538 118.592C56.7304 118.584 56.166 118.551 55.7898 118.183C55.1191 117.529 55.5771 116.4 56.0679 115.615C57.5483 113.243 58.9306 111.117 60.6973 109.104C66.6681 106.872 72.2055 103.346 76.565 98.5615C78.8143 96.0832 80.7364 93.4332 82.3805 90.6113L82.7731 90.8485C83.6237 98.2916 80.3929 106.07 74.512 110.724L74.5366 110.765V110.773Z" fill="#A67D52"></path><path d="M88.57 21.9639L88.5046 21.9966C87.3841 21.0396 85.4783 21.2196 84.5459 22.3565C83.638 23.4852 83.8424 25.3255 84.9385 26.2416C82.2311 26.8141 80.0964 26.7651 76.9801 26.487L76.7429 26.5524C76.1376 24.2868 76.9228 21.694 78.7059 20.1644C80.3499 18.7576 82.7464 18.3159 84.8076 19.003C85.0203 19.0684 85.2329 19.1502 85.4374 19.2484C86.8688 19.9191 87.9157 20.7533 88.5619 21.972L88.57 21.9639Z" fill="white"></path><path d="M87.7135 14.538C88.5068 15.2987 88.9976 16.4765 88.3514 17.3108C87.7216 18.1287 86.4539 18.006 85.4396 17.7361C85.366 17.7115 85.276 17.6952 85.2024 17.6707C84.1064 17.3598 83.0267 16.9754 81.9716 16.5174C81.4154 16.2802 80.8511 16.0021 80.4994 15.5277C80.3849 15.3805 80.3113 15.2005 80.254 15.0124C80.1395 14.5953 80.1886 14.1618 80.4912 13.8591L80.5975 13.6874C81.3255 12.0679 85.5869 12.9431 87.3618 14.2354C87.4763 14.3172 87.6071 14.4235 87.7135 14.538Z" fill="#A67D52"></path><path d="M84.9491 26.242C85.5135 26.1275 86.1105 25.9721 86.7403 25.7921L86.8467 25.9394C86.1351 26.4056 85.4398 26.8963 84.7528 27.4362C83.3787 28.4995 82.0536 29.7427 81.432 31.3622C80.8676 32.8426 81.0721 34.7156 82.1927 35.7871L81.4566 36.3842C72.2304 44.0481 63.4459 52.2355 55.1603 60.9054L55.193 61.1099C59.1927 60.5864 63.4868 61.9606 66.1859 64.995C70.0056 69.2809 70.1692 76.3723 66.5458 80.83C65.3925 82.245 63.8712 83.4309 62.1045 83.9462C60.3296 84.4452 58.3175 84.2243 56.8452 83.1283C54.8495 81.6233 54.2279 78.8179 54.6696 76.3641C54.9804 74.6383 55.7165 73.0352 56.5753 71.4975L56.3054 71.3503C53.8516 72.6508 51.3406 73.9676 48.6333 74.5483C45.9096 75.1454 42.8914 74.9246 40.6013 73.346C40.135 73.027 39.7179 72.6508 39.3335 72.2336C37.8694 70.6469 37.1006 68.4548 36.9615 66.2137C36.8797 64.8723 37.0269 63.4901 37.3786 62.2141C37.9267 60.2266 38.8836 58.419 40.0451 56.7177C41.2065 55.0082 42.597 53.4296 43.9793 51.9247C50.1955 45.2014 57.1233 39.1406 64.6237 33.8977L64.5664 33.5542C62.3907 33.5624 60.1415 32.4009 59.3072 30.397C58.4729 28.3931 59.5444 25.6776 61.6546 25.1623C62.9878 24.8352 64.4274 25.3832 65.4743 26.2911C65.7442 26.5119 65.9732 26.7573 66.2023 27.0272L66.8075 26.8064C67.2329 23.6247 68.836 20.6147 71.2243 18.4881C73.6208 16.3615 76.8026 15.1265 80.0088 15.0856L80.246 15.0283C80.3033 15.2083 80.3769 15.3882 80.4914 15.5436C80.8431 16.0262 81.4075 16.3043 81.9637 16.5333C83.0188 16.9913 84.0984 17.3757 85.1945 17.6866L84.81 19.0116C82.7489 18.3327 80.3524 18.7662 78.7083 20.173C76.9253 21.7107 76.14 24.3035 76.7453 26.561L76.9825 26.4956C80.0988 26.7736 82.2336 26.8227 84.9409 26.2502L84.9491 26.242Z" fill="#A67D52"></path><path d="M27.1129 50.7374C23.424 51.539 19.4816 52.2015 15.94 52.5941C15.8255 57.1745 16.0218 62.2047 16.6761 67.0386C17.2078 71.1364 18.0748 75.0869 19.3017 78.4895C19.6452 79.4382 20.0133 80.3461 20.4222 81.1968L22.8106 82.4564C20.4304 86.8813 18.7864 91.7152 18.0339 96.8681H17.9521C11.6214 91.8297 6.13311 83.716 4.07194 75.9048C2.01078 68.1019 2.54243 60.4952 6.20672 52.5696L6.06768 52.496C7.22913 50.2958 8.60324 48.2182 10.19 46.2961C12.3984 43.6215 15.0158 41.2087 18.1239 39.7037C21.2483 38.1987 24.9208 37.6425 28.2416 38.6649C31.8159 39.7773 34.6786 42.6237 36.4535 45.9199C38.2284 49.2243 39.0218 52.9622 39.5044 56.6755L40.0606 56.7083C38.8991 58.4013 37.934 60.2171 37.3942 62.2047L35.1121 61.8121C32.732 62.4092 30.3518 62.9653 27.7836 63.636C27.0474 59.3992 26.9166 55.0888 27.121 50.7374H27.1129Z" fill="#7B654F"></path><path d="M17.9446 109.62C17.5602 106.643 17.4538 103.739 17.6174 100.934C17.691 99.5598 17.8301 98.2021 18.0346 96.8689C18.7952 91.716 20.4311 86.8821 22.8112 82.4571C23.6537 80.8867 24.5943 79.3736 25.6085 77.9095C27.1462 75.7093 28.8639 73.6318 30.7533 71.677C32.6427 69.7221 34.7039 67.89 36.9122 66.2051H36.9777C37.1167 68.4462 37.8856 70.63 39.3497 72.225L38.8834 72.4703C34.4585 77.9831 32.0456 85.0745 32.1601 92.1413C32.2746 99.2081 34.941 106.218 39.546 111.583V111.649C36.2906 111.232 33.1743 110.422 30.3198 109.219L29.6491 109.154C29.3955 111.968 29.1338 114.798 28.8721 117.611C28.7984 118.478 28.6839 119.427 28.0378 120.024C27.4407 120.589 26.5655 120.679 25.7558 120.728C20.5783 121.071 15.3845 121.087 10.207 120.793C9.29915 120.736 8.34217 120.654 7.58968 120.155C6.28101 119.28 6.04381 117.423 6.35462 115.886C7.02531 112.565 9.82261 109.792 13.1434 109.146C14.7547 108.827 16.4396 109.015 17.9691 109.628L17.9446 109.62Z" fill="#A67D52"></path><path d="M35.104 61.8125L37.386 62.2051C37.0343 63.4892 36.8871 64.8633 36.9689 66.2047H36.9034C34.695 67.8896 32.6339 69.7218 30.7445 71.6766L29.8202 71.2104C28.8796 68.7157 28.2171 66.1884 27.7754 63.6365C30.3437 62.9658 32.7238 62.4096 35.104 61.8125Z" fill="#7B654F"></path><path d="M29.8202 71.21L30.7444 71.6763C28.855 73.6311 27.1374 75.7086 25.5997 77.9088L22.9251 76.7883C21.6982 77.3035 20.4795 77.8679 19.2935 78.4813C18.0666 75.0788 17.1996 71.1283 16.668 67.0305C20.9212 65.501 24.4955 64.4786 27.7672 63.6279C28.2171 66.1798 28.8796 68.7072 29.812 71.2019L29.8202 71.21Z" fill="#7B654F"></path><path d="M27.1118 50.7383C26.9073 55.0896 27.0382 59.4 27.7743 63.6369C24.5108 64.4875 20.9365 65.5181 16.6751 67.0394C16.0208 62.2055 15.8245 57.1671 15.939 52.595C19.4806 52.2024 23.4148 51.5398 27.1118 50.7383Z" fill="#7B654F"></path><path d="M22.9245 76.7891L25.5992 77.9096C24.5849 79.3737 23.6443 80.8868 22.8019 82.4572L20.4135 81.1976C20.0046 80.347 19.6365 79.4391 19.293 78.4903C20.479 77.8687 21.6895 77.3044 22.9245 76.7972V76.7891Z" fill="#7B654F"></path><path d="M17.9441 96.8601H18.0259C17.8214 98.2014 17.6823 99.5592 17.6087 100.933C10.1002 94.5781 2.60801 83.5934 1.70012 73.8356C1.02942 66.4989 2.60801 58.9986 6.05147 52.4961L6.19052 52.5697C2.5344 60.4953 1.99457 68.102 4.05574 75.905C6.1169 83.7161 11.6134 91.838 17.9359 96.8601H17.9441Z" fill="#7B654F"></path><path d="M30.3047 109.219C33.1674 110.421 36.2755 111.239 39.5227 111.648C46.3851 112.531 53.8282 111.672 60.6987 109.112C66.6696 106.879 72.2069 103.354 76.5665 98.5693C78.8157 96.091 80.7379 93.4409 82.3819 90.6191C83.0935 89.4004 83.756 88.1571 84.3694 86.873C85.6618 84.1984 86.7169 81.4011 87.5921 78.5302C90.2667 69.6885 91.1091 60.1188 91.0028 50.8027" stroke="black" stroke-width="1.7" stroke-linecap="round" stroke-linejoin="round"></path><path d="M88.7695 51.0154C89.4484 50.8109 90.1355 50.5819 90.798 50.312C91.4032 50.0748 91.9921 49.8212 92.581 49.5349C95.1084 48.3653 97.4641 46.8031 99.5498 44.9219" stroke="black" stroke-width="1.7" stroke-linecap="round" stroke-linejoin="round"></path><path d="M85.7598 37.904C86.8067 41.691 90.4301 44.4883 94.3234 45.0117C96.0411 45.2326 97.7832 45.0526 99.4355 44.5537C99.6563 44.4883 99.869 44.4147 100.09 44.3492C101.946 43.6785 103.664 42.6071 105.095 41.2575C105.545 40.8322 105.971 40.3578 106.38 39.8507C108.555 37.127 110.085 33.3646 110.756 30.1338" stroke="black" stroke-width="1.7" stroke-linecap="round" stroke-linejoin="round"></path><path d="M106.232 41.3148C107.517 41.3148 108.686 41.1757 109.725 40.7913C110.911 40.3578 111.925 39.6053 112.743 38.4193C114.289 36.1864 115.36 30.5428 114.403 27.999" stroke="black" stroke-width="1.7" stroke-linecap="round" stroke-linejoin="round"></path><path d="M82.5369 36.0633C82.4224 35.9815 82.2997 35.8915 82.1934 35.7852C81.0728 34.7055 80.8683 32.8407 81.4327 31.3603C82.0543 29.7408 83.3712 28.4975 84.7535 27.4342C85.4323 26.9026 86.1276 26.4118 86.8473 25.9374C87.6816 25.4058 88.5404 24.8987 89.4156 24.4406C92.6301 22.7557 96.1062 21.6597 99.7133 21.1363C100.319 21.0381 100.94 20.9645 101.562 20.9154C102.363 20.8418 103.165 20.8009 103.975 20.7764" stroke="black" stroke-width="1.7" stroke-linecap="round" stroke-linejoin="round"></path><path d="M104.376 20.467C104.188 20.6551 104.033 20.876 103.918 21.105C103.37 22.1519 103.509 23.5342 104.082 24.6138C104.785 25.9143 105.988 26.8631 107.165 27.771C108.253 28.6135 109.488 29.4805 110.797 29.5868C111.067 29.6113 111.329 29.595 111.599 29.5541C112.654 29.3741 113.48 28.6707 114.061 27.7628C114.527 27.084 114.862 26.2824 115.083 25.5136C115.467 24.1804 115.68 22.6836 115.042 21.4567C114.093 19.6327 111.754 19.1501 109.726 18.8639C108.572 18.7003 107.403 18.5449 106.282 18.8312C105.979 18.9048 105.685 19.0193 105.407 19.1747C104.753 19.5346 104.213 20.0908 104 20.7778C103.959 20.8841 103.935 20.9905 103.918 21.0968" stroke="black" stroke-width="1.7" stroke-linecap="round" stroke-linejoin="round"></path><path d="M55.1621 60.905C63.4559 52.2433 72.2322 44.0477 81.4584 36.3838" stroke="black" stroke-width="1.7" stroke-linecap="round" stroke-linejoin="round"></path><path d="M50.498 62.7938C51.9294 61.8941 53.5407 61.3461 55.1929 61.1089C59.1926 60.5855 63.4867 61.9596 66.1858 64.9941C70.0055 69.28 70.1691 76.3713 66.5457 80.829C65.3924 82.244 63.8711 83.43 62.1044 83.9453C60.3295 84.4442 58.3174 84.2233 56.8451 83.1273C54.8494 81.6224 54.2278 78.8169 54.6695 76.3631C54.9803 74.6373 55.7164 73.0342 56.5752 71.4965C56.9351 70.8422 57.3195 70.2042 57.704 69.5662" stroke="black" stroke-width="1.7" stroke-linecap="round" stroke-linejoin="round"></path><path d="M64.6334 33.8887C57.1331 39.1397 50.2053 45.2005 43.989 51.9156C42.5986 53.4206 41.2163 54.9992 40.0548 56.7086C38.8934 58.4017 37.9282 60.2175 37.3884 62.2051C37.0367 63.4892 36.8895 64.8633 36.9713 66.2047C37.1103 68.4458 37.8792 70.6296 39.3432 72.2246C39.7277 72.6417 40.1448 73.018 40.611 73.3369C42.9012 74.9155 45.9275 75.1364 48.643 74.5393C51.3504 73.9504 53.8614 72.6417 56.3152 71.3412" stroke="black" stroke-width="1.7" stroke-linecap="round" stroke-linejoin="round"></path><path d="M68.0371 33.9219C70.0247 35.754 72.9528 36.5065 75.5784 35.8603" stroke="black" stroke-width="1.7" stroke-linecap="round" stroke-linejoin="round"></path><path d="M64.5821 33.5537C62.4064 33.5619 60.1571 32.4004 59.3228 30.3965C58.4885 28.3926 59.56 25.6771 61.6703 25.1618C63.0035 24.8346 64.443 25.3827 65.49 26.2905C65.7599 26.5114 65.9889 26.7568 66.2179 27.0267C66.8886 27.8037 67.4203 28.7034 67.9356 29.6113" stroke="black" stroke-width="1.7" stroke-linecap="round" stroke-linejoin="round"></path><path d="M66.8242 26.797C67.2495 23.6153 68.8527 20.6053 71.241 18.4787C73.6375 16.3521 76.8192 15.1171 80.0255 15.0762" stroke="black" stroke-width="1.7" stroke-linecap="round" stroke-linejoin="round"></path><path d="M80.4931 13.866C80.1905 14.1686 80.1414 14.6021 80.2559 15.0192C80.3132 15.1992 80.3868 15.3791 80.5013 15.5345C80.853 16.0171 81.4174 16.2952 81.9736 16.5242C83.0287 16.9823 84.1084 17.3667 85.2044 17.6775C85.278 17.702 85.368 17.7184 85.4416 17.7429C86.4558 18.0128 87.7236 18.1355 88.3534 17.3176C88.9914 16.4833 88.5006 15.2973 87.7154 14.5449C87.6091 14.4385 87.4782 14.3322 87.3637 14.2422C85.5888 12.9499 81.3274 12.0747 80.5995 13.6942" stroke="black" stroke-width="1.7" stroke-linecap="round" stroke-linejoin="round"></path><path d="M87.7305 14.5117C90.3151 14.1355 92.9897 14.7489 95.239 16.0576C95.7625 16.3684 96.2532 16.7119 96.7195 17.1045C97.153 17.4481 97.5701 17.8325 97.9463 18.2496C98.6089 18.9449 99.165 19.7219 99.6067 20.5643" stroke="black" stroke-width="1.7" stroke-linecap="round" stroke-linejoin="round"></path><path d="M98.0605 18.1513C98.8785 17.8241 99.86 17.9305 100.596 18.4294C101.324 18.9447 101.586 19.9835 101.553 20.8832" stroke="black" stroke-width="1.7" stroke-linecap="round" stroke-linejoin="round"></path><path d="M96.8409 16.9668C97.6179 17.3185 99.6137 16.9913 100.006 16.2388C100.415 15.4945 100.121 14.4557 99.4092 14.0059C98.7058 13.5806 97.7652 13.7196 97.0618 14.1449C96.3665 14.5621 95.8431 15.2246 95.3359 15.8707" stroke="black" stroke-width="1.7" stroke-linecap="round" stroke-linejoin="round"></path><path d="M76.9922 26.4862C80.1085 26.7643 82.2433 26.8134 84.9506 26.2409C85.515 26.1264 86.112 25.971 86.7418 25.791" stroke="black" stroke-width="1.7" stroke-linecap="round" stroke-linejoin="round"></path><path d="M76.7853 26.6669C76.7772 26.626 76.7608 26.5933 76.7526 26.5524C76.1474 24.2868 76.9326 21.694 78.7156 20.1644C80.3597 18.7576 82.7562 18.3159 84.8174 19.003C85.03 19.0684 85.2427 19.1502 85.4472 19.2484C86.8785 19.9191 87.9255 20.7533 88.5716 21.972C88.9152 22.6018 89.136 23.3298 89.2669 24.1804" stroke="black" stroke-width="1.7" stroke-linecap="round" stroke-linejoin="round"></path><path d="M88.5168 21.9962C87.3963 21.0392 85.4905 21.2192 84.5581 22.3561C83.6502 23.4848 83.8547 25.3251 84.9507 26.2412C84.9752 26.2657 85.0079 26.2821 85.0243 26.3066" stroke="black" stroke-width="1.7" stroke-linecap="round" stroke-linejoin="round"></path><path d="M39.5309 111.584C34.9342 106.218 32.2678 99.2167 32.1451 92.1417C32.0224 85.0667 34.4353 77.9835 38.8684 72.4707" stroke="black" stroke-width="1.7" stroke-linecap="round" stroke-linejoin="round"></path><path d="M36.9041 66.2041C34.6957 67.889 32.6345 69.7212 30.7451 71.676C28.8557 73.6308 27.1381 75.7083 25.6004 77.9085C24.5862 79.3726 23.6456 80.8858 22.8031 82.4562C20.4229 86.8811 18.7789 91.715 18.0264 96.8679C17.8219 98.2011 17.6829 99.5589 17.6093 100.933C17.4457 103.738 17.552 106.642 17.9365 109.619C17.9365 109.66 17.9446 109.693 17.9446 109.734" stroke="black" stroke-width="1.7" stroke-linecap="round" stroke-linejoin="round"></path><path d="M21.9633 112.81C21.0063 111.362 19.575 110.258 17.9555 109.62C16.4259 109.015 14.741 108.819 13.1297 109.138C9.80894 109.792 7.01982 112.565 6.34095 115.877C6.03013 117.415 6.26733 119.272 7.57601 120.147C8.32032 120.646 9.28547 120.736 10.1934 120.785C15.3708 121.087 20.5646 121.063 25.7421 120.719C26.5518 120.662 27.427 120.58 28.0241 120.016C28.6621 119.419 28.7848 118.47 28.8584 117.603C29.1283 114.789 29.3819 111.959 29.6354 109.146C29.8726 106.61 30.1016 104.075 30.3388 101.539" stroke="black" stroke-width="1.7" stroke-linecap="round" stroke-linejoin="round"></path><path d="M60.7791 109.014C60.7791 109.014 60.7218 109.079 60.6973 109.112C58.9224 111.116 57.5483 113.25 56.0679 115.622C55.5771 116.416 55.1191 117.545 55.7898 118.191C56.166 118.551 56.7304 118.583 57.2538 118.6C65.6212 118.821 73.9967 119.033 82.3559 119.254C84.7115 119.319 87.6561 119.033 88.5312 116.833C89.4391 114.567 87.2962 112.22 85.0878 111.198C81.7997 109.668 77.931 109.562 74.5366 110.78C73.5305 111.132 72.5817 111.615 71.6984 112.195" stroke="black" stroke-width="1.7" stroke-linecap="round" stroke-linejoin="round"></path><path d="M74.5117 110.733C80.3926 106.079 83.6234 98.3005 82.7728 90.8574" stroke="black" stroke-width="1.7" stroke-linecap="round" stroke-linejoin="round"></path><path d="M84.7031 87.038C86.6416 87.9377 88.2447 87.8396 89.9542 86.5391" stroke="black" stroke-width="1.7" stroke-linecap="round" stroke-linejoin="round"></path><path d="M90.9873 83.7244C90.6683 84.6486 90.4393 85.6138 90.3166 86.5871C90.0794 88.133 90.0794 89.7197 90.3166 91.282C90.4638 92.2389 90.7501 93.2777 91.5516 93.8175C92.4186 94.4064 93.6292 94.2101 94.4962 93.613C95.3468 93.0159 95.9112 92.0999 96.4019 91.1838C97.3834 89.3517 98.1932 87.3723 98.324 85.2948C98.4549 83.2255 97.8251 81.0252 96.3038 79.6102C95.3223 78.6942 93.9318 78.1952 92.6231 78.2689C91.887 78.3016 91.1836 78.5061 90.5619 78.9232" stroke="black" stroke-width="1.7" stroke-linecap="round" stroke-linejoin="round"></path><path d="M92.623 77.8355C94.7333 68.7811 94.8314 59.2606 92.8766 50.1816" stroke="black" stroke-width="1.7" stroke-linecap="round" stroke-linejoin="round"></path><path d="M39.498 56.6843C39.0154 52.971 38.2138 49.2413 36.4471 45.9287C34.664 42.6325 31.8095 39.7861 28.2352 38.6737C24.9144 37.6513 21.2501 38.2075 18.1174 39.7125C15.0011 41.2175 12.392 43.6303 10.1836 46.3049C8.60499 48.227 7.23087 50.3046 6.06124 52.5048C2.61778 58.999 1.03919 66.4994 1.70989 73.8443C2.61778 83.6102 10.11 94.5867 17.6185 100.942C17.6512 100.975 17.6921 101.007 17.7248 101.04" stroke="black" stroke-width="1.7" stroke-linecap="round" stroke-linejoin="round"></path><path d="M17.9463 96.8597C11.6155 91.8377 6.12725 83.7157 4.06608 75.9046C2.00492 68.1016 2.53657 60.495 6.20087 52.5693" stroke="black" stroke-width="1.7" stroke-linecap="round" stroke-linejoin="round"></path><path d="M16.6054 44.1855C16.2619 46.6475 16.0329 49.5102 15.9429 52.5938C15.8284 57.1741 16.0247 62.2043 16.679 67.0382C17.2107 71.136 18.0777 75.0866 19.3046 78.4891C19.6481 79.4379 20.0161 80.3458 20.4251 81.1964" stroke="black" stroke-width="0.98" stroke-linecap="round" stroke-linejoin="round"></path><path d="M27.7609 43C27.4582 45.5928 27.2292 48.1774 27.1065 50.7375C26.9021 55.0889 27.0329 59.3993 27.7691 63.6361C28.2189 66.188 28.8814 68.7154 29.8139 71.2101" stroke="black" stroke-width="0.98" stroke-linecap="round" stroke-linejoin="round"></path><path d="M9.55273 53.0032C11.3767 53.0032 13.5769 52.8559 15.9407 52.5942C19.4823 52.2016 23.4165 51.5391 27.1136 50.7375C29.6737 50.1732 32.1192 49.5434 34.2295 48.8809" stroke="black" stroke-width="0.98" stroke-linecap="round" stroke-linejoin="round"></path><path d="M8.375 70.327C11.4259 69.0184 14.1659 67.9469 16.6769 67.039C20.9301 65.5095 24.5045 64.4871 27.7761 63.6365C30.3444 62.9658 32.7246 62.4096 35.1047 61.8125" stroke="black" stroke-width="0.98" stroke-linecap="round" stroke-linejoin="round"></path><path d="M109.848 41.1357C109.218 43.2623 106.412 49.6257 106.412 49.6257C106.412 49.6257 105.128 49.5194 103.599 49.4458C103.345 49.4376 103.083 49.4213 102.822 49.4131C101.145 49.3558 99.3617 49.3558 98.6992 49.593C99.1982 47.7691 99.6071 46.2232 100.098 44.3829" stroke="black" stroke-width="1.7" stroke-linecap="round" stroke-linejoin="round"></path><path d="M106.567 40.0068C106.436 40.4403 106.289 40.8738 106.141 41.291C105.127 44.0637 103.696 46.5175 102.821 49.4211C102.821 49.4293 102.812 49.4456 102.812 49.4538" stroke="black" stroke-width="1.7" stroke-linecap="round" stroke-linejoin="round"></path><path d="M105.218 18.8879V12.5899L155.226 1C154.359 35.0745 155.471 79.4794 154.62 113.562L102.715 103.747C102.788 86.5053 102.928 66.2455 103.582 49.7807" stroke="black" stroke-width="1.7" stroke-linecap="round" stroke-linejoin="round"></path><path d="M112.048 64.8223C112.163 72.4862 112.269 82.3748 112.392 90.0306L106.896 89.0163C106.789 81.3524 106.675 73.6967 106.568 66.0491L112.048 64.8223Z" stroke="black" stroke-width="1.7" stroke-linecap="round" stroke-linejoin="round"></path><path d="M126.001 92.0588C125.886 84.4113 125.78 54.8026 125.657 47.1387L116.922 49.5843C117.036 57.2318 117.143 83.1844 117.265 90.8401L126.001 92.0588Z" stroke="black" stroke-width="1.7" stroke-linecap="round" stroke-linejoin="round"></path><path d="M141.451 94.5046C141.337 86.8407 141.231 25.5294 141.108 17.8818L130.949 19.9103C131.056 27.5742 131.17 85.6301 131.276 93.294L141.443 94.5127L141.451 94.5046Z" stroke="black" stroke-width="1.7" stroke-linecap="round" stroke-linejoin="round"></path><path d="M13.0449 82.3506C15.0325 80.911 17.1182 79.6187 19.2939 78.49C20.4798 77.8683 21.6904 77.304 22.9254 76.7969" stroke="black" stroke-width="0.98" stroke-linecap="round" stroke-linejoin="round"></path><g style="mix-blend-mode:darken"><path d="M39.7811 66.0485C41.4905 68.126 44.2469 69.1321 46.9297 69.222C49.6125 69.312 52.2626 68.5841 54.79 67.6843C56.5321 67.0627 58.7078 66.4493 60.0329 67.7334C61.4969 69.1648 60.679 71.823 61.8814 73.4834C62.6911 74.6039 64.2697 74.9475 65.6193 74.653C66.9688 74.3504 68.1385 73.5243 69.21 72.6491C69.21 75.7981 68.1466 78.9389 66.2245 81.4254C64.5969 83.5438 61.9713 85.2778 59.3703 84.6562C56.843 84.0509 55.2644 81.36 55.1089 78.7672C54.9535 76.1743 55.9187 73.6552 56.9084 71.2587C52.9823 74.0314 48.222 76.477 43.5435 75.3564C40.3618 74.5958 37.6463 72.1175 36.6075 69.0176C35.7978 66.621 35.8714 63.2676 37.45 61.1982C38.6605 62.2861 38.6033 64.6417 39.7647 66.0485H39.7811Z" fill="#7D5E3E"></path></g><g style="mix-blend-mode:darken"><path d="M90.8036 76.2331C90.6891 77.6236 90.6155 79.0877 91.188 80.3636C91.7606 81.6396 93.1592 82.662 94.517 82.3184C93.7072 83.758 92.922 85.6883 94.018 86.9315C94.9914 88.0357 97.1589 87.4959 97.4942 86.0645C97.3715 88.0684 97.2079 90.195 96.022 91.8145C94.836 93.434 92.2268 94.1783 90.7954 92.7633C90.1411 92.1171 89.8712 91.1847 89.7812 90.2686C89.6421 88.8373 89.8957 87.3732 90.5091 86.0809C89.0287 87.5122 86.5586 87.774 84.8164 86.678C89.3313 76.6666 91.3271 65.5266 90.5746 54.5664C90.5091 53.6504 90.4274 52.7016 90.7136 51.8264C90.9917 50.9512 91.7279 50.1497 92.6521 50.1006C95.8747 58.746 91.5397 67.3832 90.8118 76.2249L90.8036 76.2331Z" fill="#7D5E3E"></path></g><g style="mix-blend-mode:darken"><path d="M78.4191 100.697C75.9735 105.49 73.0044 110.013 69.5855 114.176C72.5464 114.07 75.4418 113.333 78.3945 113.039C81.3391 112.745 84.4799 112.933 86.9909 114.503C87.5144 114.83 88.0379 115.264 88.2014 115.861C88.4305 116.711 87.8252 117.619 87.04 118.02C86.2548 118.421 85.3305 118.445 84.4472 118.454C74.9347 118.552 65.5122 119.345 56.0734 118.208C55.8362 115.624 58.9525 112.998 59.6641 110.675C59.7868 110.274 59.9013 109.849 60.1957 109.555C60.4984 109.252 60.9237 109.129 61.3326 109.007C64.7761 108.009 68.0478 106.438 70.9923 104.402C73.9532 102.357 76.0553 99.0935 78.8608 97.1387C79.5151 98.2674 78.9834 99.6006 78.4191 100.697Z" fill="#7D5E3E"></path></g><g style="mix-blend-mode:darken"><path d="M23.2901 114.846C22.0386 113.39 20.0265 112.621 18.1208 112.867C16.215 113.112 14.4647 114.372 13.6304 116.106C13.3523 116.678 13.1723 117.316 13.2705 117.946C13.5486 119.656 11.9945 120.629 13.704 120.4C15.4135 120.171 20.869 120.572 22.5866 120.752C23.8135 120.882 24.9259 120.032 26.1364 119.803C28.2058 119.41 29.0237 116.85 28.991 114.748C28.9583 112.646 28.5411 110.348 29.6617 108.565C31.6901 110.004 36.5077 112.057 38.9369 111.509C35.9433 107.837 32.598 98.7986 31.1176 90.1859C30.5041 86.6443 25.5066 97.8335 25.0568 100.598C24.746 102.537 22.0386 113.603 23.2819 114.846H23.2901Z" fill="#7D5E3E"></path></g><g style="mix-blend-mode:darken"><path d="M88.1125 72.5194C85.6424 82.956 80.2605 92.6729 72.5802 100.157C60.5076 111.927 40.2804 111.878 38.9962 110.986C37.8757 110.209 37.1886 108.95 36.6079 107.706C31.3077 96.3127 32.2156 82.2444 38.9471 71.636C40.902 74.2943 44.5663 75.2185 47.838 74.7605C51.1015 74.3024 54.0869 72.7075 56.9824 71.1289C55.5837 73.7544 54.774 75.1285 54.6758 78.1058C54.5695 81.4347 56.3771 83.7576 59.9514 83.913C63.8284 84.0766 65.1125 80.854 68.6541 80.216C72.7519 79.488 76.2935 83.0215 80.4895 80.9521C83.9657 79.2427 86.7957 76.1673 88.0962 72.5112L88.1125 72.5194Z" fill="#B08D6A"></path></g><g style="mix-blend-mode:darken"><path d="M53.4324 53.2068C57.4975 49.8615 75.5327 37.9281 80.5384 36.3004C82.2233 35.7524 63.8119 52.2662 58.4463 58.327C56.9332 60.0365 52.8762 63.5535 50.2016 61.9259C46.5619 59.7175 51.5267 54.7691 53.4324 53.2068Z" fill="#7D5E3E"></path></g><g style="mix-blend-mode:darken"><path d="M57.7425 50.2056C62.3229 46.934 77.0292 40.0062 81.1679 36.1947C78.8613 36.1538 73.2913 36.9553 71.0502 36.4073C68.4001 35.7612 66.6252 34.2726 64.6704 32.5713C64.5395 34.3462 65.063 35.7775 65.3165 37.577C65.7827 40.8732 61.8731 46.9912 57.7344 50.2056H57.7425Z" fill="#7D5E3E"></path></g><g style="mix-blend-mode:darken"><path d="M4.15985 59.8899C5.23133 62.5972 9.0265 64.8955 11.9301 65.1C14.8338 65.3127 17.6883 64.3966 20.4038 63.3578C27.258 60.7487 34.2758 56.8472 37.253 50.1484C37.9565 51.7107 38.4963 53.3465 38.8725 55.0151C39.0116 55.6285 39.1261 56.2583 39.0116 56.8717C38.8562 57.6815 38.3327 58.3522 37.9156 59.0638C36.5496 61.3785 36.3697 64.3557 37.4412 66.8176C29.6218 71.4798 23.4301 78.8329 20.1666 87.3311C19.6922 88.558 19.2751 89.8175 19.0133 91.1099C18.8579 91.8869 19.0624 93.8908 18.678 94.4879C17.5656 96.2055 16.077 94.6351 14.8092 93.4573C11.8402 90.6927 9.57451 87.3965 7.77508 83.7649C6.00018 80.1743 3.99627 75.8638 3.50551 71.8969C3.26014 69.9176 3.0802 66.3269 4.15168 59.898L4.15985 59.8899Z" fill="#5C4B3B"></path></g><g style="mix-blend-mode:darken"><path d="M103.122 27.942C103.261 27.713 103.416 27.4676 103.67 27.394C103.891 27.3367 104.12 27.4349 104.324 27.5248C107.473 28.8826 111.08 29.1362 114.385 28.2283C114.434 30.4775 114.237 32.7268 113.796 34.927C113.493 36.4238 113.06 37.9533 112.07 39.123C111.08 40.2926 109.42 41.0042 107.98 40.4889C107.62 40.358 107.277 40.1535 106.901 40.1208C106.115 40.0554 105.477 40.6934 104.905 41.225C101.339 44.5049 90.1087 45.9935 89.2744 39.0739C88.62 33.6429 100.357 32.3751 103.122 27.942Z" fill="#B08D6A"></path></g><path d="M84.5941 24.3034C85.344 24.3034 85.9518 23.6955 85.9518 22.9456C85.9518 22.1958 85.344 21.5879 84.5941 21.5879C83.8442 21.5879 83.2363 22.1958 83.2363 22.9456C83.2363 23.6955 83.8442 24.3034 84.5941 24.3034Z" fill="white"></path><g style="mix-blend-mode:darken"><path d="M39.3725 110.666C39.7242 111.059 40.1005 111.451 40.5585 111.713C41.1392 112.048 41.8263 112.147 42.4888 112.212C50.7089 113.03 58.5774 109.055 65.7342 104.924C69.8892 102.528 74.2242 99.7715 76.1873 95.3956C72.9237 97.2441 69.1367 97.9475 65.407 98.3238C57.7022 99.1008 49.6702 98.4955 42.407 95.6819C40.6076 94.9867 38.8572 94.1524 37.1968 93.1709C36.4362 92.721 33.2872 89.8256 32.5919 89.9564C30.8988 90.2918 32.5919 97.1787 32.8782 98.3483C34.0069 102.896 36.2399 107.174 39.3725 110.658V110.666Z" fill="#947758"></path></g><path d="M19.5451 108.122C19.4714 102.421 19.815 96.6714 21.3118 91.1504C22.7022 85.9975 25.1478 81.1964 28.5586 77.0822C30.6688 74.5303 33.0899 72.2565 35.6745 70.1872C36.2143 69.7618 35.4537 69.0093 34.922 69.4347C30.3907 73.0662 26.3829 77.3767 23.602 82.505C21.0419 87.2326 19.6187 92.4509 18.9643 97.7674C18.539 101.203 18.4327 104.662 18.4818 108.122C18.4899 108.809 19.5614 108.809 19.5451 108.122Z" fill="#C99864"></path><path d="M65.0958 34.9277C57.3746 40.2196 50.136 46.4767 43.8707 53.429C42.5947 54.844 41.2288 56.2917 40.2554 57.9439C39.2085 59.7188 38.4724 61.7145 37.9734 63.7184C37.4745 65.7223 37.6381 67.3909 38.4969 69.1985C39.2903 70.8752 40.599 72.4947 42.3003 73.3044C46.6516 75.3901 52.1562 73.1409 56.0005 70.957C56.5976 70.6217 56.0577 69.6974 55.4606 70.0328C52.0499 71.9712 47.3796 73.967 43.4126 72.6092C41.5641 71.9794 40.2309 70.3763 39.4212 68.6587C38.5378 66.7856 38.6769 65.068 39.233 63.1295C39.7892 61.1911 40.5499 59.2689 41.7114 57.6331C42.7583 56.1608 44.0261 54.8195 45.2448 53.4944C48.0666 50.4272 51.0848 47.54 54.2174 44.7918C57.849 41.6019 61.6442 38.5837 65.6274 35.8519C66.1918 35.4675 65.6602 34.5432 65.0876 34.9277H65.0958Z" fill="#C99864"></path><path d="M58.5523 69.9019C56.5729 73.2063 52.7614 79.9542 57.718 82.4979C60.3844 83.8638 63.5743 83.0296 65.5619 80.8866C67.3286 78.9808 68.1629 76.3962 68.5964 73.8852C68.7109 73.2145 67.6803 72.9282 67.5658 73.5989C67.0014 76.9033 65.5374 80.9766 61.9058 81.9335C59.8364 82.4734 57.17 81.7372 56.4666 79.5534C56.0004 78.1057 56.6302 76.4044 57.1046 75.0385C57.6771 73.4026 58.5768 71.914 59.4684 70.4418C59.8201 69.8529 58.904 69.313 58.5441 69.9019H58.5523Z" fill="#C99864"></path><path d="M61.284 29.4057C61.194 29.2339 61.1204 28.9395 61.1204 28.7432C61.1204 28.6696 61.1204 28.596 61.1204 28.5305C61.1204 28.4978 61.1204 28.4569 61.1286 28.4242C61.1204 28.4733 61.1286 28.4733 61.1286 28.4078C61.1531 28.2852 61.1777 28.1625 61.2186 28.0398C61.2186 28.0234 61.2922 27.8435 61.2595 27.9171C61.2922 27.8517 61.3249 27.7862 61.3576 27.7208C61.3903 27.6554 61.4312 27.5981 61.4721 27.5327C61.4885 27.5 61.513 27.4754 61.5376 27.4427C61.513 27.4836 61.513 27.4754 61.5539 27.4263C61.603 27.3691 61.6521 27.32 61.7012 27.2709C61.7175 27.2546 61.8566 27.1319 61.7993 27.181C61.9056 27.0992 62.0201 27.0256 62.1428 26.9683C62.3064 26.8865 62.56 26.8374 62.789 26.8374C62.8626 26.8374 62.9362 26.8374 63.0017 26.8456C63.0671 26.8456 63.0753 26.8456 63.018 26.8456C63.0507 26.8456 63.0916 26.8538 63.1243 26.862C63.2552 26.8865 63.3861 26.9274 63.5169 26.9765C63.5497 26.9928 63.5497 26.9928 63.5169 26.9765C63.5497 26.9928 63.5824 27.0092 63.6151 27.0256C63.6805 27.0583 63.746 27.091 63.8032 27.1319C63.8605 27.1728 63.9259 27.2055 63.9832 27.2546C63.9177 27.2055 64.0731 27.3282 64.0813 27.3445C64.1304 27.3936 64.1876 27.4427 64.2367 27.5C64.2613 27.5245 64.2858 27.5572 64.3103 27.5817C64.2858 27.5408 64.2858 27.549 64.3267 27.5981C64.3676 27.6554 64.4085 27.7208 64.4412 27.778C64.4494 27.7944 64.5312 27.9662 64.5066 27.8926C64.613 28.1625 64.8583 28.3506 65.161 28.2688C65.4145 28.2034 65.6435 27.8844 65.5372 27.6145C65.071 26.4857 63.9259 25.7251 62.6908 25.7823C61.4558 25.8396 60.4415 26.7475 60.1471 27.9416C59.9835 28.6205 60.0489 29.3239 60.3679 29.9537C60.4988 30.2073 60.8587 30.2809 61.0959 30.1418C61.3576 29.9864 61.4149 29.6674 61.284 29.4139V29.4057Z" fill="#C99864"></path><path d="M68.571 26.8873C69.5934 21.6117 74.2555 17.3095 79.6375 16.8269C80.3164 16.7697 80.3245 15.6982 79.6375 15.7636C73.8057 16.2871 68.6609 20.8429 67.5486 26.6092C67.4177 27.2799 68.4483 27.5662 68.5791 26.8955L68.571 26.8873Z" fill="#C99864"></path><path d="M90.6982 16.2862C93.062 16.6624 95.1477 18.1347 96.2682 20.2613C96.5872 20.8665 97.5115 20.3267 97.1925 19.7215C95.9574 17.3822 93.6018 15.6727 90.9844 15.2556C90.6982 15.2065 90.4119 15.3292 90.3301 15.6319C90.2565 15.8854 90.4201 16.2453 90.7063 16.2862H90.6982Z" fill="#C99864"></path><path d="M91.7191 51.7598C93.6331 60.3153 92.6761 68.7399 90.8112 77.2053C90.664 77.876 91.6946 78.1623 91.8418 77.4916C92.7333 73.4511 93.5185 69.3778 93.8048 65.2392C94.1238 60.6179 93.7721 55.9967 92.7579 51.4818C92.6107 50.8111 91.5801 51.0973 91.7273 51.768L91.7191 51.7598Z" fill="#C99864"></path><path d="M95.5295 81.075C97.0672 84.8456 95.9957 89.3687 92.9203 92.0351C92.3968 92.485 93.1575 93.2375 93.6728 92.7876C97.0099 89.8922 98.2204 84.8783 96.5601 80.7887C96.3065 80.1589 95.2759 80.437 95.5295 81.075Z" fill="#C99864"></path><path d="M8.49487 118.503C8.47033 115.362 10.7605 112.385 13.8605 111.731C16.9604 111.076 20.1094 112.851 21.4017 115.624C21.688 116.245 22.6122 115.706 22.326 115.084C20.8292 111.87 17.0585 109.972 13.5824 110.7C10.1062 111.428 7.40703 114.912 7.43975 118.495C7.43975 119.182 8.51123 119.182 8.50305 118.495L8.49487 118.503Z" fill="#C99864"></path><path d="M80.5047 94.7173C81.02 100.778 77.3803 106.757 72.1865 109.726C71.0577 110.372 70.1007 110.724 69.3401 111.82C68.882 112.474 68.3586 113.57 69.291 114.061C70.2234 114.552 71.8184 114.061 72.7917 113.84C74.2231 113.513 75.6299 113.08 77.0367 112.671C77.8219 112.442 78.6153 112.172 79.4414 112.172C80.5129 112.172 81.5353 112.564 82.5414 112.883C84.3817 113.464 86.8273 114.233 86.9336 116.548C86.9663 117.235 88.0296 117.235 87.9969 116.548C87.8415 113.186 84.1772 112.204 81.5108 111.444C78.5499 110.601 75.7608 112.024 72.9062 112.72C72.2192 112.891 71.5158 113.047 70.8042 113.129C70.6079 113.153 70.1989 113.251 70.0108 113.17C69.7899 113.071 69.8717 113.423 69.8636 113.047C69.8636 112.9 70.0598 112.662 70.1253 112.548C70.9023 111.313 72.301 110.945 73.4788 110.184C75.998 108.557 78.1 106.299 79.5314 103.665C80.9628 101.032 81.8216 97.8254 81.5598 94.7173C81.5026 94.0384 80.4311 94.0303 80.4966 94.7173H80.5047Z" fill="#C99864"></path><path d="M51.3054 64.3654C54.6834 62.4188 59.2229 62.0425 62.7072 63.9728C65.7908 65.6823 67.3203 69.1012 67.353 72.5282C67.353 73.2153 68.4245 73.2153 68.4163 72.5282C68.3755 68.7413 66.6496 64.9461 63.2389 63.0567C59.4274 60.9465 54.4707 61.3146 50.7656 63.4493C50.1685 63.7929 50.7083 64.7171 51.3054 64.3736V64.3654Z" fill="#C99864"></path><path d="M28.4934 101.523C28.5097 107.543 27.7981 113.53 26.375 119.386C26.2114 120.057 27.242 120.335 27.4055 119.672C28.8533 113.734 29.573 107.641 29.5649 101.531C29.5649 100.844 28.4934 100.844 28.5016 101.531L28.4934 101.523Z" fill="#C99864"></path><path d="M57.0797 117.479C58.5274 114.846 60.1714 112.318 62.0117 109.946C62.1917 109.717 62.2326 109.415 62.0117 109.194C61.8318 109.006 61.431 108.965 61.2593 109.194C59.3535 111.639 57.644 114.224 56.1554 116.94C55.8282 117.545 56.7443 118.085 57.0797 117.479Z" fill="#C99864"></path><path d="M106.721 95.1592L143.151 101.817" stroke="black" stroke-width="1.3" stroke-linecap="round" stroke-linejoin="round"></path><path d="M157.888 115.288C156.694 114.625 156.546 113.979 155.352 113.316C155.221 102.929 155.434 14.5771 155.352 6.23428C155.32 2.71722 153.471 1.82569 158.452 1.72754C157.176 8.25454 156.661 51.2771 156.759 65.4108C156.816 73.3528 157.814 107.346 157.888 115.288Z" fill="black"></path></svg> 