<?xml version="1.0" encoding="UTF-8"?> <svg xmlns="http://www.w3.org/2000/svg" width="158" height="142" viewBox="0 0 158 142" fill="none"><path d="M101.726 21.0638C103.363 24.1238 103.501 27.4056 103.039 30.216C102.799 31.6212 102.42 32.9247 102.004 33.9971L101.865 33.9416C101.578 34.1358 101.282 34.3207 100.987 34.5056C94.7927 38.2035 87.665 38.5825 82.6821 37.9631C81.8223 37.1773 80.7315 36.6319 79.5666 36.4654C78.0967 36.2621 76.5713 36.6781 75.3695 37.5656L75.3418 37.5378C78.1707 33.1374 78.1984 27.4519 75.915 22.8665L76.3217 22.6446C78.7161 16.6725 83.2553 14.3244 88.1457 13.8714C89.9577 13.705 91.7789 13.9084 93.4984 14.4168C94.8204 14.8236 96.0962 15.4152 97.2425 16.1826C98.6385 17.0978 99.868 18.2534 100.839 19.6401C101.172 20.1208 101.467 20.5923 101.735 21.0823L101.726 21.0638ZM87.7297 32.6289C90.0686 32.5457 91.9176 30.5766 91.8344 28.2284C91.7604 25.8803 89.8005 24.0406 87.4524 24.1238C85.1042 24.1977 83.2645 26.1576 83.3385 28.5058C83.4217 30.8539 85.3908 32.6936 87.739 32.6196L87.7297 32.6289Z" fill="white"></path><path d="M75.9067 22.8479C78.1993 27.4333 78.1624 33.1188 75.3335 37.5193L75.3612 37.547C74.8343 37.9076 74.3813 38.3698 74.03 38.8967H73.6509C72.4029 38.037 70.6926 37.7504 69.3337 38.4068C68.9546 38.6009 68.6033 38.8598 68.3168 39.1926L68.2705 39.1464C63.7036 39.9137 55.4481 39.6918 50.3358 38.1664L50.1417 38.3051C49.9383 38.0185 49.7441 37.7227 49.5685 37.4268C46.3883 32.0834 47.1279 24.8078 51.0106 20.0098C51.5746 19.3072 52.2032 18.6601 52.9058 18.0777C58.3879 13.5385 67.1981 13.6772 72.5231 18.4105C73.9375 19.6585 75.0746 21.1839 75.9067 22.8479ZM61.1059 34.4685C63.454 34.3946 65.2937 32.4347 65.2198 30.0865C65.1366 27.7384 63.1675 25.8987 60.8193 25.9726C58.4711 26.0558 56.6314 28.025 56.7146 30.3731C56.7886 32.7213 58.7485 34.561 61.0966 34.4778L61.1059 34.4685Z" fill="white"></path><path d="M116.483 53.2916C117.87 53.1344 119.248 53.0697 120.644 53.079C122.382 53.1067 124.157 53.2546 125.756 53.9295C127.365 54.5951 128.797 55.8524 129.343 57.5072C129.759 58.7922 129.537 60.3083 128.714 61.353L128.825 61.4269C130.48 61.5379 132.107 61.9354 133.605 62.6288L134.418 62.8506C135.149 60.2898 136.119 57.7845 137.312 55.3994L137.423 55.0851C136.924 54.6413 136.526 54.0682 136.221 53.4765C135.176 51.4057 135.149 48.9004 135.981 46.7463L135.703 46.6354C133.817 44.4537 135.287 40.8297 137.728 39.2951C141.638 36.8268 147.093 38.0656 150.486 41.2272C153.869 44.3704 155.524 48.9836 156.337 53.5412C158.27 64.4315 155.931 76.0243 149.94 85.3153L149.801 85.4817C145.382 93.0346 121.281 99.6816 105.871 96.6031L105.159 96.4921C103.236 109.222 98.2714 121.527 90.6076 131.872C90.1453 132.519 89.6553 133.147 89.1654 133.767L88.8233 134.016C85.3935 135.57 81.4553 136.032 77.7482 135.329H77.7204L77.554 135.154C77.064 131.973 76.195 128.839 74.9932 125.844L74.9562 124.994C74.6789 125.003 74.4108 125.021 74.1335 125.021L74.041 122.359C80.0131 122.072 85.9112 119.733 90.2747 115.638C97.9848 108.381 100.546 96.372 97.0604 86.3784C94.4996 79.0566 89.1931 73.0845 83.9976 67.3158C81.7049 64.7643 79.4214 62.2127 77.1288 59.6797L76.4631 59.7629L75.5017 56.3701C75.4647 56.3239 75.4185 56.2776 75.3815 56.2314L75.5202 56.1112C77.4431 52.4781 85.5414 50.2131 90.5059 47.5784C95.4795 44.9436 99.8615 40.765 101.581 35.4216L101.008 34.5063C101.304 34.3307 101.6 34.1366 101.886 33.9424L102.025 33.9979C102.441 32.9255 102.82 31.622 103.06 30.2168L103.19 30.2445C103.236 38.3614 99.6859 45.979 93.5936 51.341L93.6306 51.4981C102.644 49.4273 111.306 49.982 112.776 50.2593C114.302 50.5459 115.79 51.4242 116.447 52.8201L116.502 53.3008L116.483 53.2916Z" fill="#8676B5"></path><path d="M101.876 13.789C102.569 13.4747 103.401 13.4469 104.085 13.7982C105.416 14.4731 105.98 16.2203 105.564 17.6625C105.158 19.1047 103.956 20.2141 102.588 20.8242L101.737 21.0646C101.478 20.5746 101.173 20.1031 100.84 19.6224C99.8604 18.2357 98.6308 17.0801 97.2441 16.1649L100.554 15.3421C100.674 14.6302 101.21 14.0663 101.876 13.789Z" fill="#8676B5"></path><path d="M102.458 8.59311C103.457 10.174 103.151 12.4204 101.876 13.7886C101.21 14.066 100.674 14.6207 100.554 15.3418L97.2441 16.1645C96.0978 15.3972 94.822 14.8056 93.5 14.3988L96.3011 12.4944C95.6725 11.7271 95.4691 10.7194 95.6355 9.73946C95.8019 8.75027 96.3659 7.80731 97.2164 7.28036C98.9174 6.23571 101.404 6.90133 102.458 8.59311Z" fill="#8676B5"></path><path d="M101.165 35.1987C97.55 41.9936 89.766 44.4619 84.7831 42.1045H84.4965C84.4872 41.4943 84.3855 40.8749 84.2006 40.3018C83.8863 39.405 83.3501 38.6007 82.666 37.9536C87.6489 38.573 94.7766 38.194 100.971 34.4961L101.544 35.4113L101.165 35.1987Z" fill="#8676B5"></path><path d="M83.5165 46.6069C84.1266 45.2942 84.5611 43.6671 84.5056 42.114H84.7922C89.7751 44.4622 97.5592 41.9938 101.174 35.199L101.553 35.4116C99.8334 40.755 95.4514 44.9336 90.4777 47.5684C85.5226 50.2031 77.415 52.4681 75.4921 56.1012L75.3534 56.2214C71.7202 51.7562 65.7019 50.1107 60.1366 48.5483C54.4973 46.9767 48.4328 44.8504 45.4005 39.8583C43.5516 36.8168 43.1263 33.0172 43.9953 29.5874C44.8736 26.1391 46.7502 22.7371 50.8826 19.9082L51.0121 20.0191C47.1293 24.8079 46.3897 32.0927 49.5699 37.4362C49.7455 37.732 49.9397 38.0278 50.1431 38.3144C54.0443 43.8058 61.8931 46.2279 68.1795 43.6856L68.6325 43.3435C69.2057 43.7133 69.9175 43.8705 70.5554 43.7226L70.7125 44.3697C70.6663 44.4991 70.6386 44.6193 70.6201 44.7487C70.2503 46.7641 71.3504 49.0198 73.2456 49.8426C75.3904 50.7763 78.1823 49.7316 79.1807 47.6238V46.8565C80.8632 46.9952 82.4718 46.8658 83.3963 46.5422L83.5257 46.5977L83.5165 46.6069Z" fill="#C0ADD3"></path><path d="M97.0329 86.3774C100.527 96.3802 97.9666 108.38 90.2473 115.637C85.8838 119.742 79.9857 122.071 74.0136 122.358C69.4374 122.561 64.8243 121.563 60.8769 119.215C58.1959 117.615 55.82 115.461 54.2484 112.762C51.8263 108.611 51.4842 103.526 52.1036 98.7561C53.102 91.009 56.4394 83.6872 60.8676 77.2437C65.2866 70.7909 70.7687 65.1423 76.4357 59.7619L77.1013 59.6787C79.394 62.221 81.6774 64.7725 83.9701 67.3148C89.1657 73.0835 94.4721 79.0556 97.0329 86.3774Z" fill="#C0ADD3"></path><path d="M74.5761 4.74718C75.1955 3.43443 76.1939 2.26959 77.5344 1.72416C79.0228 1.10476 80.955 1.44682 81.8887 2.76881C82.4988 3.63781 82.582 4.85811 82.1013 5.79183C81.7777 6.4482 81.1953 6.95666 80.5297 7.20627C85.9933 6.89195 90.8653 7.65926 95.4877 9.71159L95.6263 9.73932C95.4599 10.7193 95.6633 11.7269 96.2919 12.4942L93.4908 14.3987C91.7713 13.8902 89.9501 13.6868 88.1381 13.8532C83.2476 14.3062 78.7085 16.6544 76.3141 22.6264L75.9073 22.8483C75.0753 21.1935 73.9382 19.6681 72.5238 18.4109C67.1988 13.6776 58.3886 13.5389 52.9065 18.0781C52.2039 18.6605 51.5753 19.3076 51.0113 20.0102L50.8819 19.8993C46.7495 22.7281 44.8729 26.1302 43.9946 29.5785C43.1256 33.0083 43.5509 36.8171 45.3998 39.8493C48.4228 44.8415 54.4966 46.9678 60.1359 48.5394C65.7012 50.1017 71.7195 51.7473 75.3527 56.2125C75.3897 56.2587 75.4359 56.3049 75.4728 56.3512L76.4343 59.744C70.7765 65.1336 65.2852 70.7821 60.8662 77.2257C56.4472 83.6785 53.1099 90.9911 52.1022 98.7382C51.4828 103.508 51.8249 108.593 54.247 112.744C55.8186 115.434 58.1945 117.597 60.8755 119.197C64.8229 121.545 69.436 122.543 74.0122 122.34L74.1046 125.002C67.6703 125.243 61.236 125.178 54.7924 124.836V124.975C52.7771 127.619 51.4274 130.771 50.8912 134.044L50.7525 134.118H50.7433C50.7433 134.118 50.7155 134.062 50.7063 134.025L50.2903 133.887C47.3597 135.079 43.8374 134.626 41.3044 132.768C41.2489 132.611 41.1842 132.481 41.1287 132.343C37.5048 123.893 34.565 115.129 32.3463 106.199L31.8008 106.328C30.9226 106.809 29.8317 106.707 28.9257 106.3C28.0197 105.884 27.2802 105.2 26.6053 104.479C25.2094 103.009 24.0168 101.364 23.0553 99.6071L22.7133 99.8013C15.9184 94.9478 9.27147 89.5304 5.03739 82.3288C0.803316 75.1272 -0.611122 65.7808 3.29939 58.422C5.93413 53.4483 10.6212 49.8983 15.4932 47.0972C23.7025 42.3639 28.7686 41.273 38.1612 40.0527L38.3276 39.9603C36.1366 33.6277 35.6189 26.7311 36.9224 20.1581L36.9594 19.9455C35.961 19.7329 35.0272 19.1689 34.4356 18.3369C33.2338 16.6359 33.6128 14.0104 35.2584 12.7069C35.924 12.1707 36.7837 11.8933 37.6527 11.8748V11.7639C35.6466 10.7378 35.1659 7.74246 36.5434 5.96748C37.9301 4.20174 40.7127 3.85969 42.6356 5.02452C44.5585 6.18935 45.5292 8.60222 45.2611 10.8302L45.5939 11.237C52.2594 8.42657 59.4703 6.94742 66.6996 6.94742L66.9585 6.67008C66.4685 5.83805 66.2836 4.82114 66.5147 3.87817C66.977 2.07546 68.8999 0.818175 70.7303 1.02156C72.5793 1.2157 74.1509 2.80579 74.4005 4.64549L74.5761 4.72869V4.74718Z" fill="#8676B5"></path><path d="M90.2638 138.834C90.4302 139.499 90.4765 140.183 90.4025 140.858C86.1499 139.656 81.6755 137.354 77.7188 135.376V135.339C81.4259 136.042 85.3549 135.579 88.7939 134.026L89.136 133.777C89.6259 133.157 90.1159 132.529 90.5781 131.882L90.6151 131.909C92.085 131.715 93.6289 132.27 94.6366 133.352C95.6535 134.433 96.088 136.014 95.7922 137.465L95.5056 137.678C95.5056 137.678 95.5795 137.761 95.598 137.798C95.8106 138.131 96.0048 138.593 95.7274 138.898C95.5518 139.102 95.2282 139.092 94.9416 139.065C93.5827 138.945 92.2144 138.815 90.8555 138.695L90.2638 138.834Z" fill="#F9AF1C"></path><path d="M91.8354 28.228C91.9186 30.5762 90.0697 32.5453 87.7308 32.6285C85.3826 32.7024 83.4135 30.8627 83.3303 28.5146C83.2563 26.1664 85.096 24.1973 87.4442 24.1326C89.7923 24.0494 91.7615 25.8891 91.8262 28.2373L91.8354 28.228Z" fill="#1A1A1A"></path><path d="M70.7017 44.3689L70.5445 43.7217C69.9159 43.8604 69.1948 43.7125 68.6216 43.3427C68.1964 43.0839 67.8358 42.6863 67.6602 42.2148C67.2811 41.1979 67.6047 40.0239 68.3165 39.2011C68.6031 38.8683 68.9452 38.6094 69.3335 38.4153C70.6924 37.7589 72.3935 38.0455 73.6507 38.9145H74.0298C74.3903 38.3783 74.8433 37.9161 75.361 37.5555C76.5628 36.6773 78.0882 36.252 79.5581 36.4554C80.7137 36.6218 81.8138 37.1672 82.6736 37.953C83.3669 38.6002 83.9031 39.4045 84.2082 40.3012C84.4023 40.8744 84.4948 41.4938 84.504 42.1132C84.5595 43.6663 84.125 45.2933 83.5148 46.6061L83.3854 46.5506C82.4517 46.8742 80.8431 47.0036 79.1513 46.8649C77.173 46.6985 75.0837 46.1531 73.8356 45.09L70.6092 44.7571C70.637 44.6277 70.6555 44.5075 70.7017 44.3781V44.3689Z" fill="#F9AF1C"></path><path d="M79.1518 46.8568V47.6241C78.1626 49.7319 75.3707 50.7673 73.226 49.8429C71.3308 49.0201 70.2307 46.7644 70.6005 44.749L73.8269 45.0818C75.0749 46.145 77.1642 46.6904 79.1426 46.8568H79.1518Z" fill="#F9AF1C"></path><path d="M68.632 43.3436L68.179 43.6856C61.9018 46.2279 54.0438 43.8058 50.1426 38.3144L50.3367 38.1758C55.449 39.7012 63.7138 39.9138 68.2715 39.1557L68.3177 39.2019C67.6058 40.0247 67.2823 41.208 67.6613 42.2157C67.837 42.6964 68.1975 43.0847 68.6228 43.3436H68.632Z" fill="#8676B5"></path><path d="M65.2213 30.0872C65.2952 32.4354 63.4555 34.4045 61.1074 34.4692C58.7592 34.5524 56.7901 32.7127 56.7254 30.3645C56.6422 28.0164 58.4819 26.0473 60.83 25.9641C63.1782 25.8901 65.1473 27.7298 65.2305 30.078L65.2213 30.0872Z" fill="#1A1A1A"></path><path d="M40.214 137.437H40.177C39.0492 137.52 35.7303 137.511 33.3359 137.151C35.342 135.801 38.402 134.007 40.3896 132.667L41.1292 132.353C41.1847 132.491 41.2494 132.63 41.3049 132.769C43.8472 134.636 47.3602 135.089 50.2907 133.896L50.7067 134.035C50.7067 134.035 50.7345 134.091 50.7437 134.128H50.753C51.4001 135.542 52.038 136.975 52.6851 138.399C52.9347 138.935 53.0087 139.795 52.4263 139.878C52.2506 139.915 52.0657 139.832 51.8993 139.748L46.8609 137.391C44.8826 138.861 42.6269 139.961 40.2602 140.654C40.1308 139.582 40.1215 138.5 40.214 137.428V137.437Z" fill="#F9AF1C"></path><path d="M82.625 37.9531H82.6712C87.6541 38.5725 94.7818 38.1935 100.976 34.4956C101.272 34.3199 101.567 34.1258 101.854 33.9316" stroke="black" stroke-width="1.59" stroke-linecap="round" stroke-linejoin="round"></path><path d="M101.898 34.2734C101.935 34.1902 101.972 34.0978 102.009 33.9961C102.425 32.9237 102.804 31.6202 103.045 30.215C103.507 27.4046 103.368 24.1227 101.732 21.0627C101.473 20.5727 101.168 20.1013 100.835 19.6205C99.8554 18.2338 98.6259 17.0782 97.2391 16.163C96.0928 15.3957 94.817 14.804 93.495 14.3973C91.7755 13.8888 89.9543 13.6854 88.1423 13.8518C83.2519 14.3048 78.7127 16.653 76.3184 22.6251" stroke="black" stroke-width="1.59" stroke-linecap="round" stroke-linejoin="round"></path><path d="M75.3374 37.5183C78.1663 33.1178 78.194 27.4323 75.9106 22.847C75.0785 21.1921 73.9414 19.6668 72.527 18.4095C67.202 13.6762 58.3918 13.5375 52.9097 18.0767C52.2071 18.6591 51.5785 19.3062 51.0146 20.0088C47.1318 24.7976 46.3922 32.0824 49.5724 37.4259C49.748 37.7217 49.9422 38.0175 50.1456 38.3041C54.0468 43.7955 61.8956 46.2176 68.182 43.6753" stroke="black" stroke-width="1.59" stroke-linecap="round" stroke-linejoin="round"></path><path d="M50.332 38.165C55.4444 39.6904 63.7091 39.903 68.2668 39.145" stroke="black" stroke-width="1.59" stroke-linecap="round" stroke-linejoin="round"></path><path d="M71.4101 43.3057C71.1605 43.5184 70.8647 43.6478 70.5504 43.7218C69.9217 43.8604 69.2007 43.7125 68.6275 43.3427C68.2022 43.0839 67.8417 42.6863 67.666 42.2149C67.287 41.1979 67.6106 40.0239 68.3224 39.2011C68.609 38.8683 68.951 38.6094 69.3393 38.4153C70.6983 37.7589 72.3993 38.0455 73.6566 38.9145" stroke="black" stroke-width="1.59" stroke-linecap="round" stroke-linejoin="round"></path><path d="M74.0332 38.8974C74.3937 38.3705 74.8467 37.9082 75.3644 37.5477C76.5663 36.6695 78.0916 36.2442 79.5615 36.4476C80.7171 36.614 81.8173 37.1594 82.677 37.9452C83.3704 38.5924 83.9065 39.3966 84.2116 40.2934C84.4058 40.8666 84.4982 41.4859 84.5075 42.1053C84.5629 43.6585 84.1284 45.2855 83.5183 46.5983C83.509 46.6075 83.509 46.6353 83.4905 46.6445" stroke="black" stroke-width="1.59" stroke-linecap="round" stroke-linejoin="round"></path><path d="M73.8398 45.082C75.0879 46.1452 77.1772 46.6906 79.1556 46.857C80.8473 46.9957 82.4559 46.8663 83.3896 46.5427" stroke="black" stroke-width="1.59" stroke-linecap="round" stroke-linejoin="round"></path><path d="M70.8268 43.9805C70.7805 44.1006 70.7343 44.2301 70.7066 44.3595C70.6604 44.4889 70.6326 44.6091 70.6141 44.7385C70.2444 46.7539 71.3445 49.0096 73.2396 49.8324C75.3844 50.7661 78.1763 49.7214 79.1747 47.6136" stroke="black" stroke-width="1.59" stroke-linecap="round" stroke-linejoin="round"></path><path d="M102.581 20.8228C103.949 20.2127 105.151 19.1033 105.558 17.6612C105.974 16.219 105.419 14.481 104.078 13.7969C103.403 13.4363 102.562 13.4733 101.869 13.7876C101.203 14.065 100.667 14.6196 100.547 15.3407" stroke="black" stroke-width="1.59" stroke-linecap="round" stroke-linejoin="round"></path><path d="M101.613 14.0451C101.705 13.9619 101.789 13.8787 101.872 13.7955C103.148 12.4273 103.453 10.1808 102.454 8.59995C101.391 6.90817 98.9136 6.24255 97.2126 7.2872C96.3528 7.81415 95.7981 8.75711 95.6317 9.74629C95.4653 10.7262 95.6687 11.7339 96.2973 12.5012" stroke="black" stroke-width="1.59" stroke-linecap="round" stroke-linejoin="round"></path><path d="M95.4824 9.71093C90.8601 7.65861 85.9788 6.90054 80.5245 7.20562C80.2101 7.21486 79.8958 7.24259 79.5723 7.26108" stroke="black" stroke-width="1.59" stroke-linecap="round" stroke-linejoin="round"></path><path d="M79.552 7.43644C79.8849 7.42719 80.2177 7.35324 80.532 7.21457C81.1976 6.96496 81.78 6.44726 82.1036 5.80013C82.5843 4.85717 82.5011 3.64611 81.891 2.7771C80.9572 1.45511 79.0343 1.10381 77.5367 1.73245C76.2055 2.27789 75.1978 3.45197 74.5784 4.75547C74.5044 4.89414 74.4397 5.04206 74.375 5.19922" stroke="black" stroke-width="1.59" stroke-linecap="round" stroke-linejoin="round"></path><path d="M74.4046 4.66293C74.155 2.82324 72.5834 1.23315 70.7345 1.03901C68.8948 0.835623 66.9811 2.10215 66.5189 3.89562C66.2785 4.83858 66.4727 5.84626 66.9626 6.68753C67.4156 7.45484 68.109 8.05574 68.9502 8.30535" stroke="black" stroke-width="1.59" stroke-linecap="round" stroke-linejoin="round"></path><path d="M66.769 6.96582H66.6858C59.4471 6.96582 52.2363 8.44497 45.5801 11.2554" stroke="black" stroke-width="1.59" stroke-linecap="round" stroke-linejoin="round"></path><path d="M45.2477 10.8472C45.525 8.61923 44.5451 6.20636 42.6222 5.04153C40.6993 3.87669 37.9166 4.21875 36.5299 5.98449C35.1432 7.75947 35.6332 10.7548 37.6393 11.7809" stroke="black" stroke-width="1.59" stroke-linecap="round" stroke-linejoin="round"></path><path d="M40.8897 13.2429C40.0947 12.3277 38.8559 11.8562 37.6356 11.884C36.7666 11.9117 35.9068 12.1798 35.2412 12.716C33.5956 14.0195 33.2166 16.6358 34.4184 18.346C35.0101 19.178 35.9438 19.742 36.9422 19.9546C37.9776 20.1672 39.0962 20.0286 39.993 19.4554" stroke="black" stroke-width="1.59" stroke-linecap="round" stroke-linejoin="round"></path><path d="M36.9176 20.166C35.6141 26.7298 36.1318 33.6356 38.3228 39.9682C38.9514 41.7894 39.728 43.5829 40.6432 45.2839" stroke="black" stroke-width="1.59" stroke-linecap="round" stroke-linejoin="round"></path><path d="M93.5801 51.3386C99.6723 45.9767 103.222 38.359 103.176 30.2422" stroke="black" stroke-width="1.59" stroke-linecap="round" stroke-linejoin="round"></path><path d="M50.8865 19.9072C46.7542 22.7361 44.8775 26.1382 43.9992 29.5864C43.1302 33.0162 43.5555 36.825 45.4044 39.8573C48.4274 44.8495 54.5012 46.9757 60.1405 48.5473C65.7058 50.1097 71.7241 51.7553 75.3573 56.2205C75.3943 56.2667 75.4405 56.3129 75.4775 56.3591" stroke="black" stroke-width="0.92" stroke-linecap="round" stroke-linejoin="round"></path><path d="M75.4941 56.1096C77.417 52.4764 85.5154 50.2115 90.4798 47.5767C95.4535 44.942 99.8355 40.7634 101.555 35.4199" stroke="black" stroke-width="0.92" stroke-linecap="round" stroke-linejoin="round"></path><path d="M84.7969 42.1038C89.7798 44.4612 97.5638 41.9928 101.179 35.198L101.215 35.124" stroke="black" stroke-width="1.59" stroke-linecap="round" stroke-linejoin="round"></path><path d="M38.1565 40.0596C28.7639 41.2799 23.6978 42.3707 15.4885 47.104C10.6165 49.9052 5.92947 53.4552 3.29472 58.4288C-0.615789 65.7968 0.807894 75.1432 5.03273 82.3356C9.25756 89.528 15.9138 94.9547 22.7086 99.8081" stroke="black" stroke-width="1.59" stroke-linecap="round" stroke-linejoin="round"></path><path d="M21.3223 95.7598C21.7753 97.091 22.3577 98.3853 23.051 99.6241C24.0125 101.39 25.205 103.035 26.601 104.496C27.2759 105.226 28.0154 105.901 28.9214 106.317C29.8274 106.724 30.909 106.816 31.7965 106.345" stroke="black" stroke-width="1.59" stroke-linecap="round" stroke-linejoin="round"></path><path d="M26.0195 91.2949C26.7868 92.2286 27.5726 93.1901 28.6173 93.7632C29.6804 94.3457 31.0856 94.4658 32.0378 93.7263C32.8606 93.0976 33.1657 91.9605 33.0825 90.9251C32.9993 89.899 32.574 88.919 32.1488 87.9853C30.2906 83.779 28.4324 79.5819 26.5742 75.3848" stroke="black" stroke-width="1.59" stroke-linecap="round" stroke-linejoin="round"></path><path d="M28.4756 79.2865C28.1428 74.2482 27.9949 68.8123 27.6621 63.7646" stroke="black" stroke-width="1.59" stroke-linecap="round" stroke-linejoin="round"></path><path d="M30.0117 95.2969C30.6681 98.9578 31.4539 102.6 32.3506 106.215C34.5694 115.145 37.5092 123.9 41.1331 132.359C41.1886 132.498 41.2533 132.636 41.3087 132.775" stroke="black" stroke-width="1.59" stroke-linecap="round" stroke-linejoin="round"></path><path d="M50.9043 134.071C51.4405 130.789 52.7902 127.646 54.7871 125.002" stroke="black" stroke-width="1.59" stroke-linecap="round" stroke-linejoin="round"></path><path d="M52.123 124.687C53.0198 124.743 53.9073 124.808 54.804 124.854C61.2383 125.196 67.6726 125.261 74.1162 125.02C74.3935 125.02 74.6616 125.011 74.939 124.993C79.5613 124.798 84.1745 124.466 88.7783 123.994" stroke="black" stroke-width="1.59" stroke-linecap="round" stroke-linejoin="round"></path><path d="M74.9785 125.843C76.1803 128.838 77.0493 131.972 77.5393 135.152" stroke="black" stroke-width="1.59" stroke-linecap="round" stroke-linejoin="round"></path><path d="M104.485 69.2373C106.325 78.1862 106.501 87.4586 105.142 96.5C103.219 109.23 98.2545 121.535 90.5906 131.879C90.1284 132.527 89.6384 133.155 89.1484 133.775" stroke="black" stroke-width="1.59" stroke-linecap="round" stroke-linejoin="round"></path><path d="M77.7051 135.337H77.7328C81.4399 136.04 85.3689 135.578 88.808 134.024" stroke="black" stroke-width="1.59" stroke-linecap="round" stroke-linejoin="round"></path><path d="M41.2793 132.759C41.2793 132.759 41.307 132.768 41.3163 132.787C43.8586 134.645 47.3716 135.098 50.3021 133.905" stroke="black" stroke-width="1.59" stroke-linecap="round" stroke-linejoin="round"></path><path d="M40.3936 132.665C38.4059 133.996 35.3367 135.799 33.3398 137.149C35.7342 137.509 39.0531 137.519 40.1809 137.435" stroke="black" stroke-width="1.59" stroke-linecap="round" stroke-linejoin="round"></path><path d="M40.4852 135.465C40.3558 136.121 40.2633 136.777 40.2079 137.434C40.1154 138.506 40.1247 139.588 40.2541 140.66C42.63 139.967 44.8765 138.858 46.8548 137.397L51.8932 139.754C52.0596 139.837 52.2352 139.921 52.4201 139.884C53.0026 139.8 52.9286 138.941 52.679 138.405C52.0319 136.99 51.394 135.557 50.7469 134.133H50.7376C50.7376 134.133 50.7099 134.078 50.7006 134.041" stroke="black" stroke-width="1.59" stroke-linecap="round" stroke-linejoin="round"></path><path d="M77.7246 135.375C81.6813 137.353 86.1558 139.655 90.4084 140.857C90.4823 140.182 90.4361 139.498 90.2697 138.833C90.0478 137.834 89.5578 136.891 88.8645 136.124" stroke="black" stroke-width="1.59" stroke-linecap="round" stroke-linejoin="round"></path><path d="M90.8613 138.684C92.2203 138.804 93.5885 138.934 94.9475 139.054C95.2341 139.082 95.5576 139.091 95.7333 138.888C96.0106 138.592 95.8165 138.12 95.6039 137.787C95.5761 137.75 95.5484 137.704 95.5114 137.667C94.8181 136.65 93.9583 135.735 92.9876 134.986" stroke="black" stroke-width="1.59" stroke-linecap="round" stroke-linejoin="round"></path><path d="M90.6211 131.898C92.091 131.703 93.6349 132.258 94.6425 133.34C95.6595 134.421 96.094 136.002 95.7981 137.454" stroke="black" stroke-width="1.59" stroke-linecap="round" stroke-linejoin="round"></path><path d="M76.4396 59.7619C70.7818 65.1516 65.2905 70.8001 60.8715 77.2437C56.4525 83.6965 53.1152 91.009 52.1075 98.7561C51.4881 103.526 51.8302 108.611 54.2523 112.762C55.8239 115.452 58.1998 117.615 60.8808 119.215C64.8282 121.563 69.4414 122.561 74.0175 122.358C79.9896 122.071 85.8877 119.732 90.2512 115.637C97.9613 108.38 100.522 96.371 97.0368 86.3774C94.476 79.0556 89.1696 73.0835 83.974 67.3148C81.6814 64.7633 79.3979 62.2118 77.1052 59.6787" stroke="black" stroke-width="0.92" stroke-linecap="round" stroke-linejoin="round"></path><path d="M105.855 96.6106C121.266 99.6891 145.367 93.0422 149.786 85.4893" stroke="black" stroke-width="1.59" stroke-linecap="round" stroke-linejoin="round"></path><path d="M149.935 85.3232C155.934 76.0231 158.264 64.4394 156.332 53.5492C155.518 48.9915 153.864 44.3877 150.48 41.2352C147.096 38.0735 141.633 36.8347 137.722 39.3031C135.282 40.8377 133.812 44.4616 135.698 46.6434" stroke="black" stroke-width="1.59" stroke-linecap="round" stroke-linejoin="round"></path><path d="M138.767 43.0371C137.491 43.9523 136.539 45.2743 135.975 46.7442C135.143 48.8983 135.162 51.4036 136.216 53.4744C136.53 54.0661 136.918 54.6392 137.417 55.083C137.732 55.3418 138.064 55.5452 138.443 55.6931C139.423 56.0537 140.514 55.8503 141.494 55.4712C142.511 55.0922 143.473 54.4728 144.018 53.5299C144.563 52.5961 144.563 51.3019 143.815 50.5161" stroke="black" stroke-width="1.59" stroke-linecap="round" stroke-linejoin="round"></path><path d="M137.315 55.3965C136.123 57.7816 135.143 60.2869 134.422 62.8477C133.016 67.7197 132.471 72.832 132.822 77.8889" stroke="black" stroke-width="1.59" stroke-linecap="round" stroke-linejoin="round"></path><path d="M92.4316 51.7651C92.8292 51.6726 93.2174 51.5709 93.615 51.4877C102.629 49.4169 111.291 49.9716 112.761 50.2489C114.286 50.5355 115.775 51.4138 116.431 52.8097" stroke="black" stroke-width="1.59" stroke-linecap="round" stroke-linejoin="round"></path><path d="M111.318 54.2428C113.019 53.7991 114.748 53.4755 116.495 53.2906C117.882 53.1335 119.26 53.0688 120.656 53.078C122.394 53.1057 124.169 53.2537 125.768 53.9285C127.376 54.5941 128.809 55.8514 129.355 57.5062C129.771 58.7912 129.549 60.3074 128.726 61.352C128.504 61.6479 128.227 61.916 127.894 62.1193" stroke="black" stroke-width="1.59" stroke-linecap="round" stroke-linejoin="round"></path><path d="M128.826 61.4258C130.481 61.5367 132.108 61.9342 133.606 62.6276" stroke="black" stroke-width="1.59" stroke-linecap="round" stroke-linejoin="round"></path><path d="M65.2252 30.0862C65.2991 32.4344 63.4594 34.4035 61.1113 34.4682C58.7631 34.5514 56.794 32.7117 56.7293 30.3636C56.6461 28.0154 58.4858 26.0463 60.8339 25.9631C63.1821 25.8891 65.1512 27.7288 65.2344 30.077L65.2252 30.0862Z" stroke="black" stroke-width="1.59" stroke-linecap="round" stroke-linejoin="round"></path><path d="M91.8413 28.227C91.9245 30.5752 90.0755 32.5443 87.7366 32.6275C85.3885 32.7015 83.4193 30.8618 83.3361 28.5136C83.2622 26.1655 85.1019 24.1963 87.45 24.1316C89.7982 24.0484 91.7673 25.8881 91.832 28.2363L91.8413 28.227Z" stroke="black" stroke-width="1.59" stroke-linecap="round" stroke-linejoin="round"></path><g style="mix-blend-mode:darken"><path d="M85.0617 119.854C95.9428 115.444 100.075 104.711 99.6222 92.97C99.4927 89.7066 98.1522 85.2969 96.7378 82.357C95.9243 80.6653 94.8704 79.0937 93.7795 77.5498C88.6117 70.2095 82.6858 63.4054 76.1128 57.2946C81.5765 52.0252 89.7303 50.3888 95.3788 45.332C97.4127 43.5108 99.0582 41.292 100.676 39.0918C98.7162 44.047 96.747 48.7803 91.1447 52.3672C94.7224 51.1931 102.137 51.4705 107.295 51.4705C109.348 51.4705 111.779 56.176 105.724 58.2006C109.56 57.3871 119.258 56.0743 122.743 57.8586C126.228 59.6428 124.121 63.8122 120.081 65.8275C122.438 65.7443 129.501 66.9461 132.644 68.074C133.106 67.1772 136.897 55.9634 137.35 55.0667C138.921 56.4164 141.482 56.3147 144.441 53.8741C141.935 65.4577 136.453 88.2552 150.579 83.9934C151.753 83.6421 139.809 98.5723 109.754 96.7788C109.181 96.7418 106.149 97.5276 105.687 97.8697C104.605 98.6832 104.651 101.651 103.533 104.452C99.539 114.427 96.6638 121.397 92.892 128.248C92.2449 129.431 90.5808 132.149 89.5362 133.009C88.5562 133.804 85.9862 134.627 84.7751 134.969C82.3992 135.644 79.5981 135.607 77.4718 134.349C77.3516 132.593 75.6229 127.73 75.2623 126.011C74.9665 124.633 65.1579 125.974 65.1856 124.615C65.2318 122.322 74.7077 124.051 85.0617 119.854Z" fill="#5A4098"></path></g><g style="mix-blend-mode:darken"><path d="M22.4865 62.1943C23.0781 61.0202 23.8177 59.8646 24.9178 59.1528C26.0179 58.4409 27.5618 58.256 28.6157 59.0418C29.383 59.615 29.7713 60.558 30.0671 61.464C32.406 68.5639 31.9623 76.3942 34.6248 83.3832C36.1964 87.5063 38.8773 91.7127 37.768 95.9837C37.4999 97.0006 37.0284 97.9528 36.7511 98.9698C36.2426 100.8 36.3628 102.742 36.5384 104.628C37.4629 114.288 41.1053 125.178 44.8124 134.155C43.2224 134.58 40.828 131.289 40.3195 129.727C37.6293 121.425 34.9483 113.123 32.2581 104.822C31.4538 106.467 28.9115 105.533 27.6173 104.239C25.7776 102.4 24.2892 100.209 23.2538 97.8234C23.5311 98.5537 22.7176 99.3303 21.941 99.321C21.1645 99.3118 20.5081 98.3873 19.898 97.8974C18.1692 96.5107 8.95221 88.1627 8.69336 85.8977C9.18333 86.1843 15.895 91.5 18.8256 86.4339C23.7992 77.2447 17.6607 71.6794 22.4772 62.2035L22.4865 62.1943Z" fill="#5A4098"></path></g><path d="M77.3905 128.663C77.335 130.272 77.6863 131.899 78.4074 133.341C79.2856 133.313 80.0437 132.657 80.4504 131.871C80.8572 131.085 80.9774 130.198 81.0883 129.32C81.1715 128.645 81.2547 127.951 81.0883 127.295C80.9219 126.639 80.4042 126.028 79.7294 125.936C78.5183 125.77 77.7787 127.212 77.4182 128.386" fill="#8676B5"></path><g style="mix-blend-mode:darken"><path d="M86.616 7.98526C88.9642 7.51378 91.5157 8.16091 93.3554 9.69553C94.1689 10.3704 94.8438 11.2117 95.7313 11.7848C95.38 10.4166 96.5818 8.92822 97.9962 8.81729C99.4107 8.70635 100.76 9.78798 101.158 11.147C101.555 12.5059 101.102 14.0313 100.187 15.1129C100.862 14.549 101.796 14.2717 102.656 14.4751C103.515 14.6784 104.255 15.381 104.412 16.25C104.745 18.1082 102.609 19.4302 101.971 21.2144C100.918 19.1899 98.9484 17.8309 97.044 16.5736C96.4801 16.2038 95.9069 15.8248 95.3245 15.4827C94.5387 15.0205 93.7159 14.6137 92.8747 14.2717C90.7576 13.4027 88.6591 13.19 86.4219 13.5876C86.4219 13.227 87.2631 7.85584 86.6068 7.98526H86.616Z" fill="#5A4098"></path></g><path d="M56.137 11.044C65.0397 11.4507 64.5128 9.65726 64.485 9.1488C64.4665 8.74204 63.9951 8.44621 63.5513 8.24282C60.8796 7.02252 57.4498 6.8931 54.5932 7.91001C53.6317 8.25207 52.3097 10.8683 56.137 11.044Z" fill="#8676B5" stroke="black" stroke-width="1.22" stroke-miterlimit="10"></path><path d="M86.0706 9.40823C94.9733 9.815 94.4464 8.02152 94.4186 7.51306C94.4001 7.1063 93.9287 6.81047 93.4849 6.60708C90.8132 5.38678 87.3834 5.25735 84.5268 6.27427C83.5653 6.61633 82.2433 9.23258 86.0706 9.40823Z" fill="#8676B5" stroke="black" stroke-width="1.22" stroke-miterlimit="10"></path><path d="M58.6674 29.5687C60.434 29.5687 61.8661 28.2898 61.8661 26.7121C61.8661 25.1344 60.434 23.8555 58.6674 23.8555C56.9008 23.8555 55.4688 25.1344 55.4688 26.7121C55.4688 28.2898 56.9008 29.5687 58.6674 29.5687Z" fill="white"></path><path d="M85.5795 28.3949C87.3461 28.3949 88.7782 27.1159 88.7782 25.5383C88.7782 23.9606 87.3461 22.6816 85.5795 22.6816C83.813 22.6816 82.3809 23.9606 82.3809 25.5383C82.3809 27.1159 83.813 28.3949 85.5795 28.3949Z" fill="white"></path><g style="mix-blend-mode:darken"><path d="M70.4726 32.1587C73.9208 26.5934 74.4755 23.2098 71.887 18.7354C73.209 18.8278 80.124 27.6842 75.3168 37.5761C74.9193 38.3896 74.1797 39.2956 73.3199 39.0275C72.9409 38.9073 72.6728 38.5837 72.377 38.3341C70.8146 37.0029 67.995 37.8349 67.4033 39.7948C67.2739 40.2201 58.4729 39.7671 57.9922 39.6931C61.7548 39.2216 67.4126 37.1046 70.4726 32.1587Z" fill="#CBE4F2"></path></g><g style="mix-blend-mode:darken"><path d="M96.8851 25.3829C98.4567 23.3029 99.4829 20.3353 98.0777 18.1351C98.5676 17.7746 104.373 23.2104 102.108 30.7634C101.72 32.0576 101.581 33.4906 100.666 34.489C99.4736 35.8017 97.6062 36.2178 95.8589 36.5321C92.4754 37.1422 89.0641 37.5952 85.6343 37.9095C84.7283 37.9927 83.7854 38.0574 82.9348 37.7431C82.2785 37.4935 81.7145 37.0313 81.0766 36.7447C79.3941 35.9866 77.4342 36.5413 75.6777 37.096C76.5837 35.5891 77.1384 31.6971 78.673 31.0315C80.0782 30.4213 83.582 31.7341 85.283 31.5861C89.7667 31.2164 94.1487 28.9976 96.8759 25.3829H96.8851Z" fill="#CBE4F2"></path></g><g style="mix-blend-mode:darken"><path d="M74.6355 43.556C75.3104 44.9981 76.9837 45.5898 78.2872 46.4958C78.4628 46.616 78.6477 46.7639 78.7124 46.9765C78.8049 47.3093 78.5553 47.6329 78.3149 47.8732C77.0853 49.1305 75.2549 50.1937 73.6463 49.5095C72.5 49.0196 71.8621 47.79 71.52 46.5882C71.1872 45.4326 71.178 43.9442 72.1949 43.3248C71.1687 43.6576 70.0501 43.6946 69.0055 43.4358C67.8499 42.123 67.9146 39.8488 69.2828 38.7487C70.4199 37.8335 72.9899 37.8982 73.9422 39.1462C74.8574 40.348 73.9884 42.1785 74.6262 43.5652L74.6355 43.556Z" fill="#FF8C00"></path></g><path d="M76.7703 40.5052C77.2048 41.6053 78.6747 42.1878 79.7009 41.5961C80.727 41.0044 80.9212 39.3404 80.006 38.5916C79.4143 38.1016 78.5083 38.0739 77.8427 38.4529C77.1771 38.8319 76.7611 39.59 76.7148 40.3481" fill="#FFD75C"></path><path d="M21.0322 97.3504C12.9338 90.9623 4.4379 83.3446 2.39482 72.7317C-0.165966 60.4085 7.48866 52.8648 17.4267 47.244C23.5837 43.8142 30.471 41.8174 37.4415 41.124L37.5617 42.2519C30.7299 43.0007 24.0737 45.1177 18.0831 48.4181C12.4068 51.7832 6.26836 56.045 4.0866 62.544C1.90485 69.0246 3.85549 76.2354 7.25754 81.9579C10.9462 87.7636 16.0493 92.6078 21.0229 97.3504H21.0322Z" fill="#A47BD4"></path><path d="M21.9492 93.2285C22.6518 95.512 24.0108 99.293 27.5053 103.527C28.2264 104.405 29.7333 105.358 31.1107 105.136" stroke="#A47BD4" stroke-width="0.92" stroke-miterlimit="10"></path><path d="M26.666 89.7988C27.4703 91.4444 29.2545 92.563 31.0942 92.5722" stroke="#A47BD4" stroke-width="0.92" stroke-miterlimit="10"></path><path d="M32.2109 97.1191C34.0044 109.147 38.4141 121.313 42.4633 132.36" stroke="#A47BD4" stroke-width="0.92" stroke-miterlimit="10"></path><path d="M88.0684 132.113C103.119 113.808 106.835 91.0475 103.368 69.1006" stroke="#A47BD4" stroke-width="0.92" stroke-miterlimit="10"></path><path d="M134.374 78.4566C134.069 78.4012 134.014 78.0037 134.014 77.6986C134.152 72.3366 134.661 67.7605 136.029 62.5742C136.5 60.7715 137.129 58.1368 138.396 56.7686" stroke="#A47BD4" stroke-width="0.92" stroke-miterlimit="10"></path><path d="M139.912 53.9019C137.98 53.6061 136.824 51.3781 137.065 49.4367C137.305 47.4954 138.553 45.8405 139.866 44.3799" stroke="#A47BD4" stroke-width="0.92" stroke-miterlimit="10"></path><path d="M150.017 42.5586C156.257 48.7988 156.83 63.5348 153.677 74.1848C152.161 79.2971 149.601 84.8069 145.209 87.8484C131.083 97.6386 110.181 96.3628 106.982 95.4846" stroke="#A47BD4" stroke-width="0.92" stroke-miterlimit="10"></path><path d="M88.373 53.181C93.3837 50.7404 97.9321 44.833 99.7071 41.1074" stroke="#A47BD4" stroke-width="0.92" stroke-miterlimit="10"></path><path d="M42.3434 45.2375C42.0106 45.3114 41.7794 44.9324 41.6593 44.6088C38.7379 36.9265 36.7133 29.124 38.3866 21.0811" stroke="#A47BD4" stroke-width="0.92" stroke-miterlimit="10"></path><path d="M35.5832 15.7769C35.5185 14.9634 35.9067 14.1314 36.5631 13.6599C37.2195 13.1884 38.1255 13.0775 38.8835 13.3825" stroke="#A47BD4" stroke-width="0.92" stroke-miterlimit="10"></path><path d="M37.2112 8.36146C36.9801 7.32605 37.8583 6.34611 38.829 5.9301C40.53 5.19052 42.6378 5.662 43.5253 7.61264" stroke="#A47BD4" stroke-width="0.92" stroke-miterlimit="10"></path><path d="M68.2 5.29245C67.8025 4.01668 69.143 2.56526 70.4465 2.86109" stroke="#A47BD4" stroke-width="0.92" stroke-miterlimit="10"></path><path d="M75.8633 5.50465C76.2885 3.51703 78.3039 2.27824 80.2083 3.00857" stroke="#A47BD4" stroke-width="0.92" stroke-miterlimit="10"></path><path d="M97.6 11.6718C97.1747 10.9784 97.1192 10.0632 97.4613 9.32362C97.8033 8.58404 98.5337 8.02936 99.338 7.90918" stroke="#A47BD4" stroke-width="0.92" stroke-miterlimit="10"></path><path d="M85.3223 7.35405C87.578 6.79012 89.9539 6.72541 92.2373 7.16915" stroke="#A47BD4" stroke-width="0.92" stroke-miterlimit="10"></path><path d="M55.2012 9.46176C57.4569 8.90708 59.842 8.86085 62.1162 9.3046" stroke="#A47BD4" stroke-width="0.92" stroke-miterlimit="10"></path></svg> 