<?xml version="1.0" encoding="UTF-8"?> <svg xmlns="http://www.w3.org/2000/svg" width="127" height="130" viewBox="0 0 127 130" fill="none"><path d="M115.176 73.0381C114.424 72.5996 114.272 71.4093 114.746 70.6396C115.256 69.8251 116.196 69.3956 117.109 69.1181C117.136 69.1092 117.163 69.1002 117.19 69.0913C118.783 68.6169 120.492 68.3753 122.112 68.7601C122.139 68.7691 122.184 68.778 122.21 68.787C123.795 69.2076 125.244 70.2995 125.79 71.8389C126.336 73.414 125.728 75.392 124.242 76.1348L123.938 76.3048C125.799 79.7058 126.533 83.7422 125.513 87.4653C124.287 91.8686 120.349 95.5739 115.793 95.8961C113.207 96.084 110.576 95.019 108.714 93.229C107.3 91.8686 106.333 90.0966 106.181 88.1276C106.065 86.6061 106.423 84.9952 107.443 83.8585C108.463 82.7219 110.817 81.8627 112.885 83.599C112.759 82.883 112.795 82.1043 112.992 81.3794L112.088 80.9677C111.569 80.5023 110.934 80.198 110.262 80.0727L110.361 79.5447C110.379 78.3812 110.826 77.2804 111.462 76.3227C112.536 74.7476 114.129 73.6109 115.122 73.4051L115.185 73.0202L115.176 73.0381Z" fill="white"></path><path d="M122.289 68.5687L122.218 68.7835C122.218 68.7835 122.146 68.7656 122.119 68.7566C120.499 68.3718 118.79 68.6045 117.197 69.0878C117.17 69.0967 117.143 69.1057 117.116 69.1146L117.027 68.8551C116.758 61.2477 113.366 53.8014 107.817 48.6015L107.37 48.6373C107.092 45.6212 106.833 42.623 106.564 39.6606L106.94 39.6338C115.479 46.8563 121.09 57.444 122.28 68.5687H122.289Z" fill="#4D4E4E"></path><path d="M116.714 113.883C118.468 117.078 119.059 120.899 118.146 124.372L117.958 124.318C109.608 125.831 97.5342 125.786 86.8391 124.56L86.9017 124.059C85.8814 121.078 86.2484 118.098 88.8438 116.308C91.4393 114.518 94.7597 114.107 97.9101 114.303C101.051 114.5 104.148 115.234 107.281 115.521C110.422 115.798 113.733 115.583 116.472 114.008L116.723 113.883H116.714Z" fill="#FE4052"></path><path d="M77.4455 123.093C80.3453 123.693 83.5315 124.185 86.8519 124.561C97.538 125.796 109.611 125.832 117.971 124.319L118.159 124.373C117.98 125.071 117.738 125.742 117.434 126.404L117.201 126.619C114.659 130.047 86.5655 129.743 72.541 124.937V124.901C72.5679 123.934 72.5947 122.968 72.6126 122.001H72.9169C74.322 122.395 75.8435 122.771 77.4455 123.093Z" fill="white"></path><path d="M95.5497 106.456C96.6416 106.116 97.7693 105.865 98.897 105.722C104.5 104.979 110.514 106.689 114.434 110.752C115.329 111.683 116.108 112.739 116.725 113.884L116.475 114.01C113.736 115.585 110.424 115.8 107.283 115.522C104.151 115.245 101.054 114.511 97.9125 114.305C94.7622 114.117 91.4418 114.52 88.8463 116.31C86.2508 118.1 85.8839 121.071 86.9042 124.06L86.8415 124.562C83.5211 124.186 80.3349 123.685 77.4352 123.094C77.104 118.243 75.7168 114.591 73.4883 110.269C73.5778 110.018 73.6762 109.768 73.7747 109.535L76.576 109.696C77.65 110.269 78.9209 110.475 80.1201 110.233C79.5921 108.819 80.1828 107.181 81.212 106.08C81.4716 105.803 81.749 105.552 82.0444 105.328C82.9304 104.639 83.9596 104.138 84.9978 103.664C85.7049 103.333 86.4209 103.019 87.1458 102.76C88.3182 102.321 89.5086 102.044 90.7437 102.106C92.7484 102.205 95.1828 104.442 95.5229 106.42V106.474L95.5497 106.456Z" fill="white"></path><path d="M112.089 80.9816L112.993 81.3933C112.796 82.1182 112.751 82.8969 112.885 83.6128C110.818 81.8766 108.473 82.7358 107.444 83.8724C106.415 85.009 106.066 86.62 106.182 88.1415C106.343 90.1104 107.31 91.8825 108.715 93.2429C106.307 92.0436 104.598 89.0365 104.293 86.9959C103.971 84.8748 104.589 82.5389 106.209 81.1516C107.301 80.2029 108.867 79.8092 110.254 80.0956C110.934 80.2208 111.57 80.5251 112.08 80.9905L112.089 80.9816Z" fill="white"></path><path d="M79.626 47.4311C86.6069 51.1632 96.2728 51.3959 103.218 47.5833L103.128 47.1C105.026 42.5714 103.119 36.8793 99.0383 34.1406C94.9572 31.4019 89.1934 31.6883 85.2018 34.5523C81.228 37.4163 79.1159 42.5535 79.626 47.4401V47.4311ZM109.698 75.3457V75.6232H109.545C95.0377 75.6321 60.3121 76.5719 46.3145 77.4131L46.1624 77.3147V76.9388C44.4619 57.6966 43.0568 34.8566 41.3652 15.6234L41.4458 15.5965C44.4082 22.7295 50.691 26.7212 57.1349 27.7683C66.0311 29.2182 76.5383 22.8996 78.4446 14.084C79.5902 19.7582 83.4744 24.9044 88.7728 27.2313C94.1248 29.5762 100.766 28.8691 105.294 25.1818C105.679 29.7731 106.109 34.6686 106.547 39.6716C106.816 42.634 107.075 45.6412 107.353 48.6483C108.158 57.8309 108.973 67.0671 109.68 75.3457H109.698Z" fill="#FDBC11"></path><path d="M91.6828 84.8233C90.8594 85.5483 89.8034 86.0226 88.622 86.0853C88.4698 85.8436 88.2998 85.6378 88.1118 85.4409C87.4137 84.7428 86.4471 84.3042 85.4537 84.2863C84.1649 84.2505 82.8851 84.9128 82.1691 85.9779L82.187 85.9958H81.9185C81.6142 85.9958 81.292 85.9689 80.9967 85.8973L80.7998 86.7028C72.9597 86.6223 66.9006 87.0518 59.0605 86.9713H59.0515C57.6464 87.7947 55.937 88.2064 54.1202 87.9558L53.7801 87.8663C53.9949 87.0071 54.2365 86.1927 54.4961 85.4319L54.5677 85.3066C52.5987 84.528 50.2628 84.6801 48.4191 85.7541V85.9689C48.258 86.5865 48.1148 87.204 47.9716 87.8305L47.5867 87.7499C46.656 87.6694 45.761 87.2488 45.0718 86.6402C44.6959 86.2911 44.3737 85.8884 44.141 85.4409C43.4787 84.161 43.5235 82.5411 44.2484 81.2881L43.0312 78.997C44.0873 78.451 45.1255 77.8961 46.1727 77.3234L46.3248 77.4218C60.3135 76.5805 95.039 75.6408 109.556 75.6318V75.8287C104.759 78.7016 97.3034 82.3442 91.7365 84.886L91.6828 84.8233Z" fill="#F58B1F"></path><path d="M39.9012 9.5896C39.7401 8.30977 39.6685 6.94044 39.7043 5.52637L107.544 8.33662C109.585 13.8318 109.898 21.4034 105.379 25.1265C105.361 25.1444 105.343 25.1534 105.316 25.1802C100.787 28.8676 94.1465 29.5746 88.7945 27.2298C83.4961 24.9028 79.6029 19.7656 78.4663 14.0824C76.56 22.8891 66.0528 29.2166 57.1566 27.7668C50.7127 26.7196 44.4299 22.728 41.4675 15.595C41.4048 15.4697 41.3601 15.3354 41.3064 15.2012C40.6441 13.5096 40.1608 11.6391 39.9012 9.59855V9.5896Z" fill="#4D4E4E"></path><path d="M99.0402 34.1401C103.121 36.8788 105.028 42.5709 103.13 47.0995L103.22 47.5828C96.2747 51.4044 86.6088 51.1627 79.6279 47.4307C79.1177 42.544 81.2299 37.4068 85.2037 34.5429C89.1953 31.6789 94.959 31.4015 99.0402 34.1312V34.1401ZM95.7198 42.1234C95.7198 39.4742 93.5808 37.3442 90.9405 37.3442C88.3003 37.3442 86.1613 39.4832 86.1613 42.1234C86.1613 44.7636 88.3003 46.9026 90.9405 46.9026C93.5808 46.9026 95.7198 44.7636 95.7198 42.1234Z" fill="white"></path><path d="M90.9335 46.9032C93.573 46.9032 95.7128 44.7634 95.7128 42.1239C95.7128 39.4845 93.573 37.3447 90.9335 37.3447C88.294 37.3447 86.1543 39.4845 86.1543 42.1239C86.1543 44.7634 88.294 46.9032 90.9335 46.9032Z" fill="#1A1A1A"></path><path d="M88.096 85.4578C88.3734 90.076 88.4808 97.558 87.0309 102.373L87.1562 102.74C86.4313 103 85.7153 103.313 85.0083 103.644C83.9701 104.109 82.9408 104.619 82.0548 105.309L81.0703 105.183C81.4462 99.4554 81.8221 91.7317 82.198 86.0038L82.1801 85.9859C82.8961 84.9208 84.167 84.2586 85.4647 84.2944C86.4581 84.3123 87.4247 84.7508 88.1228 85.4489L88.1049 85.4668L88.096 85.4578Z" fill="#4D4E4E"></path><path d="M80.2034 105.56L81.2147 106.07C80.1765 107.171 79.5948 108.818 80.1228 110.223C78.9325 110.465 77.6526 110.259 76.5787 109.686L73.7773 109.525C73.8489 109.373 73.9206 109.23 73.9832 109.086C75.1377 106.786 77.6885 104.978 80.1944 105.56H80.2034Z" fill="white"></path><path d="M73.4876 110.259C75.7161 114.582 77.1034 118.233 77.4345 123.084C75.8325 122.753 74.311 122.386 72.9059 122.001H72.6016C72.6284 120.202 72.6732 118.412 72.709 116.613C72.7448 114.474 72.8074 112.264 73.4876 110.259Z" fill="#FE4052"></path><path d="M52.5281 104.165C57.3252 103.932 59.867 112.461 59.6164 119.12L57.6385 119.031C57.0209 115.209 55.1236 111.656 52.4118 108.908L52.4297 108.89C53.1099 107.458 52.9756 105.812 52.3223 104.353L52.376 104.335C52.376 104.335 52.3581 104.245 52.3581 104.192L52.5371 104.165H52.5281Z" fill="white"></path><path d="M57.6369 119.029L59.6148 119.119C59.5879 120.067 59.4895 120.971 59.3373 121.804C57.1267 122.6 54.6834 123.289 52.0879 123.844C53.0993 122.162 53.0187 119.548 51.7836 118.036C50.5127 116.496 48.5348 115.682 46.5569 115.387C44.5879 115.091 42.5652 115.261 40.5784 115.369C34.5014 115.691 28.4065 115.422 22.3922 114.545L22.1953 114.447C23.5288 111.816 25.3367 109.453 27.3952 107.735C29.6953 105.819 32.4698 104.513 35.3874 103.886C38.8421 103.152 42.4937 103.349 45.8051 104.593C48.2932 105.524 50.5396 107.019 52.4101 108.907C55.1219 111.655 57.0283 115.208 57.6369 119.029Z" fill="white"></path><path d="M52.0886 123.843C54.6841 123.288 57.1274 122.599 59.3381 121.803C59.2486 122.349 59.1322 122.868 58.9801 123.342L58.8369 124.031C46.7187 128.81 32.7837 130.529 20.3702 126.537L20.0123 126.278C19.8243 125.231 19.7617 124.139 19.8154 123.038L20.4061 123.056C29.159 126.313 41.7605 126.081 52.0886 123.843Z" fill="white"></path><path d="M54.5666 85.2978L54.495 85.4231C54.2354 86.1928 53.9938 87.0072 53.779 87.8574C52.3201 93.5585 51.7474 100.692 52.347 104.182C52.347 104.236 52.3559 104.28 52.3649 104.325L52.3112 104.343C51.8368 103.287 51.0851 102.338 50.1722 101.631C49.0266 100.745 47.702 100.19 46.2969 99.8323C46.5296 95.787 47.0934 91.7685 47.9705 87.8216C48.1137 87.1951 48.2569 86.5776 48.409 85.9601V85.7453C50.2617 84.6713 52.5976 84.5191 54.5666 85.2978Z" fill="#4D4E4E"></path><path d="M52.3192 104.351C52.9726 105.801 53.1068 107.457 52.4266 108.889L52.4087 108.907C50.5382 107.019 48.2918 105.524 45.8037 104.593C42.4922 103.349 38.8317 103.152 35.386 103.886L35.3144 103.492C35.1712 101.917 36.3616 100.467 37.8025 99.8139C39.2434 99.1695 40.8813 99.1695 42.4565 99.2769C43.7363 99.3574 45.0519 99.5185 46.3049 99.8407C47.719 100.199 49.0436 100.754 50.1802 101.64C51.0931 102.347 51.8449 103.304 52.3192 104.351Z" fill="white"></path><path d="M51.7834 118.036C53.0275 119.549 53.108 122.162 52.0877 123.845C41.7596 126.082 29.1581 126.324 20.4051 123.057L19.8145 123.039C19.9308 120.157 20.7989 117.159 22.1772 114.447L22.3741 114.546C28.3884 115.423 34.4833 115.691 40.5603 115.369C42.5472 115.262 44.5698 115.092 46.5388 115.387C48.5167 115.673 50.4947 116.488 51.7655 118.036H51.7834Z" fill="#FE4052"></path><path d="M28.3718 45.1209L27.987 44.8613C27.8706 42.9281 27.7453 41.0129 27.629 39.0797L25.7227 39.0529C26.7698 39.0529 27.7722 38.8381 28.6761 38.2653C29.0878 38.0057 29.4279 37.7014 29.7322 37.3524L29.9918 37.4687C33.8581 36.3679 35.4243 30.5594 33.6791 27.1585L33.339 26.9079C36.0598 23.0863 38.2614 20.2134 40.839 15.3715L41.3044 15.1836C41.3581 15.3268 41.4029 15.4521 41.4655 15.5774L41.385 15.6042C43.0765 34.8375 44.4816 57.6775 46.1642 76.9197V77.2956C45.126 77.8594 44.0878 78.4233 43.0317 78.9692C38.4852 81.3767 33.8939 83.7037 29.3563 86.147H29.0789C28.9178 76.4274 28.7567 66.7348 28.6045 57.0331L28.2823 56.6214C30.3766 54.9478 31.9339 53.1847 32.5962 51.9138L33.527 51.8959C33.5091 49.8195 32.5604 47.7163 30.9494 46.4275L30.6898 46.884C30.0097 47.9043 29.0431 49.1035 27.8527 50.2849L27.3157 49.9806C26.9846 48.2891 27.4231 46.5528 28.3629 45.1119L28.3718 45.1209Z" fill="#F58B1F"></path><path d="M45.0724 86.6316L45.0545 86.6495C40.5885 86.6495 33.8134 86.5242 29.2848 86.4884L29.0879 86.3184V86.1573H29.3653C33.9029 83.714 38.4942 81.387 43.0408 78.9795L44.2579 81.2707C43.533 82.5236 43.4793 84.1436 44.1505 85.4234C44.3922 85.8709 44.7054 86.2826 45.0813 86.6227L45.0724 86.6316Z" fill="#F58B1F"></path><path d="M41.3068 15.1942L40.8414 15.3822C38.2638 20.2241 36.0711 23.097 33.3414 26.9186C32.6075 27.9567 31.8199 29.0665 30.9876 30.3016L30.4148 30.3642C30.3521 30.2211 30.2984 30.0868 30.2268 29.9526C29.7883 29.1113 29.1797 28.2789 28.4727 27.5003C29.3766 26.0862 30.2716 24.69 31.1666 23.276C34.0932 18.7205 36.9929 14.1561 39.9106 9.60059C40.1702 11.6412 40.6445 13.5117 41.3157 15.2032L41.3068 15.1942Z" fill="#4D4E4E"></path><path d="M33.6696 27.1686C35.4058 30.5695 33.8486 36.378 29.9822 37.4788L29.7227 37.3625C31.262 35.5546 31.3963 32.6369 30.4028 30.3637L30.9756 30.301C31.808 29.0659 32.5956 27.9562 33.3295 26.918L33.6696 27.1686Z" fill="white"></path><path d="M33.5389 51.9132L32.6081 51.9311C31.9458 53.193 30.3885 54.9651 28.2943 56.6387C24.6338 59.5653 19.3086 62.1786 14.0908 61.2658C9.13256 60.3887 5.06037 56.576 3.58364 51.761C2.09796 46.937 2.45595 41.7372 3.45834 36.7969L4.20118 35.9824C4.31753 36.054 4.44282 36.1256 4.55917 36.1793C5.66896 36.77 6.89509 37.0922 8.14808 37.2533L8.12123 37.8171C6.92194 42.4353 5.16777 53.0319 13.8223 55.9137C18.6373 57.5158 24.24 53.9448 27.8826 50.3022C29.064 49.1208 30.0395 47.9215 30.7197 46.9012L30.9792 46.4448C32.5902 47.7336 33.5389 49.8368 33.5568 51.9132H33.5389Z" fill="#4D4E4E"></path><path d="M31.1544 23.2672C30.2594 24.6812 29.3644 26.0774 28.4604 27.4915C26.9121 25.7821 24.8894 24.2427 23.1621 23.0434C23.3769 23.1419 23.6096 23.2135 23.8423 23.2761C25.686 23.7415 27.7087 23.2851 29.2301 22.1484L29.8208 22.1663C30.2862 22.6317 30.4473 22.6317 30.9127 23.0971L31.1633 23.2582L31.1544 23.2672Z" fill="white"></path><path d="M15.6991 34.8111L15.6722 34.829C15.1979 36.7264 12.8172 37.326 10.8661 37.3708C9.96221 37.3887 9.04037 37.3618 8.14538 37.2455C6.8924 37.0844 5.66626 36.7622 4.55648 36.1715C4.44013 36.1089 4.31484 36.0462 4.19849 35.9746C2.44431 34.9275 1.08393 33.1107 1.00338 31.079C0.940729 29.5755 1.75517 28.045 2.9813 27.2306L2.79335 26.5862C1.34347 24.0982 2.15791 20.9478 3.13345 18.2449C4.45803 14.6024 6.05111 11.0045 8.41388 7.93472C10.7767 4.86492 13.9986 2.33211 17.7576 1.38342C21.5165 0.434739 25.8125 1.23128 28.5869 3.94308C31.0929 6.38639 32.0237 10.4496 30.6096 13.6C30.4574 13.9311 30.2785 14.2533 30.0816 14.5666C28.2737 17.3321 24.4968 18.6119 21.3733 17.529C20.8274 17.341 20.3083 17.0725 19.825 16.7503L19.1179 17.8959C19.3864 20.1871 21.0243 22.2455 23.1722 23.06C24.8996 24.2503 26.9222 25.7986 28.4706 27.508C29.1776 28.2956 29.7862 29.119 30.2247 29.9603C30.2963 30.0856 30.3501 30.2288 30.4127 30.372C31.4061 32.6453 31.2808 35.5629 29.7325 37.3708C29.4372 37.7198 29.0881 38.0241 28.6764 38.2837C27.7725 38.8475 26.7701 39.0713 25.723 39.0713C23.9956 39.0713 22.1609 38.4627 20.5231 37.8004C18.7599 37.0933 16.9073 36.2252 15.6991 34.829V34.8111Z" fill="white"></path><path d="M105.297 24.9463C105.306 25.0268 105.306 25.0984 105.315 25.179C105.7 29.7703 106.129 34.6658 106.568 39.6688C106.836 42.6312 107.096 45.6384 107.373 48.6455C108.179 57.8281 108.993 67.0643 109.7 75.3429" stroke="black" stroke-width="1.44" stroke-linecap="round" stroke-linejoin="round"></path><path d="M41.3848 15.6211C43.0763 34.8543 44.4814 57.6943 46.164 76.9365" stroke="black" stroke-width="1.44" stroke-linecap="round" stroke-linejoin="round"></path><path d="M46.3262 77.413C60.3148 76.5717 95.0404 75.632 109.557 75.623H109.808" stroke="black" stroke-width="1.44" stroke-linecap="round" stroke-linejoin="round"></path><path d="M79.2344 47.2161C79.3597 47.2877 79.4939 47.3683 79.6282 47.4309C86.6091 51.163 96.275 51.3957 103.22 47.5831C103.453 47.4578 103.668 47.3235 103.882 47.1982" stroke="black" stroke-width="1.44" stroke-linecap="round" stroke-linejoin="round"></path><path d="M103.13 47.0922C105.028 42.5635 103.121 36.8714 99.0402 34.1328C94.959 31.3941 89.1953 31.6805 85.2037 34.5445C81.2299 37.4084 79.1177 42.5456 79.6279 47.4322" stroke="black" stroke-width="1.44" stroke-linecap="round" stroke-linejoin="round"></path><path d="M50.9902 39.8944C53.5052 37.3884 57.0583 35.9475 60.6024 35.9922C64.1555 36.028 67.6639 37.5674 70.1072 40.136" stroke="black" stroke-width="1.44" stroke-linecap="round" stroke-linejoin="round"></path><path d="M71.2312 37.9072C70.8553 39.2229 70.4794 40.5295 70.1035 41.8452" stroke="black" stroke-width="1.44" stroke-linecap="round" stroke-linejoin="round"></path><path d="M61.8086 53.3457C65.3975 59.3332 73.4792 62.1792 80.0306 59.7538" stroke="black" stroke-width="1.44" stroke-linecap="round" stroke-linejoin="round"></path><path d="M60.4922 54.2152C61.1187 52.819 62.4254 51.7629 63.9111 51.4229" stroke="black" stroke-width="1.44" stroke-linecap="round" stroke-linejoin="round"></path><path d="M87.8359 53.301C91.0489 53.6053 94.2888 53.48 97.466 52.9072" stroke="black" stroke-width="0.83" stroke-linecap="round" stroke-linejoin="round"></path><path d="M90.9335 46.9032C93.573 46.9032 95.7128 44.7634 95.7128 42.1239C95.7128 39.4845 93.573 37.3447 90.9335 37.3447C88.294 37.3447 86.1543 39.4845 86.1543 42.1239C86.1543 44.7634 88.294 46.9032 90.9335 46.9032Z" stroke="black" stroke-width="1.44" stroke-linecap="round" stroke-linejoin="round"></path><path d="M28.6055 57.0527C28.7666 66.7544 28.9277 76.456 29.0798 86.1666V86.3277" stroke="black" stroke-width="1.44" stroke-linecap="round" stroke-linejoin="round"></path><path d="M29.3555 86.1649C33.8931 83.7216 38.4844 81.3946 43.0309 78.9871C44.087 78.4412 45.1252 77.8863 46.1723 77.3135" stroke="black" stroke-width="1.44" stroke-linecap="round" stroke-linejoin="round"></path><path d="M3.44383 36.7891C2.45039 41.7294 2.0924 46.9292 3.56913 51.7532C5.05481 56.5682 9.11806 60.3809 14.0763 61.258C19.2851 62.1708 24.6193 59.5575 28.2798 56.6309C30.374 54.9573 31.9313 53.1941 32.5936 51.9233" stroke="black" stroke-width="1.44" stroke-linecap="round" stroke-linejoin="round"></path><path d="M8.10978 37.8193C6.9105 42.4375 5.15632 53.0341 13.8109 55.9159C18.6259 57.518 24.2285 53.947 27.8711 50.3044C29.0525 49.123 30.028 47.9237 30.7082 46.9034" stroke="black" stroke-width="1.44" stroke-linecap="round" stroke-linejoin="round"></path><path d="M30.2168 45.9277C30.4763 46.0799 30.7269 46.2589 30.9596 46.4468C32.5706 47.7356 33.5193 49.8388 33.5372 51.9152C33.5462 52.8997 33.3493 53.8842 32.9197 54.7791" stroke="black" stroke-width="1.44" stroke-linecap="round" stroke-linejoin="round"></path><path d="M27.3343 49.998C27.0032 48.3065 27.4417 46.5703 28.3814 45.1293C29.5181 43.3483 31.4065 42.0237 33.5187 41.8447" stroke="black" stroke-width="1.44" stroke-linecap="round" stroke-linejoin="round"></path><path d="M29.7949 56.5146C31.0569 58.5105 34.0551 59.1459 36.0061 57.8392" stroke="black" stroke-width="1.44" stroke-linecap="round" stroke-linejoin="round"></path><path d="M4.79813 26.6396C4.13584 26.6575 3.51829 26.8813 2.9813 27.2393C1.75517 28.0537 0.940729 29.5841 1.00338 31.0877C1.08393 33.1193 2.44431 34.9362 4.19849 35.9833C4.31483 36.0549 4.44013 36.1265 4.55648 36.1802C5.66626 36.7709 6.8924 37.0931 8.14538 37.2542C9.04037 37.3705 9.96221 37.4063 10.8661 37.3795C12.8172 37.3258 15.1889 36.7351 15.6722 34.8377" stroke="black" stroke-width="1.44" stroke-linecap="round" stroke-linejoin="round"></path><path d="M14.8145 33.4409C15.0472 33.951 15.3425 34.4075 15.7005 34.8102C16.8998 36.2153 18.7614 37.0745 20.5245 37.7816C22.1623 38.4438 23.997 39.0524 25.7244 39.0524C26.7715 39.0524 27.7739 38.8376 28.6778 38.2649C29.0895 38.0053 29.4296 37.701 29.7339 37.352C31.2733 35.5441 31.4075 32.6264 30.4141 30.3532C30.3515 30.21 30.2977 30.0757 30.2261 29.9415C29.7876 29.1002 29.179 28.2679 28.472 27.4892C26.9236 25.7798 24.901 24.2404 23.1736 23.0412L22.9946 22.9248" stroke="black" stroke-width="1.44" stroke-linecap="round" stroke-linejoin="round"></path><path d="M2.78597 26.5862C1.33609 24.0982 2.15052 20.9478 3.12606 18.2449C4.45064 14.6024 6.04372 11.0045 8.40649 7.93472C10.7693 4.86492 13.9912 2.33211 17.7502 1.38342C21.5091 0.434739 25.8051 1.23128 28.5795 3.94308C31.0855 6.38639 32.0163 10.4496 30.6022 13.6C30.4501 13.9311 30.2711 14.2533 30.0742 14.5666C28.2663 17.3321 24.4894 18.6119 21.3659 17.529C20.82 17.341 20.3009 17.0725 19.8176 16.7503C17.5622 15.2557 16.1392 12.4902 16.3987 9.77838" stroke="black" stroke-width="1.44" stroke-linecap="round" stroke-linejoin="round"></path><path d="M30.6637 13.6172C32.0778 15.7383 32.033 18.7097 30.5652 20.786C30.1983 21.3051 29.7508 21.7616 29.2317 22.1464C27.7102 23.283 25.6786 23.7395 23.8439 23.2741C23.6112 23.2114 23.3874 23.1488 23.1637 23.0414C21.0157 22.2269 19.3779 20.1685 19.1094 17.8773" stroke="black" stroke-width="1.44" stroke-linecap="round" stroke-linejoin="round"></path><path d="M10.9629 28.7607C14.2922 25.6999 15.1783 20.4642 14.1938 16.043" stroke="black" stroke-width="1.11" stroke-linecap="round" stroke-linejoin="round"></path><path d="M11.6816 29.2719C12.2544 27.5893 13.8028 26.2826 15.548 25.9873" stroke="black" stroke-width="1.11" stroke-linecap="round" stroke-linejoin="round"></path><path d="M29.9824 37.4792C33.8488 36.3783 35.415 30.5699 33.6698 27.1689" stroke="black" stroke-width="1.44" stroke-linecap="round" stroke-linejoin="round"></path><path d="M30.9746 30.3003C31.8069 29.0652 32.5945 27.9554 33.3284 26.9172C36.0492 23.0956 38.2509 20.2227 40.8284 15.3809" stroke="black" stroke-width="1.44" stroke-linecap="round" stroke-linejoin="round"></path><path d="M28.4609 27.4906C29.3649 26.0765 30.2599 24.6804 31.1548 23.2663C34.0815 18.7108 36.9812 14.1464 39.8989 9.59091L40.1047 9.25977" stroke="black" stroke-width="1.44" stroke-linecap="round" stroke-linejoin="round"></path><path d="M78.4314 13.8767C78.4403 13.9483 78.4582 14.002 78.4672 14.0736C79.6128 19.7478 83.497 24.894 88.7954 27.221C94.1474 29.5658 100.788 28.8588 105.317 25.1715C105.335 25.1536 105.353 25.1446 105.379 25.1178C109.908 21.3946 109.586 13.832 107.545 8.32783L39.7052 5.51758C39.6784 6.9406 39.741 8.30098 39.9021 9.58081C40.1617 11.6214 40.636 13.4919 41.3073 15.1834C41.361 15.3266 41.4057 15.4519 41.4684 15.5772C44.4308 22.7102 50.7136 26.7019 57.1575 27.749C66.0537 29.1989 76.5609 22.8803 78.4672 14.0647C78.503 13.9394 78.5388 13.8051 78.5567 13.6798" stroke="black" stroke-width="1.44" stroke-linecap="round" stroke-linejoin="round"></path><path d="M29.8105 22.1748C30.2759 22.6402 30.437 22.6402 30.9024 23.1056" stroke="black" stroke-width="1.44" stroke-linecap="round" stroke-linejoin="round"></path><path d="M106.943 39.6338C115.482 46.8563 121.093 57.444 122.283 68.5687" stroke="black" stroke-width="1.44" stroke-linecap="round" stroke-linejoin="round"></path><path d="M107.82 48.6025C113.369 53.8024 116.761 61.2487 117.03 68.8561" stroke="black" stroke-width="1.44" stroke-linecap="round" stroke-linejoin="round"></path><path d="M115.393 73.1276C115.312 73.1008 115.24 73.065 115.187 73.0381C114.435 72.5996 114.283 71.4093 114.757 70.6396C115.267 69.8251 116.207 69.3956 117.12 69.1181C117.147 69.1092 117.174 69.1002 117.2 69.0913C118.794 68.6169 120.503 68.3753 122.123 68.7601C122.15 68.7691 122.195 68.778 122.221 68.787C123.805 69.2076 125.255 70.2995 125.801 71.8389C126.347 73.414 125.739 75.392 124.253 76.1348" stroke="black" stroke-width="1.44" stroke-linecap="round" stroke-linejoin="round"></path><path d="M122.783 74.4961C123.204 75.0689 123.589 75.6864 123.938 76.3129C125.799 79.7139 126.533 83.7502 125.513 87.4734C124.287 91.8767 120.349 95.5819 115.793 95.9041C113.207 96.0921 110.576 95.0271 108.714 93.2371C107.3 91.8767 106.333 90.1046 106.181 88.1357C106.065 86.6142 106.423 85.0032 107.443 83.8666C108.463 82.73 110.817 81.8708 112.885 83.607H112.894" stroke="black" stroke-width="1.44" stroke-linecap="round" stroke-linejoin="round"></path><path d="M117.369 75.416C115.544 76.5437 114.595 78.2531 113.521 80.1057C113.288 80.4995 113.109 80.9381 112.993 81.3856C112.796 82.1105 112.751 82.8891 112.886 83.6051C113.047 84.527 113.494 85.3683 114.264 85.9231C115.606 86.8808 117.495 86.666 118.927 85.8605C120.359 85.055 121.424 83.7483 122.453 82.4685" stroke="black" stroke-width="1.44" stroke-linecap="round" stroke-linejoin="round"></path><path d="M108.956 93.3504C108.876 93.3146 108.795 93.2788 108.715 93.2341C106.307 92.0348 104.598 89.0277 104.293 86.9871C103.971 84.866 104.589 82.5301 106.209 81.1428C107.301 80.1942 108.867 79.8004 110.254 80.0868C110.934 80.2121 111.57 80.5164 112.08 80.9817" stroke="black" stroke-width="1.44" stroke-linecap="round" stroke-linejoin="round"></path><path d="M110.354 79.5605C110.371 78.397 110.819 77.2962 111.454 76.3386C112.528 74.7634 114.121 73.6267 115.115 73.4209" stroke="black" stroke-width="1.44" stroke-linecap="round" stroke-linejoin="round"></path><path d="M88.5234 86.0959C88.5234 86.0959 88.5861 86.0959 88.6129 86.0869C89.7943 86.0243 90.8504 85.55 91.6738 84.825C93.0879 83.572 93.8218 81.5494 93.3832 79.5625" stroke="black" stroke-width="1.44" stroke-linecap="round" stroke-linejoin="round"></path><path d="M81.9276 85.9959C81.6233 85.9959 81.3011 85.9691 81.0058 85.8975C79.8065 85.6379 78.7146 84.8593 78.1329 83.7764C77.39 82.4249 77.4437 80.6618 78.2939 79.373" stroke="black" stroke-width="1.44" stroke-linecap="round" stroke-linejoin="round"></path><path d="M82.1602 85.987C82.1602 85.987 82.1602 85.9781 82.1691 85.9781C82.8851 84.913 84.156 84.2507 85.4537 84.2865C86.4471 84.3044 87.4137 84.743 88.1118 85.4411C88.2998 85.638 88.4698 85.8528 88.622 86.0855C88.6309 86.1034 88.6488 86.1213 88.6578 86.1481" stroke="black" stroke-width="1.44" stroke-linecap="round" stroke-linejoin="round"></path><path d="M91.7305 84.8864C97.2973 82.3446 104.761 78.702 109.55 75.8291" stroke="black" stroke-width="1.44" stroke-linecap="round" stroke-linejoin="round"></path><path d="M54.1211 87.9552C55.9379 88.2058 57.6473 87.7941 59.0525 86.9617C60.7619 85.9594 62.0059 84.3036 62.346 82.46" stroke="black" stroke-width="1.44" stroke-linecap="round" stroke-linejoin="round"></path><path d="M48.4199 85.7453C50.2636 84.6713 52.5995 84.5191 54.5685 85.2978C54.6848 85.3515 54.8012 85.3962 54.9175 85.4499" stroke="black" stroke-width="1.44" stroke-linecap="round" stroke-linejoin="round"></path><path d="M44.2489 81.2695C43.524 82.5225 43.4703 84.1424 44.1415 85.4223C44.3832 85.8698 44.6964 86.2814 45.0723 86.6215C45.7615 87.2391 46.6564 87.6597 47.5872 87.7313" stroke="black" stroke-width="1.44" stroke-linecap="round" stroke-linejoin="round"></path><path d="M48.409 85.9668C48.2569 86.5843 48.1137 87.2019 47.9705 87.8284C47.0934 91.7752 46.5296 95.7937 46.2969 99.8391" stroke="black" stroke-width="1.44" stroke-linecap="round" stroke-linejoin="round"></path><path d="M52.3662 104.334C52.3662 104.334 52.3483 104.244 52.3483 104.191C51.7487 100.7 52.3215 93.5581 53.7803 87.866C53.9951 87.0068 54.2367 86.1924 54.4963 85.4316" stroke="black" stroke-width="1.44" stroke-linecap="round" stroke-linejoin="round"></path><path d="M82.198 85.9961C81.831 91.724 81.4552 99.4477 81.0703 105.176" stroke="black" stroke-width="1.44" stroke-linecap="round" stroke-linejoin="round"></path><path d="M88.0963 85.458C88.3737 90.0761 88.4811 97.5582 87.0312 102.373" stroke="black" stroke-width="1.44" stroke-linecap="round" stroke-linejoin="round"></path><path d="M76.584 109.687C77.658 110.26 78.9288 110.466 80.1281 110.224C79.6001 108.81 80.1908 107.172 81.22 106.071C81.4796 105.794 81.757 105.543 82.0524 105.32C82.9384 104.63 83.9676 104.129 85.0058 103.655C85.7129 103.324 86.4289 103.011 87.1538 102.751C88.3262 102.312 89.5166 102.035 90.7516 102.098C92.7564 102.196 95.1908 104.434 95.5309 106.411" stroke="black" stroke-width="1.44" stroke-linecap="round" stroke-linejoin="round"></path><path d="M80.201 105.56C77.695 104.987 75.1353 106.795 73.9898 109.086C73.9182 109.229 73.8466 109.373 73.7839 109.525C73.6855 109.766 73.587 110.008 73.4975 110.259C72.8173 112.263 72.7636 114.474 72.7189 116.613C72.6831 118.412 72.6383 120.202 72.6115 121.992C72.5936 122.968 72.5757 123.934 72.5488 124.892" stroke="black" stroke-width="1.44" stroke-linecap="round" stroke-linejoin="round"></path><path d="M84.2305 113.535C87.3629 110.304 91.2651 107.736 95.5431 106.456C96.635 106.116 97.7627 105.865 98.8904 105.722C104.493 104.979 110.507 106.688 114.427 110.752C115.322 111.682 116.101 112.739 116.719 113.884C118.473 117.079 119.063 120.901 118.151 124.373C117.972 125.071 117.73 125.743 117.426 126.405" stroke="black" stroke-width="1.44" stroke-linecap="round" stroke-linejoin="round"></path><path d="M72.3652 124.883L72.5442 124.945C86.5687 129.752 114.662 130.056 117.204 126.628" stroke="black" stroke-width="1.44" stroke-linecap="round" stroke-linejoin="round"></path><path d="M52.5254 104.165C57.3225 103.932 59.8643 112.461 59.6137 119.12C59.5868 120.069 59.4884 120.973 59.3363 121.805C59.2468 122.351 59.1304 122.87 58.9783 123.344" stroke="black" stroke-width="1.44" stroke-linecap="round" stroke-linejoin="round"></path><path d="M57.6372 119.029C57.0197 115.208 55.1223 111.655 52.4105 108.907C50.54 107.019 48.2936 105.524 45.8055 104.593C42.494 103.349 38.8335 103.152 35.3878 103.886C32.4612 104.513 29.6868 105.819 27.3956 107.735C25.3371 109.453 23.5292 111.816 22.1957 114.447C20.8174 117.159 19.9493 120.157 19.8329 123.039C19.7792 124.14 19.8419 125.24 20.0298 126.279" stroke="black" stroke-width="1.44" stroke-linecap="round" stroke-linejoin="round"></path><path d="M20.377 126.538C32.7904 130.53 46.7165 128.811 58.8436 124.032" stroke="black" stroke-width="1.44" stroke-linecap="round" stroke-linejoin="round"></path><path d="M35.3144 103.492C35.1712 101.917 36.3616 100.467 37.8025 99.8139C39.2434 99.1695 40.8813 99.1695 42.4565 99.2769C43.7363 99.3574 45.0519 99.5185 46.3049 99.8407C47.719 100.199 49.0436 100.754 50.1802 101.64C51.0931 102.347 51.8449 103.304 52.3192 104.351C52.9726 105.801 53.1068 107.457 52.4266 108.889" stroke="black" stroke-width="1.44" stroke-linecap="round" stroke-linejoin="round"></path><path d="M72.9141 122.012C74.3192 122.397 75.8407 122.763 77.4427 123.095C80.3425 123.694 83.5286 124.187 86.849 124.562C97.5352 125.797 109.609 125.833 117.968 124.321" stroke="black" stroke-width="1.44" stroke-linecap="round" stroke-linejoin="round"></path><path d="M86.9017 124.068C85.8814 121.088 86.2484 118.108 88.8438 116.318C91.4393 114.528 94.7597 114.116 97.9101 114.313C101.051 114.51 104.148 115.244 107.281 115.53C110.422 115.808 113.733 115.593 116.472 114.018" stroke="black" stroke-width="1.44" stroke-linecap="round" stroke-linejoin="round"></path><path d="M77.4531 123.183C77.4531 123.183 77.4531 123.12 77.4441 123.093C77.113 118.242 75.7257 114.591 73.4972 110.268C73.4972 110.259 73.4883 110.259 73.4883 110.25" stroke="black" stroke-width="1.44" stroke-linecap="round" stroke-linejoin="round"></path><path d="M20.4082 123.056C29.1612 126.314 41.7626 126.081 52.0908 123.844C54.6863 123.289 57.1296 122.6 59.3402 121.803C59.3581 121.803 59.3939 121.794 59.4118 121.785" stroke="black" stroke-width="1.44" stroke-linecap="round" stroke-linejoin="round"></path><path d="M52.0206 123.952C52.0206 123.952 52.0564 123.881 52.0922 123.845C53.1035 122.162 53.023 119.549 51.7879 118.036C50.517 116.497 48.5391 115.683 46.5612 115.387C44.5922 115.092 42.5695 115.262 40.5826 115.369C34.5057 115.691 28.4108 115.423 22.3965 114.546" stroke="black" stroke-width="1.44" stroke-linecap="round" stroke-linejoin="round"></path><path d="M29.2754 86.498C33.813 86.5249 40.5791 86.6591 45.0451 86.6591" stroke="black" stroke-width="1.44" stroke-linecap="round" stroke-linejoin="round"></path><path d="M59.0625 86.971C66.9026 87.0515 72.9617 86.6219 80.8018 86.7025" stroke="black" stroke-width="1.44" stroke-linecap="round" stroke-linejoin="round"></path><path d="M27.6289 39.0889C27.7453 41.022 27.8705 42.9373 27.9869 44.8705" stroke="black" stroke-width="1.44" stroke-linecap="round" stroke-linejoin="round"></path><path d="M85.4956 111.788C83.6609 111.887 81.7993 111.35 80.3047 110.285C84.001 107.68 89.004 106.4 93.4789 107.045" stroke="black" stroke-width="1.44" stroke-linecap="round" stroke-linejoin="round"></path><path d="M88.7568 42.8384C90.1951 42.8384 91.3612 41.3959 91.3612 39.6165C91.3612 37.837 90.1951 36.3945 88.7568 36.3945C87.3184 36.3945 86.1523 37.837 86.1523 39.6165C86.1523 41.3959 87.3184 42.8384 88.7568 42.8384Z" fill="white"></path><g style="mix-blend-mode:darken"><path d="M9.19518 31.8825C9.61582 29.9135 9.06093 27.8819 8.88194 25.8771C8.35389 20.0508 11.2 14.0275 16.0508 10.7429C16.2745 10.5908 16.5072 10.4476 16.7668 10.4297C17.4649 10.376 17.8766 11.1546 18.2256 11.7543C19.586 14.1349 22.8438 15.3253 25.305 14.1081C27.7125 12.9088 28.7059 10.0627 29.4846 7.49414C30.9434 9.01562 31.2119 11.5395 30.1111 13.3384C31.722 15.5669 31.7489 18.8157 30.1827 21.0711C29.9142 21.4649 29.5741 21.8945 29.6815 22.3598C29.762 22.6999 30.0574 22.9416 30.2274 23.2548C31.203 25.0448 27.5066 27.2465 28.876 28.759C31.5072 31.1576 31.4177 35.901 28.697 38.1921C28.0078 38.7739 27.1666 39.2124 26.2716 39.3198C25.2423 39.4451 24.2041 39.1498 23.2197 38.8097C20.5794 37.9147 18.0287 36.7691 15.6122 35.3819C15.2453 35.176 14.8426 34.9523 14.4309 35.0328C14.0639 35.1044 13.7865 35.3908 13.509 35.6414C12.3276 36.6975 8.83718 37.9505 7.46785 36.5096C5.93742 34.8986 8.81929 33.7441 9.21308 31.8735L9.19518 31.8825Z" fill="#CBE4F2"></path></g><g style="mix-blend-mode:darken"><path d="M88.2666 109.452C87.8191 110.427 88.0518 111.68 88.8305 112.414C89.1706 112.736 89.5912 112.96 90.0029 113.184C90.5399 113.47 91.0858 113.765 91.6228 114.052C89.8239 114.965 88.0339 116.066 86.9331 117.757C85.8323 119.449 85.5996 121.847 86.8704 123.413C85.7249 123.619 81.1067 122.796 80.5429 122.912C78.7618 123.306 77.1688 121.597 76.6139 119.869C76.05 118.133 76.0769 116.227 75.2893 114.58C74.6539 113.255 73.5083 112.092 73.4456 110.624C73.4188 109.953 73.6336 109.299 73.9468 108.709C75.1461 106.471 77.9743 105.254 80.4176 105.916C79.4957 106.23 79.1019 107.42 79.3883 108.351C79.6658 109.282 80.4355 109.989 81.241 110.543C82.306 111.286 83.4963 111.859 84.7493 112.226C85.7786 111.161 86.9062 110.042 88.2666 109.452Z" fill="#CBE4F2"></path></g><g style="mix-blend-mode:darken"><path d="M45.514 110.214C46.1047 108.442 46.051 106.536 45.9615 104.674C46.8475 105.202 48.0199 105.202 48.906 104.674C49.792 104.146 50.3469 103.117 50.3022 102.088C51.5462 103.153 52.4233 104.639 52.7455 106.25C52.6381 105.131 54.267 104.549 55.2246 105.14C56.1822 105.73 56.5492 106.912 56.8535 107.995C57.4621 110.17 58.0707 112.344 58.6793 114.51C59.0283 115.772 59.3863 117.061 59.3952 118.368C59.4042 119.674 59.0193 121.053 58.0796 121.966C56.8893 123.129 54.088 124.337 52.4322 124.498C52.7186 122.35 52.8439 119.988 51.6178 118.207C50.6781 116.846 49.0939 116.077 47.5008 115.62C45.5945 115.074 43.357 115.396 41.6387 114.841C42.9275 113.902 45.0038 111.772 45.5229 110.205L45.514 110.214Z" fill="#CBE4F2"></path></g><g style="mix-blend-mode:darken"><path d="M121.946 86.1993C122.77 86.3783 123.629 85.8592 124.067 85.1343C124.506 84.4094 124.604 83.5412 124.613 82.691C124.801 83.765 124.864 84.8658 124.801 85.9487C124.56 89.8956 122.295 93.8962 118.608 95.3371C116.191 96.2858 113.336 96.0263 111.126 94.6659C108.942 93.3234 107.474 91.0502 106.517 88.6695C104.727 84.2214 106.705 77.5359 112.45 80.8831C115.117 82.4315 118.429 87.1659 120.828 81.8318C120.308 83.1743 120.031 85.7697 121.955 86.1904L121.946 86.1993Z" fill="#CBE4F2"></path></g><g style="mix-blend-mode:darken"><path d="M99.6858 40.253C99.9095 36.8521 98.6476 35.9034 97.6631 34.8115C99.4263 34.9368 100.984 36.0645 101.923 37.4607C102.863 38.8569 103.275 40.5126 103.534 42.1504C103.776 43.654 103.901 45.2113 103.445 46.6701C103.006 48.0573 92.2484 52.1563 91.971 50.0084C91.9173 49.5609 99.0951 49.0955 99.6858 40.253Z" fill="#CBE4F2"></path></g><g style="mix-blend-mode:darken"><path d="M77.4653 25.7346C82.4057 27.8915 87.7219 32.0711 93.1097 32.089C98.4976 32.1069 104.897 29.1624 106.91 24.1594C103.053 26.5311 98.5334 27.7931 94.0047 27.7662C90.4069 27.7394 89.1091 27.6946 86.0841 25.7346C83.059 23.7746 79.497 18.3868 78.8257 14.8516C75.201 23.4703 67.4325 29.3772 57.9635 27.5514C55.923 27.1576 49.5507 24.8307 47.9844 23.4703C46.2034 21.9219 43.5811 17.814 41.4062 16.8921C41.7284 20.6958 41.8627 28.688 41.8627 28.688C41.8627 28.688 50.4814 34.1295 58.42 33.9058C73.9928 33.4583 77.2864 25.663 77.4743 25.7435L77.4653 25.7346Z" fill="#E89402"></path></g><path d="M43.3008 21.6904C45.5741 40.3509 45.932 60.2464 47.3998 75.8549C47.3998 75.8549 96.7853 73.8054 107.713 74.2619" stroke="#FFD75C" stroke-width="1.11" stroke-miterlimit="10"></path><path d="M29.8164 58.9297C30.246 68.148 30.0402 76.4356 30.5055 84.0251" stroke="#FBB01D" stroke-width="1.11" stroke-miterlimit="10"></path><path d="M15.9065 60.2078C10.7871 60.2078 5.6678 54.9006 4.63856 50.9895C3.61828 47.0784 3.98522 41.1178 4.88021 37.1709" stroke="#959494" stroke-width="1.11" stroke-miterlimit="10"></path><path d="M108.59 43.0605C114.989 48.69 119.858 58.9376 120.878 67.3862" stroke="#959494" stroke-width="1.11" stroke-miterlimit="10"></path><path d="M86.7188 87.0146C86.9426 89.9144 86.0207 97.486 85.627 100.368" stroke="#959494" stroke-width="1.11" stroke-miterlimit="10"></path><path d="M49.3898 87.2822C48.8796 88.6695 47.752 94.9164 47.752 98.1831" stroke="#959494" stroke-width="1.11" stroke-miterlimit="10"></path><path d="M30.9688 44.7446C31.9174 43.8407 33.1794 43.2679 34.4771 43.1426" stroke="#FBB01D" stroke-width="1.11" stroke-miterlimit="10"></path><path d="M107.305 10.0095C96.6369 9.75894 52.2008 7.72732 41.0313 7.46777C41.0313 7.46777 40.8613 23.3538 58.9758 26.3699" stroke="#959494" stroke-width="1.44" stroke-linecap="round" stroke-linejoin="round"></path><path d="M57.1575 7.64746L49.9707 23.256L56.4146 25.7351L64.8365 7.88911L57.1575 7.64746Z" fill="white"></path><path d="M93.5852 8.88184L86.3984 24.4993L92.8424 26.9784L101.273 9.13243L93.5852 8.88184Z" fill="white"></path><path d="M79.5957 13.0361C80.2132 15.8106 82.4686 23.7223 92.5372 27.0158" stroke="#959494" stroke-width="1.44" stroke-linecap="round" stroke-linejoin="round"></path></svg> 