<?xml version="1.0" encoding="UTF-8"?> <svg xmlns="http://www.w3.org/2000/svg" width="101" height="79" viewBox="0 0 101 79" fill="none"><path d="M99.2943 44.2002L100.105 45.3273L83.4366 76.4221L82.9258 74.6841L99.2943 44.2002Z" fill="#AAC6D7"></path><path d="M99.2948 44.2013L82.9315 74.6905C82.8262 74.6905 82.7314 74.6957 82.6261 74.6957V74.5851C77.4754 72.2678 67.8902 67.7278 62.3393 64.8206L62.2129 64.7627L73.4096 40.9307L99.2895 44.2066L99.2948 44.2013ZM82.3154 71.9254L96.4297 45.7445L74.2312 42.5686L64.309 63.8463L82.3101 71.9254H82.3154Z" fill="#69A2A1"></path><path d="M96.43 45.7393L82.3156 71.9203L64.3145 63.8411L74.2314 42.5635L96.43 45.7393Z" fill="#CDEFF7"></path><path d="M82.9263 74.6855L83.4372 76.4183L50.8266 77.2294V77.0345C50.7213 76.4499 50.7687 75.839 50.953 75.2754L50.9636 75.2649L51.0162 75.3018C60.4276 75.1964 72.7513 75.0016 82.6261 74.6961C82.7315 74.6961 82.8263 74.6908 82.9316 74.6908L82.9263 74.6855Z" fill="#AAC6D7"></path><path d="M57.4052 65.9893H56.5098C56.4835 65.4889 56.4203 65.0623 56.3992 64.8042L62.1609 64.8622L62.2135 64.7568L62.3399 64.8148C67.8909 67.722 77.4708 72.2619 82.6267 74.5793V74.6899C72.7519 74.9954 60.4282 75.1903 51.0168 75.2956L50.9641 75.2587L43.5488 69.6707V69.5917C44.3388 69.5338 45.1077 69.4442 45.845 69.3126L45.9767 69.2494C45.9872 69.281 46.0083 69.3231 46.0294 69.3547C46.3348 69.9498 46.8036 70.4818 47.4198 70.7504C47.5672 70.8136 47.7305 70.861 47.8937 70.8926L49.4526 71.9407H57.0207L54.3453 70.3501L54.3137 70.2237C54.5559 70.1658 54.7824 70.0552 54.972 69.8919C55.0826 69.8024 55.1827 69.7076 55.2775 69.6075L56.7468 70.5345L58.9693 71.9354L61.5499 73.5576L65.4367 73.5312L68.9126 73.5102L77.3022 73.4522L74.2318 71.9407L71.5195 70.6029L68.7651 69.2441L65.6737 67.7167L62.1661 65.9893H57.4104H57.4052Z" fill="#AAC6D7"></path><path d="M70.3423 71.9131L74.2238 71.9394L77.2942 73.4509L68.9045 73.5089V73.4509C68.2936 73.0875 67.4194 72.5293 66.4082 71.8867L70.3423 71.9131Z" fill="#69A2A1"></path><path d="M74.2272 71.9403L70.3458 71.9139C69.6137 71.5031 68.8132 71.0449 67.9863 70.5762L71.5149 70.6025L74.2272 71.9403Z" fill="#69A2A1"></path><path d="M71.5161 70.602L67.9875 70.5756C67.1922 70.1332 66.3759 69.6697 65.5859 69.2168L68.7564 69.2642V69.2431L71.5161 70.602Z" fill="#69A2A1"></path><path d="M70.3457 71.9149L66.4116 71.8885C65.7638 71.4777 65.0633 71.0195 64.3418 70.5508L67.981 70.5771C68.8078 71.0459 69.6136 71.5041 70.3404 71.9149H70.3457Z" fill="#69A2A1"></path><path d="M68.9126 73.4525V73.5104L65.4367 73.5315V73.4525C64.6941 73.0048 63.804 72.4623 62.8613 71.8672L66.4163 71.8883C67.4274 72.5361 68.3017 73.0891 68.9126 73.4525Z" fill="#69A2A1"></path><path d="M68.7608 69.2438V69.2648L65.585 69.2174C64.6529 68.6908 63.7575 68.1799 62.957 67.7322L65.6693 67.7217L68.7608 69.249V69.2438Z" fill="#69A2A1"></path><path d="M67.9837 70.5765L64.3445 70.5502C63.644 70.1025 62.9278 69.6285 62.2168 69.165L65.5821 69.2177C66.3721 69.6654 67.1884 70.1288 67.9837 70.5765Z" fill="#69A2A1"></path><path d="M66.411 71.8875L62.856 71.8665C62.1714 71.4346 61.4604 70.9869 60.7441 70.5234L64.3465 70.5498C65.0627 71.0185 65.7684 71.4767 66.4162 71.8875H66.411Z" fill="#69A2A1"></path><path d="M65.6673 67.7216L62.9551 67.7322C61.2066 66.742 59.9531 66.031 59.9531 66.031V65.9941H62.1598L65.6673 67.7216Z" fill="#69A2A1"></path><path d="M65.583 69.2171L62.2177 69.1644C61.4804 68.6746 60.7483 68.2006 60.0742 67.7476L62.955 67.7266C63.7555 68.1742 64.6509 68.6851 65.583 69.2118V69.2171Z" fill="#69A2A1"></path><path d="M65.4361 73.4511V73.5301L61.5494 73.5564L58.9688 71.9343L59.0267 71.8447L62.8607 71.8711C63.8087 72.4662 64.6935 73.0034 65.4361 73.4563V73.4511Z" fill="#69A2A1"></path><path d="M64.344 70.5501L60.7417 70.5238C59.9991 70.055 59.2565 69.5758 58.5508 69.1123H58.556L62.2163 69.165C62.9273 69.6284 63.6435 70.0972 64.344 70.5501Z" fill="#69A2A1"></path><path d="M62.9553 67.7322L60.0744 67.7532C59.0264 67.0633 58.0942 66.4418 57.4043 65.9941H59.9533V66.031C59.9533 66.031 61.2068 66.742 62.9553 67.7322Z" fill="#69A2A1"></path><path d="M62.8567 71.8674L59.0226 71.8411L58.9647 71.9306L56.7422 70.5296L56.7633 70.498L60.75 70.5244C61.4663 70.9878 62.1773 71.4355 62.8619 71.8674H62.8567Z" fill="#69A2A1"></path><path d="M62.218 69.1707L58.5578 69.1127H58.5525C57.8468 68.6651 57.1779 68.2174 56.5723 67.8224L56.6039 67.775L60.0745 67.7539C60.7539 68.2016 61.486 68.6809 62.218 69.1707Z" fill="#69A2A1"></path><path d="M60.7448 70.5244L56.758 70.4981L56.7369 70.5297L55.2676 69.6027C55.8469 69.0234 56.1682 68.3756 56.3367 67.7383L56.5263 67.791C56.5263 67.791 56.5526 67.812 56.5631 67.8173C57.1688 68.2176 57.8429 68.66 58.5434 69.1129C59.2491 69.5764 59.9917 70.0504 60.7343 70.5244H60.7448Z" fill="#69A2A1"></path><path d="M60.0744 67.7532L56.6038 67.7743L56.5722 67.8217C56.5722 67.8217 56.5458 67.8006 56.5353 67.7954L56.3457 67.7427C56.5142 67.1212 56.5406 66.5155 56.5142 65.9994H56.7407L57.4043 65.9941C58.0889 66.4418 59.0211 67.0633 60.0744 67.7532Z" fill="#69A2A1"></path><path d="M55.272 69.6074C55.1719 69.7127 55.0771 69.8023 54.9665 69.8918C54.7769 70.0551 54.5504 70.1657 54.3082 70.2236C53.6762 70.3974 52.9231 70.2499 52.3701 69.8865L52.3227 69.8391C52.012 70.1604 51.6591 70.4237 51.2483 70.6028C50.6427 70.8714 49.9633 70.9135 49.3049 70.9504C48.8362 70.9767 48.3464 70.9873 47.8882 70.8925C47.725 70.8609 47.5617 70.8135 47.4143 70.7503C46.8033 70.4817 46.3293 69.9497 46.0239 69.3546C46.0028 69.323 45.987 69.2808 45.9712 69.2492L45.8396 69.3125C45.1022 69.4441 44.3333 69.5337 43.5381 69.5916C43.1062 69.6232 42.6638 69.6495 42.2162 69.6653C36.2439 69.8391 29.0234 68.2907 22.8984 65.473C21.8135 68.396 21.5923 74.7109 21.8872 77.7866V77.9499C11.3541 77.576 0.673502 75.0321 1.01583 70.0656V69.955C2.01121 59.49 5.12902 49.5464 9.95845 40.1979L10.0691 40.0662C5.95587 36.5691 3.41212 31.2602 3.31732 25.8618C3.22779 19.9157 6.48779 12.853 12.0493 9.85621L12.3705 9.99841C13.882 6.66983 16.2309 3.71519 19.1591 1.54529C19.6068 1.21348 20.1651 0.88168 20.697 1.05022C20.9129 1.12395 21.0867 1.27142 21.2394 1.45049L20.8655 1.63482C19.2592 3.62565 18.1848 6.02202 17.7582 8.54479L18.0374 8.57639C20.4547 7.84431 22.3823 7.32291 24.1887 7.04903C25.5791 6.8331 26.8905 6.77516 28.2966 6.8805C29.7397 6.98057 31.2775 7.2597 33.0892 7.72318C33.9424 7.94438 34.864 8.21298 35.8594 8.51846H36.0016C36.5757 8.68699 37.0918 8.85026 37.5658 9.01353C40.8784 10.1143 41.9686 11.0886 43.4222 14.6858L43.4327 14.9123C43.0061 14.9333 42.5637 14.9702 42.1003 15.0281C39.6145 15.3652 36.8232 16.4133 36.8232 16.4133C31.5356 14.5278 24.0992 15.8708 20.776 18.4568L20.3968 18.5674C16.9683 18.1671 13.5029 18.0144 10.0533 18.0987C9.39493 18.1197 8.71554 18.1461 8.13096 18.4463C7.28831 18.8781 6.78798 19.8051 6.63525 20.7426C6.47725 21.6748 6.62472 22.6281 6.76165 23.5655C6.84065 24.0764 7.06185 24.7084 7.5727 24.7137C7.85183 24.719 8.08882 24.5135 8.23102 24.2713C8.53648 23.7709 8.51542 23.1442 8.58388 22.5543C8.64708 21.975 8.87881 21.3219 9.42653 21.106C9.70566 20.9954 10.0111 21.0217 10.3113 21.048C13.703 21.3482 17.0999 21.6484 20.4916 21.9486L20.9076 21.8907C21.1762 23.7604 21.9399 25.372 23.2355 26.7414L22.8826 27.0521C19.9649 28.3425 17.7846 31.1654 17.2684 34.3097C16.8313 36.9799 17.6002 39.8134 19.2855 41.9307C19.512 42.2256 19.7595 42.4995 20.0229 42.747L19.9597 42.8102C20.6654 48.0927 26.3427 53.1278 31.1195 56.3141C33.8634 58.147 37.6658 59.7322 41.4946 60.7277C43.3169 61.2017 45.1391 61.544 46.8613 61.7178C47.7197 61.8073 48.5571 61.8547 49.3523 61.8547L50.8744 61.0542C51.143 60.7909 51.4379 60.5539 51.7486 60.3432C52.7124 59.6848 53.8553 59.2846 55.0244 59.2108C55.509 59.1792 56.0145 59.2056 56.4727 59.353C56.7203 59.432 56.9467 59.5426 57.1521 59.7059C57.2153 59.7586 57.2838 59.8112 57.3417 59.8692C57.742 60.2695 57.979 60.8067 58.137 61.3544C58.2792 61.8495 58.3634 62.3762 58.2528 62.8818C58.1422 63.3874 57.9052 64.4196 56.5254 64.2564L56.3095 64.3038C56.3463 64.4723 56.3727 64.6408 56.3885 64.8147C56.4095 65.078 56.4727 65.4993 56.4991 66.0102C56.5254 66.5263 56.4991 67.132 56.3305 67.7535C56.162 68.3908 55.8408 69.0386 55.2614 69.6179L55.272 69.6074Z" fill="#FFBB45"></path><path d="M57.9208 56.8143C58.2158 57.6359 57.9314 59.0737 57.4363 59.7847L57.352 59.8637C57.2941 59.8058 57.2256 59.7531 57.1624 59.7004C56.9623 59.5372 56.7306 59.4266 56.4831 59.3476L56.5357 59.158C56.62 58.5049 56.7095 57.8466 56.6516 57.1935C56.5937 56.6405 56.4251 56.0717 56.0723 55.6345L56.1249 55.5977C56.9623 55.8399 57.6312 55.9979 57.9208 56.8195V56.8143Z" fill="#FFBB45"></path><path d="M57.0156 71.9393H49.4476L47.8887 70.8912C48.3469 70.9913 48.8366 70.9755 49.3054 70.9492C49.9637 70.9176 50.6431 70.8702 51.2487 70.6016C51.6595 70.4278 52.0124 70.1592 52.3231 69.8379L52.3705 69.8853C52.9235 70.2487 53.6766 70.4014 54.3086 70.2224L54.3402 70.3488L57.0156 71.9393Z" fill="#AAC6D7"></path><path d="M56.6578 57.1934C56.7157 57.8465 56.6262 58.5049 56.5419 59.1579L56.4893 59.3475C56.0311 59.2001 55.5255 59.1737 55.041 59.2053C53.8718 59.2843 52.7342 59.6793 51.7652 60.3377L51.5808 60.0849C51.5176 60.0059 51.4492 59.9269 51.3807 59.8584L51.6019 59.6741C52.0443 58.9578 52.039 57.9835 51.5966 57.2672C51.3438 56.8616 50.9488 56.5509 50.5117 56.3718L50.6434 56.1032C51.4439 55.5818 52.276 55.0551 53.2082 54.8287C54.1404 54.6022 55.2148 54.7444 55.8941 55.4133C55.9679 55.4765 56.0258 55.5502 56.0785 55.6292C56.4313 56.0664 56.5999 56.6352 56.6578 57.1882V57.1934Z" fill="#FFBB45"></path><path d="M51.578 60.0795L51.7624 60.3324C51.4516 60.543 51.1567 60.78 50.8881 61.0434L49.3661 61.8439C48.5708 61.8439 47.7334 61.7965 46.875 61.707L46.9013 61.4594C46.9751 60.5483 47.5755 59.7056 48.397 59.3053C48.5129 59.2474 48.6393 59.2 48.7604 59.1631C49.6715 58.8945 50.7196 59.1842 51.3779 59.8478C51.4516 59.9215 51.5148 59.9953 51.578 60.0743V60.0795Z" fill="#FFBB45"></path><path d="M51.5963 57.2633C52.0387 57.9796 52.0439 58.9539 51.6015 59.6702L51.3803 59.8545C50.722 59.1909 49.6792 58.9013 48.7629 59.1699C48.6365 59.2067 48.5153 59.2541 48.3995 59.3121L47.541 57.6741C47.7938 56.9842 48.4153 56.4417 49.1262 56.2574C49.2316 56.231 49.3369 56.2205 49.437 56.2047C49.8004 56.1678 50.1743 56.231 50.5114 56.368C50.9485 56.5418 51.3382 56.8578 51.5963 57.2633Z" fill="#FFBB45"></path><path d="M50.9577 75.2586L50.9472 75.2691C50.7629 75.8379 50.7207 76.4436 50.8155 77.0282V77.2231L50.1888 77.2336L42.21 70.9925H42.0625C42.0836 70.5923 42.1152 70.1973 42.21 69.7654V69.6548C42.6576 69.6443 43.1053 69.6179 43.5319 69.5811V69.6601L50.9525 75.2481L50.9577 75.2586Z" fill="#AAC6D7"></path><path d="M50.4623 25.8522C50.9784 26.4158 51.0943 27.0267 50.6835 27.664C50.2779 28.3118 49.6143 28.7384 48.9771 29.1492L49.8619 29.1808C49.9356 29.2862 49.9935 29.3968 50.0567 29.5126L49.0719 29.4758V29.4126L48.8507 29.3283C48.0502 29.1598 47.2075 29.2967 46.3912 29.165C45.5749 29.0334 44.7217 28.4803 44.6848 27.6587C44.6796 27.5218 44.6901 27.3901 44.7322 27.269C44.8955 26.6686 45.4906 26.2051 46.0699 25.8996C46.5387 25.6521 47.8027 25.4941 48.8665 25.5204C49.6143 25.5257 50.2621 25.631 50.4623 25.8522Z" fill="#1A1A1A"></path><path d="M50.0636 29.5173C50.901 31.0868 50.9062 33.0935 50.0531 34.6682C49.1314 36.3536 47.267 37.4807 45.35 37.5017L44.6074 37.4912C47.2828 35.7742 49.0366 32.6721 49.084 29.4805L50.0689 29.5173H50.0636Z" fill="#FFE5B8"></path><path d="M49.1198 56.1937V56.2569C48.4088 56.4412 47.7873 56.9785 47.5345 57.6737L48.393 59.3116C47.5714 59.7119 46.971 60.5493 46.8973 61.4657L46.8709 61.7133C45.1488 61.5395 43.3213 61.1971 41.5043 60.7231L41.5886 60.4124C41.0251 55.9251 39.8401 48.9467 38.5234 44.333C41.1409 49.4523 44.5115 52.7335 49.1145 56.199L49.1198 56.1937Z" fill="#FFBB45"></path><path d="M38.53 44.3278C39.8466 48.9415 41.0369 55.9199 41.5951 60.4072L41.5109 60.7179C37.6821 59.7225 33.8796 58.1372 31.1357 56.3044C26.359 53.1233 20.6816 48.0883 19.9759 42.8005L20.0391 42.7373C19.7758 42.4898 19.5282 42.2159 19.3018 41.9209C17.6165 39.809 16.8475 36.9702 17.2847 34.3C17.8008 31.1557 19.9864 28.3328 22.8988 27.0424L23.2517 26.7317C25.2424 28.8278 28.4129 29.7179 31.2042 28.97C33.2476 28.4276 35.0225 27.0266 36.0968 25.2148L36.476 25.4518C39.262 26.5368 42.1376 27.311 44.5128 27.2057L44.734 27.2689C44.6971 27.3953 44.6813 27.5217 44.6866 27.6586C44.7235 28.4802 45.5819 29.0332 46.393 29.1649C47.204 29.2966 48.0519 29.1596 48.8524 29.3282L49.0736 29.4124V29.4756C49.0262 32.6673 47.2725 35.7694 44.5971 37.4863C44.4233 37.6022 44.2389 37.7076 44.0493 37.8129C43.9598 37.8656 43.865 37.913 43.7702 37.9498L43.8597 38.1342C42.8275 39.9143 40.8157 40.8729 38.6248 41.3311L38.6617 41.5049C40.131 41.8419 39.9256 43.9697 38.4615 44.0856C38.4879 44.1646 38.5089 44.2436 38.5247 44.3278H38.53Z" fill="#FFE5B8"></path><path d="M36.7238 23.9072C36.8291 23.6333 36.9134 23.3542 36.9871 23.0645C37.3347 21.6636 37.2978 20.1573 37.8719 18.8301L38.1774 18.9565C38.3512 19.1724 38.5355 19.3831 38.7303 19.5832C39.2991 20.1836 39.9311 20.7261 40.6105 21.2212C41.49 21.8743 42.438 22.4483 43.4071 22.9645C44.0706 23.3226 44.75 23.6491 45.4136 23.9599C45.7507 24.1179 46.093 24.2654 46.4248 24.4181C47.2727 24.792 48.0996 25.1396 48.8632 25.482V25.5188C47.7994 25.4925 46.5354 25.6505 46.0667 25.898C45.4873 26.2035 44.8922 26.667 44.729 27.2674L44.5078 27.2042C42.1325 27.3095 39.257 26.5301 36.471 25.4504L36.0918 25.2134C36.3446 24.7973 36.5553 24.3602 36.7185 23.9072H36.7238Z" fill="#FFBB45"></path><path d="M37.8714 18.8304C37.2973 20.1523 37.3289 21.6639 36.9866 23.0649C36.9128 23.3493 36.8286 23.6337 36.7232 23.9075C36.56 24.3552 36.3493 24.7924 36.0965 25.2137C35.0221 27.0254 33.2473 28.4317 31.2039 28.9689C28.4126 29.7168 25.2421 28.8267 23.2514 26.7305C21.9558 25.3612 21.1922 23.7495 20.9236 21.8798C20.7656 20.8844 20.7603 19.7995 20.8867 18.6461L20.418 18.5618L20.7972 18.4512C24.1151 15.8705 31.5515 14.5222 36.8444 16.4077C36.8444 16.4077 39.6357 15.3649 42.1215 15.0225C42.5849 14.9646 43.0273 14.9225 43.4539 14.9119C45.9661 14.8224 47.6303 15.4597 47.6303 15.4597C47.6303 15.4597 48.1201 18.3353 47.6882 20.6211C47.2142 23.1913 46.5296 24.2025 46.5296 24.2025L46.4401 24.4184C46.1083 24.2709 45.7659 24.1182 45.4289 23.9602L45.4868 23.8285C45.4868 23.8285 46.1504 22.7963 46.5243 21.1478C47.051 18.8146 46.2294 16.5762 46.2294 16.5762C46.2294 16.5762 45.9819 16.2444 44.5704 16.2655C44.2597 16.2708 43.8858 16.2971 43.4434 16.3445C41.2262 16.5868 38.5455 17.6348 38.5455 17.6348C38.398 18.1721 38.6297 18.9252 38.9299 19.3939L38.7403 19.5835C38.5455 19.3834 38.3611 19.1727 38.1873 18.9568L37.8819 18.8304H37.8714ZM35.4751 22.1379C35.691 20.9687 35.8121 19.1359 35.77 18.0825C35.77 18.0825 34.3112 16.887 28.9077 17.0502C28.4495 17.0608 27.9755 17.1292 27.4962 17.2346C25.1105 17.7244 22.6879 19.0569 22.6879 19.0569C22.4087 21.6376 23.125 23.7653 24.6786 25.398C26.2323 27.036 28.7023 27.7312 30.8826 27.1519C31.3988 27.0149 31.8938 26.799 32.3573 26.5304C33.8424 25.6719 34.98 24.2077 35.3908 22.5382C35.4171 22.4118 35.4487 22.2854 35.4751 22.1379Z" fill="#955EEA"></path><path d="M46.2192 16.5773C46.2192 16.5773 47.0408 18.8157 46.5141 21.1489C46.1402 22.7973 45.4766 23.8296 45.4766 23.8296L45.4187 23.9613C44.7551 23.6506 44.0757 23.324 43.4121 22.9659L43.707 22.4023C43.8492 22.1917 43.9756 21.9547 44.0915 21.6913C44.7709 20.1692 44.971 17.9467 44.576 16.5194V16.2666C45.9769 16.2455 46.2245 16.5773 46.2245 16.5773H46.2192Z" fill="#85D0CF"></path><path d="M44.5728 16.5184C44.9731 17.9457 44.7677 20.1735 44.0883 21.6904L43.8987 21.6061C43.846 20.8688 43.2404 20.2104 42.5136 20.0945C41.7921 19.9681 41.0021 20.4 40.7124 21.0794L40.6071 21.2216C39.9277 20.7266 39.2957 20.1841 38.7269 19.5837L38.9165 19.3941C38.6163 18.9253 38.3794 18.1669 38.5321 17.635C38.5321 17.635 41.2128 16.5869 43.43 16.3446C43.8724 16.2972 44.2463 16.2709 44.557 16.2656V16.5184H44.5728Z" fill="#D0F7F7"></path><path d="M43.8977 21.6058L44.0873 21.69C43.9714 21.9534 43.845 22.1904 43.7028 22.401L43.4079 22.9646C42.4336 22.4484 41.4908 21.8744 40.6113 21.2213L40.7167 21.0791C41.0011 20.3997 41.791 19.9678 42.5178 20.0942C43.2393 20.2101 43.8503 20.8684 43.9029 21.6058H43.8977Z" fill="#1A1A1A"></path><path d="M42.2168 69.666V69.7766C42.1168 70.2084 42.0852 70.6034 42.0694 70.9984C42.0325 71.8359 42.0799 72.6206 41.8798 73.537C41.4426 76.7655 31.7311 78.3034 21.8826 77.9505V77.7873C21.5982 74.7062 21.8194 68.3967 22.8991 65.4736C29.0241 68.2913 36.2445 69.845 42.2168 69.666Z" fill="#C9B591"></path><path d="M37.9764 1.50234C38.877 3.6617 39.2931 6.60054 39.0245 8.88631L37.5762 9.00218C37.1022 8.83891 36.5861 8.67564 36.012 8.5071H35.8698C34.8744 8.20163 33.9528 7.93303 33.0996 7.71182L33.1312 7.58542C33.9212 5.53139 35.8224 2.98756 37.9764 1.49707V1.50234Z" fill="#FFE5B8"></path><path d="M37.8674 1.23473C37.9043 1.31899 37.9464 1.40326 37.978 1.49806C35.824 2.99382 33.9228 5.53765 33.1328 7.59168L33.1012 7.71808C31.2895 7.25461 29.7464 6.97547 28.3086 6.8754C30.6364 4.41584 34.5126 1.74033 37.8621 1.20312V1.23999L37.8674 1.23473Z" fill="#DEA033"></path><path d="M35.7707 18.0825C35.8181 19.1412 35.6917 20.974 35.4758 22.1379L35.3072 22.1063C34.2645 21.4585 32.9215 21.7166 32.1052 22.633C31.2941 23.56 31.2625 25.0715 32.0314 26.0301L32.0841 26.2829C30.4936 26.6305 28.3132 25.3454 27.1809 23.581C26.0275 21.7693 26.2066 19.0516 27.5285 17.3557L27.5022 17.2241C27.9762 17.1187 28.4554 17.0555 28.9136 17.0397C34.3119 16.8765 35.776 18.072 35.776 18.072L35.7707 18.0825Z" fill="#D0F7F7"></path><path d="M35.3067 22.1068L35.4752 22.1384C35.4489 22.2806 35.4173 22.4123 35.391 22.5387C34.9802 24.2082 33.8426 25.6671 32.3574 26.5309L32.21 26.2623C32.1731 26.2728 32.131 26.2833 32.0836 26.2886L32.0309 26.0358C31.262 25.0772 31.2936 23.5657 32.1046 22.6387C32.9209 21.7171 34.2639 21.4642 35.3067 22.1121V22.1068Z" fill="#1A1A1A"></path><path d="M32.21 26.2616L32.3575 26.5302C31.894 26.7988 31.3989 27.0147 30.8828 27.1516C28.7025 27.731 26.2325 27.0358 24.6788 25.3978C23.1252 23.7651 22.4089 21.6426 22.6881 19.0567C22.6881 19.0567 25.1054 17.7242 27.4964 17.2344L27.5228 17.366C26.2061 19.0619 26.0218 21.7743 27.1752 23.5913C28.3075 25.3504 30.4878 26.6355 32.0783 26.2932C32.1257 26.2879 32.1626 26.2826 32.2047 26.2668L32.21 26.2616Z" fill="#85D0CF"></path><path d="M24.1514 6.7967L24.1883 7.03897C22.3819 7.31284 20.4596 7.83425 18.0369 8.56633L17.7578 8.53473C18.1844 6.01723 19.2588 3.61559 20.8651 1.62477L21.239 1.44043C21.3812 1.62477 21.5023 1.8407 21.6129 2.04084C22.4293 3.63666 23.6669 5.07448 24.1567 6.7967H24.1514Z" fill="#FFE5B8"></path><path d="M20.9243 21.8795L20.5082 21.9374C17.1166 21.6372 13.7196 21.337 10.328 21.0368C10.0278 21.0105 9.7223 20.9841 9.44317 21.0948C8.89545 21.3107 8.66899 21.9638 8.60053 22.5431C8.53733 23.1277 8.55313 23.7545 8.24767 24.2601C8.10547 24.5023 7.86847 24.7077 7.58935 24.7025C7.07849 24.6972 6.85729 24.0652 6.77829 23.5543C6.64136 22.6168 6.49917 21.6636 6.6519 20.7313C6.79936 19.7939 7.30495 18.8669 8.1476 18.435C8.73219 18.1348 9.41158 18.1085 10.0699 18.0874C13.5195 18.0032 16.9849 18.1612 20.4134 18.5562L20.8821 18.6404C20.7558 19.7939 20.7663 20.8788 20.919 21.8742L20.9243 21.8795Z" fill="#955EEA"></path><path d="M9.95103 40.1934C5.12686 49.5418 2.00905 59.4854 1.01367 69.9504" stroke="#231F20" stroke-width="1.61" stroke-linecap="round" stroke-linejoin="round"></path><path d="M11.3399 41.0566C10.8976 40.7459 10.471 40.4088 10.0602 40.0665C5.94699 36.5694 3.40324 31.2605 3.30844 25.8621C3.21891 19.9159 6.47891 12.8532 12.0404 9.85645" stroke="#231F20" stroke-width="1.61" stroke-linecap="round" stroke-linejoin="round"></path><path d="M10.9668 14.1437C11.2881 12.7217 11.7568 11.326 12.3624 9.99353C13.8739 6.66495 16.2228 3.7103 19.151 1.54041C19.5987 1.2086 20.1569 0.876798 20.6889 1.04533C20.9048 1.11907 21.0786 1.26654 21.2313 1.44561C21.3735 1.62994 21.4947 1.84588 21.6053 2.04601C22.4216 3.64184 23.6592 5.07966 24.149 6.80188" stroke="#231F20" stroke-width="1.61" stroke-linecap="round" stroke-linejoin="round"></path><path d="M17.623 9.61503C17.6546 9.25162 17.702 8.89349 17.76 8.53008C18.1866 6.01258 19.261 3.61095 20.8673 1.62012" stroke="#231F20" stroke-width="1.61" stroke-linecap="round" stroke-linejoin="round"></path><path d="M18.041 8.5654C20.4584 7.83332 22.3859 7.31191 24.1924 7.03804C25.5827 6.82211 26.8941 6.76417 28.3003 6.86951C29.7433 6.96957 31.2812 7.24871 33.0929 7.71218C33.946 7.93339 34.8677 8.20199 35.8631 8.50746" stroke="#231F20" stroke-width="1.61" stroke-linecap="round" stroke-linejoin="round"></path><path d="M28.293 6.87596H28.2982C30.6261 4.41113 34.5022 1.73562 37.8518 1.19315C37.8781 1.18788 37.9044 1.18788 37.9308 1.18262" stroke="#231F20" stroke-width="1.61" stroke-linecap="round" stroke-linejoin="round"></path><path d="M37.9746 1.50391C38.8752 3.66327 39.2913 6.60211 39.0227 8.88788" stroke="#231F20" stroke-width="1.61" stroke-linecap="round" stroke-linejoin="round"></path><path d="M37.8633 1.23535C37.9001 1.31962 37.9423 1.40389 37.9739 1.49869" stroke="#231F20" stroke-width="1.61" stroke-linecap="round" stroke-linejoin="round"></path><path d="M33.123 7.58675C33.913 5.53272 35.8143 2.98888 37.9683 1.4984C37.9683 1.4984 37.9946 1.47206 38.0051 1.4668" stroke="#231F20" stroke-width="1.61" stroke-linecap="round" stroke-linejoin="round"></path><path d="M43.4304 14.6761C41.9768 11.0737 40.8866 10.1046 37.5739 9.00386C37.0999 8.84059 36.5838 8.67732 36.0098 8.50879" stroke="#231F20" stroke-width="1.61" stroke-linecap="round" stroke-linejoin="round"></path><path d="M15.0332 40.8457C16.1655 41.3618 17.577 41.72 19.2991 41.9201C22.3116 42.2941 26.2984 42.194 31.5544 41.6673" stroke="#231F20" stroke-width="1.61" stroke-linecap="round" stroke-linejoin="round"></path><path d="M34.041 41.6678C35.4735 41.7257 37.0956 41.6467 38.6282 41.3307C40.8191 40.8725 42.8362 39.9139 43.8632 38.1338" stroke="#231F20" stroke-width="1.61" stroke-linecap="round" stroke-linejoin="round"></path><path d="M34.2637 37.5008C37.0602 39.2705 40.8047 39.4495 43.7646 37.9485C43.8646 37.9117 43.9541 37.8643 44.0437 37.8116C44.2333 37.7062 44.4176 37.6009 44.5914 37.485C47.2668 35.7681 49.0206 32.666 49.068 29.4743V29.4111" stroke="#231F20" stroke-width="1.61" stroke-linecap="round" stroke-linejoin="round"></path><path d="M45.3438 37.5017C47.2608 37.4807 49.1251 36.3536 50.0468 34.6682C50.9 33.0882 50.8947 31.0868 50.0573 29.5174C49.9941 29.4015 49.9309 29.2909 49.8625 29.1855" stroke="#231F20" stroke-width="1.61" stroke-linecap="round" stroke-linejoin="round"></path><path d="M48.9749 29.1492C49.6121 28.7384 50.281 28.3065 50.6812 27.664C51.092 27.0267 50.9762 26.4105 50.46 25.8522C50.2599 25.631 49.6121 25.5257 48.8643 25.5204C47.8004 25.4941 46.5365 25.6521 46.0677 25.8996C45.4884 26.2051 44.8933 26.6686 44.73 27.269C44.6932 27.3954 44.6774 27.5218 44.6826 27.6587C44.7195 28.4803 45.5779 29.0334 46.389 29.165C47.2 29.2967 48.048 29.1598 48.8485 29.3283" stroke="#231F20" stroke-width="1.61" stroke-linecap="round" stroke-linejoin="round"></path><path d="M48.8655 25.4776C48.1019 25.1406 47.275 24.7877 46.4271 24.4138C46.0953 24.2663 45.753 24.1136 45.4159 23.9556C44.7524 23.6448 44.073 23.3183 43.4094 22.9601C42.4351 22.444 41.4924 21.8699 40.6128 21.2168C39.9335 20.7218 39.3015 20.1793 38.7327 19.5789C38.5378 19.3788 38.3535 19.1681 38.1797 18.9521" stroke="#231F20" stroke-width="1.61" stroke-linecap="round" stroke-linejoin="round"></path><path d="M20.2774 42.9782C20.1932 42.8992 20.1142 42.8307 20.0352 42.7359C19.7719 42.4884 19.5243 42.2145 19.2979 41.9196C17.6126 39.8076 16.8436 36.9688 17.2808 34.2986C17.7969 31.1543 19.9825 28.3314 22.8949 27.041" stroke="#231F20" stroke-width="0.93" stroke-linecap="round" stroke-linejoin="round"></path><path d="M49.5713 61.8502H49.3712C48.576 61.8502 47.7386 61.8028 46.8801 61.7133C45.158 61.5395 43.3305 61.1971 41.5135 60.7231C37.6847 59.7277 33.8822 58.1424 31.1384 56.3096C26.3616 53.1285 20.6842 48.0935 19.9785 42.8057" stroke="#231F20" stroke-width="1.61" stroke-linecap="round" stroke-linejoin="round"></path><path d="M38.665 41.5049C40.1343 41.842 39.9289 43.9697 38.4648 44.0856C38.4912 44.1646 38.5122 44.2436 38.528 44.3279C39.8447 48.9415 41.0349 55.92 41.5932 60.4072" stroke="#231F20" stroke-width="1.61" stroke-linecap="round" stroke-linejoin="round"></path><path d="M38.4648 44.2002C38.4859 44.2476 38.5122 44.2897 38.528 44.3319C41.1455 49.4511 44.5161 52.7323 49.1191 56.1978" stroke="#231F20" stroke-width="1.61" stroke-linecap="round" stroke-linejoin="round"></path><path d="M17.6484 62.5615C19.2547 63.6465 21.019 64.6156 22.8939 65.4688C29.0189 68.2865 36.2394 69.8402 42.2117 69.6611C42.6593 69.6506 43.107 69.6242 43.5336 69.5874C44.3288 69.5294 45.0978 69.4399 45.8351 69.3082" stroke="#231F20" stroke-width="1.61" stroke-linecap="round" stroke-linejoin="round"></path><path d="M20.8839 18.6426C20.7575 19.796 20.768 20.8809 20.9207 21.8764C21.1893 23.7461 21.953 25.3577 23.2486 26.727C25.2393 28.8232 28.4098 29.7133 31.2011 28.9654C33.2445 28.4229 35.0193 27.022 36.0937 25.2102C36.3465 24.7941 36.5572 24.357 36.7204 23.9041C36.8258 23.6302 36.91 23.351 36.9837 23.0614C37.3313 21.6604 37.2945 20.1541 37.8685 18.8269C37.8738 18.8164 37.8738 18.8058 37.8791 18.7953" stroke="#231F20" stroke-width="1.61" stroke-linecap="round" stroke-linejoin="round"></path><path d="M20.7949 18.4463C24.1129 15.8656 31.5492 14.5173 36.8421 16.4028C36.8421 16.4028 39.6334 15.36 42.1192 15.0177C42.5827 14.9597 43.0251 14.9176 43.4517 14.9071C45.9638 14.8175 47.6281 15.4548 47.6281 15.4548C47.6281 15.4548 48.1179 18.3304 47.686 20.6162C47.212 23.1864 46.5274 24.1976 46.5274 24.1976" stroke="#231F20" stroke-width="1.61" stroke-linecap="round" stroke-linejoin="round"></path><path d="M22.6895 19.0532C22.6895 19.0532 25.1068 17.7207 27.4978 17.2309C27.9718 17.1256 28.4511 17.0624 28.9093 17.0466C34.3075 16.8833 35.7716 18.0789 35.7716 18.0789" stroke="#231F20" stroke-width="1.24" stroke-linecap="round" stroke-linejoin="round"></path><path d="M35.7663 18.083C35.8137 19.1416 35.6873 20.9744 35.4714 22.1384C35.445 22.2806 35.4134 22.4123 35.3871 22.5387C34.9763 24.2082 33.8387 25.6671 32.3536 26.5309C31.8901 26.7995 31.395 27.0154 30.8789 27.1523C28.6986 27.7317 26.2285 27.0365 24.6749 25.3985C23.1213 23.7658 22.405 21.6433 22.6841 19.0574" stroke="#231F20" stroke-width="0.93" stroke-linecap="round" stroke-linejoin="round"></path><path d="M38.9146 19.395C38.6144 18.9263 38.3774 18.1679 38.5301 17.6359C38.5301 17.6359 41.2108 16.5879 43.428 16.3456C43.8704 16.2982 44.2444 16.2719 44.5551 16.2666C45.9665 16.2455 46.214 16.5773 46.214 16.5773C46.214 16.5773 47.0356 18.8157 46.509 21.1489C46.1351 22.7973 45.4715 23.8296 45.4715 23.8296" stroke="#231F20" stroke-width="0.93" stroke-linecap="round" stroke-linejoin="round"></path><path d="M43.6992 22.4015C43.8414 22.1908 43.9678 21.9538 44.0837 21.6905C44.7631 20.1684 44.9632 17.9458 44.5682 16.5186" stroke="#231F20" stroke-width="1.61" stroke-linecap="round" stroke-linejoin="round"></path><path d="M43.8953 21.6058C43.8426 20.8684 43.2369 20.2101 42.5101 20.0942C41.7886 19.9678 40.9986 20.3997 40.709 21.0791" stroke="#231F20" stroke-width="1.61" stroke-linecap="round" stroke-linejoin="round"></path><path d="M27.5229 17.3672C26.2062 19.0631 26.0219 21.7754 27.1753 23.5925C28.3076 25.3516 30.4879 26.6367 32.0784 26.2943C32.1258 26.289 32.1627 26.2838 32.2048 26.268" stroke="#231F20" stroke-width="1.61" stroke-linecap="round" stroke-linejoin="round"></path><path d="M32.0289 26.0309C31.26 25.0724 31.2916 23.5608 32.1027 22.6339C32.919 21.7122 34.262 21.4594 35.3047 22.1072" stroke="#231F20" stroke-width="1.61" stroke-linecap="round" stroke-linejoin="round"></path><path d="M20.4138 18.5576C16.9853 18.1573 13.5199 18.0046 10.0703 18.0888C9.41196 18.1099 8.73257 18.1362 8.14798 18.4364C7.30533 18.8683 6.805 19.7952 6.65227 20.7327C6.49428 21.6649 6.64174 22.6182 6.77867 23.5557C6.85767 24.0666 7.07887 24.6986 7.58972 24.7038C7.86885 24.7091 8.10584 24.5037 8.24804 24.2614C8.5535 23.7611 8.53244 23.1344 8.6009 22.5445C8.6641 21.9651 8.89583 21.3121 9.44355 21.0961C9.72268 20.9855 10.0281 21.0119 10.3283 21.0382C13.72 21.3384 17.1169 21.6386 20.5086 21.9388" stroke="#231F20" stroke-width="1.61" stroke-linecap="round" stroke-linejoin="round"></path><path d="M36.7792 23.9072H36.6738" stroke="#231F20" stroke-width="1.61" stroke-linecap="round" stroke-linejoin="round"></path><path d="M36.4727 25.4463C39.2587 26.5312 42.1342 27.3054 44.5094 27.2001" stroke="#231F20" stroke-width="0.93" stroke-linecap="round" stroke-linejoin="round"></path><path d="M46.9004 61.4663C46.9741 60.5551 47.5745 59.7124 48.3961 59.3122C48.512 59.2542 48.6384 59.2068 48.7595 59.17C49.6706 58.9014 50.7186 59.191 51.377 59.8546C51.4507 59.9284 51.5139 60.0021 51.5771 60.0811" stroke="#231F20" stroke-width="1.61" stroke-linecap="round" stroke-linejoin="round"></path><path d="M50.8867 61.0496C51.1553 60.7862 51.4502 60.5492 51.761 60.3386C52.7248 59.6802 53.8676 59.2799 55.0368 59.2062C55.5213 59.1746 56.0269 59.2009 56.4851 59.3484C56.7326 59.4274 56.9591 59.538 57.1645 59.7013C57.2277 59.7539 57.2961 59.8066 57.3541 59.8645C57.7543 60.2648 57.9913 60.802 58.1493 61.3498C58.2915 61.8448 58.3758 62.3715 58.2652 62.8771C58.1546 63.3827 57.9176 64.415 56.5377 64.2517" stroke="#231F20" stroke-width="1.61" stroke-linecap="round" stroke-linejoin="round"></path><path d="M45.7525 67.3486C45.6787 68.1966 45.7051 68.6917 45.9684 69.2447C45.9789 69.2763 46 69.3184 46.021 69.35C46.3265 69.9451 46.7952 70.4771 47.4114 70.7457C47.5589 70.8089 47.7221 70.8563 47.8854 70.8879C48.3436 70.988 48.8334 70.9722 49.3021 70.9458C49.9604 70.9142 50.6398 70.8668 51.2455 70.5982C51.6563 70.4244 52.0091 70.1558 52.3199 69.8345C52.8307 69.3131 53.2257 68.6495 53.5838 67.9964" stroke="#231F20" stroke-width="1.61" stroke-linecap="round" stroke-linejoin="round"></path><path d="M52.367 69.8866C52.92 70.25 53.6731 70.4028 54.3051 70.2237C54.5474 70.1658 54.7738 70.0552 54.9634 69.8919C55.074 69.8024 55.1741 69.7076 55.2689 69.6075C55.8482 69.0282 56.1695 68.3803 56.338 67.7431C56.5065 67.1216 56.5329 66.5159 56.5065 65.9998C56.4802 65.4889 56.417 65.0676 56.3959 64.8042C56.3854 64.6357 56.3591 64.4672 56.3169 64.2934C56.1589 63.6034 55.7692 62.9714 55.1583 62.6343C54.5895 62.3341 53.9048 62.3341 53.2729 62.4447C52.4723 62.5869 51.7034 62.9082 51.0293 63.3769" stroke="#231F20" stroke-width="1.61" stroke-linecap="round" stroke-linejoin="round"></path><path d="M47.5332 57.6741C47.786 56.9842 48.4075 56.4417 49.1184 56.2574C49.2238 56.231 49.3291 56.2205 49.4292 56.2047C49.7926 56.1678 50.1665 56.231 50.5035 56.368C50.9407 56.5418 51.3304 56.8578 51.5885 57.2633C52.0309 57.9796 52.0361 58.9539 51.5937 59.6702" stroke="#231F20" stroke-width="1.61" stroke-linecap="round" stroke-linejoin="round"></path><path d="M50.6387 56.1052C51.4392 55.5838 52.2713 55.0571 53.2035 54.8306C54.1357 54.6042 55.21 54.7464 55.8894 55.4152C55.9632 55.4784 56.0211 55.5522 56.0738 55.6312C56.4266 56.0683 56.5952 56.6371 56.6531 57.1901C56.711 57.8432 56.6215 58.5015 56.5372 59.1546" stroke="#231F20" stroke-width="1.61" stroke-linecap="round" stroke-linejoin="round"></path><path d="M56.123 55.5928C56.9604 55.835 57.6293 55.993 57.9189 56.8147C58.2139 57.6363 57.9295 59.0741 57.4344 59.7851" stroke="#231F20" stroke-width="1.61" stroke-linecap="round" stroke-linejoin="round"></path><path d="M1.00778 70.0612C0.670718 75.033 11.346 77.5768 21.8739 77.9455C31.7224 78.2983 41.4339 76.7604 41.871 73.5319C42.0712 72.6208 42.0185 71.8308 42.0606 70.9934C42.0817 70.6036 42.1133 70.2034 42.2081 69.7715" stroke="#231F20" stroke-width="1.61" stroke-linecap="round" stroke-linejoin="round"></path><path d="M22.9113 65.4268C22.9113 65.4268 22.9008 65.4531 22.8902 65.4742C21.8053 68.3972 21.5841 74.712 21.879 77.7878" stroke="#231F20" stroke-width="0.93" stroke-linecap="round" stroke-linejoin="round"></path><path d="M56.3967 64.8052L62.1583 64.8631L62.211 64.7578L73.4077 40.9258L99.2876 44.2017L82.9244 74.6909C82.819 74.6909 82.7242 74.6961 82.6189 74.6961C72.7441 75.0016 60.4203 75.1965 51.009 75.3018L50.9563 75.2649L43.541 69.6769" stroke="#231F20" stroke-width="1.61" stroke-linecap="round" stroke-linejoin="round"></path><path d="M42.2129 71.0026L50.1865 77.2437L50.8185 77.2279L83.4343 76.4221L100.103 45.3273L99.2919 44.2002" stroke="#231F20" stroke-width="1.61" stroke-linecap="round" stroke-linejoin="round"></path><path d="M50.9463 75.2744C50.762 75.8432 50.7198 76.4489 50.8146 77.0335" stroke="#231F20" stroke-width="1.61" stroke-linecap="round" stroke-linejoin="round"></path><path d="M83.4347 76.4236L82.9238 74.6855" stroke="#231F20" stroke-width="1.61" stroke-linecap="round" stroke-linejoin="round"></path><path d="M62.3301 64.8203C67.881 67.7276 77.4609 72.2675 82.6169 74.5848" stroke="#231F20" stroke-width="1.61" stroke-linecap="round" stroke-linejoin="round"></path><path d="M64.3125 63.8401L82.3136 71.9193L96.428 45.7383L74.2294 42.5625L64.3125 63.8401Z" stroke="#231F20" stroke-width="1.61" stroke-linecap="round" stroke-linejoin="round"></path><path d="M55.207 69.5654L55.2702 69.6075L56.7396 70.5292L58.9621 71.9354L61.548 73.5576L65.4347 73.5312L68.9106 73.5102L77.295 73.4522L74.2246 71.9407L71.5123 70.6029L68.7579 69.2441L65.6664 67.722L62.1589 65.9893H59.9522H57.4032H56.7396" stroke="black" stroke-width="0.93" stroke-linecap="round" stroke-linejoin="round"></path><path d="M56.5254 67.791C56.5254 67.791 56.5517 67.8121 56.5623 67.8173C57.1679 68.2176 57.842 68.66 58.5425 69.113C59.2482 69.5764 59.9908 70.0504 60.7334 70.5244C61.4496 70.9879 62.1606 71.4356 62.8453 71.8675C63.7932 72.4626 64.678 72.9998 65.4206 73.4528" stroke="black" stroke-width="0.93" stroke-linecap="round" stroke-linejoin="round"></path><path d="M57.3457 65.9531L57.4036 65.99C58.0883 66.4377 59.0205 67.0591 60.0738 67.7491C60.7532 68.1968 61.4852 68.676 62.2173 69.1658C62.9283 69.6293 63.6445 70.098 64.345 70.551C65.0612 71.0197 65.7669 71.4779 66.4147 71.8887C67.4259 72.5366 68.3002 73.0896 68.9111 73.453" stroke="black" stroke-width="0.93" stroke-linecap="round" stroke-linejoin="round"></path><path d="M59.9512 66.0312C59.9512 66.0312 61.2046 66.7423 62.9531 67.7324C63.7536 68.1801 64.6489 68.691 65.5811 69.2176C66.3711 69.6653 67.1874 70.1288 67.9827 70.5765C68.8095 71.0452 69.6153 71.5034 70.3421 71.9142C71.5429 72.5884 72.5383 73.1466 73.1018 73.4521" stroke="black" stroke-width="0.93" stroke-linecap="round" stroke-linejoin="round"></path><path d="M59.0195 71.8398L62.8536 71.8662L66.4085 71.8873L70.3426 71.9136L74.2241 71.9399H74.3136" stroke="black" stroke-width="0.93" stroke-linecap="round" stroke-linejoin="round"></path><path d="M56.7617 70.498L60.7432 70.5244L64.3456 70.5507L67.9848 70.577L71.5134 70.6034H71.5924" stroke="black" stroke-width="0.93" stroke-linecap="round" stroke-linejoin="round"></path><path d="M58.5547 69.1074L62.2149 69.1706L65.5803 69.218L68.7508 69.2654" stroke="black" stroke-width="0.93" stroke-linecap="round" stroke-linejoin="round"></path><path d="M56.6016 67.7744L60.0722 67.7533L62.953 67.7322L65.6653 67.7217H65.718" stroke="black" stroke-width="0.93" stroke-linecap="round" stroke-linejoin="round"></path><path d="M47.8496 70.8667L47.8865 70.8931L49.4454 71.9411H57.0134L54.338 70.3506" stroke="black" stroke-width="0.93" stroke-linecap="round" stroke-linejoin="round"></path><path d="M44.3211 11.5945C44.3791 12.0211 43.963 12.3529 43.5891 12.5688C42.6253 13.1324 39.6708 14.6545 38.9176 13.5327C38.7491 13.2693 38.8544 12.9059 39.0177 12.6478C39.181 12.3898 39.4338 12.1896 39.6971 12.0211C40.703 11.3628 41.8933 10.9836 43.094 10.9467C43.3468 10.9414 43.6102 10.9467 43.8419 11.0468C44.0736 11.1468 44.279 11.347 44.3159 11.5998L44.3211 11.5945Z" fill="#FFBB45"></path><path d="M33.1776 11.9519C33.3356 12.2047 33.3935 12.5312 33.2618 12.7945C33.0354 13.2369 32.4192 13.2791 31.9189 13.2317C30.6338 13.1158 26.8208 12.5839 26.8577 11.0196C26.8682 10.6615 27.2158 10.3824 27.5423 10.2454C27.8741 10.1085 28.2481 10.098 28.6062 10.1085C29.9966 10.1612 31.3711 10.5983 32.535 11.3673C32.7826 11.5253 33.0248 11.7043 33.1828 11.9519H33.1776Z" fill="#FFBB45"></path><path d="M31.9202 13.2268C32.4205 13.2742 33.0367 13.2321 33.2632 12.7897C33.3949 12.5263 33.3369 12.205 33.1789 11.947C33.0209 11.6994 32.7787 11.5151 32.5311 11.3624C31.3725 10.5934 29.9927 10.1563 28.6023 10.1036C28.2442 10.0931 27.8702 10.1036 27.5384 10.2406C27.2119 10.3775 26.8643 10.6566 26.8538 11.0148C26.8169 12.579 30.6299 13.1109 31.9149 13.2268H31.9202Z" stroke="#231F20" stroke-width="1.61" stroke-linecap="round" stroke-linejoin="round"></path><path d="M43.5916 12.5621C43.9656 12.3462 44.3816 12.0144 44.3237 11.5878C44.2868 11.335 44.0814 11.1296 43.8497 11.0348C43.618 10.94 43.3546 10.9294 43.1018 10.9347C41.9011 10.9716 40.7056 11.3508 39.7049 12.0091C39.4416 12.1776 39.1888 12.3725 39.0255 12.6359C38.8623 12.8992 38.7569 13.2626 38.9255 13.5207C39.6733 14.6425 42.6278 13.1151 43.5969 12.5569L43.5916 12.5621Z" stroke="#231F20" stroke-width="1.61" stroke-linecap="round" stroke-linejoin="round"></path><path d="M44.8594 20.1846C45.1701 21.3643 45.3439 22.5862 45.3702 23.8028" stroke="#231F20" stroke-width="1.24" stroke-linecap="round" stroke-linejoin="round"></path><path d="M87.2334 70.6826L99.1464 76.3022L84.084 76.7499L87.2334 70.6826Z" fill="#BDCCD4"></path><path d="M17.0156 44.1484C21.8135 45.6757 34.5269 45.4756 38.8297 43.6533" stroke="#231F20" stroke-width="0.93" stroke-linecap="round" stroke-linejoin="round"></path><g style="mix-blend-mode:darken"><path d="M29.1018 63.4609C32.4724 64.4774 36.0116 64.7776 39.5244 64.9935C43.0266 65.2147 46.5394 65.3622 50.047 65.4412C50.4736 65.5149 50.1365 66.1628 50.1365 66.5946C50.1365 67.1476 50.8843 67.411 51.4005 67.2056C51.9166 67.0002 52.2536 66.5209 52.6644 66.1522C53.4492 65.4465 54.5551 65.1199 55.5979 65.2832C56.0877 66.4524 56.4406 67.827 55.8665 68.9594C55.2977 70.0917 53.4176 70.5025 52.7961 69.3965C51.3162 70.9133 48.6987 71.1346 46.9818 69.8916C46.571 69.5967 46.2024 69.2227 45.7231 69.0542C45.1754 68.8646 44.575 68.9805 44.0062 69.0647C37.5389 70.0549 31.14 67.4689 24.857 65.6519C24.3619 65.5097 23.7352 65.4043 23.3982 65.7993C23.1875 66.0522 22.1763 66.1259 22.1868 66.4524C22.2395 68.3642 21.7076 71.1135 21.7603 73.0253C21.7919 74.105 22.2448 76.059 21.7603 77.028C21.1019 78.3447 19.2165 77.66 16.3094 77.3177C12.8861 76.9174 7.41413 75.9484 5.52344 74.5579C7.6406 73.2096 9.69456 71.6718 11.1903 69.6546C12.686 67.6374 13.576 65.062 13.1442 62.5866C12.8756 61.0593 12.133 59.4635 12.7439 58.0362C13.339 56.6405 15.0928 56.0348 16.5832 56.3034C18.6846 56.6879 20.3962 58.2679 21.9709 59.5951C24.0775 61.3806 26.458 62.6498 29.1018 63.4504V63.4609Z" fill="#DEA033"></path></g><g style="mix-blend-mode:darken"><path d="M27.2415 50.9579C29.306 52.7118 31.8023 54.0759 34.4988 54.3655C35.9208 54.5183 37.5113 54.3023 38.4856 53.2542C38.8069 52.9119 39.1966 52.4379 39.6337 52.6064C40.429 55.2029 41.0293 57.8574 41.4349 60.5381C38.4961 60.3959 35.8312 58.8475 33.3191 57.3149C29.4166 54.9343 25.3982 52.3589 22.6438 48.63C22.0644 47.8506 19.389 44.0901 21.9802 45.3541C22.9124 45.8071 23.6444 47.2396 24.3133 48.0086C25.2244 49.0567 26.1829 50.0626 27.2467 50.9579H27.2415Z" fill="#C9B591"></path></g><g style="mix-blend-mode:darken"><path d="M24.2505 39.3873C26.4046 39.519 32.2504 39.3873 33.8515 33.8467C34.7152 36.8014 40.0608 37.4439 41.9778 36.5538C43.8948 35.6637 46.428 34.5103 48.008 33.1094C48.0712 34.0627 46.8915 35.195 47.8342 35.3161C48.7769 35.4373 49.767 34.8158 50.0672 33.9099C49.9777 35.8744 47.7605 37.0173 45.8066 37.228C45.0693 37.307 44.2793 37.328 43.6789 37.7652C43.2944 38.0443 43.0364 38.4551 42.7467 38.8291C41.3774 40.6039 39.0338 41.573 36.8113 41.2939C37.5907 41.1412 38.4281 41.3466 39.0496 41.8416C35.284 41.8469 31.5237 41.8522 27.7581 41.8574C26.7048 41.8574 25.5724 41.8838 24.714 42.4947C23.8555 43.1056 23.5132 44.5382 24.3348 45.2018C22.976 45.3493 21.2644 45.3177 20.6587 44.0905C20.4533 43.6745 20.427 43.1899 20.2637 42.7528C20.011 42.0997 19.4685 41.6099 19.0103 41.078C18.0939 40.0088 16.061 36.1325 18.0571 35.2635C17.4777 37.5387 21.6015 39.2241 24.2453 39.3873H24.2505Z" fill="#C9B591"></path></g><g style="mix-blend-mode:darken"><path d="M8.6957 32.2512C12.0505 33.8787 16.4323 33.0254 18.9339 30.2604C14.2203 34.9741 18.5652 40.5464 20.5823 44.6491C15.695 46.403 13.2881 41.6418 10.4863 46.0185C7.68978 50.3899 3.13947 64.9314 1.35938 69.8084C2.07036 60.9444 5.93075 48.2463 10.4811 40.6096C10.2862 40.9361 6.02028 34.7319 5.20923 32.7042C4.04006 29.7759 3.19214 26.4947 3.81359 23.3926C3.6556 27.0056 5.33036 30.6238 8.69043 32.2565L8.6957 32.2512Z" fill="#DEA033"></path></g><g style="mix-blend-mode:darken"><path d="M16.3811 7.90231C16.8709 7.41777 17.4397 6.91743 18.1296 6.90163C18.1296 4.94767 19.0355 3.00951 20.5312 1.75076C19.2198 1.71916 18.1191 2.68297 17.2132 3.63098C15.6965 5.21627 11.7571 9.36646 12.9473 11.6944C14.0902 10.4356 15.1645 9.10313 16.3864 7.90231H16.3811Z" fill="#DEA033"></path></g><g style="mix-blend-mode:darken"><path d="M40.4346 51.4844C39.9184 51.4054 42.1304 53.7385 42.9625 54.7656C43.7683 55.7557 45.0059 56.3298 45.7854 57.341C45.9855 57.6043 46.1541 57.894 46.4174 58.0941C46.9598 58.4997 47.7235 58.3891 48.3765 58.2047C49.0296 58.0204 49.7248 57.7834 50.3673 57.9941C51.0098 58.2047 51.4312 59.137 50.915 59.5794C50.8044 58.9316 49.9407 58.7577 49.3035 58.9105C48.0184 59.216 46.944 60.2956 46.6438 61.586C44.8954 61.6492 43.1363 61.349 41.5037 60.7117C41.4879 57.9309 41.2667 55.0552 40.6031 52.3481C40.424 52.5799 40.7716 51.5476 40.4346 51.4896V51.4844Z" fill="#DEA033"></path></g><path d="M2.76957 70.8187C3.05923 62.9818 4.88673 55.1396 8.07827 47.9716C8.96832 45.9755 9.96897 44.0321 11.0855 42.1519C11.4067 41.6094 10.5641 41.1143 10.2428 41.6568C6.16651 48.5141 3.56482 56.2773 2.41145 64.1563C2.09019 66.3631 1.87952 68.5856 1.79526 70.8187C1.77419 71.4507 2.74851 71.4455 2.77484 70.8187H2.76957Z" fill="#FFD75C"></path><path d="M11.8525 39.914C8.70311 37.6441 6.50169 34.0206 5.37991 30.3496C4.19494 26.4681 4.5478 22.3231 6.25416 18.6469C7.23901 16.5192 8.63992 14.6179 10.3831 13.0537C10.6939 12.7745 10.2357 12.3111 9.91969 12.5902C6.71762 15.4764 4.65313 19.4949 4.13174 23.7715C3.61035 28.0481 4.85852 32.035 7.03361 35.5374C8.21859 37.4387 9.6985 39.1662 11.5207 40.4776C11.8631 40.7251 12.1896 40.1563 11.8525 39.914Z" fill="#FFD75C"></path><path d="M12.5911 13.2113C13.1231 11.1467 13.9604 9.2033 15.1665 7.43894C16.4989 5.49024 18.1948 3.82069 19.9591 2.27227C20.2751 1.99313 19.8116 1.53492 19.4956 1.80879C17.6839 3.39935 15.9617 5.11631 14.5977 7.10713C13.3653 8.91363 12.5016 10.9203 11.9591 13.0322C11.8538 13.4378 12.4805 13.6116 12.5859 13.206L12.5911 13.2113Z" fill="#FFD75C"></path><path d="M30.4656 6.44214C31.7348 5.18866 33.1779 4.07737 34.8474 3.4085C35.0106 3.34003 35.1212 3.19256 35.0738 3.00822C35.0317 2.85022 34.8368 2.71329 34.6736 2.78176C32.8987 3.49803 31.3609 4.64618 30.0074 5.98393C29.7072 6.27887 30.1706 6.74234 30.4708 6.44741L30.4656 6.44214Z" fill="#FFD75C"></path><path d="M38.1388 20.7623C40.1295 22.7478 42.4205 24.3331 45.1064 25.2127C45.5067 25.3443 45.6752 24.7123 45.2802 24.5859C42.6996 23.7432 40.5087 22.2106 38.597 20.3041C38.302 20.0091 37.8386 20.4673 38.1335 20.7675L38.1388 20.7623Z" fill="#FFD75C"></path><path d="M29.3632 17.8936L24.834 24.9299L27.4989 26.4309L33.0867 17.8936H29.3632Z" fill="#F5F7F7"></path><path d="M19.5064 39.5659C17.8632 36.3427 18.6216 32.1819 21.2654 29.7224C21.5709 29.438 21.1127 28.9745 20.8019 29.2589C17.9369 31.9239 17.168 36.4164 18.9428 39.8925C19.1324 40.2664 19.696 39.9346 19.5064 39.5607V39.5659Z" fill="#FFF0D6"></path><path d="M37.3264 27.1687C39.0907 27.5795 40.855 27.9956 42.6246 28.4064C43.0353 28.5012 43.2091 27.8744 42.7984 27.7796C41.0341 27.3688 39.2698 26.9528 37.5002 26.542C37.0894 26.4472 36.9156 27.0739 37.3264 27.1687Z" fill="#FFF0D6"></path><path d="M37.4639 45.954C38.5594 50.5308 39.4178 55.1655 40.0182 59.8318C40.0709 60.2426 40.7239 60.2479 40.6712 59.8318C40.0603 55.1023 39.2019 50.4149 38.0906 45.7802C37.9906 45.3746 37.3638 45.5432 37.4639 45.954Z" fill="#FFF0D6"></path><path d="M34.9424 37.3538C37.6705 38.7863 41.0621 38.7863 43.7375 37.2221C46.1918 35.7843 47.8086 33.1983 48.1457 30.3911C48.1931 29.9751 47.54 29.9803 47.4926 30.3911C47.1871 32.9666 45.6493 35.3471 43.4057 36.6586C40.9357 38.1069 37.7863 38.1122 35.2689 36.7902C34.895 36.5954 34.5685 37.1589 34.9371 37.3538H34.9424Z" fill="#FFF0D6"></path><path d="M47.6344 36.4169C49.0458 35.4742 49.9464 33.9099 50.057 32.2193C50.0834 31.798 49.4303 31.8032 49.404 32.2193C49.3092 33.6677 48.5139 35.0475 47.3026 35.8534C46.955 36.0851 47.2815 36.6486 47.6344 36.4169Z" fill="#FFF0D6"></path><path d="M87.033 48.1824C87.112 48.8249 86.9909 49.5096 86.6644 50.2364C86.6486 50.268 86.6275 50.2996 86.6275 50.3418C86.5591 50.4734 86.4853 50.5998 86.4221 50.7315C86.4011 50.7368 86.4011 50.7526 86.3958 50.7631C86.3484 50.8474 86.2905 50.9369 86.2378 51.0212C85.9797 51.4162 85.6795 51.7743 85.3319 52.0956C84.7421 52.6381 84.1206 53.0173 83.4623 53.2227C82.9514 53.3859 82.4827 53.4175 82.0456 53.3333C81.9982 53.3227 81.9561 53.3069 81.9087 53.3017C81.9034 53.3017 81.8981 53.3017 81.8876 53.2964C81.0186 53.0963 80.1602 52.8856 79.307 52.6855H79.2754C79.2754 52.6855 79.2912 52.6539 79.2965 52.6381C80.3761 50.4313 81.4821 48.1666 82.6144 45.8545C82.6355 45.8545 82.646 45.8545 82.6618 45.8598C83.5624 46.0336 84.463 46.2126 85.3793 46.3864C85.4636 46.4075 85.5426 46.418 85.6269 46.4444C85.8428 46.5023 86.0324 46.5866 86.2062 46.7077C86.6749 47.0342 86.9593 47.5241 87.0383 48.1771L87.033 48.1824Z" fill="#FEAAB2"></path><path d="M83.4308 54.8648C83.5677 55.5178 83.4676 56.2341 83.1411 56.9873C83.1253 57.0189 83.1043 57.0505 83.099 57.0926C83.0358 57.2085 82.9779 57.3349 82.9147 57.4507C82.8831 57.4771 82.8673 57.5139 82.8462 57.5455C82.4143 58.2618 81.8508 58.8359 81.1609 59.2572C80.5394 59.6312 79.9285 59.8208 79.3281 59.8208C79.0069 59.8208 78.7172 59.7628 78.4486 59.647C77.8535 59.3836 77.4796 58.9044 77.3268 58.2039C77.211 57.6614 77.2584 57.0663 77.4796 56.429C77.5217 56.3078 77.5744 56.1867 77.6218 56.0708C77.6639 55.9813 77.706 55.8918 77.7482 55.8075C77.7692 55.7601 77.7956 55.718 77.8166 55.6758C77.9483 55.4336 78.101 55.2018 78.2801 54.9806C78.733 54.4171 79.2597 53.9694 79.8653 53.6587C80.4025 53.3795 80.9397 53.2373 81.4558 53.2531C81.6085 53.2531 81.7402 53.2742 81.8877 53.29C81.8929 53.2953 81.8982 53.2953 81.9087 53.2953C81.9561 53.3005 81.9983 53.3163 82.0457 53.3269C82.0509 53.3269 82.0667 53.3321 82.0773 53.3374C82.2405 53.3848 82.388 53.448 82.5249 53.5323C82.9989 53.8167 83.2991 54.2591 83.4255 54.8595L83.4308 54.8648Z" fill="#3FA9F5"></path><path d="M82.5813 45.8439C82.5813 45.8439 82.6024 45.8492 82.6129 45.8544C81.4806 48.1665 80.3746 50.426 79.295 52.638L79.2739 52.6749C79.2739 52.6749 79.2476 52.6696 79.2371 52.6696C78.3523 52.4537 77.478 52.2483 76.609 52.0481C76.6038 52.0481 76.5985 52.0481 76.588 52.0428C76.2562 51.9533 75.9718 51.7848 75.7506 51.5267C75.2608 50.9684 75.1081 50.2048 75.2924 49.2357C75.3767 48.8091 75.5294 48.3719 75.7611 47.9506C76.4089 46.7392 77.3042 45.9176 78.4365 45.4752C78.8473 45.312 79.2423 45.254 79.611 45.2856C79.7005 45.2909 79.7848 45.2962 79.869 45.3172C80.7644 45.491 81.6649 45.6701 82.5813 45.8439Z" fill="#FE4052"></path><path d="M79.2768 52.6747C79.2768 52.6747 79.261 52.7115 79.2557 52.7326C78.7607 53.7386 78.2709 54.7392 77.7863 55.7241C77.7705 55.7505 77.76 55.7768 77.7495 55.8031C77.7073 55.8874 77.6652 55.9769 77.6231 56.0665C77.6073 56.077 77.602 56.0928 77.5967 56.1033C77.1227 57.0724 76.654 58.031 76.1906 58.979C76.1748 59 76.1695 59.0158 76.1642 59.0316C76.0589 59.0053 75.9641 58.979 75.8588 58.9526C75.1162 58.7472 74.3789 58.5418 73.6468 58.3417C73.6415 58.3364 73.6257 58.3312 73.6152 58.3312C73.5784 58.3101 73.531 58.2996 73.4941 58.2785C73.2571 58.189 73.0517 58.052 72.8832 57.8782C72.6356 57.6254 72.4671 57.3147 72.3776 56.9407C72.2459 56.4246 72.2775 55.8505 72.4566 55.2396C72.5198 55.0131 72.604 54.7919 72.7041 54.5812C73.0148 53.9334 73.4414 53.3699 73.9944 52.9117C74.4421 52.5377 74.9055 52.2797 75.3953 52.1269C75.7008 52.0374 75.9957 51.9953 76.2748 52.0111C76.3802 52.0163 76.475 52.0216 76.5698 52.0427C76.575 52.0479 76.5803 52.0427 76.5908 52.0427C76.5961 52.0479 76.6014 52.0479 76.6119 52.0479C77.4809 52.2481 78.3551 52.4587 79.2399 52.6694C79.2504 52.6694 79.2662 52.6694 79.2768 52.6747Z" fill="#955EEA"></path><path d="M76.1681 59.0354C76.1681 59.0354 76.1523 59.067 76.147 59.0828C75.6625 60.0729 75.1832 61.0631 74.6987 62.0374C74.2879 62.8801 73.6875 63.5227 72.9186 63.9493C72.3709 64.2495 71.8337 64.3706 71.3123 64.3232C71.2228 64.3127 71.128 64.2969 71.0384 64.2758C71.0332 64.2705 71.0279 64.2705 71.0121 64.2705C70.9278 64.2442 70.8436 64.2179 70.754 64.1915C70.7593 64.181 70.7488 64.1863 70.7435 64.181C70.6066 64.1231 70.4802 64.0493 70.3591 63.9651C70.0536 63.7333 69.8324 63.4226 69.6955 63.0276C69.4901 62.3903 69.5269 61.7004 69.8008 60.9472C69.9009 60.6575 70.0431 60.3731 70.2169 60.1045C70.6118 59.4883 71.1122 59.0143 71.7073 58.6773C72.3656 58.3086 73.0081 58.198 73.6138 58.3349C73.6243 58.3349 73.6401 58.3402 73.6454 58.3454C74.3774 58.5456 75.1148 58.7457 75.8573 58.9564C75.9627 58.9827 76.0575 59.0091 76.1628 59.0354H76.1681Z" fill="#92E053"></path><path d="M81.8915 53.2916C81.0225 53.0915 80.1641 52.8808 79.3109 52.6807H79.2793" stroke="black" stroke-width="0.93" stroke-linecap="round" stroke-linejoin="round"></path><path d="M82.6143 45.8545C82.6143 45.8545 82.6459 45.8545 82.6617 45.8598C83.5623 46.0336 84.4629 46.2126 85.3792 46.3864C85.4635 46.4075 85.5425 46.418 85.6268 46.4444C85.8427 46.5023 86.0323 46.5866 86.2061 46.7077C86.6748 47.0342 86.9592 47.5241 87.0382 48.1771C87.1172 48.8197 86.9961 49.5043 86.6696 50.2312C86.6538 50.2628 86.6327 50.2944 86.6327 50.3365C86.5642 50.4682 86.4905 50.5946 86.4273 50.7262C86.4062 50.7315 86.4062 50.7473 86.401 50.7578C86.3536 50.8421 86.2956 50.9316 86.243 51.0159C85.9849 51.4109 85.6847 51.769 85.3371 52.0903C84.7473 52.6328 84.1258 53.012 83.4675 53.2174C82.9566 53.3807 82.4879 53.4123 82.0508 53.328" stroke="black" stroke-width="0.93" stroke-linecap="round" stroke-linejoin="round"></path><path d="M76.1681 59.0354C76.1681 59.0354 76.1523 59.067 76.147 59.0828C75.6625 60.0729 75.1832 61.0631 74.6987 62.0374C74.2879 62.8801 73.6875 63.5227 72.9186 63.9493C72.3709 64.2495 71.8337 64.3706 71.3123 64.3232C71.2228 64.3127 71.128 64.2969 71.0384 64.2758C71.0332 64.2705 71.0279 64.2705 71.0121 64.2705C70.9278 64.2442 70.8436 64.2179 70.754 64.1915C70.7593 64.181 70.7488 64.1863 70.7435 64.181C70.6066 64.1231 70.4802 64.0493 70.3591 63.9651C70.0536 63.7333 69.8324 63.4226 69.6955 63.0276C69.4901 62.3903 69.5269 61.7004 69.8008 60.9472C69.9009 60.6575 70.0431 60.3731 70.2169 60.1045C70.6118 59.4883 71.1122 59.0143 71.7073 58.6773C72.3656 58.3086 73.0081 58.198 73.6138 58.3349" stroke="black" stroke-width="0.93" stroke-linecap="round" stroke-linejoin="round"></path><path d="M77.7534 55.8026C77.7745 55.7552 77.8008 55.7131 77.8219 55.671C77.9536 55.4287 78.1063 55.197 78.2853 54.9758C78.7383 54.4122 79.2649 53.9645 79.8706 53.6538C80.4078 53.3747 80.945 53.2325 81.4611 53.2483C81.6138 53.2483 81.7455 53.2693 81.8929 53.2851C81.8982 53.2904 81.9035 53.2904 81.914 53.2904C81.9614 53.2957 82.0035 53.3115 82.0509 53.322C82.0562 53.322 82.072 53.3273 82.0825 53.3325C82.2458 53.3799 82.3933 53.4431 82.5302 53.5274C83.0042 53.8118 83.3044 54.2542 83.4308 54.8546C83.5677 55.5077 83.4676 56.224 83.1411 56.9771C83.1253 57.0087 83.1043 57.0403 83.099 57.0824C83.0358 57.1983 82.9779 57.3247 82.9147 57.4406C82.8831 57.4669 82.8673 57.5038 82.8462 57.5354C82.4143 58.2517 81.8508 58.8257 81.1609 59.2471C80.5394 59.621 79.9285 59.8106 79.3281 59.8106C79.0069 59.8106 78.7172 59.7527 78.4486 59.6368C77.8535 59.3735 77.4796 58.8942 77.3268 58.1937C77.211 57.6513 77.2584 57.0561 77.4796 56.4188C77.5217 56.2977 77.5744 56.1766 77.6218 56.0607" stroke="black" stroke-width="0.93" stroke-linecap="round" stroke-linejoin="round"></path><path d="M79.2768 52.6747C79.2768 52.6747 79.261 52.7115 79.2557 52.7326C78.7607 53.7386 78.2709 54.7392 77.7863 55.7241C77.7705 55.7505 77.76 55.7768 77.7495 55.8031C77.7073 55.8874 77.6652 55.9769 77.6231 56.0665C77.6073 56.077 77.602 56.0928 77.5967 56.1033C77.1227 57.0724 76.654 58.031 76.1906 58.979C76.1748 59 76.1695 59.0158 76.1642 59.0316C76.0589 59.0053 75.9641 58.979 75.8588 58.9526C75.1162 58.7472 74.3789 58.5418 73.6468 58.3417C73.6415 58.3364 73.6257 58.3312 73.6152 58.3312C73.5784 58.3101 73.531 58.2996 73.4941 58.2785C73.2571 58.189 73.0517 58.052 72.8832 57.8782C72.6356 57.6254 72.4671 57.3147 72.3776 56.9407C72.2459 56.4246 72.2775 55.8505 72.4566 55.2396C72.5198 55.0131 72.604 54.7919 72.7041 54.5812C73.0148 53.9334 73.4414 53.3699 73.9944 52.9117C74.4421 52.5377 74.9055 52.2797 75.3953 52.1269C75.7008 52.0374 75.9957 51.9953 76.2748 52.0111C76.3802 52.0163 76.475 52.0216 76.5698 52.0427C76.575 52.0479 76.5803 52.0427 76.5908 52.0427" stroke="black" stroke-width="0.93" stroke-linecap="round" stroke-linejoin="round"></path><path d="M79.2739 52.6749C79.2739 52.6749 79.2476 52.6696 79.2371 52.6696C78.3523 52.4537 77.478 52.2483 76.609 52.0481C76.6038 52.0481 76.5985 52.0481 76.588 52.0428C76.2562 51.9533 75.9718 51.7848 75.7506 51.5267C75.2608 50.9684 75.1081 50.2048 75.2924 49.2357C75.3767 48.8091 75.5294 48.3719 75.7611 47.9506C76.4089 46.7392 77.3042 45.9176 78.4365 45.4752C78.8473 45.312 79.2423 45.254 79.611 45.2856C79.7005 45.2909 79.7848 45.2962 79.869 45.3172C80.7644 45.491 81.6649 45.6701 82.5813 45.8439C82.5919 45.8492 82.6024 45.8492 82.6129 45.8544C81.4806 48.1665 80.3746 50.426 79.295 52.638L79.2739 52.6749Z" stroke="black" stroke-width="0.93" stroke-linecap="round" stroke-linejoin="round"></path><path d="M21.3164 49.041C24.0182 53.4545 28.184 56.8779 32.8712 59.0794C37.5532 61.2809 43.5202 62.6029 48.692 62.7819" stroke="#FFD75C" stroke-width="0.93" stroke-miterlimit="10"></path><path d="M55.3379 60.0322C56.3965 60.2376 57.1812 61.3752 56.9969 62.4339" stroke="#FFD75C" stroke-width="0.93" stroke-miterlimit="10"></path><path d="M40.8203 50.1904C42.7215 52.3235 44.7492 54.3459 46.8927 56.2367" stroke="#FFD75C" stroke-width="0.93" stroke-miterlimit="10"></path><path d="M54.2695 55.8984C54.9595 56.2039 55.4492 56.9149 55.4914 57.6681" stroke="#FFD75C" stroke-width="0.93" stroke-miterlimit="10"></path></svg> 