<?xml version="1.0" encoding="UTF-8"?> <svg xmlns="http://www.w3.org/2000/svg" width="40" height="40" viewBox="0 0 40 40" fill="none"><rect width="40" height="40" rx="20" fill="#967CFF"></rect><path d="M26.3333 27.5L21.0833 22.25C20.6667 22.5833 20.1875 22.8472 19.6458 23.0417C19.1042 23.2361 18.5278 23.3333 17.9167 23.3333C16.4028 23.3333 15.1217 22.8089 14.0733 21.76C13.025 20.7111 12.5006 19.43 12.5 17.9167C12.5 16.4028 13.0244 15.1217 14.0733 14.0733C15.1222 13.025 16.4033 12.5006 17.9167 12.5C19.4306 12.5 20.7117 13.0244 21.76 14.0733C22.8083 15.1222 23.3328 16.4033 23.3333 17.9167C23.3333 18.5278 23.2361 19.1042 23.0417 19.6458C22.8472 20.1875 22.5833 20.6667 22.25 21.0833L27.5 26.3333L26.3333 27.5ZM17.9167 21.6667C18.9583 21.6667 19.8439 21.3019 20.5733 20.5725C21.3028 19.8431 21.6672 18.9578 21.6667 17.9167C21.6667 16.875 21.3019 15.9894 20.5725 15.26C19.8431 14.5306 18.9578 14.1661 17.9167 14.1667C16.875 14.1667 15.9894 14.5314 15.26 15.2608C14.5306 15.9903 14.1661 16.8756 14.1667 17.9167C14.1667 18.9583 14.5314 19.8439 15.2608 20.5733C15.9903 21.3028 16.8756 21.6672 17.9167 21.6667Z" fill="white"></path></svg> 