<svg xmlns="http://www.w3.org/2000/svg" viewBox="0 0 39.125 40.26953125" fill="none"> <path d="M28.68734713375796 28.813942675159236C28.9298224522293 26.794893312101912 28.856805732484077 26.50033439490446 30.35950477707006 26.826043789808917L30.742032643312104 26.86043391719745C31.898089171974522 26.912517515923568 33.40951035031847 26.67427866242038 34.312625 26.262344745222933C36.22451671974522 25.375428343949043 37.3581449044586 23.893662420382164 35.47316719745223 24.28346703821656C31.173404458598725 25.170084394904457 30.860902866242036 23.713637579617835 30.860902866242036 23.713637579617835C35.40314092356688 16.973870382165604 37.30307085987261 8.419002229299362 35.662063694267516 6.325640286624204C31.192842356687898 0.6124757085987261 23.454664968152866 3.314336066878981 23.325228503184714 3.385757882165605L23.28356162420382 3.3931841560509555C22.435521019108283 3.2146545382165606 21.49821560509554 3.110512261146497 20.412110589171974 3.0956347929936308C18.466053025477706 3.065879856687898 16.990143391719744 3.605929458598726 15.868352388535031 4.4554902070063696C15.868352388535031 4.4554902070063696 2.0659744426751594 -1.2309148646496817 2.70722571656051 11.607365764331211C2.8440884554140125 14.33896361464968 6.620149363057325 32.287843949044586 11.128196656050955 26.85744347133758C12.77817515923567 24.8726347133758 14.370139012738854 23.195891719745223 14.370139012738854 23.195891719745223C15.15866974522293 23.72108877388535 16.10639187898089 23.988883200636945 17.09877133757962 23.892167197452228L17.176124203821658 23.826701353503186C17.153222372611463 24.08387969745223 17.163738773885353 24.342927070063695 17.207374363057326 24.59738909235669C16.046882006369426 25.894769108280254 16.389088694267517 26.12229219745223 14.068103980891719 26.60001592356688C11.720354777070064 27.08347133757962 13.101018710191083 27.944968949044586 13.999672611464968 28.170996815286625C15.091708678343949 28.444871815286625 17.618012420382165 28.831636146496813 19.32600557324841 26.4422699044586L19.257574203821655 26.714649681528662C19.712844665605097 27.07898566878981 19.68159450636943 29.333034235668787 19.748555573248407 30.94289092356688C19.81549171974522 32.55274761146497 19.92112921974522 34.05694187898089 20.249928742038215 34.94211385350319C20.578753184713378 35.827285828025474 20.964072133757963 38.11123885350318 24.014077707006372 37.47128343949045C26.562635350318473 36.92527786624204 28.511658439490446 36.13829219745222 28.690337579617836 28.827150477707008" fill="black"></path> <path d="M28.68734713375796 28.813942675159236C28.9298224522293 26.794893312101912 28.856805732484077 26.50033439490446 30.35950477707006 26.826043789808917L30.742032643312104 26.86043391719745C31.898089171974522 26.912517515923568 33.40951035031847 26.67427866242038 34.312625 26.262344745222933C36.22451671974522 25.375428343949043 37.3581449044586 23.893662420382164 35.47316719745223 24.28346703821656C31.173404458598725 25.170084394904457 30.860902866242036 23.713637579617835 30.860902866242036 23.713637579617835C35.40314092356688 16.973870382165604 37.30307085987261 8.419002229299362 35.662063694267516 6.325640286624204C31.192842356687898 0.6124757085987261 23.454664968152866 3.314336066878981 23.325228503184714 3.385757882165605L23.28356162420382 3.3931841560509555C22.435521019108283 3.2146545382165606 21.49821560509554 3.110512261146497 20.412110589171974 3.0956347929936308C18.466053025477706 3.065879856687898 16.990143391719744 3.605929458598726 15.868352388535031 4.4554902070063696C15.868352388535031 4.4554902070063696 2.0659744426751594 -1.2309148646496817 2.70722571656051 11.607365764331211C2.8440884554140125 14.33896361464968 6.620149363057325 32.287843949044586 11.128196656050955 26.85744347133758C12.77817515923567 24.8726347133758 14.370139012738854 23.195891719745223 14.370139012738854 23.195891719745223C15.15866974522293 23.72108877388535 16.10639187898089 23.988883200636945 17.09877133757962 23.892167197452228L17.176124203821658 23.826701353503186C17.153222372611463 24.08387969745223 17.163738773885353 24.342927070063695 17.207374363057326 24.59738909235669C16.046882006369426 25.894769108280254 16.389088694267517 26.12229219745223 14.068103980891719 26.60001592356688C11.720354777070064 27.08347133757962 13.101018710191083 27.944968949044586 13.999672611464968 28.170996815286625C15.091708678343949 28.444871815286625 17.618012420382165 28.831636146496813 19.32600557324841 26.4422699044586L19.257574203821655 26.714649681528662C19.712844665605097 27.07898566878981 19.68159450636943 29.333034235668787 19.748555573248407 30.94289092356688C19.81549171974522 32.55274761146497 19.92112921974522 34.05694187898089 20.249928742038215 34.94211385350319C20.57872826433121 35.827285828025474 20.964072133757963 38.11123885350318 24.014077707006372 37.47128343949045C26.562635350318473 36.92527786624204 28.511658439490446 36.13829219745222 28.690337579617836 28.827150477707008" stroke="black" stroke-width="5.3725"></path> <path d="M35.460457802547765 24.296575159235665C31.160695063694266 25.183292197452232 30.848442675159234 23.726745700636943 30.848442675159234 23.726745700636943C35.39068073248407 16.986978503184716 37.29061066878981 8.432085429936306 35.650849522292994 6.338748407643312C31.181628184713375 0.6255788455414013 23.44352555732484 3.32891449044586 23.314064171974522 3.398841082802548L23.272422213375798 3.4062922770700634C22.327291799363056 3.216648168789809 21.366361863057325 3.116518073248408 20.40244148089172 3.1072476910828026C18.456383917197453 3.07749275477707 16.98047428343949 3.617567277070064 15.858683280254777 4.467103105095541C15.858683280254777 4.467103105095541 2.0548175875796177 -1.219299474522293 2.6975566082802547 11.618978662420382C2.834419347133758 14.350576512738854 6.61048025477707 32.29955652866242 11.1185275477707 26.868906847133758C12.778922770700637 24.872360589171976 14.370861703821655 23.195592675159237 14.370861703821655 23.195592675159237C15.159417356687898 23.720789729299362 16.10713949044586 23.98858415605096 17.099518949044587 23.891893073248408L17.176871815286624 23.826427229299366C17.154144426751593 24.08360557324841 17.164635907643312 24.34262802547771 17.208121974522296 24.597114968152866C16.047629617834396 25.8945199044586 16.389836305732484 26.122042993630576 14.068851592356687 26.599766719745222C11.721102388535032 27.083222133757964 13.10176632165605 27.94471974522293 14.000420222929936 28.17074761146497C15.092456289808917 28.44462261146497 17.61876003184713 28.83138694267516 19.326753184713375 26.44202070063694L19.258321815286624 26.71415127388535C19.713592277070063 27.078736464968152 20.031975079617833 29.08432882165605 19.978421178343947 30.902519904458597C19.924842356687897 32.7204617834395 19.88915636942675 33.967228503184714 20.246215605095543 34.94335987261147C20.6032997611465 35.91924203821656 20.960358996815287 38.11223566878981 24.010364570063693 37.47252945859873C26.55889729299363 36.92652388535032 27.878680732484074 35.50855414012739 28.06458678343949 33.1490923566879C28.195667993630572 31.470704617834393 28.490226910828028 31.71766560509554 28.510910828025477 30.217957006369424L28.749149681528664 29.506978503184715C29.02128025477707 27.23050159235669 28.793757165605097 26.49709474522293 30.363242834394903 26.83925159235669L30.745770700636943 26.873392515923566C31.90157802547771 26.925476114649683 33.41474363057325 26.687486464968153 34.30141082802548 26.275303343949044C36.2133025477707 25.388636146496818 37.345684713375796 23.906770541401272 35.460457802547765 24.296575159235665Z" fill="#2E2C2C"></path> <path d="M19.508995939490447 25.58600557324841C19.389976194267515 29.82022770700637 19.53875087579618 34.084354299363056 19.952354458598727 35.10783439490446C20.365982961783438 36.13156369426751 21.254195222929937 38.157839968152864 24.305671098726116 37.50617197452229C26.854203821656053 36.96016640127388 27.782737261146497 35.90229617834395 28.18445382165605 33.56800398089172L29.126195063694265 26.103601910828026M15.85197969745223 4.359422133757962C15.85197969745223 4.359422133757962 2.039177555732484 -1.288284076433121 2.6819066082802547 11.549999044585988C2.8187942675159237 14.281596894904458 6.59483025477707 32.230527070063694 11.102902468152866 26.799877388535034C12.74839530254777 24.81676321656051 14.236216878980892 23.26497101910828 14.236216878980892 23.26497101910828M23.311821337579616 3.3283662420382165C22.835717436305732 3.4771658439490443 30.994974522292996 0.34532671974522294 35.63390366242039 6.271264012738853C37.270425159235664 8.364601035031848 35.37348566878981 16.919494108280254 30.831247611464967 23.65923638535032" stroke="white" stroke-width="1.79" stroke-linecap="round" stroke-linejoin="round"></path> <path d="M30.831995222929933 23.65572261146497C30.831995222929933 23.65572261146497 31.12954458598726 25.11376433121019 35.44401035031847 24.224056847133756C37.3292372611465 23.834252229299363 36.19386464968153 25.316117834394902 34.28346815286624 26.202785031847135C32.71547770700637 26.93195541401274 29.198214968152865 27.11786146496815 29.140150477707007 26.113570063694265C28.991375796178342 23.51736464968153 30.990987261146497 24.305895382165605 30.846698248407645 23.65572261146497C30.715866242038217 23.06952046178344 29.82022770700637 22.49523025477707 29.231109872611466 21.0609875C28.714759554140127 19.811230334394903 22.149036305732483 10.214889570063693 31.05204219745223 11.638715605095541C31.37949601910828 11.57175453821656 28.731207006369427 3.1582347929936305 20.39937627388535 3.036224601910828C12.067670143312101 2.9142144108280257 12.33100382165605 13.279772611464969 12.33100382165605 13.279772611464969" stroke="white" stroke-width="1.79" stroke-linecap="round" stroke-linejoin="bevel"></path> <path d="M17.179139570063693 24.54752340764331C16.018647213375797 25.844928343949043 16.360853901273885 26.07245143312102 14.03986918789809 26.55017515923567C11.692119984076434 27.03363057324841 13.072783917197452 27.895128184713375 13.971437818471339 28.121156050955413C15.063473885350318 28.395031050955414 17.589777627388536 28.781795382165605 19.29777078025478 26.39093391719745C19.81850708598726 25.661763535031845 19.294805254777067 24.50139578025478 18.580661863057326 24.20681194267516C18.23548964968153 24.06396831210191 17.77426321656051 23.885438694267513 17.1821050955414 24.54899371019108L17.179139570063693 24.54752340764331Z" stroke="white" stroke-width="1.79" stroke-linejoin="round"></path> <path d="M17.102858280254775 24.524621576433123C16.983838535031847 23.761385031847134 17.352809713375795 22.855304856687898 17.747075079617836 21.792998805732484C18.339233200636944 20.201059872611463 19.705044585987263 18.60909601910828 18.612983598726117 13.555018232484077C17.799158678343947 9.790869267515925 12.334442834394904 12.770948248407644 12.334442834394904 13.281267834394905C12.334442834394904 13.791587420382164 12.581428742038216 15.870046974522293 12.245178025477706 18.287747691082803C11.803289808917198 21.444861066878982 14.253710987261147 24.11398351910828 17.07459856687898 23.841728343949043" stroke="white" stroke-width="1.79" stroke-linecap="round" stroke-linejoin="round"></path> <path d="M15.802089092356688 13.204363535031847C15.776794904458598 13.378432404458598 16.121967117834394 13.844119585987261 16.56978638535032 13.906594984076433C17.017630573248407 13.969095302547771 17.399983996815287 13.606055175159236 17.425278184713378 13.430491082802547C17.450572372611465 13.254926990445862 17.105400159235668 13.064510350318471 16.657580891719743 13.002010031847133C16.209736703821655 12.939534633757962 15.824392834394905 13.031764968152865 15.802089092356688 13.204363535031847Z" fill="white" stroke="white" stroke-width="0.5975"></path> <path d="M29.43670302547771 12.848874283439491C29.460626592356686 13.022968073248407 29.11672531847134 13.488630334394903 28.668906050955414 13.551130652866242C28.221086783439493 13.613606050955413 27.835817675159234 13.250590843949045 27.813638535031846 13.075026751592356C27.7912101910828 12.89946265923567 28.133367038216562 12.709021098726115 28.581186305732484 12.646545700636942C29.029005573248405 12.584045382165606 29.41452388535032 12.676300636942674 29.43670302547771 12.848874283439491Z" fill="white" stroke="white" stroke-width="0.2975"></path> <path d="M31.03684076433121 11.64257826433121C31.11110350318471 13.011355175159236 30.742032643312104 13.941234315286625 30.694434713375795 15.397805732484075C30.626152866242037 17.51347141719745 31.703211783439492 19.93560796178344 30.08014729299363 22.3607349522293" stroke="white" stroke-width="1.79" stroke-linecap="round" stroke-linejoin="round"></path> </svg>