<svg xmlns="http://www.w3.org/2000/svg" viewBox="0 0 39.19921875 35" fill="none"> <path d="M29.551467083001594 32.537848328025476C24.9367203299164 35.192409434713376 18.591315585191087 35.46530590664809 12.20731084544188 32.74083536524682C7.038307113355891 30.551171999402868 2.7493882613455414 26.717887888136946 0 22.338461285828025C1.3197103602707008 23.433367871715767 2.8593458150875795 24.309632700537424 4.5089338301154465 25.075765202030258C11.101768038415605 28.152529359076436 17.693253993332007 27.941802348726117 22.33189479249602 25.083505175159235C15.733268088176752 20.046405565784237 10.117667906548567 13.468202403463376 5.938806478901275 8.103177609972136C5.058646695859872 7.227062587082006 4.398776535131369 6.132006195262739 3.738931342058121 5.146507874701434C8.797752811504779 9.745574940286625 16.82622719695462 15.548856986464969 19.684973788316082 17.19212818471338C13.637233429538217 10.840456558519108 8.248064913415604 2.956744638236465 8.467580538415605 3.1753364599920384C18.03566041749602 12.81160300557325 26.944094844745223 18.2869348999801 26.944094844745223 18.2869348999801C27.238713176751595 18.45247045431927 27.46641819267516 18.59019204070462 27.64918142914013 18.713357484076436C27.841931727707006 18.224990147292996 28.010962753781847 17.717847133757964 28.153528065286626 17.19212818471338C29.69303368829618 11.607487895601114 27.934062375597136 5.255791301751593 24.084374514828824 0C32.99200997710987 5.365574081906848 38.27142068073248 15.439498656449045 36.07127089968153 23.871575189092358C36.01384529259554 24.099055496118634 35.951426154458595 24.323614587480098 35.884263161823256 24.544103951035034C40.282565311504776 30.01961061902866 39.150531822253186 35.91722046675955 38.600744053542996 34.82238878383758C36.21458524084395 30.173161698845544 31.797307673168792 31.59481998905255 29.551467083001594 32.537848328025476Z" fill="#2E2C2C"></path> </svg>