<?xml version="1.0" encoding="UTF-8"?> <svg xmlns="http://www.w3.org/2000/svg" width="67" height="26" viewBox="0 0 67 26" fill="none"><path d="M5.05626 7.57903C4.92578 7.57903 4.89316 7.51379 4.9584 7.41593L5.64343 6.53517C5.70867 6.43731 5.87178 6.37207 6.00226 6.37207H17.6478C17.7783 6.37207 17.8109 6.46993 17.7457 6.56779L17.1911 7.41593C17.1259 7.51379 16.9628 7.61165 16.8649 7.61165L5.05626 7.57903Z" fill="#2E2C2C"></path><path d="M0.130483 10.58C2.72207e-07 10.58 -0.0326207 10.5148 0.0326205 10.4169L0.717653 9.53615C0.782894 9.43829 0.945997 9.37305 1.07648 9.37305H15.9515C16.082 9.37305 16.1472 9.47091 16.1146 9.56877L15.8536 10.3517C15.821 10.4821 15.6905 10.5474 15.56 10.5474L0.130483 10.58Z" fill="#2E2C2C"></path><path d="M8.02306 13.581C7.89258 13.581 7.85996 13.4831 7.9252 13.3853L8.38189 12.5697C8.44713 12.4719 8.57761 12.374 8.70809 12.374H15.2322C15.3627 12.374 15.4279 12.4719 15.4279 12.6024L15.3627 13.3853C15.3627 13.5157 15.2322 13.6136 15.1343 13.6136L8.02306 13.581Z" fill="#2E2C2C"></path><path d="M41.8869 6.992C39.8318 7.51393 38.4291 7.90538 36.4066 8.42731C35.9173 8.55779 35.8847 8.59041 35.4606 8.1011C34.9713 7.54655 34.6125 7.18773 33.9275 6.86152C31.8724 5.85028 29.8825 6.14387 28.0232 7.35083C25.805 8.78614 24.6632 10.9065 24.6959 13.5487C24.7285 16.1584 26.5226 18.3113 29.0996 18.6702C31.3178 18.9638 33.1772 18.1809 34.6451 16.5172C34.9387 16.1584 35.1997 15.7669 35.5259 15.3103C34.3515 15.3103 32.8836 15.3103 29.2301 15.3103C28.5451 15.3103 28.382 14.8862 28.6103 14.3316C29.0344 13.3204 29.8173 11.6241 30.274 10.776C30.3718 10.5803 30.6002 10.2541 31.0895 10.2541C32.7531 10.2541 38.8858 10.2541 42.9634 10.2541C42.8981 11.1348 42.8981 12.0156 42.7677 12.8963C42.4088 15.245 41.5281 17.398 40.0928 19.29C37.7441 22.3889 34.6778 24.3135 30.7959 24.8355C27.5991 25.2595 24.6306 24.6397 22.021 22.6825C19.607 20.8558 18.237 18.4418 17.8781 15.4407C17.4541 11.8851 18.4979 8.68827 20.6509 5.8829C22.967 2.84919 26.0333 0.924574 29.7847 0.239542C32.851 -0.315008 35.7869 0.0438185 38.4291 1.83795C40.158 2.97967 41.3976 4.54546 42.2131 6.43745C42.4088 6.73104 42.2784 6.89414 41.8869 6.992Z" fill="#2E2C2C"></path><path d="M52.6838 25.0309C49.7154 24.9656 47.0079 24.1175 44.7244 22.1603C42.7998 20.4966 41.5928 18.3763 41.2014 15.8645C40.6142 12.1784 41.6255 8.91632 43.8437 6.01308C46.225 2.88151 49.0956 1.25048 52.9774 0.565444C56.3047 -0.0217264 59.4363 0.304479 62.2743 2.22909C64.8513 3.99061 66.4497 6.37191 66.8738 9.50349C67.4283 13.9073 66.1561 17.4955 63.1224 20.5619C60.9695 22.7474 58.3272 24.1175 55.2935 24.7373C54.4127 24.9004 53.532 24.933 52.6838 25.0309ZM60.4475 11.8522C60.4149 11.4281 60.4149 11.1019 60.3497 10.7757C59.7625 7.54625 56.794 5.7195 53.6951 6.43715C50.6614 7.12218 48.7041 9.0468 47.9865 12.1131C47.3993 14.6575 48.6389 17.2346 50.9876 18.2784C52.7817 19.0613 54.5758 18.9635 56.3047 18.0827C58.8818 16.7453 60.2844 14.6575 60.4475 11.8522Z" fill="#2E2C2C"></path></svg> 