<svg xmlns="http://www.w3.org/2000/svg" viewBox="0 0 44.255859375 35" fill="none"> <path d="M43.29814268785112 14.301653899666432C42.21909533005618 13.573893641371138 39.383736788974716 13.263058386367627 37.32235853010885 13.819389346690661C37.21097299640098 11.76203886828476 36.1525617977528 10.028352871532654 34.21549775061446 8.515672680389747L33.49845337737008 8.033408127413974L33.02083817591292 8.75651903419066C32.081519992099715 10.185212543890449 31.685703541959267 12.088612302492978 31.82592997278792 13.818792638474369C31.93656962122542 14.884787004037921 32.30652871532654 16.083151142248948 33.02083817591292 16.952629601913625C30.33788885840941 18.5119524852967 27.864781930301966 18.157980198823736 16.91297336837254 18.157980198823736H0.0037961582206811795C-0.04567304138869382 20.635786204134483 0.35182662317854635 25.40236602440309 3.3770204244206457 29.28270982926615C3.711077574174859 29.71134523130267 4.077729910244031 30.125808813202248 4.475237033663975 30.525354689694524C6.934719124166081 32.99324042090941 10.650744403967696 34.80275808681531 16.207589668188202 34.807979283707866C24.684874119996486 34.815438136411515 31.948255157127807 30.224514297313902 36.3661336135007 19.123106012991574C37.81986400544242 19.146999204485603 41.65744372147121 19.3843398975158 43.535582832250704 15.747850850377459C43.58157909058989 15.686613669680476 44.01344666213132 14.783321744425912 44.01344666213132 14.783321744425912L43.297645431004206 14.30105719145014L43.29814268785112 14.301653899666432ZM11.038927961508074 12.035554996927669H6.284058539984199V16.79984743570049H11.038927961508074V12.035554996927669ZM17.18184014549684 12.035554996927669H12.426970723972964V16.79984743570049H17.18184014549684V12.035554996927669ZM23.32477719232795 12.035554996927669H18.569907770804075V16.79984743570049H23.32477719232795V12.035554996927669ZM29.467689376316713 12.035554996927669H24.712819954792838V16.79984743570049H29.467689376316713V12.035554996927669ZM4.896015777519311 12.035554996927669H0.1411461073670119V16.79984743570049H4.896015777519311V12.035554996927669ZM11.038927961508074 6.018050989729634H6.284058539984199V10.782368291344804H11.038927961508074V6.018050989729634ZM17.18184014549684 6.018050989729634H12.426970723972964V10.782368291344804H17.18184014549684V6.018050989729634ZM23.32477719232795 6.018050989729634H18.569907770804075V10.782368291344804H23.32477719232795V6.018050989729634ZM23.32477719232795 0H18.569907770804075V4.764292438772823H23.32477719232795V0Z" fill="#2E2C2C"></path> </svg>