<svg xmlns="http://www.w3.org/2000/svg" viewBox="0 0 63.6875 32.00001907348633" fill="none"> <path d="M5.034709166666667 6.72387649509804H14.47037443627451C17.23983161764706 6.747128676470588 19.246662205882355 7.5455950980392155 20.490891176470587 9.118002009803922C21.735120147058826 10.69038394607843 22.145667254901962 12.838051323529411 21.723181862745097 15.561004142156863C21.559092892156862 16.8052331127451 21.195050147058822 18.025560539215686 20.631727965686274 19.222610808823532C20.091657965686274 20.419686053921566 19.34099463235294 21.499151715686274 18.378439240196077 22.461732083333334C17.204616176470587 23.682034534313726 15.949098284313726 24.456599411764707 14.611211225490196 24.785426715686274C13.273324166666667 25.114353921568625 11.888258406862745 25.27844289215686 10.456688284313726 25.27844289215686H6.231759436274509L4.893872377450981 31.96787818627451H0L5.034709166666667 6.72387649509804ZM9.154016666666667 10.737562647058825L7.041539754901961 21.299872279411765C7.1823765441176475 21.323124460784314 7.323213333333333 21.335087720588234 7.46405012254902 21.335087720588234C7.628114117647059 21.335087720588234 7.7928774264705885 21.335087720588234 7.956941421568628 21.335087720588234C10.210230147058823 21.358314926470587 12.08821218137255 21.135783308823527 13.590188210784314 20.666119215686273C15.092164240196078 20.173227916666665 16.10189833333333 18.460009191176468 16.61804181372549 15.52581367647059C17.04055218137255 13.061257279411766 16.61804181372549 11.641001053921569 15.350560661764705 11.265669387254903C14.10633169117647 10.890337720588237 12.545913014705883 10.714310465686273 10.667930980392157 10.737562647058825C10.38628237745098 10.760789852941176 10.116572058823529 10.772753112745098 9.858175637254902 10.772753112745098C9.623655784313726 10.772753112745098 9.377222622549018 10.772753112745098 9.118801225490197 10.772753112745098L9.154016666666667 10.737562647058825Z" fill="#2E2C2C"></path> <path d="M27.298210784313724 0H32.15669289215686L30.78354044117647 6.724675710784314H35.14950588235294C37.54365637254902 6.77182943627451 39.327156127450976 7.264745710784314 40.50100416666667 8.203399558823529C41.6980794117647 9.142053406862745 42.05023382352942 10.92635237745098 41.55721764705882 13.554972769607843L39.198282598039214 25.279192156862745H34.26911985294118L36.522408578431374 14.083079509803921C36.75692843137255 12.909281421568629 36.686497549019606 12.076248921568629 36.31136568627451 11.583332647058823C35.93598406862745 11.090441348039215 35.12627867647059 10.843983210784314 33.88199975490196 10.843983210784314L29.97383504901961 10.808767769607844L27.0869181372549 25.279192156862745H22.228186274509802L27.298210784313724 0Z" fill="#2E2C2C"></path> <path d="M46.775097058823526 6.72387649509804H56.210587499999995C58.980119607843136 6.747128676470588 60.98690024509804 7.5455950980392155 62.23117916666667 9.118002009803922C63.4754580882353 10.69038394607843 63.88605514705882 12.838051323529411 63.46346985294118 15.561004142156863C63.29938088235294 16.8052331127451 62.935238235294115 18.025560539215686 62.37204093137255 19.222610808823532C61.83182107843137 20.419686053921566 61.08130759803922 21.499151715686274 60.11875220588236 22.461732083333334C58.94490416666667 23.682034534313726 57.68938627450981 24.456599411764707 56.351449264705884 24.785426715686274C55.01351225490196 25.114353921568625 53.62862132352941 25.27844289215686 52.1970262254902 25.27844289215686H47.97217230392157L46.634235294117644 31.96787818627451H41.74028799019608L46.775097058823526 6.72387649509804ZM50.894304656862744 10.737562647058825L48.78187769607843 21.299872279411765C48.922739460784314 21.323124460784314 49.063601225490196 21.335087720588234 49.20421323529411 21.335087720588234C49.36830220588235 21.335087720588234 49.53314044117647 21.335087720588234 49.69722941176471 21.335087720588234C51.9505181372549 21.358314926470587 53.82842524509804 21.135783308823527 55.330451225490194 20.666119215686273C56.832477205882356 20.173227916666665 57.84223627450981 18.460009191176468 58.35822990196078 15.52581367647059C58.780815196078436 13.061257279411766 58.35822990196078 11.641001053921569 57.09097352941176 11.265669387254903C55.84669460784313 10.890337720588237 54.28622598039216 10.714310465686273 52.40831887254902 10.737562647058825C52.12659534313726 10.760789852941176 51.85686004901961 10.772753112745098 51.598363725490195 10.772753112745098C51.36384387254902 10.772753112745098 51.11758553921568 10.772753112745098 50.859089215686275 10.772753112745098L50.894304656862744 10.737562647058825Z" fill="#2E2C2C"></path> </svg>