<?xml version="1.0" encoding="UTF-8"?> <svg xmlns="http://www.w3.org/2000/svg" viewBox="0 0 36.072265625 35" fill="none"><path d="M17.822933283943964 0.0030699737015086204C17.505596856142244 0.01905501261314655 17.194703681303878 0.09773121119342673 16.90843915678879 0.23448316037176725L4.42967421875 6.19696646012931C4.106690615571121 6.351206492456897 3.8229138335129313 6.575650616918104 3.599390173760776 6.853606081627155C3.375866514008621 7.131561546336206 3.218342661637931 7.45588853044181 3.1385358836206896 7.802505686961207L0.05995210546875 21.195739874730602C-0.011137249818157328 21.50434432650862 -0.019093149705010776 21.823919722521552 0.036555385210129306 22.13560897494612C0.09220369622844828 22.44729822737069 0.21032568846982758 22.74473271551724 0.38393080563038795 23.010348977640085C0.42602589574353444 23.075279055765087 0.4712978329741379 23.138119430226293 0.5195874018049569 23.198671081627158L9.156882435344828 33.93778259698276C9.38045584994612 34.21566342941811 9.664282386853449 34.44005779903017 9.987265990032327 34.59429783135776C10.310249593211207 34.74853786368534 10.664106080280172 34.82839439655172 11.022564890894396 34.82839439655172L24.873842219827587 34.82516033135776C25.232176643318965 34.82540910560345 25.585933620689655 34.74580134698276 25.908842591594826 34.591810088900864C26.23200033674569 34.43781883081897 26.515851751077587 34.21392200969827 26.739499797952586 33.93628995150862L35.37370754310345 23.195486771282326C35.59735558997845 22.91745667429957 35.75507846174569 22.59300530307112 35.83468622036638 22.24623888200431C35.91454275323276 21.8994724609375 35.91479152747844 21.539321985452588 35.83493499461207 21.192555564385774L32.751378219288796 7.799296499191811C32.6717704606681 7.452704220096982 32.514047588900866 7.1283523585668105 32.29064831627155 6.850421771282328C32.06700026939655 6.572466306573276 31.783397629310347 6.348022182112069 31.46023988415948 6.193782149784483L18.97998230064655 0.23448316037176725C18.619931334859913 0.06245999863954741 18.222066683728446 -0.01711198624461207 17.822933283943964 0.0030699737015086204Z" fill="#2E2C2C"></path><path d="M17.9473950390625 4.5605294719827585C17.534902462284485 4.560579226831897 17.20042548895474 4.932123562769397 17.20047524380388 5.390440355603448C17.20047524380388 5.397480666756466 17.20191813442888 5.404197571390085 17.202067398976293 5.411188127693966C17.20147034078664 5.473456321390086 17.198460172413792 5.548486633890086 17.20047524380388 5.602694542025862C17.210326703933188 5.8670420554956895 17.267942819234914 6.0693452720905166 17.302621949084052 6.31289525862069C17.36546232354526 6.834151935614224 17.41810295393319 7.266247922952586 17.38561303744612 7.667869065193965C17.354018708243533 7.819297948545259 17.242468336476296 7.957815448545259 17.143033270474138 8.054091081627156L17.125469808728447 8.370084128502155C16.677228372844827 8.407226123383621 16.22600164601293 8.475216124730604 15.775297345096984 8.577561849407328C13.835903080549569 9.017892264278016 12.166130343480603 10.016870125269396 10.894869070581896 11.365699207974137C10.812375530711208 11.30940159617457 10.668061590786637 11.205886632543104 10.625148033405173 11.174167916217671C10.491780160290949 11.192179171605604 10.357019151400861 11.233326431842672 10.181459166217671 11.131080216864223C9.847206089709053 10.906088789062501 9.542781045258621 10.595519020743534 9.17442101966595 10.221387432650863C9.005627693965518 10.042419240301724 8.883404907058189 9.87200888200431 8.682867987607759 9.699508820043103C8.637317423221981 9.660326876346982 8.567834776400861 9.607362839439656 8.51688581088362 9.567036534213361C8.360108281250001 9.44205235317888 8.17519438442888 9.376848623383621 7.996599353448276 9.370753654364226C7.767005602101293 9.36289238820043 7.5459696848060345 9.452650136045257 7.4013074609375 9.634081193426724C7.144174400592672 9.956617002963362 7.226493798491379 10.449563170797413 7.5848530994073275 10.735280391971983C7.588485203394396 10.738191050646552 7.592366081627156 10.740430018857758 7.596023063038793 10.743266045258622C7.645255486260776 10.78319431169181 7.705558363415948 10.834342296605604 7.750835276131465 10.867752677801725C7.963636765894396 11.02487849137931 8.158028961476294 11.105307205010774 8.370059251077587 11.230042611799568C8.8167831640625 11.505908372844827 9.18710850619612 11.734656291756465 9.480836258081895 12.010447420528017C9.595546062769397 12.132719962284483 9.615597266971982 12.348183336476293 9.630872005657327 12.441374168911638L9.870267462284483 12.655220510506465C8.588731813038793 14.583842850215516 7.995629133890086 16.966055272090518 8.34612716864224 19.393345587284482L8.03331843211207 19.48429745150862C7.950874647090517 19.590772828663795 7.834373667834052 19.758297405711208 7.712524042295258 19.80827615167026C7.328217587553879 19.929329699622844 6.8956986839978445 19.973785657327586 6.373521542295259 20.028515991379308C6.128379400592673 20.048915479525864 5.916846659482759 20.036750418911637 5.656927327586207 20.08598284213362C5.599734128502155 20.09682939924569 5.52002686018319 20.117577171336205 5.4574352599676725 20.132254851831895C5.455270924030172 20.132702645474136 5.453230975215518 20.1333743359375 5.451066639278017 20.133871884428878C5.4476335546875 20.134643084590518 5.443155618265086 20.136309872036637 5.439896675646552 20.137056194773706C4.999640893049569 20.243407184806035 4.716834330549569 20.648063372844828 4.807885704471983 21.04674897898707C4.898961955818965 21.445509217403018 5.328968239493534 21.688014352101295 5.771836151670259 21.592559674030174C5.775045339439655 21.591838228717673 5.779697417834052 21.591713841594828 5.783006115301724 21.59096751885776C5.788006477640087 21.589823157327587 5.792409781788793 21.58738516971983 5.797385266702586 21.586191053340517C5.859106157058189 21.57263285695043 5.936474947467672 21.55755713766164 5.990483836206896 21.543078476562503C6.24602474137931 21.474665558997845 6.431063025323276 21.374160763739226 6.660781163793104 21.286144435614222C7.154996080280172 21.108892785560347 7.564329224137931 20.960822354525863 7.96308946255388 20.903106729525863C8.129643820043103 20.890070959051723 8.305129172952586 21.00587537042026 8.392399178340517 21.054734632273707L8.71797003367457 20.99885993669181C9.467203429418102 23.321714823545257 11.037292326239225 25.199089668642245 13.02547122036638 26.377284496228448L12.88981462419181 26.702929983836206C12.938698763469827 26.82930730064655 12.992633019935344 27.000215207435346 12.95621247036638 27.12509987877155C12.811226839978447 27.500997764008623 12.562925265355602 27.897792685883623 12.280143580280173 28.34036206896552C12.143243112877155 28.544605724676725 12.003108580280173 28.703323693426725 11.87956728987069 28.937171484375C11.849988032058189 28.993145689655172 11.812348488685345 29.078972804418104 11.78381408270474 29.13818107489224C11.591834997306034 29.548907354525863 11.732641220366379 30.022075969827586 12.101399284752155 30.19945200700431C12.472470949622846 30.378071915409485 12.933051588092672 30.189749811422413 13.132394391163794 29.778277209051726C13.13269292025862 29.777530886314654 13.13368801724138 29.777282112068963 13.133986546336207 29.776535789331895C13.134185565732759 29.776287015086204 13.133787526939654 29.775540692349136 13.133986546336207 29.775043143857758C13.162371687769397 29.71658119612069 13.202598483297413 29.639958728448278 13.226555443157327 29.58522839439655C13.332384007273708 29.342673504849138 13.367585563038794 29.134947009698276 13.441993939924568 28.900352896012933C13.639620200700431 28.40404827586207 13.748210158943966 27.88311500538793 14.020244796605605 27.558713389008624C14.094752683189654 27.469652209051723 14.216204269935346 27.43557013739224 14.342133793103448 27.40173683997845L14.511300280172414 27.09549574353448C16.24453532731681 27.76071807650862 18.184626159752156 27.939337984913795 20.122677043372843 27.499256344288792C20.564773755387932 27.398751549030173 20.991595728717673 27.268891392780173 21.404212692618536 27.11290994073276C21.451778328394397 27.197244410021554 21.54011806303879 27.359445218211206 21.56382624865302 27.40024419450431C21.691770843211206 27.441789493534483 21.83145758216595 27.46343285290948 21.945246922144396 27.63160424299569C22.148794009967673 27.979390638469827 22.287983200431036 28.390863240840517 22.457547726293104 28.88766540948276C22.53198098060345 29.122259523168104 22.56874981411638 29.329986018318966 22.674603255657328 29.57229213362069C22.698734357489226 29.627520016163793 22.73873725619612 29.705386355064654 22.767172152478448 29.763848302801723C22.96606716190733 30.176813550646553 23.428115568426723 30.365881977370687 23.7997594140625 30.18676452047414C24.168442846174568 30.009139709051723 24.309423211206898 29.53621986799569 24.117344616109914 29.12549358836207C24.08881021012931 29.066285317887928 24.049553634159484 28.980458203125 24.01999925377155 28.924483997844828C23.896433085937502 28.690387432650862 23.756323430765086 28.53341088362069 23.6193980859375 28.329167227909483C23.336616400862066 27.886846619073275 23.102072042025863 27.519158283943966 22.95708641163793 27.143260398706897C22.896460127963362 26.949465261314653 22.967311033135775 26.82880975215517 23.014528384967672 26.702929983836206C22.986267630657327 26.67034055765086 22.92574085668103 26.487242712823278 22.89004175242457 26.401166823814656C24.956286004849137 25.181177922952585 26.480277033943963 23.233723372844825 27.1960005387931 20.984505662715517C27.29252494612069 20.999705769127154 27.460447561961207 21.0294094140625 27.51517789601293 21.040380358297412C27.627375080818965 20.966270510506465 27.73086516702586 20.869621716056034 27.933367403017243 20.885568145204743C28.332152518857757 20.943234015355603 28.741386153017242 21.091354201239223 29.235451804956895 21.268580973868534C29.465319207974137 21.356597301993535 29.650407246767244 21.45871912984914 29.905898397090514 21.52713204741379C29.959882408405175 21.541585831088362 30.037251198814655 21.55506939520474 30.098947211745692 21.56862759159483C30.10392269665948 21.569846585398707 30.108400633081896 21.572284573006463 30.11337611799569 21.573404057112068C30.116610183189657 21.574150379849137 30.121336893857755 21.574274766971985 30.124570959051724 21.575021089709054C30.56738911637931 21.67035138065733 30.997519787176724 21.427995510506463 31.088571161099136 21.02918551724138C31.17937376077586 20.630475033674568 30.896766217672415 20.225744213362066 30.456435802801725 20.119492733028018C30.392500821659482 20.104939439655173 30.301698221982758 20.08021127963362 30.239504660560346 20.068419380387933C29.979535573814655 20.019211834590518 29.76807746497845 20.031352017780172 29.52278605872845 20.01097740705819C29.00060891702586 19.956247073006466 28.56823927801724 19.911766237877156 28.183883068426724 19.790737567349137C28.02715529364224 19.729937141702585 27.915704431573275 19.54348084455819 27.861471646012934 19.466758867187497L27.55970848599138 19.378966435883623C27.716187486530174 18.247541166487068 27.67414463900862 17.070018029364224 27.403478259698275 15.891823201778017C27.130324137931034 14.702657429956897 26.647453327047412 13.615041305226292 26.00387435344828 12.65681266567888C26.08124314385776 12.586484186422414 26.227273626077586 12.457071823814655 26.268570150862068 12.419009364224138C26.280760088900863 12.28499467807112 26.270311570581896 12.144486984105605 26.409127599676722 11.996093146551724C26.702929983836206 11.720277140355602 27.07310606142241 11.491554098868535 27.519904606681035 11.215663460398707C27.73186026400862 11.090928053609913 27.92789436961207 11.010524217403017 28.14084512392241 10.85339840382543C28.18885855334052 10.81784856411638 28.254534954202587 10.76157582974138 28.30503612607759 10.72092611799569C28.663519814116377 10.435109387122845 28.745864089439653 9.942188096713362 28.488631519396552 9.619726919450432C28.231398949353448 9.29724086476293 27.732855360991376 9.266865529364225 27.374620447198275 9.55268226023707C27.323621726831895 9.59308319773707 27.254462486530173 9.645748705549568 27.208688025323273 9.68515454606681C27.008175983297413 9.857654608028016 26.884286408943964 10.02806496632543 26.71561747036638 10.20703315867457C26.3471828125 10.581164746767241 26.04268313577586 10.893301792834052 25.708579323814654 11.118318098060344C25.563792712823275 11.202627689924569 25.351588281250002 11.173471348329741 25.255312648168104 11.167799295528017L24.971212459590514 11.37047567349138C23.351269203933192 9.671845123922413 21.14576112877155 8.585821154364226 18.770912424568966 8.374860594019395C18.764245274784482 8.275350895743534 18.755563053609915 8.095462238685345 18.753348962823274 8.041304085398707C18.656127987607757 7.9482873949353445 18.538681666217673 7.868853778286638 18.50915216325431 7.667869065193965C18.47668712419181 7.266247922952586 18.530919909752157 6.834151935614224 18.593760284213364 6.31289525862069C18.6284394140625 6.0693452720905166 18.686055529364225 5.8670420554956895 18.695882112068965 5.602694542025862C18.698121080280174 5.54261556169181 18.69453873114224 5.4553953111530165 18.69428995689655 5.390440355603448C18.694240202047414 4.932123562769397 18.359887615840517 4.56050459455819 17.9473950390625 4.5605294719827585ZM17.01215313981681 10.353859718480605L16.790321144935344 14.271929700969828L16.774349838362067 14.279890476831897C16.75947313846983 14.630413389008622 16.470994523168105 14.910309292834052 16.11681462957974 14.910309292834052C15.971754366918105 14.910309292834052 15.837839190463361 14.863713876616378 15.729000457974138 14.784230505118535L15.722631837284483 14.787414815463361L12.509961228448276 12.509986105872844C13.497346209590518 11.539069979795258 14.760298422683189 10.821580177801724 16.215777024515084 10.491108469827585C16.481642060883622 10.430730960398707 16.74740758755388 10.38595159617457 17.01215313981681 10.353859718480605ZM18.884204216056037 10.353859718480605C20.58350645608836 10.562854962284483 22.155013366109916 11.332313704202585 23.359279734644396 12.51157826104526L20.167356897898706 14.774652696659484L20.156186934267243 14.769851353717673C19.872882823275862 14.976781771282328 19.47369966864224 14.925434766971982 19.252887648168105 14.648573908943966C19.162408455010777 14.535132852909483 19.11494232893319 14.401789857219827 19.109245398706896 14.267128358028017L19.1060362109375 14.265536202855603L18.884204216056037 10.353859718480605ZM11.34492655845905 13.973475238415949L14.278298321659483 16.597222575431033L14.275089133890086 16.61319388200431C14.539859563577586 16.84335981411638 14.578917120150862 17.242791742995692 14.358080222252156 17.519677478448276C14.267625906519397 17.633118534482758 14.146547481142242 17.709193698814655 14.016562937769397 17.744718661099135L14.01335375 17.75748077990302L10.253305168372844 18.84273354929957C10.061923141163792 17.092805750269395 10.474341085668103 15.391712335668103 11.34492655845905 13.973475238415949ZM24.529090870150863 13.975067393588361C24.964993103448275 14.681511619073275 25.294867753232758 15.470524016702585 25.491399407327588 16.325909383081896C25.685692093211205 17.171045250538793 25.73420307112069 18.014663595096984 25.654346538254313 18.82997143049569L21.875042830010774 17.74153435075431L21.87183364224138 17.725563044181033C21.53342603582974 17.63306877963362 21.32545076643319 17.288839855872844 21.4042375700431 16.943541202855602C21.43650358970905 16.802113044181034 21.51158365705819 16.68245263200431 21.61330744612069 16.594038265086205L21.611690413523707 16.586052611799566L24.529090870150863 13.975067393588361ZM17.3457096484375 16.799923830818965H18.547463397090517L19.294383192349137 17.733548697467672L19.02625431034483 18.898583367456897L17.9473950390625 19.417277669719827L16.865326580010777 18.896991212284483L16.597197698006468 17.731956542295258L17.3457096484375 16.799923830818965ZM21.198352004310347 19.995006100484915C21.249425356950432 19.99244372575431 21.300249935344826 19.99704604929957 21.34995502963362 20.006176064116378L21.356348527747844 19.99819041082974L25.24561045258621 20.65572561961207C24.676489610721983 22.254921103178877 23.587281330818964 23.64032 22.13197687095905 24.56742698141164L20.622215728717673 20.92067019127155L20.626992194234916 20.914276693157326C20.48830055226293 20.592014535290946 20.62709170393319 20.214126456088362 20.94616955145474 20.060433727101294C21.027867013739222 20.02110251885776 21.113221457435344 19.999309894935347 21.198352004310347 19.995006100484915ZM14.666112493265086 20.01097740705819C14.962900168372846 20.015131936961208 15.229138366109915 20.22114188981681 15.298098587015085 20.523278211206897C15.330389484105604 20.66470636988147 15.314666951778017 20.804865779903015 15.261404385775863 20.92865584455819L15.272574349407328 20.94301011853448L13.778759636314655 24.553047830010776C12.382116143588362 23.65683860991379 11.2696972265625 22.314950328663794 10.674629230872846 20.668512615840516L14.530455897090517 20.014161717403017L14.536824517780172 20.022147370689655C14.579961971982758 20.014211472252157 14.623696484375 20.010380348868534 14.666112493265086 20.01097740705819ZM17.923438079202587 21.592559674030174C18.026828655711206 21.588753428071122 18.131736755118535 21.609973871228448 18.231470350215517 21.657987300646553C18.36217633890086 21.7209520622306 18.46315380522629 21.820063721713364 18.526715624999998 21.93887830145474H18.541069898976293L20.44185440059267 25.373480414870688C20.19516985856681 25.456073464439655 19.941569392510775 25.526725350215518 19.68219736395474 25.585684846443964C18.228485059267243 25.91580827047414 16.779399955549568 25.815801023706896 15.467265074084052 25.3685049299569L17.36327311018319 21.940470456627153H17.366457420528015C17.480221883081896 21.727793353987067 17.695983786368533 21.600918488685345 17.923438079202587 21.592559674030174Z" fill="white"></path></svg> 