<svg xmlns="http://www.w3.org/2000/svg" viewBox="0 0 21.6015625 35" fill="none"> <path d="M7.370378636853449 3.0930706267959773C6.987832345545978 2.7070978807471264 6.457104301364943 2.4693143363864944 5.865469782686782 2.4693143363864944C5.275325026939655 2.4693143363864944 4.748669001436782 2.7070978807471264 4.370964439655173 3.0930706267959773H4.361305809985633C3.979876840876437 3.4764611170977013 3.7433024874281613 4.011385326867816 3.7433024874281613 4.6022997934626435C3.7433024874281613 5.1965662266522985 3.979876840876437 5.728138469827586 4.361305809985633 6.10777972341954L4.370964439655173 6.118232893318966C4.748669001436782 6.500853672772989 5.275325026939655 6.735267869971265 5.865469782686782 6.735267869971265C6.457104301364943 6.735267869971265 6.987832345545978 6.500853672772989 7.370378636853449 6.118232893318966L7.374823096264368 6.10777972341954C7.757741828304598 5.728138469827586 7.991336655890805 5.1965662266522985 7.991336655890805 4.6022997934626435C7.991336655890805 4.011385326867816 7.757741828304598 3.4764611170977013 7.374823096264368 3.0930706267959773H7.370378636853449ZM5.865469782686782 32.29185299928161C6.457104301364943 32.29185299928161 6.987832345545978 32.04951822916667 7.370378636853449 31.67062185704023L7.374823096264368 31.659448635057473C7.757741828304598 31.281297144396554 7.991336655890805 30.746472252155176 7.991336655890805 30.15851248204023C7.991336655890805 29.564097072557473 7.757741828304598 29.032003412356325 7.374823096264368 28.64665140086207H7.370378636853449C6.987832345545978 28.256830100574714 6.457104301364943 28.021447557471266 5.865469782686782 28.021447557471266C5.275325026939655 28.021447557471266 4.748669001436782 28.256830100574714 4.370964439655173 28.64665140086207H4.361305809985633C3.979876840876437 29.032003412356325 3.7433024874281613 29.564097072557473 3.7433024874281613 30.15851248204023C3.7433024874281613 30.746472252155176 3.979876840876437 31.281297144396554 4.361305809985633 31.659448635057473L4.370964439655173 31.67062185704023C4.748669001436782 32.04951822916667 5.275325026939655 32.29185299928161 5.865469782686782 32.29185299928161ZM17.428165454382185 25.829013110632182C17.9536793283046 25.690216864224137 18.42943512033046 25.351295797413794 18.720261673850576 24.838320761494256L18.75924380387931 24.763311197916668C19.017742501795976 24.277648482399428 19.064918327945403 23.716231321839082 18.926742816091952 23.217880792025863C18.787474811422417 22.685960937500003 18.44654256465517 22.21410335847701 17.937341594827586 21.920346937859197L17.907273213002874 21.90018547952586C17.411082839439658 21.626193247126437 16.84656200610632 21.566453753591954 16.327329965876437 21.70867645474138C15.799581447557472 21.8411908674569 15.325315418462644 22.194339170258623 15.036375897988506 22.702745599856325C14.743711970186782 23.208172503591957 14.682805495689655 23.7890310704023 14.822818381824714 24.323582839439656C14.96727572737069 24.849493983477014 15.305625718390806 25.324728358477014 15.811847162356322 25.62193606321839H15.814826688218393C16.322140625 25.914922772988508 16.89557520653736 25.967561063218394 17.428165454382185 25.829013110632182ZM8.042212059985632 15.194762526939655C7.485140041307472 14.63632489224138 6.716347880747127 14.286180944683908 5.865469782686782 14.286180944683908C5.015709006824713 14.286180944683908 4.249151490660919 14.63632489224138 3.6931719647988506 15.194762526939655C3.1390546426005748 15.752455280172414 2.7973526849856323 16.521818516522988 2.7973526849856323 17.377016927083332C2.7973526849856323 18.23224016702586 3.1390546426005748 19.004930540589083 3.6931719647988506 19.568979615660922C4.249151490660919 20.12406528376437 5.015709006824713 20.470857264727012 5.865469782686782 20.470857264727012C6.716347880747127 20.470857264727012 7.485140041307472 20.12406528376437 8.042212059985632 19.568979615660922C8.597843974497126 19.004930540589083 8.939521102729884 18.23224016702586 8.939521102729884 17.377016927083332C8.939521102729884 16.521818516522988 8.597843974497126 15.752455280172414 8.042212059985632 15.194762526939655ZM6.818098688936782 11.559294046336209C8.053360452586208 11.763863326149425 9.16236480783046 12.35850220007184 10.010263380028736 13.216704965876437H10.01657004310345C10.151393588362069 13.351826463721265 10.282492726293103 13.50077792744253 10.404678116020115 13.649356950431034L12.52349344468391 12.417496812140804C12.238625942887932 11.552192843031609 12.225267735272988 10.647732938218391 12.454418103448276 9.7992384608477C12.756368220186783 8.66331905531609 13.489132947198277 7.646481366738506 14.587708961925289 7.00926010237069L14.62336395474138 6.986491558908047C15.710071524784484 6.36871170079023 16.944985677083334 6.239921695402299 18.059526984554598 6.543411233836207C19.18859348060345 6.847620824353449 20.206945761494254 7.58748675466954 20.840914376795975 8.689812006106322V8.693188802083332C21.47192829561782 9.789530172413793 21.59970029633621 11.047510820761493 21.29886750179598 12.180078259698277C20.99840714798851 13.315625224497127 20.2630353358477 14.33956411637931 19.16555181393678 14.973036144037357L18.876239852729885 15.144756151221266H18.846891522988507C17.831866379310345 15.630394037356323 16.715835308908048 15.706545752514367 15.690779094827587 15.435160605244254C14.849187185704025 15.211199577945404 14.077415499281608 14.738597117456896 13.472795213721264 14.068551409841954L11.356934581537356 15.297059581537356C11.600212868175289 15.943591864224137 11.734663972701151 16.64052779274425 11.734663972701151 17.377016927083332C11.734663972701151 18.109781654094828 11.600212868175289 18.81679831178161 11.356934581537356 19.466707390445404L13.472795213721264 20.691838766163794C14.077415499281608 20.011339888649424 14.849187185704025 19.549563038793107 15.690779094827587 19.324857130028736C16.82019320222701 19.01463882902299 18.07179269935345 19.14640836027299 19.16555181393678 19.78735403196839L19.23574447737069 19.8202033045977V19.82355527119253C20.29238366558908 20.46748046875 21.00173428520115 21.461177173132185 21.29886750179598 22.5836638829023C21.59970029633621 23.709502559267243 21.47192829561782 24.968178430316094 20.840914376795975 26.066878591954023L20.80267712823276 26.14335308908046L20.798207839439655 26.136897449712645C20.16461166487069 27.19611889367816 19.16555181393678 27.913439744971267 18.062878951149425 28.217103089080464C16.931975080818965 28.51679373204023 15.680003142959771 28.388674119971263 14.587708961925289 27.757014637212645V27.748572647270116C13.489132947198277 27.110209231321843 12.756368220186783 26.09121138649425 12.454418103448276 24.957501795977013C12.225267735272988 24.112657237787356 12.238625942887932 23.208172503591957 12.52349344468391 22.343265804597703L10.404678116020115 21.114410021551723C10.282492726293103 21.26296421515805 10.151393588362069 21.405186916307475 10.01657004310345 21.540333243534484L10.010263380028736 21.54703717672414C9.16236480783046 22.402260416666667 8.053360452586208 22.996526849856323 6.818098688936782 23.194367367097705V25.655207435344828C7.698300287356322 25.839938038793104 8.486409707255747 26.282149335488505 9.103668148347703 26.90313218390805L9.10702011494253 26.909339529454023C9.934484105603449 27.737399425287357 10.44701221264368 28.890724227729887 10.44701221264368 30.15851248204023C10.44701221264368 31.42232803520115 9.934484105603449 32.569197198275866 9.10702011494253 33.40122979525862L9.103668148347703 33.41438936781609C8.270269935344828 34.245925377155174 7.1271003502155175 34.761135057471265 5.865469782686782 34.761135057471265C4.610518318965517 34.761135057471265 3.464394037356322 34.245925377155174 2.6328331986350575 33.41438936781609H2.62948123204023V33.40122979525862C1.8012748428520116 32.569197198275866 1.2876318965517242 31.42232803520115 1.2876318965517242 30.15851248204023C1.2876318965517242 28.890724227729887 1.8012748428520116 27.737399425287357 2.62948123204023 26.909339529454023V26.90313218390805H2.6328331986350575C3.2497191989942533 26.282149335488505 4.039318381824713 25.839938038793104 4.9161680136494255 25.655207435344828V23.194367367097705C3.681278690732759 22.996526849856323 2.5741613685344826 22.402260416666667 1.7277376616379312 21.54703717672414L1.718823913433908 21.540333243534484C0.6618296650502873 20.47420923132184 0 19.004930540589083 0 17.377016927083332C0 15.752455280172414 0.6618296650502873 14.28320141882184 1.718823913433908 13.216704965876437H1.7277376616379312C2.5741613685344826 12.35850220007184 3.681278690732759 11.763863326149425 4.9161680136494255 11.559294046336209V9.109031294899426C4.039318381824713 8.917894710847701 3.2497191989942533 8.47555926724138 2.6328331986350575 7.858127020474138H2.62948123204023V7.851398257902299C1.8012748428520116 7.015988864942528 1.2876318965517242 5.870361170977012 1.2876318965517242 4.6022997934626435C1.2876318965517242 3.340942349137931 1.8012748428520116 2.1852388918821837 2.62948123204023 1.3531764996408047L2.6328331986350575 1.349817084231322C3.464394037356322 0.5147677173132185 4.610518318965517 0 5.865469782686782 0C7.1271003502155175 0 8.270269935344828 0.5147677173132185 9.103668148347703 1.349817084231322V1.3531764996408047H9.10702011494253C9.934484105603449 2.1852388918821837 10.44701221264368 3.340942349137931 10.44701221264368 4.6022997934626435C10.44701221264368 5.870361170977012 9.934484105603449 7.015988864942528 9.10702011494253 7.851398257902299L9.103668148347703 7.858127020474138C8.486409707255747 8.47555926724138 7.698300287356322 8.917894710847701 6.818098688936782 9.109031294899426V11.559294046336209ZM18.720261673850576 9.92502411099138L18.70206173670977 9.898158719468391C18.410142690373565 9.403184985632185 17.943673087284484 9.073177667025861 17.428165454382185 8.930954965876436C16.89557520653736 8.788732264727013 16.322140625 8.848471758261494 15.811847162356322 9.142625448994254H15.814826688218393C15.305625718390806 9.43302990301724 14.965065912356323 9.907867007902299 14.822818381824714 10.440184132543104C14.682805495689655 10.968379579741379 14.743711970186782 11.552192843031609 15.036375897988506 12.060996542744252L15.046406968390807 12.07405679777299C15.339418507543105 12.576131734913794 15.806260551364943 12.912842986709771 16.327329965876437 13.048361754669541C16.85100646551724 13.197288389008621 17.4344721174569 13.13419692887931 17.937341594827586 12.840043238146551L17.964455280172416 12.826982983117816C18.459528331537356 12.52984976652299 18.789337015086208 12.060996542744252 18.926742816091952 11.545861350574713C19.06712814295977 11.014289107399426 19.011063397988508 10.433455369971265 18.720261673850576 9.92502411099138Z" fill="#2E2C2C"></path> </svg>