<svg xmlns="http://www.w3.org/2000/svg" viewBox="0 0 34.61741638183594 35" fill="none"> <path d="M17.037447112334544 0.000285185249446073C15.615468246756354 0.006892551743168453 14.257494244560405 0.12816737298441275 13.06264547783282 0.33959934516742074C9.54270175181876 0.9614576473889248 8.903624398024306 2.2630575605762946 8.903624398024306 4.663439174339239V7.833597567200146H17.221666557641335V8.890325333025816H8.903624398024306H5.781930388097969C3.364464207689024 8.890325333025816 1.2476764384032326 10.343335350267148 0.5855697860992212 13.107498691432596C-0.17816040125532628 16.275863951934156 -0.21203590912348247 18.252991615042927 0.5855697860992212 21.561271008805747C1.1768452197474197 24.023839448975483 2.5888846530392873 25.778519081060836 5.006350833448232 25.778519081060836H7.866272423526023V21.9781493777378C7.866272423526023 19.232639594032783 10.241749421186928 16.810864915038184 13.06264547783282 16.810864915038184H21.37097483717006C23.683742011486025 16.810864915038184 25.52997101236247 14.906633063260085 25.52997101236247 12.583978756351607V4.663439174339239C25.52997101236247 2.409192866939846 23.628304336042884 0.7158234187745018 21.37097483717006 0.33959934516742074C19.9420724883155 0.10173809628460562 18.459450882528838 -0.006322186225199528 17.037447112334544 0.000285185249446073ZM12.539125542751833 2.5499836426879003C13.39830989365612 2.5499836426879003 14.099972547715002 3.2631024201537207 14.099972547715002 4.139919239258251C14.099972547715002 5.013622981350027 13.39830989365612 5.720142035548807 12.539125542751833 5.720142035548807C11.676853019450894 5.720142035548807 10.978278537788665 5.013622981350027 10.978278537788665 4.139919239258251C10.978278537788665 3.2631024201537207 11.676853019450894 2.5499836426879003 12.539125542751833 2.5499836426879003Z" fill="#2E2C2C"></path> <path d="M26.566999226851426 8.89074871149955V12.584427039441445C26.566999226851426 15.448084321934543 24.139297249224548 17.858328163673896 21.37077560024124 17.858328163673896H13.062421336287903C10.786637516883465 17.858328163673896 8.903400256479387 19.806118189014462 8.903400256479387 22.085214322360468V30.005828618221145C8.903400256479387 32.259945421616806 10.863617685254871 33.58586718288943 13.062421336287903 34.23264006305942C15.695436969060005 35.006924577671846 18.220391472565357 35.14688852016531 21.37077560024124 34.23264006305942C23.464880245181295 33.62646170713575 25.529721966201453 32.406135518135784 25.529721966201453 30.005828618221145V26.835720034592445H17.22144241609642V25.779017173382872H25.529721966201453H29.68879285524217C32.10628394026722 25.779017173382872 33.00708390467801 24.092675807881527 33.84786374428289 21.561719291895585C34.71628770776103 18.95612364145183 34.679428875930014 16.450420406193356 33.84786374428289 13.10794697452243C33.25040200399495 10.70136411135008 32.109272494199466 8.89074871149955 29.68879285524217 8.89074871149955H26.566999226851426ZM21.894270630706128 28.949125757011576C22.756568058623166 28.949125757011576 23.455117635669296 29.65566971582646 23.455117635669296 30.529323648686027C23.455117635669296 31.406215181638867 22.756568058623166 32.119234340640276 21.894270630706128 32.119234340640276C21.03508627980184 32.119234340640276 20.333448530359064 31.406215181638867 20.333448530359064 30.529323648686027C20.333448530359064 29.65566971582646 21.03508627980184 28.949125757011576 21.894270630706128 28.949125757011576Z" fill="#2E2C2C"></path> </svg>