<svg xmlns="http://www.w3.org/2000/svg" viewBox="0 0 40.990562438964844 35" fill="none"> <path d="M39.37543430188807 26.951294803619383C37.18843783029696 28.091282335839622 25.85904628009331 32.74945984910174 23.447126594241073 34.00692033465316C21.035156919898057 35.26463076265847 19.695265413051697 35.25238358241756 17.789804121529183 34.34159328042007C15.884517789724397 33.430553035968686 3.828043641136914 28.560674264256548 1.6562136776482188 27.522413310772034C0.5708535681515204 27.003782718937572 0 26.565883539711557 0 26.152228778513464V22.009857507356784C0 22.009857507356784 15.696086173732107 18.59289422014283 18.23002776557643 17.683778532586448C20.76381939194842 16.77468783927545 21.642991973528048 16.74187039507889 23.799295511780716 17.531713543636045C25.95602395220501 18.32188161738326 38.85005526379841 20.648196012776072 40.98106462571679 21.42876629629368L40.980064855901205 25.51237609653938C40.980564740809 25.922031778475134 40.488677991541415 26.371178368126476 39.37543430188807 26.951294803619383Z" fill="#2E2C2C"></path> <path d="M39.37468447452638 22.8334678814353C37.18768800293527 23.972930534502353 25.858796337639415 28.631407978709152 23.44677667480562 29.88861852180667C21.03495696593494 31.146328949811984 19.695065459088582 31.134081769571072 17.789779127283794 30.223291467573585C15.88431783576128 29.31300105048389 3.828343572081589 24.442122508956164 1.6566585752161538 23.40463637707873C-0.5150214228002037 22.366500394821166 -0.5604859551639092 21.652064884604478 1.5727753882640747 20.816732209438232C3.706046729390214 19.9811245975727 15.69588621976899 15.27708264402064 18.23015273680338 14.367991950709646C20.76394436317537 13.459201188343329 21.64296697928266 13.426058818956701 23.799270517535323 14.216226892703917C25.95577400975111 15.006070041261069 37.217181212495014 19.48853800943421 39.348190574413394 20.268933333234088C41.479699821239564 21.050303432604164 41.5614310036636 21.693680303178184 39.37468447452638 22.8334678814353Z" fill="white"></path> <path d="M39.37543430188807 20.249612781547917C37.18843783029696 21.389700290749715 25.85904628009331 26.047752832784887 23.447126594241073 27.305713203244096C21.035156919898057 28.562923746341614 19.695265413051697 28.5506765661007 17.789804121529183 27.639886264103215C15.88434283000667 26.729345904559622 3.828043641136914 21.858917259448912 1.6562136776482188 20.820781277191347C0.5708535681515204 20.302100696866102 0 19.864776385284053 0 19.450946664368235V15.308175485285318C0 15.308175485285318 15.696086173732107 11.8913621635437 18.23002776557643 10.982271470232707C20.76381939194842 10.073155782676325 21.642991973528048 10.040188373007426 23.799295511780716 10.830181487036915C25.95602395220501 11.620199595311794 38.85005526379841 13.946039100042203 40.98106462571679 14.726759349032147L40.980064855901205 18.810944016921813C40.980564740809 19.220274773667498 40.488677991541415 19.66947135180962 39.37543430188807 20.249612781547917Z" fill="#2E2C2C"></path> <path d="M39.37468447452638 16.131810853609228C37.18768800293527 17.271598431866344 25.858796337639415 21.929675968146906 23.44677667480562 23.187436384642997C21.03495696593494 24.444721910476684 19.695065459088582 24.432399747499606 17.789779127283794 23.52153446276595C15.88431783576128 22.61129403416703 3.828343572081589 17.740640440847816 1.6566585752161538 16.702979349252654C-0.5150214228002037 15.665168292185156 -0.5604859551639092 14.950557822250738 1.5727753882640747 14.114925216139818C3.706046729390214 13.279767500691298 15.696061179486716 8.575425616194563 18.23015273680338 7.666484888355906C20.76394436317537 6.757519166271861 21.64296697928266 6.724551756602962 23.799270517535323 7.51456986487784C25.95577400975111 8.30441301343499 37.217181212495014 12.786556056418071 39.348190574413394 13.567276305408011C41.479699821239564 14.348496439305748 41.5614310036636 14.992023275352107 39.37468447452638 16.131810853609228Z" fill="white"></path> <path d="M39.37543430188807 13.297763357371819C37.18843783029696 14.437550935628938 25.85904628009331 19.095928402854177 23.447126594241073 20.353863779067993C21.035156919898057 21.61114930490168 19.695265413051697 21.598827141924602 17.789804121529183 20.687961857190945C15.88434283000667 19.777571463119692 3.828043641136914 14.906892875555085 1.6562136776482188 13.869256778205314C0.5708535681515204 13.350101307217669 0 12.912602035917887 0 12.49924720566447V8.356326061109216C0 8.356326061109216 15.696086173732107 4.939687699085329 18.23002776557643 4.030746971246673C20.76381939194842 3.1214563239725623 21.642991973528048 3.0888138394937283 23.799295511780716 3.8786569880508797C25.95602395220501 4.6686750963257575 38.85005526379841 6.994514601056169 40.98106462571679 7.775234850046111L40.980064855901205 11.859244558218048C40.980564740809 12.268250389773671 40.488677991541415 12.71744696791579 39.37543430188807 13.297763357371819Z" fill="#2E2C2C"></path> <path d="M39.37468447452638 9.180086400660073C37.18768800293527 10.319873978917192 25.858546395185517 14.97827644038782 23.44667669782406 16.235561966221507C21.034881983198773 17.492847492055194 19.694990476352412 17.480525329078116 17.789704144547628 16.570134935006863C15.884392818497448 15.659269650273206 3.82826858934542 10.788915987898664 1.6567385568014004 9.751104930831165C-0.5151014043854504 8.713443839236005 -0.5604034741541234 7.998683403829249 1.572695406678828 7.163200763190665C3.705946752408656 6.327893082269808 15.695986196750548 1.6241935498795859 18.230077754067214 0.7149253974263261C20.7638693804392 -0.19418354168380178 21.64289199654649 -0.22684027288250808 23.799195534799157 0.5631678376942146C25.95577400975111 1.3531734488463985 37.217181212495014 5.83533148837671 39.347940631959496 6.616051737366654C41.479699821239564 7.396597026638869 41.5614310036636 8.040298822402953 39.37468447452638 9.180086400660073Z" fill="#2E2C2C"></path> <path d="M25.498129376667304 5.150889072627556L21.97461562135743 5.516679853904538L21.18589721384281 7.414617877564779L19.911965520579642 5.296730494475947L15.843452244549262 4.931114672916691L18.879253289571626 3.8362917421154856L17.96838800483797 2.155753664854096L20.810658607808552 3.2673727285571212L23.49011669631121 2.3901147061743386L22.76590843614718 4.127799626094539L25.498129376667304 5.150889072627556ZM20.97554564464383 14.358519131706982L14.399834619336012 11.631197063283222L23.82229021753916 10.184855065322505L20.97554564464383 14.358519131706982ZM11.858844650291815 6.20584618203233C14.640279259984085 6.20584618203233 16.895035130826436 7.079894943307086 16.895035130826436 8.157896746961082C16.895035130826436 9.236198481559754 14.640279259984085 10.110097277362172 11.858844650291815 10.110097277362172C9.077410040599544 10.110097277362172 6.822654169757192 9.236048516087417 6.822654169757192 8.157896746961082C6.822654169757192 7.079894943307086 9.077410040599544 6.20584618203233 11.858844650291815 6.20584618203233Z" fill="white"></path> <path d="M29.663170428392366 5.668769837100331L35.239636517268856 7.872462464611704L29.66791933501639 10.07408056975574L29.663170428392366 5.668769837100331Z" fill="white"></path> <path d="M23.492641115095555 8.109082985715169L29.66217065857678 5.668619871627993L29.666919565200804 10.073930604283403L29.06205882677218 10.310526131141478L23.492641115095555 8.109082985715169Z" fill="white"></path> </svg>